<svg version="1.1" viewBox="0 0 64 64" xmlns="http://www.w3.org/2000/svg" xmlns:xlink="http://www.w3.org/1999/xlink"><defs><linearGradient id="a"><stop stop-color="#94a2a9" offset="0"/><stop stop-color="#bec8cc" offset="1"/></linearGradient><linearGradient id="h" x2="0" y1="557.8" y2="505.8" gradientTransform="matrix(.46467 0 0 .48276 -175.66 -225.28)" gradientUnits="userSpaceOnUse"><stop stop-color="#197cf1" offset="0"/><stop stop-color="#20bcfa" offset="1"/></linearGradient><linearGradient id="e" x1="50.5" x2="50.5" y1="23" y2="41" gradientTransform="matrix(-.4 0 0 -.77778 64.2 61.889)" gradientUnits="userSpaceOnUse"><stop stop-color="#2f3943" offset="0"/><stop stop-color="#4d5662" offset="1"/></linearGradient><linearGradient id="c" x1="399.07" x2="399.07" y1="592.66" y2="500.8" gradientTransform="matrix(.77819 0 0 .28303 -290.55 -117.74)" gradientUnits="userSpaceOnUse" xlink:href="#a"/><linearGradient id="b" x1="44" x2="44" y1="19" y2="11" gradientTransform="translate(2,2)" gradientUnits="userSpaceOnUse"><stop stop-color="#2f3943" offset="0"/><stop stop-color="#535d6a" offset="1"/></linearGradient><linearGradient id="g" x1="54" x2="54" y1="49" y2="25" gradientTransform="translate(5.231e-7 1.7526e-5)" gradientUnits="userSpaceOnUse" xlink:href="#a"/><linearGradient id="f" x1="24" x2="24" y1="22" y2="13" gradientTransform="translate(-1,2)" gradientUnits="userSpaceOnUse" xlink:href="#a"/><linearGradient id="d" x1="28" x2="38" y1="30" y2="40" gradientUnits="userSpaceOnUse"><stop stop-color="#292c2f" offset="0"/><stop stop-color="#292c2f" stop-opacity=".26531" offset="1"/></linearGradient></defs><g transform="matrix(.32853 0 0 .043478 -105.98 -10.774)" stroke-width="4.1836"></g><g transform="matrix(-.15718 .21999 -.0383 -.026281 100.57 -57.882)" stroke-width="4.4621"></g><path d="m17 15-9 9h6l5-5h10l3 5h5l-3-5h2v-4z" fill="url(#f)"/><path d="m58 25-14 4.9805v14l14 5.0195 3-0.01952v-24z" fill="url(#g)"/><ellipse cx="31" cy="32" rx="1" ry="1" fill="#f00" fill-opacity=".96684"/><path d="m6 24c-1.662 0-3 1.338-3 3v20c0 1.662 1.338 3 3 3h32c1.662 0 3-1.338 3-3v-20c0-1.662-1.338-3-3-3z" fill="url(#c)"/><path d="m27.707 29.293-20.414 15.414 4.293 4.293h26.414c1.662 0 3-1.338 3-3v-5.4141l-9.293-9.293-1 1z" fill="url(#d)" opacity=".2"/><path d="m44 44v-14h-3v14h1e-6z" fill="url(#e)" stroke-linecap="round" stroke-width=".70711"/><path d="m8 30v14h19v-14z" fill="url(#h)" stroke-width="1.5694"/><path d="m36 19c0 3 18 1.8675 21 0 1-0.66667 1-1.4369 1-2s0-1.3333-1-2c-3-2-21-3-21 0z" fill="url(#b)"/><path d="m8 29c-0.554 0-1 0.446-1 1v14c0 0.554 0.446 1 1 1h19c0.554 0 1-0.446 1-1v-14c0-0.554-0.446-1-1-1zm0 1h19v8l-4-2-5 4-2-2-8 6zm4.5 1.5234a2.5 2.5 0 0 0-2.5 2.5 2.5 2.5 0 0 0 2.5 2.5 2.5 2.5 0 0 0 2.5-2.5 2.5 2.5 0 0 0-2.5-2.5z" fill="#31363b" stroke-width="1.7638"/><g fill-opacity=".96684"><path d="m31.707 31.293a1 1 0 0 0-1.4142 0 1 1 0 0 0 0 1.4142 1 1 0 0 0 1.4142 0 1 1 0 0 0 0-1.4142z" fill="#da4453"/><path d="m31 35a1 1 0 0 0-1 1 1 1 0 0 0 1 1 1 1 0 0 0 1-1 1 1 0 0 0-1-1z" fill="#31363b"/><path d="m31 39a1 1 0 0 0-1 1 1 1 0 0 0 1 1 1 1 0 0 0 1-1 1 1 0 0 0-1-1z" fill="#31363b"/></g><path d="m3 46v1c0 1.662 1.338 3 3 3h32c1.662 0 3-1.338 3-3v-1c0 1.662-1.338 3-3 3h-32c-1.662 0-3-1.338-3-3z" fill="#292c2f" opacity=".4"/></svg>
