<?xml version="1.0" encoding="UTF-8" standalone="no"?>

<!-- Created with Inkscape (http://www.inkscape.org/) -->
<svg width="64" version="1.1" xmlns="http://www.w3.org/2000/svg" height="64" xmlns:xlink="http://www.w3.org/1999/xlink" xmlns:inkscape="http://www.inkscape.org/namespaces/inkscape">
 <defs id="defs5455">
  <linearGradient inkscape:collect="always" id="linearGradient5002">
   <stop style="stop-color:#2e5d89" id="stop5004"/>
   <stop offset="1" style="stop-color:#1b92f4" id="stop5006"/>
  </linearGradient>
  <linearGradient inkscape:collect="always" id="linearGradient4352" xlink:href="#linearGradient5002" y1="512.79797" y2="527.79797" x1="400.57144" x2="415.57144" gradientUnits="userSpaceOnUse" gradientTransform="matrix(1.1818182 0 0 1.1818182 -74.28571 -95.23599)"/>
  <linearGradient inkscape:collect="always" id="linearGradient4159">
   <stop style="stop-color:#2a2c2f" id="stop4161"/>
   <stop offset="1" style="stop-color:#424649" id="stop4163"/>
  </linearGradient>
  <linearGradient inkscape:collect="always" xlink:href="#linearGradient4159" id="linearGradient4250" y1="544.66284" x1="409.49451" y2="503.798" x2="409.57144" gradientUnits="userSpaceOnUse" gradientTransform="matrix(1.0833331 0 0 1.027779 -410.61896 -509.79302)"/>
  <linearGradient inkscape:collect="always" id="linearGradient4591">
   <stop style="stop-color:#7e8f9e" id="stop4593"/>
   <stop offset="1" style="stop-color:#84ced5" id="stop4595"/>
  </linearGradient>
  <linearGradient inkscape:collect="always" xlink:href="#linearGradient4591" id="linearGradient4597-5" y1="541.79797" y2="489.798" x2="0" gradientUnits="userSpaceOnUse" gradientTransform="matrix(1.0871079 0 0 1.1000002 -44.37025 -47.979925)"/>
  <linearGradient inkscape:collect="always" xlink:href="#linearGradient4675" id="linearGradient4681" y1="535.79797" x1="394.57144" y2="522.79797" x2="404.57144" gradientUnits="userSpaceOnUse" gradientTransform="matrix(1.0999997 0 0 1.1428564 -49.45702 -70.68506)"/>
  <linearGradient inkscape:collect="always" id="linearGradient4675">
   <stop style="stop-color:#e4a56d" id="stop4677"/>
   <stop offset="1" style="stop-color:#a7bd78" id="stop4679"/>
  </linearGradient>
  <linearGradient inkscape:collect="always" xlink:href="#linearGradient4683" id="linearGradient4689" x1="404.57144" x2="421.57144" gradientUnits="userSpaceOnUse" gradientTransform="matrix(1.0795244 0 0 1.1428567 -41.17329 -70.68517)"/>
  <linearGradient inkscape:collect="always" id="linearGradient4683">
   <stop style="stop-color:#c3a278" id="stop4685"/>
   <stop offset="1" style="stop-color:#6688aa" id="stop4687"/>
  </linearGradient>
  <linearGradient inkscape:collect="always" xlink:href="#linearGradient4722" id="linearGradient4728" y1="536.79797" x1="430.57144" y2="524.79797" x2="437.49963" gradientUnits="userSpaceOnUse" gradientTransform="matrix(1.1078085 0 0 1.1428564 -53.44896 -70.68507)"/>
  <linearGradient inkscape:collect="always" id="linearGradient4722">
   <stop style="stop-color:#6588af" id="stop4724"/>
   <stop offset="1" style="stop-color:#8ba8cd" id="stop4726"/>
  </linearGradient>
  <linearGradient inkscape:collect="always" xlink:href="#linearGradient4834" id="linearGradient4840" x1="421.57144" x2="438.57144" gradientUnits="userSpaceOnUse" gradientTransform="matrix(1.0489857 0 0 1.1000002 -27.650963 -47.979924)"/>
  <linearGradient inkscape:collect="always" id="linearGradient4834">
   <stop style="stop-color:#89ad8b" id="stop4836"/>
   <stop offset="1" style="stop-color:#82b3c7" id="stop4838"/>
  </linearGradient>
  <linearGradient inkscape:collect="always" xlink:href="#linearGradient4778" id="linearGradient4784" y1="525.79797" x1="387.57144" y2="513.79797" x2="401.57144" gradientUnits="userSpaceOnUse" gradientTransform="matrix(1.0999997 0 0 1.2751426 -49.45702 -137.41798)"/>
  <linearGradient inkscape:collect="always" id="linearGradient4778">
   <stop style="stop-color:#e1b16f" id="stop4780"/>
   <stop offset="1" style="stop-color:#99bf83" id="stop4782"/>
  </linearGradient>
  <linearGradient inkscape:collect="always" xlink:href="#linearGradient4786" id="linearGradient4792" y1="510.798" x1="404.57144" y2="498.798" x2="391.57144" gradientUnits="userSpaceOnUse" gradientTransform="matrix(1.0999997 0 0 1.1000002 -49.45702 -47.979925)"/>
  <linearGradient inkscape:collect="always" id="linearGradient4786">
   <stop style="stop-color:#99c487" id="stop4788"/>
   <stop offset="1" style="stop-color:#b4d99e" id="stop4790"/>
  </linearGradient>
  <linearGradient inkscape:collect="always" xlink:href="#linearGradient4802" id="linearGradient4808" y1="501.798" x1="404.57144" y2="501.61618" x2="421.57144" gradientUnits="userSpaceOnUse" gradientTransform="matrix(1.1176469 0 0 1.1000002 -56.59659 -47.979925)"/>
  <linearGradient inkscape:collect="always" id="linearGradient4802">
   <stop style="stop-color:#75d5c7" id="stop4804"/>
   <stop offset="1" style="stop-color:#66afb9" id="stop4806"/>
  </linearGradient>
  <linearGradient inkscape:collect="always" xlink:href="#linearGradient4770" id="linearGradient4776" y1="495.798" x1="428.57144" y2="504.798" x2="438.57144" gradientUnits="userSpaceOnUse" gradientTransform="matrix(1.0489851 0 0 1.062501 -27.650705 -29.2379)"/>
  <linearGradient inkscape:collect="always" id="linearGradient4770">
   <stop style="stop-color:#5c7b9e" id="stop4772"/>
   <stop offset="1" style="stop-color:#839dc0" id="stop4774"/>
  </linearGradient>
  <linearGradient inkscape:collect="always" xlink:href="#linearGradient4810" id="linearGradient4816" x1="421.57144" x2="406.57144" gradientUnits="userSpaceOnUse" gradientTransform="matrix(1.0871079 0 0 1.1000002 -44.37025 -47.979925)"/>
  <linearGradient inkscape:collect="always" id="linearGradient4810">
   <stop style="stop-color:#7fbcc6" id="stop4812"/>
   <stop offset="1" style="stop-color:#8ee4e3" id="stop4814"/>
  </linearGradient>
  <linearGradient inkscape:collect="always" xlink:href="#linearGradient4818" id="linearGradient4824" x1="421.57144" x2="436.57144" gradientUnits="userSpaceOnUse" gradientTransform="matrix(1.0871079 0 0 1.1000002 -44.37025 -47.979925)"/>
  <linearGradient inkscape:collect="always" id="linearGradient4818">
   <stop style="stop-color:#84d5d7" id="stop4820"/>
   <stop offset="1" style="stop-color:#84a8ba" id="stop4822"/>
  </linearGradient>
  <linearGradient inkscape:collect="always" xlink:href="#linearGradient5002" id="linearGradient4352-8" y1="512.79797" x1="400.57144" y2="527.79797" gradientUnits="userSpaceOnUse" x2="415.57144" gradientTransform="matrix(1 0 0 1 57.62496 10.500083)"/>
  <linearGradient inkscape:collect="always" xlink:href="#linearGradient4143" id="linearGradient4531" y1="544.66284" x1="409.49451" y2="503.798" gradientUnits="userSpaceOnUse" x2="409.57144" gradientTransform="matrix(1.0833331 0 0 1.027779 -34.04754 -14.995041)"/>
  <linearGradient inkscape:collect="always" xlink:href="#linearGradient4591" id="linearGradient4533" y1="541.79797" y2="489.798" gradientUnits="userSpaceOnUse" x2="0" gradientTransform="matrix(1.0871079 0 0 1.1000002 -44.37025 -45.979902)"/>
  <linearGradient inkscape:collect="always" xlink:href="#linearGradient4675" id="linearGradient4535" y1="535.79797" x1="394.57144" y2="522.79797" gradientUnits="userSpaceOnUse" x2="404.57144" gradientTransform="matrix(1.0999997 0 0 1.1428564 -49.45702 -68.68503)"/>
  <linearGradient inkscape:collect="always" xlink:href="#linearGradient4683" id="linearGradient4537" x1="404.57144" gradientUnits="userSpaceOnUse" x2="421.57144" gradientTransform="matrix(1.0795244 0 0 1.1428567 -41.17329 -68.68515)"/>
  <linearGradient inkscape:collect="always" xlink:href="#linearGradient4722" id="linearGradient4539" y1="536.79797" x1="430.57144" y2="524.79797" gradientUnits="userSpaceOnUse" x2="437.49963" gradientTransform="matrix(1.1078085 0 0 1.1428564 -53.44896 -68.68505)"/>
  <linearGradient inkscape:collect="always" xlink:href="#linearGradient4834" id="linearGradient4541" x1="421.57144" gradientUnits="userSpaceOnUse" x2="438.57144" gradientTransform="matrix(1.0489857 0 0 1.1000002 -27.650963 -45.979901)"/>
  <linearGradient inkscape:collect="always" xlink:href="#linearGradient4778" id="linearGradient4543" y1="525.79797" x1="387.57144" y2="513.79797" gradientUnits="userSpaceOnUse" x2="401.57144" gradientTransform="matrix(1.0999997 0 0 1.2751426 -49.45702 -135.41796)"/>
  <linearGradient inkscape:collect="always" xlink:href="#linearGradient4786" id="linearGradient4545" y1="510.798" x1="404.57144" y2="498.798" gradientUnits="userSpaceOnUse" x2="391.57144" gradientTransform="matrix(1.0999997 0 0 1.1000002 -49.45702 -45.979902)"/>
  <linearGradient inkscape:collect="always" xlink:href="#linearGradient4802" id="linearGradient4547" y1="501.798" x1="404.57144" y2="501.61618" gradientUnits="userSpaceOnUse" x2="421.57144" gradientTransform="matrix(1.1176469 0 0 1.1000002 -56.59659 -45.979902)"/>
  <linearGradient inkscape:collect="always" xlink:href="#linearGradient4770" id="linearGradient4549" y1="495.798" x1="428.57144" y2="504.798" gradientUnits="userSpaceOnUse" x2="438.57144" gradientTransform="matrix(1.0489851 0 0 1.062501 -27.650705 -27.23787)"/>
  <linearGradient inkscape:collect="always" xlink:href="#linearGradient4810" id="linearGradient4551" x1="421.57144" gradientUnits="userSpaceOnUse" x2="406.57144" gradientTransform="matrix(1.0871079 0 0 1.1000002 -44.37025 -45.979902)"/>
  <linearGradient inkscape:collect="always" xlink:href="#linearGradient4818" id="linearGradient4553" x1="421.57144" gradientUnits="userSpaceOnUse" x2="436.57144" gradientTransform="matrix(1.0871079 0 0 1.1000002 -44.37025 -45.979902)"/>
  <linearGradient inkscape:collect="always" xlink:href="#linearGradient4159" id="linearGradient4592" y1="540.79797" y2="536.79797" x2="0" gradientUnits="userSpaceOnUse"/>
  <linearGradient inkscape:collect="always" id="linearGradient4143">
   <stop style="stop-color:#197cf1" id="stop4145"/>
   <stop offset="1" style="stop-color:#20bcfa" id="stop4147"/>
  </linearGradient>
 </defs>
 <metadata id="metadata5458"/>
 <g inkscape:label="Capa 1" inkscape:groupmode="layer" id="layer1" transform="matrix(1 0 0 1 -376.57144 -491.79797)">
  <path cx="408.57144" cy="519.79797" inkscape:connector-curvature="0" style="fill:url(#linearGradient4352);stroke-linecap:round;stroke-linejoin:round;stroke-width:2" id="circle4309-6" r="9.999989"/>
  <g id="g4853" transform="matrix(1 0 0 1 0 2.00002)">
   <path inkscape:connector-curvature="0" style="stroke-opacity:0.550265;fill:url(#linearGradient4250);stroke-width:2.8" id="rect4173" d="M 6,8 6,45 58,45 58,8 Z" transform="matrix(1 0 0 1 376.57144 491.79797)"/>
   <path inkscape:connector-curvature="0" style="fill:url(#linearGradient4597-5)" id="path4589-5" d="m 384.57143,501.79797 0,33 47.83274,0 0,-33 -47.83274,0 z"/>
   <path inkscape:connector-curvature="0" style="fill:url(#linearGradient4681);fill-rule:evenodd" id="path4476-9" d="m 395.57143,518.79798 -11,9.41072 0,6.58927 11,0 0,-15.99999 z"/>
   <path inkscape:connector-curvature="0" style="fill:url(#linearGradient4689);fill-rule:evenodd" id="path4478-4" d="m 395.57143,519.79799 0,14.99998 18.35191,0 z"/>
   <path inkscape:connector-curvature="0" style="fill:url(#linearGradient4728);fill-rule:evenodd" id="path4488-0-8" d="m 432.57143,518.79798 -19,15.99999 19,1e-5 z"/>
   <path inkscape:connector-curvature="0" style="fill:url(#linearGradient4840);fill-rule:evenodd" id="path4188-3" d="m 414.57143,528.19797 0,-24.39999 18,15 -18,15.99999 z"/>
   <path inkscape:connector-curvature="0" style="fill:url(#linearGradient4784);fill-rule:evenodd" id="path4192-6" d="m 384.57143,509.79798 0,21.00001 11,-11 z"/>
   <path inkscape:connector-curvature="0" style="fill:url(#linearGradient4792);fill-rule:evenodd" id="path4198-3" d="m 384.57143,501.79797 0,8.54219 11,9.45783 0,-7.00002 0,-11 z"/>
   <path inkscape:connector-curvature="0" style="fill:url(#linearGradient4808);fill-rule:evenodd" id="path4200-1" d="m 395.57143,501.79797 0,11 0,7.00002 19,-16.00001 -3,-2 z"/>
   <path inkscape:connector-curvature="0" style="fill:url(#linearGradient4776);fill-rule:evenodd" id="path4202-1" d="m 417.12013,501.79797 -2.5487,2.00001 18,15 0,-6 0,-11 z"/>
   <path inkscape:connector-curvature="0" style="fill:url(#linearGradient4816);fill-rule:evenodd" id="path4206-9-2" d="m 411.57143,501.79798 3,2 0,-2 z"/>
   <path inkscape:connector-curvature="0" style="fill:url(#linearGradient4824);fill-rule:evenodd" id="path4208-1-1" d="m 414.57143,501.79798 0,2 3,-2 z"/>
   <rect width="47.999989" x="384.57144" y="530.79797" height="3.999983" style="fill:#ffffff;fill-opacity:0.784314" id="rect4267"/>
   <circle cx="429.57144" cy="532.79791" style="fill:#4d4d4d" r="1" id="path4166"/>
   <path inkscape:connector-curvature="0" style="fill:#4d4d4d" id="rect4183" d="m 386.57143,531.79798 0,1 1,0 0,-1 z m 1,1 0,1 1,0 0,-1 z"/>
   <rect width="19.999987" x="386.57144" y="503.798" height="16.999994" style="fill:#ffffff;fill-opacity:0.784314" id="rect3432"/>
   <path inkscape:connector-curvature="0" style="fill:#3580ca" id="rect4160" d="m 387.57143,504.79798 0,4 4.16667,0 0,-3 -1.04167,0 -1.04166,-1 z"/>
   <path inkscape:connector-curvature="0" style="fill:#ff9955" id="rect4235" d="m 395.57143,504.79798 0,5 4,0 0,-3 -2,-2 z"/>
   <path inkscape:connector-curvature="0" style="fill:#d45500;fill-rule:evenodd" id="path4237" d="m 397.57143,504.79798 2,2 -2,0 z"/>
   <path inkscape:connector-curvature="0" style="fill:#7aabdc" id="rect4272" d="m 387.57143,505.79798 5,0 0,4 -5,0 z"/>
   <path inkscape:connector-curvature="0" style="fill:#71c837" id="path4275" d="m 401.57143,504.79798 0,5 4,0 0,-3 -2,-2 z"/>
   <path inkscape:connector-curvature="0" style="fill:#447821;fill-rule:evenodd" id="path4277" d="m 403.57143,504.79798 2,2 -2,0 z"/>
  </g>
  <path cx="408.57144" cy="519.79797" inkscape:connector-curvature="0" style="fill:url(#linearGradient4352-8);stroke-linecap:round;stroke-linejoin:round;stroke-width:2" id="circle4309-6-3" r="9.999989"/>
  <path inkscape:connector-curvature="0" style="stroke-opacity:0.550265;fill:url(#linearGradient4531);stroke-width:2.8" id="rect4173-6" d="m 380.57143,540.79797 0,2 a 2,2 0 0 0 2,2 l 52,0 a 2,2 0 0 0 2,-2 l 0,-2 -2,0 -52,0 -2,0 z"/>
  <path inkscape:connector-curvature="0" style="fill:url(#linearGradient4533)" id="path4589-5-9" d="m 384.57143,503.79799 0,33 47.83274,0 0,-33 -47.83274,0 z"/>
  <path inkscape:connector-curvature="0" style="fill:url(#linearGradient4535);fill-rule:evenodd" id="path4476-9-4" d="m 395.57143,520.798 -11,9.41072 0,6.58927 11,0 0,-15.99999 z"/>
  <path inkscape:connector-curvature="0" style="fill:url(#linearGradient4537);fill-rule:evenodd" id="path4478-4-76" d="m 395.57143,521.79801 0,14.99998 18.35191,0 z"/>
  <path inkscape:connector-curvature="0" style="fill:url(#linearGradient4539);fill-rule:evenodd" id="path4488-0-8-6" d="m 432.57143,520.798 -19,15.99999 19,10e-6 z"/>
  <path inkscape:connector-curvature="0" style="fill:url(#linearGradient4541);fill-rule:evenodd" id="path4188-3-5" d="m 414.57143,530.19799 0,-24.39999 18,15 -18,15.99999 z"/>
  <path inkscape:connector-curvature="0" style="fill:url(#linearGradient4543);fill-rule:evenodd" id="path4192-6-6" d="m 384.57143,511.798 0,21.00001 11,-11 z"/>
  <path inkscape:connector-curvature="0" style="fill:url(#linearGradient4545);fill-rule:evenodd" id="path4198-3-3" d="m 384.57143,503.79799 0,8.54219 11,9.45783 0,-7.00002 0,-11 z"/>
  <path inkscape:connector-curvature="0" style="fill:url(#linearGradient4547);fill-rule:evenodd" id="path4200-1-8" d="m 395.57143,503.79799 0,11 0,7.00002 19,-16.00001 -3,-2 z"/>
  <path inkscape:connector-curvature="0" style="fill:url(#linearGradient4549);fill-rule:evenodd" id="path4202-1-0" d="m 417.12013,503.79799 -2.5487,2.00001 18,15 0,-6 0,-11 z"/>
  <path inkscape:connector-curvature="0" style="fill:url(#linearGradient4551);fill-rule:evenodd" id="path4206-9-2-50" d="m 411.57143,503.798 3,2 0,-2 z"/>
  <path inkscape:connector-curvature="0" style="fill:url(#linearGradient4553);fill-rule:evenodd" id="path4208-1-1-3" d="m 414.57143,503.798 0,2 3,-2 z"/>
  <rect width="47.999989" x="384.57144" y="532.79797" height="3.999983" style="fill:#ffffff;fill-opacity:0.784314" id="rect4267-5"/>
  <circle cx="429.57144" cy="534.79791" style="fill:#4d4d4d" id="path4166-70" r="1"/>
  <path inkscape:connector-curvature="0" style="fill:#4d4d4d" id="rect4183-8" d="m 386.57143,533.798 0,1 1,0 0,-1 z m 1,1 0,1 1,0 0,-1 z"/>
  <rect width="19.999987" x="386.57144" y="505.79803" height="16.999994" style="fill:#ffffff;fill-opacity:0.784314" id="rect3432-0"/>
  <path inkscape:connector-curvature="0" style="fill:#3580ca" id="rect4160-5" d="m 387.57143,506.798 0,4 4.16667,0 0,-3 -1.04167,0 -1.04166,-1 z"/>
  <path inkscape:connector-curvature="0" style="fill:#ff9955" id="rect4235-8" d="m 395.57143,506.798 0,5 4,0 0,-3 -2,-2 z"/>
  <path inkscape:connector-curvature="0" style="fill:#d45500;fill-rule:evenodd" id="path4237-5" d="m 397.57143,506.798 2,2 -2,0 z"/>
  <path inkscape:connector-curvature="0" style="fill:#7aabdc" id="rect4272-6" d="m 387.57143,507.798 5,0 0,4 -5,0 z"/>
  <path inkscape:connector-curvature="0" style="fill:#71c837" id="path4275-8" d="m 401.57143,506.798 0,5 4,0 0,-3 -2,-2 z"/>
  <path inkscape:connector-curvature="0" style="fill:#447821;fill-rule:evenodd" id="path4277-5" d="m 403.57143,506.798 2,2 -2,0 z"/>
  <circle cx="384.57144" cy="542.79822" style="fill:#ffffff;fill-opacity:0.784314;stroke-linecap:round;stroke-linejoin:round;stroke-width:2" id="path4292-0" r="1"/>
  <path inkscape:connector-curvature="0" style="fill:url(#linearGradient4592);fill-rule:evenodd" id="path4584" d="m 380.57143,540.79799 56,0 -1.99999,-2 -52,0 -2.00001,2 z"/>
  <path style="stroke-opacity:0.550265;fill:#0b66cb;stroke-width:2.8" id="path4259" d="M 4 50 L 4 51 A 2 2 0 0 0 6 53 L 58 53 A 2 2 0 0 0 60 51 L 60 50 A 2 2 0 0 1 58 52 L 6 52 A 2 2 0 0 1 4 50 z " transform="matrix(1 0 0 1 376.57144 491.79797)"/>
 </g>
</svg>
