<?xml version="1.0" encoding="UTF-8" standalone="no"?>

<!-- Created with Inkscape (http://www.inkscape.org/) -->
<svg width="64" version="1.1" xmlns="http://www.w3.org/2000/svg" height="64" xmlns:xlink="http://www.w3.org/1999/xlink" xmlns:inkscape="http://www.inkscape.org/namespaces/inkscape">
 <defs id="defs5455">
  <linearGradient inkscape:collect="always" id="linearGradient4158" xlink:href="#linearGradient4271" x1="432.23273" gradientUnits="userSpaceOnUse" x2="401.07935" gradientTransform="matrix(0 1.0271756 1 0 -499.79799 -395.97889)"/>
  <linearGradient inkscape:collect="always" id="linearGradient4271">
   <stop style="stop-color:#2a2c2f" id="stop4273"/>
   <stop offset="1" style="stop-color:#424649" id="stop4275"/>
  </linearGradient>
  <linearGradient inkscape:collect="always" xlink:href="#linearGradient4227" id="linearGradient4521" y1="32.00002" x1="23.999987" y2="56.00002" x2="47.999985" gradientUnits="userSpaceOnUse" gradientTransform="matrix(1 0 0 1 362.57144 479.79797)"/>
  <linearGradient inkscape:collect="always" id="linearGradient4227">
   <stop style="stop-color:#292c2f" id="stop4229"/>
   <stop offset="1" style="stop-opacity:0" id="stop4231"/>
  </linearGradient>
 </defs>
 <metadata id="metadata5458"/>
 <g inkscape:label="Capa 1" inkscape:groupmode="layer" id="layer1" transform="matrix(1 0 0 1 -376.57144 -491.79797)">
  <path style="fill:url(#linearGradient4158)" id="rect4139" d="M 6 16 L 6 41 L 13 48 L 21 48 L 23 48 L 28 48 L 30 48 L 58 48 L 58 42.638672 A 4 4 0 0 1 57 40 A 4 4 0 0 1 58 37.361328 L 58 16 L 33 16 L 20 16 L 6 16 z " transform="matrix(1 0 0 1 376.57144 491.79797)"/>
  <path style="stroke-opacity:0.550265;fill:#1c1e20;stroke-width:2.8" id="rect4492" d="M 12 47 L 13 48 L 58 48 L 58 47 L 13 47 L 12 47 z " transform="matrix(1 0 0 1 376.57144 491.79797)"/>
  <path inkscape:connector-curvature="0" style="fill:url(#linearGradient4521);opacity:0.2" id="rect4500" d="m 391.27847,511.09094 -1.41406,1.41406 8.05078,8.05078 -0.22461,0.24219 17,17 0.88086,0 0,-8.88086 -13.19531,-13.19531 -3.10352,3.36328 -7.99414,-7.99414 z m -2.14648,6.14648 -2.1211,2.1211 5.5,5.5 -1.35351,1.35351 11.58593,11.58594 6.94922,0 -20.56054,-20.56055 z"/>
  <path inkscape:connector-curvature="0" style="fill:#afc0c6" id="path4496" d="m 390.57144,510.79797 c -0.554,0 -1,0.446 -1,1 0,0.554 0.446,1 1,1 0.554,0 1,-0.446 1,-1 0,-0.554 -0.446,-1 -1,-1 z"/>
  <path inkscape:connector-curvature="0" style="fill:#afc0c6" id="path4494" d="m 397.57144,510.79797 -2,2 3,3 -3,3 2,2 3,-3 2,-2 -5,-5 z"/>
  <path inkscape:connector-curvature="0" style="fill:#afc0c6" id="path4492" d="m 388.07144,516.79797 c -0.831,0 -1.5,0.669 -1.5,1.5 0,0.831 0.669,1.5 1.5,1.5 0.831,0 1.5,-0.669 1.5,-1.5 0,-0.831 -0.669,-1.5 -1.5,-1.5 z"/>
  <path inkscape:connector-curvature="0" style="fill:#afc0c6" id="rect4231" d="m 392.57144,522.79797 c -1.108,0 -2,0.892 -2,2 0,1.108 0.892,2 2,2 1.108,0 2,-0.892 2,-2 0,-1.108 -0.892,-2 -2,-2 z"/>
  <path inkscape:connector-curvature="0" style="fill:#afc0c6" id="rect4604" d="m 414.57144,529.79797 0,1 12,0 0,-1 -12,0 z m 0,2 0,1 18,0 0,-1 -18,0 z m 0,2 0,1 8,0 0,-1 -8,0 z m 0,2 0,1 5,0 0,-1 -5,0 z"/>
  <path inkscape:connector-curvature="0" style="fill:#afc0c6" id="rect4618" d="m 391.57144,532.79797 0,1 5,0 0,-1 -5,0 z m 0,2 0,1 2,0 0,-1 -2,0 z"/>
  <path inkscape:connector-curvature="0" style="fill:#dfe6e8;fill-rule:evenodd" id="path4616" d="m 432.57144,511.79799 -1.00001,0.99998 -0.99999,-0.99998 z"/>
 </g>
</svg>
