<?xml version="1.0" encoding="UTF-8" standalone="no"?>

<!-- Created with Inkscape (http://www.inkscape.org/) -->
<svg width="64" version="1.1" xmlns="http://www.w3.org/2000/svg" height="64" xmlns:xlink="http://www.w3.org/1999/xlink" xmlns:inkscape="http://www.inkscape.org/namespaces/inkscape">
 <defs id="defs5455">
  <linearGradient inkscape:collect="always" id="linearGradient4251-0">
   <stop style="stop-color:#63984b" id="stop4253-4"/>
   <stop offset="1" style="stop-color:#8fc278" id="stop4255-2"/>
  </linearGradient>
  <linearGradient inkscape:collect="always" id="linearGradient4159">
   <stop style="stop-color:#2a2c2f" id="stop4161"/>
   <stop offset="1" style="stop-color:#424649" id="stop4163"/>
  </linearGradient>
  <linearGradient inkscape:collect="always" xlink:href="#linearGradient4251-0" id="linearGradient4291" y1="549.79797" y2="497.79797" x2="0" gradientUnits="userSpaceOnUse" gradientTransform="matrix(1 0 0 1 -0.000002 -29)"/>
  <linearGradient inkscape:collect="always" xlink:href="#linearGradient4159" id="linearGradient4183" y1="527.79797" y2="518.79797" x2="0" gradientUnits="userSpaceOnUse" gradientTransform="matrix(0.85714287 0 0 0.8888889 60.65304 46.644314)"/>
  <linearGradient inkscape:collect="always" xlink:href="#linearGradient4159" id="linearGradient4281" y1="527.79797" y2="518.79797" gradientUnits="userSpaceOnUse" x2="0" gradientTransform="matrix(0.85714287 0 0 0.8888889 52.653035 46.644314)"/>
  <linearGradient inkscape:collect="always" xlink:href="#linearGradient4159" id="linearGradient4324" y1="527.79797" y2="518.79797" gradientUnits="userSpaceOnUse" x2="0" gradientTransform="matrix(0.85714287 0 0 0.8888889 44.653035 46.644314)"/>
  <linearGradient inkscape:collect="always" id="linearGradient4903">
   <stop style="stop-color:#eef1f2" id="stop4905"/>
   <stop offset="1" style="stop-color:#f9fafb" id="stop4907"/>
  </linearGradient>
  <linearGradient inkscape:collect="always" xlink:href="#linearGradient4903" id="linearGradient4455" y1="526.79797" y2="519.79797" x2="0" gradientUnits="userSpaceOnUse" gradientTransform="matrix(1 0 0 1 0 -11)"/>
  <linearGradient inkscape:collect="always" xlink:href="#linearGradient4227" id="linearGradient4184" y1="518.79797" x1="408.57144" y2="527.79797" x2="417.57144" gradientUnits="userSpaceOnUse" gradientTransform="matrix(1 0 0 1 0 -11)"/>
  <linearGradient inkscape:collect="always" id="linearGradient4227">
   <stop style="stop-color:#292c2f" id="stop4229"/>
   <stop offset="1" style="stop-opacity:0" id="stop4231"/>
  </linearGradient>
  <linearGradient inkscape:collect="always" xlink:href="#linearGradient4227" id="linearGradient4259" y1="518.79797" x1="408.57144" y2="527.79797" gradientUnits="userSpaceOnUse" x2="417.57144" gradientTransform="matrix(1 0 0 1 7.999999 -11)"/>
  <linearGradient inkscape:collect="always" xlink:href="#linearGradient4227" id="linearGradient4263" y1="518.79797" x1="408.57144" y2="527.79797" gradientUnits="userSpaceOnUse" x2="417.57144" gradientTransform="matrix(1 0 0 1 15.999999 -11)"/>
  <linearGradient inkscape:collect="always" xlink:href="#linearGradient4251-0" id="linearGradient4304" y1="549.79797" y2="497.79797" gradientUnits="userSpaceOnUse" x2="0" gradientTransform="matrix(1 0 0 1 -0.000002 -7)"/>
  <linearGradient inkscape:collect="always" xlink:href="#linearGradient4227" id="linearGradient4306" y1="518.79797" x1="408.57144" y2="527.79797" gradientUnits="userSpaceOnUse" x2="417.57144" gradientTransform="matrix(1 0 0 1 7.999999 11)"/>
  <linearGradient inkscape:collect="always" xlink:href="#linearGradient4227" id="linearGradient4308" y1="518.79797" x1="408.57144" y2="527.79797" gradientUnits="userSpaceOnUse" x2="417.57144" gradientTransform="matrix(1 0 0 1 15.999999 11)"/>
  <linearGradient inkscape:collect="always" xlink:href="#linearGradient4227" id="linearGradient4310" y1="518.79797" x1="408.57144" y2="527.79797" gradientUnits="userSpaceOnUse" x2="417.57144" gradientTransform="matrix(1 0 0 1 0 11)"/>
  <linearGradient inkscape:collect="always" xlink:href="#linearGradient4159" id="linearGradient4312" y1="527.79797" y2="518.79797" gradientUnits="userSpaceOnUse" x2="0" gradientTransform="matrix(0.85714287 0 0 0.8888889 60.65304 68.64431)"/>
  <linearGradient inkscape:collect="always" xlink:href="#linearGradient4903" id="linearGradient4314" y1="526.79797" y2="519.79797" gradientUnits="userSpaceOnUse" x2="0" gradientTransform="matrix(1 0 0 1 0 11)"/>
  <linearGradient inkscape:collect="always" xlink:href="#linearGradient4159" id="linearGradient4316" y1="527.79797" y2="518.79797" gradientUnits="userSpaceOnUse" x2="0" gradientTransform="matrix(0.85714287 0 0 0.8888889 52.653035 68.64431)"/>
  <linearGradient inkscape:collect="always" xlink:href="#linearGradient4159" id="linearGradient4318" y1="527.79797" y2="518.79797" gradientUnits="userSpaceOnUse" x2="0" gradientTransform="matrix(0.85714287 0 0 0.8888889 44.653035 68.64431)"/>
 </defs>
 <metadata id="metadata5458"/>
 <g inkscape:label="Capa 1" inkscape:groupmode="layer" id="layer1" transform="matrix(1 0 0 1 -376.57144 -491.79797)">
  <path inkscape:connector-curvature="0" style="fill:url(#linearGradient4291)" id="rect4283" d="m 382.57144,504.79797 c 0,17.33333 0,-1.33333 0,16 l 52,0 0,-16 z"/>
  <path inkscape:connector-curvature="0" style="fill:url(#linearGradient4259);opacity:0.2;fill-rule:evenodd" id="path4257" d="m 422.57144,507.79797 -6,8 5,5 13,0 0,-1 -12,-12 z"/>
  <path inkscape:connector-curvature="0" style="fill:url(#linearGradient4263);opacity:0.2;fill-rule:evenodd" id="path4261" d="m 430.57144,507.79797 -6,8 5,5 5,0 0,-9 -4,-4 z"/>
  <path inkscape:connector-curvature="0" style="fill:url(#linearGradient4184);opacity:0.2;fill-rule:evenodd" id="path4181" d="m 408.57144,515.79797 6,-8 13,13 -13,0 -2,0 1,0 z"/>
  <rect width="52" x="382.57144" y="519.79773" height="1" style="fill:#dce269" id="rect4293"/>
  <rect width="6" x="424.57144" y="507.79803" height="7.999999" style="fill:url(#linearGradient4183)" id="rect4175"/>
  <path inkscape:connector-curvature="0" style="fill:#dee372;opacity:0.6" id="rect4193" d="m 431.57144,507.79797 0,1 1,0 0,-1 -1,0 z m 1,1 0,1 1,0 0,-1 -1,0 z m 0,1 -1,0 0,1 1,0 0,-1 z m 0,1 0,1 1,0 0,-1 -1,0 z m 0,1 -1,0 0,1 1,0 0,-1 z m 0,1 0,1 1,0 0,-1 -1,0 z m 0,1 -1,0 0,1 1,0 0,-1 z m 0,1 0,1 1,0 0,-1 -1,0 z m 0,1 -1,0 0,1 1,0 0,-1 z m 0,1 0,1 1,0 0,-1 -1,0 z m -1,0 -1,0 0,1 1,0 0,-1 z m -1,1 -1,0 0,1 1,0 0,-1 z m -1,0 0,-1 -1,0 0,1 1,0 z m -1,0 -1,0 0,1 1,0 0,-1 z m -1,0 0,-1 -1,0 0,1 1,0 z"/>
  <rect width="19" x="385.57144" y="508.79797" height="7" style="fill:url(#linearGradient4455)" id="rect4277"/>
  <rect width="6" x="416.57144" y="507.79803" height="7.999999" style="fill:url(#linearGradient4281)" id="rect4279"/>
  <rect width="6" x="408.57144" y="507.79803" height="7.999999" style="fill:url(#linearGradient4324)" id="rect4322"/>
  <rect width="8" x="386.57144" y="509.79797" height="1" style="fill:#ff5555" id="rect4457"/>
  <rect width="2.999998" x="386.57144" y="511.79797" height="0.999996" style="fill:#35383b" id="rect4459"/>
  <rect width="3.999998" x="390.57144" y="511.79797" height="0.999996" style="fill:#35383b" id="rect4461"/>
  <path inkscape:connector-curvature="0" style="fill:#35383b" id="rect4463" d="m 390.57144,513.79797 0,1 -1,0 0,1 1,0 1,0 1,0 1,0 1,0 1,0 1,0 1,0 1,0 1,0 0,-1 -1,0 0,-1 -1,0 0,1 -1,0 -1,0 0,-1 -1,0 0,1 -1,0 0,-1 -1,0 0,1 -1,0 0,-1 -1,0 z"/>
  <path inkscape:connector-curvature="0" style="fill:url(#linearGradient4304)" id="path4275" d="m 382.57144,526.79797 c 0,17.33333 0,-1.33333 0,16 l 52,0 0,-16 z"/>
  <path inkscape:connector-curvature="0" style="fill:url(#linearGradient4306);opacity:0.2;fill-rule:evenodd" id="path4277" d="m 422.57144,529.79797 -6,8 5,5 13,0 0,-1 -12,-12 z"/>
  <path inkscape:connector-curvature="0" style="fill:url(#linearGradient4308);opacity:0.2;fill-rule:evenodd" id="path4279" d="m 430.57144,529.79797 -6,8 5,5 5,0 0,-9 -4,-4 z"/>
  <path inkscape:connector-curvature="0" style="fill:url(#linearGradient4310);opacity:0.2;fill-rule:evenodd" id="path4281" d="m 408.57144,537.79797 6,-8 13,13 -13,0 -2,0 1,0 z"/>
  <rect width="52" x="382.57144" y="541.79773" height="1" style="fill:#dce269" id="rect4284"/>
  <rect width="6" x="424.57144" y="529.79803" height="7.999999" style="fill:url(#linearGradient4312)" id="rect4286"/>
  <path inkscape:connector-curvature="0" style="fill:#dee372;opacity:0.6" id="path4288" d="m 431.57144,529.79797 0,1 1,0 0,-1 -1,0 z m 1,1 0,1 1,0 0,-1 -1,0 z m 0,1 -1,0 0,1 1,0 0,-1 z m 0,1 0,1 1,0 0,-1 -1,0 z m 0,1 -1,0 0,1 1,0 0,-1 z m 0,1 0,1 1,0 0,-1 -1,0 z m 0,1 -1,0 0,1 1,0 0,-1 z m 0,1 0,1 1,0 0,-1 -1,0 z m 0,1 -1,0 0,1 1,0 0,-1 z m 0,1 0,1 1,0 0,-1 -1,0 z m -1,0 -1,0 0,1 1,0 0,-1 z m -1,1 -1,0 0,1 1,0 0,-1 z m -1,0 0,-1 -1,0 0,1 1,0 z m -1,0 -1,0 0,1 1,0 0,-1 z m -1,0 0,-1 -1,0 0,1 1,0 z"/>
  <rect width="19" x="385.57144" y="530.79797" height="7" style="fill:url(#linearGradient4314)" id="rect4290"/>
  <rect width="6" x="416.57144" y="529.79803" height="7.999999" style="fill:url(#linearGradient4316)" id="rect4292"/>
  <rect width="6" x="408.57144" y="529.79803" height="7.999999" style="fill:url(#linearGradient4318)" id="rect4294"/>
  <rect width="8" x="386.57144" y="531.79797" height="1" style="fill:#ff5555" id="rect4296"/>
  <rect width="2.999998" x="386.57144" y="533.79797" height="0.999996" style="fill:#35383b" id="rect4298"/>
  <rect width="3.999998" x="390.57144" y="533.79797" height="0.999996" style="fill:#35383b" id="rect4300"/>
  <path inkscape:connector-curvature="0" style="fill:#35383b" id="path4302" d="m 390.57144,535.79797 0,1 -1,0 0,1 1,0 1,0 1,0 1,0 1,0 1,0 1,0 1,0 1,0 1,0 0,-1 -1,0 0,-1 -1,0 0,1 -1,0 -1,0 0,-1 -1,0 0,1 -1,0 0,-1 -1,0 0,1 -1,0 0,-1 -1,0 z"/>
 </g>
</svg>
