<?xml version="1.0" encoding="UTF-8" standalone="no"?>

<!-- Created with Inkscape (http://www.inkscape.org/) -->
<svg width="64" version="1.1" xmlns="http://www.w3.org/2000/svg" height="64" xmlns:xlink="http://www.w3.org/1999/xlink" xmlns:inkscape="http://www.inkscape.org/namespaces/inkscape">
 <defs id="defs5455">
  <linearGradient inkscape:collect="always" id="linearGradient4903">
   <stop style="stop-color:#eef1f2" id="stop4905"/>
   <stop offset="1" style="stop-color:#f9fafb" id="stop4907"/>
  </linearGradient>
  <linearGradient inkscape:collect="always" id="linearGradient4303">
   <stop style="stop-color:#c6cdd1" id="stop4305"/>
   <stop offset="1" style="stop-color:#e0e5e7" id="stop4307"/>
  </linearGradient>
  <linearGradient inkscape:collect="always" id="linearGradient4271">
   <stop style="stop-color:#2a2c2f" id="stop4273"/>
   <stop offset="1" style="stop-color:#424649" id="stop4275"/>
  </linearGradient>
  <linearGradient inkscape:collect="always" id="linearGradient4976">
   <stop style="stop-color:#e74c3c" id="stop4978"/>
   <stop offset="0.25" style="stop-color:#f39c1f" id="stop4988"/>
   <stop offset="0.5" style="stop-color:#11d116" id="stop4984"/>
   <stop offset="0.75" style="stop-color:#3498db" id="stop4986"/>
   <stop offset="1" style="stop-color:#9b59b6" id="stop4980"/>
  </linearGradient>
  <linearGradient inkscape:collect="always" id="linearGradient4770">
   <stop id="stop4772"/>
   <stop offset="1" style="stop-opacity:0" id="stop4774"/>
  </linearGradient>
  <linearGradient inkscape:collect="always" id="linearGradient5002">
   <stop style="stop-color:#2e5d89" id="stop5004"/>
   <stop offset="1" style="stop-color:#1b92f4" id="stop5006"/>
  </linearGradient>
  <linearGradient inkscape:collect="always" id="linearGradient4328">
   <stop style="stop-color:#bec900" id="stop4330"/>
   <stop offset="0.312499" style="stop-color:#9ec80a" id="stop4332"/>
   <stop offset="0.562499" style="stop-color:#71b93d" id="stop4334"/>
   <stop offset="0.75" style="stop-color:#35a48f" id="stop4336"/>
   <stop offset="1" style="stop-color:#018fca" id="stop4338"/>
  </linearGradient>
  <linearGradient inkscape:collect="always" id="linearGradient4316">
   <stop style="stop-color:#c1cc00" id="stop4318"/>
   <stop offset="0.312499" style="stop-color:#dfcd00" id="stop4320"/>
   <stop offset="0.562499" style="stop-color:#f0cc00" id="stop4322"/>
   <stop offset="0.75" style="stop-color:#fd8c08" id="stop4324"/>
   <stop offset="1" style="stop-color:#f25c13" id="stop4326"/>
  </linearGradient>
  <linearGradient inkscape:collect="always" id="linearGradient4300">
   <stop style="stop-color:#e51561" id="stop4302"/>
   <stop offset="0.312499" style="stop-color:#e4156c" id="stop4304"/>
   <stop offset="0.562499" style="stop-color:#e71e2c" id="stop4306"/>
   <stop offset="0.75" style="stop-color:#e8301e" id="stop4308"/>
   <stop offset="1" style="stop-color:#e6320e" id="stop4310"/>
  </linearGradient>
  <linearGradient inkscape:collect="always" id="linearGradient4288">
   <stop style="stop-color:#e81877" id="stop4290"/>
   <stop offset="0.312499" style="stop-color:#dd1d8c" id="stop4294"/>
   <stop offset="0.562499" style="stop-color:#6d57b1" id="stop4296"/>
   <stop offset="0.75" style="stop-color:#2a78c1" id="stop4298"/>
   <stop offset="1" style="stop-color:#018dcb" id="stop4292"/>
  </linearGradient>
  <clipPath id="clipPath4528">
   <rect width="31.999989" x="8.00001" y="8" rx="15.999986" height="31.999971" style="fill:url(#linearGradient4532)" id="rect4530"/>
  </clipPath>
  <linearGradient inkscape:collect="always" id="linearGradient4532" xlink:href="#linearGradient4271" y1="543.79797" y2="503.798" x2="0" gradientUnits="userSpaceOnUse" gradientTransform="matrix(0.79999996 0 0 0.79999996 -302.85712 -395.03837)"/>
  <clipPath id="clipPath4534">
   <rect width="31.999989" x="8.00001" y="8" rx="15.999986" height="31.999971" style="fill:url(#linearGradient4532)" id="rect4536"/>
  </clipPath>
  <clipPath id="clipPath4544">
   <rect width="31.999989" x="392.57144" y="507.798" rx="15.999986" height="31.999971" style="fill:url(#linearGradient4548)" id="rect4546-71"/>
  </clipPath>
  <linearGradient inkscape:collect="always" id="linearGradient4548" xlink:href="#linearGradient4271" y1="543.79797" y2="503.798" x2="0" gradientUnits="userSpaceOnUse" gradientTransform="matrix(0.79999995 0 0 0.79999995 81.71431 104.75963)"/>
  <clipPath id="clipPath4550">
   <rect width="31.999989" x="392.57144" y="507.798" rx="15.999986" height="31.999971" style="fill:url(#linearGradient4548)" id="rect4552"/>
  </clipPath>
  <clipPath id="clipPath4562">
   <rect width="31.999989" x="392.57144" y="507.798" rx="15.999986" height="31.999971" style="fill:url(#linearGradient4548)" id="rect4564"/>
  </clipPath>
  <clipPath id="clipPath4568">
   <rect width="31.999989" x="392.57144" y="507.798" rx="15.999986" height="31.999971" style="fill:url(#linearGradient4548)" id="rect4570"/>
  </clipPath>
  <clipPath id="clipPath4578">
   <rect width="31.999989" x="392.57144" y="507.798" rx="15.999986" height="31.999971" style="fill:url(#linearGradient4548)" id="rect4580"/>
  </clipPath>
  <clipPath id="clipPath4584">
   <rect width="31.999989" x="392.57144" y="507.798" rx="15.999986" height="31.999971" style="fill:url(#linearGradient4548)" id="rect4586"/>
  </clipPath>
  <linearGradient inkscape:collect="always" id="linearGradient4303-3">
   <stop style="stop-color:#989a9b" id="stop4305-3"/>
   <stop offset="1" style="stop-color:#f6f6f7" id="stop4307-8"/>
  </linearGradient>
  <linearGradient inkscape:collect="always" xlink:href="#linearGradient4288" id="linearGradient4415" y1="23.999973" x1="8" y2="8" x2="24.00001" gradientUnits="userSpaceOnUse"/>
  <linearGradient inkscape:collect="always" xlink:href="#linearGradient4300" id="linearGradient4417" y1="24.00003" x1="8" y2="8" gradientUnits="userSpaceOnUse" x2="24.00001" gradientTransform="matrix(1 0 0 -1 384.57143 547.798)"/>
  <linearGradient inkscape:collect="always" xlink:href="#linearGradient4328" id="linearGradient4419" y1="23.999973" x1="8" y2="8" gradientUnits="userSpaceOnUse" x2="24.00001" gradientTransform="matrix(-1 0 0 1 432.57143 499.798)"/>
  <linearGradient inkscape:collect="always" xlink:href="#linearGradient4316" id="linearGradient4421" y1="24" x1="8" y2="8" gradientUnits="userSpaceOnUse" x2="24.00001" gradientTransform="matrix(-1 0 0 -1 432.57143 547.798)"/>
  <linearGradient inkscape:collect="always" xlink:href="#linearGradient4271" id="linearGradient4423" y1="543.79797" y2="503.798" gradientUnits="userSpaceOnUse" x2="0" gradientTransform="matrix(0.34999981 0 0 0.34999981 265.57152 -707.12715)"/>
  <clipPath id="clipPath4528-1">
   <rect width="31.999989" x="8.00001" y="8" rx="15.999986" height="31.999971" style="fill:url(#linearGradient4532)" id="rect4530-7"/>
  </clipPath>
  <clipPath id="clipPath4534-1">
   <rect width="31.999989" x="8.00001" y="8" rx="15.999986" height="31.999971" style="fill:url(#linearGradient4532)" id="rect4536-8"/>
  </clipPath>
  <clipPath id="clipPath4544-1">
   <rect width="31.999989" x="392.57144" y="507.798" rx="15.999986" height="31.999971" style="fill:url(#linearGradient4548)" id="rect4546-1"/>
  </clipPath>
  <clipPath id="clipPath4550-4">
   <rect width="31.999989" x="392.57144" y="507.798" rx="15.999986" height="31.999971" style="fill:url(#linearGradient4548)" id="rect4552-1"/>
  </clipPath>
  <clipPath id="clipPath4562-8">
   <rect width="31.999989" x="392.57144" y="507.798" rx="15.999986" height="31.999971" style="fill:url(#linearGradient4548)" id="rect4564-8"/>
  </clipPath>
  <clipPath id="clipPath4568-4">
   <rect width="31.999989" x="392.57144" y="507.798" rx="15.999986" height="31.999971" style="fill:url(#linearGradient4548)" id="rect4570-1"/>
  </clipPath>
  <clipPath id="clipPath4578-8">
   <rect width="31.999989" x="392.57144" y="507.798" rx="15.999986" height="31.999971" style="fill:url(#linearGradient4548)" id="rect4580-7"/>
  </clipPath>
  <clipPath id="clipPath4584-9">
   <rect width="31.999989" x="392.57144" y="507.798" rx="15.999986" height="31.999971" style="fill:url(#linearGradient4548)" id="rect4586-2"/>
  </clipPath>
  <linearGradient inkscape:collect="always" xlink:href="#linearGradient4303-3" id="linearGradient4472" y1="524.79797" y2="522.79797" x2="0" gradientUnits="userSpaceOnUse" gradientTransform="matrix(2 0 0 2 -408.57143 -523.798)"/>
  <linearGradient inkscape:collect="always" id="linearGradient4352" xlink:href="#linearGradient5002" y1="512.79797" y2="527.79797" x1="400.57144" x2="415.57144" gradientUnits="userSpaceOnUse"/>
  <linearGradient inkscape:collect="always" id="linearGradient4191">
   <stop style="stop-color:#18222a" id="stop4193"/>
   <stop offset="1" style="stop-color:#566069" id="stop4195"/>
  </linearGradient>
  <linearGradient inkscape:collect="always" id="linearGradient4617" xlink:href="#linearGradient4303" y1="531.79797" y2="501.69922" gradientUnits="userSpaceOnUse" x2="0" gradientTransform="matrix(1.0833316 0 0 1.1666676 -34.04692 -84.63341)"/>
  <linearGradient inkscape:collect="always" id="linearGradient4930" xlink:href="#linearGradient4191" y1="533.79797" y2="537.79797" gradientUnits="userSpaceOnUse" x2="0" gradientTransform="matrix(1.1111099 0 0 1 -45.39633 0)"/>
  <linearGradient inkscape:collect="always" id="linearGradient4938" xlink:href="#linearGradient4191" y1="514.79797" y2="511.798" gradientUnits="userSpaceOnUse" x2="0" gradientTransform="matrix(1 0 0 2.2857186 0 -664.88526)"/>
  <linearGradient inkscape:collect="always" id="linearGradient4950" xlink:href="#linearGradient4770" y1="533.79797" y2="546.79797" x1="391.57144" gradientUnits="userSpaceOnUse" x2="404.57147" gradientTransform="matrix(1 0 0 1 -2 0)"/>
  <linearGradient inkscape:collect="always" id="linearGradient4950-6" xlink:href="#linearGradient4770" y1="533.79797" y2="546.79797" x1="391.57144" gradientUnits="userSpaceOnUse" x2="404.57147" gradientTransform="matrix(1 0 0 1 0 -22)"/>
  <linearGradient inkscape:collect="always" id="linearGradient4982" xlink:href="#linearGradient4976" x1="394.57144" gradientUnits="userSpaceOnUse" x2="422.57142" gradientTransform="matrix(1.1428557 0 0 1 -58.36675 0)"/>
  <linearGradient inkscape:collect="always" id="linearGradient4386" xlink:href="#linearGradient4903" y1="505.798" y2="503.798" gradientUnits="userSpaceOnUse" x2="0" gradientTransform="matrix(1 0 0 1 0 -12)"/>
  <linearGradient inkscape:collect="always" id="linearGradient4394" xlink:href="#linearGradient4903" y1="519.79797" y2="507.798" gradientUnits="userSpaceOnUse" x2="0" gradientTransform="matrix(1 0 0 1.3333333 0 -181.26599)"/>
  <linearGradient inkscape:collect="always" id="linearGradient4402" xlink:href="#linearGradient4903" y1="507.798" y2="505.798" gradientUnits="userSpaceOnUse" x2="0" gradientTransform="matrix(1 0 0 1 0 -12)"/>
  <clipPath id="clipPath4528-8">
   <rect width="31.999989" x="8.00001" y="8" rx="15.999986" height="31.999971" style="fill:url(#linearGradient4532)" id="rect4530-0"/>
  </clipPath>
  <clipPath id="clipPath4534-10">
   <rect width="31.999989" x="8.00001" y="8" rx="15.999986" height="31.999971" style="fill:url(#linearGradient4532)" id="rect4536-6"/>
  </clipPath>
  <clipPath id="clipPath4544-3">
   <rect width="31.999989" x="392.57144" y="507.798" rx="15.999986" height="31.999971" style="fill:url(#linearGradient4548)" id="rect4546-559"/>
  </clipPath>
  <clipPath id="clipPath4550-0">
   <rect width="31.999989" x="392.57144" y="507.798" rx="15.999986" height="31.999971" style="fill:url(#linearGradient4548)" id="rect4552-3"/>
  </clipPath>
  <clipPath id="clipPath4562-5">
   <rect width="31.999989" x="392.57144" y="507.798" rx="15.999986" height="31.999971" style="fill:url(#linearGradient4548)" id="rect4564-1"/>
  </clipPath>
  <clipPath id="clipPath4568-6">
   <rect width="31.999989" x="392.57144" y="507.798" rx="15.999986" height="31.999971" style="fill:url(#linearGradient4548)" id="rect4570-4"/>
  </clipPath>
  <clipPath id="clipPath4578-88">
   <rect width="31.999989" x="392.57144" y="507.798" rx="15.999986" height="31.999971" style="fill:url(#linearGradient4548)" id="rect4580-3"/>
  </clipPath>
  <clipPath id="clipPath4584-0">
   <rect width="31.999989" x="392.57144" y="507.798" rx="15.999986" height="31.999971" style="fill:url(#linearGradient4548)" id="rect4586-5"/>
  </clipPath>
  <clipPath id="clipPath4528-1-9">
   <rect width="31.999989" x="8.00001" y="8" rx="15.999986" height="31.999971" style="fill:url(#linearGradient4532)" id="rect4530-7-1"/>
  </clipPath>
  <clipPath id="clipPath4534-1-5">
   <rect width="31.999989" x="8.00001" y="8" rx="15.999986" height="31.999971" style="fill:url(#linearGradient4532)" id="rect4536-8-9"/>
  </clipPath>
  <clipPath id="clipPath4544-1-6">
   <rect width="31.999989" x="392.57144" y="507.798" rx="15.999986" height="31.999971" style="fill:url(#linearGradient4548)" id="rect4546-1-4"/>
  </clipPath>
  <clipPath id="clipPath4550-4-0">
   <rect width="31.999989" x="392.57144" y="507.798" rx="15.999986" height="31.999971" style="fill:url(#linearGradient4548)" id="rect4552-1-1"/>
  </clipPath>
  <clipPath id="clipPath4562-8-4">
   <rect width="31.999989" x="392.57144" y="507.798" rx="15.999986" height="31.999971" style="fill:url(#linearGradient4548)" id="rect4564-8-0"/>
  </clipPath>
  <clipPath id="clipPath4568-4-4">
   <rect width="31.999989" x="392.57144" y="507.798" rx="15.999986" height="31.999971" style="fill:url(#linearGradient4548)" id="rect4570-1-6"/>
  </clipPath>
  <clipPath id="clipPath4578-8-8">
   <rect width="31.999989" x="392.57144" y="507.798" rx="15.999986" height="31.999971" style="fill:url(#linearGradient4548)" id="rect4580-7-9"/>
  </clipPath>
  <clipPath id="clipPath4584-9-1">
   <rect width="31.999989" x="392.57144" y="507.798" rx="15.999986" height="31.999971" style="fill:url(#linearGradient4548)" id="rect4586-2-6"/>
  </clipPath>
  <linearGradient inkscape:collect="always" id="linearGradient4199">
   <stop style="stop-color:#2f3943" id="stop4201"/>
   <stop offset="1" style="stop-color:#4d5662" id="stop4203"/>
  </linearGradient>
  <linearGradient inkscape:collect="always" id="linearGradient4545" xlink:href="#linearGradient4199" y1="28" y2="12" gradientUnits="userSpaceOnUse" x2="0" gradientTransform="matrix(1 0 0 1 382.57145 501.79803)"/>
  <linearGradient inkscape:collect="always" id="linearGradient4545-5" xlink:href="#linearGradient4199" y1="28" y2="12" gradientUnits="userSpaceOnUse" x2="0" gradientTransform="matrix(-1 0 0 1 434.57145 501.79803)"/>
  <linearGradient inkscape:collect="always" xlink:href="#linearGradient4199" id="linearGradient4852" y1="524.79797" x1="425.57144" y2="511.798" x2="390.57144" gradientUnits="userSpaceOnUse"/>
 </defs>
 <metadata id="metadata5458"/>
 <g inkscape:label="Capa 1" inkscape:groupmode="layer" id="layer1-5" transform="matrix(1 0 0 1 -376.57147 -485.79798)">
  <rect width="51.999977" x="382.57147" y="507.798" rx="0" height="28" style="fill:url(#linearGradient4617);stroke-linecap:round;stroke-linejoin:round;stroke-width:2" id="rect4288"/>
  <rect width="52.00001" x="382.57144" y="535.79803" height="1.999974" style="fill:#737b81;stroke-linecap:round;stroke-linejoin:round;stroke-width:2" id="rect4290"/>
  <path cx="408.57144" cy="519.79797" inkscape:connector-curvature="0" style="fill:url(#linearGradient4352);stroke-linecap:round;stroke-linejoin:round;stroke-width:2" r="9.999989" id="circle4309-6"/>
  <rect width="39.999954" x="388.57144" y="533.79797" height="7" style="fill:url(#linearGradient4930);stroke-linejoin:round;stroke-width:0.5" id="rect4868"/>
  <rect width="35.999954" x="390.57144" y="533.79797" height="9.999948" style="fill:#eff0f1;stroke-linejoin:round;stroke-width:0.5" id="rect4299"/>
  <rect width="36" x="390.57144" y="495.79797" height="16.00003" style="fill:url(#linearGradient4938);stroke-linejoin:round;stroke-width:0.5" id="rect4868-5"/>
  <rect width="32" x="392.57144" y="491.798" height="15.999996" style="fill:url(#linearGradient4386);stroke-linejoin:round;stroke-width:0.5" id="rect4299-2"/>
  <rect width="31.999933" x="392.57144" y="533.79797" height="8.00003" style="fill:url(#linearGradient4982);stroke-linejoin:round;stroke-width:0.5" id="rect4299-3"/>
  <path inkscape:connector-curvature="0" style="fill:url(#linearGradient4950);opacity:0.2;fill-rule:evenodd" id="path4942" d="m 388.57143,533.798 10,10 24,0 0,-3 2,0 0,-7 z"/>
  <rect width="32" x="392.57144" y="493.798" height="12" style="fill:url(#linearGradient4402);stroke-linejoin:round;stroke-width:0.5" id="rect4299-2-2-8"/>
  <rect width="32" x="392.57144" y="495.798" height="16" style="fill:url(#linearGradient4394);stroke-linejoin:round;stroke-width:0.5" id="rect4299-2-2"/>
  <path inkscape:connector-curvature="0" style="fill:url(#linearGradient4545);stroke-linecap:round;stroke-linejoin:round;stroke-width:2" id="rect4512" d="m 382.57145,509.79803 0,22 2,0 c 1.10802,0 2,-0.89198 2,-2 l 0,-18 c 0,-1.10802 -1,-2 -2,-2 z"/>
  <path inkscape:connector-curvature="0" style="fill:url(#linearGradient4545-5);stroke-linecap:round;stroke-linejoin:round;stroke-width:2" id="rect4512-0" d="m 434.57145,509.79803 0,22 -2,0 c -1.10802,0 -2,-0.89198 -2,-2 l 0,-18 c 0,-1.10802 1,-2 2,-2 z"/>
  <circle cx="432.57144" cy="529.79797" style="fill:#11d116;stroke-linecap:round;stroke-linejoin:round;stroke-width:2" r="1" id="path4292"/>
  <rect width="44" x="386.57144" y="527.79797" height="1" style="fill:#99a1a7;stroke-linecap:round;stroke-linejoin:bevel;stroke-width:2" id="rect4826"/>
  <path inkscape:connector-curvature="0" style="fill:url(#linearGradient4852);stroke-linecap:round;stroke-linejoin:bevel;stroke-width:2" id="rect4841" d="m 390.57147,511.79798 0,10 c 0,1.108 0.892,2 2,2 l 32,0 c 1.108,0 2,-0.892 2,-2 l 0,-10 -36,0 z"/>
  <path inkscape:connector-curvature="0" style="fill:url(#linearGradient4950-6);opacity:0.2;fill-rule:evenodd" id="path4942-8" d="m 390.57143,511.798 14,14 22,0 0,-14 z"/>
  <path inkscape:connector-curvature="0" style="fill:#d9d9d9" id="rect4119" d="m 407.57147,515.79791 c -0.1385,0 -0.25,0.1115 -0.25,0.25 0,0.1385 0.1115,0.25 0.25,0.25 0.1385,0 0.25,-0.1115 0.25,-0.25 0,-0.1385 -0.1115,-0.25 -0.25,-0.25 z m 1.75,0 -0.5,0.5 0.75,0.75 -0.25,0.25 -0.25,0.25 -0.25,0.25 0.5,0.5 0.25,-0.25 0.25,-0.25 0.25,-0.25 0.5,-0.5 z m -2.375,1.5 c -0.20775,0 -0.375,0.16725 -0.375,0.375 0,0.20775 0.16725,0.375 0.375,0.375 0.20775,0 0.375,-0.16725 0.375,-0.375 0,-0.20775 -0.16725,-0.375 -0.375,-0.375 z m 1.125,1.5 c -0.277,0 -0.5,0.223 -0.5,0.5 0,0.277 0.223,0.5 0.5,0.5 0.277,0 0.5,-0.223 0.5,-0.5 0,-0.277 -0.223,-0.5 -0.5,-0.5 z"/>
 </g>
</svg>
