<svg xmlns="http://www.w3.org/2000/svg" viewBox="0 0 24 24">
  <defs id="defs3051">
    <style type="text/css" id="current-color-scheme">
      .ColorScheme-Text {
        color:#232629;
      }
      </style>
  </defs><g transform="translate(1,1)">
    <path
       style="fill:currentColor;fill-opacity:1;stroke:none" 
        d="M 3 4 L 3 5 L 3 6 L 3 17 L 3 18 L 15 18 L 15 19 L 16 19 L 16 18 L 18 18 L 19 18 L 19 6 L 19 5 L 19 4 L 3 4 z M 4 5 L 18 5 L 18 6 L 18 8 L 4 8 L 4 6 L 4 5 z M 5 6 L 5 7 L 7 7 L 7 6 L 5 6 z M 15 6 L 15 7 L 17 7 L 17 6 L 15 6 z M 4 9 L 18 9 L 18 17 L 16 17 L 16 12 L 15 12 L 15 17 L 4 17 L 4 9 z "
      class="ColorScheme-Text"
        />
</g></svg>
