<svg xmlns="http://www.w3.org/2000/svg" viewBox="0 0 24 24">
  <defs id="defs3051">
    <style type="text/css" id="current-color-scheme">
      .ColorScheme-Text {
        color:#232629;
      }
      </style>
  </defs><g transform="translate(1,1)">
    <path
        style="fill:currentColor;fill-opacity:1;stroke:none" 
       d="M 8 4 A 5 5 0 0 0 3 9 L 4 9 A 4 4 0 0 1 8 5 A 4 4 0 0 1 12 9 L 13 9 A 5 5 0 0 0 8 4 z M 8 6 A 3 3 0 0 0 5 9 L 6 9 A 2 2 0 0 1 8 7 A 2 2 0 0 1 10 9 L 11 9 A 3 3 0 0 0 8 6 z M 8 8 A 1 1 0 0 0 7 9 A 1 1 0 0 0 8 10 A 1 1 0 0 0 9 9 A 1 1 0 0 0 8 8 z M 3 11 L 3 18 L 19 18 L 19 11 L 3 11 z M 4 12 L 18 12 L 18 17 L 4 17 L 4 12 z M 12 15 L 12 16 L 13 16 L 13 15 L 12 15 z M 14 15 L 14 16 L 15 16 L 15 15 L 14 15 z M 16 15 L 16 16 L 17 16 L 17 15 L 16 15 z "
       id="rect3343" 
       class="ColorScheme-Text"/>
</g></svg>
