<?xml version="1.0" encoding="UTF-8" standalone="no"?>
<!-- Created with Inkscape (http://www.inkscape.org/) -->

<svg
   xmlns:dc="http://purl.org/dc/elements/1.1/"
   xmlns:cc="http://creativecommons.org/ns#"
   xmlns:rdf="http://www.w3.org/1999/02/22-rdf-syntax-ns#"
   xmlns:svg="http://www.w3.org/2000/svg"
   xmlns="http://www.w3.org/2000/svg"
   xmlns:sodipodi="http://sodipodi.sourceforge.net/DTD/sodipodi-0.dtd"
   xmlns:inkscape="http://www.inkscape.org/namespaces/inkscape"
   width="22"
   version="1.1"
   height="22"
   id="svg2"
   inkscape:version="0.91 r13725"
   sodipodi:docname="application-x-gettext-translation-22.svg">
  <sodipodi:namedview
     pagecolor="#ffffff"
     bordercolor="#666666"
     borderopacity="1"
     objecttolerance="10"
     gridtolerance="10"
     guidetolerance="10"
     inkscape:pageopacity="0"
     inkscape:pageshadow="2"
     inkscape:window-width="1366"
     inkscape:window-height="699"
     id="namedview12"
     showgrid="false"
     inkscape:zoom="24.651067"
     inkscape:cx="11.652542"
     inkscape:cy="11"
     inkscape:window-x="0"
     inkscape:window-y="0"
     inkscape:window-maximized="1"
     inkscape:current-layer="layer1" />
  <defs
     id="defs3871" />
  <metadata
     id="metadata3874">
    <rdf:RDF>
      <cc:Work
         rdf:about="">
        <dc:format>image/svg+xml</dc:format>
        <dc:type
           rdf:resource="http://purl.org/dc/dcmitype/StillImage" />
        <dc:title></dc:title>
      </cc:Work>
    </rdf:RDF>
  </metadata>
  <g
     inkscape:label="Capa 1"
     inkscape:groupmode="layer"
     id="layer1"
     transform="matrix(1 0 0 1 -326 -534.3622)">
    <rect
       width="0"
       x="326.49567"
       y="535.98694"
       height="10.999983"
       style="fill:#6c7a89"
       id="rect4035" />
    <rect
       width="0"
       x="321.94366"
       y="538.50604"
       height="10.999983"
       style="fill:#6c7a89"
       id="rect4035-7" />
    <rect
       width="0"
       x="317.43588"
       y="526.08746"
       height="10.999983"
       style="fill:#6c7a89"
       id="rect4035-9" />
    <path
       inkscape:connector-curvature="0"
       style="fill:#6c7a89"
       id="rect4138"
       d="m 329,537.3622 0,4 0,11 0,1 10,0 6,0 0,-1 0,-5 0,-6 0,-4 -16,0 z m 1,4 14,0 0,6 0,5 -5,0 -9,0 0,-11 z" />
    <path
       inkscape:connector-curvature="0"
       d="m 337.46549,548.52128 -1.42714,-1.41027 0.0168,-0.0168 c 0.97764,-1.09001 1.67435,-2.34296 2.0845,-3.66895 l 1.64626,0 0,-1.12373 -3.93303,0 0,-1.12373 -1.12372,0 0,1.12373 -3.93303,0 0,1.11811 6.27599,0 c -0.37645,1.0844 -0.97202,2.11259 -1.7811,3.01157 -0.52254,-0.57872 -0.95516,-1.21362 -1.2979,-1.88223 l -1.12373,0 c 0.41016,0.91584 0.97203,1.78111 1.67436,2.56208 l -2.85989,2.82055 0.79786,0.79783 2.8093,-2.8093 1.74739,1.74738 0.42701,-1.14618 z m 3.16327,-2.84864 -1.12373,0 -2.52837,6.74234 1.12373,0 0.62929,-1.68559 2.66883,0 0.6349,1.68559 1.12372,0 -2.52837,-6.74234 z m -1.47208,3.93302 0.91021,-2.43284 0.91022,2.43284 -1.82043,0 z"
       id="path6"
       style="fill:#6c7a89;fill-opacity:1" />
  </g>
</svg>
