<?xml version="1.0" encoding="UTF-8" standalone="no"?>
<!-- Created with Inkscape (http://www.inkscape.org/) -->

<svg
   xmlns:dc="http://purl.org/dc/elements/1.1/"
   xmlns:cc="http://creativecommons.org/ns#"
   xmlns:rdf="http://www.w3.org/1999/02/22-rdf-syntax-ns#"
   xmlns:svg="http://www.w3.org/2000/svg"
   xmlns="http://www.w3.org/2000/svg"
   xmlns:sodipodi="http://sodipodi.sourceforge.net/DTD/sodipodi-0.dtd"
   xmlns:inkscape="http://www.inkscape.org/namespaces/inkscape"
   width="22"
   version="1.1"
   height="22"
   id="svg2"
   inkscape:version="0.91 r13725"
   sodipodi:docname="application-json.svg">
  <sodipodi:namedview
     pagecolor="#ffffff"
     bordercolor="#666666"
     borderopacity="1"
     objecttolerance="10"
     gridtolerance="10"
     guidetolerance="10"
     inkscape:pageopacity="0"
     inkscape:pageshadow="2"
     inkscape:window-width="2560"
     inkscape:window-height="1382"
     id="namedview41"
     showgrid="false"
     inkscape:zoom="7.5853273"
     inkscape:cx="-18.441134"
     inkscape:cy="0.032829815"
     inkscape:window-x="0"
     inkscape:window-y="36"
     inkscape:window-maximized="1"
     inkscape:current-layer="layer1" />
  <defs
     id="defs3871" />
  <metadata
     id="metadata3874">
    <rdf:RDF>
      <cc:Work
         rdf:about="">
        <dc:format>image/svg+xml</dc:format>
        <dc:type
           rdf:resource="http://purl.org/dc/dcmitype/StillImage" />
        <dc:title></dc:title>
      </cc:Work>
    </rdf:RDF>
  </metadata>
  <g
     inkscape:label="Capa 1"
     inkscape:groupmode="layer"
     id="layer1"
     transform="matrix(1 0 0 1 -326 -534.3622)">
    <rect
       width="0"
       x="276.22556"
       y="514.69751"
       height="14.668059"
       style="fill:#cf000f"
       id="rect4035" />
    <rect
       width="0"
       x="283.18613"
       y="537.26813"
       height="14.668059"
       style="fill:#cf000f"
       id="rect4035-8" />
    <rect
       width="0"
       x="284.99942"
       y="536.2074"
       height="14.668059"
       style="fill:#cf000f"
       id="rect4035-0" />
    <rect
       width="0"
       x="276.22556"
       y="514.69751"
       height="14.668059"
       style="fill:#cf000f"
       id="rect4035-3" />
    <rect
       width="0"
       x="283.18613"
       y="537.26813"
       height="14.668059"
       style="fill:#cf000f"
       id="rect4035-8-9" />
    <rect
       width="0"
       x="284.99942"
       y="536.2074"
       height="14.668059"
       style="fill:#cf000f"
       id="rect4035-0-4" />
    <rect
       width="0"
       x="276.22556"
       y="514.69751"
       height="14.668059"
       style="fill:#cf000f"
       id="rect4035-2" />
    <rect
       width="0"
       x="283.18613"
       y="537.26813"
       height="14.668059"
       style="fill:#cf000f"
       id="rect4035-8-99" />
    <rect
       width="0"
       x="284.99942"
       y="536.2074"
       height="14.668059"
       style="fill:#cf000f"
       id="rect4035-0-43" />
    <rect
       width="0"
       x="276.22556"
       y="514.69751"
       height="14.668059"
       style="fill:#cf000f"
       id="rect4035-3-9" />
    <rect
       width="0"
       x="283.18613"
       y="537.26813"
       height="14.668059"
       style="fill:#cf000f"
       id="rect4035-8-9-9" />
    <rect
       width="0"
       x="284.99942"
       y="536.2074"
       height="14.668059"
       style="fill:#cf000f"
       id="rect4035-0-4-4" />
    <rect
       width="0"
       x="293.38181"
       y="518.47876"
       height="14.668059"
       style="fill:#cf000f"
       id="rect4035-6" />
    <rect
       width="0"
       x="300.34238"
       y="541.04938"
       height="14.668059"
       style="fill:#cf000f"
       id="rect4035-8-8" />
    <rect
       width="0"
       x="302.15567"
       y="539.98865"
       height="14.668059"
       style="fill:#cf000f"
       id="rect4035-0-6" />
    <path
       inkscape:connector-curvature="0"
       style="font-style:normal;font-variant:normal;font-weight:normal;font-stretch:normal;font-size:medium;line-height:125%;font-family:oxygen;-inkscape-font-specification:oxygen;letter-spacing:0px;word-spacing:0px;fill:#cf74e0;fill-opacity:1;stroke:none"
       d="m 336.04492,537.3622 c -1.77683,0 -2.52148,0.70637 -2.52148,2.50977 l 0,2.4414 c 0,1.1138 -0.0342,2.4043 -1.01563,2.4043 l -0.50781,0 0,1.28906 0.50781,0 c 0.98148,0 1.01563,1.2905 1.01563,2.4043 l 0,2.4414 c 0,1.8034 0.74465,2.50977 2.52148,2.50977 l 0,-1.18359 c -1.18455,0 -1.20117,-0.47834 -1.20117,-2.21094 l 0,-2.01563 c 0,-0.8309 -0.20471,-2.06737 -1.20313,-2.58007 0.99842,-0.5127 1.20313,-1.75104 1.20313,-2.58204 l 0,-2.0332 c 0,-1.7326 0.0166,-2.21094 1.20117,-2.21094 z m 1.89453,0 0,1.18359 c 1.18456,0 1.2168,0.47834 1.2168,2.21094 l 0,2.0332 c 0,0.831 0.2047,2.06934 1.20312,2.58204 -0.99842,0.5127 -1.20312,1.74917 -1.20312,2.58007 l 0,2.01563 c 0,1.7326 -0.0322,2.21094 -1.2168,2.21094 l 0,1.18359 c 1.77684,0 2.53711,-0.70637 2.53711,-2.50977 l 0,-2.4414 c 0,-1.1138 0.0686,-2.4043 1.03321,-2.4043 l 0.49023,0 0,-1.28906 -0.49023,0 c -0.96457,0 -1.03321,-1.2905 -1.03321,-2.4043 l 0,-2.4414 c 0,-1.8034 -0.76027,-2.50977 -2.53711,-2.50977 z"
       id="path4121"
       sodipodi:nodetypes="csssccsssccsscssccccsscssccsssccsssc" />
  </g>
</svg>
