<?xml version="1.0" encoding="UTF-8" standalone="no"?>

<!-- Created with Inkscape (http://www.inkscape.org/) -->
<svg width="22" version="1.1" xmlns="http://www.w3.org/2000/svg" height="22" xmlns:inkscape="http://www.inkscape.org/namespaces/inkscape">
 <defs id="defs3871"/>
 <metadata id="metadata3874"/>
 <g inkscape:label="Capa 1" inkscape:groupmode="layer" id="layer1" transform="matrix(1 0 0 1 -326 -534.3622)">
  <rect width="0" x="318.27991" y="538.32489" height="10.999983" style="fill:#f62459" id="rect4035"/>
  <path inkscape:label="Capa 1" inkscape:connector-curvature="0" style="fill:#6c7a89" id="rect3009" d="m 3,4 0,15 1,0 2,0 10,0 2,0 1,0 L 19,4 18,4 16,4 6,4 4,4 3,4 Z M 4,5 5,5 5,6 4,6 4,5 Z m 2,0 10,0 0,5.5 -10,0 L 6,5 Z m 11,0 1,0 0,1 -1,0 0,-1 z M 4,8 5,8 5,9 4,9 4,8 Z m 13,0 1,0 0,1 -1,0 0,-1 z m -13,3 1,0 0,1 -1,0 0,-1 z m 13,0 1,0 0,1 -1,0 0,-1 z m -11,1.5 10,0 0,5.5 -10,0 0,-5.5 z m -2,1.5 1,0 0,1 -1,0 0,-1 z m 13,0 1,0 0,1 -1,0 0,-1 z m -13,3 1,0 0,1 -1,0 0,-1 z m 13,0 1,0 0,1 -1,0 0,-1 z" transform="matrix(1 0 0 1 326 533.8622)"/>
  <rect width="0" x="313.72791" y="540.84399" height="10.999983" style="fill:#8e44ad" id="rect4035-7"/>
  <rect width="0" x="309.22012" y="528.42542" height="10.999983" style="fill:#f62459" id="rect4035-9"/>
 </g>
</svg>
