<?xml version="1.0" encoding="UTF-8" standalone="no"?>

<!-- Created with Inkscape (http://www.inkscape.org/) -->
<svg width="22" version="1.1" xmlns="http://www.w3.org/2000/svg" height="22" xmlns:inkscape="http://www.inkscape.org/namespaces/inkscape">
 <defs id="defs3871"/>
 <metadata id="metadata3874"/>
 <g inkscape:label="Capa 1" inkscape:groupmode="layer" id="layer1" transform="matrix(1 0 0 1 -326 -534.3622)">
  <rect width="0" x="273.38181" y="518.47876" height="14.668059" style="fill:#8e44ad" id="rect4035"/>
  <rect width="0" x="280.34238" y="541.04938" height="14.668059" style="fill:#8e44ad" id="rect4035-8"/>
  <rect width="0" x="282.15567" y="539.98865" height="14.668059" style="fill:#8e44ad" id="rect4035-0"/>
  <path inkscape:label="Capa 1" inkscape:connector-curvature="0" style="fill:#8e44ad" id="rect4231" d="M 7,3 C 6.446,3 6,3.446 6,4 6,4.554 6.446,5 7,5 7.554,5 8,4.554 8,4 8,3.446 7.554,3 7,3 Z m 7,0 -2,2 3,3 -3,3 2,2 3,-3 2,-2 -5,-5 z M 4.5,9 C 3.669,9 3,9.669 3,10.5 3,11.331 3.669,12 4.5,12 5.331,12 6,11.331 6,10.5 6,9.669 5.331,9 4.5,9 Z M 9,15 c -1.108,0 -2,0.892 -2,2 0,1.108 0.892,2 2,2 1.108,0 2,-0.892 2,-2 0,-1.108 -0.892,-2 -2,-2 z" transform="matrix(1 0 0 1 326 534.3622)"/>
 </g>
</svg>
