<?xml version="1.0" encoding="UTF-8" standalone="no"?>
<!-- Created with Inkscape (http://www.inkscape.org/) -->

<svg
   xmlns:dc="http://purl.org/dc/elements/1.1/"
   xmlns:cc="http://creativecommons.org/ns#"
   xmlns:rdf="http://www.w3.org/1999/02/22-rdf-syntax-ns#"
   xmlns:svg="http://www.w3.org/2000/svg"
   xmlns="http://www.w3.org/2000/svg"
   xmlns:sodipodi="http://sodipodi.sourceforge.net/DTD/sodipodi-0.dtd"
   xmlns:inkscape="http://www.inkscape.org/namespaces/inkscape"
   width="22"
   version="1.1"
   height="22"
   id="svg2"
   inkscape:version="0.91 r13725"
   sodipodi:docname="application-msonenote.svg">
  <sodipodi:namedview
     pagecolor="#ffffff"
     bordercolor="#666666"
     borderopacity="1"
     objecttolerance="10"
     gridtolerance="10"
     guidetolerance="10"
     inkscape:pageopacity="0"
     inkscape:pageshadow="2"
     inkscape:window-width="1360"
     inkscape:window-height="708"
     id="namedview14"
     showgrid="true"
     inkscape:zoom="21.454545"
     inkscape:cx="11.905244"
     inkscape:cy="9.3476965"
     inkscape:window-x="0"
     inkscape:window-y="0"
     inkscape:window-maximized="1"
     inkscape:current-layer="layer1"
     inkscape:object-nodes="true">
    <inkscape:grid
       type="xygrid"
       id="grid4151" />
  </sodipodi:namedview>
  <defs
     id="defs3871" />
  <metadata
     id="metadata3874">
    <rdf:RDF>
      <cc:Work
         rdf:about="">
        <dc:format>image/svg+xml</dc:format>
        <dc:type
           rdf:resource="http://purl.org/dc/dcmitype/StillImage" />
        <dc:title />
      </cc:Work>
    </rdf:RDF>
  </metadata>
  <g
     inkscape:label="Capa 1"
     inkscape:groupmode="layer"
     id="layer1"
     transform="matrix(1 0 0 1 -326 -534.3622)">
    <rect
       width="0"
       x="326.49567"
       y="535.98694"
       height="10.999983"
       style="fill:#94408b;fill-opacity:1"
       id="rect4035" />
    <rect
       width="0"
       x="321.94366"
       y="538.50604"
       height="10.999983"
       style="fill:#94408b;fill-opacity:1"
       id="rect4035-7" />
    <rect
       width="0"
       x="317.43588"
       y="526.08746"
       height="10.999983"
       style="fill:#94408b;fill-opacity:1"
       id="rect4035-9" />
    <rect
       width="0"
       x="318.27991"
       y="538.32489"
       height="10.999983"
       style="fill:#94408b;fill-opacity:1"
       id="rect4035-96" />
    <rect
       width="0"
       x="313.72791"
       y="540.84399"
       height="10.999983"
       style="fill:#94408b;fill-opacity:1"
       id="rect4035-7-0" />
    <rect
       width="0"
       x="309.22012"
       y="528.42542"
       height="10.999983"
       style="fill:#94408b;fill-opacity:1"
       id="rect4035-9-6" />
    <path
       style="opacity:1;fill:#94408b;fill-opacity:1;stroke:none;stroke-width:10;stroke-miterlimit:4;stroke-dasharray:none;stroke-opacity:1"
       d="M 4 3 C 3.4459904 3 3 3.4459904 3 4 L 3 18 C 3 18.55401 3.4459904 19 4 19 L 15 19 C 15.55401 19 16 18.55401 16 18 L 16 17 L 18 17 C 18.55401 17 19 16.55401 19 16 L 19 13 C 19 12.81363 18.935732 12.649055 18.847656 12.5 C 18.935732 12.350945 19 12.18637 19 12 L 19 9 C 19 8.8136299 18.935732 8.6490553 18.847656 8.5 C 18.935732 8.3509447 19 8.1863701 19 8 L 19 5 C 19 4.44599 18.55401 4 18 4 L 16 4 C 16 3.4459904 15.55401 3 15 3 L 4 3 z M 4 4 L 15 4 L 15 18 L 4 18 L 4 4 z M 5 5 L 5 8 L 14 8 L 14 5 L 5 5 z M 16 5 L 18 5 L 18 8 L 16 8 L 16 5 z M 16 9 L 18 9 L 18 12 L 16 12 L 16 9 z M 5 10 L 5 11 L 14 11 L 14 10 L 5 10 z M 5 12 L 5 13 L 14 13 L 14 12 L 5 12 z M 16 13 L 18 13 L 18 16 L 16 16 L 16 13 z M 5 14 L 5 15 L 14 15 L 14 14 L 5 14 z M 5 16 L 5 17 L 14 17 L 14 16 L 5 16 z "
       transform="translate(326,534.3622)"
       id="rect4153" />
  </g>
</svg>
