<?xml version="1.0" encoding="UTF-8" standalone="no"?>
<!-- Created with Inkscape (http://www.inkscape.org/) -->

<svg
   xmlns:dc="http://purl.org/dc/elements/1.1/"
   xmlns:cc="http://creativecommons.org/ns#"
   xmlns:rdf="http://www.w3.org/1999/02/22-rdf-syntax-ns#"
   xmlns:svg="http://www.w3.org/2000/svg"
   xmlns="http://www.w3.org/2000/svg"
   xmlns:sodipodi="http://sodipodi.sourceforge.net/DTD/sodipodi-0.dtd"
   xmlns:inkscape="http://www.inkscape.org/namespaces/inkscape"
   width="22"
   version="1.1"
   height="22"
   id="svg2"
   inkscape:version="0.91 r13725"
   sodipodi:docname="application-x-m4-22.svg">
  <sodipodi:namedview
     pagecolor="#ffffff"
     bordercolor="#666666"
     borderopacity="1"
     objecttolerance="10"
     gridtolerance="10"
     guidetolerance="10"
     inkscape:pageopacity="0"
     inkscape:pageshadow="2"
     inkscape:window-width="1366"
     inkscape:window-height="699"
     id="namedview12"
     showgrid="true"
     inkscape:zoom="17.4307"
     inkscape:cx="1.3418076"
     inkscape:cy="9.0574512"
     inkscape:window-x="0"
     inkscape:window-y="0"
     inkscape:window-maximized="1"
     inkscape:current-layer="layer1">
    <inkscape:grid
       type="xygrid"
       id="grid4140" />
  </sodipodi:namedview>
  <defs
     id="defs3871" />
  <metadata
     id="metadata3874">
    <rdf:RDF>
      <cc:Work
         rdf:about="">
        <dc:format>image/svg+xml</dc:format>
        <dc:type
           rdf:resource="http://purl.org/dc/dcmitype/StillImage" />
        <dc:title></dc:title>
      </cc:Work>
    </rdf:RDF>
  </metadata>
  <g
     inkscape:label="Capa 1"
     inkscape:groupmode="layer"
     id="layer1"
     transform="matrix(1 0 0 1 -326 -534.3622)">
    <rect
       width="0"
       x="326.49567"
       y="535.98694"
       height="10.999983"
       style="fill:#6c7a89"
       id="rect4035" />
    <rect
       width="0"
       x="321.94366"
       y="538.50604"
       height="10.999983"
       style="fill:#6c7a89"
       id="rect4035-7" />
    <rect
       width="0"
       x="317.43588"
       y="526.08746"
       height="10.999983"
       style="fill:#6c7a89"
       id="rect4035-9" />
    <path
       inkscape:connector-curvature="0"
       d="m 339.1077,542.75662 c 0.0197,-0.15765 0.0345,-0.31776 0.0345,-0.48033 0,-0.16258 -0.0147,-0.32269 -0.0345,-0.48033 l 1.04196,-0.81534 c 0.0936,-0.0739 0.1207,-0.20691 0.0591,-0.31529 l -0.9853,-1.70703 c -0.0616,-0.10592 -0.18966,-0.15026 -0.3005,-0.10592 l -1.2267,0.49511 c -0.25371,-0.1946 -0.53207,-0.35963 -0.83258,-0.48526 l -0.18474,-1.30552 c -0.0222,-0.11577 -0.12317,-0.20691 -0.24633,-0.20691 l -1.97059,0 c -0.12317,0 -0.22416,0.0911 -0.24387,0.20691 l -0.18474,1.30552 c -0.30052,0.12563 -0.57887,0.2882 -0.83258,0.48526 l -1.2267,-0.49511 c -0.11084,-0.0419 -0.23893,0 -0.3005,0.10592 l -0.9853,1.70703 c -0.0616,0.10591 -0.0345,0.23893 0.0592,0.31529 l 1.03948,0.81534 c -0.0197,0.15764 -0.0345,0.31775 -0.0345,0.48033 0,0.16257 0.0147,0.32268 0.0345,0.48033 l -1.03948,0.81534 c -0.0936,0.0739 -0.1207,0.20691 -0.0592,0.31529 l 0.9853,1.70703 c 0.0616,0.10592 0.18966,0.15026 0.3005,0.10592 l 1.2267,-0.49511 c 0.25371,0.19459 0.53206,0.35963 0.83258,0.48526 l 0.18474,1.30551 c 0.0197,0.11577 0.1207,0.20692 0.24387,0.20692 l 1.97059,0 c 0.12316,0 0.22415,-0.0911 0.24386,-0.20692 l 0.18475,-1.30551 c 0.30051,-0.12563 0.57886,-0.28821 0.83258,-0.48526 l 1.22669,0.49511 c 0.11085,0.0419 0.23894,0 0.30051,-0.10592 l 0.9853,-1.70703 c 0.0616,-0.10592 0.0345,-0.23893 -0.0592,-0.31529 l -1.03949,-0.81534 z m -3.66038,1.24394 c -0.95327,0 -1.72427,-0.77099 -1.72427,-1.72427 0,-0.95328 0.771,-1.72427 1.72427,-1.72427 0.95328,0 1.72428,0.77099 1.72428,1.72427 0,0.95328 -0.771,1.72427 -1.72428,1.72427 z"
       id="path6"
       style="fill:#8096a0;fill-opacity:1" />
    <path
       inkscape:connector-curvature="0"
       d="m 341.92736,551.46254 c 0.068,-0.0944 0.13361,-0.19212 0.19063,-0.29659 0.057,-0.10448 0.10368,-0.21256 0.14631,-0.32079 l 0.9556,-0.15853 c 0.0861,-0.0147 0.15014,-0.0906 0.14857,-0.1819 l -0.0345,-1.44262 c -0.002,-0.0897 -0.0692,-0.16309 -0.15598,-0.17347 l -0.96201,-0.11206 c -0.0948,-0.21405 -0.2158,-0.41774 -0.36486,-0.60387 l 0.33916,-0.90381 c 0.0264,-0.0822 -0.006,-0.17618 -0.0857,-0.21937 l -1.26643,-0.69116 c -0.0791,-0.0432 -0.17602,-0.02 -0.2293,0.0475 l -0.57662,0.77421 c -0.23719,-0.0247 -0.4731,-0.0178 -0.70527,0.0198 l -0.61469,-0.74844 c -0.0565,-0.0658 -0.15355,-0.0838 -0.23028,-0.0373 l -1.23193,0.75145 c -0.0767,0.0464 -0.10597,0.14147 -0.0726,0.22337 l 0.38208,0.88858 c -0.068,0.0944 -0.13361,0.19211 -0.19064,0.29659 -0.057,0.10448 -0.10368,0.21256 -0.1463,0.32079 l -0.95401,0.1594 c -0.0861,0.0147 -0.15014,0.0906 -0.14858,0.18189 l 0.0345,1.44262 c 0.002,0.0897 0.0692,0.16309 0.15598,0.17348 l 0.96201,0.11205 c 0.0948,0.21405 0.21579,0.41774 0.36487,0.60387 l -0.33917,0.90381 c -0.0279,0.0813 0.005,0.17531 0.0841,0.2185 l 1.26643,0.69117 c 0.0791,0.0432 0.17601,0.02 0.22929,-0.0475 l 0.57662,-0.77422 c 0.2372,0.0247 0.4731,0.0178 0.70526,-0.0198 l 0.6147,0.74844 c 0.0565,0.0658 0.15356,0.0838 0.23028,0.0373 l 1.23194,-0.75146 c 0.0767,-0.0465 0.10597,-0.14146 0.0726,-0.22336 l -0.38207,-0.88857 z m -2.78868,-0.4844 c -0.61263,-0.33434 -0.83771,-1.10025 -0.50336,-1.71288 0.33435,-0.61264 1.10026,-0.83772 1.71289,-0.50337 0.61263,0.33435 0.83771,1.10026 0.50336,1.71289 -0.33435,0.61264 -1.10026,0.83771 -1.71289,0.50336 z"
       id="path6-7"
       style="fill:#8096a0;fill-opacity:1" />
  </g>
</svg>
