<?xml version="1.0" encoding="UTF-8" standalone="no"?>

<!-- Created with Inkscape (http://www.inkscape.org/) -->
<svg width="22" version="1.1" xmlns="http://www.w3.org/2000/svg" height="22" xmlns:inkscape="http://www.inkscape.org/namespaces/inkscape">
 <defs id="defs3871"/>
 <metadata id="metadata3874"/>
 <g inkscape:label="Capa 1" inkscape:groupmode="layer" id="layer1" transform="matrix(1 0 0 1 -326 -534.3622)">
  <rect width="0" x="326.49567" y="535.98694" height="10.999983" style="fill:#6c7a89" id="rect4035"/>
  <rect width="0" x="321.94366" y="538.50604" height="10.999983" style="fill:#6c7a89" id="rect4035-7"/>
  <rect width="0" x="317.43588" y="526.08746" height="10.999983" style="fill:#6c7a89" id="rect4035-9"/>
  <path style="fill:#8e44ad" id="rect4089" d="M 3 3 L 3 19 L 8 19 L 9 19 L 19 19 L 19 3 L 9 3 L 8 3 L 3 3 z M 11 4 L 18 4 L 18 6 L 11 6 L 11 4 z M 4 7 L 8 7 L 8 18 L 4 18 L 4 7 z M 9 7 L 18 7 L 18 18 L 9 18 L 9 7 z " transform="matrix(1 0 0 1 326 534.3622)"/>
 </g>
</svg>
