<?xml version="1.0" encoding="UTF-8" standalone="no"?>
<!-- Created with Inkscape (http://www.inkscape.org/) -->

<svg
   xmlns:dc="http://purl.org/dc/elements/1.1/"
   xmlns:cc="http://creativecommons.org/ns#"
   xmlns:rdf="http://www.w3.org/1999/02/22-rdf-syntax-ns#"
   xmlns:svg="http://www.w3.org/2000/svg"
   xmlns="http://www.w3.org/2000/svg"
   xmlns:sodipodi="http://sodipodi.sourceforge.net/DTD/sodipodi-0.dtd"
   xmlns:inkscape="http://www.inkscape.org/namespaces/inkscape"
   width="22"
   version="1.1"
   height="22"
   id="svg2"
   inkscape:version="0.91 r13725"
   sodipodi:docname="application-zip.svg">
  <sodipodi:namedview
     pagecolor="#ffffff"
     bordercolor="#666666"
     borderopacity="1"
     objecttolerance="10"
     gridtolerance="10"
     guidetolerance="10"
     inkscape:pageopacity="0"
     inkscape:pageshadow="2"
     inkscape:window-width="709"
     inkscape:window-height="480"
     id="namedview15"
     showgrid="false"
     inkscape:zoom="10.727273"
     inkscape:cx="11"
     inkscape:cy="11"
     inkscape:window-x="0"
     inkscape:window-y="0"
     inkscape:window-maximized="0"
     inkscape:current-layer="layer1" />
  <defs
     id="defs3871" />
  <metadata
     id="metadata3874">
    <rdf:RDF>
      <cc:Work
         rdf:about="">
        <dc:format>image/svg+xml</dc:format>
        <dc:type
           rdf:resource="http://purl.org/dc/dcmitype/StillImage" />
      </cc:Work>
    </rdf:RDF>
  </metadata>
  <g
     inkscape:label="Capa 1"
     inkscape:groupmode="layer"
     id="layer1"
     transform="matrix(1 0 0 1 -326 -534.3622)">
    <rect
       width="0"
       x="326.49567"
       y="535.98694"
       height="10.999983"
       style="fill:#f9d24c;fill-opacity:1"
       id="rect4035" />
    <rect
       width="0"
       x="321.94366"
       y="538.50604"
       height="10.999983"
       style="fill:#f9d24c;fill-opacity:1"
       id="rect4035-7" />
    <rect
       width="0"
       x="317.43588"
       y="526.08746"
       height="10.999983"
       style="fill:#f9d24c;fill-opacity:1"
       id="rect4035-9" />
    <rect
       width="0"
       x="318.27991"
       y="538.32489"
       height="10.999983"
       style="fill:#f9d24c;fill-opacity:1"
       id="rect4035-96" />
    <rect
       width="0"
       x="313.72791"
       y="540.84399"
       height="10.999983"
       style="fill:#f9d24c;fill-opacity:1"
       id="rect4035-7-0" />
    <rect
       width="0"
       x="309.22012"
       y="528.42542"
       height="10.999983"
       style="fill:#f9d24c;fill-opacity:1"
       id="rect4035-9-6" />
    <path
       style="fill:#f9d24c;stroke-width:2;fill-opacity:1"
       id="rect5669"
       d="M 3 3 L 3 19 L 19 19 L 19 3 L 3 3 z M 4 4 L 18 4 L 18 18 L 4 18 L 4 4 z "
       transform="matrix(1 0 0 1 326 534.3622)" />
    <path
       style="fill:#f9d24c;stroke-width:2;fill-opacity:1"
       id="rect5711"
       d="M 10 4 L 10 5 L 11 5 L 11 4 L 10 4 z M 11 5 L 11 6 L 12 6 L 12 5 L 11 5 z M 11 6 L 10 6 L 10 7 L 11 7 L 11 6 z M 11 7 L 11 8 L 12 8 L 12 7 L 11 7 z M 11 8 L 10 8 L 10 9 L 11 9 L 11 8 z M 11 9 L 11 10 L 12 10 L 12 9 L 11 9 z M 11 10 L 10 10 L 10 11 L 11 11 L 11 10 z M 11 11 L 11 12 L 12 12 L 12 11 L 11 11 z M 11 12 L 10 12 L 10 13 L 10 14 L 11 14 L 12 14 L 12 13 L 11 13 L 11 12 z "
       transform="matrix(1 0 0 1 326 534.3622)" />
  </g>
</svg>
