<?xml version="1.0" encoding="UTF-8" standalone="no"?>

<!-- Created with Inkscape (http://www.inkscape.org/) -->
<svg width="22" version="1.1" xmlns="http://www.w3.org/2000/svg" height="22" xmlns:inkscape="http://www.inkscape.org/namespaces/inkscape">
 <defs id="defs3871"/>
 <metadata id="metadata3874"/>
 <g inkscape:label="Capa 1" inkscape:groupmode="layer" id="layer1" transform="matrix(1 0 0 1 -326 -534.3622)">
  <rect width="0" x="273.38181" y="518.47876" height="14.668059" style="fill:#04896a" id="rect4035"/>
  <rect width="0" x="280.34238" y="541.04938" height="14.668059" style="fill:#16907d" id="rect4035-8"/>
  <rect width="0" x="282.15567" y="539.98865" height="14.668059" style="fill:#6c7a89" id="rect4035-0"/>
  <path inkscape:connector-curvature="0" style="fill:#f62459" id="path4181-7" d="m 339.0803,537.36322 c -0.11422,0.005 -0.24297,0.035 -0.34144,0.089 -0.1642,0.0904 -0.16395,0.0906 -0.60455,0.0218 -0.24234,-0.0379 -0.67503,-0.08 -0.96205,-0.0949 -0.45439,-0.023 -0.5222,-0.0183 -0.5222,0.0356 0,0.0431 -0.0697,0.0772 -0.2149,0.1068 -0.11792,0.0243 -0.29241,0.0827 -0.38764,0.12857 -0.0952,0.0459 -0.18346,0.0747 -0.19682,0.0613 -0.0134,-0.0108 0.003,-0.0253 0.0362,-0.0257 0.0503,-10e-4 0.0487,-0.006 -0.004,-0.0415 -0.0531,-0.0337 -0.0486,-0.0471 0.0221,-0.0336 0.10364,0.009 0.23499,-0.041 0.23499,-0.0909 0,-0.0459 -0.22893,-0.0517 -0.37558,-0.0139 -0.0586,0.0148 -0.0893,0.0467 -0.0763,0.0791 0.0148,0.0364 -0.0293,0.0616 -0.13658,0.0791 -0.0868,0.0136 -0.22533,0.0404 -0.30729,0.0593 -0.14397,0.0337 -0.14477,0.0331 -0.0522,-0.0276 0.0528,-0.035 0.0944,-0.0787 0.0944,-0.0989 0,-0.068 -0.1314,-0.0362 -0.42982,0.10681 -0.16499,0.0783 -0.33135,0.1361 -0.37156,0.12263 -0.14721,-0.0446 -1.739,1.26073 -2.07675,1.70298 -0.0777,0.10232 -0.15189,0.16182 -0.19683,0.14835 -0.0466,-0.009 -0.0961,0.0342 -0.1426,0.12065 -0.0395,0.0738 -0.19132,0.31675 -0.33742,0.53997 -0.33219,0.50721 -0.44142,0.70761 -0.52019,0.96918 -0.0342,0.11357 -0.0885,0.26078 -0.12051,0.32833 -0.032,0.0669 -0.0857,0.31629 -0.1205,0.55382 -0.0634,0.43362 -0.12701,0.62531 -0.19683,0.58348 -0.0207,-0.008 -0.0472,-0.004 -0.0582,0.0118 -0.0566,0.0882 -0.16232,0.92573 -0.19482,1.54475 -0.0341,0.65143 -0.0303,0.71839 0.0482,0.91379 0.0465,0.11573 0.15778,0.48424 0.24704,0.81887 0.3588,1.34579 0.48342,1.74107 0.713,2.25085 0.69101,1.53444 1.80715,2.76229 3.51681,3.8688 0.77847,0.50369 2.03571,0.99636 2.91227,1.14126 l 0,-0.008 c 0.22345,0.0311 0.61357,0.057 1.18499,0.0435 0.72515,-0.008 0.91381,-0.0238 1.26733,-0.10483 0.26891,-0.0624 0.41375,-0.11518 0.41375,-0.15032 0,-0.0486 -0.0542,-0.0505 -0.22294,-0.0357 -1.13986,0.0991 -1.43003,0.0644 -2.00244,-0.2413 -0.4094,-0.21879 -0.5304,-0.25497 -0.41575,-0.12263 0.0776,0.0891 -0.0518,0.0815 -0.36152,-0.0198 -0.1362,-0.0446 -0.29374,-0.0811 -0.34947,-0.0811 -0.087,0 -0.0941,-0.0101 -0.0562,-0.0772 0.0715,-0.1271 0.0514,-0.16417 -0.0864,-0.16417 -0.13996,0 -0.30283,-0.0698 -0.57241,-0.24328 -0.13512,-0.0918 -0.19528,-0.10474 -0.29123,-0.0791 -0.10477,0.0274 -0.14841,0.009 -0.31934,-0.13845 -0.27052,-0.23281 -0.34541,-0.31778 -0.34747,-0.40153 -0.002,-0.0756 -0.0864,-0.0944 -0.15264,-0.0336 -0.0251,0.0231 -0.20041,-0.0959 -0.46194,-0.3125 -0.23214,-0.19244 -0.40073,-0.35048 -0.37358,-0.36395 0.0896,-0.0284 0.0528,-0.1229 -0.0663,-0.16614 -0.19207,-0.07 -0.27887,-0.15416 -0.24905,-0.24328 0.0207,-0.0621 -0.0199,-0.11886 -0.18477,-0.25119 -0.1174,-0.0943 -0.24174,-0.2105 -0.27516,-0.25911 -0.0582,-0.0851 -0.0559,-0.0874 0.0623,-0.0712 0.18326,0.0256 0.15642,-0.0496 -0.12051,-0.32636 -0.26648,-0.2666 -0.44024,-0.35942 -0.61057,-0.32833 -0.0777,0.0149 -0.15027,-0.0107 -0.24704,-0.089 -0.19243,-0.15422 -0.40277,-0.4537 -0.33541,-0.47669 0.0344,-0.0118 0.005,-0.0692 -0.0844,-0.15823 -0.098,-0.0984 -0.15161,-0.20135 -0.18277,-0.358 -0.0261,-0.13125 -0.0842,-0.26164 -0.14461,-0.3224 -0.25712,-0.26171 -0.39115,-0.68374 -0.62262,-1.94824 -0.18998,-1.03777 -0.19052,-1.01472 -0.0161,-1.75243 0.1198,-0.50617 0.12537,-0.60129 0.0382,-0.60129 -0.0828,0 -0.0858,0.0126 0.0663,-0.35405 0.34139,-0.82266 0.97887,-1.71907 1.34165,-1.88692 0.16374,-0.0757 0.27516,-0.20429 0.27516,-0.32043 0,-0.0324 -0.0297,-0.0313 -0.0663,-0.0178 -0.0522,0.0203 -0.0479,7.7e-4 0.0181,-0.087 0.16528,-0.2185 0.37328,-0.37136 0.69492,-0.51032 0.19142,-0.0826 0.34756,-0.17876 0.37759,-0.23142 0.0468,-0.0824 0.0421,-0.0888 -0.0442,-0.0672 -0.0518,0.0138 -0.0865,0.0253 -0.0783,0.0118 0.008,-0.006 0.16393,-0.14022 0.34747,-0.30065 0.30358,-0.26521 0.77477,-0.56464 0.63266,-0.40151 -0.0319,0.0364 -0.0371,0.0735 -0.0141,0.087 0.0219,0.0122 0.062,-0.005 0.0904,-0.0376 0.0626,-0.0718 0.43494,-0.23899 0.81142,-0.36592 0.77138,-0.25928 1.85273,-0.32245 2.49049,-0.14636 0.74975,0.20714 1.54505,0.67289 2.17516,1.27773 0.4379,0.42025 0.71757,0.8073 0.8777,1.20849 0.0475,0.11857 0.10266,0.22389 0.12251,0.23736 0.0657,0.0386 0.34761,1.14931 0.37558,1.47948 0.0212,0.24912 0.0432,0.32411 0.0924,0.32438 0.0532,4e-4 0.0604,0.061 0.0482,0.34613 -0.0138,0.31869 -0.0233,0.35389 -0.1426,0.47272 -0.12392,0.1237 -0.12757,0.13924 -0.10043,0.38569 l 0.0281,0.25516 -0.25909,0.39162 c -0.23109,0.34852 -0.6782,0.89208 -0.48805,0.59337 0.0578,-0.0919 0.0606,-0.11274 0.012,-0.11274 -0.0329,0 -0.14096,0.11817 -0.24102,0.26307 -0.17987,0.26048 -0.33445,0.39802 -0.58245,0.51821 -0.0703,0.0339 -0.23402,0.11706 -0.36353,0.18592 -0.32255,0.17053 -0.6732,0.24922 -1.10666,0.24922 -0.83517,0 -1.71538,-0.39596 -2.25952,-1.01862 -0.22608,-0.25859 -0.55232,-0.83831 -0.55232,-0.98105 0,-0.0419 -0.0205,-0.0689 -0.0582,-0.0554 -0.045,0.0163 -0.0704,-0.0507 -0.10645,-0.28087 -0.0624,-0.39945 -0.0599,-0.51125 0.0201,-0.91379 0.11925,-0.60011 0.45492,-1.0679 1.06046,-1.47355 0.42712,-0.28673 0.72142,-0.36393 1.32157,-0.36393 0.42738,0.003 0.54679,0.0167 0.7351,0.0909 0.12387,0.0486 0.24878,0.0897 0.27716,0.089 0.12088,-0.002 -0.27297,-0.25303 -0.58647,-0.37185 -0.27637,-0.10524 -0.41906,-0.13148 -0.75116,-0.14637 -0.68699,-0.0299 -1.21625,0.17202 -1.72527,0.65667 -0.28886,0.27494 -0.5704,0.69957 -0.5704,0.86039 0,0.037 -0.0385,0.12554 -0.0864,0.19977 -0.18875,0.29047 -0.2982,1.21847 -0.19481,1.64167 0.28196,1.15404 0.8465,1.76075 2.20931,2.36559 0.43101,0.19081 0.55628,0.30282 0.23499,0.20965 -0.29473,-0.085 -0.70448,-0.25174 -0.83753,-0.34217 -0.1473,-0.1 -0.17474,-0.10344 -0.17474,-0.0237 0,0.0425 -0.0777,0.0132 -0.26311,-0.0989 -0.14507,-0.0866 -0.28059,-0.14995 -0.30126,-0.13648 -0.10924,0.0641 0.60213,0.53334 1.08256,0.71403 0.70807,0.26052 1.51165,0.37083 2.11089,0.27493 0.35217,-0.0567 0.94453,-0.30638 0.87769,-0.36987 -0.0283,-0.0176 -0.0827,-0.0158 -0.16469,0.0139 -0.20537,0.0744 -0.65866,0.15427 -1.0444,0.18395 -0.29442,0.023 -0.41493,0.0119 -0.61861,-0.0475 l -0.25105,-0.0732 0.51015,-0.0297 c 0.56759,-0.0309 0.90461,-0.0957 1.40793,-0.27097 0.85372,-0.29763 1.60806,-0.92759 2.08478,-1.74254 0.17651,-0.30195 0.23499,-0.35428 0.23499,-0.20966 0,0.11533 0.10179,0.078 0.1205,-0.0436 0.008,-0.0528 -0.006,-0.16227 -0.0341,-0.24328 -0.0383,-0.11154 -0.0396,-0.18673 -0.002,-0.32042 0.0447,-0.15938 0.0553,-0.16738 0.1205,-0.11472 0.15969,0.13001 0.17856,0.12309 0.15265,-0.0593 -0.0138,-0.0968 0.006,-0.32589 0.0442,-0.51427 0.0373,-0.18648 0.0702,-0.4505 0.0743,-0.58743 l 0.008,-0.24922 0.0241,0.23339 c 0.0254,0.24038 0.10004,0.31772 0.12452,0.13055 0.0131,-0.10016 -0.0353,-0.35529 -0.0984,-0.52612 -0.0294,-0.077 -0.0275,-0.077 0.0382,0 0.10345,0.12073 0.11684,0.0566 0.0462,-0.20175 -0.0466,-0.17015 -0.0558,-0.33039 -0.0362,-0.5736 0.0266,-0.33 0.005,-0.39401 -0.10043,-0.29273 -0.0679,0.0647 -0.19369,-0.17998 -0.19884,-0.38767 -0.003,-0.11317 -0.0311,-0.18554 -0.0904,-0.23142 -0.0475,-0.0368 -0.12336,-0.12554 -0.16871,-0.19977 l -0.0823,-0.13647 0.1205,0.0909 c 0.0666,0.05 0.13,0.0847 0.14059,0.0712 0.0107,-0.0101 -0.0372,-0.11456 -0.10644,-0.23339 -0.0692,-0.11843 -0.15002,-0.27973 -0.18077,-0.35801 -0.0949,-0.24051 -0.30463,-0.40915 -0.34947,-0.28086 -0.008,0.0234 -0.0568,-0.0367 -0.10845,-0.13252 l -0.0944,-0.17406 0.0944,-0.0139 c 0.0522,-0.007 0.11627,-0.0388 0.1426,-0.0712 0.0393,-0.0482 0.0907,-0.0101 0.28319,0.21559 0.12891,0.15097 0.36479,0.46473 0.52421,0.6982 0.15942,0.23336 0.29603,0.40341 0.30528,0.37779 0.0209,-0.0595 -0.0646,-0.22124 -0.37558,-0.70414 -0.13796,-0.21416 -0.25106,-0.41206 -0.25106,-0.4391 0,-0.0267 -0.0319,-0.10641 -0.0703,-0.17801 l -0.0702,-0.12856 0.0924,0.0772 c 0.15957,0.13544 0.14832,0.0345 -0.0201,-0.1879 -0.7101,-0.93812 -1.6661,-1.60557 -2.83996,-1.97989 -0.3641,-0.1188 -0.45783,-0.11989 -0.36353,-0.0118 0.0496,0.058 0.0411,0.058 -0.0763,0 -0.072,-0.0351 -0.15635,-0.0935 -0.18679,-0.12856 -0.0416,-0.0472 -0.14086,-0.0684 -0.25508,-0.0633 z m -2.1832,0.17801 c 0.0308,-0.0149 0.0682,-0.0135 0.0824,0 l 0,0.002 c 0.0141,0.008 -0.0113,0.0218 -0.0562,0.0218 -0.0496,-10e-4 -0.0601,-0.0102 -0.0261,-0.0237 z m 0.29726,0.0336 c 0.0943,-0.0124 0.23233,-0.009 0.32135,0.002 0.0452,0.004 0.004,0.0159 -0.16269,0.0158 -0.18742,0 -0.25882,-0.004 -0.15866,-0.0178 z m 0.61659,0.0436 c 0.041,-0.0135 0.1076,-0.0135 0.14863,0 0.041,0.005 0.008,0.0178 -0.0743,0.0178 -0.0817,0 -0.11534,-0.004 -0.0743,-0.0178 z m -1.03235,0.0139 c 0.0469,-0.0108 0.0734,-0.004 0.0602,0.0158 -0.0132,0.0189 -0.0506,0.0376 -0.0844,0.0376 -0.0882,0 -0.0753,-0.0277 0.0241,-0.0534 z m 1.35571,0.0297 c 0.0308,-0.0149 0.0662,-0.0135 0.0804,0 l 0,0.004 c 0.0141,0.008 -0.0113,0.0218 -0.0562,0.0218 -0.0496,-10e-4 -0.0581,-0.0123 -0.0241,-0.0257 z m -1.61078,0.0336 0.14863,0 -0.17072,0.0297 0,0.004 c -0.0937,0.0162 -0.20819,0.0411 -0.25508,0.0573 -0.0551,0.0203 -0.0488,0.009 0.0201,-0.0316 0.0586,-0.0337 0.17512,-0.0593 0.25708,-0.0593 z m -1.07854,0.16615 c 0.009,0.008 -0.11993,0.0574 -0.2852,0.10878 -0.20453,0.0661 -0.31383,0.0817 -0.34345,0.0534 -0.0296,-0.027 -0.10862,-0.0201 -0.24905,0.0257 -0.11348,0.0365 -0.26213,0.0987 -0.32939,0.13647 l -0.12251,0.0693 0.11448,-0.087 c 0.16662,-0.1287 0.55388,-0.25196 0.5945,-0.18988 0.0241,0.0365 0.10165,0.0273 0.31734,-0.0415 0.15703,-0.0486 0.29402,-0.0886 0.30328,-0.0751 z m 0.55835,0.006 c 0.009,0.009 -0.0852,0.0439 -0.20888,0.0791 -0.24898,0.0689 -0.25106,0.0698 -0.25106,0.0455 0,-0.0243 0.44009,-0.14355 0.45994,-0.12461 z m -1.91607,0.3857 c 0.0117,0 -0.0139,0.0365 -0.0562,0.0811 -0.0424,0.0446 -0.0867,0.0811 -0.0984,0.0811 -0.0117,0 0.0139,-0.0366 0.0562,-0.0811 0.0425,-0.0446 0.0867,-0.0811 0.0984,-0.0811 z m -0.50412,0.40547 c 0.002,0.002 -0.0111,0.0192 -0.0362,0.0494 -0.0556,0.0702 -0.0924,0.0897 -0.0924,0.0573 0,-0.008 0.0353,-0.0401 0.0763,-0.0712 0.0338,-0.0256 0.05,-0.0378 0.0522,-0.0356 z m 6.84884,4.30591 c -0.0393,-0.008 -0.0731,0.0238 -0.0924,0.0969 -0.0188,0.0712 5e-5,0.13845 0.0663,0.22352 l 0.002,0 c 0.16131,0.20769 0.26037,0.0857 0.14461,-0.17802 -0.0372,-0.0851 -0.0812,-0.13426 -0.12051,-0.14241 z m 2.80783,0.0277 c 0.0115,0.0292 0.01,0.064 -0.004,0.0772 -0.0142,0.0149 -0.0241,-0.0101 -0.0221,-0.0534 0.002,-0.0473 0.0125,-0.0561 0.0261,-0.0237 z m -2.70741,1.04631 c -0.0208,-0.0122 -0.0523,0.0783 -0.0683,0.19976 -0.0172,0.131 -0.0622,0.25854 -0.11247,0.31252 l -0.0864,0.093 0.0201,-0.10087 c 0.0108,-0.0558 0.033,-0.1618 0.0502,-0.23339 0.0476,-0.20149 -0.038,-0.15984 -0.12051,0.0593 -0.096,0.25496 -0.0909,0.32927 0.0241,0.37382 l 0,0.002 c 0.18789,0.072 0.23342,0.0498 0.2832,-0.13845 0.0574,-0.21566 0.0628,-0.53658 0.0101,-0.56767 z m -0.82146,1.254 c -0.009,-0.008 -0.102,0.0207 -0.20687,0.0652 -0.10487,0.0446 -0.28236,0.0996 -0.39366,0.12263 -0.19383,0.039 -0.2676,0.12423 -0.14862,0.1701 0.0293,0.009 0.15834,0.0237 0.28721,0.0237 0.23286,0.003 0.23596,0.001 0.3575,-0.18196 0.0672,-0.10186 0.1137,-0.18631 0.10444,-0.19978 z m -3.44852,0.91181 c -0.0911,0 -0.0205,0.1174 0.20486,0.33427 0.13399,0.12897 0.25092,0.23537 0.25709,0.23537 0.007,0 0.012,-0.0231 0.012,-0.0514 0,-0.0597 -0.41929,-0.51822 -0.474,-0.51822 z m -0.13256,0.40547 c -0.018,0 -0.0341,0.0527 -0.0341,0.11472 0,0.11735 0.16258,0.26968 0.59651,0.56569 0.11237,0.0729 0.19963,0.11406 0.20888,0.087 0.0159,-0.0454 -0.70975,-0.76744 -0.77125,-0.76744 z m 1.01026,0.48064 0.11649,0.0693 c 0.0644,0.0379 0.1185,0.0696 0.1185,0.083 0,0.0324 -0.0365,0.0138 -0.13457,-0.0672 z"/>
 </g>
</svg>
