<?xml version="1.0" encoding="UTF-8" standalone="no"?>
<!-- Created with Inkscape (http://www.inkscape.org/) -->

<svg
   xmlns:dc="http://purl.org/dc/elements/1.1/"
   xmlns:cc="http://creativecommons.org/ns#"
   xmlns:rdf="http://www.w3.org/1999/02/22-rdf-syntax-ns#"
   xmlns:svg="http://www.w3.org/2000/svg"
   xmlns="http://www.w3.org/2000/svg"
   xmlns:sodipodi="http://sodipodi.sourceforge.net/DTD/sodipodi-0.dtd"
   xmlns:inkscape="http://www.inkscape.org/namespaces/inkscape"
   width="22"
   version="1.1"
   height="22"
   id="svg2"
   inkscape:version="0.91 r13725"
   sodipodi:docname="application-x-bittorrent.svg">
  <sodipodi:namedview
     pagecolor="#ffffff"
     bordercolor="#666666"
     borderopacity="1"
     objecttolerance="10"
     gridtolerance="10"
     guidetolerance="10"
     inkscape:pageopacity="0"
     inkscape:pageshadow="2"
     inkscape:window-width="1360"
     inkscape:window-height="708"
     id="namedview11"
     showgrid="false"
     inkscape:zoom="21.46"
     inkscape:cx="4.8491869"
     inkscape:cy="14.727866"
     inkscape:window-x="0"
     inkscape:window-y="0"
     inkscape:window-maximized="1"
     inkscape:current-layer="layer1" />
  <defs
     id="defs3871" />
  <metadata
     id="metadata3874">
    <rdf:RDF>
      <cc:Work
         rdf:about="">
        <dc:format>image/svg+xml</dc:format>
        <dc:type
           rdf:resource="http://purl.org/dc/dcmitype/StillImage" />
        <dc:title />
      </cc:Work>
    </rdf:RDF>
  </metadata>
  <g
     inkscape:label="Capa 1"
     inkscape:groupmode="layer"
     id="layer1"
     transform="matrix(1 0 0 1 -326 -534.3622)">
    <rect
       width="0"
       x="273.38181"
       y="518.47876"
       height="14.668059"
       style="fill:#8e44ad"
       id="rect4035" />
    <rect
       width="0"
       x="280.34238"
       y="541.04938"
       height="14.668059"
       style="fill:#8e44ad"
       id="rect4035-8" />
    <rect
       width="0"
       x="282.15567"
       y="539.98865"
       height="14.668059"
       style="fill:#8e44ad"
       id="rect4035-0" />
    <path
       inkscape:connector-curvature="0"
       style="fill:#75d8e1;fill-opacity:1;stroke:none"
       d="m 337,537.3622 c -0.97291,3.405 -3.35445,6.3323 -4.4043,8.6758 -0.3674,0.6968 -0.5957,1.4788 -0.5957,2.3242 0,2.77 2.23,5 5,5 2.77,0 5,-2.23 5,-5 0,-0.8454 -0.2283,-1.6274 -0.5957,-2.3242 -1.04985,-2.3435 -3.4314,-5.2708 -4.4043,-8.6758 z m 2.2832,7.7168 c 1.0377,0.7212 1.7168,1.9183 1.7168,3.2832 0,2.216 -1.784,4 -4,4 -1.36496,0 -2.562,-0.679 -3.2832,-1.7168 0.64704,0.4497 1.43212,0.7168 2.2832,0.7168 2.216,0 4,-1.784 4,-4 0,-0.8511 -0.26709,-1.6362 -0.7168,-2.2832 z"
       class="ColorScheme-Text"
       id="path6" />
  </g>
</svg>
