<?xml version="1.0" encoding="UTF-8" standalone="no"?>
<!-- Created with Inkscape (http://www.inkscape.org/) -->

<svg
   xmlns:dc="http://purl.org/dc/elements/1.1/"
   xmlns:cc="http://creativecommons.org/ns#"
   xmlns:rdf="http://www.w3.org/1999/02/22-rdf-syntax-ns#"
   xmlns:svg="http://www.w3.org/2000/svg"
   xmlns="http://www.w3.org/2000/svg"
   xmlns:sodipodi="http://sodipodi.sourceforge.net/DTD/sodipodi-0.dtd"
   xmlns:inkscape="http://www.inkscape.org/namespaces/inkscape"
   width="22"
   version="1.1"
   height="22"
   id="svg2"
   inkscape:version="0.91 r13725"
   sodipodi:docname="application-dicom.svg">
  <sodipodi:namedview
     pagecolor="#ffffff"
     bordercolor="#666666"
     borderopacity="1"
     objecttolerance="10"
     gridtolerance="10"
     guidetolerance="10"
     inkscape:pageopacity="0"
     inkscape:pageshadow="2"
     inkscape:window-width="1360"
     inkscape:window-height="708"
     id="namedview11"
     showgrid="false"
     inkscape:zoom="10.727273"
     inkscape:cx="-1.9576272"
     inkscape:cy="11"
     inkscape:window-x="0"
     inkscape:window-y="0"
     inkscape:window-maximized="1"
     inkscape:current-layer="layer1" />
  <defs
     id="defs3871" />
  <metadata
     id="metadata3874">
    <rdf:RDF>
      <cc:Work
         rdf:about="">
        <dc:format>image/svg+xml</dc:format>
        <dc:type
           rdf:resource="http://purl.org/dc/dcmitype/StillImage" />
        <dc:title />
      </cc:Work>
    </rdf:RDF>
  </metadata>
  <g
     inkscape:label="Capa 1"
     inkscape:groupmode="layer"
     id="layer1"
     transform="matrix(1 0 0 1 -326 -534.3622)">
    <g
       id="g4141"
       transform="matrix(1.0032398,0,0,1.0116327,-1.0413045,-5.4064436)">
      <rect
         id="rect4035"
         style="fill:#687583;fill-opacity:1"
         height="14.668059"
         y="518.47876"
         x="273.38181"
         width="0" />
      <rect
         id="rect4035-8"
         style="fill:#687583;fill-opacity:1"
         height="14.668059"
         y="541.04938"
         x="280.34238"
         width="0" />
      <rect
         id="rect4035-0"
         style="fill:#687583;fill-opacity:1"
         height="14.668059"
         y="539.98865"
         x="282.15567"
         width="0" />
      <path
         style="fill:#687583;fill-opacity:1"
         id="path5"
         d="m 333.86544,544.08745 c -0.12268,0.56081 -0.62291,0.98203 -1.21995,0.98203 -0.15918,0 -0.28822,0.12895 -0.28822,0.28823 0,0.15921 0.12908,0.28823 0.28822,0.28823 0.91363,0 1.67254,-0.67472 1.8049,-1.55204 0.55938,-0.0604 1.07575,-0.30974 1.47551,-0.71776 0.11133,-0.11372 0.10946,-0.29622 -0.004,-0.40757 -0.11374,-0.11133 -0.29618,-0.1096 -0.40758,0.004 -0.35352,0.36086 -0.82636,0.55957 -1.33145,0.55957 -1.02773,0 -1.86384,-0.83612 -1.86384,-1.86383 0,-0.15921 -0.12909,-0.28824 -0.28824,-0.28824 -0.15917,0 -0.28821,0.12909 -0.28821,0.28824 0,1.23801 0.92689,2.2629 2.12306,2.419 z"
         inkscape:connector-curvature="0" />
      <path
         style="fill:#687583;fill-opacity:1"
         id="path7"
         d="m 335.08577,546.58746 c 0,-0.15922 -0.12907,-0.28823 -0.28822,-0.28823 -1.34558,0 -2.44028,1.09472 -2.44028,2.44029 0,0.0139 5.6e-4,0.0279 7.2e-4,0.0418 -0.10719,-0.0144 -0.21632,-0.0226 -0.32738,-0.0226 -0.15919,0 -0.28823,0.12909 -0.28823,0.28823 0,0.15923 0.12908,0.28822 0.28823,0.28822 1.02773,0 1.86385,0.83611 1.86385,1.86386 0,0.15921 0.12908,0.28821 0.28821,0.28821 0.15917,0 0.28822,-0.12894 0.28822,-0.28821 0,-1.02267 -0.63261,-1.89986 -1.52685,-2.26226 -0.007,-0.0653 -0.0106,-0.13136 -0.0106,-0.19726 0,-1.02773 0.83612,-1.86384 1.86385,-1.86384 0.15917,0 0.28823,-0.12908 0.28823,-0.28823 z"
         inkscape:connector-curvature="0" />
      <path
         style="fill:#687583;fill-opacity:1"
         id="path9"
         d="m 344.92382,544.12796 c 0,-0.6562 -0.26209,-1.27803 -0.72536,-1.73535 0.0734,-0.23473 0.11052,-0.47753 0.11052,-0.72418 0,-1.18647 -0.85129,-2.17738 -1.97505,-2.39528 0.0858,-0.21409 0.13042,-0.4436 0.13042,-0.6791 0,-0.75157 -0.45668,-1.39834 -1.10702,-1.67788 -1.08354,-0.86299 -2.26859,-1.37729 -3.17792,-1.37729 -0.50545,0 -0.95371,0.24856 -1.22975,0.62963 -0.27605,-0.38107 -0.72429,-0.62963 -1.22975,-0.62963 -0.90933,0 -2.0944,0.5143 -3.17794,1.37729 -0.65034,0.27954 -1.10701,0.92631 -1.10701,1.67788 0,0.2355 0.0444,0.46501 0.13042,0.6791 -1.12376,0.2179 -1.97505,1.20881 -1.97505,2.39528 0,0.24665 0.0371,0.48941 0.11052,0.72418 -0.46327,0.45732 -0.72536,1.07915 -0.72536,1.73535 0,0.51295 0.15945,0.98922 0.43091,1.3825 -0.28211,0.40782 -0.43091,0.88354 -0.43091,1.38444 0,0.88727 0.48372,1.70022 1.24959,2.12886 -0.0133,0.1096 -0.0199,0.2202 -0.0199,0.33066 0,1.19685 0.78071,2.25501 1.91342,2.61564 0.49272,0.84323 1.3902,1.36184 2.37151,1.36184 1.07585,0 2.0087,-0.62184 2.45951,-1.52467 0.45081,0.90283 1.38366,1.52467 2.4595,1.52467 0.98131,0 1.8788,-0.51861 2.37151,-1.36184 1.13272,-0.36066 1.91343,-1.41883 1.91343,-2.61564 0,-0.1104 -0.007,-0.22106 -0.0199,-0.33066 0.76587,-0.42864 1.24959,-1.24159 1.24959,-2.12886 0,-0.5009 -0.1488,-0.97662 -0.43091,-1.38444 0.27144,-0.39328 0.4309,-0.86955 0.4309,-1.3825 z m -10.4337,8.6275 c -0.80815,0 -1.54453,-0.44557 -1.92183,-1.16274 -0.0374,-0.071 -0.10266,-0.12335 -0.18018,-0.14414 -0.94587,-0.25457 -1.60647,-1.11571 -1.60647,-2.09416 0,-0.14643 0.0148,-0.29308 0.0438,-0.43596 0.0269,-0.13243 -0.0418,-0.26593 -0.16533,-0.32089 -0.67324,-0.29929 -1.10827,-0.96766 -1.10827,-1.70267 0,-0.3343 0.0868,-0.65384 0.25213,-0.93688 0.43026,0.37933 0.99438,0.61021 1.61172,0.61021 0.15917,0 0.28821,-0.12894 0.28821,-0.28821 0,-0.15921 -0.12908,-0.28822 -0.28821,-0.28822 -1.02774,0 -1.86385,-0.83612 -1.86385,-1.86384 0,-0.55324 0.2441,-1.07466 0.66975,-1.4304 0.0961,-0.0803 0.12935,-0.21349 0.0822,-0.3295 -0.0911,-0.22428 -0.13712,-0.45967 -0.13712,-0.69963 0,-1.02772 0.83612,-1.86384 1.86385,-1.86384 1.02774,0 1.86385,0.83612 1.86385,1.86384 0,0.15923 0.12908,0.28824 0.28821,0.28824 0.15919,0 0.28824,-0.12896 0.28824,-0.28824 0,-1.29285 -1.01079,-2.35355 -2.28354,-2.4347 -0.11534,-0.19286 -0.17598,-0.41213 -0.17598,-0.63968 0,-0.51376 0.31191,-0.95594 0.75623,-1.14748 0.0171,-0.005 0.034,-0.012 0.0503,-0.0203 0.13766,-0.0523 0.28674,-0.0813 0.44249,-0.0813 0.48256,0 0.91336,0.26982 1.12429,0.70423 0.0696,0.14322 0.24205,0.20294 0.38519,0.13336 0.14319,-0.0696 0.20292,-0.24195 0.13335,-0.38514 -0.2408,-0.49586 -0.69653,-0.85227 -1.22138,-0.9785 0.73563,-0.44886 1.45985,-0.70369 2.03806,-0.70369 0.51914,0 0.94152,0.42235 0.94152,0.94152 l 0,3.72967 c -0.25897,-0.20546 -0.58605,-0.32861 -0.94152,-0.32861 -0.15918,0 -0.28824,0.12895 -0.28824,0.28822 0,0.15921 0.12909,0.28821 0.28824,0.28821 0.51914,0 0.94152,0.42234 0.94152,0.94154 l 0,6.92809 c -0.35835,-0.46235 -0.86356,-0.8113 -1.45783,-0.97096 -0.15369,-0.0412 -0.31182,0.0499 -0.35314,0.20356 -0.0414,0.15375 0.0499,0.31186 0.20356,0.35313 0.94643,0.2543 1.60741,1.11554 1.60741,2.09447 0,1.19723 -0.97404,2.17129 -2.17127,2.17129 z m 8.74898,-4.15785 c -0.12361,0.055 -0.1923,0.18838 -0.16533,0.3209 0.0291,0.14287 0.0437,0.28952 0.0437,0.43593 0,0.97847 -0.66061,1.8396 -1.60648,2.09416 -0.0775,0.0208 -0.1428,0.0732 -0.18016,0.14416 -0.3773,0.71713 -1.1137,1.1627 -1.92184,1.1627 -1.19725,0 -2.17128,-0.97406 -2.17128,-2.17129 0,-0.081 -0.004,-0.16141 -0.0106,-0.24099 0.007,-0.0246 0.0106,-0.0504 0.0106,-0.0772 l 0,-9.51972 c 0,-0.5192 0.42238,-0.94154 0.94153,-0.94154 0.15917,0 0.28823,-0.12896 0.28823,-0.28824 0,-0.15921 -0.12909,-0.28821 -0.28823,-0.28821 -0.35548,0 -0.68256,0.12321 -0.94153,0.32861 l 0,-2.4999 c 0,-0.51919 0.42238,-0.94154 0.94153,-0.94154 0.57822,0 1.30242,0.25483 2.03805,0.70371 -0.52483,0.12614 -0.98058,0.48264 -1.22138,0.9785 -0.0696,0.14323 -0.009,0.31566 0.13336,0.38514 0.14317,0.0695 0.31561,0.009 0.38518,-0.13336 0.21093,-0.43441 0.64173,-0.70422 1.1243,-0.70422 0.15575,0 0.30486,0.0288 0.44248,0.0813 0.0162,0.008 0.0331,0.0151 0.0502,0.0202 0.4444,0.19153 0.75633,0.6337 0.75633,1.14751 0,0.22753 -0.0606,0.44683 -0.17597,0.63967 -1.27276,0.0811 -2.28354,1.14186 -2.28354,2.43472 0,0.1592 0.12909,0.28822 0.28822,0.28822 0.15919,0 0.28823,-0.12908 0.28823,-0.28822 0,-1.02774 0.83612,-1.86384 1.86385,-1.86384 1.02773,0 1.86385,0.8361 1.86385,1.86384 0,0.23995 -0.046,0.47534 -0.13709,0.6996 -0.0471,0.11615 -0.0139,0.24919 0.0822,0.32951 0.42561,0.35575 0.66972,0.87716 0.66972,1.4304 0,1.02773 -0.83612,1.86384 -1.86385,1.86384 -0.15918,0 -0.28821,0.12895 -0.28821,0.28823 0,0.15921 0.12907,0.28822 0.28821,0.28822 0.61734,0 1.18146,-0.23089 1.6117,-0.61022 0.16549,0.28304 0.25215,0.60258 0.25215,0.93687 0,0.73502 -0.43503,1.4034 -1.10827,1.70272 z"
         inkscape:connector-curvature="0" />
      <path
         style="fill:#687583;fill-opacity:1"
         id="path11"
         d="m 341.86865,544.76204 c -0.59705,0 -1.09733,-0.42123 -1.21995,-0.98204 1.19617,-0.1561 2.12306,-1.18098 2.12306,-2.419 0,-0.15921 -0.12909,-0.28821 -0.28824,-0.28821 -0.15917,0 -0.28822,0.12894 -0.28822,0.28821 0,1.02773 -0.83612,1.86385 -1.86384,1.86385 -0.50509,0 -0.97792,-0.19872 -1.33144,-0.55957 -0.11133,-0.11374 -0.29388,-0.11561 -0.40758,-0.004 -0.11374,0.11133 -0.11561,0.29386 -0.004,0.40757 0.39974,0.40802 0.91614,0.65728 1.47552,0.71777 0.13242,0.87732 0.89127,1.55202 1.80489,1.55202 0.15917,0 0.28823,-0.12894 0.28823,-0.28822 0,-0.15922 -0.12908,-0.28822 -0.28823,-0.28822 z"
         inkscape:connector-curvature="0" />
      <path
         style="fill:#687583;fill-opacity:1"
         id="path13"
         d="m 340.94634,548.14387 c -0.11106,0 -0.22022,0.008 -0.3274,0.0226 2.4e-4,-0.014 7.4e-4,-0.0279 7.4e-4,-0.0417 0,-1.34558 -1.09471,-2.44031 -2.4403,-2.44031 -0.15919,0 -0.28822,0.12895 -0.28822,0.28823 0,0.15923 0.12907,0.28823 0.28822,0.28823 1.02773,0 1.86385,0.83611 1.86385,1.86385 0,0.0658 -0.004,0.13202 -0.0106,0.19725 -0.89422,0.36241 -1.52686,1.2396 -1.52686,2.26225 0,0.15922 0.12909,0.28822 0.28823,0.28822 0.15918,0 0.28823,-0.12895 0.28823,-0.28822 0,-1.02772 0.83611,-1.86383 1.86384,-1.86383 0.15917,0 0.28823,-0.12895 0.28823,-0.28823 0,-0.15923 -0.12909,-0.28824 -0.28823,-0.28824 z"
         inkscape:connector-curvature="0" />
    </g>
  </g>
</svg>
