<?xml version="1.0" encoding="UTF-8" standalone="no"?>
<!-- Created with Inkscape (http://www.inkscape.org/) -->

<svg
   xmlns:dc="http://purl.org/dc/elements/1.1/"
   xmlns:cc="http://creativecommons.org/ns#"
   xmlns:rdf="http://www.w3.org/1999/02/22-rdf-syntax-ns#"
   xmlns:svg="http://www.w3.org/2000/svg"
   xmlns="http://www.w3.org/2000/svg"
   xmlns:sodipodi="http://sodipodi.sourceforge.net/DTD/sodipodi-0.dtd"
   xmlns:inkscape="http://www.inkscape.org/namespaces/inkscape"
   width="22"
   version="1.1"
   height="22"
   id="svg2"
   inkscape:version="0.91 r13725"
   sodipodi:docname="application-vnd.ms-powerpoint.template.macroenabled.12.svg">
  <sodipodi:namedview
     pagecolor="#ffffff"
     bordercolor="#666666"
     borderopacity="1"
     objecttolerance="10"
     gridtolerance="10"
     guidetolerance="10"
     inkscape:pageopacity="0"
     inkscape:pageshadow="2"
     inkscape:window-width="1360"
     inkscape:window-height="708"
     id="namedview12"
     showgrid="false"
     inkscape:zoom="11.501494"
     inkscape:cx="1.7619365"
     inkscape:cy="7.9898721"
     inkscape:window-x="0"
     inkscape:window-y="0"
     inkscape:window-maximized="1"
     inkscape:current-layer="layer1" />
  <defs
     id="defs3871" />
  <metadata
     id="metadata3874">
    <rdf:RDF>
      <cc:Work
         rdf:about="">
        <dc:format>image/svg+xml</dc:format>
        <dc:type
           rdf:resource="http://purl.org/dc/dcmitype/StillImage" />
      </cc:Work>
    </rdf:RDF>
  </metadata>
  <g
     inkscape:label="Capa 1"
     inkscape:groupmode="layer"
     id="layer1"
     transform="matrix(1 0 0 1 -326 -534.3622)">
    <path
       inkscape:connector-curvature="0"
       style="color:#000000;color-interpolation:sRGB;color-interpolation-filters:linearRGB;fill:#662d0e;color-rendering:auto;image-rendering:auto;shape-rendering:auto;text-rendering:auto;fill-opacity:1"
       d="m 330.33398,537.3622 c -0.73866,0 -1.33398,0.59538 -1.33398,1.33398 l 0,13.33204 c 0,0.7386 0.59532,1.33398 1.33398,1.33398 l 13.33204,0 c 0.73866,0 1.33398,-0.59538 1.33398,-1.33398 l 0,-13.33204 c 0,-0.7386 -0.59532,-1.33398 -1.33398,-1.33398 l -13.33204,0 z m -0.33398,1 14,0 0,14 -14,0 0,-14 z m 8,1 0,5 5,0 a 5,5 0 0 0 -5,-5 z m -1,1 a 5,5 0 0 0 -5,5 5,5 0 0 0 5,5 5,5 0 0 0 5,-5 l -1,0 -4,0 0,-4 0,-1 z m -1,1.13086 0,4.86914 1,0 3.86719,0 a 4,4 0 0 1 -3.86719,3 4,4 0 0 1 -4,-4 4,4 0 0 1 3,-3.86914 z"
       id="path4" />
  </g>
</svg>
