<?xml version="1.0" encoding="UTF-8" standalone="no"?>

<!-- Created with Inkscape (http://www.inkscape.org/) -->
<svg width="22" version="1.1" xmlns="http://www.w3.org/2000/svg" height="22" xmlns:inkscape="http://www.inkscape.org/namespaces/inkscape">
 <defs id="defs3871"/>
 <metadata id="metadata3874"/>
 <g inkscape:label="Capa 1" inkscape:groupmode="layer" id="layer1" transform="matrix(1 0 0 1 -326 -534.3622)">
  <path style="fill:#f27935;stroke-linecap:square;stroke-width:2" id="path4155" d="M 10.492188 3 A 0.5 0.5 0 0 0 10.146484 3.1464844 A 0.5 0.5 0 0 0 10.146484 3.8535156 L 14.363281 8.0703125 A 5.5 5.5 0 0 0 13.5 8 L 3.5 8 A 0.5 0.5 0 0 0 3 8.5 A 0.5 0.5 0 0 0 3.5 9 L 10.34375 9 A 5.5 5.5 0 0 0 9.140625 10.154297 L 3.1464844 16.146484 A 0.50002409 0.5 0 0 0 3.1464844 16.853516 A 0.50002409 0.5 0 0 0 3.8535156 16.853516 L 8.0703125 12.638672 A 5.5 5.5 0 0 0 8 13.5 A 5.5 5.5 0 0 0 13.5 19 A 5.5 5.5 0 0 0 19 13.5 A 5.5 5.5 0 0 0 16.841797 9.1367188 L 10.853516 3.1464844 A 0.5 0.5 0 0 0 10.492188 3 z M 13.5 9 A 4.5 4.5 0 0 1 18 13.5 A 4.5 4.5 0 0 1 13.5 18 A 4.5 4.5 0 0 1 9 13.5 A 4.5 4.5 0 0 1 13.5 9 z " transform="matrix(1 0 0 1 326 534.3622)"/>
  <circle cx="339.5" cy="547.86218" style="fill:#f27935;stroke-linecap:square;stroke-width:2" id="path4160" r="1.5"/>
 </g>
</svg>
