<svg height="22" width="22" xmlns="http://www.w3.org/2000/svg"><g fill="#f59e16" transform="translate(-326 -534.3622)"><path d="m335.66602 537.3622c-1.47735 0-2.66602 1.18867-2.66602 2.66602h4v1.33398h-4-1.33398c-1.47734 0-2.66602 1.18868-2.66602 2.66602v2.66796c0 1.47734 1.18868 2.66602 2.66602 2.66602v-1.33398c0-1.18494.52051-2.23366 1.33398-2.96485.0009-.00081.001-.003.002-.004.17619-.15809.36677-.29968.56836-.42578.002-.001.004-.003.006-.004.19855-.12382.4073-.22833.62695-.31642.0396-.0155.0829-.0248.12305-.0391.18662-.0679.37546-.1306.57422-.16992.24828-.0479.50296-.0762.76563-.0762h1.33379 4v-4c0-1.47735-1.18867-2.66602-2.66602-2.66602zm0 .66602c.36933 0 .66796.29863.66796.66796 0 .36934-.29863.66602-.66796.66602-.36934 0-.66602-.29668-.66602-.66602 0-.36933.29668-.66796.66602-.66796z" stroke-width="1.333333"/><g transform="translate(326 534.3622)"><path d="m16 11-2 2 .707031.707031 1.292969-1.292969v5.585938h-2v1h5v-1h-2v-7z"/><path d="m10.5 11c-.70317 0-1.3951544.358986-1.8339844 1.041016-.43884.68202-.6660156 1.649284-.6660156 2.958984 0 1.30969.2271756 2.276964.6660156 2.958984.43883.68203 1.1308044 1.041016 1.8339844 1.041016s1.395154-.358986 1.833984-1.041016c.43884-.68202.666016-1.649294.666016-2.958984 0-1.3097-.227176-2.276964-.666016-2.958984-.43883-.68203-1.130814-1.041016-1.833984-1.041016zm0 1c.4014 0 .709121.141014.994141.583984.083555.129862.157985.298314.226562.488282l-2.6835936 2.683593c-.0217222-.232689-.0371094-.480337-.0371094-.755859 0-1.19031.2208394-1.973036.5058594-2.416016.28502-.44297.5927406-.583984.9941406-.583984zm1.462891 2.244141c.021722.23269.037109.480334.037109.755859 0 1.1903-.220839 1.973036-.505859 2.416016-.28502.44297-.592751.583984-.994141.583984s-.7091206-.141014-.9941406-.583984c-.0835552-.129862-.1579855-.298313-.2265625-.488282z"/></g></g></svg>