<?xml version="1.0" encoding="UTF-8" standalone="no"?>

<!-- Created with Inkscape (http://www.inkscape.org/) -->
<svg width="22" version="1.1" xmlns="http://www.w3.org/2000/svg" height="22" xmlns:inkscape="http://www.inkscape.org/namespaces/inkscape">
 <defs id="defs3871"/>
 <metadata id="metadata3874"/>
 <g inkscape:label="Capa 1" inkscape:groupmode="layer" id="layer1" transform="matrix(1 0 0 1 -326 -534.3622)">
  <rect width="0" x="326.49567" y="535.98694" height="10.999983" style="fill:#6c7a89" id="rect4035"/>
  <rect width="0" x="321.94366" y="538.50604" height="10.999983" style="fill:#6c7a89" id="rect4035-7"/>
  <rect width="0" x="317.43588" y="526.08746" height="10.999983" style="fill:#6c7a89" id="rect4035-9"/>
  <path inkscape:connector-curvature="0" style="fill:#6c7a89" id="rect4138" d="m 329,537.3622 0,4 0,11 0,1 10,0 6,0 0,-1 0,-5 0,-6 0,-4 -16,0 z m 1,4 14,0 0,6 0,5 -5,0 -9,0 0,-11 z"/>
  <path inkscape:connector-curvature="0" style="fill:#6c7a89;stroke-linecap:round;stroke-linejoin:round;stroke-width:2" id="rect4169-4" d="m 336.9995,542.3622 c -0.83305,0 -1.61102,0.25574 -2.15908,0.73537 C 334.29225,543.5772 334,544.25818 334,544.98718 l 1.71383,0 c 0,-0.39586 0.13665,-0.6525 0.33838,-0.8289 0.20159,-0.17672 0.49525,-0.2961 0.94729,-0.2961 0.45287,0 0.7457,0.1194 0.94782,0.2961 0.20184,0.1764 0.33785,0.43304 0.33785,0.8289 0,0.3438 -0.076,0.49004 -0.18053,0.61969 -0.4469,0.39461 -0.98704,0.73165 -1.42122,1.05465 -0.49028,0.32186 -0.96904,0.74396 -0.96904,1.32568 l 0,0.37498 1.71403,0 0,-0.37498 c 0.60947,-0.54572 1.51702,-1.02166 2.0825,-1.522 0.29841,-0.37423 0.48909,-0.88402 0.48909,-1.47828 0,-0.729 -0.29241,-1.40972 -0.84025,-1.88935 -0.54823,-0.47963 -1.32672,-0.73537 -2.1599,-0.73537 z m -1.28512,7.50028 0,1.49972 1.71403,0 0,-1.49972 z"/>
 </g>
</svg>
