<?xml version="1.0" encoding="UTF-8" standalone="no"?>

<!-- Created with Inkscape (http://www.inkscape.org/) -->
<svg width="22" version="1.1" xmlns="http://www.w3.org/2000/svg" height="22" xmlns:xlink="http://www.w3.org/1999/xlink" xmlns:inkscape="http://www.inkscape.org/namespaces/inkscape">
 <defs id="defs3871">
  <linearGradient inkscape:collect="always" id="linearGradient4300-8">
   <stop style="stop-color:#f27935" id="stop4302-5"/>
   <stop offset="1" style="stop-color:#f2784b" id="stop4304-7"/>
  </linearGradient>
  <linearGradient inkscape:collect="always" xlink:href="#linearGradient4351" id="linearGradient4357" y1="61" y2="47" x2="0" gradientUnits="userSpaceOnUse"/>
  <linearGradient inkscape:collect="always" id="linearGradient4410">
   <stop style="stop-color:#383e51" id="stop4412"/>
   <stop offset="1" style="stop-color:#655c6f;stop-opacity:0" id="stop4414"/>
  </linearGradient>
  <linearGradient inkscape:collect="always" xlink:href="#linearGradient4410" id="linearGradient4427" y1="31" x1="54" y2="17" x2="40" gradientUnits="userSpaceOnUse" gradientTransform="matrix(1 0 0 -1 -14 78)"/>
  <linearGradient inkscape:collect="always" xlink:href="#linearGradient4300-8" id="linearGradient4306" y1="61" y2="3" x2="0" gradientUnits="userSpaceOnUse"/>
  <linearGradient inkscape:collect="always" id="linearGradient4351">
   <stop style="stop-color:#f7ab89" id="stop4353"/>
   <stop offset="1" style="stop-color:#f9bda3" id="stop4355"/>
  </linearGradient>
  <linearGradient inkscape:collect="always" id="linearGradient3444" xlink:href="#linearGradient4410" y1="31" y2="17" x1="54" x2="40" gradientUnits="userSpaceOnUse" gradientTransform="matrix(1 0 0 -1 503.93261 656.69754)"/>
  <linearGradient inkscape:collect="always" id="linearGradient3447" xlink:href="#linearGradient4351" y1="61" y2="47" x2="0" gradientUnits="userSpaceOnUse" gradientTransform="matrix(1 0 0 1 517.93261 578.69754)"/>
  <linearGradient inkscape:collect="always" id="linearGradient3452" xlink:href="#linearGradient4300-8" y1="61" y2="3" x2="0" gradientUnits="userSpaceOnUse" gradientTransform="matrix(1 0 0 1 517.93261 578.69754)"/>
 </defs>
 <metadata id="metadata3874"/>
 <g inkscape:label="Capa 1" inkscape:groupmode="layer" id="layer1" transform="matrix(1 0 0 1 -326 -534.3622)">
  <rect width="0" x="273.38181" y="518.47876" height="14.668059" style="fill:#8e44ad" id="rect4035"/>
  <rect width="0" x="280.34238" y="541.04938" height="14.668059" style="fill:#8e44ad" id="rect4035-8"/>
  <rect width="0" x="282.15567" y="539.98865" height="14.668059" style="fill:#8e44ad" id="rect4035-0"/>
  <path inkscape:label="Capa 1" inkscape:connector-curvature="0" style="fill:#22a7f0" id="rect4274" d="M 3,3 3,4 19,4 19,3 3,3 Z M 9,5.6660156 9,6.6914062 13.287109,12.333984 9,17.462891 9,19 l 10,0 0,-4 -0.564453,0 c 0,0.7404 0.0016,1.495983 -0.648438,1.939453 -0.71255,0.48653 -1.651312,0.578125 -2.476562,0.578125 l -3.929688,0 3.808594,-5.183594 -3.808594,-5.927734 2.238282,0 c 1.58788,0 3.848262,-0.1428494 4.476562,1.7128906 C 18.203113,8.4359406 18.273751,9.66706 18.300781,10 L 19,10 l 0,-4.3339844 -10,0 z M 3,7 3,8 8,8 8,7 3,7 Z m 0,3 0,1 7,0 0,-1 -7,0 z m 0,3 0,1 7,0 0,-1 -7,0 z m 0,3 0,1 5,0 0,-1 -5,0 z" transform="matrix(1 0 0 1 326 534.3622)"/>
 </g>
</svg>
