<?xml version="1.0" encoding="UTF-8" standalone="no"?>

<!-- Created with Inkscape (http://www.inkscape.org/) -->
<svg width="22" version="1.1" xmlns="http://www.w3.org/2000/svg" height="22" xmlns:inkscape="http://www.inkscape.org/namespaces/inkscape">
 <defs id="defs3871"/>
 <metadata id="metadata3874"/>
 <g inkscape:label="Capa 1" inkscape:groupmode="layer" id="layer1" transform="matrix(1 0 0 1 -326 -534.3622)">
  <rect width="0" x="326.49567" y="535.98694" height="10.999983" style="fill:#6c7a89" id="rect4035"/>
  <rect width="0" x="321.94366" y="538.50604" height="10.999983" style="fill:#6c7a89" id="rect4035-7"/>
  <rect width="0" x="317.43588" y="526.08746" height="10.999983" style="fill:#6c7a89" id="rect4035-9"/>
  <rect width="0" x="318.27991" y="538.32489" height="10.999983" style="fill:#e00a5e" id="rect4035-96"/>
  <rect width="0" x="313.72791" y="540.84399" height="10.999983" style="fill:#e00a5e" id="rect4035-7-0"/>
  <rect width="0" x="309.22012" y="528.42542" height="10.999983" style="fill:#e00a5e" id="rect4035-9-6"/>
  <path inkscape:connector-curvature="0" style="fill:#6c7a89" id="rect4112" d="m 329,537.3622 0,14 16,0 0,-14 -16,0 z m 1,1 14,0 0,12 -14,0 0,-12 z m 1,1 0,4 2,0 2,-2 0,-2 -4,0 z m 8.5,1 c -1.93899,0 -3.5,1.561 -3.5,3.5 0,1.939 1.56101,3.5 3.5,3.5 1.93899,0 3.5,-1.561 3.5,-3.5 0,-1.939 -1.56101,-3.5 -3.5,-3.5 z m 0,1 c 1.385,0 2.5,1.115 2.5,2.5 0,1.385 -1.115,2.5 -2.5,2.5 -1.385,0 -2.5,-1.115 -2.5,-2.5 0,-1.385 1.115,-2.5 2.5,-2.5 z m -4.5,1 -1,1 1,0 0,-1 z m 4,0 0,2 1,0 1,0 0,-1 -1,0 0,-1 -1,0 z m -8,4 0,2 2,0 1,1 0,-1 0.23633,0 0,-2 -3.23633,0 z m -2,6 0,1 16,0 0,-1 -16,0 z"/>
 </g>
</svg>
