<?xml version="1.0" encoding="UTF-8" standalone="no"?>
<!-- Created with Inkscape (http://www.inkscape.org/) -->

<svg
   xmlns:dc="http://purl.org/dc/elements/1.1/"
   xmlns:cc="http://creativecommons.org/ns#"
   xmlns:rdf="http://www.w3.org/1999/02/22-rdf-syntax-ns#"
   xmlns:svg="http://www.w3.org/2000/svg"
   xmlns="http://www.w3.org/2000/svg"
   xmlns:sodipodi="http://sodipodi.sourceforge.net/DTD/sodipodi-0.dtd"
   xmlns:inkscape="http://www.inkscape.org/namespaces/inkscape"
   width="22"
   version="1.1"
   height="22"
   id="svg2"
   inkscape:version="0.91 r13725"
   sodipodi:docname="application-x-rdata.svg">
  <sodipodi:namedview
     pagecolor="#ffffff"
     bordercolor="#666666"
     borderopacity="1"
     objecttolerance="10"
     gridtolerance="10"
     guidetolerance="10"
     inkscape:pageopacity="0"
     inkscape:pageshadow="2"
     inkscape:window-width="2560"
     inkscape:window-height="1375"
     id="namedview14"
     showgrid="false"
     inkscape:zoom="42.909091"
     inkscape:cx="12.200563"
     inkscape:cy="9.7100165"
     inkscape:window-x="0"
     inkscape:window-y="36"
     inkscape:window-maximized="1"
     inkscape:current-layer="layer1" />
  <defs
     id="defs3871" />
  <metadata
     id="metadata3874">
    <rdf:RDF>
      <cc:Work
         rdf:about="">
        <dc:format>image/svg+xml</dc:format>
        <dc:type
           rdf:resource="http://purl.org/dc/dcmitype/StillImage" />
        <dc:title></dc:title>
      </cc:Work>
    </rdf:RDF>
  </metadata>
  <g
     inkscape:label="Capa 1"
     inkscape:groupmode="layer"
     id="layer1"
     transform="matrix(1 0 0 1 -326 -534.3622)">
    <rect
       width="0"
       x="326.49567"
       y="535.98694"
       height="10.999983"
       style="fill:#22a7f0"
       id="rect4035" />
    <rect
       width="0"
       x="321.94366"
       y="538.50604"
       height="10.999983"
       style="fill:#22a7f0"
       id="rect4035-7" />
    <rect
       width="0"
       x="317.43588"
       y="526.08746"
       height="10.999983"
       style="fill:#22a7f0"
       id="rect4035-9" />
    <rect
       width="0"
       x="318.27991"
       y="538.32489"
       height="10.999983"
       style="fill:#22a7f0"
       id="rect4035-96" />
    <rect
       width="0"
       x="313.72791"
       y="540.84399"
       height="10.999983"
       style="fill:#22a7f0"
       id="rect4035-7-0" />
    <rect
       width="0"
       x="309.22012"
       y="528.42542"
       height="10.999983"
       style="fill:#22a7f0"
       id="rect4035-9-6" />
    <path
       inkscape:connector-curvature="0"
       style="opacity:1;fill:#2e6ea9;fill-opacity:1;fill-rule:evenodd"
       id="path20"
       d="m 343.99972,553.35943 -4.68373,0.003 -3.19186,-4.80759 c 0,0 -0.5139,-0.9006 -0.82988,-1.16211 -0.26342,-0.21765 -0.37603,-0.29556 -0.63673,-0.29556 l -0.59238,0 9.6e-4,6.25899 -4.0661,10e-4 0,-15.99519 8.85289,0 c 0,0 3.58769,0.67458 3.66072,4.29576 0.0812,4.03704 -3.46759,5.22485 -3.46759,5.22485 0.4866,0.20307 4.40119,5.54059 4.95398,6.47318 m -7.01911,-12.52493 -2.87452,-10e-4 -9.6e-4,2.71988 2.87589,-6.9e-4 c 0,0 1.33218,-0.004 1.33218,-1.38323 0,-1.40688 -1.33218,-1.33318 -1.33218,-1.33318" />
  </g>
</svg>
