<?xml version="1.0" encoding="UTF-8" standalone="no"?>
<!-- Created with Inkscape (http://www.inkscape.org/) -->

<svg
   xmlns:dc="http://purl.org/dc/elements/1.1/"
   xmlns:cc="http://creativecommons.org/ns#"
   xmlns:rdf="http://www.w3.org/1999/02/22-rdf-syntax-ns#"
   xmlns:svg="http://www.w3.org/2000/svg"
   xmlns="http://www.w3.org/2000/svg"
   xmlns:sodipodi="http://sodipodi.sourceforge.net/DTD/sodipodi-0.dtd"
   xmlns:inkscape="http://www.inkscape.org/namespaces/inkscape"
   width="22"
   version="1.1"
   height="22"
   id="svg2"
   inkscape:version="0.91 r13725"
   sodipodi:docname="application-x-zerosize.svg">
  <sodipodi:namedview
     pagecolor="#ffffff"
     bordercolor="#666666"
     borderopacity="1"
     objecttolerance="10"
     gridtolerance="10"
     guidetolerance="10"
     inkscape:pageopacity="0"
     inkscape:pageshadow="2"
     inkscape:window-width="709"
     inkscape:window-height="480"
     id="namedview11"
     showgrid="false"
     inkscape:zoom="10.727273"
     inkscape:cx="11"
     inkscape:cy="11"
     inkscape:window-x="0"
     inkscape:window-y="0"
     inkscape:window-maximized="0"
     inkscape:current-layer="layer1" />
  <defs
     id="defs3871" />
  <metadata
     id="metadata3874">
    <rdf:RDF>
      <cc:Work
         rdf:about="">
        <dc:format>image/svg+xml</dc:format>
        <dc:type
           rdf:resource="http://purl.org/dc/dcmitype/StillImage" />
      </cc:Work>
    </rdf:RDF>
  </metadata>
  <g
     inkscape:label="Capa 1"
     inkscape:groupmode="layer"
     id="layer1"
     transform="matrix(1 0 0 1 -326 -534.3622)">
    <rect
       width="0"
       x="318.27991"
       y="-552.39954"
       height="10.999983"
       style="fill:#f62459"
       id="rect4035"
       transform="scale(1,-1)" />
    <rect
       width="0"
       x="313.72791"
       y="-549.88043"
       height="10.999983"
       style="fill:#8e44ad"
       id="rect4035-7"
       transform="scale(1,-1)" />
    <rect
       width="0"
       x="309.22012"
       y="-562.29901"
       height="10.999983"
       style="fill:#f62459"
       id="rect4035-9"
       transform="scale(1,-1)" />
    <path
       inkscape:connector-curvature="0"
       style="fill:#6c7a89"
       id="rect4139"
       d="m 329.9999,553.3621 0,-16 1,0 8,0 1,0 0,0.01 0.008,-0.01 3.99219,3.9922 0,0.008 0,1.40625 0,10.59375 -1,0 -12,0 -1,0 z m 1,-1 12,0 0,-10 -4,0 0,-1 0,-3 -8,0 0,14 z" />
  </g>
</svg>
