<?xml version="1.0" encoding="UTF-8" standalone="no"?>

<!-- Created with Inkscape (http://www.inkscape.org/) -->
<svg width="22" version="1.1" xmlns="http://www.w3.org/2000/svg" height="22" xmlns:inkscape="http://www.inkscape.org/namespaces/inkscape">
 <defs id="defs3871"/>
 <metadata id="metadata3874"/>
 <g inkscape:label="Capa 1" inkscape:groupmode="layer" id="layer1" transform="matrix(1 0 0 1 -326 -534.3622)">
  <path inkscape:label="Capa 1" inkscape:connector-curvature="0" style="fill:#f62459" id="rect4145" d="m 5,3 0,1 0,4 -2,0 0,1 0,7 1,0 3,0 0,2 0,1 8,0 0,-1 0,-2 4,0 0,-1 L 19,9 19,8 17,8 17,4 17,3 5,3 Z M 6,4 16,4 16,8 15,8 15,7 7,7 7,8 6,8 6,4 Z m 1,1 0,1 8,0 0,-1 -8,0 z m -3,4 14,0 0,6 -2,0 0,-2 -10,0 0,2 -2,0 0,-6 z m 10,1 0,1 3,0 0,-1 -3,0 z m -6,6 6,0 0,2 -6,0 0,-2 z" transform="matrix(1 0 0 1 326 534.3622)"/>
  <rect width="0" x="318.27991" y="538.32489" height="10.999983" style="fill:#f62459" id="rect4035"/>
 </g>
</svg>
