<?xml version="1.0" encoding="UTF-8" standalone="no"?>

<!-- Created with Inkscape (http://www.inkscape.org/) -->
<svg width="22" version="1.1" xmlns="http://www.w3.org/2000/svg" height="22" xmlns:inkscape="http://www.inkscape.org/namespaces/inkscape">
 <defs id="defs3871"/>
 <metadata id="metadata3874"/>
 <g inkscape:label="Capa 1" inkscape:groupmode="layer" id="layer1" transform="matrix(1 0 0 1 -326 -534.3622)">
  <rect width="0" x="326.49567" y="535.98694" height="10.999983" style="fill:#f27935" id="rect4035"/>
  <rect width="0" x="321.94366" y="538.50604" height="10.999983" style="fill:#f27935" id="rect4035-7"/>
  <rect width="0" x="317.43588" y="526.08746" height="10.999983" style="fill:#f27935" id="rect4035-9"/>
  <rect width="0" x="318.27991" y="538.32489" height="10.999983" style="fill:#f27935" id="rect4035-96"/>
  <rect width="0" x="313.72791" y="540.84399" height="10.999983" style="fill:#f27935" id="rect4035-7-0"/>
  <rect width="0" x="309.22012" y="528.42542" height="10.999983" style="fill:#f27935" id="rect4035-9-6"/>
  <g inkscape:label="Capa 1" style="fill:#f27935" id="layer1-1" transform="matrix(1 0 0 1 -95.71429 8.57146)">
   <path inkscape:connector-curvature="0" style="color:#4d4d4d" id="rect3343" d="m 5,8 0,3 1,0 0,-1 4,0 0,1 1,0 0,-3 -1,0 0,1 L 6,9 6,8 5,8 Z m 6,6 0,3 1,0 0,-1 4,0 0,1 1,0 0,-3 -1,0 0,1 -4,0 0,-1 -1,0 z" transform="matrix(1 0 0 1 421.71429 525.79074)"/>
   <path inkscape:connector-curvature="0" style="color:#4d4d4d" id="rect3370" d="m 6,3 c 0,0 -1,-3e-5 -1,1 l -2,0 0,3 0,11 0,1 16,0 0,-1 0,-11 0,-3 -2,0 C 17,2.99997 16,3 16,3 l -3,0 c 0,0 -1,-3e-5 -1,1 L 10,4 C 10,2.99997 9,3 9,3 L 6,3 Z M 6,4 9,4 9,5 6,5 6,4 Z m 7,0 3,0 0,1 -3,0 0,-1 z M 4,7 18,7 18,18 4,18 4,7 Z" transform="matrix(1 0 0 1 421.71429 525.79074)"/>
  </g>
 </g>
</svg>
