<?xml version="1.0" encoding="UTF-8" standalone="no"?>
<!-- Created with Inkscape (http://www.inkscape.org/) -->

<svg
   xmlns:dc="http://purl.org/dc/elements/1.1/"
   xmlns:cc="http://creativecommons.org/ns#"
   xmlns:rdf="http://www.w3.org/1999/02/22-rdf-syntax-ns#"
   xmlns:svg="http://www.w3.org/2000/svg"
   xmlns="http://www.w3.org/2000/svg"
   xmlns:sodipodi="http://sodipodi.sourceforge.net/DTD/sodipodi-0.dtd"
   xmlns:inkscape="http://www.inkscape.org/namespaces/inkscape"
   width="22"
   version="1.1"
   height="22"
   id="svg2"
   inkscape:version="0.91 r13725"
   sodipodi:docname="application-x-flash-video.svg">
  <sodipodi:namedview
     pagecolor="#ffffff"
     bordercolor="#666666"
     borderopacity="1"
     objecttolerance="10"
     gridtolerance="10"
     guidetolerance="10"
     inkscape:pageopacity="0"
     inkscape:pageshadow="2"
     inkscape:window-width="640"
     inkscape:window-height="480"
     id="namedview20"
     showgrid="false"
     inkscape:zoom="4.0795455"
     inkscape:cx="-41.682768"
     inkscape:cy="21.732086"
     inkscape:current-layer="layer1" />
  <defs
     id="defs3871" />
  <metadata
     id="metadata3874">
    <rdf:RDF>
      <cc:Work
         rdf:about="">
        <dc:format>image/svg+xml</dc:format>
        <dc:type
           rdf:resource="http://purl.org/dc/dcmitype/StillImage" />
      </cc:Work>
    </rdf:RDF>
  </metadata>
  <g
     inkscape:label="Capa 1"
     inkscape:groupmode="layer"
     id="layer1"
     transform="matrix(1 0 0 1 -326 -534.3622)">
    <rect
       width="0"
       x="256.22556"
       y="514.69751"
       height="14.668059"
       style="fill:#e00a5e"
       id="rect4035" />
    <rect
       width="0"
       x="263.18613"
       y="537.26813"
       height="14.668059"
       style="fill:#e00a5e"
       id="rect4035-8" />
    <rect
       width="0"
       x="264.99942"
       y="536.2074"
       height="14.668059"
       style="fill:#e00a5e"
       id="rect4035-0" />
    <rect
       width="0"
       x="256.22556"
       y="514.69751"
       height="14.668059"
       style="fill:#e00a5e"
       id="rect4035-3" />
    <rect
       width="0"
       x="263.18613"
       y="537.26813"
       height="14.668059"
       style="fill:#e00a5e"
       id="rect4035-8-9" />
    <rect
       width="0"
       x="264.99942"
       y="536.2074"
       height="14.668059"
       style="fill:#e00a5e"
       id="rect4035-0-4" />
    <rect
       width="0"
       x="256.22556"
       y="514.69751"
       height="14.668059"
       style="fill:#e00a5e"
       id="rect4035-2" />
    <rect
       width="0"
       x="263.18613"
       y="537.26813"
       height="14.668059"
       style="fill:#e00a5e"
       id="rect4035-8-99" />
    <rect
       width="0"
       x="264.99942"
       y="536.2074"
       height="14.668059"
       style="fill:#e00a5e"
       id="rect4035-0-43" />
    <rect
       width="0"
       x="256.22556"
       y="514.69751"
       height="14.668059"
       style="fill:#e00a5e"
       id="rect4035-3-9" />
    <rect
       width="0"
       x="263.18613"
       y="537.26813"
       height="14.668059"
       style="fill:#e00a5e"
       id="rect4035-8-9-9" />
    <rect
       width="0"
       x="264.99942"
       y="536.2074"
       height="14.668059"
       style="fill:#e00a5e"
       id="rect4035-0-4-4" />
    <path
       inkscape:connector-curvature="0"
       style="fill:#db3333;color:#000000;clip-rule:nonzero;display:inline;overflow:visible;visibility:visible;opacity:1;isolation:auto;mix-blend-mode:normal;color-interpolation:sRGB;color-interpolation-filters:linearRGB;solid-color:#000000;solid-opacity:1;fill-opacity:1;fill-rule:nonzero;stroke-width:1;stroke-linecap:butt;stroke-linejoin:miter;stroke-miterlimit:4;stroke-dasharray:none;stroke-dashoffset:0;stroke-opacity:1;filter-blend-mode:normal;filter-gaussianBlur-deviation:0;color-rendering:auto;image-rendering:auto;shape-rendering:auto;text-rendering:auto;enable-background:accumulate"
       id="path3727-6"
       d="m 17.40625,3 c -1.168622,0.017013 -5.961949,0.5052905 -7.8808594,7.232422 -1.7390464,6.09679 -5.1778387,5.532724 -5.1816406,5.535156 0,0 -0.3461321,-0.0249 -0.34375,-0.02733 L 4,19 4.3457032,18.998 c 0.1806437,-0.03613 5.4051554,0.608366 7.7597658,-6.365235 l 4.228515,0 0,-3.2187495 -2.83789,0 c 0,0 0.822402,-3.1334531 4.169922,-3.1894531 0,0 0.340733,-0.00407 0.333984,-0.00586 L 18,3 l -0.34375,0 0,0.00586 C 17.64955,3.0053621 17.56692,2.99766 17.40625,3 Z"
       transform="matrix(1 0 0 1 326 534.3622)" />
  </g>
</svg>
