<?xml version="1.0" encoding="UTF-8" standalone="no"?>
<!-- Created with Inkscape (http://www.inkscape.org/) -->

<svg
   xmlns:dc="http://purl.org/dc/elements/1.1/"
   xmlns:cc="http://creativecommons.org/ns#"
   xmlns:rdf="http://www.w3.org/1999/02/22-rdf-syntax-ns#"
   xmlns:svg="http://www.w3.org/2000/svg"
   xmlns="http://www.w3.org/2000/svg"
   xmlns:sodipodi="http://sodipodi.sourceforge.net/DTD/sodipodi-0.dtd"
   xmlns:inkscape="http://www.inkscape.org/namespaces/inkscape"
   width="22"
   version="1.1"
   height="22"
   id="svg2"
   inkscape:version="0.91 r13725"
   sodipodi:docname="application-x-font-ttf.svg">
  <sodipodi:namedview
     pagecolor="#ffffff"
     bordercolor="#666666"
     borderopacity="1"
     objecttolerance="10"
     gridtolerance="10"
     guidetolerance="10"
     inkscape:pageopacity="0"
     inkscape:pageshadow="2"
     inkscape:window-width="910"
     inkscape:window-height="480"
     id="namedview13"
     showgrid="false"
     inkscape:zoom="10.727273"
     inkscape:cx="11"
     inkscape:cy="11"
     inkscape:window-x="0"
     inkscape:window-y="0"
     inkscape:window-maximized="0"
     inkscape:current-layer="layer1" />
  <defs
     id="defs3871" />
  <metadata
     id="metadata3874">
    <rdf:RDF>
      <cc:Work
         rdf:about="">
        <dc:format>image/svg+xml</dc:format>
        <dc:type
           rdf:resource="http://purl.org/dc/dcmitype/StillImage" />
      </cc:Work>
    </rdf:RDF>
  </metadata>
  <g
     inkscape:label="Capa 1"
     inkscape:groupmode="layer"
     id="layer1"
     transform="matrix(1 0 0 1 -326 -534.3622)">
    <rect
       width="0"
       x="273.38181"
       y="518.47876"
       height="14.668059"
       style="fill:#04896a"
       id="rect4035" />
    <rect
       width="0"
       x="280.34238"
       y="541.04938"
       height="14.668059"
       style="fill:#16907d"
       id="rect4035-8" />
    <rect
       width="0"
       x="282.15567"
       y="539.98865"
       height="14.668059"
       style="fill:#6c7a89"
       id="rect4035-0" />
    <g
       transform="matrix(1.3885788,0,0,1.3471415,325.89137,-861.62431)"
       id="layer1-2"
       inkscape:label="Capa 1">
      <rect
         y="1039.3622"
         x="-17"
         height="10.999983"
         width="0"
         id="rect4035-04"
         style="fill:#6c7a89;fill-opacity:1;stroke:none" />
      <path
         d="m 6.7511089,1048.9387 c -0.978627,0 -1.6458726,-0.4892 -1.4679404,-1.7347 0.2224151,-1.557 1.156559,-2.0686 4.1146816,-2.4912 0.02224,0 0.9341429,-0.1556 0.9341429,-0.1556 l -0.3781054,2.758 c -0.8006948,1.0008 -2.2463933,1.6235 -3.2027787,1.6235 z m 3.0470879,-0.1333 0.044479,1.2899 1.2677672,0 1.156559,-8.3406 c 0.355865,-2.5355 -1.089835,-3.2695 -3.1138132,-3.2695 -1.4456985,0 -2.8691559,0.4226 -3.7143337,0.912 l 0.2446567,1.3789 c 0.9119024,-0.4448 2.1574275,-0.7561 3.2917451,-0.7561 1.4012161,0 1.9127701,0.6894 1.7348391,2.0239 l -0.200174,1.2678 -1.0453519,0.1334 c -2.6912238,0.4226 -5.3157233,0.8452 -5.7383122,3.8255 -0.3113813,2.1352 0.9563854,3.0916 2.6467411,3.0916 1.0675928,0 2.3798431,-0.4003 3.4251938,-1.5568 z"
         style="font-style:italic;font-variant:normal;font-weight:normal;font-stretch:normal;font-size:medium;line-height:125%;font-family:Oxygen;-inkscape-font-specification:'Oxygen Italic';letter-spacing:0px;word-spacing:0px;fill:#6c7a89;fill-opacity:1;stroke:none"
         id="path4124"
         inkscape:connector-curvature="0" />
    </g>
  </g>
</svg>
