<?xml version="1.0" encoding="UTF-8" standalone="no"?>

<!-- Created with Inkscape (http://www.inkscape.org/) -->
<svg width="22" version="1.1" xmlns="http://www.w3.org/2000/svg" height="22" xmlns:inkscape="http://www.inkscape.org/namespaces/inkscape">
 <defs id="defs3871"/>
 <metadata id="metadata3874"/>
 <g inkscape:label="Capa 1" inkscape:groupmode="layer" id="layer1" transform="matrix(1 0 0 1 -326 -534.3622)">
  <rect width="0" x="326.49567" y="535.98694" height="10.999983" style="fill:#22a7f0" id="rect4035"/>
  <rect width="0" x="321.94366" y="538.50604" height="10.999983" style="fill:#22a7f0" id="rect4035-7"/>
  <rect width="0" x="317.43588" y="526.08746" height="10.999983" style="fill:#22a7f0" id="rect4035-9"/>
  <rect width="0" x="318.27991" y="538.32489" height="10.999983" style="fill:#22a7f0" id="rect4035-96"/>
  <rect width="0" x="313.72791" y="540.84399" height="10.999983" style="fill:#22a7f0" id="rect4035-7-0"/>
  <rect width="0" x="309.22012" y="528.42542" height="10.999983" style="fill:#22a7f0" id="rect4035-9-6"/>
  <path style="fill:#22a7f0" id="rect4112" d="M 3 3 L 3 17 L 3 18 L 3 19 L 19 19 L 19 18 L 19 17 L 19 3 L 3 3 z M 4 4 L 17 4 L 18 4 L 18 16 L 17 16 L 4 16 L 4 4 z M 4 17 L 18 17 L 18 18 L 4 18 L 4 17 z " transform="matrix(1 0 0 1 326 534.3622)"/>
  <path style="fill:#22a7f0;stroke-width:2" id="rect5258-8" d="M 6 5 L 6 9 L 10 9 L 10 5 L 6 5 z M 12 5 L 12 9 L 16 9 L 16 5 L 12 5 z M 6 11 L 6 15 L 10 15 L 10 11 L 6 11 z M 12 11 L 12 15 L 16 15 L 16 11 L 12 11 z " transform="matrix(1 0 0 1 326 534.3622)"/>
 </g>
</svg>
