<?xml version="1.0" encoding="UTF-8" standalone="no"?>
<!-- Created with Inkscape (http://www.inkscape.org/) -->

<svg
   xmlns:dc="http://purl.org/dc/elements/1.1/"
   xmlns:cc="http://creativecommons.org/ns#"
   xmlns:rdf="http://www.w3.org/1999/02/22-rdf-syntax-ns#"
   xmlns:svg="http://www.w3.org/2000/svg"
   xmlns="http://www.w3.org/2000/svg"
   xmlns:sodipodi="http://sodipodi.sourceforge.net/DTD/sodipodi-0.dtd"
   xmlns:inkscape="http://www.inkscape.org/namespaces/inkscape"
   width="22"
   version="1.1"
   height="22"
   id="svg2"
   inkscape:version="0.91 r13725"
   sodipodi:docname="image-vnd.djvu.svg">
  <sodipodi:namedview
     pagecolor="#ffffff"
     bordercolor="#666666"
     borderopacity="1"
     objecttolerance="10"
     gridtolerance="10"
     guidetolerance="10"
     inkscape:pageopacity="0"
     inkscape:pageshadow="2"
     inkscape:window-width="1920"
     inkscape:window-height="1017"
     id="namedview11"
     showgrid="true"
     inkscape:zoom="15.170655"
     inkscape:cx="12.021188"
     inkscape:cy="3.4513757"
     inkscape:window-x="0"
     inkscape:window-y="0"
     inkscape:window-maximized="1"
     inkscape:current-layer="layer1">
    <inkscape:grid
       type="xygrid"
       id="grid4139" />
  </sodipodi:namedview>
  <defs
     id="defs3871" />
  <metadata
     id="metadata3874">
    <rdf:RDF>
      <cc:Work
         rdf:about="">
        <dc:format>image/svg+xml</dc:format>
        <dc:type
           rdf:resource="http://purl.org/dc/dcmitype/StillImage" />
        <dc:title></dc:title>
      </cc:Work>
    </rdf:RDF>
  </metadata>
  <g
     inkscape:label="Capa 1"
     inkscape:groupmode="layer"
     id="layer1"
     transform="matrix(1 0 0 1 -326 -534.3622)">
    <rect
       width="0"
       x="273.38181"
       y="518.47876"
       height="14.668059"
       style="fill:#8e44ad"
       id="rect4035" />
    <rect
       width="0"
       x="280.34238"
       y="541.04938"
       height="14.668059"
       style="fill:#8e44ad"
       id="rect4035-8" />
    <rect
       width="0"
       x="282.15567"
       y="539.98865"
       height="14.668059"
       style="fill:#8e44ad"
       id="rect4035-0" />
    <path
       inkscape:connector-curvature="0"
       style="opacity:1;fill:#f9b425;fill-opacity:1;stroke:none"
       d="m 329,537.3622 0,2 0,1 0,13 1,0 8,0 2,0 2,0 2,0 1,0 0,-3 0,-2 0,-9 0,-2 -1,0 0,1 -2,0 0,-1 -1,0 0,1 -2,0 0,-1 -1,0 0,1 -2,0 0,-1 -1,0 0,1 -2,0 0,-1 -1,0 0,1 -2,0 0,-1 -1,0 z m 1,3 14,0 0,1 0,1 0,1 0,1 0,5 0,2 0,1 -1,0 -2,0 -3,0 -8,0 0,-8 0,-1 0,-1 0,-1 0,-1 z m 2,2 0,1 10,0 0,-1 -10,0 z m 0,3 0,1 6,0 0,-1 -6,0 z m 0,3 0,1 8,0 0,-1 -8,0 z m 8,2 0,1 2,0 0,-1 -2,0 z"
       id="rect4108"
       class="ColorScheme-Text" />
  </g>
</svg>
