<?xml version="1.0" encoding="UTF-8" standalone="no"?>
<!-- Created with Inkscape (http://www.inkscape.org/) -->

<svg
   xmlns:dc="http://purl.org/dc/elements/1.1/"
   xmlns:cc="http://creativecommons.org/ns#"
   xmlns:rdf="http://www.w3.org/1999/02/22-rdf-syntax-ns#"
   xmlns:svg="http://www.w3.org/2000/svg"
   xmlns="http://www.w3.org/2000/svg"
   xmlns:xlink="http://www.w3.org/1999/xlink"
   xmlns:sodipodi="http://sodipodi.sourceforge.net/DTD/sodipodi-0.dtd"
   xmlns:inkscape="http://www.inkscape.org/namespaces/inkscape"
   width="22"
   version="1.1"
   height="22"
   id="svg2"
   inkscape:version="0.91 r13725"
   sodipodi:docname="image-png.svg">
  <sodipodi:namedview
     pagecolor="#ffffff"
     bordercolor="#666666"
     borderopacity="1"
     objecttolerance="10"
     gridtolerance="10"
     guidetolerance="10"
     inkscape:pageopacity="0"
     inkscape:pageshadow="2"
     inkscape:window-width="640"
     inkscape:window-height="480"
     id="namedview14"
     showgrid="false"
     inkscape:snap-bbox="true"
     inkscape:bbox-nodes="true"
     inkscape:zoom="4"
     inkscape:cx="-24.181532"
     inkscape:cy="14.794645"
     inkscape:current-layer="layer1"
     inkscape:snap-global="true">
    <inkscape:grid
       type="xygrid"
       id="grid4178" />
  </sodipodi:namedview>
  <defs
     id="defs3871">
    <linearGradient
       id="linearGradient4351">
      <stop
         id="stop4353"
         style="stop-color:#ffd6af" />
      <stop
         id="stop4355"
         style="stop-color:#fffcf9"
         offset="1" />
    </linearGradient>
    <linearGradient
       id="linearGradient4300-8">
      <stop
         id="stop4302-2"
         style="stop-color:#f62459" />
      <stop
         id="stop4304-9"
         style="stop-color:#f73768"
         offset="1" />
    </linearGradient>
    <linearGradient
       id="linearGradient4351-4">
      <stop
         id="stop4353-7"
         style="stop-color:#ffd6af" />
      <stop
         id="stop4355-0"
         style="stop-color:#ffecdb"
         offset="1" />
    </linearGradient>
    <linearGradient
       inkscape:collect="always"
       id="linearGradient6251">
      <stop
         style="stop-color:#ffffff;stop-opacity:0"
         offset="0"
         id="stop6253" />
      <stop
         style="stop-color:#ffffff;stop-opacity:0.2"
         offset="1"
         id="stop6255" />
    </linearGradient>
    <linearGradient
       inkscape:collect="always"
       xlink:href="#linearGradient6251"
       id="linearGradient7159-3"
       gradientUnits="userSpaceOnUse"
       x1="58"
       y1="392.36221"
       x2="58"
       y2="336.36221"
       gradientTransform="translate(-58,-335.3622)" />
    <linearGradient
       inkscape:collect="always"
       xlink:href="#linearGradient6251"
       id="linearGradient5174-3"
       gradientUnits="userSpaceOnUse"
       gradientTransform="matrix(0.50000005,0,0,0.42293673,-19,-141.86733)"
       x1="58"
       y1="392.36221"
       x2="58"
       y2="320.47919" />
  </defs>
  <metadata
     id="metadata3874">
    <rdf:RDF>
      <cc:Work
         rdf:about="">
        <dc:format>image/svg+xml</dc:format>
        <dc:type
           rdf:resource="http://purl.org/dc/dcmitype/StillImage" />
      </cc:Work>
    </rdf:RDF>
  </metadata>
  <g
     inkscape:label="Capa 1"
     inkscape:groupmode="layer"
     id="layer1"
     transform="matrix(1 0 0 1 -326 -534.3622)">
    <rect
       width="0"
       x="326.49567"
       y="535.98694"
       height="10.999983"
       style="fill:#f27935"
       id="rect4035" />
    <rect
       width="0"
       x="321.94366"
       y="538.50604"
       height="10.999983"
       style="fill:#f27935"
       id="rect4035-7" />
    <rect
       width="0"
       x="317.43588"
       y="526.08746"
       height="10.999983"
       style="fill:#f27935"
       id="rect4035-9" />
    <rect
       width="0"
       x="318.27991"
       y="538.32489"
       height="10.999983"
       style="fill:#f27935"
       id="rect4035-96" />
    <rect
       width="0"
       x="313.72791"
       y="540.84399"
       height="10.999983"
       style="fill:#f27935"
       id="rect4035-7-0" />
    <rect
       width="0"
       x="309.22012"
       y="528.42542"
       height="10.999983"
       style="fill:#f27935"
       id="rect4035-9-6" />
    <path
       style="color:#000000;clip-rule:nonzero;display:inline;overflow:visible;visibility:visible;opacity:1;isolation:auto;mix-blend-mode:normal;color-interpolation:sRGB;color-interpolation-filters:linearRGB;solid-color:#000000;solid-opacity:1;fill:#8542c2;fill-opacity:1;fill-rule:nonzero;stroke:none;stroke-width:1;stroke-linecap:butt;stroke-linejoin:miter;stroke-miterlimit:4;stroke-dasharray:none;stroke-dashoffset:0;stroke-opacity:1;marker:none;color-rendering:auto;image-rendering:auto;shape-rendering:auto;text-rendering:auto;enable-background:accumulate;filter-blend-mode:normal;filter-gaussianBlur-deviation:0"
       d="m 329,539.3622 0,1 0,0.5 0,1.5 0,0.20508 0,0.29297 0,7.30273 0,0.19922 0,1 0,0.41992 0,0.58008 16,0 0,-0.6875 0,-0.3125 0,-12 -1,0 -11,0 -0.50391,0 -0.45703,0 -1.53906,0 -0.5,0 -1,0 z m 1,1 1.91211,0 a 1.500001,1.500001 0 0 1 0.0879,0.5 1.500001,1.500001 0 0 1 -1.5,1.5 1.500001,1.500001 0 0 1 -0.5,-0.0879 l 0,-1.91211 z m 2.94727,0 0.0527,0 11,0 0,11 -14,0 0,-0.0723 0,-0.0879 0,-0.62304 2.32617,-2.29883 1.4082,-1.4043 1.56446,1.41797 1.10156,1.06836 3.59961,-3.39844 3,2.89063 0,-1.49219 -3,-3 -3.59961,3.59961 -2.59961,-2.59961 -3.80078,3.80078 0,-5.85351 a 2.5000029,2.5000029 0 0 0 0.5,0.0527 2.5000029,2.5000029 0 0 0 2.5,-2.5 2.5000029,2.5000029 0 0 0 -0.0527,-0.5 z"
       id="path4251"
       inkscape:connector-curvature="0" />
    <rect
       width="0"
       x="280.32077"
       y="577.86218"
       height="10.999983"
       style="fill:#ffffff"
       id="rect4035-75" />
    <rect
       width="0"
       x="280"
       y="576.86218"
       height="10.999983"
       style="fill:#ffffff"
       id="rect4035-4" />
    <rect
       width="0"
       x="278.46414"
       y="576.74835"
       height="11.1139"
       style="fill:#fbd2bf"
       id="rect4035-3" />
    <rect
       width="0"
       x="280"
       y="576.86218"
       height="10.999983"
       style="fill:#fbd2bf"
       id="rect4035-1" />
    <rect
       width="0"
       x="280"
       y="576.86218"
       height="10.999983"
       style="fill:#fbfbfb"
       id="rect4035-5" />
    <rect
       width="0"
       x="280.32077"
       y="577.86218"
       height="10.999983"
       style="fill:#ffffff"
       id="rect4035-36" />
    <rect
       width="0"
       x="280"
       y="576.86218"
       height="10.999983"
       style="fill:#ffffff"
       id="rect4035-4-7" />
    <rect
       width="0"
       x="278.46414"
       y="576.74835"
       height="11.1139"
       style="fill:#fbd2bf"
       id="rect4035-3-5" />
    <rect
       width="0"
       x="280"
       y="576.86218"
       height="10.999983"
       style="fill:#fbd2bf"
       id="rect4035-1-3" />
    <rect
       width="0"
       x="280"
       y="576.86218"
       height="10.999983"
       style="fill:#fbfbfb"
       id="rect4035-5-5" />
    <rect
       width="0"
       x="280"
       y="576.86218"
       height="10.999983"
       style="fill:#fffcf9"
       id="rect4035-8" />
    <rect
       width="0"
       x="280.32077"
       y="537.86218"
       height="10.999983"
       style="fill:#ffffff"
       id="rect4035-6" />
    <rect
       width="0"
       x="280"
       y="536.86218"
       height="10.999983"
       style="fill:#ffffff"
       id="rect4035-4-2" />
    <rect
       width="0"
       x="278.46414"
       y="536.74835"
       height="11.1139"
       style="fill:#fbd2bf"
       id="rect4035-3-9" />
    <rect
       width="0"
       x="280"
       y="536.86218"
       height="10.999983"
       style="fill:#fbd2bf"
       id="rect4035-1-1" />
    <rect
       width="0"
       x="280"
       y="536.86218"
       height="10.999983"
       style="fill:#fbfbfb"
       id="rect4035-5-2" />
    <rect
       width="0"
       x="280"
       y="536.86218"
       height="10.999983"
       style="fill:#fffcf9"
       id="rect4035-8-7" />
    <rect
       width="0"
       x="280"
       y="536.86218"
       height="10.999983"
       style="fill:#e8d9eb"
       id="rect4035-44" />
    <rect
       width="0"
       x="280"
       y="576.86218"
       height="10.999983"
       style="fill:#036b53"
       id="rect4035-12" />
    <rect
       width="0"
       x="280.32077"
       y="577.86218"
       height="10.999983"
       style="fill:#ffffff"
       id="rect4035-67" />
    <rect
       width="0"
       x="280"
       y="576.86218"
       height="10.999983"
       style="fill:#ffffff"
       id="rect4035-4-70" />
    <rect
       width="0"
       x="278.46414"
       y="576.74835"
       height="11.1139"
       style="fill:#fbd2bf"
       id="rect4035-3-93" />
    <rect
       width="0"
       x="280"
       y="576.86218"
       height="10.999983"
       style="fill:#fbd2bf"
       id="rect4035-1-6" />
    <rect
       width="0"
       x="280"
       y="576.86218"
       height="10.999983"
       style="fill:#fbfbfb"
       id="rect4035-5-0" />
    <rect
       width="0"
       x="280"
       y="576.86218"
       height="10.999983"
       style="fill:#fffcf9"
       id="rect4035-8-6" />
    <rect
       width="0"
       x="280.32077"
       y="537.86218"
       height="10.999983"
       style="fill:#ffffff"
       id="rect4035-6-2" />
    <rect
       width="0"
       x="280"
       y="536.86218"
       height="10.999983"
       style="fill:#ffffff"
       id="rect4035-4-2-6" />
    <rect
       width="0"
       x="278.46414"
       y="536.74835"
       height="11.1139"
       style="fill:#fbd2bf"
       id="rect4035-3-9-1" />
    <rect
       width="0"
       x="280"
       y="536.86218"
       height="10.999983"
       style="fill:#fbd2bf"
       id="rect4035-1-1-8" />
    <rect
       width="0"
       x="280"
       y="536.86218"
       height="10.999983"
       style="fill:#fbfbfb"
       id="rect4035-5-2-7" />
    <rect
       width="0"
       x="280"
       y="536.86218"
       height="10.999983"
       style="fill:#fffcf9"
       id="rect4035-8-7-9" />
    <rect
       width="0"
       x="280"
       y="536.86218"
       height="10.999983"
       style="fill:#e8d9eb"
       id="rect4035-44-2" />
  </g>
</svg>
