<?xml version="1.0" encoding="UTF-8" standalone="no"?>

<!-- Created with Inkscape (http://www.inkscape.org/) -->
<svg width="22" version="1.1" xmlns="http://www.w3.org/2000/svg" height="22" xmlns:inkscape="http://www.inkscape.org/namespaces/inkscape">
 <defs id="defs3871"/>
 <metadata id="metadata3874"/>
 <path inkscape:label="Capa 1" inkscape:groupmode="layer" style="stroke-opacity:0.550265;fill:#e00a5e;stroke-width:2.8" id="rect4144" d="M 3 5 L 3 5.75 L 3 16.25 L 3 16.560547 L 3 17 L 11 17 L 11 16 L 4 16 L 4 15.623047 L 4.1699219 15.462891 L 7.8632812 12 L 6.734375 12 L 4 14.5625 L 4 6 L 4.1054688 6 L 7.5429688 9.2226562 L 7.9316406 8.5253906 L 5.2382812 6 L 9.3339844 6 L 9.8886719 5 L 3 5 z M 11 5 L 11 6 L 16.761719 6 L 12.496094 10 L 13.628906 10 L 17.894531 6 L 18 6 L 18 14.5625 L 15.017578 11.767578 L 14.630859 12.462891 L 17.830078 15.462891 L 18 15.623047 L 18 16 L 12.666016 16 L 12.111328 17 L 19 17 L 19 15.5 L 19 5 L 11 5 z " transform="matrix(1 0 0 1 0 -0.000031)"/>
</svg>
