<?xml version="1.0" encoding="UTF-8" standalone="no"?>

<!-- Created with Inkscape (http://www.inkscape.org/) -->
<svg width="22" version="1.1" xmlns="http://www.w3.org/2000/svg" height="22" xmlns:inkscape="http://www.inkscape.org/namespaces/inkscape">
 <defs id="defs3871"/>
 <metadata id="metadata3874"/>
 <g inkscape:label="Capa 1" inkscape:groupmode="layer" id="layer1" transform="matrix(1 0 0 1 -326 -534.3622)">
  <rect width="0" x="318.27991" y="538.32489" height="10.999983" style="fill:#f62459" id="rect4035"/>
  <rect width="0" x="313.72791" y="540.84399" height="10.999983" style="fill:#8e44ad" id="rect4035-7"/>
  <rect width="0" x="309.22012" y="528.42542" height="10.999983" style="fill:#f62459" id="rect4035-9"/>
  <path inkscape:connector-curvature="0" style="stroke-opacity:0.550265;fill:#22a7f0;stroke-width:2.8" id="rect4144" d="m 327,537.3622 0,1 0,14 0,0.41406 0,0.58594 1,0 19,0 0,-0.58594 0,-0.41406 0,-1 0,-14 -0.0488,0 -0.95117,0 -17.53711,0 -0.46289,0 -1,0 z m 1,1 0.0488,0 5.97461,5.97656 -6.02344,6.02344 0,-12 z m 1.46289,0 15.07422,0 -7.53711,7.53711 -7.53711,-7.53711 z m 16.48828,0 0.0488,0 0,12 -6.02344,-6.02344 5.97461,-5.97656 z m -11.2207,6.68359 2.26953,2.26758 2.26953,-2.26758 6.26758,6.26758 0.46289,0.46289 0,0.58594 -18,0 0,-0.58594 0.46289,-0.46289 6.26758,-6.26758 z"/>
 </g>
</svg>
