<?xml version="1.0" encoding="UTF-8" standalone="no"?>

<!-- Created with Inkscape (http://www.inkscape.org/) -->
<svg width="22" version="1.1" xmlns="http://www.w3.org/2000/svg" height="22" xmlns:inkscape="http://www.inkscape.org/namespaces/inkscape">
 <defs id="defs3871"/>
 <metadata id="metadata3874"/>
 <g inkscape:label="Capa 1" inkscape:groupmode="layer" id="layer1" transform="matrix(1 0 0 1 -326 -534.3622)">
  <rect width="0" x="326.49567" y="535.98694" height="10.999983" style="fill:#6c7a89" id="rect4035"/>
  <rect width="0" x="321.94366" y="538.50604" height="10.999983" style="fill:#6c7a89" id="rect4035-7"/>
  <rect width="0" x="317.43588" y="526.08746" height="10.999983" style="fill:#6c7a89" id="rect4035-9"/>
  <path inkscape:connector-curvature="0" style="fill:#6c7a89" id="path3367" d="m 0,5 0,12.1 22,0 L 22,5 Z m 1,1 20,0 0,10.1 -20,0 z" transform="matrix(1 0 0 1 326 534.3622)"/>
  <path inkscape:connector-curvature="0" style="fill:#6c7a89" id="path3373" d="m 328,541.3622 0,0.82617 0,7.17383 2,0 0,-5.17383 2,2 2,-2 0,5.17383 2,0 0,-7.17383 0,-0.82617 -2.00195,0 -1.99805,1.99805 -1.99805,-1.99805 -2.00195,0 z m 13,0 0,4 -3,0 4,4 4,-4 -3,0 0,-4 -2,0 z"/>
 </g>
</svg>
