<svg xmlns="http://www.w3.org/2000/svg" viewBox="0 0 16 16">
 <path style="shape-rendering:auto;color-interpolation-filters:linearRGB;fill:#6c7a89;image-rendering:auto;text-rendering:auto;color:#4d4d4d;color-rendering:auto;color-interpolation:sRGB" d="m5 1038.3622a3 3 0 0 0 -3 3 3 3 0 0 0 3 3 3 3 0 0 0 3 -3 3 3 0 0 0 -3 -3m3 3a3 3 0 0 0 3 3 3 3 0 0 0 3 -3 3 3 0 0 0 -3 -3 3 3 0 0 0 -3 3m-3-2a2 2 0 0 1 2 2 2 2 0 0 1 -2 2 2 2 0 0 1 -1.371094 -.5488 1.5 1.5 0 0 0 .371094 .049 1.5 1.5 0 0 0 1.5 -1.5 1.5 1.5 0 0 0 -1.5 -1.5 1.5 1.5 0 0 0 -.375 .049 2 2 0 0 1 1.375 -.5488m6-.0004a2 2 0 0 1 2 2 2 2 0 0 1 -2 2 2 2 0 0 1 -1.371094 -.5488 1.5 1.5 0 0 0 .371094 .049 1.5 1.5 0 0 0 1.5 -1.5 1.5 1.5 0 0 0 -1.5 -1.5 1.5 1.5 0 0 0 -.375 .049A2 2 0 0 1 11 1039.3626m1.08 6.152c-.935.531-2.457.847-4.08.848-1.394-.001-2.725-.234-3.67-.645l-.629.734c.384.198.83.354 1.299.49v1.42a2 2 0 0 0 2 2 2 2 0 0 0 1.5 -.6797 2 2 0 0 0 1.5 .6797 2 2 0 0 0 2 -2v-1.773c.272-.122.528-.253.754-.4zM11 1046.94v1.424a1 1 0 0 1 -1 1 1 1 0 0 1 -1 -1v-1.059c.712-.061 1.382-.185 2-.365m-5 .238c.638.114 1.309.185 2 .186v1a1 1 0 0 1 -1 1 1 1 0 0 1 -1 -1z" transform="translate(0-1036.36)"/>
</svg>
