<?xml version="1.0" encoding="UTF-8" standalone="no"?>
<!-- Created with Inkscape (http://www.inkscape.org/) -->

<svg
   xmlns:dc="http://purl.org/dc/elements/1.1/"
   xmlns:cc="http://creativecommons.org/ns#"
   xmlns:rdf="http://www.w3.org/1999/02/22-rdf-syntax-ns#"
   xmlns:svg="http://www.w3.org/2000/svg"
   xmlns="http://www.w3.org/2000/svg"
   xmlns:sodipodi="http://sodipodi.sourceforge.net/DTD/sodipodi-0.dtd"
   xmlns:inkscape="http://www.inkscape.org/namespaces/inkscape"
   width="22"
   version="1.1"
   height="22"
   id="svg2"
   inkscape:version="0.91 r13725"
   sodipodi:docname="text-rust.svg">
  <sodipodi:namedview
     pagecolor="#ffffff"
     bordercolor="#666666"
     borderopacity="1"
     objecttolerance="10"
     gridtolerance="10"
     guidetolerance="10"
     inkscape:pageopacity="0"
     inkscape:pageshadow="2"
     inkscape:window-width="1360"
     inkscape:window-height="708"
     id="namedview12"
     showgrid="true"
     inkscape:zoom="15.170655"
     inkscape:cx="-0.73743247"
     inkscape:cy="10.922774"
     inkscape:window-x="0"
     inkscape:window-y="0"
     inkscape:window-maximized="1"
     inkscape:current-layer="layer1"
     inkscape:object-nodes="true" />
  <defs
     id="defs3871" />
  <metadata
     id="metadata3874">
    <rdf:RDF>
      <cc:Work
         rdf:about="">
        <dc:format>image/svg+xml</dc:format>
        <dc:type
           rdf:resource="http://purl.org/dc/dcmitype/StillImage" />
        <dc:title></dc:title>
      </cc:Work>
    </rdf:RDF>
  </metadata>
  <g
     inkscape:label="Capa 1"
     inkscape:groupmode="layer"
     id="layer1"
     transform="matrix(1 0 0 1 -326 -534.3622)">
    <path
       inkscape:connector-curvature="0"
       style="fill:#924ab0;fill-opacity:1"
       d="m 328,537.36373 0,2.99838 2,3.5e-4 0,9.99965 -2,0 0,2.98238 c 0,0 3.4653,0.0178 7,0.0178 l 0,-3.00017 -2.63607,-1.9e-4 0,-4.00022 4.57293,-0.0267 c 0.27274,-0.002 1.21096,0.42402 2.021,1.95033 0.38456,0.84181 1.0546,2.03299 1.38916,2.60279 0.39365,0.59737 1.13823,2.47392 1.90826,2.47392 1.65281,-0.0124 2.20738,-8.9e-4 3.74472,-8.9e-4 l 0,-3.39662 c -0.22819,0.15555 -0.65912,0.36624 -0.90913,0.39735 -1.09642,0.007 -1.53553,-0.58937 -1.92645,-1.3663 -0.60094,-1.81965 -1.68281,-3.32373 -2.61921,-4.13355 1.16096,-0.80893 3.59834,-0.5947 3.6638,-3.61619 -0.06,-2.69793 -1.87827,-3.87933 -4.10837,-3.88288 C 340,537.36211 328,537.36211 328,537.36211 Z m 4.36393,2.99856 5.21114,0 c 0.72549,0 1.66644,0.53336 1.66644,1.5343 0,0.83116 -0.68912,1.46586 -1.79826,1.46586 l -5.07932,0 z"
       id="path35"
       sodipodi:nodetypes="ccccccccccccccccccccccccssscc" />
  </g>
</svg>
