<?xml version="1.0" encoding="UTF-8" standalone="no"?>

<!-- Created with Inkscape (http://www.inkscape.org/) -->
<svg width="22" version="1.1" xmlns="http://www.w3.org/2000/svg" height="22" xmlns:inkscape="http://www.inkscape.org/namespaces/inkscape">
 <defs id="defs3871"/>
 <metadata id="metadata3874"/>
 <g inkscape:label="Capa 1" inkscape:groupmode="layer" id="layer1" transform="matrix(1 0 0 1 -326 -534.3622)">
  <rect width="0" x="326.49567" y="535.98694" height="10.999983" style="fill:#22a7f0" id="rect4035"/>
  <rect width="0" x="321.94366" y="538.50604" height="10.999983" style="fill:#22a7f0" id="rect4035-7"/>
  <rect width="0" x="317.43588" y="526.08746" height="10.999983" style="fill:#22a7f0" id="rect4035-9"/>
  <rect width="0" x="318.27991" y="538.32489" height="10.999983" style="fill:#22a7f0" id="rect4035-96"/>
  <rect width="0" x="313.72791" y="540.84399" height="10.999983" style="fill:#22a7f0" id="rect4035-7-0"/>
  <rect width="0" x="309.22012" y="528.42542" height="10.999983" style="fill:#22a7f0" id="rect4035-9-6"/>
  <rect width="1" x="333" y="537.36218" height="16" style="fill:#6c7a89;stroke-width:2" id="rect5552"/>
  <rect width="1" x="340" y="537.36218" height="16" style="fill:#6c7a89;stroke-width:2" id="rect5552-2"/>
  <rect width="1" x="541.36218" y="-345" height="16" style="fill:#6c7a89;stroke-width:2" id="rect5552-1" transform="matrix(0 1 -1 0 0 0)"/>
  <rect width="1" x="548.36218" y="-345" height="16" style="fill:#6c7a89;stroke-width:2" id="rect5552-2-5" transform="matrix(0 1 -1 0 0 0)"/>
 </g>
</svg>
