<?xml version="1.0" encoding="UTF-8" standalone="no"?>

<!-- Created with Inkscape (http://www.inkscape.org/) -->
<svg width="22" version="1.1" xmlns="http://www.w3.org/2000/svg" height="22" xmlns:inkscape="http://www.inkscape.org/namespaces/inkscape">
 <defs id="defs3871"/>
 <metadata id="metadata3874"/>
 <g inkscape:label="Capa 1" inkscape:groupmode="layer" id="layer1" transform="matrix(1 0 0 1 -326 -534.3622)">
  <rect width="0" x="256.22556" y="514.69751" height="14.668059" style="fill:#cf000f" id="rect4035"/>
  <rect width="0" x="263.18613" y="537.26813" height="14.668059" style="fill:#cf000f" id="rect4035-8"/>
  <rect width="0" x="264.99942" y="536.2074" height="14.668059" style="fill:#cf000f" id="rect4035-0"/>
  <rect width="0" x="256.22556" y="514.69751" height="14.668059" style="fill:#cf000f" id="rect4035-3"/>
  <rect width="0" x="263.18613" y="537.26813" height="14.668059" style="fill:#cf000f" id="rect4035-8-9"/>
  <rect width="0" x="264.99942" y="536.2074" height="14.668059" style="fill:#cf000f" id="rect4035-0-4"/>
  <rect width="0" x="256.22556" y="514.69751" height="14.668059" style="fill:#cf000f" id="rect4035-2"/>
  <rect width="0" x="263.18613" y="537.26813" height="14.668059" style="fill:#cf000f" id="rect4035-8-99"/>
  <rect width="0" x="264.99942" y="536.2074" height="14.668059" style="fill:#cf000f" id="rect4035-0-43"/>
  <rect width="0" x="256.22556" y="514.69751" height="14.668059" style="fill:#cf000f" id="rect4035-3-9"/>
  <rect width="0" x="263.18613" y="537.26813" height="14.668059" style="fill:#cf000f" id="rect4035-8-9-9"/>
  <rect width="0" x="264.99942" y="536.2074" height="14.668059" style="fill:#cf000f" id="rect4035-0-4-4"/>
  <rect width="0" x="273.38181" y="518.47876" height="14.668059" style="fill:#cf000f" id="rect4035-6"/>
  <rect width="0" x="280.34238" y="541.04938" height="14.668059" style="fill:#cf000f" id="rect4035-8-8"/>
  <rect width="0" x="282.15567" y="539.98865" height="14.668059" style="fill:#cf000f" id="rect4035-0-6"/>
  <rect width="8" x="329" y="537.36218" height="1" style="fill:#cf000f;stroke-width:6" id="rect5105"/>
  <rect width="16" x="329" y="541.36218" height="1" style="fill:#cf000f;stroke-width:6" id="rect5107"/>
  <rect width="6" x="329" y="545.36218" height="1" style="fill:#cf000f;stroke-width:6" id="rect5109"/>
  <rect width="4" x="329" y="548.36218" height="1" style="fill:#cf000f;stroke-width:6" id="rect5111"/>
  <rect width="6" x="329" y="552.36218" height="0.999983" style="fill:#cf000f;stroke-width:6" id="rect5113"/>
  <path style="fill:#cf000f" id="rect4139" d="M 12 11 L 12 12 L 12 15 L 11 15 L 15 19 L 19 15 L 18 15 L 18 12 L 18 11 L 12 11 z M 13 12 L 17 12 L 17 15 L 17.583984 15 L 15 17.583984 L 12.416016 15 L 13 15 L 13 12 z " transform="matrix(1 0 0 1 326 534.3622)"/>
 </g>
</svg>
