<?xml version="1.0" encoding="UTF-8" standalone="no"?>

<!-- Created with Inkscape (http://www.inkscape.org/) -->
<svg width="22" version="1.1" xmlns="http://www.w3.org/2000/svg" height="22" xmlns:inkscape="http://www.inkscape.org/namespaces/inkscape">
 <defs id="defs3871"/>
 <metadata id="metadata3874"/>
 <g inkscape:label="Capa 1" inkscape:groupmode="layer" id="layer1" transform="matrix(1 0 0 1 -326 -534.3622)">
  <rect width="0" x="318.27991" y="538.32489" height="10.999983" style="fill:#f62459" id="rect4035"/>
  <rect width="0" x="313.72791" y="540.84399" height="10.999983" style="fill:#8e44ad" id="rect4035-7"/>
  <rect width="0" x="309.22012" y="528.42542" height="10.999983" style="fill:#f62459" id="rect4035-9"/>
  <rect width="2" x="336" y="540.36218" height="2" style="fill:#22a7f0" id="rect4120"/>
  <rect width="2" x="336" y="543.36218" height="7" style="fill:#22a7f0" id="rect4124"/>
  <path inkscape:connector-curvature="0" style="fill:#22a7f0" id="rect4129" d="m 337,537.3622 c -4.432,0 -8,3.568 -8,8 0,4.432 3.568,8 8,8 4.432,0 8,-3.568 8,-8 0,-4.432 -3.568,-8 -8,-8 z m 0,1 c 3.878,0 7,3.122 7,7 0,3.878 -3.122,7 -7,7 -3.878,0 -7,-3.122 -7,-7 0,-3.878 3.122,-7 7,-7 z"/>
 </g>
</svg>
