<?xml version="1.0" encoding="UTF-8" standalone="no"?>

<!-- Created with Inkscape (http://www.inkscape.org/) -->
<svg width="22" version="1.1" xmlns="http://www.w3.org/2000/svg" height="22" xmlns:inkscape="http://www.inkscape.org/namespaces/inkscape">
 <defs id="defs3871"/>
 <metadata id="metadata3874"/>
 <g inkscape:label="Capa 1" inkscape:groupmode="layer" id="layer1" transform="matrix(1 0 0 1 -326 -534.3622)">
  <rect width="0" x="256.22556" y="514.69751" height="14.668059" style="fill:#e00a5e" id="rect4035"/>
  <rect width="0" x="263.18613" y="537.26813" height="14.668059" style="fill:#e00a5e" id="rect4035-8"/>
  <rect width="0" x="264.99942" y="536.2074" height="14.668059" style="fill:#e00a5e" id="rect4035-0"/>
  <rect width="0" x="256.22556" y="514.69751" height="14.668059" style="fill:#e00a5e" id="rect4035-3"/>
  <rect width="0" x="263.18613" y="537.26813" height="14.668059" style="fill:#e00a5e" id="rect4035-8-9"/>
  <rect width="0" x="264.99942" y="536.2074" height="14.668059" style="fill:#e00a5e" id="rect4035-0-4"/>
  <rect width="0" x="256.22556" y="514.69751" height="14.668059" style="fill:#e00a5e" id="rect4035-2"/>
  <rect width="0" x="263.18613" y="537.26813" height="14.668059" style="fill:#e00a5e" id="rect4035-8-99"/>
  <rect width="0" x="264.99942" y="536.2074" height="14.668059" style="fill:#e00a5e" id="rect4035-0-43"/>
  <rect width="0" x="256.22556" y="514.69751" height="14.668059" style="fill:#e00a5e" id="rect4035-3-9"/>
  <rect width="0" x="263.18613" y="537.26813" height="14.668059" style="fill:#e00a5e" id="rect4035-8-9-9"/>
  <rect width="0" x="264.99942" y="536.2074" height="14.668059" style="fill:#e00a5e" id="rect4035-0-4-4"/>
  <path style="fill:#e00a5e" id="path4139" d="M 9 3.9472656 L 9 7.4472656 L 9 8 L 9 18 L 10 18 L 10 15 L 10 10.638672 C 10.75804 11.502302 11.85088 11.99821 13 12 C 15.20914 12 17 10.20914 17 8 C 17 5.79086 15.20914 4 13 4 C 11.85088 4.002 10.75804 4.4976981 10 5.3613281 L 10 5 L 10 3.9472656 L 9 3.9472656 z M 13 5 C 14.65685 5 16 6.34315 16 8 C 16 9.65685 14.65685 11 13 11 C 11.34315 11 10 9.65685 10 8 C 10 6.34315 11.34315 5 13 5 z " transform="matrix(1 0 0 1 326 534.3622)"/>
  <circle cx="331" cy="544.36218" style="fill:#e00a5e;stroke-width:2" id="path4671" r="1"/>
 </g>
</svg>
