<svg xmlns="http://www.w3.org/2000/svg" viewBox="0 0 16 16">
 <path style="shape-rendering:auto;color-interpolation-filters:linearRGB;fill:#3a539b;image-rendering:auto;text-rendering:auto;color:#4d4d4d;color-rendering:auto;color-interpolation:sRGB" d="m12.5 2a1.5 1.5 0 0 0 -1.5 1.5 1.5 1.5 0 0 0 1.5 1.5 1.5 1.5 0 0 0 1.5 -1.5 1.5 1.5 0 0 0 -1.5 -1.5m-5 1A5.5 5.5 0 0 0 2 8.5 5.5 5.5 0 0 0 7.5 14 5.5 5.5 0 0 0 13 8.5 5.5 5.5 0 0 0 11.716797 4.976562 2 2 0 0 1 12 6 2 2 0 0 1 10 8 2 2 0 0 1 8 6a2 2 0 0 1 2 -2 2 2 0 0 1 1.052734 .302734A5.5 5.5 0 0 0 7.5 3"/>
</svg>
