<?xml version="1.0" encoding="UTF-8" standalone="no"?>

<!-- Created with Inkscape (http://www.inkscape.org/) -->
<svg width="22" version="1.1" xmlns="http://www.w3.org/2000/svg" height="22" xmlns:inkscape="http://www.inkscape.org/namespaces/inkscape">
 <defs id="defs3871"/>
 <metadata id="metadata3874"/>
 <g inkscape:label="Capa 1" inkscape:groupmode="layer" id="layer1" transform="matrix(1 0 0 1 -326 -534.3622)">
  <rect width="0" x="256.22556" y="514.69751" height="14.668059" style="fill:#cf000f" id="rect4035"/>
  <rect width="0" x="263.18613" y="537.26813" height="14.668059" style="fill:#cf000f" id="rect4035-8"/>
  <rect width="0" x="264.99942" y="536.2074" height="14.668059" style="fill:#cf000f" id="rect4035-0"/>
  <rect width="0" x="256.22556" y="514.69751" height="14.668059" style="fill:#cf000f" id="rect4035-3"/>
  <rect width="0" x="263.18613" y="537.26813" height="14.668059" style="fill:#cf000f" id="rect4035-8-9"/>
  <rect width="0" x="264.99942" y="536.2074" height="14.668059" style="fill:#cf000f" id="rect4035-0-4"/>
  <rect width="0" x="256.22556" y="514.69751" height="14.668059" style="fill:#cf000f" id="rect4035-2"/>
  <rect width="0" x="263.18613" y="537.26813" height="14.668059" style="fill:#cf000f" id="rect4035-8-99"/>
  <rect width="0" x="264.99942" y="536.2074" height="14.668059" style="fill:#cf000f" id="rect4035-0-43"/>
  <rect width="0" x="256.22556" y="514.69751" height="14.668059" style="fill:#cf000f" id="rect4035-3-9"/>
  <rect width="0" x="263.18613" y="537.26813" height="14.668059" style="fill:#cf000f" id="rect4035-8-9-9"/>
  <rect width="0" x="264.99942" y="536.2074" height="14.668059" style="fill:#cf000f" id="rect4035-0-4-4"/>
  <rect width="0" x="273.38181" y="518.47876" height="14.668059" style="fill:#cf000f" id="rect4035-6"/>
  <rect width="0" x="280.34238" y="541.04938" height="14.668059" style="fill:#cf000f" id="rect4035-8-8"/>
  <rect width="0" x="282.15567" y="539.98865" height="14.668059" style="fill:#cf000f" id="rect4035-0-6"/>
  <g inkscape:label="Capa 1" style="fill:#6c7a89" id="layer1-4" transform="matrix(1 0 0 1 -95.71429 8.57146)">
   <path inkscape:connector-curvature="0" id="path4144-8" d="m 428.21429,528.79074 a 1.500015,1.500015 0 0 0 -1.5,1.5 1.500015,1.500015 0 0 0 1,1.41211 l 0,9.08789 a 2,2 0 0 0 2,2 l 1,0 0,2 3,-2.5 -3,-2.5 0,2 -1,0 a 1,1 0 0 1 -1,-1 l 0,-9.08789 a 1.500015,1.500015 0 0 0 1,-1.41211 1.500015,1.500015 0 0 0 -1.5,-1.5 z m 0,1 a 0.5,0.5 0 0 1 0.5,0.5 0.5,0.5 0 0 1 -0.5,0.5 0.5,0.5 0 0 1 -0.5,-0.5 0.5,0.5 0 0 1 0.5,-0.5 z"/>
   <path inkscape:connector-curvature="0" id="path4144-8-6" d="m 437.21429,544.79074 a 1.500015,1.500015 0 0 0 1.5,-1.5 1.500015,1.500015 0 0 0 -1,-1.41211 l 0,-9.08789 a 2,2 0 0 0 -2,-2 l -1,0 0,-2 -3,2.5 3,2.5 0,-2 1,0 a 1,1 0 0 1 1,1 l 0,9.08789 a 1.500015,1.500015 0 0 0 -1,1.41211 1.500015,1.500015 0 0 0 1.5,1.5 z m 0,-1 a 0.5,0.5 0 0 1 -0.5,-0.5 0.5,0.5 0 0 1 0.5,-0.5 0.5,0.5 0 0 1 0.5,0.5 0.5,0.5 0 0 1 -0.5,0.5 z"/>
  </g>
 </g>
</svg>
