<svg height="22" width="22" xmlns="http://www.w3.org/2000/svg"><path d="m7 2c-1.1080096 0-2 .8919904-2 2h3v1h-3-1c-1.108 0-2 .892-2 2v2c0 1.108.892 2 2 2v-1c0-.888703.3898959-1.6762151 1-2.2246094.0006778-.0006093.00127-.00134.00195-.00195.1321461-.1185721.2745864-.2257373.4257813-.3203125.00123-.0007703.00267-.00118.00391-.00195.1489087-.092856.3059576-.1722233.4707025-.2382875.0296672-.0116393.0616713-.0185816.0917968-.0292968.1399618-.0509218.282569-.0974594.4316406-.1269532.1862079-.0359089.3772179-.0566406.5742188-.0566406h1 3v-3c0-1.1080096-.89199-2-2-2zm0 .5c.2769999 0 .5.2230001.5.5s-.2230001.5-.5.5-.5-.2230001-.5-.5.2230001-.5.5-.5zm5 2.5v1c0 .888703-.391849 1.6781682-1.001953 2.2265625-.132146.118577-.274587.2257355-.425781.3203125-.0012.0007612-.0027.00119-.0039.00195-.148909.092852-.305958.1722172-.470703.2382813-.02967.011639-.06167.018582-.0918.029297-.1399654.0509245-.2825726.0974628-.4316442.1269561-.1862079.0359089-.3772179.0566406-.5742188.0566406h-4v3c0 1.108.89199 2 2 2h2c1.10801 0 2-.892 2-2h-3v-1h4c1.108 0 2-.892 2-2v-2c0-1.108-.892-2-2-2zm-3 7.5c.277 0 .5.223.5.5s-.223.5-.5.5c-.2769999 0-.5-.223-.5-.5s.2230001-.5.5-.5z" fill="#f59e16" transform="matrix(1.3333333 0 0 1.3333333 .33333 .33333)"/></svg>