<?xml version="1.0" encoding="UTF-8" standalone="no"?>
<!-- Created with Inkscape (http://www.inkscape.org/) -->

<svg
   xmlns:dc="http://purl.org/dc/elements/1.1/"
   xmlns:cc="http://creativecommons.org/ns#"
   xmlns:rdf="http://www.w3.org/1999/02/22-rdf-syntax-ns#"
   xmlns:svg="http://www.w3.org/2000/svg"
   xmlns="http://www.w3.org/2000/svg"
   xmlns:sodipodi="http://sodipodi.sourceforge.net/DTD/sodipodi-0.dtd"
   xmlns:inkscape="http://www.inkscape.org/namespaces/inkscape"
   width="22"
   version="1.1"
   height="22"
   id="svg2"
   inkscape:version="0.91 r13725"
   sodipodi:docname="video-x-matroska.svg">
  <sodipodi:namedview
     pagecolor="#ffffff"
     bordercolor="#666666"
     borderopacity="1"
     objecttolerance="10"
     gridtolerance="10"
     guidetolerance="10"
     inkscape:pageopacity="0"
     inkscape:pageshadow="2"
     inkscape:window-width="640"
     inkscape:window-height="480"
     id="namedview11"
     showgrid="false"
     inkscape:zoom="4.0795455"
     inkscape:cx="4.3969492"
     inkscape:cy="12.19457"
     inkscape:current-layer="layer1" />
  <defs
     id="defs3871">
    <linearGradient
       id="linearGradient4351-4">
      <stop
         id="stop4353-0"
         style="stop-color:#036b53" />
      <stop
         id="stop4355-6"
         style="stop-color:#036b53"
         offset="1" />
    </linearGradient>
    <linearGradient
       id="linearGradient4351-1">
      <stop
         id="stop4353-6"
         style="stop-color:#c8e3fe" />
      <stop
         id="stop4355-2"
         style="stop-color:#ffffff"
         offset="1" />
    </linearGradient>
    <linearGradient
       id="linearGradient4300-3-3">
      <stop
         id="stop4302-6"
         style="stop-color:#f39c12" />
      <stop
         id="stop4304-7-6"
         style="stop-color:#f89406"
         offset="1" />
    </linearGradient>
    <linearGradient
       id="linearGradient4351-5">
      <stop
         id="stop4353-1"
         style="stop-color:#fddda3" />
      <stop
         id="stop4355-8"
         style="stop-color:#fde3a7"
         offset="1" />
    </linearGradient>
  </defs>
  <metadata
     id="metadata3874">
    <rdf:RDF>
      <cc:Work
         rdf:about="">
        <dc:format>image/svg+xml</dc:format>
        <dc:type
           rdf:resource="http://purl.org/dc/dcmitype/StillImage" />
      </cc:Work>
    </rdf:RDF>
  </metadata>
  <g
     inkscape:label="Capa 1"
     inkscape:groupmode="layer"
     id="layer1"
     transform="matrix(1 0 0 1 -326 -534.3622)">
    <rect
       width="0"
       x="318.27991"
       y="538.32489"
       height="10.999983"
       style="fill:#f62459"
       id="rect4035" />
    <path
       inkscape:label="Capa 1"
       inkscape:connector-curvature="0"
       style="fill:#4154ba;color:#000000;clip-rule:nonzero;display:inline;overflow:visible;visibility:visible;opacity:1;isolation:auto;mix-blend-mode:normal;color-interpolation:sRGB;color-interpolation-filters:linearRGB;solid-color:#000000;solid-opacity:1;fill-opacity:1;fill-rule:nonzero;stroke-width:1;stroke-linecap:butt;stroke-linejoin:miter;stroke-miterlimit:4;stroke-dasharray:none;stroke-dashoffset:0;stroke-opacity:1;filter-blend-mode:normal;filter-gaussianBlur-deviation:0;color-rendering:auto;image-rendering:auto;shape-rendering:auto;text-rendering:auto;enable-background:accumulate"
       id="rect3009"
       d="m 3,4 0,15 1,0 2,0 10,0 2,0 1,0 L 19,4 18,4 16,4 6,4 4,4 3,4 Z M 4,5 5,5 5,6 4,6 4,5 Z m 2,0 10,0 0,5.5 -10,0 L 6,5 Z m 11,0 1,0 0,1 -1,0 0,-1 z M 4,8 5,8 5,9 4,9 4,8 Z m 13,0 1,0 0,1 -1,0 0,-1 z m -13,3 1,0 0,1 -1,0 0,-1 z m 13,0 1,0 0,1 -1,0 0,-1 z m -11,1.5 10,0 0,5.5 -10,0 0,-5.5 z m -2,1.5 1,0 0,1 -1,0 0,-1 z m 13,0 1,0 0,1 -1,0 0,-1 z m -13,3 1,0 0,1 -1,0 0,-1 z m 13,0 1,0 0,1 -1,0 0,-1 z"
       transform="matrix(1 0 0 1 326 533.8622)" />
    <rect
       width="0"
       x="313.72791"
       y="540.84399"
       height="10.999983"
       style="fill:#8e44ad"
       id="rect4035-7" />
    <rect
       width="0"
       x="309.22012"
       y="528.42542"
       height="10.999983"
       style="fill:#f62459"
       id="rect4035-9" />
    <rect
       width="0"
       x="217.62666"
       y="578.11115"
       height="10.999983"
       style="fill:#036b53"
       id="rect4035-67" />
    <rect
       width="0"
       x="217.62666"
       y="578.11115"
       height="10.999983"
       style="fill:#036b53"
       id="rect4035-6" />
    <rect
       width="0"
       x="217.62666"
       y="578.11115"
       height="10.999983"
       style="fill:#036b53"
       id="rect4035-3" />
    <rect
       width="0"
       x="217.94743"
       y="539.11115"
       height="10.999983"
       style="fill:#ffffff"
       id="rect4035-62" />
    <rect
       width="0"
       x="217.62666"
       y="538.11115"
       height="10.999983"
       style="fill:#ffffff"
       id="rect4035-4" />
    <rect
       width="0"
       x="225.5406"
       y="551.04333"
       height="10.999983"
       style="fill:#ffffff"
       id="rect4035-367" />
    <rect
       width="0"
       x="225.21983"
       y="550.04333"
       height="10.999983"
       style="fill:#ffffff"
       id="rect4035-4-535" />
    <rect
       width="0"
       x="223.68398"
       y="549.9295"
       height="11.1139"
       style="fill:#fbd2bf"
       id="rect4035-3-6" />
    <rect
       width="0"
       x="225.21983"
       y="550.04333"
       height="10.999983"
       style="fill:#fbd2bf"
       id="rect4035-1" />
    <rect
       width="0"
       x="245.21983"
       y="550.04333"
       height="10.999983"
       style="fill:#fbfbfb"
       id="rect4035-2" />
    <rect
       width="0"
       x="225.21983"
       y="550.04333"
       height="10.999983"
       style="fill:#fbfbfb"
       id="rect4035-8" />
    <rect
       width="0"
       x="225.21983"
       y="550.04333"
       height="10.999983"
       style="fill:#fbfbfb"
       id="rect4035-9-5" />
    <rect
       width="0"
       x="225.5406"
       y="551.04333"
       height="10.999983"
       style="fill:#ffffff"
       id="rect4035-36" />
    <rect
       width="0"
       x="225.5406"
       y="551.04333"
       height="10.999983"
       style="fill:#ffffff"
       id="rect4035-7-3" />
    <rect
       width="0"
       x="225.21983"
       y="550.04333"
       height="10.999983"
       style="fill:#ffffff"
       id="rect4035-4-7" />
    <rect
       width="0"
       x="223.68398"
       y="549.9295"
       height="11.1139"
       style="fill:#fbd2bf"
       id="rect4035-3-53" />
    <rect
       width="0"
       x="225.21983"
       y="550.04333"
       height="10.999983"
       style="fill:#fbd2bf"
       id="rect4035-1-5" />
    <rect
       width="0"
       x="245.21983"
       y="550.04333"
       height="10.999983"
       style="fill:#fbfbfb"
       id="rect4035-2-6" />
    <rect
       width="0"
       x="225.21983"
       y="550.04333"
       height="10.999983"
       style="fill:#fbfbfb"
       id="rect4035-8-2" />
    <rect
       width="0"
       x="225.21983"
       y="550.04333"
       height="10.999983"
       style="fill:#fbfbfb"
       id="rect4035-9-9" />
    <rect
       width="0"
       x="238.47752"
       y="558.79773"
       height="10.999983"
       style="fill:#ffffff"
       id="rect4035-75" />
    <rect
       width="0"
       x="238.15675"
       y="557.79773"
       height="10.999983"
       style="fill:#ffffff"
       id="rect4035-4-3" />
    <rect
       width="0"
       x="236.6209"
       y="557.6839"
       height="11.1139"
       style="fill:#fbd2bf"
       id="rect4035-3-56" />
    <rect
       width="0"
       x="238.15675"
       y="557.79773"
       height="10.999983"
       style="fill:#fbd2bf"
       id="rect4035-1-2" />
    <rect
       width="0"
       x="238.15675"
       y="557.79773"
       height="10.999983"
       style="fill:#fbfbfb"
       id="rect4035-5-9" />
    <rect
       width="0"
       x="238.47752"
       y="558.79773"
       height="10.999983"
       style="fill:#ffffff"
       id="rect4035-7-1" />
    <rect
       width="0"
       x="238.15675"
       y="557.79773"
       height="10.999983"
       style="fill:#ffffff"
       id="rect4035-4-53" />
    <rect
       width="0"
       x="236.6209"
       y="557.6839"
       height="11.1139"
       style="fill:#fbd2bf"
       id="rect4035-3-5" />
    <rect
       width="0"
       x="238.15675"
       y="557.79773"
       height="10.999983"
       style="fill:#fbd2bf"
       id="rect4035-1-6" />
    <rect
       width="0"
       x="238.15675"
       y="557.79773"
       height="10.999983"
       style="fill:#fbfbfb"
       id="rect4035-5-2" />
    <rect
       width="0"
       x="238.47752"
       y="558.79773"
       height="10.999983"
       style="fill:#ffffff"
       id="rect4035-53" />
    <rect
       width="0"
       x="238.15675"
       y="557.79773"
       height="10.999983"
       style="fill:#ffffff"
       id="rect4035-4-5" />
    <rect
       width="0"
       x="238.47752"
       y="558.79773"
       height="10.999983"
       style="fill:#ffffff"
       id="rect4035-535" />
    <rect
       width="0"
       x="238.15675"
       y="557.79773"
       height="10.999983"
       style="fill:#ffffff"
       id="rect4035-4-6" />
    <rect
       width="0"
       x="236.6209"
       y="557.6839"
       height="11.1139"
       style="fill:#fbd2bf"
       id="rect4035-3-2" />
    <rect
       width="0"
       x="238.15675"
       y="557.79773"
       height="10.999983"
       style="fill:#fbd2bf"
       id="rect4035-1-9" />
    <rect
       width="0"
       x="238.15675"
       y="557.79773"
       height="10.999983"
       style="fill:#fbfbfb"
       id="rect4035-5" />
    <rect
       width="0"
       x="238.15675"
       y="557.79773"
       height="10.999983"
       style="fill:#fffcf9"
       id="rect4035-8-0" />
    <rect
       width="0"
       x="238.15675"
       y="557.79773"
       height="10.999983"
       style="fill:#e8d9eb"
       id="rect4035-44" />
    <rect
       width="0"
       x="238.15675"
       y="557.79773"
       height="10.999983"
       style="fill:#e8d9eb"
       id="rect4035-7-6" />
    <rect
       width="0"
       x="238.47752"
       y="558.79773"
       height="10.999983"
       style="fill:#ffffff"
       id="rect4035-26" />
    <rect
       width="0"
       x="238.15675"
       y="557.79773"
       height="10.999983"
       style="fill:#ffffff"
       id="rect4035-4-1" />
    <rect
       width="0"
       x="236.6209"
       y="557.6839"
       height="11.1139"
       style="fill:#fbd2bf"
       id="rect4035-3-8" />
    <rect
       width="0"
       x="238.15675"
       y="557.79773"
       height="10.999983"
       style="fill:#fbd2bf"
       id="rect4035-1-7" />
    <rect
       width="0"
       x="234.81245"
       y="553.68616"
       height="22.785679"
       style="fill:#ffffff"
       id="rect4035-753" />
    <rect
       width="0"
       x="234.81245"
       y="553.68616"
       height="22.785679"
       style="fill:#ffffff"
       id="rect4035-7-5" />
    <rect
       width="0"
       x="234.14803"
       y="551.61475"
       height="22.785679"
       style="fill:#ffffff"
       id="rect4035-4-62" />
    <rect
       width="0"
       x="230.96663"
       y="551.37897"
       height="23.02165"
       style="fill:#fbd2bf"
       id="rect4035-3-9" />
    <rect
       width="0"
       x="234.14803"
       y="551.61475"
       height="22.785679"
       style="fill:#fbd2bf"
       id="rect4035-1-1" />
    <rect
       width="0"
       x="275.57648"
       y="551.61475"
       height="22.785679"
       style="fill:#fbfbfb"
       id="rect4035-2-2" />
    <rect
       width="0"
       x="234.14803"
       y="551.61475"
       height="22.785679"
       style="fill:#fbfbfb"
       id="rect4035-8-7" />
    <rect
       width="0"
       x="234.14803"
       y="551.61475"
       height="22.785679"
       style="fill:#fbfbfb"
       id="rect4035-9-0" />
    <rect
       width="0"
       x="261.61029"
       y="569.74884"
       height="22.785679"
       style="fill:#ffffff"
       id="rect4035-75-6" />
    <rect
       width="0"
       x="260.9458"
       y="567.67743"
       height="22.785679"
       style="fill:#ffffff"
       id="rect4035-4-3-0" />
    <rect
       width="0"
       x="257.7644"
       y="567.44159"
       height="23.02165"
       style="fill:#fbd2bf"
       id="rect4035-3-56-6" />
    <rect
       width="0"
       x="260.9458"
       y="567.67743"
       height="22.785679"
       style="fill:#fbd2bf"
       id="rect4035-1-2-2" />
    <rect
       width="0"
       x="260.9458"
       y="567.67743"
       height="22.785679"
       style="fill:#fbfbfb"
       id="rect4035-5-9-6" />
    <rect
       width="0"
       x="261.61029"
       y="569.74884"
       height="22.785679"
       style="fill:#ffffff"
       id="rect4035-7-1-1" />
    <rect
       width="0"
       x="260.9458"
       y="567.67743"
       height="22.785679"
       style="fill:#ffffff"
       id="rect4035-4-53-8" />
    <rect
       width="0"
       x="257.7644"
       y="567.44159"
       height="23.02165"
       style="fill:#fbd2bf"
       id="rect4035-3-5-7" />
    <rect
       width="0"
       x="260.9458"
       y="567.67743"
       height="22.785679"
       style="fill:#fbd2bf"
       id="rect4035-1-6-9" />
    <rect
       width="0"
       x="260.9458"
       y="567.67743"
       height="22.785679"
       style="fill:#fbfbfb"
       id="rect4035-5-2-2" />
    <rect
       width="0"
       x="261.61029"
       y="569.74884"
       height="22.785679"
       style="fill:#ffffff"
       id="rect4035-53-0" />
    <rect
       width="0"
       x="260.9458"
       y="567.67743"
       height="22.785679"
       style="fill:#ffffff"
       id="rect4035-4-5-2" />
    <rect
       width="0"
       x="261.61029"
       y="569.74884"
       height="22.785679"
       style="fill:#ffffff"
       id="rect4035-535-3" />
    <rect
       width="0"
       x="260.9458"
       y="567.67743"
       height="22.785679"
       style="fill:#ffffff"
       id="rect4035-4-6-7" />
    <rect
       width="0"
       x="257.7644"
       y="567.44159"
       height="23.02165"
       style="fill:#fbd2bf"
       id="rect4035-3-2-5" />
    <rect
       width="0"
       x="260.9458"
       y="567.67743"
       height="22.785679"
       style="fill:#fbd2bf"
       id="rect4035-1-9-9" />
    <rect
       width="0"
       x="260.9458"
       y="567.67743"
       height="22.785679"
       style="fill:#fbfbfb"
       id="rect4035-5-22" />
    <rect
       width="0"
       x="260.9458"
       y="567.67743"
       height="22.785679"
       style="fill:#fffcf9"
       id="rect4035-8-0-8" />
    <rect
       width="0"
       x="260.9458"
       y="567.67743"
       height="22.785679"
       style="fill:#e8d9eb"
       id="rect4035-44-9" />
    <rect
       width="0"
       x="260.9458"
       y="567.67743"
       height="22.785679"
       style="fill:#e8d9eb"
       id="rect4035-7-6-7" />
    <rect
       width="0"
       x="261.61029"
       y="569.74884"
       height="22.785679"
       style="fill:#ffffff"
       id="rect4035-26-3" />
    <rect
       width="0"
       x="260.9458"
       y="567.67743"
       height="22.785679"
       style="fill:#ffffff"
       id="rect4035-4-1-6" />
    <rect
       width="0"
       x="257.7644"
       y="567.44159"
       height="23.02165"
       style="fill:#fbd2bf"
       id="rect4035-3-8-1" />
    <rect
       width="0"
       x="260.9458"
       y="567.67743"
       height="22.785679"
       style="fill:#fbd2bf"
       id="rect4035-1-7-2" />
  </g>
</svg>
