<?xml version="1.0" encoding="UTF-8" standalone="no"?>

<!-- Created with Inkscape (http://www.inkscape.org/) -->
<svg width="22" version="1.1" xmlns="http://www.w3.org/2000/svg" height="22" xmlns:inkscape="http://www.inkscape.org/namespaces/inkscape">
 <defs id="defs3871"/>
 <metadata id="metadata3874"/>
 <g inkscape:label="Capa 1" inkscape:groupmode="layer" id="layer1" transform="matrix(1 0 0 1 -326 -534.3622)">
  <rect width="0" x="273.38181" y="518.47876" height="14.668059" style="fill:#8e44ad" id="rect4035"/>
  <rect width="0" x="280.34238" y="541.04938" height="14.668059" style="fill:#8e44ad" id="rect4035-8"/>
  <rect width="0" x="282.15567" y="539.98865" height="14.668059" style="fill:#8e44ad" id="rect4035-0"/>
  <g inkscape:label="Capa 1" id="layer1-23">
   <rect width="0" x="273.38181" y="518.47876" height="14.668059" style="fill:#22a7f0" id="rect4035-3"/>
   <rect width="0" x="280.34238" y="541.04938" height="14.668059" style="fill:#22a7f0" id="rect4035-8-9"/>
   <rect width="0" x="282.15567" y="539.98865" height="14.668059" style="fill:#22a7f0" id="rect4035-0-4"/>
   <path inkscape:connector-curvature="0" style="fill:#22a7f0;stroke-linecap:square;stroke-width:2" id="rect4153" d="m 329,537.3622 0,16 16,0 0,-16 -16,0 z m 1,1 14,0 0,2 -14,0 0,-2 z m 0,3 1,0 0,2 -1,0 0,-2 z m 2,0 1,0 0,2 -1,0 0,-2 z m 2,0 1,0 0,2 -1,0 0,-2 z m 2,0 1,0 0,2 -1,0 0,-2 z m 2,0 1,0 0,2 -1,0 0,-2 z m 2,0 1,0 0,2 -1,0 0,-2 z m 2,0 2,0 0,1 -2,0 0,-1 z m -12,3 14,0 0,2 -14,0 0,-2 z m 0,3 1,0 0,2 -1,0 0,-2 z m 2,0 1,0 0,2 -1,0 0,-2 z m 2,0 1,0 0,2 -1,0 0,-2 z m 2,0 1,0 0,2 -1,0 0,-2 z m 2,0 1,0 0,2 -1,0 0,-2 z m 2,0 1,0 0,2 -1,0 0,-2 z m 2,0 2,0 0,1 -2,0 0,-1 z m -12,3 12,0 2,0 0,2 -14,0 0,-2 z"/>
  </g>
 </g>
</svg>
