<?xml version="1.0" encoding="UTF-8" standalone="no"?>

<!-- Created with Inkscape (http://www.inkscape.org/) -->
<svg width="22" version="1.1" xmlns="http://www.w3.org/2000/svg" height="22" xmlns:inkscape="http://www.inkscape.org/namespaces/inkscape">
 <defs id="defs3871"/>
 <metadata id="metadata3874"/>
 <g inkscape:label="Capa 1" inkscape:groupmode="layer" id="layer1" transform="matrix(1 0 0 1 -326 -534.3622)">
  <rect width="0" x="326.49567" y="535.98694" height="10.999983" style="fill:#f27935" id="rect4035"/>
  <rect width="0" x="321.94366" y="538.50604" height="10.999983" style="fill:#f27935" id="rect4035-7"/>
  <rect width="0" x="317.43588" y="526.08746" height="10.999983" style="fill:#f27935" id="rect4035-9"/>
  <rect width="0" x="318.27991" y="538.32489" height="10.999983" style="fill:#f27935" id="rect4035-96"/>
  <rect width="0" x="313.72791" y="540.84399" height="10.999983" style="fill:#f27935" id="rect4035-7-0"/>
  <rect width="0" x="309.22012" y="528.42542" height="10.999983" style="fill:#f27935" id="rect4035-9-6"/>
  <path style="fill:#f4a93c;stroke-linecap:square;stroke-width:2" id="rect4176" d="M 5 4 L 5 5 L 3 5 L 3 18 L 19 18 L 19 5 L 17 5 L 17 4 L 12 4 L 12 5 L 10 5 L 10 4 L 5 4 z M 6 5 L 9 5 L 9 6 L 13 6 L 13 5 L 16 5 L 16 6 L 18 6 L 18 17 L 4 17 L 4 6 L 6 6 L 6 5 z " transform="matrix(1 0 0 1 326 534.3622)"/>
 </g>
</svg>
