<?xml version="1.0" encoding="UTF-8" standalone="no"?>

<!-- Created with Inkscape (http://www.inkscape.org/) -->
<svg width="22" version="1.1" xmlns="http://www.w3.org/2000/svg" height="22" xmlns:inkscape="http://www.inkscape.org/namespaces/inkscape">
 <defs id="defs3871"/>
 <metadata id="metadata3874"/>
 <path inkscape:label="Capa 1" inkscape:groupmode="layer" style="fill:#8e44ad;fill-rule:evenodd" id="path6169" d="M 11 3 A 4 4 0 0 0 7.1308594 6 L 10 6 L 10 8 L 7 8 L 7 10 L 10 10 L 10 12 L 7.1328125 12 A 4 4 0 0 0 11 15 A 4 4 0 0 0 14.869141 12 L 12 12 L 12 10 L 15 10 L 15 8 L 12 8 L 12 6 L 14.867188 6 A 4 4 0 0 0 11 3 z M 5 12 A 6 5 0 0 0 10 16.929688 L 10 17 L 8 19 L 14 19 L 12 17 L 12 16.923828 A 6 5 0 0 0 17 12 L 16 12 A 5 4 0 0 1 11 16 A 5 4 0 0 1 6 12 L 5 12 z "/>
</svg>
