<?xml version="1.0" encoding="UTF-8" standalone="no"?>

<!-- Created with Inkscape (http://www.inkscape.org/) -->
<svg width="22" version="1.1" xmlns="http://www.w3.org/2000/svg" height="22" xmlns:inkscape="http://www.inkscape.org/namespaces/inkscape">
 <defs id="defs3871"/>
 <metadata id="metadata3874"/>
 <g inkscape:label="Capa 1" inkscape:groupmode="layer" id="layer1" transform="matrix(1 0 0 1 -326 -534.3622)">
  <rect width="0" x="273.38181" y="518.47876" height="14.668059" style="fill:#8e44ad" id="rect4035"/>
  <rect width="0" x="280.34238" y="541.04938" height="14.668059" style="fill:#8e44ad" id="rect4035-8"/>
  <rect width="0" x="282.15567" y="539.98865" height="14.668059" style="fill:#8e44ad" id="rect4035-0"/>
  <g inkscape:label="Capa 1" id="layer1-23">
   <rect width="0" x="273.38181" y="518.47876" height="14.668059" style="fill:#22a7f0" id="rect4035-3"/>
   <rect width="0" x="280.34238" y="541.04938" height="14.668059" style="fill:#22a7f0" id="rect4035-8-9"/>
   <rect width="0" x="282.15567" y="539.98865" height="14.668059" style="fill:#22a7f0" id="rect4035-0-4"/>
   <path style="fill:#22a7f0;stroke-linecap:round;stroke-linejoin:round;stroke-width:2" id="rect4847" d="M 3 3 L 3 4 L 11 4 L 11 3 L 3 3 z M 3 7 L 3 8 L 19 8 L 19 7 L 3 7 z M 3 11 L 3 12 L 10 12 L 10 11 L 3 11 z M 11 11 L 11 19 L 19 19 L 19 11 L 11 11 z M 12 12 L 18 12 L 18 18 L 12 18 L 12 12 z M 3 14 L 3 15 L 10 15 L 10 14 L 3 14 z M 3 18 L 3 19 L 10 19 L 10 18 L 3 18 z " transform="matrix(1 0 0 1 326 534.3622)"/>
  </g>
 </g>
</svg>
