<svg xmlns="http://www.w3.org/2000/svg" viewBox="0 0 16 16">
  <defs id="defs3051">
    <style type="text/css" id="current-color-scheme">
      .ColorScheme-Text {
        color:#232629;
      }
      </style>
  </defs>
    <path 
        style="fill:currentColor;fill-opacity:1;stroke:none" 
        d="M 8,2 C 6.892,2 6,2.892 6,4 l 0,4 c 0,1.108 0.892,2 2,2 1.108,0 2,-0.892 2,-2 L 10,4 C 10,2.892 9.108,2 8,2 Z M 4,7 4,8 c 0,1.847 1.286,3.405469 3,3.855469 L 7,13 l -1,0 0,1 4,0 0,-1 -1,0 0,-1.144531 C 10.714,11.404469 12,9.845 12,8 l 0,-1 -1,0 0,1 C 11,9.645 9.645,11 8,11 6.355,11 5,9.645 5,8 L 5,7 4,7 Z"
        class="ColorScheme-Text"/>
</svg>
