<svg xmlns="http://www.w3.org/2000/svg" viewBox="0 0 16 16">
  <defs id="defs3051">
    <style type="text/css" id="current-color-scheme">
      .ColorScheme-Text {
        color:#232629;
      }
      </style>
  </defs>
    <path 
        style="fill:currentColor;fill-opacity:1;stroke:none" 
        d="M 11 2 L 11 3 L 1 3 L 1 13 L 15 13 L 15 3 L 14 3 L 14 2 L 11 2 z M 2 4 L 14 4 L 14 12 L 2 12 L 2 4 z M 6 5 A 3 3 0 0 0 3 8 A 3 3 0 0 0 6 11 A 3 3 0 0 0 9 8 A 3 3 0 0 0 6 5 z M 6 6 A 2 2 0 0 1 8 8 A 2 2 0 0 1 6 10 A 2 2 0 0 1 4 8 A 2 2 0 0 1 6 6 z "
        class="ColorScheme-Text"/>
</svg>
