<svg xmlns="http://www.w3.org/2000/svg" viewBox="0 0 16 16">
  <defs id="defs3051">
    <style type="text/css" id="current-color-scheme">
      .ColorScheme-Text {
        color:#232629;
      }
      </style>
  </defs>
    <path
       style="fill:currentColor;fill-opacity:1;stroke:none" 
       d="M 2 3 L 2 13 L 10 13 L 10 14 L 11 14 L 11 13 L 14 13 L 14 3 L 2 3 z M 3 4 L 4 4 L 4 5 L 6 5 L 6 4 L 10 4 L 10 5 L 12 5 L 12 4 L 13 4 L 13 6 L 3 6 L 3 4 z M 3 7 L 13 7 L 13 12 L 11 12 L 11 8 L 10 8 L 10 12 L 3 12 L 3 7 z "
     class="ColorScheme-Text"
       />
</svg>
