<svg height="16" width="16" xmlns="http://www.w3.org/2000/svg">
    <style type="text/css" id="current-color-scheme">
        .ColorScheme-Text {
            color:#232629;
        }
    </style>
    <g class="ColorScheme-Text" fill="currentColor">
        <path d="M9 1a2 2 0 0 0-2 2H1v11h14V3H8a1 1 0 0 1 1-1h2a1 1 0 0 0 1-1zM2 4h12v1H2zm0 2h12v7H2z"/>
        <path d="M3 7v1h1V7zm2 0v1h1V7zm2 0v1h1V7zm2 0v1h1V7zm2 0v1h2V7zM3 9v1h2V9zm3 0v1h1V9zm2 0v1h1V9zm2 0v1h3V9zm-7 2v1h1v-1zm2 0v1h6v-1zm7 0v1h1v-1z"/>
    </g>
</svg>
