<svg xmlns="http://www.w3.org/2000/svg" viewBox="0 0 16 16">
  <defs id="defs3051">
    <style type="text/css" id="current-color-scheme">
      .ColorScheme-Text {
        color:#232629;
      }
      </style>
  </defs>
    <path 
        style="fill:currentColor;fill-opacity:1;stroke:none" 
        d="M 3 2 L 3 14 L 13 14 L 13 2 L 3 2 z M 4 3 L 12 3 L 12 13 L 4 13 L 4 3 z M 5 4 L 5 7 L 11 7 L 11 4 L 5 4 z M 8 8 A 2 2 0 0 0 6 10 A 2 2 0 0 0 8 12 A 2 2 0 0 0 10 10 A 2 2 0 0 0 8 8 z M 8 9 A 1 1 0 0 1 9 10 A 1 1 0 0 1 8 11 A 1 1 0 0 1 7 10 A 1 1 0 0 1 8 9 z " 
        class="ColorScheme-Text"/>
</svg>
