<svg xmlns="http://www.w3.org/2000/svg" height="22" width="22">
    <defs id="defs3051">
        <style type="text/css" id="current-color-scheme">
            .ColorScheme-NegativeText {
                color:#da4453;
            }
        </style>
    </defs>
    <path style="fill:currentColor;fill-opacity:1;stroke:none" class="ColorScheme-NegativeText" d="M13 3l-1 1v2h7V3zM9 7L7 9v1h8V7zm7 0v3h3V7zM5 11l-2 2v1h8v-3zm-2 4v3h3v-3zm4 0v3h4v-3zM13 11c-.554 0-1 .446-1 1v6c0 .554.446 1 1 1h6c.554 0 1-.446 1-1v-6c0-.554-.446-1-1-1z"/>
    <path d="M14 12l-1 1 2 2-2 2 1 1 2-2 2 2 1-1-2-2 2-2-1-1-2 2z" fill="#fff"/>
</svg>
