<svg xmlns="http://www.w3.org/2000/svg" viewBox="0 0 22 22 ">
  <defs id="defs3051">
    <style type="text/css" id="current-color-scheme">
      .ColorScheme-Text {
        color:#eff0f1;
      }
      </style>
  </defs>
  <g
     transform="translate(0,-1030.3622)">
    <path
       id="rect4152-67"
       d="m 10.999995,1033.3622 c -4.154999,0 -7.905933,1.6715 -10.61718494,4.3828 l 0.70898434,0.709 c 2.5305007,-2.5305 6.0302072,-4.0918 9.9082006,-4.0918 3.878001,0 7.377699,1.5613 9.9082,4.0918 l 0.708993,-0.709 c -2.711252,-2.7113 -6.462186,-4.3828 -10.617193,-4.3828 z"
       style="fill:currentColor;fill-opacity:1;stroke:none;opacity:0.5"
       class="ColorScheme-Text" />
    <path
       style="fill:currentColor;fill-opacity:1;stroke:none"
       d="M 11 7 C 7.9530063 7 5.2030906 8.2265438 3.2148438 10.214844 L 3.921875 10.921875 C 5.7293791 9.114375 8.2300034 8 11 8 C 13.770004 8 16.270612 9.114375 18.078125 10.921875 L 18.785156 10.214844 C 16.796909 8.2265438 14.047002 7 11 7 z M 11 11 C 9.0610031 11 7.3101723 11.779722 6.0449219 13.044922 L 6.7539062 13.753906 C 7.8384139 12.669406 9.3380002 12 11 12 C 12.661999 12 14.161595 12.669406 15.246094 13.753906 L 15.955078 13.044922 C 14.689828 11.779722 12.939005 11 11 11 z M 11 15 C 9.8920029 15 9 15.892 9 17 C 9 18.108 9.8920029 19 11 19 C 12.108005 19 13 18.108 13 17 C 13 15.892 12.108005 15 11 15 z M 11 16 C 11.554002 16 12 16.446 12 17 C 12 17.554 11.554002 18 11 18 C 10.446006 18 10 17.554 10 17 C 10 16.446 10.446006 16 11 16 z "
       transform="translate(0,1030.3622)"
       class="ColorScheme-Text" 
       id="rect4204-8" />
  </g>
</svg>
