<svg xmlns="http://www.w3.org/2000/svg" viewBox="0 0 22 22">
  <defs id="defs3051">
    <style type="text/css" id="current-color-scheme">
      .ColorScheme-Text {
        color:#eff0f1;
      }
      .ColorScheme-NeutralText {
        color:#f67400;
      }
      </style>
  </defs>
    <path 
        style="fill:currentColor;fill-opacity:1;stroke:none" 
        d="M 11 4 A 6 6 0 0 0 5 10 A 6 6 0 0 0 5.0039062 10.128906 A 4 4 0 0 0 2 14 A 4 4 0 0 0 6 18 L 15 18 A 5 5 0 0 0 20 13 A 5 5 0 0 0 16.757812 8.3242188 A 6 6 0 0 0 11 4 z M 11 5 A 5 5 0 0 1 15.919922 9.1113281 A 4.0000019 4.0000019 0 0 1 19 13 A 4.0000019 4.0000019 0 0 1 15 17 L 6 17 A 2.9999979 2.9999979 0 0 1 3 14 A 2.9999979 2.9999979 0 0 1 6 11 A 2.9999979 2.9999979 0 0 1 6.1074219 11.005859 A 5 5 0 0 1 6 10 A 5 5 0 0 1 11 5 z " 
        class="ColorScheme-Text"/>
  <path
     style="color:#da4453;fill:currentColor;fill-opacity:1;stroke:none"
     d="M 13 12 C 12.445981 12 12 12.446 12 13 L 12 19 C 12 19.5541 12.445981 20 13 20 L 19 20 C 19.554019 20 20 19.5541 20 19 L 20 13 C 20 12.446 19.554019 12 19 12 L 13 12 z "
     id="path8" />
  <path
     style="fill:#ffffff"
     d="M 14 13 L 13 14 L 15 16 L 13 18 L 14 19 L 16 17 L 18 19 L 19 18 L 17 16 L 19 14 L 18 13 L 16 15 L 14 13 z "
     id="path10" />
</svg>
