<svg xmlns="http://www.w3.org/2000/svg" viewBox="0 0 22 22">
  <defs id="defs3051">
    <style type="text/css" id="current-color-scheme">
      .ColorScheme-Text {
        color:#eff0f1;
      }
      </style>
  </defs>
      <path
         style="opacity:1;fill:currentColor;fill-opacity:1;stroke:none"
         d="M 11.126953 3.0019531 C 9.2851777 2.9719906 7.4335432 3.5755063 5.921875 4.8164062 C 2.8985906 7.2983061 2.1145626 11.6125 4.0703125 15 L 3.2050781 15.5 L 5.5039062 16.482422 L 5.8027344 14 L 4.9375 14.5 C 3.2230001 11.5304 3.9082004 7.7655434 6.5585938 5.5898438 C 9.2089874 3.4141439 13.034664 3.4761283 15.613281 5.7363281 L 16.271484 4.984375 C 14.800746 3.6952251 12.968729 3.0319156 11.126953 3.0019531 z M 16.494141 5.5195312 L 16.195312 8 L 17.0625 7.5 C 17.959107 9.0529689 18.193685 10.823632 17.839844 12.470703 C 18.160446 12.639467 18.458135 12.8441 18.720703 13.089844 C 19.259064 11.093388 19.024658 8.89995 17.927734 7 L 18.792969 6.5 L 16.494141 5.5195312 z M 11 6 L 7 10 L 9 10 L 9 15 L 12.144531 15 C 12.303295 14.394491 12.599063 13.848255 13 13.388672 L 13 10 L 15 10 L 11 6 z M 13.847656 13 L 13 13.847656 L 15.152344 16 L 13 18.152344 L 13.847656 19 L 16 16.847656 L 18.152344 19 L 19 18.152344 L 16.847656 16 L 19 13.847656 L 18.152344 13 L 16 15.152344 L 13.847656 13 z M 6.3847656 16.265625 L 5.7265625 17.017578 C 7.7928746 18.828768 10.571366 19.397714 13.089844 18.71875 C 12.844491 18.456567 12.641272 18.159893 12.472656 17.839844 C 10.366502 18.293393 8.099985 17.769044 6.3847656 16.265625 z "
         class="ColorScheme-Text" />
</svg>
