<?xml version="1.0" encoding="UTF-8" standalone="no"?>
<!-- Created with Inkscape (http://www.inkscape.org/) -->

<svg
   xmlns:dc="http://purl.org/dc/elements/1.1/"
   xmlns:cc="http://creativecommons.org/ns#"
   xmlns:rdf="http://www.w3.org/1999/02/22-rdf-syntax-ns#"
   xmlns:svg="http://www.w3.org/2000/svg"
   xmlns="http://www.w3.org/2000/svg"
   xmlns:xlink="http://www.w3.org/1999/xlink"
   xmlns:sodipodi="http://sodipodi.sourceforge.net/DTD/sodipodi-0.dtd"
   xmlns:inkscape="http://www.inkscape.org/namespaces/inkscape"
   width="32"
   height="32"
   id="svg5453"
   version="1.1"
   inkscape:version="0.91 r13725"
   sodipodi:docname="applications-education-language.svg">
  <defs
     id="defs5455">
    <linearGradient
       gradientUnits="userSpaceOnUse"
       y2="503.798"
       x2="384.57144"
       y1="543.79797"
       x1="434.57144"
       id="linearGradient4586"
       xlink:href="#linearGradient4273"
       inkscape:collect="always"
       gradientTransform="translate(-1.1547241e-5,-1.6784668e-7)" />
    <linearGradient
       inkscape:collect="always"
       id="linearGradient4273">
      <stop
         style="stop-color:#343b40;stop-opacity:1"
         offset="0"
         id="stop4275" />
      <stop
         style="stop-color:#555e63;stop-opacity:1"
         offset="1"
         id="stop4277" />
    </linearGradient>
    <linearGradient
       id="linearGradient4152-0"
       inkscape:collect="always">
      <stop
         id="stop4154-0"
         offset="0"
         style="stop-color:#bd8d48;stop-opacity:1" />
      <stop
         id="stop4156-8"
         offset="1"
         style="stop-color:#e8b971;stop-opacity:1" />
    </linearGradient>
    <linearGradient
       inkscape:collect="always"
       xlink:href="#linearGradient4273"
       id="linearGradient3085"
       gradientUnits="userSpaceOnUse"
       gradientTransform="matrix(1,0,0,1.050001,-36.00001,-25.190442)"
       x1="434.57144"
       y1="543.79797"
       x2="384.57144"
       y2="503.798" />
    <linearGradient
       inkscape:collect="always"
       xlink:href="#linearGradient4152-0"
       id="linearGradient3087"
       gradientUnits="userSpaceOnUse"
       gradientTransform="matrix(1,0,0,1.0500001,348.57142,499.59799)"
       x1="24"
       y1="43.999973"
       x2="24"
       y2="4" />
  </defs>
  <sodipodi:namedview
     id="base"
     pagecolor="#ffffff"
     bordercolor="#666666"
     borderopacity="1.0"
     inkscape:pageopacity="0"
     inkscape:pageshadow="2"
     inkscape:zoom="39.36"
     inkscape:cx="16.553859"
     inkscape:cy="18.614972"
     inkscape:document-units="px"
     inkscape:current-layer="layer1"
     showgrid="true"
     fit-margin-top="0"
     fit-margin-left="0"
     fit-margin-right="0"
     fit-margin-bottom="0"
     inkscape:window-width="1535"
     inkscape:window-height="876"
     inkscape:window-x="65"
     inkscape:window-y="24"
     inkscape:window-maximized="1"
     inkscape:showpageshadow="false"
     borderlayer="true"
     showguides="false"
     inkscape:snap-bbox="true"
     inkscape:snap-global="true"
     inkscape:snap-grids="false">
    <inkscape:grid
       type="xygrid"
       id="grid4063" />
    <sodipodi:guide
       position="4.2167969e-05,32.000026"
       orientation="32,0"
       id="guide4625" />
    <sodipodi:guide
       position="4.2167969e-05,2.6367188e-05"
       orientation="0,31.999969"
       id="guide4627" />
    <sodipodi:guide
       position="32.000012,2.6367188e-05"
       orientation="-32,0"
       id="guide4629" />
    <sodipodi:guide
       position="32.000012,32.000026"
       orientation="0,-31.999969"
       id="guide4631" />
    <sodipodi:guide
       position="2.0000422,30.000026"
       orientation="28,0"
       id="guide4633" />
    <sodipodi:guide
       position="2.0000422,2.0000264"
       orientation="0,27.999969"
       id="guide4635" />
    <sodipodi:guide
       position="30,17"
       orientation="-28,0"
       id="guide4637" />
    <sodipodi:guide
       position="30.000012,30.000026"
       orientation="0,-27.999969"
       id="guide4639" />
    <sodipodi:guide
       position="9.0000117,24.000271"
       orientation="14,0"
       id="guide4429" />
    <sodipodi:guide
       position="9.0000117,10.000271"
       orientation="0,14.000031"
       id="guide4431" />
    <sodipodi:guide
       position="23.000042,10.000271"
       orientation="-14,0"
       id="guide4433" />
    <sodipodi:guide
       position="23.000042,24.000271"
       orientation="0,-14.000031"
       id="guide4435" />
  </sodipodi:namedview>
  <metadata
     id="metadata5458">
    <rdf:RDF>
      <cc:Work
         rdf:about="">
        <dc:format>image/svg+xml</dc:format>
        <dc:type
           rdf:resource="http://purl.org/dc/dcmitype/StillImage" />
        <dc:title />
      </cc:Work>
    </rdf:RDF>
  </metadata>
  <g
     inkscape:label="Capa 1"
     inkscape:groupmode="layer"
     id="layer1"
     transform="translate(-384.57143,-515.798)">
    <g
       id="g3068"
       transform="matrix(0.66666621,0,0,0.66666621,152.19064,181.9329)">
      <rect
         y="503.798"
         x="348.57144"
         height="42.000034"
         width="48.000011"
         id="rect4567"
         style="fill:url(#linearGradient3085);fill-opacity:1;stroke:none" />
      <path
         id="rect4778"
         d="m 348.57142,503.798 0,2.1 0,39.9 2,0 46,0 5e-5,-3.14998 -5e-5,-36.75002 0,-2.1 -2,0 -44,0 z m 3.00007,3 41.99996,0 0,36.00002 -41.99996,0 z"
         style="fill:url(#linearGradient3087);fill-opacity:1;stroke:none"
         inkscape:connector-curvature="0"
         sodipodi:nodetypes="cccccccccccccccc" />
      <rect
         y="544.29803"
         x="348.57147"
         height="1.4999508"
         width="47.999954"
         id="rect4799"
         style="fill:#aa7f41;fill-opacity:1;stroke:none" />
      <path
         id="rect4553"
         d="m 351.57149,506.72982 0,36.0682 0,0 41.99996,0 0,0 0,-36.0682 0,0 z m 1.49994,1.56818 39.00002,0 0,33.00002 -39.00002,0 z"
         style="text-decoration:none;color:#000000;fill:#aa7f41;fill-opacity:0.49803922;fill-rule:nonzero;stroke:none;visibility:visible;display:inline;overflow:visible;enable-background:accumulate"
         inkscape:connector-curvature="0"
         sodipodi:nodetypes="ccccccccccccc" />
    </g>
    <path
       style="color:#000000;fill:#f2f2f2;fill-opacity:1;fill-rule:nonzero;stroke:none;stroke-width:2;marker:none;visibility:visible;display:inline;overflow:visible;enable-background:accumulate"
       d="m 391.57143,532.798 0,1 0,1 0,1 0,2 1,0 2,0 0,1 -5,0 0,1 5,0 0,2 1,0 0,-2 5,0 0,-1 -5,0 0,-1 3,0 0,-1 0,-3 0,-1 -1,0 -5,0 -1,0 z m 1,1 5,0 0,1 -5,0 0,-1 z m 0,2 5,0 0,1 -5,0 0,-1 z"
       id="rect3821"
       inkscape:connector-curvature="0" />
    <path
       inkscape:connector-curvature="0"
       id="path3867"
       style="font-style:normal;font-variant:normal;font-weight:normal;font-stretch:normal;font-size:12.46857548px;line-height:125%;font-family:Oxygen;-inkscape-font-specification:Oxygen;letter-spacing:0px;word-spacing:0px;fill:#f2f2f2;fill-opacity:1;stroke:none"
       d="m 396.54238,526.86972 c -0.85857,-2.48177 -1.38142,-3.76402 -1.47094,-4.07171 -10e-6,10e-6 -0.44557,1.28225 -1.43434,4.07171 l 2.90528,0 m 1.39771,3.92825 -1.05591,-3.04769 -3.60108,0 -1.09253,3.04769 -1.07422,0 3.46679,-8.99997 1.08033,0 3.36305,8.99997 -1.08644,0"
       sodipodi:nodetypes="ccccccccccccc" />
    <g
       style="font-style:normal;font-weight:normal;font-size:12.34564877px;line-height:125%;font-family:Sans;letter-spacing:0px;word-spacing:0px;fill:#f2f2f2;fill-opacity:1;stroke:none"
       id="text3876"
       transform="translate(5,3e-5)">
      <path
         d="m 399.57143,526.80011 0,2.99719 2.17081,0 c 0.65505,0 1.13931,-0.13463 1.45278,-0.40389 0.31748,-0.27327 0.47622,-0.68921 0.47622,-1.24782 0,-0.56263 -0.15874,-0.67635 -0.47622,-0.9416 -0.31347,-0.26925 -0.79773,-0.40388 -1.45278,-0.40389 l -2.17081,0 m 0,-4.00148 0,3.01287 2.21988,0 c 0.59476,0 1.07073,-0.11051 1.36009,-0.33155 0.29336,-0.22505 0.44004,-0.86684 0.44006,-1.32499 -10e-6,-0.45411 -0.14669,-0.7937 -0.44006,-1.01875 -0.28936,-0.22505 -0.76533,-0.33757 -1.36009,-0.33758 l -2.21988,0 m -1,-1.00067 3.11052,0 c 0.92833,10e-6 1.64367,0.19291 2.14603,0.5787 0.50233,0.38581 0.75351,0.93437 0.75351,1.64568 0,0.55058 -0.1286,1.28883 -0.3858,1.61434 -0.25721,0.32553 -0.63497,0.52847 -1.13329,0.60884 1.24701,0.30952 1.86472,1.17136 1.89284,2.0327 -1e-5,0.80375 -0.27328,1.42465 -0.81983,1.8627 -0.54656,0.43804 -1.32419,0.65706 -2.33289,0.65706 l -3.23109,0 0,-9.00002"
         style="fill:#f2f2f2;fill-opacity:1"
         id="path3881"
         inkscape:connector-curvature="0"
         sodipodi:nodetypes="ccscscccccsccccccccsscccscc" />
    </g>
    <path
       style="color:#000000;fill:#f2f2f2;fill-opacity:1;fill-rule:nonzero;stroke:none;stroke-width:2;marker:none;visibility:visible;display:inline;overflow:visible;enable-background:accumulate"
       d="M 22 17 L 22 25 L 18 25 L 18 26 L 27 26 L 27 25 L 23 25 L 23 20 L 27 20 L 27 19 L 23 19 L 23 17 L 22 17 z "
       transform="translate(384.57143,515.798)"
       id="rect3883" />
  </g>
</svg>
