<?xml version="1.0" encoding="UTF-8" standalone="no"?>

<!-- Created with Inkscape (http://www.inkscape.org/) -->
<svg width="32" version="1.1" xmlns="http://www.w3.org/2000/svg" height="32" viewBox="0 0 32 32" xmlns:xlink="http://www.w3.org/1999/xlink" xmlns:inkscape="http://www.inkscape.org/namespaces/inkscape">
 <defs id="defs5455">
  <linearGradient inkscape:collect="always" id="linearGradient4430">
   <stop style="stop-color:#404245" id="stop4432"/>
   <stop offset="1" style="stop-color:#585d60" id="stop4434"/>
  </linearGradient>
  <linearGradient inkscape:collect="always" xlink:href="#linearGradient4400" id="linearGradient4244" y1="521.79803" x1="397.57144" y2="537.79797" x2="413.57141" gradientUnits="userSpaceOnUse" gradientTransform="matrix(1 0 0 1 -384.57143 -512.798)"/>
  <linearGradient inkscape:collect="always" xlink:href="#linearGradient4159" id="linearGradient4191" y1="525.79797" y2="527.79797" x2="0" gradientUnits="userSpaceOnUse" gradientTransform="matrix(1 0 0 1 -0.000012 3)"/>
  <linearGradient inkscape:collect="always" id="linearGradient4159">
   <stop style="stop-color:#2a2c2f" id="stop4161"/>
   <stop offset="1" style="stop-color:#424649" id="stop4163"/>
  </linearGradient>
  <linearGradient inkscape:collect="always" xlink:href="#linearGradient4430" id="linearGradient4329" y1="28" x1="15" y2="8" x2="14" gradientUnits="userSpaceOnUse"/>
  <linearGradient inkscape:collect="always" id="linearGradient4400">
   <stop style="stop-color:#020303" id="stop4402"/>
   <stop offset="1" style="stop-color:#424649;stop-opacity:0" id="stop4404"/>
  </linearGradient>
  <linearGradient inkscape:collect="always" id="linearGradient4303">
   <stop style="stop-color:#989a9b" id="stop4305"/>
   <stop offset="1" style="stop-color:#f6f6f7" id="stop4307"/>
  </linearGradient>
  <linearGradient inkscape:collect="always" xlink:href="#linearGradient4303" id="linearGradient4556" y1="25" y2="6.00003" x2="0" gradientUnits="userSpaceOnUse" gradientTransform="matrix(1 0 0 1 384.57143 518.798)"/>
  <linearGradient inkscape:collect="always" xlink:href="#linearGradient4430" id="linearGradient4583" y1="26" y2="6" x2="0" gradientUnits="userSpaceOnUse" gradientTransform="matrix(1 0 0 1 0 2)"/>
  <linearGradient inkscape:collect="always" id="linearGradient4303-6">
   <stop style="stop-color:#c6cdd1" id="stop4305-7"/>
   <stop offset="1" style="stop-color:#e0e5e7" id="stop4307-0"/>
  </linearGradient>
  <linearGradient inkscape:collect="always" id="linearGradient4643-8" xlink:href="#linearGradient4303-6" y1="543.79797" y2="502.65509" x2="0" gradientUnits="userSpaceOnUse" gradientTransform="matrix(0.66666726 0 0 0.63518419 128.19014 198.51873)"/>
  <linearGradient inkscape:collect="always" id="linearGradient4183" xlink:href="#linearGradient4293" y1="525.79797" y2="540.79797" x1="391.57144" gradientUnits="userSpaceOnUse" x2="406.57147" gradientTransform="matrix(1 0 0 1 -0.000007 0.000029)"/>
  <linearGradient inkscape:collect="always" id="linearGradient4293">
   <stop id="stop4295"/>
   <stop offset="1" style="stop-opacity:0" id="stop4297"/>
  </linearGradient>
  <linearGradient inkscape:collect="always" xlink:href="#linearGradient4159" id="linearGradient4251" y1="543.79797" y2="523.79797" x2="0" gradientUnits="userSpaceOnUse"/>
 </defs>
 <metadata id="metadata5458"/>
 <g inkscape:label="Capa 1" inkscape:groupmode="layer" id="layer1" transform="matrix(1 0 0 1 -384.57143 -515.798)">
  <rect width="32" x="384.57144" y="517.79797" rx="0" height="28" style="fill:url(#linearGradient4643-8)" id="rect4641-5"/>
  <path inkscape:connector-curvature="0" style="fill:url(#linearGradient4183);opacity:0.2;fill-rule:evenodd" id="path4167" d="m 385.57142,543.79803 30,-20 1.00001,1 -1e-5,20.99997 -29,3e-5 z"/>
  <rect width="32.00001" x="384.57141" y="517.79797" height="4" style="fill:#566069" id="rect4647-8"/>
  <rect width="31.999968" x="384.57141" y="521.79797" height="1" style="fill:#3daee9" id="rect4649-8"/>
  <rect width="30" x="385.57141" y="523.79797" height="20.00003" style="fill:url(#linearGradient4251)" id="rect4653-5"/>
  <rect width="2" x="413.57141" y="518.79797" rx="1" height="2" style="fill:#eff0f1" id="rect4661-1"/>
  <path style="fill:url(#linearGradient4244);opacity:0.2;fill-rule:evenodd" id="path4236" d="M 17 9 L 12.556641 27.755859 L 14.800781 30 L 30 30 L 30 22 L 17 9 z " transform="matrix(1 0 0 1 384.57143 515.798)"/>
  <path inkscape:connector-curvature="0" style="fill:url(#linearGradient4329);stroke-linecap:square;stroke-width:0.1" id="rect4315" d="m 8,8 0,3 -7,0 0,1 7,0 0,12 -7,0 0,1 7,0 0,3 1,0 0,-3 14,0 0,3 1,0 0,-3 7,0 0,-1 -7,0 0,-12 7,0 0,-1 -7,0 0,-3 -1,0 0,3 -14,0 0,-3 z m 1,4 14,0 0,12 -14,0 z" transform="matrix(1 0 0 1 384.57143 515.798)"/>
  <path inkscape:connector-curvature="0" style="fill:url(#linearGradient4583);stroke-linecap:square;stroke-width:0.1" id="path4560" d="M 10.783203,8 C 8.980226,12.020931 5.3282608,14.90882 1,15.736328 l 0,1.027344 C 5.890172,15.899421 9.9979265,12.592731 11.886719,8 Z M 31,19.236328 C 26.112033,20.10242 22.006847,23.408824 20.119141,28 l 1.103515,0 C 23.024484,23.98056 26.673937,21.092928 31,20.263672 Z" transform="matrix(1 0 0 1 384.57143 515.798)"/>
  <path inkscape:connector-curvature="0" style="fill:url(#linearGradient4556);stroke-linecap:square;stroke-width:0.1" id="rect4530" d="m 399.57143,524.798 0,2.17383 a 3,3 0 0 0 -2,2.82617 3,3 0 0 0 1.52539,2.60937 l -1.44336,5.39063 -1.08203,0 0,1 0.81445,0 -0.80859,3.01562 0.57227,1.71875 1.26953,-4.73437 4.30273,0 1.26758,4.73437 0.57226,-1.71875 -0.80859,-3.01562 0.81836,0 0,-1 -1.08594,0 -1.44336,-5.38867 a 3,3 0 0 0 1.5293,-2.61133 3,3 0 0 0 -2,-2.82422 l 0,-2.17578 -2,0 z m 0.46875,7.94922 a 3,3 0 0 0 0.53125,0.0508 3,3 0 0 0 0.5293,-0.0469 l 1.35156,5.04688 -3.76563,0 1.35352,-5.05078 z"/>
  <circle cx="400.57144" cy="529.79773" style="shape-rendering:auto;color-interpolation-filters:linearRGB;fill:url(#linearGradient4191);image-rendering:auto;text-rendering:auto;color:#000000;color-rendering:auto;color-interpolation:sRGB" r="1" id="path4234"/>
 </g>
</svg>
