<svg viewBox="0 0 22 22" xmlns="http://www.w3.org/2000/svg">
    <style
        type="text/css"
        id="current-color-scheme">
        .ColorScheme-Text {
            color:#232629;
        }
    </style>
    <g style="fill:currentColor;fill-opacity:1;stroke:none" class="ColorScheme-Text">
        <path d="m5 3v16h12v-16zm4 1h4a3 3 0 0 1 3 3v2.088a1.5 1.5 0 0 0 -1 1.412 1.5 1.5 0 0 0 1 1.412v2.088l-2 2h-6l-2-2v-2.088a1.5 1.5 0 0 0 1-1.412 1.5 1.5 0 0 0 -1-1.412v-2.088a3 3 0 0 1 3-3zm-2 13h4v1h-4zm6 0h2v1h-2z"/>
        <path d="m11 6-4.0000004 8h2.0000004l4-8z"/>
        <rect height="1" width="4" x="11" y="13"/>
    </g>
</svg>
