<svg xmlns="http://www.w3.org/2000/svg" viewBox="0 0 22 22">
  <defs id="defs3051">
    <style type="text/css" id="current-color-scheme">
      .ColorScheme-Text {
        color:#eff0f1;
      }
      </style>
  </defs>
 <path 
     style="fill:currentColor;fill-opacity:1;stroke:none" 
	d="m11 3c-4.431998 0-8 3.568002-8 8 0 4.431998 3.568002 8 8 8 4.431998 0 8-3.568002 8-8 0-4.431998-3.568002-8-8-8m0 1c3.877999 0 7 3.122001 7 7 0 3.877999-3.122001 7-7 7-3.877999 0-7-3.122001-7-7 0-3.877999 3.122001-7 7-7m-1 1v7h1 5v-1h-5v-6h-1"
	 class="ColorScheme-Text"
     />
</svg>
