<svg version="1.1" viewBox="0 0 22 22" xmlns="http://www.w3.org/2000/svg">
    <style id="current-color-scheme" type="text/css">.ColorScheme-Text {
            color:#eff0f1;
        }
        .ColorScheme-Highlight {
            color:#3daee9;
        }</style>
    <rect x="9" y="4" width="4" height="7" class="ColorScheme-Highlight" fill="currentColor" fill-rule="evenodd"/>
    <path class="ColorScheme-Text" d="M10 3a5 5 0 0 0-5 5v6a5 5 0 0 0 5 5h2a5 5 0 0 0 5-5V8a5 5 0 0 0-5-5zm0 1h2a4 4 0 0 1 4 4v6a4 4 0 0 1-4 4h-2a4 4 0 0 1-4-4V8a4 4 0 0 1 4-4z" fill="currentColor"/>
</svg>
