<svg id="svg21" version="1.1" viewBox="0 0 22 22" xmlns="http://www.w3.org/2000/svg">
    <style id="current-color-scheme" type="text/css">.ColorScheme-Text{color:#eff0f1;}</style>
    <g id="g19" class="ColorScheme-Text" transform="matrix(3.7795276,0,0,3.7795276,0,-1100.5196)" fill="currentColor">
        <path id="path3" transform="matrix(.26458333 0 0 .26458333 0 291.17915)" d="m 15,10 v 7.085938 L 12.707031,14.792969 12,15.5 15.5,19 19,15.5 18.292969,14.792969 16,17.085938 V 10 Z"/>
        <path id="path5" d="m0.79374999 291.9729v0.26458h1.8520833v-0.26458z"/>
        <path id="path7" d="m0.79374999 292.76665v0.26458h1.3229167v-0.26458z"/>
        <path id="path9" d="m0.79374999 293.5604v0.26458h1.8520833v-0.26458z"/>
        <path id="path11" d="m0.79375004 296.20623v-0.26458h1.8520833v0.26458z"/>
        <path id="path13" d="m0.79375 295.41248v-0.26458h1.8520833v0.26458z"/>
        <path id="path15" d="m0.79374997 294.61873v-0.26458h1.8520833v0.26458z"/>
        <path id="path17" d="m3.175 294.61873v-1.87482l-0.6066814 0.60668-0.1870686-0.18707 0.9260416-0.92604 0.9260417 0.92604-0.1870686 0.18707-0.6066814-0.60668v1.87482z"/>
    </g>
</svg>
