<svg xmlns="http://www.w3.org/2000/svg" viewBox="0 0 22 22">
  <defs id="defs3051">
    <style type="text/css" id="current-color-scheme">
      .ColorScheme-Text {
        color:#eff0f1;
      }
      </style>
  </defs>
 <path 
    style="fill:currentColor;fill-opacity:1;stroke:none" 
    d="M 3 3 L 3 10 L 9 10 L 9 16 L 10 16 L 12 16 L 12 19 L 19 19 L 19 12 L 12 12 L 12 15 L 10 15 L 10 10 L 10 7 L 12 7 L 12 10 L 19 10 L 19 3 L 12 3 L 12 6 L 10 6 L 10 3 L 3 3 z M 4 4 L 9 4 L 9 9 L 4 9 L 4 4 z M 13 4 L 18 4 L 18 9 L 13 9 L 13 4 z "
	class="ColorScheme-Text"
    />  
</svg>
