<svg xmlns="http://www.w3.org/2000/svg" viewBox="0 0 22 22">
  <defs id="defs3051">
    <style type="text/css" id="current-color-scheme">
      .ColorScheme-Text {
        color:#eff0f1;
      }
      </style>
  </defs>
 <path 
    style="fill:currentColor;fill-opacity:1;stroke:none" 
    d="M 3 3 L 3 19 L 19 19 L 19 3 L 3 3 z M 4 4 L 18 4 L 18 18 L 4 18 L 4 4 z M 7.5 5 C 6.115 5 5 6.115 5 7.5 C 5 8.885 6.115 10 7.5 10 C 8.885 10 10 8.885 10 7.5 C 10 6.115 8.885 5 7.5 5 z M 7.5 6 C 8.331 6 9 6.669 9 7.5 C 9 8.331 8.331 9 7.5 9 C 6.669 9 6 8.331 6 7.5 C 6 6.669 6.669 6 7.5 6 z M 13.994141 10 L 10.648438 13.34375 L 9.3066406 12 L 9.3007812 12.007812 L 9.2929688 12 L 5 16.292969 L 5.7070312 17 L 9.2988281 13.408203 L 9.9414062 14.050781 L 10.648438 14.757812 L 11.355469 14.050781 L 14 11.40625 L 16.292969 13.699219 L 17 12.992188 L 14.007812 10 L 14 10.007812 L 13.994141 10 z "
	class="ColorScheme-Text"
    />  
</svg>
