<svg xmlns="http://www.w3.org/2000/svg" viewBox="0 0 22 22">
  <defs id="defs3051">
    <style type="text/css" id="current-color-scheme">
      .ColorScheme-Text {
        color:#eff0f1;
      }
      </style>
  </defs>
 <path 
     style="fill:currentColor;fill-opacity:1;stroke:none" 
     d="M 3,3 3,4 3,7 4,7 4,4 7,4 7,3 4,3 Z m 8,0 -2,2 4,0 z m 4,0 0,1 3,0 0,3 1,0 0,-3 0,-1 -1,0 z m -9,3 0,5 0,5 5,0 5,0 0,-5 0,-5 -5,0 z m 1,1 4,0 0,4 -4,0 z m -2,2 -2,2 2,2 z m 12,0 0,4 2,-2 z m -6,2 4,0 0,4 -4,0 z m -8,4 0,3 0,1 4,0 0,-1 -3,0 0,-3 z m 15,0 0,3 -3,0 0,1 4,0 0,-1 0,-3 z m -9,2 2,2 2,-2 z"
	 class="ColorScheme-Text"
     />
</svg>
