<svg id="svg6" version="1.1" viewBox="0 0 22 22" xmlns="http://www.w3.org/2000/svg">
    <defs id="defs3051">
        <style id="current-color-scheme" type="text/css">.ColorScheme-Text {
        color:#eff0f1;
      }</style>
    </defs>
    <path id="path4" class="ColorScheme-Text" d="m3 3v2h1v-1h1v-1zm5 0v1h2v-1zm8.171875 0.6699219-0.707031 0.7070312 1.621094 1.6210938h-4.65625v1h4.65625l-1.621094 1.6230471 0.707031 0.707031 2.121094-2.1230469 0.707031-0.7070312zm-13.171875 4.3300781v2h1v-2zm15 4v2h1v-2zm-15 1v6h6v-6zm1 1h4v4h-4zm14 3v1h-1v1h2v-2zm-6 1v1h2v-1z" fill="currentColor"/>
</svg>
