<svg xmlns="http://www.w3.org/2000/svg" viewBox="0 0 16 16">
  <defs id="defs3051">
    <style type="text/css" id="current-color-scheme">
      .ColorScheme-Text {
        color:#eff0f1;
      }
      </style>
  </defs>
  
    <path style="fill:currentColor;fill-opacity:1;stroke:none" 
          d="m 5,1038.3622 0,6 -1,0 0,1 0,4 0,1 1,0 6,0 1,0 0,-1 0,-4 0,-1 -1,0 0,-6 -6,0 z m 1,2 1,0 0,3 -1,0 0,-3 z m 3,0 1,0 0,3 -1,0 0,-3 z m -4,5 6,0 0,4 -6,0 0,-4 z m 1,2 0,1 4,0 0,-1 -4,0 z" 
          transform="translate(0,-1036.3622)"
          class="ColorScheme-Text"
          />
</svg>
