<svg xmlns="http://www.w3.org/2000/svg" viewBox="0 0 16 16">
  <defs id="defs3051">
    <style type="text/css" id="current-color-scheme">
      .ColorScheme-Text {
        color:#eff0f1;
      }
      </style>
  </defs>
    <path
       style="fill:currentColor;fill-opacity:1;stroke:none" 
       d="M 8 2 C 4.6862915 2 2 4.6862915 2 8 C 2 11.313708 4.6862915 14 8 14 L 8 13 C 5.2385763 13 3 10.761424 3 8 C 3 5.2385763 5.2385763 3 8 3 C 10.761424 3 13 5.2385763 13 8 L 14 8 C 14 4.6862915 11.313708 2 8 2 z M 8 6 C 6.8954305 6 6 6.8954305 6 8 C 6 9.1045695 6.8954305 10 8 10 L 8 9 C 7.4477153 9 7 8.5522847 7 8 C 7 7.4477153 7.4477153 7 8 7 C 8.5522847 7 9 7.4477153 9 8 L 10 8 C 10 6.8954305 9.1045695 6 8 6 z M 11 8 L 11 11.09375 C 10.845681 11.040108 10.672589 11 10.5 11 C 9.6715729 11 9 11.671573 9 12.5 C 9 13.328427 9.6715729 14 10.5 14 C 11.328427 14 12 13.328427 12 12.5 L 12 9 L 13 9 L 12 8 L 11 8 z "
     class="ColorScheme-Text"
        />
</svg>
