<svg xmlns="http://www.w3.org/2000/svg" viewBox="0 0 16 16">
  <defs id="defs3051">
    <style type="text/css" id="current-color-scheme">
      .ColorScheme-Text {
        color:#eff0f1;
      }
      .ColorScheme-NegativeText {
        color:#da4453;
      }
      </style>
  </defs>
    <path
       style="fill:currentColor;fill-opacity:0.5;stroke:none" 
       d="M 8 2 C 5.1217226 2 2.4471588 2.8167177 0.16796875 4.2109375 L 0.79882812 4.9980469 C 2.902248 3.7369058 5.3590869 3 8 3 C 10.640918 3 13.097755 3.7369049 15.201172 4.9980469 L 15.832031 4.2109375 C 13.552841 2.8167214 10.878283 2 8 2 z M 8 5 C 5.8435991 5 3.8425681 5.6235825 2.1484375 6.6875 L 2.7792969 7.4726562 C 4.2984285 6.5437457 6.0817927 6 8 6 C 9.9182124 6 11.701572 6.5437533 13.220703 7.4726562 L 13.851562 6.6875 C 12.157436 5.623599 10.156407 5 8 5 z M 8 8 C 6.5661803 8 5.2366865 8.428369 4.1289062 9.1621094 L 4.7597656 9.9492188 C 5.693648 9.3502152 6.8034854 9 8 9 C 8.6070085 9 9.191451 9.090787 9.7421875 9.2578125 L 10.515625 8.484375 C 9.7333784 8.1830619 8.8909894 8 8 8 z M 8 11 A 1.5 1.5 0 0 0 6.5 12.5 A 1.5 1.5 0 0 0 8 14 A 1.5 1.5 0 0 0 9.5 12.5 A 1.5 1.5 0 0 0 8 11 z "
       class="ColorScheme-Text"
       />
    <path
     style="fill:currentColor;fill-opacity:1;stroke:none" 
     class="ColorScheme-NegativeText"
     d="M 10.707031 9 L 10 9.7070312 L 11.792969 11.5 L 10 13.292969 L 10.707031 14 L 12.5 12.207031 L 14.292969 14 L 15 13.292969 L 13.207031 11.5 L 15 9.7070312 L 14.292969 9 L 12.5 10.792969 L 10.707031 9 z "
     />
</svg>
