<svg xmlns="http://www.w3.org/2000/svg" viewBox="0 0 16 16">
  <defs id="defs3051">
    <style type="text/css" id="current-color-scheme">
      .ColorScheme-Text {
        color:#eff0f1;
      }
      .ColorScheme-NegativeText {
        color:#da4453;
      }
      </style>
  </defs>
  <path
     style="fill:currentColor;fill-opacity:1;stroke:none" 
     class="ColorScheme-NegativeText"
     d="M 2 2 L 2 11 L 7 11 L 9 11 L 14 11 L 14 2 L 2 2 z M 3 3 L 13 3 L 13 10 L 9 10 L 7 10 L 3 10 L 3 3 z M 10 4 L 10 5 L 12 5 L 12 4 L 10 4 z M 2 12 L 2 13 L 6 13 L 6 12 L 2 12 z M 10 12 L 10 13 L 14 13 L 14 12 L 10 12 z M 7 13 L 7 14 L 9 14 L 9 13 L 7 13 z "
     />
</svg>
