<svg height="64" viewBox="0 0 64 64" width="64" xmlns="http://www.w3.org/2000/svg" xmlns:xlink="http://www.w3.org/1999/xlink"><radialGradient id="a" cx="18.520836" cy="280.06671" gradientTransform="matrix(1.924123 0 0 1.9685039 .927271 -519.31368)" gradientUnits="userSpaceOnUse" r="12.699996"><stop offset="0" stop-color="#313437"/><stop offset=".97916687" stop-color="#313437" stop-opacity=".498039"/><stop offset="1" stop-color="#313437" stop-opacity="0"/></radialGradient><linearGradient id="b" gradientTransform="matrix(1.924123 0 0 1.9685039 .927275 -519.3123)" gradientUnits="userSpaceOnUse" x1="19.049999" x2="19.049999" y1="292.50208" y2="267.63126"><stop offset="0" stop-color="#c6cdd1"/><stop offset="1" stop-color="#e0e5e7"/></linearGradient><linearGradient id="c" gradientTransform="matrix(1.924123 0 0 1.9685039 -3.145448 -519.31231)" gradientUnits="userSpaceOnUse" x1="6.614583" x2="6.614583" y1="292.76672" y2="267.36673"><stop offset="0" stop-color="#42a603"/><stop offset="1" stop-color="#78da06"/></linearGradient><linearGradient id="d" gradientTransform="matrix(1.27402 -.19577 .10158 1 -605.44329 -414.40881)" gradientUnits="userSpaceOnUse" x1="23.707218" x2="37.84013" y1="27.76189" y2="40.735416"><stop offset="0" stop-color="#ffc35a"/><stop offset="1" stop-color="#faae2a"/></linearGradient><linearGradient id="e" gradientUnits="userSpaceOnUse" x1="19.027754" x2="32.370899" y1="25.424726" y2="42.685452"><stop offset="0" stop-color="#292c2f"/><stop offset="1" stop-opacity="0"/></linearGradient><path d="m36.563637 24.708113a7.1273612 7.2917575 0 0 0 -7.12736 7.291889 7.1273612 7.2917575 0 0 0 7.12736 7.29189 7.1273612 7.2917575 0 0 0 7.127361-7.29189 7.1273612 7.2917575 0 0 0 -7.127361-7.291889zm0 5.316988a1.9303248 1.9748488 0 0 1 1.930334 1.974901 1.9303248 1.9748488 0 0 1 -1.930334 1.974902 1.9303248 1.9748488 0 0 1 -1.930333-1.974902 1.9303248 1.9748488 0 0 1 1.930333-1.974901z" fill-opacity=".156863"/><path d="m36.563637 7.0000029a24.436354 24.999992 0 0 0 -24.436365 24.9999991 24.436354 24.999992 0 0 0 24.436365 25 24.436354 24.999992 0 0 0 24.436364-25 24.436354 24.999992 0 0 0 -24.436364-24.9999991zm0 18.2291731a6.6181713 6.7708229 0 0 1 6.618182 6.770826 6.6181713 6.7708229 0 0 1 -6.618182 6.770847 6.6181713 6.7708229 0 0 1 -6.618181-6.770847 6.6181713 6.7708229 0 0 1 6.618181-6.770826z" fill="url(#a)"/><path d="m36.563637 7.5208494a23.927262 24.479157 0 0 0 -23.927274 24.4791526 23.927262 24.479157 0 0 0 23.927274 24.479173 23.927262 24.479157 0 0 0 23.927271-24.479173 23.927262 24.479157 0 0 0 -23.927271-24.4791526zm0 17.7083266a6.6181811 6.7708329 0 0 0 -.557811.02854 6.6181713 6.7708229 0 0 1  .557811-.02854zm.557812.02854a6.6181713 6.7708229 0 0 1  .341051.04272 6.6181811 6.7708329 0 0 0 -.341051-.04272zm-1.456674.04272a6.6181811 6.7708329 0 0 0 -.321165.04882 6.6181713 6.7708229 0 0 1  .321165-.04882zm2.11889.04882a6.6181713 6.7708229 0 0 1  .331109.07638 6.6181811 6.7708329 0 0 0 -.331109-.07638zm-2.771164.07638a6.6181811 6.7708329 0 0 0 -.302272.07933 6.6181713 6.7708229 0 0 1  .302272-.07933zm3.404545.07933a6.6181713 6.7708229 0 0 1  .331109.111811 6.6181811 6.7708329 0 0 0 -.331109-.111811zm-4.037926.111811a6.6181811 6.7708329 0 0 0 -.301277.111811 6.6181713 6.7708229 0 0 1  .301277-.111811zm4.670312.111811a6.6181713 6.7708229 0 0 1  .303269.13937 6.6181811 6.7708329 0 0 0 -.303269-.13937zm-5.274858.13937a6.6181811 6.7708329 0 0 0 -.298295.148426 6.6181713 6.7708229 0 0 1  .298295-.148426zm5.876422.148426a6.6181713 6.7708229 0 0 1  .275426.160629 6.6181811 6.7708329 0 0 0 -.275426-.160629zm-6.450143.160629a6.6181811 6.7708329 0 0 0 -.296306.186221 6.6181713 6.7708229 0 0 1  .296306-.186221zm7.021875.186221a6.6181713 6.7708229 0 0 1  .259518.190157 6.6181811 6.7708329 0 0 0 -.259518-.190157zm-7.577699.190157a6.6181811 6.7708329 0 0 0 -.265483.205473 6.6181713 6.7708229 0 0 1  .265483-.205473zm8.1027.205473a6.6181713 6.7708229 0 0 1  .255538.229901 6.6181811 6.7708329 0 0 0 -.255538-.229901zm-8.623722.229901a6.6181811 6.7708329 0 0 0 -.237642.225827 6.6181713 6.7708229 0 0 1  .237642-.225827zm9.116903.225827a6.6181713 6.7708229 0 0 1  .220739.24313 6.6181811 6.7708329 0 0 0 -.220739-.24313zm-9.575284.24313a6.6181811 6.7708329 0 0 0 -.224715.261437 6.6181713 6.7708229 0 0 1  .224715-.261437zm10.020738.261437a6.6181713 6.7708229 0 0 1  .200853.271614 6.6181811 6.7708329 0 0 0 -.200853-.271614zm-10.446306.271611a6.6181811 6.7708329 0 0 0 -.185928.265492 6.6181713 6.7708229 0 0 1  .185928-.265492zm10.833097.265492a6.6181713 6.7708229 0 0 1  .181964.30315 6.6181811 6.7708329 0 0 0 -.181964-.30315zm-11.200995.30315a6.6181811 6.7708329 0 0 0 -.157105.281772 6.6181713 6.7708229 0 0 1  .157105-.281772zm11.540056.281772a6.6181713 6.7708229 0 0 1  .145175.305177 6.6181811 6.7708329 0 0 0 -.145175-.305177zm-11.842328.305177a6.6181811 6.7708329 0 0 0 -.136228.310256 6.6181713 6.7708229 0 0 1  .136228-.310256zm5.993749.249232a2.5454541 2.6041663 0 0 1 2.545455 2.604154 2.5454541 2.6041663 0 0 1 -2.545455 2.604173 2.5454541 2.6041663 0 0 1 -2.545454-2.604173 2.5454541 2.6041663 0 0 1 2.545454-2.604154zm6.129973.06102a6.6181713 6.7708229 0 0 1  .109367.308228 6.6181811 6.7708329 0 0 0 -.109367-.308228zm-12.369319.308228a6.6181811 6.7708329 0 0 0 -.109368.33876 6.6181713 6.7708229 0 0 1  .109368-.33876zm12.588068.33876a6.6181713 6.7708229 0 0 1  .07756.309232 6.6181811 6.7708329 0 0 0 -.07756-.309232zm-12.774999.309236a6.6181811 6.7708329 0 0 0 -.07458.33874 6.6181713 6.7708229 0 0 1  .07458-.33874zm12.92713.33874a6.6181713 6.7708229 0 0 1  .04772.328583 6.6181811 6.7708329 0 0 0 -.04772-.328583zm-13.049431.328583a6.6181811 6.7708329 0 0 0 -.04175.348917 6.6181713 6.7708229 0 0 1  .04175-.348917zm13.138918.348917a6.6181713 6.7708229 0 0 1  .02784.57067 6.6181811 6.7708329 0 0 0 -.02784-.57067zm-13.208521.57067a6.6181811 6.7708329 0 0 0  .02784.570689 6.6181713 6.7708229 0 0 1 -.02784-.570689zm13.208521.570689a6.6181713 6.7708229 0 0 1 -.04175.348917 6.6181811 6.7708329 0 0 0  .04175-.348917zm-13.138918.348917a6.6181811 6.7708329 0 0 0  .04772.328563 6.6181713 6.7708229 0 0 1 -.04772-.328563zm13.049431.328563a6.6181713 6.7708229 0 0 1 -.07458.33876 6.6181811 6.7708329 0 0 0  .07458-.33876zm-12.92713.33876a6.6181811 6.7708329 0 0 0  .07756.309232 6.6181713 6.7708229 0 0 1 -.07756-.309232zm12.774999.309232a6.6181713 6.7708229 0 0 1 -.109367.33876 6.6181811 6.7708329 0 0 0  .109367-.33876zm-12.588068.33876a6.6181811 6.7708329 0 0 0  .109367.308208 6.6181713 6.7708229 0 0 1 -.109367-.308208zm12.369319.308208a6.6181713 6.7708229 0 0 1 -.136228.310276 6.6181811 6.7708329 0 0 0  .136228-.310276zm-12.123722.310276a6.6181811 6.7708329 0 0 0  .145175.305177 6.6181713 6.7708229 0 0 1 -.145175-.305177zm11.842328.305177a6.6181713 6.7708229 0 0 1 -.157104.281772 6.6181811 6.7708329 0 0 0  .157104-.281772zm-11.540056.281772a6.6181811 6.7708329 0 0 0  .181964.303149 6.6181713 6.7708229 0 0 1 -.181964-.303149zm11.200995.303149a6.6181713 6.7708229 0 0 1 -.185928.265493 6.6181811 6.7708329 0 0 0  .185928-.265493zm-10.833097.265493a6.6181811 6.7708329 0 0 0  .200853.271614 6.6181713 6.7708229 0 0 1 -.200853-.271614zm10.446306.271614a6.6181713 6.7708229 0 0 1 -.224715.261437 6.6181811 6.7708329 0 0 0  .224715-.261437zm-10.020738.261437a6.6181811 6.7708329 0 0 0  .220739.24311 6.6181713 6.7708229 0 0 1 -.220739-.24311zm9.575284.24311a6.6181713 6.7708229 0 0 1 -.237643.225827 6.6181811 6.7708329 0 0 0  .237643-.225827zm-9.116903.225827a6.6181811 6.7708329 0 0 0  .255539.229901 6.6181713 6.7708229 0 0 1 -.255539-.229901zm8.623722.229901a6.6181713 6.7708229 0 0 1 -.265483.205492 6.6181811 6.7708329 0 0 0  .265483-.205492zm-8.1027.205492a6.6181811 6.7708329 0 0 0  .259518.190158 6.6181713 6.7708229 0 0 1 -.259518-.190158zm7.577699.190158a6.6181713 6.7708229 0 0 1 -.296306.18622 6.6181811 6.7708329 0 0 0  .296306-.18622zm-7.021875.18622a6.6181811 6.7708329 0 0 0  .275426.16063 6.6181713 6.7708229 0 0 1 -.275426-.16063zm6.450143.16063a6.6181713 6.7708229 0 0 1 -.298295.148425 6.6181811 6.7708329 0 0 0  .298295-.148425zm-5.876422.148425a6.6181811 6.7708329 0 0 0  .303269.139371 6.6181713 6.7708229 0 0 1 -.303269-.139371zm5.274858.139371a6.6181713 6.7708229 0 0 1 -.301277.111811 6.6181811 6.7708329 0 0 0  .301277-.111811zm-4.670312.111811a6.6181811 6.7708329 0 0 0  .331109.111811 6.6181713 6.7708229 0 0 1 -.331109-.111811zm4.037926.111811a6.6181713 6.7708229 0 0 1 -.302272.07933 6.6181811 6.7708329 0 0 0  .302272-.07933zm-3.404545.07933a6.6181811 6.7708329 0 0 0  .331109.07638 6.6181713 6.7708229 0 0 1 -.331109-.07638zm2.771164.07638a6.6181713 6.7708229 0 0 1 -.321165.04882 6.6181811 6.7708329 0 0 0  .321165-.04882zm-2.11889.04882a6.6181811 6.7708329 0 0 0  .341051.04272 6.6181713 6.7708229 0 0 1 -.341051-.04272zm1.456674.04272a6.6181713 6.7708229 0 0 1 -.557812.02854 6.6181811 6.7708329 0 0 0  .557812-.02854z" fill="url(#b)"/><path d="m36.563637 8.5625029a22.90908 23.43749 0 0 0 -22.909093 23.4374991 22.90908 23.43749 0 0 0 22.909093 23.4375 22.90908 23.43749 0 0 0 22.909091-23.4375 22.90908 23.43749 0 0 0 -22.909091-23.4374991zm0 16.6666731a6.6181713 6.7708229 0 0 1 6.618182 6.770826 6.6181713 6.7708229 0 0 1 -6.618182 6.770847 6.6181713 6.7708229 0 0 1 -6.618181-6.770847 6.6181713 6.7708229 0 0 1 6.618181-6.770826zm0 1.5625a5.0908989 5.2083231 0 0 0 -5.090909 5.208326 5.0908989 5.2083231 0 0 0 5.090909 5.208347 5.0908989 5.2083231 0 0 0 5.09091-5.208347 5.0908989 5.2083231 0 0 0 -5.09091-5.208326zm0 2.604173a2.5454444 2.6041564 0 0 1 2.545455 2.604153 2.5454444 2.6041564 0 0 1 -2.545455 2.604174 2.5454444 2.6041564 0 0 1 -2.545454-2.604174 2.5454444 2.6041564 0 0 1 2.545454-2.604153z" fill="#31363b"/><g fill="#4c5053"><path d="m47.445449 12.717365c-1.112003-.656575-2.260408-1.177244-3.42447-1.613071l-3.968804 10.978799c.566545.211339 1.125106.463465 1.665995.78311.540886.319095 1.034855.687481 1.496001 1.08437l7.309018-9.005472c-.951013-.813307-1.965732-1.570649-3.07774-2.227736z"/><path d="m25.681822 51.28266c-1.112008-.657087-2.126775-1.413937-3.077748-2.227717l7.309026-9.005472c.461147.396929.955115.765197 1.495953 1.08435.540889.319449 1.099454.57311 1.666043.78313l-3.968804 10.978799c-1.164062-.435827-2.312509-.956516-3.42447-1.61309z"/><g fill-opacity=".19774"><path d="m21.174383 47.743979c-.907934-.928583-1.696497-1.928721-2.409321-2.966122l9.338302-6.763859c.344899.50567.72899.992008 1.17064 1.44378.4416.451791.916964.844921 1.41109 1.197657l-6.610975 9.553642c-1.014164-.729114-1.991796-1.536024-2.899736-2.465098z"/><path d="m55.411491 20.86705c-.64202-1.1375-1.382238-2.175669-2.177301-3.148425l-8.80268 7.477401c.387986.471988.747805.977107 1.060053 1.53061.31237.553504.560193 1.124902.765515 1.70437l10.731134-4.060492c-.426001-1.190708-.934703-2.365452-1.576721-3.503464z"/><path d="m17.715732 43.132975c-.641972-1.138012-1.15067-2.312756-1.576673-3.503465l10.731086-4.060492c.205291.579469.453266 1.151358.765563 1.70437.312335.553504.672021 1.058642 1.060005 1.53061l-8.802632 7.477422c-.795111-.972776-1.535325-2.010945-2.177349-3.148445z"/></g></g><path d="m36.563635 25.75001a6.1090907 6.2500001 0 0 0 -6.109091 6.25 6.1090907 6.2500001 0 0 0 6.109091 6.25 6.1090907 6.2500001 0 0 0 6.109091-6.25 6.1090907 6.2500001 0 0 0 -6.109091-6.25zm0 .520833a5.5999998 5.7291667 0 0 1 5.6 5.729167 5.5999998 5.7291667 0 0 1 -5.6 5.729167 5.5999998 5.7291667 0 0 1 -5.6-5.729167 5.5999998 5.7291667 0 0 1 5.6-5.729167z" fill-opacity=".078431"/><path d="m5 7.0000029v49.9999991h48.872725v-21.354153h-4.581818c-1.974254 0-3.563635-1.626043-3.563635-3.645847 0-2.019783 1.589381-3.645826 3.563635-3.645826h4.581818v-21.3541731h-48.872725z" fill="url(#c)"/><path d="m53.363635 7.0000029v20.8333461h-4.581818c-1.974254 0-3.563635 1.626024-3.563635 3.645827 0 1.142972.509867 2.159468 1.309515 2.826948-.500516-.627598-.800425-1.429291-.800425-2.306122 0-2.019783 1.589381-3.645826 3.563635-3.645826h4.581818v-21.3541731zm0 28.6458461v20.354153h-48.3636346l-.0000004 1h48.872725v-21.354153z" fill-opacity=".313725"/><path d="m5 7.0000029.0000004 1h48.3636346v-1zm40.740198 25.2604331c-.006.08642-.01289.17244-.01289.260413 0 2.019783 1.589382 3.645827 3.563636 3.645827h4.581818v-.520827h-4.581818c-1.888175 0-3.420346-1.48878-3.550709-3.385413z" fill="#fff" fill-opacity=".235294"/><path d="m37 21 8 8v20h-23l-6-7 6-3 10 10h9l-10-10 6-4z" fill="url(#e)" fill-rule="evenodd" opacity=".2"/><path d="m21 21v16.05c-.635-.648-1.517-1.053-2.5-1.053-1.939 0-3.5 1.561-3.5 3.5s1.561 3.5 3.5 3.5c1.905 0 3.437-1.509 3.49-3.4h.01v-13.6h14v8.05c-.635-.648-1.517-1.053-2.5-1.053-1.939 0-3.5 1.561-3.5 3.5s1.561 3.5 3.5 3.5 3.5-1.561 3.5-3.5v-15.5h-15zm1 2h14v2h-14z" fill="url(#d)"/></svg>