<svg height="64" viewBox="0 0 64 64" width="64" xmlns="http://www.w3.org/2000/svg" xmlns:xlink="http://www.w3.org/1999/xlink"><radialGradient id="a" cx="21.166668" cy="280.066016" gradientUnits="userSpaceOnUse" r="12.699996"><stop offset="0" stop-color="#313437"/><stop offset=".97916687" stop-color="#313437" stop-opacity=".498039"/><stop offset="1" stop-color="#313437" stop-opacity="0"/></radialGradient><linearGradient id="b" gradientUnits="userSpaceOnUse" x1="21.695833" x2="21.695833" y1="292.502085" y2="267.631265"><stop offset="0" stop-color="#c6cdd1"/><stop offset="1" stop-color="#e0e5e7"/></linearGradient><linearGradient id="c" gradientUnits="userSpaceOnUse" x1="29.633334" x2="29.633334" y1="282.712544" y2="278.479204"><stop offset="0" stop-color="#ccc"/><stop offset="1" stop-color="#ccc" stop-opacity="0"/></linearGradient><linearGradient id="d" gradientUnits="userSpaceOnUse" x1="4.762501" x2="4.762501" y1="292.766722" y2="267.366732"><stop offset="0" stop-color="#197cf1"/><stop offset="1" stop-color="#20bcfa"/></linearGradient><linearGradient id="e" gradientUnits="userSpaceOnUse" x1="3.968751" x2="8.202082" y1="269.218737" y2="273.451999"><stop offset="0" stop-color="#292c2f"/><stop offset="1" stop-opacity="0"/></linearGradient><linearGradient id="f" gradientUnits="userSpaceOnUse" x1="10.99999" x2="10.99999" y1="17" y2="1"><stop offset="0" stop-color="#7cbaf8"/><stop offset="1" stop-color="#f4fcff"/></linearGradient><g transform="matrix(1.924123 0 0 1.9685039 .418185 -519.31231)"><g transform="translate(-2.381251)"><path d="m21.166667 276.36238a3.7042129 3.7042129 0 0 0 -3.704212 3.70428 3.7042129 3.7042129 0 0 0 3.704212 3.70428 3.7042129 3.7042129 0 0 0 3.704213-3.70428 3.7042129 3.7042129 0 0 0 -3.704213-3.70428zm0 2.70103a1.0032232 1.0032232 0 0 1 1.003228 1.00325 1.0032232 1.0032232 0 0 1 -1.003228 1.00325 1.0032232 1.0032232 0 0 1 -1.003227-1.00325 1.0032232 1.0032232 0 0 1 1.003227-1.00325z" fill-opacity=".156863"/><path d="m21.166667 267.36666a12.699996 12.699996 0 0 0 -12.7000011 12.7 12.699996 12.699996 0 0 0 12.7000011 12.7 12.699996 12.699996 0 0 0 12.700001-12.7 12.699996 12.699996 0 0 0 -12.700001-12.7zm0 9.26042a3.4395781 3.4395781 0 0 1 3.439584 3.43958 3.4395781 3.4395781 0 0 1 -3.439584 3.43959 3.4395781 3.4395781 0 0 1 -3.439583-3.43959 3.4395781 3.4395781 0 0 1 3.439583-3.43958z" fill="url(#a)"/><path d="m21.166667 267.63125a12.435412 12.435412 0 0 0 -12.4354181 12.43541 12.435412 12.435412 0 0 0 12.4354181 12.43542 12.435412 12.435412 0 0 0 12.435417-12.43542 12.435412 12.435412 0 0 0 -12.435417-12.43541zm0 8.99583a3.4395832 3.4395832 0 0 0 -.289904.0145 3.4395781 3.4395781 0 0 1  .289904-.0145zm.289905.0145a3.4395781 3.4395781 0 0 1  .17725.0217 3.4395832 3.4395832 0 0 0 -.17725-.0217zm-.757059.0217a3.4395832 3.4395832 0 0 0 -.166915.0248 3.4395781 3.4395781 0 0 1  .166915-.0248zm1.101224.0248a3.4395781 3.4395781 0 0 1  .172083.0388 3.4395832 3.4395832 0 0 0 -.172083-.0388zm-1.440222.0388a3.4395832 3.4395832 0 0 0 -.157096.0403 3.4395781 3.4395781 0 0 1  .157096-.0403zm1.769401.0403a3.4395781 3.4395781 0 0 1  .172083.0568 3.4395832 3.4395832 0 0 0 -.172083-.0568zm-2.09858.0568a3.4395832 3.4395832 0 0 0 -.156579.0568 3.4395781 3.4395781 0 0 1  .156579-.0568zm2.427242.0568a3.4395781 3.4395781 0 0 1  .157614.0708 3.4395832 3.4395832 0 0 0 -.157614-.0708zm-2.741435.0708a3.4395832 3.4395832 0 0 0 -.155029.0754 3.4395781 3.4395781 0 0 1  .155029-.0754zm3.054078.0754a3.4395781 3.4395781 0 0 1  .143144.0816 3.4395832 3.4395832 0 0 0 -.143144-.0816zm-3.352251.0816a3.4395832 3.4395832 0 0 0 -.153995.0946 3.4395781 3.4395781 0 0 1  .153995-.0946zm3.64939.0946a3.4395781 3.4395781 0 0 1  .134876.0966 3.4395832 3.4395832 0 0 0 -.134876-.0966zm-3.938261.0966a3.4395832 3.4395832 0 0 0 -.137976.10438 3.4395781 3.4395781 0 0 1  .137976-.10438zm4.211113.10438a3.4395781 3.4395781 0 0 1  .132808.11679 3.4395832 3.4395832 0 0 0 -.132808-.11679zm-4.481897.11679a3.4395832 3.4395832 0 0 0 -.123507.11472 3.4395781 3.4395781 0 0 1  .123507-.11472zm4.738212.11472a3.4395781 3.4395781 0 0 1  .114722.12351 3.4395832 3.4395832 0 0 0 -.114722-.12351zm-4.976441.12351a3.4395832 3.4395832 0 0 0 -.116788.13281 3.4395781 3.4395781 0 0 1  .116788-.13281zm5.207951.13281a3.4395781 3.4395781 0 0 1  .104387.13798 3.4395832 3.4395832 0 0 0 -.104387-.13798zm-5.429126.13798a3.4395832 3.4395832 0 0 0 -.09663.13487 3.4395781 3.4395781 0 0 1  .09663-.13487zm5.630148.13487a3.4395781 3.4395781 0 0 1  .09457.154 3.4395832 3.4395832 0 0 0 -.09457-.154zm-5.821351.154a3.4395832 3.4395832 0 0 0 -.08165.14314 3.4395781 3.4395781 0 0 1  .08165-.14314zm5.997567.14314a3.4395781 3.4395781 0 0 1  .07545.15503 3.4395832 3.4395832 0 0 0 -.07545-.15503zm-6.154663.15503a3.4395832 3.4395832 0 0 0 -.0708.15761 3.4395781 3.4395781 0 0 1  .0708-.15761zm3.115055.12661a1.3229165 1.3229165 0 0 1 1.322917 1.32291 1.3229165 1.3229165 0 0 1 -1.322917 1.32292 1.3229165 1.3229165 0 0 1 -1.322916-1.32292 1.3229165 1.3229165 0 0 1 1.322916-1.32291zm3.185853.031a3.4395781 3.4395781 0 0 1  .05684.15658 3.4395832 3.4395832 0 0 0 -.05684-.15658zm-6.428549.15658a3.4395832 3.4395832 0 0 0 -.05684.17209 3.4395781 3.4395781 0 0 1  .05684-.17209zm6.542237.17209a3.4395781 3.4395781 0 0 1  .04031.15709 3.4395832 3.4395832 0 0 0 -.04031-.15709zm-6.639388.15709a3.4395832 3.4395832 0 0 0 -.03876.17208 3.4395781 3.4395781 0 0 1  .03876-.17208zm6.718453.17208a3.4395781 3.4395781 0 0 1  .0248.16692 3.4395832 3.4395832 0 0 0 -.0248-.16692zm-6.782015.16692a3.4395832 3.4395832 0 0 0 -.0217.17725 3.4395781 3.4395781 0 0 1  .0217-.17725zm6.828523.17725a3.4395781 3.4395781 0 0 1  .01447.2899 3.4395832 3.4395832 0 0 0 -.01447-.2899zm-6.864697.2899a3.4395832 3.4395832 0 0 0  .01447.28991 3.4395781 3.4395781 0 0 1 -.01447-.28991zm6.864697.28991a3.4395781 3.4395781 0 0 1 -.0217.17725 3.4395832 3.4395832 0 0 0  .0217-.17725zm-6.828523.17725a3.4395832 3.4395832 0 0 0  .0248.16691 3.4395781 3.4395781 0 0 1 -.0248-.16691zm6.782015.16691a3.4395781 3.4395781 0 0 1 -.03876.17209 3.4395832 3.4395832 0 0 0  .03876-.17209zm-6.718453.17209a3.4395832 3.4395832 0 0 0  .04031.15709 3.4395781 3.4395781 0 0 1 -.04031-.15709zm6.639388.15709a3.4395781 3.4395781 0 0 1 -.05684.17209 3.4395832 3.4395832 0 0 0  .05684-.17209zm-6.542237.17209a3.4395832 3.4395832 0 0 0  .05684.15657 3.4395781 3.4395781 0 0 1 -.05684-.15657zm6.428549.15657a3.4395781 3.4395781 0 0 1 -.0708.15762 3.4395832 3.4395832 0 0 0  .0708-.15762zm-6.300908.15762a3.4395832 3.4395832 0 0 0  .07545.15503 3.4395781 3.4395781 0 0 1 -.07545-.15503zm6.154663.15503a3.4395781 3.4395781 0 0 1 -.08165.14314 3.4395832 3.4395832 0 0 0  .08165-.14314zm-5.997567.14314a3.4395832 3.4395832 0 0 0  .09457.154 3.4395781 3.4395781 0 0 1 -.09457-.154zm5.821351.154a3.4395781 3.4395781 0 0 1 -.09663.13487 3.4395832 3.4395832 0 0 0  .09663-.13487zm-5.630148.13487a3.4395832 3.4395832 0 0 0  .104387.13798 3.4395781 3.4395781 0 0 1 -.104387-.13798zm5.429126.13798a3.4395781 3.4395781 0 0 1 -.116788.13281 3.4395832 3.4395832 0 0 0  .116788-.13281zm-5.207951.13281a3.4395832 3.4395832 0 0 0  .114722.1235 3.4395781 3.4395781 0 0 1 -.114722-.1235zm4.976441.1235a3.4395781 3.4395781 0 0 1 -.123507.11472 3.4395832 3.4395832 0 0 0  .123507-.11472zm-4.738212.11472a3.4395832 3.4395832 0 0 0  .132808.11679 3.4395781 3.4395781 0 0 1 -.132808-.11679zm4.481897.11679a3.4395781 3.4395781 0 0 1 -.137976.10439 3.4395832 3.4395832 0 0 0  .137976-.10439zm-4.211113.10439a3.4395832 3.4395832 0 0 0  .134876.0966 3.4395781 3.4395781 0 0 1 -.134876-.0966zm3.938261.0966a3.4395781 3.4395781 0 0 1 -.153995.0946 3.4395832 3.4395832 0 0 0  .153995-.0946zm-3.64939.0946a3.4395832 3.4395832 0 0 0  .143144.0816 3.4395781 3.4395781 0 0 1 -.143144-.0816zm3.352251.0816a3.4395781 3.4395781 0 0 1 -.155029.0754 3.4395832 3.4395832 0 0 0  .155029-.0754zm-3.054078.0754a3.4395832 3.4395832 0 0 0  .157614.0708 3.4395781 3.4395781 0 0 1 -.157614-.0708zm2.741435.0708a3.4395781 3.4395781 0 0 1 -.156579.0568 3.4395832 3.4395832 0 0 0  .156579-.0568zm-2.427242.0568a3.4395832 3.4395832 0 0 0  .172083.0568 3.4395781 3.4395781 0 0 1 -.172083-.0568zm2.09858.0568a3.4395781 3.4395781 0 0 1 -.157096.0403 3.4395832 3.4395832 0 0 0  .157096-.0403zm-1.769401.0403a3.4395832 3.4395832 0 0 0  .172083.0388 3.4395781 3.4395781 0 0 1 -.172083-.0388zm1.440222.0388a3.4395781 3.4395781 0 0 1 -.166915.0248 3.4395832 3.4395832 0 0 0  .166915-.0248zm-1.101224.0248a3.4395832 3.4395832 0 0 0  .17725.0217 3.4395781 3.4395781 0 0 1 -.17725-.0217zm.757059.0217a3.4395781 3.4395781 0 0 1 -.289905.0145 3.4395832 3.4395832 0 0 0  .289905-.0145z" fill="url(#b)"/><path d="m21.166667 268.16041a11.906245 11.906245 0 0 0 -11.9062514 11.90625 11.906245 11.906245 0 0 0 11.9062514 11.90625 11.906245 11.906245 0 0 0 11.906251-11.90625 11.906245 11.906245 0 0 0 -11.906251-11.90625zm0 8.46667a3.4395781 3.4395781 0 0 1 3.439584 3.43958 3.4395781 3.4395781 0 0 1 -3.439584 3.43959 3.4395781 3.4395781 0 0 1 -3.439583-3.43959 3.4395781 3.4395781 0 0 1 3.439583-3.43958zm0 .79375a2.6458282 2.6458282 0 0 0 -2.645833 2.64583 2.6458282 2.6458282 0 0 0 2.645833 2.64584 2.6458282 2.6458282 0 0 0 2.645834-2.64584 2.6458282 2.6458282 0 0 0 -2.645834-2.64583zm0 1.32292a1.3229115 1.3229115 0 0 1 1.322917 1.32291 1.3229115 1.3229115 0 0 1 -1.322917 1.32292 1.3229115 1.3229115 0 0 1 -1.322916-1.32292 1.3229115 1.3229115 0 0 1 1.322916-1.32291z" fill="#313437"/><path d="m28.839584 278.47921v.52916 1.66037c-.07805-.0453-.1675-.0729-.264584-.0729-.293157 0-.529166.23601-.529166.52917s.236009.52917.529166.52917.529167-.23601.529167-.52917v-1.5875h1.852083v.60203c-.07805-.0453-.1675-.0729-.264583-.0729-.293157 0-.529167.23601-.529167.52916 0 .29316.23601.52917.529167.52917s.529167-.23601.529167-.52917v-2.11666h-2.38125zm.264583.52916h1.852083v.26459h-1.852083z" fill="url(#c)"/><g fill="#4c5053"><path d="m26.822133 270.27108c-.577927-.33354-1.174773-.59804-1.779756-.81944l-2.062656 5.57723c.294443.10736.584737.23544.865846.39782.281108.1621.537832.34924.777498.55086l3.798623-4.57478c-.494258-.41316-1.021625-.79789-1.599555-1.13169z"/><path d="m15.5112 289.86225c-.57793-.3338-1.105322-.71828-1.599559-1.13168l3.798627-4.57478c.239666.20164.49639.38872.777473.55085.281109.16228.571405.29114.865871.39783l-2.062656 5.57723c-.604983-.2214-1.201851-.48591-1.779756-.81945z"/><g fill-opacity=".19774"><path d="m13.168606 288.0646c-.471869-.47172-.881699-.97979-1.252166-1.50679l4.853277-3.43604c.17925.25688.378869.50394.608402.73344.229507.22951.476562.42922.733368.60841l-3.435838 4.85325c-.527079-.37039-1.035171-.7803-1.507043-1.25227z"/><path d="m30.962223 274.41112c-.333669-.57785-.718373-1.10524-1.131581-1.5994l-4.574905 3.79852c.201643.23977.388647.49637.550928.77755.162344.28118.291142.57145.397851.86582l5.577156-2.06273c-.2214-.60488-.485781-1.20165-.819449-1.77976z"/><path d="m11.371085 285.72221c-.333644-.57811-.598023-1.17488-.819424-1.77976l5.577131-2.06273c.106693.29437.23557.58489.397876.86582.162326.28118.349261.53779.550903.77755l-4.57488 3.79853c-.413233-.49417-.797935-1.02156-1.131606-1.59941z"/></g></g><path d="m80 52a12 12 0 0 0 -12 12 12 12 0 0 0 12 12 12 12 0 0 0 12-12 12 12 0 0 0 -12-12zm0 1a11 11 0 0 1 11 11 11 11 0 0 1 -11 11 11 11 0 0 1 -11-11 11 11 0 0 1 11-11z" fill-opacity=".078431" transform="matrix(.26458334 0 0 .26458334 -.000001 263.13333)"/></g><path d="m2.3812485 267.36666v25.4h25.4000005v-10.84791h-2.38125c-1.026054 0-1.852083-.82603-1.852083-1.85209 0-1.02605.826029-1.85208 1.852083-1.85208h2.38125v-10.84792z" fill="url(#d)"/><path d="m5.2141508 269.29625-.374138.37414 2.1166671 2.11667-.07752.0775 2.9104172 2.91042h.155029.7482749.155028v-1.5875l-1.3229152-1.32292-1.322917-1.32291-.871265.87126-2.116667-2.11667zm-.567924 1.62626-.561206.56121 1.455208 1.45521-.358117.35811 1.477945 1.47795h1.8391651z" fill="url(#e)" opacity=".2"/><path d="m7 3c-.554 0-1 .446-1 1s .446 1 1 1 1-.446 1-1-.446-1-1-1zm7 0-2 2 3 3-3 3 2 2 3-3 2-2zm-9.5 6c-.831 0-1.5.669-1.5 1.5s.669 1.5 1.5 1.5 1.5-.669 1.5-1.5-.669-1.5-1.5-1.5zm4.5 6c-1.108 0-2 .892-2 2s .892 2 2 2 2-.892 2-2-.892-2-2-2z" fill="url(#f)" transform="matrix(.26458334 0 0 .26458334 3.175001 268.424997)"/><path d="m27.516666 267.36666v10.58334h-2.38125c-1.026054 0-1.852083.82602-1.852083 1.85208 0 .58063.264987 1.09701.680578 1.43609-.260127-.31882-.415995-.72608-.415995-1.17151 0-1.02605.826029-1.85208 1.852083-1.85208h2.38125v-10.84792zm0 14.55209v10.33991h-25.1354173l-.0000002.508h25.4000005v-10.84791z" fill-opacity=".313725"/><path d="m2.3812485 267.36666.0000002.508h25.1354173v-.508zm21.1733855 12.8323c-.0031.0439-.0067.0876-.0067.13229 0 1.02605.826029 1.85208 1.852083 1.85208h2.38125v-.26458h-2.38125c-.981317 0-1.777613-.7563-1.845365-1.71979z" fill="#fff" fill-opacity=".235294"/></g></svg>