<svg xmlns="http://www.w3.org/2000/svg" viewBox="0 0 24 24">
    <defs id="defs1">
        <style type="text/css" id="current-color-scheme">
            .ColorScheme-Text {
                color:#eff0f1;
            }
        </style>
    </defs><g transform="translate(1,1)">
    <path style="fill:currentColor;fill-opacity:1;stroke:none"
        d="M5 3v16h12V3zm4 1h4a3 3 0 0 1 3 3v2.088a1.5 1.5 0 0 0-1 1.412 1.5 1.5 0 0 0 1 1.412V14l-2 2H8l-2-2v-2.088A1.5 1.5 0 0 0 7 10.5a1.5 1.5 0 0 0-1-1.412V7a3 3 0 0 1 3-3zM7 17h4v1H7zm6 0h2v1h-2z"
        class="ColorScheme-Text"/>
</g></svg>
