<svg xmlns="http://www.w3.org/2000/svg" viewBox="0 0 24 24 ">
  <defs id="defs3051">
    <style type="text/css" id="current-color-scheme">
      .ColorScheme-Text {
        color:#eff0f1;
      }
      </style>
  </defs><g transform="translate(1,1)">
    <path
       style="fill:currentColor;fill-opacity:1;stroke:none" 
       d="M 5 3 L 5 19 L 17 19 L 17 3 L 5 3 z M 6 4 L 16 4 L 16 18 L 6 18 L 6 4 z M 7 5 L 7 10 L 15 10 L 15 5 L 7 5 z M 11 11 A 3 3 0 0 0 8 14 A 3 3 0 0 0 11 17 A 3 3 0 0 0 14 14 A 3 3 0 0 0 11 11 z M 11 12 A 2 2 0 0 1 13 14 A 2 2 0 0 1 11 16 A 2 2 0 0 1 9 14 A 2 2 0 0 1 11 12 z M 11 13 A 1 1 0 0 0 10 14 A 1 1 0 0 0 11 15 A 1 1 0 0 0 12 14 A 1 1 0 0 0 11 13 z "
       class="ColorScheme-Text"/>
</g></svg>
