<svg height="22" width="22" xmlns="http://www.w3.org/2000/svg">
    <style type="text/css" id="current-color-scheme">
        .ColorScheme-Text {
            color:#eff0f1;
        }
    </style>
    <g class="ColorScheme-Text" fill="currentColor">
        <path d="M3.858 3L18 8l-.333.943-14.142-5z"/>
        <path d="M3 8v11h16V8zm1 1h14v9H4z"/>
        <path d="M4 8c0 1.662 1.338 3 3 3h8c1.662 0 3-1.338 3-3zm2 1h5v1H6zm6 0h4v1h-4zm-7 3h6v1H5zm0 2h6v1H5zm0 2h6v1H5zm9.5-4a2.5 2.5 0 0 0-2.5 2.5 2.5 2.5 0 0 0 2.5 2.5 2.5 2.5 0 0 0 2.5-2.5 2.5 2.5 0 0 0-2.5-2.5zm0 1a1.5 1.5 0 0 1 1.5 1.5 1.5 1.5 0 0 1-1.5 1.5 1.5 1.5 0 0 1-1.5-1.5 1.5 1.5 0 0 1 1.5-1.5z"/>
    </g>
</svg>
