<svg xmlns="http://www.w3.org/2000/svg" viewBox="0 0 22 22">
  <defs id="defs3051">
    <style type="text/css" id="current-color-scheme">
      .ColorScheme-Text {
        color:#eff0f1;
      }
      </style>
  </defs>
  <path
     style="fill:currentColor;fill-opacity:1;stroke:none" 
     d="M 11,3 C 6.581722,3 3,6.581722 3,11 l 0,8 1,0 0,-3 2,2 1,0 0,-6 -1,0 -2,2 0,-3 c 0,-3.8659932 3.1340068,-7 7,-7 3.865993,0 7,3.1340068 7,7 l 0,3 -2,-2 -1,0 0,6 1,0 2,-2 0,3 -4.087946,0 c -0.211633,-0.598592 -0.777207,-0.999109 -1.412109,-1 -0.828427,0 -1.5,0.671573 -1.5,1.5 0,0.828427 0.671573,1.5 1.5,1.5 0.634902,-8.91e-4 1.200476,-0.401408 1.412109,-1 L 19,20 19,19 19,11 C 19,6.581722 15.418278,3 11,3 Z"
    class="ColorScheme-Text"
      />
</svg>
