<svg xmlns="http://www.w3.org/2000/svg" viewBox="0 0 22 22">
  <defs id="defs3051">
    <style type="text/css" id="current-color-scheme">
      .ColorScheme-Text {
        color:#eff0f1;
      }
      </style>
  </defs>
  <path
     style="fill:currentColor;fill-opacity:1;stroke:none" 
     d="M 16 4 L 16 5 L 2 5 L 2 18 L 20 18 L 20 5 L 19 5 L 19 4 L 16 4 z M 3 6 L 19 6 L 19 17 L 3 17 L 3 6 z M 8.5 7 A 4.5 4.5 0 0 0 4 11.5 A 4.5 4.5 0 0 0 8.5 16 A 4.5 4.5 0 0 0 13 11.5 A 4.5 4.5 0 0 0 8.5 7 z M 8.5 8 A 3.5 3.5 0 0 1 12 11.5 A 3.5 3.5 0 0 1 8.5 15 A 3.5 3.5 0 0 1 5 11.5 A 3.5 3.5 0 0 1 8.5 8 z "
     id="rect4211"
    class="ColorScheme-Text"
      />
</svg>
