<svg xmlns="http://www.w3.org/2000/svg" viewBox="0 0 22 22">
    <path
       style="opacity:1;fill:#fdbc4b;fill-opacity:1;stroke:none"
       d="M 11 3 C 6.568 3 3 6.568 3 11 C 3 15.092537 6.0443272 18.441581 10 18.931641 L 10 17.921875 C 6.6006421 17.438059 4 14.537216 4 11 C 4 7.122 7.122 4 11 4 C 14.878 4 18 7.122 18 11 L 19 11 C 19 6.568 15.432 3 11 3 z M 11 9 C 9.8920013 9 9 9.892 9 11 C 9 12.108 9.8920013 13 11 13 C 12.107999 13 13 12.108 13 11 C 13 9.892 12.107999 9 11 9 z M 11 10 C 11.553999 10 12 10.446 12 11 C 12 11.554 11.553999 12 11 12 C 10.446001 12 10 11.554 10 11 C 10 10.446 10.446001 10 11 10 z M 17 11 L 16.003906 11.994141 L 16 11.994141 L 11 16.988281 L 11.007812 16.998047 L 11.003906 18 L 11 18 L 11 18.990234 L 11 19 L 13 19 L 13.005859 18.990234 L 13.009766 18.990234 L 13.019531 18.990234 L 13.013672 18.980469 L 14 17.994141 L 18 14.001953 L 17.294922 13.292969 L 12.304688 18.275391 L 11.710938 17.683594 L 16.703125 12.699219 L 17.294922 13.292969 L 18 13.996094 L 19 12.996094 L 17 11 z "
       id="rect4119" />
</svg>
