<svg xmlns="http://www.w3.org/2000/svg" viewBox="0 0 22 22 ">
  <defs id="defs3051">
    <style type="text/css" id="current-color-scheme">
      .ColorScheme-Text {
        color:#eff0f1;
      }
      </style>
  </defs>
  <g
     transform="translate(0,-1030.3622)">
    <g
       transform="translate(0,39.500035)"
       id="g4644">
      <path
         style="fill:currentColor;fill-opacity:1;stroke:none" 
         d="m 10.999023,993.86403 0,7.03907 -3.2936118,-3.29298 -0.00195,0.002 C 7.3477147,997.25616 6.7071694,996.61603 6.7071694,996.61603 L 6,997.32306 l 4.54581,4.54114 -4.54581,4.541 0.7071694,0.707 c 0,0 0.6405453,-0.6401 0.9962883,-0.9961 l 0.00195,0 3.2936143,-3.293 0,7.0391 1.000197,0 4.000781,-4 -4.000781,-4 L 16,997.86208 l -4.000781,-4 -1.000196,0 z m 1.000196,1.41406 2.586443,2.58594 -2.586443,2.58597 0,-5.17191 z m 0,8.00001 2.586443,2.586 -2.586443,2.5859 0,-5.1719 z"
         class="ColorScheme-Text"
         />
    </g>
  </g>
</svg>
