<svg height="22" width="22" xmlns="http://www.w3.org/2000/svg">
    <style
        type="text/css"
        id="current-color-scheme">
        .ColorScheme-Text {
            color:#eff0f1;
        }
    </style>
    <rect fill="#7f8c8d" height="22" rx="2" width="22"/>
    <path d="M2 0C.892 0 0 .892 0 2v18c0 1.108.892 2 2 2h18c1.108 0 2-.892 2-2V2c0-1.108-.892-2-2-2zm0 1h18c.554 0 1 .446 1 1v18c0 .554-.446 1-1 1H2c-.554 0-1-.446-1-1V2c0-.554.446-1 1-1z" style="fill:currentColor;fill-opacity:0.6;stroke:none" class="ColorScheme-Text"/>
    <path d="M11 3C8.784 3 7 4.784 7 7v4H5v8h12v-8h-2V7c0-2.216-1.784-4-4-4m0 1c1.662 0 3 1.561 3 3.5V11H8V7.5C8 5.561 9.338 4 11 4" fill="#fff"/>
</svg>
