<svg viewBox="0 0 22 22" xmlns="http://www.w3.org/2000/svg">
    <style
        type="text/css"
        id="current-color-scheme">
        .ColorScheme-Highlight {
            color:#3daee9;
        }
        .ColorScheme-Text {
            color:#eff0f1;
        }
    </style>
    <rect style="fill:currentColor;fill-opacity:1;stroke:none" class="ColorScheme-Highlight" height="22" rx="2" width="22"/>
    <path d="M2 0C.892 0 0 .892 0 2v18c0 1.108.892 2 2 2h18c1.108 0 2-.892 2-2V2c0-1.108-.892-2-2-2zm0 1h18c.554 0 1 .446 1 1v18c0 .554-.446 1-1 1H2c-.554 0-1-.446-1-1V2c0-.554.446-1 1-1z" style="fill:currentColor;fill-opacity:0.6;stroke:none" class="ColorScheme-Text"/>
    <path d="M12.5 6a.499.499 0 1 0 0 1 .499.499 0 1 0 0-1zm0 9a.499.499 0 1 0 0 1 .499.499 0 1 0 0-1zm-2-1a.499.499 0 1 0 0 1 .499.499 0 1 0 0-1zm-2-1a.499.499 0 1 0 0 1 .499.499 0 1 0 0-1zm0-5a.499.499 0 1 0 0 1 .499.499 0 1 0 0-1zm2-1a.499.499 0 1 0 0 1 .499.499 0 1 0 0-1zm5.5 8c-1.108 0-2 .892-2 2s.892 2 2 2 2-.892 2-2-.892-2-2-2zM5 9c-1.108 0-2 .892-2 2s.892 2 2 2 2-.892 2-2-.892-2-2-2zm11-6c-1.108 0-2 .892-2 2s.892 2 2 2 2-.892 2-2-.892-2-2-2z" fill="#fff"/>
</svg>
