<svg height="32" width="32" xmlns="http://www.w3.org/2000/svg">
    <path d="m5 2v28.006h22v-28.006h-7z" fill="#afdde9"/>
    <path d="m5 29h22v1h-22z" opacity=".25"/>
    <path d="m5 2h22v.986h-22z" fill="#fff" opacity=".5"/>
    <path d="m8 2h1v28h-1z" fill-opacity=".057"/>
    <path d="m7 2h1v28h-1z" fill="#fff" fill-opacity=".321"/>
    <path d="m14 21 .000365-9.971033.999635-.028967v2l1.499404.02734c.499917.0091.5.486.5.486l-.000365 6.999033c-.000025.486-.5.486-.5.486z" fill-rule="evenodd"/>
    <path d="m22 12 4 4-4 4-4-4z" fill="#f90"/>
    <path d="m11 21-.000365-6.9995h-.5v-.972h.5l.000365-1.5145s0 .486 0 0c0-.4855.5-.4855.5-.4855h1.5v.9715l-1 .0005-.000365 1.0285 1-.0005v.9715l-1 .0005.000365 6.9995z" fill-rule="evenodd"/>
    <path d="m15.000306 13.685719h.999694v6.314281h-.999694z" fill="#afdde9" opacity=".99"/>
</svg>
