<svg height="32" width="32" xmlns="http://www.w3.org/2000/svg" xmlns:xlink="http://www.w3.org/1999/xlink"><linearGradient id="a" gradientUnits="userSpaceOnUse" x1="404.57" x2="411.57" y1="524.8" y2="531.8"><stop offset="0" stop-color="#060606"/><stop offset="1" stop-opacity="0"/></linearGradient><g transform="translate(-384.57 -515.8)"><path d="m389.57 545.8v-28h15l7 7v21h-14z" fill="#326197" height="100%" width="100%"/><g transform="scale(1 -1)"><path d="m389.57001-518.79999h15v1h-15z" fill="#fff" opacity=".5"/><path d="m389.57001-545.79999h22v1h-22z" opacity=".25"/></g><g fill-rule="evenodd"><path d="m411.57 524.8-7-7v7z" fill="#fff" opacity=".5"/><path d="m404.57 524.8 7 7v-7z" fill="url(#a)" opacity=".2"/></g></g><path d="m16.689271 12.239914-1.532491 9.013532-1.548822-3.27456-4.468008 2.561577a8.0613221 8.0921589 0 0 0 .121292.354739l3.89304-1.799436 2.37221 4.904234 1.810066-11.237928 5.523492-.105364a8.0613221 8.0921589 0 0 0 -.281077-.321959z" fill="#fff" opacity=".9"/></svg>