<svg width="32" xmlns="http://www.w3.org/2000/svg" height="32">
 <defs>
  <linearGradient id="a" y1="61" y2="3" x2="0" gradientUnits="userSpaceOnUse" gradientTransform="matrix(.5 0 0-.48276 384.57 547.25)">
   <stop stop-color="#3a539b"/>
   <stop offset="1" stop-color="#3f5aa9"/>
  </linearGradient>
  <linearGradient id="b" y1="518.04" y2="524.8" x2="0" gradientUnits="userSpaceOnUse">
   <stop stop-color="#97aad8"/>
   <stop offset="1" stop-color="#c1cae7"/>
  </linearGradient>
  <linearGradient id="c" y1="524.8" x1="404.57" y2="531.8" x2="411.57" gradientUnits="userSpaceOnUse">
   <stop stop-color="#383e51"/>
   <stop offset="1" stop-color="#655c6f" stop-opacity="0"/>
  </linearGradient>
 </defs>
 <g transform="translate(-384.57-515.8)">
  <path fill="url(#a)" d="m389.57 545.8v-28h15l7 7v21h-7z"/>
  <g transform="scale(1-1)">
   <rect width="15" x="389.57" y="-518.8" fill="#ffffff" height="1" fill-opacity=".412"/>
   <rect width="22" x="389.57" y="-545.8" fill="#2e3132" height="1" fill-opacity=".294"/>
  </g>
  <g fill-rule="evenodd">
   <path fill="url(#b)" d="m411.57 524.8l-7-7v7z"/>
   <path opacity=".2" fill="url(#c)" d="m411.57 531.8l-7-7h7z"/>
  </g>
  <path opacity=".75" fill="#ffffff" d="m394.57 527.8c-.554 0-1 .446-1 1v8c0 .554.446 1 1 1h12c.554 0 1-.446 1-1v-8c0-.554-.446-1-1-1zm0 1h.293l3.641 3.641-3.736 4.359h-.197zm1.707 0h8.586l-4.293 4.293zm10 0h.293v8h-.197l-3.736-4.359zm-7.06 4.35l1.357 1.357 1.357-1.357 3.127 3.65h-8.971z"/>
 </g>
</svg>
