<svg width="32" xmlns="http://www.w3.org/2000/svg" height="32">
 <defs>
  <linearGradient id="a" y1="61" y2="3" x2="0" gradientUnits="userSpaceOnUse" gradientTransform="matrix(.5 0 0-.48276 384.57 547.25)">
   <stop stop-color="#5e6b78"/>
   <stop offset="1" stop-color="#768492"/>
  </linearGradient>
  <linearGradient id="b" y1="518.04" y2="524.8" x2="0" gradientUnits="userSpaceOnUse">
   <stop stop-color="#dedede"/>
   <stop offset="1" stop-color="#fbfbfb"/>
  </linearGradient>
  <linearGradient id="c" y1="524.8" x1="404.57" y2="531.8" x2="411.57" gradientUnits="userSpaceOnUse">
   <stop stop-color="#383e51"/>
   <stop offset="1" stop-color="#655c6f" stop-opacity="0"/>
  </linearGradient>
 </defs>
 <g transform="translate(-384.57-515.8)">
  <path fill="url(#a)" d="m389.57 545.8v-28h15l7 7v21h-7z"/>
  <g transform="scale(1-1)">
   <rect width="15" x="389.57" y="-518.8" fill="#ffffff" height="1" fill-opacity=".412"/>
   <rect width="22" x="389.57" y="-545.8" fill="#2e3132" height="1" fill-opacity=".294"/>
  </g>
  <g fill-rule="evenodd">
   <path fill="url(#b)" d="m411.57 524.8l-7-7v7z"/>
   <path opacity=".2" fill="url(#c)" d="m411.57 531.8l-7-7h7z"/>
  </g>
  <path opacity=".75" fill="#fbfbfb" d="m399.63 526.47c-.681 0-1.569.387-2.381 1.033-.487.209-.83.693-.83 1.256 0 .176.033.349.098.51-.842.163-1.479.904-1.479 1.793 0 .185.027.367.082.543-.347.343-.543.809-.543 1.301 0 .384.119.741.322 1.035-.211.306-.322.662-.322 1.037 0 .665.362 1.275.936 1.596-.01.082-.014.163-.014.246 0 .897.583 1.691 1.432 1.961.369.632 1.042 1.02 1.777 1.02.806 0 1.504-.466 1.842-1.143.338.676 1.038 1.143 1.844 1.143.735 0 1.406-.388 1.775-1.02.849-.27 1.434-1.064 1.434-1.961 0-.083-.004-.164-.014-.246.574-.321.936-.931.936-1.596 0-.375-.111-.732-.322-1.037.203-.295.322-.651.322-1.035 0-.492-.196-.958-.543-1.301.055-.176.082-.358.082-.543 0-.889-.637-1.63-1.479-1.793.064-.16.098-.333.098-.51 0-.563-.343-1.046-.83-1.256-.812-.646-1.7-1.033-2.381-1.033-.379 0-.715.187-.922.473-.207-.285-.541-.473-.92-.473m0 .432c.389 0 .705.318.705.707v2.793c-.194-.154-.439-.246-.705-.246-.119 0-.217.097-.217.217 0 .119.098.215.217.215.389 0 .705.316.705.705v5.191c-.268-.346-.647-.609-1.092-.729-.115-.031-.235.037-.266.152-.031.115.037.235.152.266.709.191 1.205.835 1.205 1.568 0 .897-.73 1.627-1.627 1.627-.605 0-1.157-.334-1.439-.871-.028-.053-.077-.092-.135-.107-.709-.191-1.203-.837-1.203-1.57 0-.11.01-.219.031-.326.02-.099-.031-.199-.123-.24-.504-.224-.83-.725-.83-1.275 0-.25.066-.489.189-.701.322.284.745.457 1.207.457.119 0 .215-.097.215-.217 0-.119-.096-.215-.215-.215-.77 0-1.396-.627-1.396-1.396 0-.414.183-.806.502-1.072.072-.06.096-.159.06-.246-.068-.168-.102-.346-.102-.525 0-.77.627-1.396 1.396-1.396.77 0 1.396.627 1.396 1.396 0 .119.096.217.215.217.119 0 .217-.097.217-.217 0-.969-.757-1.761-1.711-1.822-.086-.144-.133-.31-.133-.48 0-.385.234-.716.566-.859.013-.004.027-.009.039-.016.103-.039.213-.061.33-.061.361 0 .686.202.844.527.052.107.18.152.287.1.107-.052.154-.18.102-.287-.18-.371-.523-.64-.916-.734.551-.336 1.094-.527 1.527-.527m1.842 0c.433 0 .976.191 1.527.527-.393.095-.736.363-.916.734-.052.107-.007.235.1.287.107.052.237.007.289-.1.158-.325.48-.527.842-.527.117 0 .229.021.332.061.012.006.024.012.037.016.333.143.568.474.568.859 0 .17-.046.336-.133.48-.953.061-1.711.854-1.711 1.822 0 .119.098.217.217.217.119 0 .215-.098.215-.217 0-.77.627-1.396 1.396-1.396.77 0 1.396.627 1.396 1.396 0 .18-.035.357-.104.525-.035.087-.01.186.063.246.319.266.502.658.502 1.072 0 .77-.627 1.396-1.396 1.396-.119 0-.217.096-.217.215 0 .119.098.217.217.217.462 0 .885-.173 1.207-.457.124.212.189.451.189.701 0 .551-.326 1.051-.83 1.275-.093.041-.145.141-.125.24.022.107.033.216.033.326 0 .733-.495 1.38-1.203 1.57-.058.016-.107.054-.135.107-.283.537-.834.871-1.439.871-.897 0-1.627-.73-1.627-1.627 0-.061-.003-.12-.008-.18.005-.018.008-.038.008-.059v-7.131c0-.389.316-.707.705-.707.119 0 .217-.096.217-.215 0-.119-.098-.217-.217-.217-.266 0-.511.092-.705.246v-1.871c0-.389.316-.707.705-.707m3.225 3.715c-.119 0-.217.096-.217.215 0 .77-.625 1.396-1.395 1.396-.378 0-.733-.148-.998-.418-.083-.085-.22-.087-.305-.004-.085.083-.087.22-.004.305.299.306.686.494 1.105.539.099.657.667 1.162 1.352 1.162.119 0 .217-.096.217-.215 0-.119-.098-.217-.217-.217-.447 0-.822-.316-.914-.736.896-.117 1.592-.885 1.592-1.813 0-.119-.098-.215-.217-.215m-7.83.231c-.119 0-.217.096-.217.215 0 .927.695 1.695 1.59 1.813-.092.42-.465.736-.912.736-.119 0-.217.096-.217.215 0 .119.098.217.217.217.684 0 1.252-.505 1.352-1.162.419-.045.806-.233 1.105-.539.083-.085.081-.221-.004-.305-.085-.083-.221-.081-.305.004-.265.27-.62.418-.998.418-.77 0-1.396-.627-1.396-1.396 0-.119-.096-.215-.215-.215m4.606 3.225c-.119 0-.215.096-.215.215 0 .119.096.217.215.217.77 0 1.396.627 1.396 1.396 0 .049-.003.098-.008.146-.67.271-1.145.929-1.145 1.695 0 .119.098.217.217.217.119 0 .215-.097.215-.217 0-.77.627-1.396 1.396-1.396.119 0 .217-.096.217-.215 0-.119-.098-.217-.217-.217-.083 0-.164.007-.244.018 0-.01 0-.021 0-.031 0-1.01-.82-1.828-1.828-1.828m-2.533.461c-1.01 0-1.828.818-1.828 1.826 0 .01 0 .023 0 .033-.08-.011-.161-.018-.244-.018-.119 0-.217.096-.217.215 0 .119.098.217.217.217.77 0 1.396.627 1.396 1.396 0 .119.096.215.215.215.119 0 .217-.096.217-.215 0-.766-.475-1.424-1.145-1.695-.005-.049-.008-.097-.008-.146 0-.77.627-1.396 1.396-1.396.119 0 .215-.098.215-.217h.002c0-.119-.098-.215-.217-.215"/>
 </g>
</svg>
