<svg width="32" xmlns="http://www.w3.org/2000/svg" height="32" xmlns:xlink="http://www.w3.org/1999/xlink">
 <defs>
  <linearGradient id="a" y1="524.8" x1="404.57" y2="531.8" x2="411.57" gradientUnits="userSpaceOnUse">
   <stop/>
   <stop offset="1" stop-opacity="0"/>
  </linearGradient>
  <linearGradient id="b" y1="392.36" y2="336.36" gradientUnits="userSpaceOnUse" x2="0" gradientTransform="matrix(1 0 0 .4806 278.35 356.64)">
   <stop stop-color="#ffffff" stop-opacity="0"/>
   <stop offset="1" stop-color="#ffffff" stop-opacity=".2"/>
  </linearGradient>
  <path id="c" d="m389.57 545.8v-28h15l7 7v21h-7z"/>
 </defs>
 <g transform="translate(-384.57-515.8)">
  <use fill="#282828" xlink:href="#c"/>
  <g color-rendering="auto" color-interpolation-filters="linearRGB" shape-rendering="auto" image-rendering="auto" text-rendering="auto" color-interpolation="sRGB" color="#000000">
   <g fill="#ffffff">
    <rect opacity=".14" x="407.57" y="525.8" fill-opacity=".349" width="1" height="3"/>
    <rect opacity=".14" x="408.57" y="525.8" width="3" height="3"/>
    <rect opacity=".14" x="408.57" y="528.8" fill-opacity=".531" width="3" height="3"/>
    <rect opacity=".14" x="407.57" y="528.8" fill-opacity=".722" width="1" height="3"/>
    <g transform="rotate(90)">
     <rect opacity=".14" x="517.8" y="-398.57" width="2" height="3"/>
     <rect opacity=".14" x="517.8" y="-401.57" fill-opacity=".531" width="2" height="3"/>
     <rect opacity=".14" x="517.8" y="-404.57" fill-opacity=".211" width="2" height="3"/>
    </g>
    <g transform="scale(-1 1)">
     <rect opacity=".14" x="-392.57" y="517.8" fill-opacity=".531" width="3" height="2"/>
     <rect opacity=".14" x="-395.57" y="517.8" fill-opacity=".722" width="3" height="2"/>
    </g>
    <g transform="scale(1-1)">
     <rect opacity=".14" x="389.57" y="-531.8" fill-opacity=".349" width="3" height="3"/>
     <rect opacity=".14" x="389.57" y="-528.8" width="3" height="3"/>
     <rect opacity=".14" x="389.57" y="-525.8" fill-opacity=".349" width="3" height="3"/>
     <rect opacity=".14" x="389.57" y="-522.8" fill-opacity=".211" width="3" height="3"/>
     <rect opacity=".14" x="392.57" y="-522.8" width="3" height="3"/>
     <rect opacity=".14" x="392.57" y="-525.8" fill-opacity=".531" width="3" height="3"/>
     <rect opacity=".14" x="392.57" y="-528.8" fill-opacity=".211" width="3" height="3"/>
     <rect opacity=".14" x="392.57" y="-531.8" fill-opacity=".722" width="3" height="3"/>
    </g>
    <g transform="rotate(90)">
     <rect opacity=".14" x="525.8" y="-407.57" fill-opacity=".349" width="3" height="3"/>
     <rect opacity=".14" x="525.8" y="-404.57" width="3" height="3"/>
     <rect opacity=".14" x="522.8" y="-404.57" fill-opacity=".722" width="3" height="3"/>
     <rect opacity=".14" x="519.8" y="-404.57" fill-opacity=".531" width="3" height="3"/>
     <rect opacity=".14" x="519.8" y="-401.57" fill-opacity=".349" width="3" height="3"/>
     <rect opacity=".14" x="522.8" y="-401.57" width="3" height="3"/>
     <rect opacity=".14" x="525.8" y="-401.57" fill-opacity=".349" width="3" height="3"/>
     <rect opacity=".14" x="525.8" y="-398.57" fill-opacity=".211" width="3" height="3"/>
     <rect opacity=".14" x="522.8" y="-398.57" fill-opacity=".531" width="3" height="3"/>
     <rect opacity=".14" x="519.8" y="-398.57" fill-opacity=".722" width="3" height="3"/>
     <rect opacity=".14" x="528.8" y="-398.57" width="3" height="3"/>
     <rect opacity=".14" x="528.8" y="-401.57" fill-opacity=".531" width="3" height="3"/>
     <rect opacity=".14" x="528.8" y="-404.57" fill-opacity=".211" width="3" height="3"/>
     <rect opacity=".14" x="528.8" y="-407.57" fill-opacity=".722" width="3" height="3"/>
    </g>
    <g transform="scale(-1)">
     <rect opacity=".14" x="-411.57" y="-543.8" fill-opacity=".349" width="3" height="3"/>
     <rect opacity=".14" x="-411.57" y="-540.8" width="3" height="3"/>
     <rect opacity=".14" x="-411.57" y="-537.8" fill-opacity=".349" width="3" height="3"/>
     <rect opacity=".14" x="-411.57" y="-534.8" fill-opacity=".211" width="3" height="3"/>
     <rect opacity=".14" x="-408.57" y="-534.8" width="1" height="3"/>
     <rect opacity=".14" x="-408.57" y="-537.8" fill-opacity=".531" width="1" height="3"/>
     <rect opacity=".14" x="-408.57" y="-540.8" fill-opacity=".211" width="1" height="3"/>
     <rect opacity=".14" x="-408.57" y="-543.8" fill-opacity=".722" width="1" height="3"/>
    </g>
    <g transform="rotate(90)">
     <rect opacity=".14" x="531.8" y="-407.57" width="3" height="3"/>
     <rect opacity=".14" x="534.8" y="-407.57" fill-opacity=".531" width="3" height="3"/>
     <rect opacity=".14" x="537.8" y="-407.57" fill-opacity=".349" width="3" height="3"/>
     <rect opacity=".14" x="537.8" y="-404.57" width="3" height="3"/>
     <rect opacity=".14" x="534.8" y="-404.57" fill-opacity=".722" width="3" height="3"/>
     <rect opacity=".14" x="531.8" y="-404.57" fill-opacity=".531" width="3" height="3"/>
     <rect opacity=".14" x="531.8" y="-401.57" fill-opacity=".349" width="3" height="3"/>
     <rect opacity=".14" x="534.8" y="-401.57" width="3" height="3"/>
     <rect opacity=".14" x="537.8" y="-401.57" fill-opacity=".349" width="3" height="3"/>
     <rect opacity=".14" x="537.8" y="-398.57" fill-opacity=".211" width="3" height="3"/>
     <rect opacity=".14" x="534.8" y="-398.57" fill-opacity=".531" width="3" height="3"/>
     <rect opacity=".14" x="531.8" y="-398.57" fill-opacity=".722" width="3" height="3"/>
     <rect opacity=".14" x="540.8" y="-398.57" width="3" height="3"/>
     <rect opacity=".14" x="540.8" y="-401.57" fill-opacity=".531" width="3" height="3"/>
     <rect opacity=".14" x="540.8" y="-404.57" fill-opacity=".211" width="3" height="3"/>
     <rect opacity=".14" x="540.8" y="-407.57" fill-opacity=".722" width="3" height="3"/>
    </g>
    <g transform="scale(-1 1)">
     <rect opacity=".14" x="-395.57" y="531.8" width="3" height="3"/>
     <rect opacity=".14" x="-392.57" y="531.8" fill-opacity=".531" width="3" height="3"/>
     <rect opacity=".14" x="-392.57" y="534.8" fill-opacity=".722" width="3" height="3"/>
     <rect opacity=".14" x="-395.57" y="534.8" fill-opacity=".531" width="3" height="3"/>
     <rect opacity=".14" x="-395.57" y="537.8" fill-opacity=".349" width="3" height="3"/>
     <rect opacity=".14" x="-392.57" y="537.8" width="3" height="3"/>
     <rect opacity=".14" x="-392.57" y="540.8" fill-opacity=".531" width="3" height="3"/>
     <rect opacity=".14" x="-395.57" y="540.8" fill-opacity=".722" width="3" height="3"/>
    </g>
    <rect opacity=".14" x="389.57" y="543.8" fill-opacity=".349" width="3" height="2"/>
    <rect opacity=".14" x="392.57" y="543.8" fill-opacity=".722" width="3" height="2"/>
    <g transform="matrix(0-1-1 0 0 0)">
     <rect opacity=".14" x="-545.8" y="-398.57" width="2" height="3"/>
     <rect opacity=".14" x="-545.8" y="-401.57" fill-opacity=".531" width="2" height="3"/>
     <rect opacity=".14" x="-545.8" y="-404.57" fill-opacity=".211" width="2" height="3"/>
     <rect opacity=".14" x="-545.8" y="-407.57" fill-opacity=".722" width="2" height="3"/>
    </g>
    <g transform="scale(1-1)">
     <rect opacity=".14" x="408.57" y="-545.8" fill-opacity=".531" width="3" height="2"/>
     <rect opacity=".14" x="407.57" y="-545.8" fill-opacity=".722" width="1" height="2"/>
     <rect opacity=".4" x="389.57" y="-518.8" width="15" height="1"/>
    </g>
   </g>
   <rect opacity=".35" x="389.57" y="-545.8" width="22" height="1" transform="scale(1-1)"/>
   <path opacity=".5" fill="#ffffff" fill-rule="evenodd" d="m411.57 524.8l-7-7v7z"/>
  </g>
  <path opacity=".5" fill="url(#a)" fill-rule="evenodd" d="m411.57 531.8l-7-7h7z"/>
  <path fill="#dddddd" d="m400.57 525.8c-1.662 0-3 1.338-3 3v3h-2v6h10v-6h-2v-3c0-1.662-1.338-3-3-3m0 1c1.247 0 2 .546 2 2v3h-4v-3c0-1.454.754-2 2-2"/>
  <use color-interpolation-filters="linearRGB" color="#000000" image-rendering="auto" color-rendering="auto" xlink:href="#c" color-interpolation="sRGB" text-rendering="auto" fill="url(#b)" shape-rendering="auto"/>
 </g>
</svg>
