<svg width="32" xmlns="http://www.w3.org/2000/svg" height="32" xmlns:xlink="http://www.w3.org/1999/xlink">
 <defs>
  <linearGradient id="a" y1="392.36" y2="365.36" gradientUnits="userSpaceOnUse" x2="0" gradientTransform="translate(309.57 152.44)">
   <stop stop-color="#ffffff" stop-opacity="0"/>
   <stop offset="1" stop-color="#ffffff" stop-opacity=".2"/>
  </linearGradient>
  <linearGradient id="b" y1="17" x1="47" y2="24" gradientUnits="userSpaceOnUse" x2="54" gradientTransform="translate(357.57 507.8)">
   <stop stop-color="#060606"/>
   <stop offset="1" stop-opacity="0"/>
  </linearGradient>
  <path id="c" d="m389.57 545.8v-28h15l7 7v21h-14z"/>
 </defs>
 <g transform="translate(-384.57-515.8)">
  <g color-rendering="auto" color-interpolation-filters="linearRGB" shape-rendering="auto" image-rendering="auto" text-rendering="auto" color-interpolation="sRGB" color="#000000">
   <use fill="#383838" xlink:href="#c"/>
   <g fill="#ffffff">
    <path opacity=".1" d="m391.57 517.8v1.998h-1.998v1h1.998v2h-1.998v1h1.998v2h-1.998v1h1.998v2h-1.998v1h1.998v2h-1.998v1h1.998v2h-1.998v1h1.998v2h-1.998v1h1.998v2h-1.998v1h1.998v2h-1.998v1h1.998v1h1v-1h2v1h1v-1h2v1h1v-1h2v1h1v-1h2v1h1v-1h2v1h1v-1h2v1h1v-1h1v-1h-1v-2h1v-1h-1v-2h1v-1h-1v-2h1v-1h-1v-2h1v-1h-1v-2h1v-1h-1v-2h1v-1h-1v-2l-1-1h-2v-2l-1-1h-2v-1.998h-1v1.998h-2v-1.998h-1v1.998h-2v-1.998h-1v1.998h-2v-1.998h-1v1.998h-2v-1.998zm1 2.998h2v2h-2zm3 0h2v2h-2zm3 0h2v2h-2zm3 0h2v2h-2zm3 0h2v2h-2zm-12 3h2v2h-2zm3 0h2v2h-2zm3 0h2v2h-2zm3 0h2v2h-2zm3 0h2v2h-2zm3 0h2v2h-2zm-15 3h2v2h-2zm3 0h2v2h-2zm3 0h2v2h-2zm3 0h2v2h-2zm3 0h2v2h-2zm3 0h2v2h-2zm-15 3h2v2h-2zm3 0h2v2h-2zm3 0h2v2h-2zm3 0h2v2h-2zm3 0h2v2h-2zm3 0h2v2h-2zm-15 3h2v2h-2zm3 0h2v2h-2zm3 0h2v2h-2zm3 0h2v2h-2zm3 0h2v2h-2zm3 0h2v2h-2zm-15 3h2v2h-2zm3 0h2v2h-2zm3 0h2v2h-2zm3 0h2v2h-2zm3 0h2v2h-2zm3 0h2v2h-2zm-15 3h2v2h-2v-1zm3 0h2v2h-2v-1zm3 0h2v2h-2v-1zm3 0h2v2h-2v-1zm3 0h2v2h-2v-1zm3 0h2v2h-2v-1zm-15 3h2v2h-2v-1zm3 0h2v2h-2v-1zm3 0h2v2h-2v-1zm3 0h2v2h-2v-1zm3 0h2v2h-2v-1zm3 0h2v2h-2v-1z"/>
    <rect opacity=".5" x="389.57" y="-518.8" width="15" height="1" transform="scale(1-1)"/>
   </g>
   <rect opacity=".25" x="389.57" y="-545.8" width="22" height="1" transform="scale(1-1)"/>
  </g>
  <path opacity=".2" fill="url(#b)" fill-rule="evenodd" d="m404.57 524.8l7 7v-7z"/>
  <g fill="#afafaf" color-rendering="auto" color-interpolation-filters="linearRGB" shape-rendering="auto" image-rendering="auto" text-rendering="auto" color-interpolation="sRGB" color="#000000">
   <path d="m411.57 524.8l-7-7v7z"/>
   <path d="m406.4 528.08l-7 .004-2.441 6.691-1.555-2.695h-1v1h.428l2.133 3.693 3.02-7.693h6.42zm-4 2c-1.662 0-3 1.338-3 3 0 1.662 1.338 3 3 3 .773 0 1.469-.298 2-.775v.775h1v-6h-1v.775c-.531-.477-1.227-.775-2-.775m0 1c1.108 0 2 .892 2 2 0 1.108-.892 2-2 2-1.108 0-2-.892-2-2 0-1.108.892-2 2-2"/>
  </g>
  <use fill="url(#a)" xlink:href="#c"/>
 </g>
</svg>
