<svg width="32" xmlns="http://www.w3.org/2000/svg" height="32">
 <defs>
  <linearGradient id="a" y1="61" y2="3" x2="0" gradientUnits="userSpaceOnUse" gradientTransform="matrix(.5 0 0-.48276 384.57 547.25)">
   <stop stop-color="#22a7f0"/>
   <stop offset="1" stop-color="#19b5fe"/>
  </linearGradient>
  <linearGradient id="b" y1="518.04" y2="524.8" x2="0" gradientUnits="userSpaceOnUse">
   <stop stop-color="#c8e3fe"/>
   <stop offset="1" stop-color="#ffffff"/>
  </linearGradient>
  <linearGradient id="c" y1="524.8" x1="404.57" y2="531.8" x2="411.57" gradientUnits="userSpaceOnUse">
   <stop stop-color="#383e51"/>
   <stop offset="1" stop-color="#655c6f" stop-opacity="0"/>
  </linearGradient>
 </defs>
 <g transform="translate(-384.57-515.8)">
  <path fill="url(#a)" d="m389.57 545.8v-28h15l7 7v21h-7z"/>
  <g transform="scale(1-1)">
   <rect width="15" x="389.57" y="-518.8" fill="#ffffff" height="1" fill-opacity=".412"/>
   <rect width="22" x="389.57" y="-545.8" fill="#2e3132" height="1" fill-opacity=".294"/>
  </g>
  <g fill-rule="evenodd">
   <path fill="url(#b)" d="m411.57 524.8l-7-7v7z"/>
   <path opacity=".2" fill="url(#c)" d="m411.57 531.8l-7-7h7z"/>
  </g>
  <g fill="#ffffff" transform="matrix(.01429 0 0 .01429 393.36 526.04)">
   <path d="m530.2 118.2c0 17.3-14.1 31.2-31.4 31.2-17.4 0-31.4-14-31.4-31.2v-76.9c0-17.3 14.1-31.3 31.4-31.3 17.4 0 31.4 14 31.4 31.3z"/>
   <path d="m525.4 662c0 14.2-11.6 25.7-25.9 25.7h-1.4c-14.3 0-25.9-11.5-25.9-25.7v-83.1c0-14.2 11.6-25.8 25.9-25.8h1.4c14.3 0 25.9 11.5 25.9 25.8z"/>
   <path d="m825.5 906.7c10.4-10.7 13.8-27.1 7.1-41.5l-260-551.2c-.2-1.5-.2-3.1-.2-4.7 0-5.4 2-10.4 5.2-14.3 31-23.3 51-60.3 51-101.9 0-70.6-57.5-127.7-128.5-127.8-72.3 0-128.6 57.2-128.6 127.8 0 41.6 19.9 78.6 50.9 101.9 3.3 3.9 5.3 8.8 5.3 14.3 0 1.6 0 3.2-.2 4.7l-260 551.2c-6.7 14.3-3.4 30.8 7.1 41.5l-41 83.3 64.8-70.2c17.2 4.5 35.6-3.7 43.4-20.2l247.9-525.4c2.3-2.9 5.8-4.7 9.8-4.7.2 0 .6 0 .6 0 .2 0 .4 0 .6 0 4 0 7.5 1.9 9.7 4.7l247.9 525.4c7.7 16.6 26.2 24.7 43.3 20.2l64.8 70.2zm-325.4-640.1c-41 0-73.8-32.9-73.8-73.5 0-40.5 32.9-73.4 73.8-73.5 40.8 0 73.8 32.9 73.8 73.5 0 40.6-33 73.5-73.8 73.5"/>
   <path d="m781.7 622.9c0 9.3-7.5 16.8-16.9 16.8h-532.1c-9.3 0-16.9-7.5-16.9-16.8v-.1c0-9.3 7.6-16.8 16.9-16.8h532.1c9.4.1 16.9 7.6 16.9 16.9"/>
  </g>
 </g>
</svg>
