<svg width="32" xmlns="http://www.w3.org/2000/svg" height="32" xmlns:xlink="http://www.w3.org/1999/xlink">
 <defs>
  <linearGradient id="a" y1="17" x1="47" y2="24" gradientUnits="userSpaceOnUse" x2="54" gradientTransform="translate(357.57 507.8)">
   <stop stop-color="#060606"/>
   <stop offset="1" stop-opacity="0"/>
  </linearGradient>
  <linearGradient id="b" y1="392.36" y2="365.36" gradientUnits="userSpaceOnUse" x2="0" gradientTransform="translate(309.57 152.44)">
   <stop stop-color="#ffffff" stop-opacity="0"/>
   <stop offset="1" stop-color="#ffffff" stop-opacity=".2"/>
  </linearGradient>
  <path id="c" d="m389.57 545.8v-28h15l7 7v21h-14z"/>
 </defs>
 <g transform="translate(-384.57-515.8)">
  <g color-rendering="auto" color-interpolation-filters="linearRGB" shape-rendering="auto" image-rendering="auto" text-rendering="auto" color-interpolation="sRGB" color="#000000">
   <use fill="#25bb70" xlink:href="#c"/>
   <g transform="scale(1-1)">
    <rect opacity=".5" x="389.57" y="-518.8" width="15" fill="#ffffff" height="1"/>
    <rect opacity=".25" x="389.57" y="-545.8" width="22" height="1"/>
   </g>
  </g>
  <path opacity=".2" fill="url(#a)" fill-rule="evenodd" d="m404.57 524.8l7 7v-7z"/>
  <g fill="#ffffff" color-rendering="auto" color-interpolation-filters="linearRGB" shape-rendering="auto" image-rendering="auto" text-rendering="auto" color-interpolation="sRGB" color="#000000">
   <path opacity=".5" d="m411.57 524.8l-7-7v7z"/>
   <path opacity=".75" d="m395.57 526.8c-.554 0-1 .446-1 1v10c0 .554.446 1 1 1h10c.554 0 1-.446 1-1v-10c0-.554-.446-1-1-1zm0 1h10v10h-10zm1 1v1h2v-1zm3 .002v1h2v-1zm3 0v1h2v-1zm-6 1.998v1h2v-1zm3 .002v1h2v-1zm3 0v1h2v-1zm-6 1.998v1h2v-1zm3 .002v1h2v-1zm3 0v1h2v-1zm-6 1.998v1h2v-1zm3 .002v1h2v-1zm3 0v1h2v-1z"/>
  </g>
  <use fill="url(#b)" xlink:href="#c"/>
 </g>
</svg>
