<svg width="32" xmlns="http://www.w3.org/2000/svg" height="32" xmlns:xlink="http://www.w3.org/1999/xlink">
 <defs>
  <linearGradient id="a" y1="524.8" x1="404.57" y2="531.8" x2="411.57" gradientUnits="userSpaceOnUse">
   <stop stop-color="#383e51"/>
   <stop offset="1" stop-color="#655c6f" stop-opacity="0"/>
  </linearGradient>
  <linearGradient id="b" y1="546.02" x1="396.48" y2="517.8" x2="396.54" gradientUnits="userSpaceOnUse">
   <stop stop-color="#ffffff" stop-opacity="0"/>
   <stop offset="1" stop-color="#ffffff" stop-opacity=".2"/>
  </linearGradient>
  <path id="c" d="m389.57 545.8v-28h15l7 7v21h-7z"/>
 </defs>
 <g transform="translate(-384.57-515.8)">
  <use fill="#d2d6d9" xlink:href="#c"/>
  <g transform="scale(1-1)">
   <rect width="15" x="389.57" opacity=".5" y="-518.8" fill="#ffffff" height="1"/>
   <rect width="22" x="389.57" opacity=".25" y="-545.8" height="1"/>
  </g>
  <g fill-rule="evenodd">
   <path fill="#5e6b78" d="m411.57 524.8l-7-7v7z"/>
   <path opacity=".2" fill="url(#a)" d="m411.57 531.8l-7-7h7z"/>
  </g>
  <path fill="#4b5560" color="#000000" stroke-width=".1" d="m400.57 527.8c-3.314 0-6 2.686-6 6 0 3.314 2.686 6 6 6 3.314 0 6-2.686 6-6 0-3.314-2.686-6-6-6m0 1c2.761 0 5 2.239 5 5 0 2.761-2.239 5-5 5-2.761 0-5-2.239-5-5 0-2.761 2.239-5 5-5m0 1c-2.209 0-4 1.791-4 4h2c0-1.105.895-2 2-2zm0 3a1 1 0 0 0 -1 1 1 1 0 0 0 1 1 1 1 0 0 0 1 -1 1 1 0 0 0 -1 -1m2 1c0 1.105-.895 2-2 2v2c2.209 0 4-1.791 4-4z"/>
  <use fill="url(#b)" xlink:href="#c"/>
 </g>
</svg>
