<?xml version="1.0" encoding="UTF-8" standalone="no"?>
<svg xmlns="http://www.w3.org/2000/svg" xmlns:xlink="http://www.w3.org/1999/xlink" xmlns:sodipodi="http://sodipodi.sourceforge.net/DTD/sodipodi-0.dtd" xmlns:inkscape="http://www.inkscape.org/namespaces/inkscape" width="32" version="1.1" height="32">
 <defs id="defs5455">
  <linearGradient id="linearGradient6251" inkscape:collect="always">
   <stop id="stop6253" stop-color="#ffffff" stop-opacity="0"/>
   <stop id="stop6255" offset="1" stop-color="#ffffff" stop-opacity="0.2"/>
  </linearGradient>
  <linearGradient inkscape:collect="always" xlink:href="#linearGradient6251" id="linearGradient5849" gradientUnits="userSpaceOnUse" gradientTransform="matrix(0.48,0,0,0.40601922,362.65141,385.60546)" y1="394.54437" x2="0" y2="335.43387"/>
 </defs>
 <g inkscape:label="Capa 1" inkscape:groupmode="layer" id="layer1" transform="matrix(1 0 0 1 -384.57143 -515.798)">
  <rect y="521.79797" x="388.57144" height="23.999989" width="23.999989" id="rect5837" mix-blend-mode="normal" solid-color="#000000" color-interpolation-filters="linearRGB" color="#000000" image-rendering="auto" color-rendering="auto" isolation="auto" color-interpolation="sRGB" solid-opacity="1" fill="#e6506e" shape-rendering="auto"/>
  <rect width="24.00001" x="388.57144" y="544.79797" height="0.999974" id="rect5839" mix-blend-mode="normal" solid-color="#000000" opacity="0.25" color-interpolation-filters="linearRGB" color="#000000" image-rendering="auto" color-rendering="auto" isolation="auto" color-interpolation="sRGB" solid-opacity="1" shape-rendering="auto"/>
  <rect width="23.999989" x="388.57144" y="521.79797" height="1.00003" id="rect5841" mix-blend-mode="normal" solid-color="#000000" opacity="0.5" color-interpolation-filters="linearRGB" color="#000000" image-rendering="auto" color-rendering="auto" isolation="auto" color-interpolation="sRGB" solid-opacity="1" fill="#ffffff" shape-rendering="auto"/>
  <path inkscape:connector-curvature="0" d="m 404.57142,522.79803 0,1 1,0 0,-1 -1,0 z m 1,1 0,1 1,0 0,-1 -1,0 z m 0,1 -1,0 0,1 1,0 0,-1 z m 0,1 0,1 1,0 0,-1 -1,0 z m 0,1 -1,0 0,1 1,0 0,-1 z m 0,1 0,1 1,0 0,-1 -1,0 z m 0,1 -1,0 0,0.56054 0,1.43946 2,0 0,-1 -1,0 0,-1 z" id="path5843" mix-blend-mode="normal" solid-color="#000000" opacity="0.75" color-interpolation-filters="linearRGB" color="#000000" image-rendering="auto" color-rendering="auto" stroke-width="2" isolation="auto" stroke-linecap="square" color-interpolation="sRGB" solid-opacity="1" fill="#ffffff" shape-rendering="auto"/>
  <path inkscape:label="Capa 1" inkscape:connector-curvature="0" id="path4181-7" d="m 396.42452,543.76896 c -0.65568,-0.10731 -1.59556,-0.47205 -2.17786,-0.84509 -1.27887,-0.81948 -2.11407,-1.72916 -2.63097,-2.86557 -0.17173,-0.37754 -0.26555,-0.67057 -0.53396,-1.66726 -0.0667,-0.24783 -0.14978,-0.52075 -0.18456,-0.60646 -0.0587,-0.14472 -0.0613,-0.19342 -0.0357,-0.67587 0.0242,-0.45844 0.10318,-1.0786 0.14553,-1.14391 0.008,-0.012 0.0276,-0.016 0.043,-0.01 0.0522,0.031 0.10049,-0.11031 0.14795,-0.43144 0.026,-0.17592 0.0669,-0.36043 0.0908,-0.41004 0.0239,-0.05 0.0644,-0.15891 0.0901,-0.24302 0.0589,-0.19372 0.13932,-0.34254 0.3878,-0.71817 0.10929,-0.16532 0.22288,-0.34524 0.25244,-0.39994 0.0348,-0.064 0.0728,-0.096 0.10767,-0.089 0.0336,0.01 0.0891,-0.035 0.14716,-0.11081 0.25265,-0.32753 1.44257,-1.29393 1.55269,-1.26092 0.03,0.01 0.15561,-0.032 0.27903,-0.09 0.22321,-0.10591 0.32158,-0.13041 0.32158,-0.08 0,0.015 -0.0323,0.047 -0.0717,0.073 -0.0692,0.045 -0.0678,0.046 0.0398,0.021 0.0613,-0.014 0.16465,-0.034 0.22958,-0.044 0.0802,-0.013 0.11283,-0.032 0.10171,-0.059 -0.0102,-0.024 0.0133,-0.047 0.0572,-0.058 0.10969,-0.028 0.28061,-0.024 0.28061,0.01 0,0.037 -0.0977,0.074 -0.17526,0.067 -0.0528,-0.01 -0.0556,0 -0.0159,0.025 0.0395,0.026 0.0399,0.031 0.003,0.032 -0.0249,3e-4 -0.037,0.01 -0.027,0.018 0.0102,0.01 0.0765,-0.011 0.14765,-0.045 0.0713,-0.034 0.20167,-0.077 0.28988,-0.095 0.10859,-0.022 0.16039,-0.047 0.16039,-0.079 0,-0.04 0.0504,-0.044 0.39035,-0.027 0.21469,0.011 0.53868,0.043 0.71995,0.071 0.32959,0.051 0.32962,0.051 0.45244,-0.016 0.14733,-0.08 0.38428,-0.09 0.44654,-0.02 0.0228,0.026 0.0855,0.069 0.13933,0.095 0.0879,0.043 0.0937,0.043 0.0565,0 -0.0706,-0.08 -4.8e-4,-0.078 0.27188,0.01 0.87807,0.27723 1.59391,0.77097 2.12507,1.46574 0.12597,0.16472 0.13359,0.23892 0.0143,0.13861 l -0.0683,-0.057 0.0521,0.096 c 0.0287,0.053 0.0521,0.11231 0.0521,0.13211 0,0.02 0.0844,0.16572 0.18764,0.32433 0.23259,0.35764 0.29766,0.47815 0.28205,0.52225 -0.007,0.019 -0.10973,-0.10701 -0.22899,-0.27982 -0.11925,-0.17292 -0.29571,-0.40584 -0.39215,-0.51765 -0.144,-0.16692 -0.18172,-0.19552 -0.21111,-0.15982 -0.0197,0.024 -0.0677,0.048 -0.10678,0.053 l -0.071,0.01 0.0702,0.12981 c 0.0386,0.071 0.0753,0.11531 0.0816,0.098 0.0335,-0.095 0.1897,0.03 0.26069,0.20812 0.023,0.058 0.0843,0.17692 0.13606,0.26462 0.0518,0.088 0.0877,0.16562 0.0797,0.17312 -0.008,0.01 -0.0552,-0.016 -0.10493,-0.053 l -0.0904,-0.067 0.0617,0.10001 c 0.0339,0.055 0.0907,0.12201 0.12623,0.14921 0.0443,0.034 0.0655,0.087 0.0674,0.17082 0.004,0.15381 0.0971,0.33553 0.14795,0.28763 0.0792,-0.075 0.0955,-0.028 0.0755,0.21642 -0.0147,0.18012 -0.007,0.29883 0.0279,0.42484 0.0528,0.19132 0.0415,0.23852 -0.0358,0.14911 -0.0492,-0.057 -0.0497,-0.057 -0.0277,0 0.0472,0.12652 0.0825,0.31583 0.0727,0.39004 -0.0183,0.13861 -0.0735,0.081 -0.0925,-0.097 l -0.0185,-0.17331 -0.005,0.18441 c -0.003,0.10141 -0.0282,0.29743 -0.0562,0.43555 -0.0282,0.13951 -0.0425,0.30862 -0.0323,0.38033 0.0193,0.13511 0.006,0.14032 -0.11407,0.044 -0.0488,-0.039 -0.0571,-0.032 -0.0906,0.086 -0.0282,0.099 -0.0279,0.15472 9.9e-4,0.23733 0.0209,0.06 0.0329,0.14021 0.0269,0.17931 -0.014,0.09 -0.0907,0.11842 -0.0907,0.033 0,-0.10711 -0.0432,-0.069 -0.17526,0.15461 -0.35661,0.60356 -0.92083,1.07071 -1.55943,1.29113 -0.37648,0.12981 -0.629,0.17801 -1.05358,0.20092 l -0.38239,0.021 0.18893,0.055 c 0.15236,0.044 0.24182,0.051 0.46206,0.034 0.28853,-0.022 0.62732,-0.081 0.78094,-0.13612 0.0613,-0.022 0.10272,-0.023 0.1239,-0.01 0.05,0.047 -0.39383,0.23223 -0.65726,0.27423 -0.44823,0.071 -1.04825,-0.01 -1.57791,-0.20292 -0.35938,-0.13381 -0.89264,-0.48215 -0.81093,-0.52965 0.0155,-0.01 0.11695,0.037 0.22546,0.10111 0.13872,0.083 0.19731,0.10451 0.19731,0.073 0,-0.059 0.0206,-0.056 0.13072,0.018 0.0996,0.067 0.40563,0.19082 0.62609,0.25372 0.24033,0.069 0.14715,-0.015 -0.17526,-0.15631 -1.0194,-0.44795 -1.4426,-0.89609 -1.6535,-1.75077 -0.0774,-0.31343 0.005,-1.0006 0.14658,-1.21572 0.0357,-0.055 0.0649,-0.12161 0.0649,-0.14901 0,-0.11912 0.21058,-0.43365 0.42666,-0.63727 0.38076,-0.35893 0.77661,-0.50794 1.2905,-0.48584 0.24842,0.011 0.35451,0.031 0.56125,0.10891 0.2345,0.088 0.52975,0.27242 0.43933,0.27422 -0.0213,5e-4 -0.11447,-0.029 -0.20712,-0.065 -0.14087,-0.055 -0.23117,-0.066 -0.55087,-0.068 -0.44892,0 -0.66835,0.058 -0.98785,0.27033 -0.45295,0.30043 -0.70483,0.64646 -0.79403,1.0909 -0.0599,0.29813 -0.0617,0.38084 -0.015,0.67667 0.0269,0.17041 0.046,0.22042 0.0796,0.20832 0.0283,-0.01 0.0443,0.01 0.0443,0.041 0,0.10571 0.24383,0.53425 0.41294,0.72577 0.40702,0.46115 1.06544,0.75538 1.69016,0.75538 0.32424,0 0.58636,-0.059 0.82762,-0.18532 0.0969,-0.051 0.21918,-0.11291 0.27176,-0.13802 0.1855,-0.089 0.30059,-0.18991 0.43516,-0.38283 0.0748,-0.10731 0.15612,-0.19502 0.1807,-0.19502 0.0363,0 0.0347,0.015 -0.008,0.083 -0.14223,0.22122 0.19157,-0.18112 0.36445,-0.43925 l 0.1936,-0.28922 -0.0211,-0.19002 c -0.0203,-0.18252 -0.0173,-0.19372 0.0753,-0.28533 0.0892,-0.088 0.0972,-0.11451 0.10752,-0.35053 0.009,-0.21122 0.003,-0.25503 -0.0367,-0.25533 -0.0367,-2e-4 -0.0525,-0.056 -0.0684,-0.24052 -0.021,-0.24452 -0.23214,-1.0674 -0.28132,-1.09601 -0.0149,-0.01 -0.056,-0.088 -0.0915,-0.17581 -0.11977,-0.29713 -0.32987,-0.58296 -0.65743,-0.89419 -0.47133,-0.44794 -1.06505,-0.79378 -1.62588,-0.94719 -0.47706,-0.13041 -1.28714,-0.083 -1.86416,0.10901 -0.28161,0.094 -0.55907,0.21782 -0.60588,0.27103 -0.0213,0.024 -0.052,0.036 -0.0684,0.027 -0.0173,-0.01 -0.0125,-0.037 0.0113,-0.064 0.10629,-0.12081 -0.24644,0.10021 -0.47352,0.29663 -0.13729,0.11881 -0.25462,0.21952 -0.26074,0.22392 -0.006,0.01 0.0206,2e-4 0.0594,-0.01 0.0645,-0.016 0.0673,-0.011 0.0323,0.05 -0.0224,0.039 -0.13926,0.11061 -0.28244,0.17181 -0.24059,0.10291 -0.3962,0.21592 -0.51983,0.37774 -0.0494,0.065 -0.0522,0.079 -0.0131,0.064 0.0274,-0.01 0.0498,-0.01 0.0498,0.014 0,0.086 -0.0827,0.18161 -0.20516,0.23772 -0.27137,0.12431 -0.74806,0.78808 -1.00343,1.39733 -0.11379,0.27153 -0.11199,0.26213 -0.0501,0.26213 0.0653,0 0.0607,0.07 -0.0289,0.44484 -0.1305,0.54635 -0.13065,0.52885 0.0114,1.29743 0.17315,0.93649 0.2743,1.24932 0.46663,1.44314 0.0451,0.045 0.089,0.14221 0.10853,0.23942 0.0233,0.11601 0.0625,0.19252 0.13586,0.26543 0.0669,0.066 0.0892,0.10721 0.0634,0.11601 -0.0504,0.017 0.10737,0.23902 0.25132,0.35323 0.0724,0.058 0.12608,0.077 0.18422,0.066 0.12739,-0.023 0.25713,0.046 0.45646,0.24342 0.20715,0.20492 0.22791,0.26003 0.0908,0.24102 -0.0885,-0.012 -0.0904,-0.01 -0.0469,0.053 0.0251,0.036 0.11734,0.12261 0.20515,0.19242 0.12335,0.098 0.1551,0.14041 0.13963,0.18642 -0.0223,0.066 0.0412,0.12781 0.1849,0.17961 0.0891,0.032 0.11779,0.10141 0.0507,0.12241 -0.0203,0.01 0.10518,0.12812 0.27883,0.27063 0.19564,0.16042 0.32722,0.24832 0.34598,0.23122 0.0496,-0.045 0.11306,-0.032 0.11419,0.024 0.001,0.062 0.0575,0.12611 0.2598,0.29852 0.12787,0.10891 0.15978,0.12262 0.23815,0.10231 0.0718,-0.019 0.1169,-0.01 0.21797,0.058 0.20165,0.12851 0.32391,0.17982 0.42861,0.17982 0.103,0 0.11767,0.028 0.0642,0.12211 -0.0283,0.05 -0.0223,0.058 0.0428,0.058 0.0418,0 0.15917,0.027 0.26104,0.06 0.23164,0.075 0.32828,0.08 0.27022,0.014 -0.0857,-0.098 0.005,-0.071 0.31163,0.091 0.42817,0.22642 0.64476,0.25222 1.4974,0.17882 0.12623,-0.011 0.1673,-0.01 0.1673,0.026 0,0.026 -0.10955,0.065 -0.3107,0.11121 -0.26444,0.06 -0.40557,0.072 -0.94801,0.078 -0.42743,0.01 -0.71939,-0.01 -0.88654,-0.033 z m -0.43589,-4.50324 c 0,-0.01 -0.0394,-0.034 -0.0877,-0.062 l -0.0877,-0.05 0.0752,0.062 c 0.0734,0.06 0.10008,0.074 0.10008,0.05 z m 4.38739,-3.1483 c -0.0102,-0.024 -0.0177,-0.017 -0.0192,0.018 -0.001,0.032 0.006,0.05 0.0167,0.039 0.0106,-0.01 0.0117,-0.036 0.003,-0.058 z m -7.25126,-3.17101 c 0.0396,-0.047 0.0385,-0.049 -0.012,-0.011 -0.0306,0.023 -0.0558,0.046 -0.0558,0.052 0,0.024 0.0262,0.01 0.0678,-0.042 z m 0.3624,-0.27793 c 0.0318,-0.033 0.0505,-0.06 0.0417,-0.06 -0.009,0 -0.0418,0.027 -0.0736,0.06 -0.0317,0.033 -0.0505,0.06 -0.0417,0.06 0.009,0 0.0418,-0.027 0.0736,-0.06 z m 0.40111,-0.21112 c 0.10504,-0.034 0.16473,-0.039 0.18689,-0.019 0.0222,0.021 0.10433,0.01 0.25732,-0.039 0.12364,-0.038 0.21911,-0.075 0.21216,-0.081 -0.007,-0.01 -0.10874,0.019 -0.2262,0.055 -0.16135,0.051 -0.21941,0.058 -0.23739,0.031 -0.0304,-0.046 -0.32036,0.045 -0.445,0.14031 l -0.0851,0.065 0.0915,-0.052 c 0.0503,-0.028 0.16098,-0.074 0.24586,-0.10101 z m 0.91869,-0.076 c 0.0926,-0.026 0.16273,-0.052 0.15598,-0.059 -0.0149,-0.014 -0.34455,0.075 -0.34455,0.093 0,0.018 0.003,0.017 0.18857,-0.034 z m 0.52842,-0.16372 0.12747,-0.022 -0.11154,0 c -0.0613,0 -0.14737,0.018 -0.19119,0.043 -0.0516,0.03 -0.0572,0.039 -0.0159,0.024 0.035,-0.012 0.1211,-0.031 0.1912,-0.043 z m 0.25308,-0.057 c 0.0102,-0.015 -0.0108,-0.02 -0.0459,-0.012 -0.0744,0.019 -0.0838,0.039 -0.0178,0.039 0.0253,0 0.054,-0.013 0.0637,-0.027 z m 1.02886,0.01 c -0.0106,-0.01 -0.0381,-0.011 -0.0611,0 -0.0255,0.01 -0.0178,0.017 0.0192,0.018 0.0336,0 0.0524,-0.01 0.0419,-0.016 z m -0.19054,-0.033 c -0.0306,-0.01 -0.0808,-0.01 -0.11153,0 -0.0306,0.01 -0.005,0.014 0.0558,0.014 0.0613,0 0.0864,-0.01 0.0558,-0.014 z m -0.31781,-0.031 c -0.0653,-0.01 -0.17998,-0.01 -0.25493,-2e-4 -0.0749,0.01 -0.0216,0.012 0.11866,0.012 0.14021,1e-4 0.20153,-0.01 0.13627,-0.012 z m -0.41576,-0.026 c -0.0106,-0.01 -0.0381,-0.011 -0.0611,0 -0.0254,0.01 -0.0179,0.017 0.0192,0.018 0.0336,0 0.0524,-0.01 0.0419,-0.016 z m -0.2157,7.22029 c -0.32459,-0.21922 -0.44485,-0.33263 -0.44485,-0.41954 0,-0.046 0.0111,-0.084 0.0245,-0.084 0.0459,0 0.58859,0.53395 0.57672,0.56755 -0.007,0.02 -0.0724,-0.01 -0.15642,-0.064 z m -0.16704,-0.55665 c -0.16856,-0.16061 -0.22258,-0.24702 -0.15445,-0.24702 0.0409,0 0.35463,0.33863 0.35463,0.38283 0,0.021 -0.004,0.038 -0.009,0.038 -0.005,0 -0.091,-0.078 -0.1912,-0.17352 z m 1.86516,-0.65736 c -0.089,-0.034 -0.0334,-0.097 0.11153,-0.12591 0.0833,-0.017 0.21554,-0.058 0.29399,-0.091 0.0784,-0.033 0.14828,-0.055 0.1552,-0.049 0.007,0.01 -0.0286,0.073 -0.0789,0.14842 -0.0909,0.13561 -0.0925,0.13641 -0.26674,0.13411 -0.0964,0 -0.19319,-0.01 -0.2151,-0.017 z m 0.95598,-0.67207 c -0.086,-0.033 -0.0896,-0.088 -0.0177,-0.27682 0.0617,-0.16232 0.12566,-0.19422 0.0901,-0.045 -0.0128,0.053 -0.0299,0.13141 -0.038,0.17272 l -0.0147,0.075 0.0636,-0.068 c 0.0377,-0.04 0.0726,-0.13551 0.0854,-0.23252 0.012,-0.09 0.0344,-0.15672 0.05,-0.14772 0.0394,0.023 0.0352,0.26053 -0.007,0.42024 -0.0373,0.13942 -0.0708,0.15572 -0.21131,0.10241 z m -7.54084,-0.37723 c -0.0106,-0.026 -0.0193,-0.12862 -0.0193,-0.22773 0,-0.13081 0.0109,-0.17691 0.0398,-0.16791 0.0473,0.015 0.0751,0.44314 0.0287,0.44314 -0.0164,0 -0.0386,-0.021 -0.0492,-0.047 z m 7.66602,-0.70257 c -0.0495,-0.063 -0.0648,-0.11311 -0.0507,-0.16582 0.0288,-0.10831 0.10428,-0.093 0.15994,0.033 0.0865,0.19531 0.0114,0.28692 -0.1092,0.13311 z m -7.67257,-0.47705 c -0.002,-0.17031 -2e-5,-0.17551 0.08,-0.17271 0.0678,0 0.0842,0.019 0.092,0.095 0.009,0.085 -0.0893,0.25373 -0.14756,0.25373 -0.012,0 -0.023,-0.079 -0.0244,-0.17572 z m 8.25998,-3.69275 c 0.005,-0.26893 0.0524,-0.35994 0.0899,-0.17172 0.0261,0.13111 -0.007,0.36273 -0.0576,0.40234 -0.0275,0.021 -0.0357,-0.037 -0.0323,-0.23062 z m -4.1871,-0.16112 c 0.0128,-0.036 0.45239,-0.20602 0.53348,-0.20602 0.0953,0 -0.0756,0.11001 -0.27272,0.17562 -0.21977,0.073 -0.27829,0.08 -0.26076,0.031 z" opacity="0.75" fill="#ffffff"/>
  <rect id="rect5847" width="24" height="24" x="388.57144" y="521.79797" mix-blend-mode="normal" solid-color="#000000" color-interpolation-filters="linearRGB" color="#000000" image-rendering="auto" color-rendering="auto" isolation="auto" color-interpolation="sRGB" solid-opacity="1" fill="url(#linearGradient5849)" shape-rendering="auto"/>
 </g>
</svg>
