<svg width="32" xmlns="http://www.w3.org/2000/svg" height="32">
 <defs>
  <linearGradient id="a" y1="3" y2="61" x2="0" gradientUnits="userSpaceOnUse" gradientTransform="matrix(.5 0 0-.48276 384.57 547.25)">
   <stop stop-color="#5e6b78"/>
   <stop offset="1" stop-color="#768492"/>
  </linearGradient>
  <linearGradient id="b" y1="518.04" y2="524.8" x2="0" gradientUnits="userSpaceOnUse">
   <stop stop-color="#dedede"/>
   <stop offset="1" stop-color="#fbfbfb"/>
  </linearGradient>
  <linearGradient id="c" y1="524.8" x1="404.57" y2="531.8" x2="411.57" gradientUnits="userSpaceOnUse">
   <stop stop-color="#383e51"/>
   <stop offset="1" stop-color="#655c6f" stop-opacity="0"/>
  </linearGradient>
 </defs>
 <g transform="translate(-384.57-515.8)">
  <path fill="url(#a)" d="m389.57 545.8v-28h15l7 7v21h-7z"/>
  <g transform="scale(1-1)">
   <rect width="15" x="389.57" y="-518.8" fill="#ffffff" height="1" fill-opacity=".412"/>
   <rect width="22" x="389.57" y="-545.8" fill="#2e3132" height="1" fill-opacity=".294"/>
  </g>
  <g fill-rule="evenodd">
   <path fill="url(#b)" d="m411.57 524.8l-7-7v7z"/>
   <path opacity=".2" fill="url(#c)" d="m411.57 531.8l-7-7h7z"/>
  </g>
  <g opacity=".75" fill="#fbfbfb" transform="matrix(.00124-.00017-.00017-.00124 394.38 534.19)">
   <path d="m9471.8 4996c-30.7-15.4-172.7-143.9-314.6-285.9l-259-260.9-71 65.2c-99.8 88.3-203.4 119-308.9 88.3-72.9-21.1-262.9-205.3-1515.7-1456.2-790.5-788.5-1435.1-1440.9-1435.1-1452.4 0-9.6 239.8-259 531.4-550.6l533.4-533.4 934.4 934.4c514.2 514.2 940.1 928.6 947.8 920.9 25-24.9 11.5-483.5-19.2-627.4-15.3-78.7-65.2-216.8-109.3-307-78.7-161.2-86.3-170.8-1245.2-1333.4-640.9-642.7-1176.2-1189.5-1187.7-1212.5-32.6-63.3-24.9-191.9 15.4-270.5 67.1-132.4 270.5-199.5 401-130.5 90.2 48 2388.6 2369.4 2469.2 2496.1 234.1 360.7 341.5 849.9 297.4 1352.6-17.3 199.5-49.9 393.3-88.2 533.4-11.5 38.4 23 80.6 237.9 297.4 203.4 207.2 251.3 266.7 262.9 326.2 24.9 126.6-3.8 203.4-115.1 318.5l-103.6 107.4 276.3 278.2c226.4 230.2 276.3 291.6 287.8 351.1 47.7 253.1-194 454.6-422.3 351"/>
   <path d="m3253.7-602.4c-1648.1-1650-1884-1895.6-2045.2-2112.4-320.4-431.7-698.4-1105.1-974.6-1730.6-178.4-401-178.4-362.6 0-297.4 550.6 203.4 1281.6 556.4 1717.1 830.7 425.9 268.6 502.7 341.5 2417.4 2256.2l1841.8 1843.9-537.2 537.2c-295.5 295.5-541 537.2-546.8 537.2-5.8 0-848-840.3-1872.5-1864.8"/>
  </g>
  <path fill="#fbfbfb" d="m400.48 537.79c-.305.064-.645.328-.809.633-.044.079-.114.258-.158.393-.041.138-.079.252-.082.255-.023.029-.607.17-.949.229-.806.141-1.026.193-1.105.267-.155.144-.035.287.185.223.059-.018.308-.067.548-.108.24-.041.607-.117.815-.164.208-.05.384-.082.393-.073.009.009-.026.176-.082.372l-.1.352-.22.097c-.12.053-.293.144-.384.205-.275.182-.328.41-.135.557.106.079.399.076.58-.003.161-.073.252-.176.378-.443.067-.138.12-.211.161-.22.032-.009.322-.067.645-.135.322-.064.615-.126.653-.135.062-.015.067-.009.05.047-.012.035-.065.138-.12.229-.056.091-.1.199-.1.243 0 .091.076.182.138.158.024-.009.056-.018.07-.018.015 0 .079-.047.144-.106.12-.108.41-.639.41-.75 0-.056.044-.07.07-.026.009.015.076.041.149.059.103.026.132.047.132.094 0 .091.149.223.281.249.103.018.234-.003.375-.062.05-.02.053-.015.035.062-.012.047-.097.196-.188.334-.193.287-.428.744-.489.947-.05.173-.029.302.062.363.082.053.217.029.287-.047.062-.067.396-.774.519-1.096.088-.226.129-.287.328-.498.164-.173.217-.214.182-.147-.059.126-.056.223.009.281.138.126.337.003.51-.314.103-.188.179-.243.56-.422l.199-.091-.021.108c-.012.059-.079.226-.149.369-.138.29-.164.475-.082.633.056.108.114.111.384.018.375-.126.865-.416.991-.583.173-.234.226-.46.12-.536-.108-.079-.17-.047-.308.155-.185.275-.413.489-.633.598-.103.053-.193.088-.202.079-.012-.012.223-.642.349-.938.026-.062.047-.138.047-.17 0-.082-.103-.176-.19-.176-.041 0-.234.079-.428.179-.402.199-.375.217-.273-.158.062-.231.041-.293-.1-.308-.135-.015-.188.029-.311.249-.079.149-.185.273-.387.46-.267.246-.278.255-.34.211-.094-.067-.147-.059-.375.056-.223.111-.296.126-.352.059-.047-.056.026-.085.434-.164.396-.076.445-.097.445-.179 0-.132-.108-.258-.302-.343-.334-.149-.372-.158-.519-.12-.158.041-.393.267-.425.407-.032.147-.132.103-.132-.059 0-.067-.082-.237-.129-.267-.1-.067-.261.079-.384.349l-.097.208-.217.047c-.281.062-1.099.226-1.207.246-.07.012-.082.006-.067-.035.012-.029.047-.158.082-.29.091-.363.117-.41.249-.457.158-.056.692-.284.829-.355.065-.032.196-.132.293-.22.296-.275.343-.53.132-.718-.059-.05-.135-.103-.17-.117-.108-.041-.375-.056-.504-.029m.375.405c.059.059.059.062.006.173-.035.07-.117.152-.22.223-.179.123-.738.349-.756.308-.024-.067.155-.469.27-.598.152-.173.196-.19.44-.176.155.009.217.023.261.07m-1.911 2.438c-.038.073-.138.126-.193.106-.064-.026-.047-.062.056-.114.135-.067.176-.064.138.009"/>
 </g>
</svg>
