<svg xmlns="http://www.w3.org/2000/svg" viewBox="0 0 32 32" xmlns:xlink="http://www.w3.org/1999/xlink">
 <defs>
  <linearGradient id="a" y1="9" x1="20" y2="16" x2="27" gradientUnits="userSpaceOnUse">
   <stop stop-color="#383e51"/>
   <stop offset="1" stop-color="#655c6f" stop-opacity="0"/>
  </linearGradient>
  <linearGradient id="b" y1="61" y2="3" x2="0" gradientUnits="userSpaceOnUse" gradientTransform="matrix(.5 0 0-.48276 0 31.448)">
   <stop stop-color="#ffffff" stop-opacity="0"/>
   <stop offset="1" stop-color="#ffffff" stop-opacity=".2"/>
  </linearGradient>
  <path id="c" d="m5 30v-28h15l7 7v21h-7z"/>
 </defs>
 <use fill="#51db51" xlink:href="#c"/>
 <g transform="scale(1-1)">
  <rect width="15" x="5" opacity=".5" y="-3" fill="#ffffff" height="1"/>
  <rect width="22" x="5" y="-30" fill="#2e3132" height="1" fill-opacity=".294"/>
 </g>
 <g fill-rule="evenodd">
  <path opacity=".5" fill="#ffffff" d="m27 9l-7-7v7z"/>
  <path opacity=".2" fill="url(#a)" d="m27 16l-7-7h7z"/>
 </g>
 <use fill="url(#b)" xlink:href="#c"/>
 <g fill="#ffffff">
  <path opacity=".75" d="m18.04 11.967c-2.168 0-3.926 1.757-3.926 3.924 0 .589.133 1.146.365 1.646l-.672.795-.059.746c-.006.006-.73.025-.73.025l-.373.271c0 0 .003.812 0 .801l-.002.002-.799.014-.338.385-.008.729c0 0-.688-.043-.758.021-.441.406-.738.695-.738.695l.004 1.908c0 0 .255-.002.373-.002l5.084-5.082c.305.266.658.471 1.035.633.475.205.991.334 1.541.334 2.169 0 3.928-1.755 3.928-3.922 0-2.166-1.758-3.924-3.928-3.924m.75 1.869c.723 0 1.309.586 1.309 1.309 0 .723-.586 1.309-1.309 1.309-.723 0-1.309-.586-1.309-1.309 0-.723.586-1.309 1.309-1.309"/>
  <path opacity=".5" d="m18.793 13.836c-.723 0-1.309.586-1.309 1.309 0 .723.586 1.309 1.309 1.309.723 0 1.309-.586 1.309-1.309 0-.723-.586-1.309-1.309-1.309m0 .748c.31 0 .561.251.561.561 0 .31-.251.561-.561.561-.31 0-.563-.251-.563-.561 0-.31.253-.561.563-.561m-3.326 4.262l-5.086 5.084h1.869l4.439-4.361c-.453-.167-.866-.412-1.223-.723"/>
 </g>
</svg>
