<svg width="32" xmlns="http://www.w3.org/2000/svg" height="32">
 <defs>
  <linearGradient id="a" y1="61" y2="3" x2="0" gradientUnits="userSpaceOnUse" gradientTransform="matrix(.5 0 0-.48276 384.57 547.25)">
   <stop stop-color="#8892bf"/>
   <stop offset="1" stop-color="#939dc9"/>
  </linearGradient>
  <linearGradient id="b" y1="518.04" y2="524.8" x2="0" gradientUnits="userSpaceOnUse">
   <stop stop-color="#444e7e"/>
   <stop offset="1" stop-color="#5a669e"/>
  </linearGradient>
  <linearGradient id="c" y1="524.8" x1="404.57" y2="531.8" x2="411.57" gradientUnits="userSpaceOnUse">
   <stop stop-color="#383e51"/>
   <stop offset="1" stop-color="#655c6f" stop-opacity="0"/>
  </linearGradient>
 </defs>
 <g transform="translate(-384.57-515.8)">
  <path fill="url(#a)" d="m389.57 545.8v-28h15l7 7v21h-7z"/>
  <g transform="scale(1-1)">
   <rect width="15" x="389.57" y="-518.8" fill="#ffffff" height="1" fill-opacity=".412"/>
   <rect width="22" x="389.57" y="-545.8" fill="#2e3132" height="1" fill-opacity=".294"/>
  </g>
  <g fill-rule="evenodd">
   <path fill="url(#b)" d="m411.57 524.8l-7-7v7z"/>
   <path opacity=".2" fill="url(#c)" d="m411.57 531.8l-7-7h7z"/>
  </g>
  <path fill="#656f9d" d="m401.05 535.99l-1.385-1.38.016-.016c.949-1.067 1.625-2.293 2.024-3.591h1.598v-1.1h-3.818v-1.1h-1.091v1.1h-3.818v1.095h6.093c-.365 1.062-.944 2.068-1.729 2.948-.507-.567-.927-1.188-1.26-1.842h-1.091c.398.896.944 1.744 1.625 2.508l-2.776 2.761.775.781 2.727-2.75 1.696 1.71zm3.071-2.788h-1.091l-2.455 6.6h1.091l.611-1.65h2.591l.616 1.65h1.091zm-1.429 3.85l.884-2.381.884 2.381z"/>
 </g>
</svg>
