<svg width="32" xmlns="http://www.w3.org/2000/svg" height="32">
 <defs>
  <linearGradient id="a" y1="61" y2="3" x2="0" gradientUnits="userSpaceOnUse" gradientTransform="matrix(.5 0 0-.48276 384.57 547.25)">
   <stop stop-color="#f62459"/>
   <stop offset="1" stop-color="#f73768"/>
  </linearGradient>
  <linearGradient id="b" y1="518.04" y2="524.8" x2="0" gradientUnits="userSpaceOnUse">
   <stop stop-color="#ffd6af"/>
   <stop offset="1" stop-color="#fffcf9"/>
  </linearGradient>
  <linearGradient id="c" y1="524.8" x1="404.57" y2="531.8" x2="411.57" gradientUnits="userSpaceOnUse">
   <stop stop-color="#383e51"/>
   <stop offset="1" stop-color="#655c6f" stop-opacity="0"/>
  </linearGradient>
 </defs>
 <g transform="translate(-384.57-515.8)">
  <path fill="url(#a)" d="m389.57 545.8v-28h15l7 7v21h-7z"/>
  <g transform="scale(1-1)">
   <rect width="15" x="389.57" y="-518.8" fill="#ffffff" height="1" fill-opacity=".412"/>
   <rect width="22" x="389.57" y="-545.8" fill="#2e3132" height="1" fill-opacity=".294"/>
  </g>
  <g fill-rule="evenodd">
   <path fill="url(#b)" d="m411.57 524.8l-7-7v7z"/>
   <path opacity=".2" fill="url(#c)" d="m411.57 531.8l-7-7h7z"/>
  </g>
  <path fill="#fffcf9" d="m3 1038.36v4h-1v6h3v2h6v-2h3v-6h-1v-4zm1 1h8v3h-1v-1h-6v1h-1zm1 0v1h6v-1zm-2 4h10v4h-1v-1h-8v1h-1zm7 1v1h2v-1zm-4 4h4v1h-4z" transform="translate(392.57-510.56)"/>
 </g>
</svg>
