<svg width="32" xmlns="http://www.w3.org/2000/svg" height="32">
 <defs>
  <linearGradient id="a" y1="61" y2="3" x2="0" gradientUnits="userSpaceOnUse" gradientTransform="matrix(.5 0 0-.48276 384.57 547.25)">
   <stop stop-color="#913d88"/>
   <stop offset="1" stop-color="#9b4792"/>
  </linearGradient>
  <linearGradient id="b" y1="518.04" y2="524.8" x2="0" gradientUnits="userSpaceOnUse">
   <stop stop-color="#d5a5d0"/>
   <stop offset="1" stop-color="#e7cbe4"/>
  </linearGradient>
  <linearGradient id="c" y1="524.8" x1="404.57" y2="531.8" x2="411.57" gradientUnits="userSpaceOnUse">
   <stop stop-color="#383e51"/>
   <stop offset="1" stop-color="#655c6f" stop-opacity="0"/>
  </linearGradient>
 </defs>
 <g transform="translate(-384.57-515.8)">
  <path fill="url(#a)" d="m389.57 545.8v-28h15l7 7v21h-7z"/>
  <g transform="scale(1-1)">
   <rect width="15" x="389.57" y="-518.8" fill="#ffffff" height="1" fill-opacity=".412"/>
   <rect width="22" x="389.57" y="-545.8" fill="#2e3132" height="1" fill-opacity=".294"/>
  </g>
  <g fill-rule="evenodd">
   <path fill="url(#b)" d="m411.57 524.8l-7-7v7z"/>
   <path opacity=".2" fill="url(#c)" d="m411.57 531.8l-7-7h7z"/>
  </g>
  <path opacity=".75" fill="#ffffff" d="m395.57 526.8c-.554 0-1 .446-1 1v10c0 .554.446 1 1 1h8c.554 0 1-.446 1-1h1c.554 0 1-.446 1-1v-2c0-.186-.064-.351-.152-.5.088-.149.152-.314.152-.5v-2c0-.186-.064-.351-.152-.5.088-.149.152-.314.152-.5v-2c0-.554-.446-1-1-1h-1c0-.554-.446-1-1-1zm0 1h8v10h-8zm1 1v2h6v-2zm8 0h1v2h-1zm-8 3v1h6v-1zm8 0h1v2h-1zm-8 2v1h6v-1zm8 1h1v2h-1zm-8 1v1h6v-1z"/>
 </g>
</svg>
