<svg width="32" xmlns="http://www.w3.org/2000/svg" height="32" xmlns:xlink="http://www.w3.org/1999/xlink">
 <defs>
  <linearGradient id="a" y1="17" y2="24" x1="47" x2="54" gradientUnits="userSpaceOnUse" gradientTransform="translate(357.57 507.8)">
   <stop stop-color="#060606"/>
   <stop offset="1" stop-opacity="0"/>
  </linearGradient>
  <linearGradient id="b" y1="392.36" y2="365.36" x2="0" gradientUnits="userSpaceOnUse" gradientTransform="translate(309.57 152.44)">
   <stop stop-color="#ffffff" stop-opacity="0"/>
   <stop offset="1" stop-color="#ffffff" stop-opacity=".2"/>
  </linearGradient>
  <path id="c" d="m389.57 545.8v-28h15l7 7v21h-14z"/>
 </defs>
 <g transform="translate(-384.57-515.8)">
  <g color-rendering="auto" color-interpolation-filters="linearRGB" shape-rendering="auto" image-rendering="auto" text-rendering="auto" color-interpolation="sRGB" color="#000000">
   <use fill="#35bedc" xlink:href="#c"/>
   <g fill="#ffffff">
    <path opacity=".3" d="m6.998 2v1.998h-1.998v1h1.998v2h-1.998v1h1.998v2h-1.998v1h1.998v2h-1.998v1h1.998v2h-1.998v1h1.998v2h-1.998v1h1.998v2h-1.998v1h1.998v2h-1.998v1h1.998v2h-1.998v1h1.998v1h1v-1h2v1h1v-1h2v1h1v-1h2v1h1v-1h2v1h1v-1h2v1h1v-1h2v1h1v-1h1v-1h-1v-2h1v-1h-1v-2h1v-1h-1v-2h1v-1h-1v-2h1v-1h-1v-2h1v-1h-1v-2h1v-1h-1v-.998h-1v.998h-2v-.998h-1v.998h-2v-2h.002v-1h-.002v-2h.002v-1h-.002v-1.998h-1v1.998h-2v-1.998h-1v1.998h-2v-1.998h-1v1.998h-2v-1.998h-1v1.998h-2v-1.998zm1 2.998h2v2h-2zm3 0h2v2h-2zm3 0h2v2h-2zm3 0h2v2h-2zm-9 3h2v2h-2zm3 0h2v2h-2zm3 0h2v2h-2zm3 0h2v2h-2zm-9 3h2v2h-2zm3 0h2v2h-2zm3 0h2v2h-2zm3 0h2v2h-2zm3 0h2v2h-2zm3 0h2v2h-2zm-15 3h2v2h-2zm3 0h2v2h-2zm3 0h2v2h-2zm3 0h2v2h-2zm3 0h2v2h-2zm3 0h2v2h-2zm-15 3h2v2h-2zm3 0h2v2h-2zm3 0h2v2h-2zm3 0h2v2h-2zm3 0h2v2h-2zm3 0h2v2h-2zm-15 3h2v2h-2zm3 0h2v2h-2zm3 0h2v2h-2zm3 0h2v2h-2zm3 0h2v2h-2zm3 0h2v2h-2zm-15 3h2v2h-2v-1zm3 0h2v2h-2v-1zm3 0h2v2h-2v-1zm3 0h2v2h-2v-1zm3 0h2v2h-2v-1zm3 0h2v2h-2v-1zm-15 3h2v2h-2v-1zm3 0h2v2h-2v-1zm3 0h2v2h-2v-1zm3 0h2v2h-2v-1zm3 0h2v2h-2v-1zm3 0h2v2h-2v-1z" transform="translate(384.57 515.8)"/>
    <rect opacity=".5" x="389.57" y="-518.8" width="15" height="1" transform="scale(1-1)"/>
   </g>
   <rect opacity=".25" x="389.57" y="-545.8" width="22" height="1" transform="scale(1-1)"/>
  </g>
  <g fill-rule="evenodd">
   <path opacity=".1" fill="url(#a)" d="m404.57 524.8l7 7v-7z"/>
   <g fill="#ffffff" color-rendering="auto" color-interpolation-filters="linearRGB" shape-rendering="auto" image-rendering="auto" text-rendering="auto" color-interpolation="sRGB">
    <path opacity=".9" color="#4d4d4d" d="m395.57 525.8v3h1v1.65a1.500006 1.500006 0 0 0 -1 1.41211 1.500006 1.500006 0 0 0 1 1.41211v1.525h-1v3h3v-1.809a6.999994 6 0 0 0 5 1.80859v-1a5.999996 5.00001 0 0 1 -5.76953 -3.63086 1.500006 1.500006 0 0 0 .76953 -1.30664 1.500006 1.500006 0 0 0 -.79883 -1.32227 5.999996 5.00001 0 0 1 5.79883 -3.74023v-1a6.999994 6 0 0 0 -5 1.80273v-1.803zm1 1h1v1h-1zm0 9h1v1h-1z"/>
    <path opacity=".5" color="#000000" d="m411.57 524.8l-7-7v7z"/>
   </g>
  </g>
  <use fill="url(#b)" xlink:href="#c"/>
 </g>
</svg>
