<svg width="32" xmlns="http://www.w3.org/2000/svg" height="32" xmlns:xlink="http://www.w3.org/1999/xlink">
 <defs>
  <linearGradient id="a" y1="392.36" y2="365.36" x2="0" gradientUnits="userSpaceOnUse" gradientTransform="translate(309.57 152.44)">
   <stop stop-color="#ffffff" stop-opacity="0"/>
   <stop offset="1" stop-color="#ffffff" stop-opacity=".2"/>
  </linearGradient>
  <linearGradient id="b" y1="17" y2="24" x1="47" x2="54" gradientUnits="userSpaceOnUse" gradientTransform="translate(357.57 507.8)">
   <stop stop-color="#060606"/>
   <stop offset="1" stop-opacity="0"/>
  </linearGradient>
  <path id="c" d="m389.57 545.8v-28h15l7 7v21h-14z"/>
 </defs>
 <g transform="translate(-384.57-515.8)">
  <g color-rendering="auto" color-interpolation-filters="linearRGB" shape-rendering="auto" image-rendering="auto" text-rendering="auto" color-interpolation="sRGB" color="#000000">
   <use fill="#8373d7" xlink:href="#c"/>
   <g transform="scale(1-1)">
    <rect opacity=".5" x="389.57" y="-518.8" width="15" fill="#ffffff" height="1"/>
    <rect opacity=".25" x="389.57" y="-545.8" width="22" height="1"/>
   </g>
   <path opacity=".6" fill-rule="evenodd" d="m411.57 524.8l-7-7v7z"/>
  </g>
  <path opacity=".2" fill="url(#b)" fill-rule="evenodd" d="m404.57 524.8l7 7v-7z"/>
  <path opacity=".7" color-interpolation-filters="linearRGB" color="#000000" image-rendering="auto" color-rendering="auto" d="m401.66 526.8l-2.947 11h1.031l2.883-10.977zm-4.805 2l-2.961 3.145-.324.348.324.346 2.943 3.162.715-.695-2.621-2.813 2.639-2.797zm8.715 0c-1.108 0-2 2-2 2v1h1v-1c0 0 .446-1 1-1 .554 0 1 .446 1 1v2c-1.108 0-2 .892-2 2h1c0-.554 1-1 1-1h1v-3c0-1.108-.892-2-2-2m-.5 7c-.276 0-.5.224-.5.5 0 .276.224.5.5.5.276 0 .5-.224.5-.5 0-.276-.224-.5-.5-.5" color-interpolation="sRGB" text-rendering="auto" shape-rendering="auto"/>
  <use fill="url(#a)" xlink:href="#c"/>
 </g>
</svg>
