<svg width="32" xmlns="http://www.w3.org/2000/svg" height="32">
 <defs>
  <linearGradient id="a" y1="61" y2="3" x2="0" gradientUnits="userSpaceOnUse" gradientTransform="matrix(.5 0 0-.48276 384.57 547.25)">
   <stop stop-color="#8e44ad"/>
   <stop offset="1" stop-color="#9b59b6"/>
  </linearGradient>
  <linearGradient id="b" y1="518.04" y2="524.8" x2="0" gradientUnits="userSpaceOnUse">
   <stop stop-color="#d3bdd7"/>
   <stop offset="1" stop-color="#e8d9eb"/>
  </linearGradient>
  <linearGradient id="c" y1="524.8" x1="404.57" y2="531.8" x2="411.57" gradientUnits="userSpaceOnUse">
   <stop stop-color="#383e51"/>
   <stop offset="1" stop-color="#655c6f" stop-opacity="0"/>
  </linearGradient>
 </defs>
 <g transform="translate(-384.57-515.8)">
  <path fill="url(#a)" d="m389.57 545.8v-28h15l7 7v21h-7z"/>
  <g transform="scale(1-1)">
   <rect width="15" x="389.57" y="-518.8" fill="#ffffff" height="1" fill-opacity=".412"/>
   <rect width="22" x="389.57" y="-545.8" fill="#2e3132" height="1" fill-opacity=".294"/>
  </g>
  <g fill-rule="evenodd">
   <path fill="url(#b)" d="m411.57 524.8l-7-7v7z"/>
   <path opacity=".2" fill="url(#c)" d="m411.57 531.8l-7-7h7z"/>
  </g>
  <path fill="#e8d9eb" d="m400.57143 527.798a6 2 0 0 0 -6 2v4a6 2 0 0 0 5 1.9707v2.029h-2v-1h-3v3h3v-1h6v1h3v-3h-3v1h-2v-2.029a6 2 0 0 0 5 -1.9707h-1a5 1 0 0 1 -5 1 5 1 0 0 1 -5 -1v-2.898a6 2 0 0 0 5 .89844v-1a5 1 0 0 1 -5 -1 5 1 0 0 1 5 -1zm1 0v3h1v-1h.5c.831 0 1.5.669 1.5 1.5 0 .831-.669 1.5-1.5 1.5h-1.5v1h1.5c1.385 0 2.5-1.115 2.5-2.5 0-1.385-1.115-2.5-2.5-2.5h1.5v-1zm-6 10h1v1h-1zm9 0h1v1h-1z"/>
 </g>
</svg>
