<svg version="1.1" viewBox="0 0 32 32" xmlns="http://www.w3.org/2000/svg" xmlns:xlink="http://www.w3.org/1999/xlink">
    <defs>
        <linearGradient id="c" x2="0" y1="392.36" y2="365.36" gradientTransform="translate(309.57 152.44)" gradientUnits="userSpaceOnUse">
            <stop stop-color="#fff" stop-opacity="0" offset="0"/>
            <stop stop-color="#fff" stop-opacity=".2" offset="1"/>
        </linearGradient>
        <linearGradient id="b" x1="47" x2="54" y1="17" y2="24" gradientTransform="translate(357.57 507.8)" gradientUnits="userSpaceOnUse">
            <stop stop-color="#060606" offset="0"/>
            <stop stop-opacity="0" offset="1"/>
        </linearGradient>
        <path id="a" d="m389.57 545.8v-28h15l7 7v21h-14z"/>
    </defs>
    <g transform="translate(-384.57 -515.8)">
        <use width="100%" height="100%" fill="#2e6ad1" xlink:href="#a"/>
        <path d="m389.57 518.8h15v-1h-15z" fill="#fff" opacity=".5"/>
        <path d="m389.57 545.8h22v-1h-22z" opacity=".25"/>
        <path d="m411.57 524.8-7-7v7z" fill="#fff" fill-rule="evenodd" opacity=".5"/>
        <path d="m404.57 524.8 7 7v-7z" fill="url(#b)" fill-rule="evenodd" opacity=".2"/>
        <use width="100%" height="100%" fill="url(#c)" xlink:href="#a"/>
    </g>
    <g fill="#fff" opacity=".6">
        <path d="m15.996094 11c-0.64-2e-3 -1.294547 0.010703-1.935547 0.220703-1.924 0.625-3.334281 2.152453-3.863281 4.189453-0.196 0.753-0.1993129 0.907844-0.195313 3.089844 3e-3 1.83 0.005547 1.902969 0.060547 2.167969a2.794 2.794 0 0 0 1.712891 2.046875c0.096 0.039 0.194875 0.079375 0.296875 0.109375 0.039 0.011 0.084046 0.017203 0.123046 0.033203 0.086001 0.034 0.161266 0.082281 0.197266 0.113281 0.022 0.019 0.047266 0.029063 0.072266 0.039063a0.119 0.119 0 0 0 0.029297 0.05664c0.063 0.057 0.124921 0.060266 0.169921 0.072266 0.1 0.043 0.217172 0.027297 0.326172 0.029297l0.046875 0.001953a1.43 1.43 0 0 0 0.386719-0.041016c0.109-0.03 0.20086-0.068156 0.25586-0.160156 0.025999-0.047 0.017531-0.050313 0.019531-0.070312l0.007812-0.06836c4e-3 -0.054 0.006766-0.126844 0.009766-0.214844 0.003212-0.09477 0.0041-0.242854 0.005859-0.36914 0.302283 0.916082 0.377886 1.117932 0.38086 1.001953 2e-3 -0.08 0.390015-3.020344 0.416015-3.152344 0.033-0.167 0.1235-0.142266 0.1875 0.052735a88.68 88.68 0 0 1 0.501953 2.041015c0.281 1.178 0.457563 1.849594 0.476563 1.808594 0.015-0.035 0.153594-1.051766 0.308594-2.259766 0.352-2.753 0.325312-2.592734 0.445312-2.552734 0.07 0.024 0.069 0.015703 0.5 2.095703 0.194 0.937 0.359188 1.718281 0.367188 1.738281 0.021 0.055 0.054172-0.138937 0.201171-1.210937 0.235001-1.702 0.339954-2.370297 0.376954-2.404297 0.063-0.06 0.120375 0.035625 0.234375 0.390625l0.095703 0.304687c0.011808 0.715919 0.025979 1.518196 0.027344 1.876953l0.007812 1.013672 0.123047 0.089844c0.068 0.05 0.149656 0.085516 0.222656 0.103516h0.001953l0.001953 0.001953h0.009766a1.954 1.954 0 0 0 0.335937 0.017578c0.140001-5e-3 0.261329-0.027359 0.361329-0.068359a0.448 0.448 0 0 0 0.136718-0.089844c0.041-0.025 0.08-0.051891 0.125-0.087891 0.022-0.02 0.14475-0.068562 0.21875-0.101562 0.068-0.03 0.152422-0.043313 0.232422-0.070313 0.45-0.15 0.745516-0.3345 1.103516-0.6875 0.354-0.35 0.546125-0.64589 0.703125-1.08789 0.233-0.787 0.162969-1.692766 0.167969-2.509766 0.01-2.383-0.043657-2.396141-0.222657-3.119141a5.73 5.73 0 0 0-1.597656-2.783203 5.853 5.853 0 0 0-2.261719-1.367187c-0.651-0.213-1.276015-0.228469-1.916015-0.230469zm0.111328 0.898438c0.312 0 0.618953 0.016781 0.814453 0.050781 1.495 0.26 2.807719 1.245718 3.511719 2.636719 0.305 0.602 0.381937 1.111359 0.460937 1.818359 0.27 1.51 0.399703 1.489156-0.904297 1.035156a4.698 4.698 0 0 1-0.445312-0.162109l-0.111328-0.085938c-0.167-0.13-0.417344-0.154765-0.652344-0.134765-0.118 0.01-0.232078 0.035218-0.330078 0.074218a0.435 0.435 0 0 0-0.236328 0.183594c-0.02 0.037-0.018485 0.051172-0.021485 0.076172a1.208 1.208 0 0 0-0.005859 0.089844 7.824 7.824 0 0 0-0.003906 0.328125c0 0.123645 0.005509 0.414031 0.007812 0.599609l-0.183594-0.556641c-0.151-0.461-0.232953-0.664093-0.251953-0.621093-0.016 0.035-0.08339 0.507828-0.15039 1.048828-0.132 1.074-0.227766 1.756562-0.259766 1.851562-0.012 0.034-0.045219 0.0625-0.074219 0.0625-0.1 0-0.137375-0.129578-0.609375-2.142578-0.17-0.724-0.331375-1.405718-0.359375-1.511719l-0.050781-0.191406-0.052734 0.419922c-0.16 1.275-0.56661 4.121453-0.59961 4.189453-0.046 0.095-0.102343 0.101578-0.152343 0.017578-0.052-0.088-0.469813-1.677859-0.757813-2.880859-0.135-0.565-0.256484-1.027344-0.271484-1.027344-0.014 0-0.038735 0.147172-0.052735 0.326172-0.045 0.563-0.301562 2.943906-0.351562 3.253906-0.048 0.299-0.105641 0.380907-0.181641 0.253907-0.008702-0.014378-0.061819-0.183721-0.089843-0.263672 0.006055-0.505798 0.008174-0.90183 0.017578-1.410157 0.019-0.998 0.033859-1.458984 0.005859-1.708984-0.014-0.125-0.041469-0.213437-0.105469-0.273437-0.063-0.06-0.128453-0.070704-0.189453-0.095703-0.18-0.072-0.415906-0.077782-0.628906-0.050782a1.177 1.177 0 0 0-0.287109 0.070313 0.344 0.344 0 0 0-0.166016 0.113281c-0.105 0.047-0.237938 0.098953-0.335938 0.126953-1.332 0.703-1.27789 0.339797-0.96289-1.033203 0.36-2.5 1.798015-4.063781 4.166015-4.425781 0.2225-0.034 0.539563-0.050781 0.851563-0.050781z"/>
    </g>
</svg>
