<svg width="32" xmlns="http://www.w3.org/2000/svg" height="32">
 <defs>
  <linearGradient id="a" y1="524.8" x1="404.57" y2="531.8" x2="411.57" gradientUnits="userSpaceOnUse">
   <stop stop-color="#383e51"/>
   <stop offset="1" stop-color="#655c6f" stop-opacity="0"/>
  </linearGradient>
  <linearGradient id="b" y1="3.421" y2="61.14" x1="6.508" x2="7.322" gradientUnits="userSpaceOnUse" gradientTransform="matrix(.5 0 0-.48276 384.57 547.25)">
   <stop stop-color="#ffffff" stop-opacity="0"/>
   <stop offset="1" stop-color="#ffffff" stop-opacity=".2"/>
  </linearGradient>
 </defs>
 <g transform="translate(-384.57-515.8)">
  <path fill="#cccccc" d="m389.57 517.8v27l2.75-2 2.75 2 2.75-2 2.75 2 2.75-2 2.75 2 2.75-2 2.75 2v-20l-7-7z"/>
  <g fill="#ffffff">
   <rect width="15" x="389.57" opacity=".5" y="-518.8" height="1" transform="scale(1-1)"/>
   <path opacity=".5" fill-rule="evenodd" d="m411.57 524.8l-7-7v7z"/>
  </g>
  <path opacity=".2" fill="url(#a)" fill-rule="evenodd" d="m411.57 531.8l-7-7h7z"/>
  <path opacity=".5" d="m400.57 526.8c-3.314 0-6 2.686-6 6 0 3.314 2.686 6 6 6 3.314 0 6-2.686 6-6 0-3.314-2.686-6-6-6m0 1c2.761 0 5 2.239 5 5 0 2.761-2.239 5-5 5-2.761 0-5-2.239-5-5 0-2.761 2.239-5 5-5m-1 1v5h5v-1h-4v-4z"/>
  <path fill="url(#b)" d="m389.57 545.8v-28h15l7 7v21h-7z"/>
  <path opacity=".25" color-interpolation-filters="linearRGB" color="#000000" image-rendering="auto" color-rendering="auto" d="m7.75 27l-2.75 2v1l2.75-2 2.75 2 2.75-2 2.75 2 2.75-2 2.75 2 2.75-2 2.75 2v-1l-2.75-2-2.75 2-2.75-2-2.75 2-2.75-2-2.75 2z" color-interpolation="sRGB" text-rendering="auto" shape-rendering="auto" transform="translate(384.57 515.8)"/>
 </g>
</svg>
