<?xml version="1.0" encoding="UTF-8" standalone="no"?>
<!-- Created with Inkscape (http://www.inkscape.org/) -->

<svg
   xmlns:dc="http://purl.org/dc/elements/1.1/"
   xmlns:cc="http://creativecommons.org/ns#"
   xmlns:rdf="http://www.w3.org/1999/02/22-rdf-syntax-ns#"
   xmlns:svg="http://www.w3.org/2000/svg"
   xmlns="http://www.w3.org/2000/svg"
   xmlns:xlink="http://www.w3.org/1999/xlink"
   xmlns:sodipodi="http://sodipodi.sourceforge.net/DTD/sodipodi-0.dtd"
   xmlns:inkscape="http://www.inkscape.org/namespaces/inkscape"
   width="32"
   version="1.1"
   height="32"
   id="svg2"
   inkscape:version="0.91 r13725"
   sodipodi:docname="application-x-plasma.svg">
  <sodipodi:namedview
     pagecolor="#ffffff"
     bordercolor="#666666"
     borderopacity="1"
     objecttolerance="10"
     gridtolerance="10"
     guidetolerance="10"
     inkscape:pageopacity="0"
     inkscape:pageshadow="2"
     inkscape:window-width="1920"
     inkscape:window-height="1021"
     id="namedview31"
     showgrid="false"
     inkscape:zoom="7.375"
     inkscape:cx="-3.7966102"
     inkscape:cy="16"
     inkscape:window-x="0"
     inkscape:window-y="30"
     inkscape:window-maximized="1"
     inkscape:current-layer="layer1" />
  <defs
     id="defs5455">
    <linearGradient
       inkscape:collect="always"
       id="linearGradient4410">
      <stop
         style="stop-color:#383e51"
         id="stop4412" />
      <stop
         offset="1"
         style="stop-color:#655c6f;stop-opacity:0"
         id="stop4414" />
    </linearGradient>
    <linearGradient
       inkscape:collect="always"
       id="linearGradient4351-2">
      <stop
         style="stop-color:#d3bdd7"
         id="stop4353-8" />
      <stop
         offset="1"
         style="stop-color:#e8d9eb"
         id="stop4355-6" />
    </linearGradient>
    <linearGradient
       inkscape:collect="always"
       id="linearGradient4300-1">
      <stop
         style="stop-color:#8e44ad"
         id="stop4302-0" />
      <stop
         offset="1"
         style="stop-color:#9b59b6"
         id="stop4304-6" />
    </linearGradient>
    <linearGradient
       inkscape:collect="always"
       xlink:href="#linearGradient4300-1"
       id="linearGradient4306-3"
       y1="61"
       y2="3"
       x2="0"
       gradientUnits="userSpaceOnUse"
       gradientTransform="matrix(0.49999977,0,0,-0.48275841,384.57144,547.24623)" />
    <linearGradient
       inkscape:collect="always"
       xlink:href="#linearGradient4351-2"
       id="linearGradient4357-7"
       y1="61"
       y2="47"
       x2="0"
       gradientUnits="userSpaceOnUse"
       gradientTransform="matrix(0.48275841,0,0,-0.48275841,385.26109,547.48761)" />
    <linearGradient
       inkscape:collect="always"
       xlink:href="#linearGradient4410"
       id="linearGradient4427-3"
       y1="31"
       x1="54"
       y2="16.500048"
       x2="39.500008"
       gradientUnits="userSpaceOnUse"
       gradientTransform="matrix(0,-0.48275841,-0.48275841,0,419.53694,550.86696)" />
  </defs>
  <metadata
     id="metadata5458">
    <rdf:RDF>
      <cc:Work
         rdf:about="">
        <dc:format>image/svg+xml</dc:format>
        <dc:type
           rdf:resource="http://purl.org/dc/dcmitype/StillImage" />
      </cc:Work>
    </rdf:RDF>
  </metadata>
  <g
     inkscape:label="Capa 1"
     inkscape:groupmode="layer"
     id="layer1"
     transform="matrix(1 0 0 1 -384.57143 -515.798)">
    <rect
       width="0"
       x="415.89221"
       y="526.79797"
       height="10.999983"
       style="fill:#ffffff"
       id="rect4035" />
    <rect
       width="0"
       x="415.57144"
       y="525.79797"
       height="10.999983"
       style="fill:#ffffff"
       id="rect4035-4" />
    <rect
       width="0"
       x="414.03558"
       y="525.68414"
       height="11.1139"
       style="fill:#fbd2bf"
       id="rect4035-3" />
    <rect
       width="0"
       x="415.57144"
       y="525.79797"
       height="10.999983"
       style="fill:#fbd2bf"
       id="rect4035-1" />
    <rect
       width="0"
       x="415.57144"
       y="525.79797"
       height="10.999983"
       style="fill:#fbfbfb"
       id="rect4035-5" />
    <rect
       width="0"
       x="415.57144"
       y="525.79797"
       height="10.999983"
       style="fill:#fffcf9"
       id="rect4035-8" />
    <rect
       width="0"
       x="415.89221"
       y="526.79797"
       height="10.999983"
       style="fill:#ffffff"
       id="rect4035-56" />
    <rect
       width="0"
       x="415.57144"
       y="525.79797"
       height="10.999983"
       style="fill:#ffffff"
       id="rect4035-4-2" />
    <rect
       width="0"
       x="414.03558"
       y="525.68414"
       height="11.1139"
       style="fill:#fbd2bf"
       id="rect4035-3-9" />
    <rect
       width="0"
       x="415.57144"
       y="525.79797"
       height="10.999983"
       style="fill:#fbd2bf"
       id="rect4035-1-1" />
    <rect
       width="0"
       x="415.57144"
       y="525.79797"
       height="10.999983"
       style="fill:#fbfbfb"
       id="rect4035-5-7" />
    <path
       inkscape:connector-curvature="0"
       style="fill:url(#linearGradient4306-3);fill-opacity:1.0"
       id="rect3500-2"
       d="m 389.57144,545.79796 0,-27.99999 14.99999,0 7.00003,7 -3e-5,14.24137 0,6.75862 -7,0 z" />
    <rect
       width="14.999983"
       x="389.57144"
       y="-518.79797"
       height="0.999973"
       style="fill:#ffffff;fill-opacity:0.41176471"
       id="rect4169-9"
       transform="scale(1,-1)" />
    <rect
       width="21.999994"
       x="389.57144"
       y="-545.79797"
       height="1.00003"
       style="fill:#2e3132;fill-opacity:0.29411765"
       id="rect4236-1"
       transform="scale(1,-1)" />
    <path
       inkscape:connector-curvature="0"
       style="fill:url(#linearGradient4357-7);fill-opacity:1.0;fill-rule:evenodd"
       id="path4314-2"
       d="m 411.57144,524.79797 -7.00001,-7 0,7 z" />
    <path
       inkscape:connector-curvature="0"
       style="opacity:0.2;fill:url(#linearGradient4427-3);fill-rule:evenodd"
       id="path4320-7"
       d="m 411.5714,531.798 -6.99997,-7 7,0 z" />
    <rect
       width="0"
       x="415.89221"
       y="526.79797"
       height="10.999983"
       style="fill:#ffffff"
       id="rect4035-53" />
    <rect
       width="0"
       x="415.57144"
       y="525.79797"
       height="10.999983"
       style="fill:#ffffff"
       id="rect4035-4-5" />
    <rect
       width="0"
       x="415.89221"
       y="526.79797"
       height="10.999983"
       style="fill:#ffffff"
       id="rect4035-535" />
    <rect
       width="0"
       x="415.57144"
       y="525.79797"
       height="10.999983"
       style="fill:#ffffff"
       id="rect4035-4-6" />
    <rect
       width="0"
       x="414.03558"
       y="525.68414"
       height="11.1139"
       style="fill:#fbd2bf"
       id="rect4035-3-29" />
    <rect
       width="0"
       x="415.57144"
       y="525.79797"
       height="10.999983"
       style="fill:#fbd2bf"
       id="rect4035-1-12" />
    <rect
       width="0"
       x="364.77356"
       y="523.67932"
       height="10.999983"
       style="fill:#ffffff"
       id="rect4035-2" />
    <rect
       width="0"
       x="364.45279"
       y="522.67932"
       height="10.999983"
       style="fill:#ffffff"
       id="rect4035-4-0" />
    <rect
       width="0"
       x="362.91693"
       y="522.56549"
       height="11.1139"
       style="fill:#fbd2bf"
       id="rect4035-3-2" />
    <rect
       width="0"
       x="364.45279"
       y="522.67932"
       height="10.999983"
       style="fill:#fbd2bf"
       id="rect4035-1-3" />
    <path
       inkscape:connector-curvature="0"
       style="color:#000000;font-style:normal;font-variant:normal;font-weight:normal;font-stretch:normal;font-size:medium;line-height:normal;font-family:Sans;-inkscape-font-specification:Sans;text-indent:0;text-align:start;text-decoration:none;text-decoration-line:none;letter-spacing:normal;word-spacing:normal;text-transform:none;direction:ltr;block-progression:tb;writing-mode:lr-tb;baseline-shift:baseline;text-anchor:start;display:inline;overflow:visible;visibility:visible;fill:#e8d9eb;fill-opacity:1;stroke:none;stroke-width:5;marker:none;enable-background:accumulate"
       d="m 397.57143,527.798 a 1,1 0 0 0 -1,1 1,1 0 0 0 1,1 1,1 0 0 0 1,-1 1,1 0 0 0 -1,-1 z m 5,0 -1.9375,1.5625 2.59375,3.21875 -2.4375,2.4375 1.78125,1.78125 4,-4 -4,-5 z m -6.5,4 a 1.5,1.5 0 0 0 -1.5,1.5 1.5,1.5 0 0 0 1.5,1.5 1.5,1.5 0 0 0 1.5,-1.5 1.5,1.5 0 0 0 -1.5,-1.5 z m 3,5 a 1.5,1.5 0 0 0 -1.5,1.5 1.5,1.5 0 0 0 1.5,1.5 1.5,1.5 0 0 0 1.5,-1.5 1.5,1.5 0 0 0 -1.5,-1.5 z"
       id="path2994" />
  </g>
</svg>
