<?xml version="1.0" encoding="UTF-8" standalone="no"?>
<svg xmlns="http://www.w3.org/2000/svg" xmlns:xlink="http://www.w3.org/1999/xlink" xmlns:sodipodi="http://sodipodi.sourceforge.net/DTD/sodipodi-0.dtd" xmlns:inkscape="http://www.inkscape.org/namespaces/inkscape" width="32" version="1.1" height="32">
 <defs id="defs5455">
  <linearGradient inkscape:collect="always" xlink:href="#linearGradient6251" id="linearGradient5849" gradientUnits="userSpaceOnUse" gradientTransform="matrix(0.48,0,0,0.40601922,362.65139,385.60552)" y1="394.54437" x2="0" y2="335.43387"/>
  <linearGradient id="linearGradient6251" inkscape:collect="always">
   <stop id="stop6253" stop-color="#ffffff" stop-opacity="0"/>
   <stop id="stop6255" offset="1" stop-color="#ffffff" stop-opacity="0.2"/>
  </linearGradient>
 </defs>
 <g inkscape:label="Capa 1" inkscape:groupmode="layer" id="layer1" transform="matrix(1 0 0 1 -384.57143 -515.798)">
  <rect y="521.79797" x="388.57144" height="23.999989" width="23.999989" id="rect5837" mix-blend-mode="normal" solid-color="#000000" color-interpolation-filters="linearRGB" color="#000000" image-rendering="auto" color-rendering="auto" isolation="auto" color-interpolation="sRGB" solid-opacity="1" fill="#21a8f1" shape-rendering="auto"/>
  <rect width="24.00001" x="388.57144" y="544.79797" height="0.999974" id="rect5839" mix-blend-mode="normal" solid-color="#000000" opacity="0.25" color-interpolation-filters="linearRGB" color="#000000" image-rendering="auto" color-rendering="auto" isolation="auto" color-interpolation="sRGB" solid-opacity="1" shape-rendering="auto"/>
  <rect width="23.999989" x="388.57144" y="521.79797" height="1.00003" id="rect5841" mix-blend-mode="normal" solid-color="#000000" opacity="0.5" color-interpolation-filters="linearRGB" color="#000000" image-rendering="auto" color-rendering="auto" isolation="auto" color-interpolation="sRGB" solid-opacity="1" fill="#ffffff" shape-rendering="auto"/>
  <path inkscape:connector-curvature="0" d="m 399.57142,522.79809 0,1 1,0 0,-1 -1,0 z m 1,1 0,1 1,0 0,-1 -1,0 z m 0,1 -1,0 0,1 1,0 0,-1 z m 0,1 0,1 1,0 0,-1 -1,0 z m 0,1 -1,0 0,1 1,0 0,-1 z m 0,1 0,1 1,0 0,-1 -1,0 z m 0,1 -1,0 0,0.56054 0,1.43946 2,0 0,-1 -1,0 0,-1 z" id="path5843" mix-blend-mode="normal" solid-color="#000000" color-interpolation-filters="linearRGB" color="#000000" image-rendering="auto" color-rendering="auto" stroke-width="2" isolation="auto" stroke-linecap="square" color-interpolation="sRGB" solid-opacity="1" fill="#ffffff" shape-rendering="auto"/>
  <rect id="rect5847" width="24" height="24" x="388.57144" y="521.79797" mix-blend-mode="normal" solid-color="#000000" color-interpolation-filters="linearRGB" color="#000000" image-rendering="auto" color-rendering="auto" isolation="auto" color-interpolation="sRGB" solid-opacity="1" fill="url(#linearGradient5849)" shape-rendering="auto"/>
 </g>
</svg>
