<svg width="32" xmlns="http://www.w3.org/2000/svg" height="32" xmlns:xlink="http://www.w3.org/1999/xlink">
 <defs>
  <linearGradient id="a" y1="392.36" y2="365.36" x2="0" gradientUnits="userSpaceOnUse" gradientTransform="translate(309.57 152.44)">
   <stop stop-color="#ffffff" stop-opacity="0"/>
   <stop offset="1" stop-color="#ffffff" stop-opacity=".2"/>
  </linearGradient>
  <linearGradient id="b" y1="17" y2="24" x1="47" x2="54" gradientUnits="userSpaceOnUse" gradientTransform="translate(357.57 507.8)">
   <stop stop-color="#060606"/>
   <stop offset="1" stop-opacity="0"/>
  </linearGradient>
  <path id="c" d="m389.57 545.8v-28h15l7 7v21h-14z"/>
 </defs>
 <g transform="translate(-384.57-515.8)">
  <g color-rendering="auto" color-interpolation-filters="linearRGB" shape-rendering="auto" image-rendering="auto" text-rendering="auto" color-interpolation="sRGB" color="#000000">
   <use fill="#fc963a" xlink:href="#c"/>
   <g transform="scale(1-1)">
    <rect opacity=".5" x="389.57" y="-518.8" width="15" fill="#ffffff" height="1"/>
    <rect opacity=".25" x="389.57" y="-545.8" width="22" height="1"/>
   </g>
   <path opacity=".5" fill="#ffffff" fill-rule="evenodd" d="m411.57 524.8l-7-7v7z"/>
  </g>
  <path opacity=".1" fill="url(#b)" fill-rule="evenodd" d="m404.57 524.8l7 7v-7z"/>
  <path opacity=".75" color-interpolation-filters="linearRGB" color="#000000" image-rendering="auto" color-rendering="auto" d="m394.57 526.8v2c5.523 0 10 4.477 10 10h2c0-.021 0-.041 0-.063 0-.391-.026-.775-.063-1.156-.002-.021.002-.042 0-.063-.039-.381-.114-.756-.188-1.125-.004-.02.004-.043 0-.063-.236-1.157-.643-2.242-1.188-3.25-.004-.008.004-.024 0-.031-1.479-2.724-3.983-4.798-7-5.719-.357-.111-.724-.204-1.094-.281-.02-.004-.043.004-.063 0-.371-.076-.743-.147-1.125-.188-.021-.002-.042.002-.063 0-.383-.039-.764-.061-1.156-.063-.021 0-.041 0-.063 0m0 4v2c3.314 0 6 2.686 6 6h2c0-4.418-3.582-8-8-8m2 4c-1.105 0-2 .895-2 2 0 1.105.895 2 2 2 1.105 0 2-.895 2-2 0-1.105-.895-2-2-2" color-interpolation="sRGB" text-rendering="auto" fill="#ffffff" shape-rendering="auto"/>
  <use fill="url(#a)" xlink:href="#c"/>
 </g>
</svg>
