<?xml version="1.0" encoding="UTF-8" standalone="no"?>
<svg
   xmlns:dc="http://purl.org/dc/elements/1.1/"
   xmlns:cc="http://creativecommons.org/ns#"
   xmlns:rdf="http://www.w3.org/1999/02/22-rdf-syntax-ns#"
   xmlns:svg="http://www.w3.org/2000/svg"
   xmlns="http://www.w3.org/2000/svg"
   xmlns:xlink="http://www.w3.org/1999/xlink"
   xmlns:sodipodi="http://sodipodi.sourceforge.net/DTD/sodipodi-0.dtd"
   xmlns:inkscape="http://www.inkscape.org/namespaces/inkscape"
   width="32"
   height="32"
   id="svg2"
   version="1.1"
   inkscape:version="0.91 r13725"
   sodipodi:docname="application-x-json.svg">
  <metadata
     id="metadata39">
    <rdf:RDF>
      <cc:Work
         rdf:about="">
        <dc:format>image/svg+xml</dc:format>
        <dc:type
           rdf:resource="http://purl.org/dc/dcmitype/StillImage" />
        <dc:title></dc:title>
      </cc:Work>
    </rdf:RDF>
  </metadata>
  <sodipodi:namedview
     pagecolor="#ffffff"
     bordercolor="#666666"
     borderopacity="1"
     objecttolerance="10"
     gridtolerance="10"
     guidetolerance="10"
     inkscape:pageopacity="0"
     inkscape:pageshadow="2"
     inkscape:window-width="1278"
     inkscape:window-height="1377"
     id="namedview37"
     showgrid="false"
     inkscape:zoom="14.75"
     inkscape:cx="11.655269"
     inkscape:cy="4.6848287"
     inkscape:window-x="1280"
     inkscape:window-y="36"
     inkscape:window-maximized="0"
     inkscape:current-layer="svg2" />
  <defs
     id="defs4">
    <linearGradient
       id="a"
       y1="392.36"
       y2="365.36"
       x2="0"
       gradientUnits="userSpaceOnUse"
       gradientTransform="translate(309.57,152.44)">
      <stop
         stop-color="#ffffff"
         stop-opacity="0"
         id="stop7" />
      <stop
         offset="1"
         stop-color="#ffffff"
         stop-opacity=".2"
         id="stop9" />
    </linearGradient>
    <linearGradient
       id="b"
       y1="17"
       y2="24"
       x1="47"
       x2="54"
       gradientUnits="userSpaceOnUse"
       gradientTransform="translate(-27,-8)">
      <stop
         stop-color="#060606"
         id="stop12" />
      <stop
         offset="1"
         stop-opacity="0"
         id="stop14" />
    </linearGradient>
    <path
       id="c"
       d="m389.57 545.8v-28h15l7 7v21h-14z" />
  </defs>
  <use
     xlink:href="#c"
     id="use21"
     style="color:#000000;color-interpolation:sRGB;color-interpolation-filters:linearRGB;fill:#cf74e0;color-rendering:auto;image-rendering:auto;shape-rendering:auto;text-rendering:auto"
     x="0"
     y="0"
     width="100%"
     height="100%"
     transform="translate(-384.57,-515.8)" />
  <rect
     style="color:#000000;opacity:0.5;color-interpolation:sRGB;color-interpolation-filters:linearRGB;fill:#ffffff;color-rendering:auto;image-rendering:auto;shape-rendering:auto;text-rendering:auto"
     id="rect25"
     height="1"
     width="15"
     y="-2.9999878"
     x="5.0000072"
     transform="scale(1,-1)" />
  <rect
     style="color:#000000;opacity:0.25;color-interpolation:sRGB;color-interpolation-filters:linearRGB;color-rendering:auto;image-rendering:auto;shape-rendering:auto;text-rendering:auto"
     id="rect27"
     height="1"
     width="22"
     y="-29.999989"
     x="5.0000072"
     transform="scale(1,-1)" />
  <path
     d="M 27,9 20,2 20,9 Z"
     id="path29"
     inkscape:connector-curvature="0"
     style="color:#000000;opacity:0.5;color-interpolation:sRGB;color-interpolation-filters:linearRGB;fill:#ffffff;fill-rule:evenodd;color-rendering:auto;image-rendering:auto;shape-rendering:auto;text-rendering:auto" />
  <path
     inkscape:connector-curvature="0"
     style="opacity:0.1;fill:url(#b);fill-rule:evenodd"
     id="path31"
     d="m 20,9 7,7 0,-7 z" />
  <path
     inkscape:connector-curvature="0"
     style="color:#000000;opacity:0.75;color-interpolation:sRGB;color-interpolation-filters:linearRGB;fill:#ffffff;color-rendering:auto;image-rendering:auto;shape-rendering:auto;text-rendering:auto"
     d="m 14,10 c -1.165,0.411 -2,1.507 -2,2.814 l 0,0.381 c 0,0.74 -0.404,1.378 -1,1.723 l 0,2.166 c 0.596,0.345 1,0.981 1,1.721 l 0,0.381 c 0,1.307 0.835,2.403 2,2.814 l 0,-1.092 c -0.596,-0.345 -1,-0.983 -1,-1.723 l 0,-0.381 c 0,-1.3 -0.826,-2.388 -1.98,-2.805 C 12.174,15.582 13,14.494 13,13.194 l 0,-0.381 c 0,-0.74 0.404,-1.378 1,-1.723 z m 4,0 0,1.092 c 0.596,0.345 1,0.983 1,1.723 l 0,0.381 c 0,1.299 0.827,2.388 1.98,2.805 C 19.826,16.417 19,17.506 19,18.806 l 0,0.381 c 0,0.74 -0.404,1.378 -1,1.723 l 0,1.092 c 1.165,-0.411 2,-1.507 2,-2.814 l 0,-0.381 c 0,-0.74 0.404,-1.376 1,-1.721 l 0,-2.166 c -0.596,-0.345 -1,-0.983 -1,-1.723 l 0,-0.381 c 0,-1.307 -0.835,-2.403 -2,-2.814"
     id="path35" />
  <use
     height="100%"
     width="100%"
     y="0"
     x="0"
     style="fill:url(#a)"
     id="use35"
     xlink:href="#c"
     transform="translate(-384.57,-515.8)" />
</svg>
