<?xml version="1.0" encoding="UTF-8" standalone="no"?>
<!-- Created with Inkscape (http://www.inkscape.org/) -->

<svg
   xmlns:dc="http://purl.org/dc/elements/1.1/"
   xmlns:cc="http://creativecommons.org/ns#"
   xmlns:rdf="http://www.w3.org/1999/02/22-rdf-syntax-ns#"
   xmlns:svg="http://www.w3.org/2000/svg"
   xmlns="http://www.w3.org/2000/svg"
   xmlns:xlink="http://www.w3.org/1999/xlink"
   xmlns:sodipodi="http://sodipodi.sourceforge.net/DTD/sodipodi-0.dtd"
   xmlns:inkscape="http://www.inkscape.org/namespaces/inkscape"
   width="32"
   version="1.1"
   height="32"
   id="svg2"
   inkscape:version="0.91 r13725"
   sodipodi:docname="application-x-font-afm.svg">
  <sodipodi:namedview
     pagecolor="#ffffff"
     bordercolor="#666666"
     borderopacity="1"
     objecttolerance="10"
     gridtolerance="10"
     guidetolerance="10"
     inkscape:pageopacity="0"
     inkscape:pageshadow="2"
     inkscape:window-width="1920"
     inkscape:window-height="1021"
     id="namedview31"
     showgrid="false"
     inkscape:zoom="14.75"
     inkscape:cx="3.9261529"
     inkscape:cy="18.445112"
     inkscape:window-x="0"
     inkscape:window-y="30"
     inkscape:window-maximized="1"
     inkscape:current-layer="layer1" />
  <defs
     id="defs5455">
    <linearGradient
       inkscape:collect="always"
       xlink:href="#linearGradient4300"
       id="linearGradient4306-3"
       y1="3.1404107"
       y2="60.859589"
       x2="5.0169516"
       gradientUnits="userSpaceOnUse"
       gradientTransform="matrix(0.49999977,0,0,-0.48275841,384.57144,547.24623)"
       x1="4.6101718" />
    <linearGradient
       inkscape:collect="always"
       xlink:href="#linearGradient4351"
       id="linearGradient4357-7"
       y1="61"
       y2="47"
       x2="0"
       gradientUnits="userSpaceOnUse"
       gradientTransform="matrix(0.48275841,0,0,-0.48275841,385.26109,547.48761)" />
    <linearGradient
       inkscape:collect="always"
       xlink:href="#linearGradient4410"
       id="linearGradient4427-3"
       y1="31"
       x1="54"
       y2="16.500048"
       x2="39.500008"
       gradientUnits="userSpaceOnUse"
       gradientTransform="matrix(0,-0.48275841,-0.48275841,0,419.53694,550.86696)" />
    <linearGradient
       inkscape:collect="always"
       id="linearGradient4410">
      <stop
         style="stop-color:#383e51"
         id="stop4412" />
      <stop
         offset="1"
         style="stop-color:#655c6f;stop-opacity:0"
         id="stop4414" />
    </linearGradient>
    <linearGradient
       inkscape:collect="always"
       id="linearGradient4300">
      <stop
         style="stop-color:#bdc3c7"
         id="stop4302" />
      <stop
         offset="1"
         style="stop-color:#dadfe1"
         id="stop4304" />
    </linearGradient>
    <linearGradient
       inkscape:collect="always"
       id="linearGradient4351">
      <stop
         style="stop-color:#566472"
         id="stop4353" />
      <stop
         offset="1"
         style="stop-color:#5e6b78"
         id="stop4355" />
    </linearGradient>
  </defs>
  <metadata
     id="metadata5458">
    <rdf:RDF>
      <cc:Work
         rdf:about="">
        <dc:format>image/svg+xml</dc:format>
        <dc:type
           rdf:resource="http://purl.org/dc/dcmitype/StillImage" />
      </cc:Work>
    </rdf:RDF>
  </metadata>
  <g
     inkscape:label="Capa 1"
     inkscape:groupmode="layer"
     id="layer1"
     transform="matrix(1 0 0 1 -384.57143 -515.798)">
    <rect
       width="0"
       x="415.89221"
       y="526.79797"
       height="10.999983"
       style="fill:#ffffff"
       id="rect4035" />
    <rect
       width="0"
       x="415.57144"
       y="525.79797"
       height="10.999983"
       style="fill:#ffffff"
       id="rect4035-4" />
    <rect
       width="0"
       x="414.03558"
       y="525.68414"
       height="11.1139"
       style="fill:#fbd2bf"
       id="rect4035-3" />
    <rect
       width="0"
       x="415.57144"
       y="525.79797"
       height="10.999983"
       style="fill:#fbd2bf"
       id="rect4035-1" />
    <rect
       width="0"
       x="415.89221"
       y="526.79797"
       height="10.999983"
       style="fill:#ffffff"
       id="rect4035-7" />
    <rect
       width="0"
       x="415.57144"
       y="525.79797"
       height="10.999983"
       style="fill:#ffffff"
       id="rect4035-4-53" />
    <rect
       width="0"
       x="414.03558"
       y="525.68414"
       height="11.1139"
       style="fill:#fbd2bf"
       id="rect4035-3-5" />
    <rect
       width="0"
       x="415.57144"
       y="525.79797"
       height="10.999983"
       style="fill:#fbd2bf"
       id="rect4035-1-6" />
    <rect
       width="0"
       x="415.57144"
       y="525.79797"
       height="10.999983"
       style="fill:#fbfbfb"
       id="rect4035-5" />
    <path
       inkscape:connector-curvature="0"
       style="fill:url(#linearGradient4306-3);fill-opacity:1"
       id="rect3500-2"
       d="m 389.57144,545.79796 0,-27.99999 14.99999,0 7.00003,7 -3e-5,14.24137 0,6.75862 -7,0 z" />
    <rect
       width="14.999983"
       x="389.57144"
       y="-518.79797"
       height="0.999973"
       style="fill:#ffffff;fill-opacity:0.41176471"
       id="rect4169-9"
       transform="scale(1,-1)" />
    <rect
       width="21.999994"
       x="389.57144"
       y="-545.79797"
       height="1.00003"
       style="fill:#2e3132;fill-opacity:0.29411765"
       id="rect4236-1"
       transform="scale(1,-1)" />
    <path
       inkscape:connector-curvature="0"
       style="fill:url(#linearGradient4357-7);fill-opacity:1.0;fill-rule:evenodd"
       id="path4314-2"
       d="m 411.57144,524.79797 -7.00001,-7 0,7 z" />
    <path
       inkscape:connector-curvature="0"
       style="opacity:0.2;fill:url(#linearGradient4427-3);fill-rule:evenodd"
       id="path4320-7"
       d="m 411.5714,531.798 -6.99997,-7 7,0 z" />
    <rect
       width="0"
       x="415.89221"
       y="526.79797"
       height="10.999983"
       style="fill:#ffffff"
       id="rect4035-53" />
    <rect
       width="0"
       x="415.57144"
       y="525.79797"
       height="10.999983"
       style="fill:#ffffff"
       id="rect4035-4-5" />
    <path
       inkscape:connector-curvature="0"
       id="path4124"
       style="font-style:italic;font-variant:normal;font-weight:normal;font-stretch:normal;font-size:medium;line-height:125%;font-family:Oxygen;-inkscape-font-specification:'Oxygen Italic';letter-spacing:0px;word-spacing:0px;fill:#5e6b78;fill-opacity:1;stroke:none"
       d="m 398.77079,538.35976 c -1.01918,0 -1.71407,-0.49427 -1.52877,-1.75267 0.23163,-1.57312 1.20448,-2.09002 4.28517,-2.517 0.0232,0 0.97285,-0.15721 0.97285,-0.15721 l -0.39377,2.78657 c -0.83387,1.01116 -2.33947,1.64031 -3.33548,1.64031 z m 3.17334,-0.13468 0.0463,1.30326 1.32029,0 1.20448,-8.42698 c 0.37061,-2.56176 -1.13499,-3.30336 -3.24283,-3.30336 -1.5056,0 -2.98803,0.42698 -3.86823,0.92145 l 0.25479,1.39318 c 0.94969,-0.44941 2.24682,-0.76393 3.42814,-0.76393 1.45927,0 1.99202,0.69653 1.80672,2.04486 l -0.20847,1.28092 -1.08866,0.13479 c -2.80274,0.42697 -5.53598,0.85395 -5.97608,3.86511 -0.32428,2.15732 0.99601,3.12362 2.75641,3.12362 1.11183,0 2.47845,-0.40444 3.56711,-1.57292 z" />
  </g>
</svg>
