<svg width="32" xmlns="http://www.w3.org/2000/svg" height="32" xmlns:xlink="http://www.w3.org/1999/xlink">
 <defs>
  <linearGradient id="a" y1="17" y2="24" x1="47" x2="54" gradientUnits="userSpaceOnUse" gradientTransform="translate(357.57 507.8)">
   <stop stop-color="#060606"/>
   <stop offset="1" stop-opacity="0"/>
  </linearGradient>
  <linearGradient id="b" y1="392.36" y2="365.36" x2="0" gradientUnits="userSpaceOnUse" gradientTransform="translate(309.57 152.44)">
   <stop stop-color="#ffffff" stop-opacity="0"/>
   <stop offset="1" stop-color="#ffffff" stop-opacity=".2"/>
  </linearGradient>
  <path id="c" d="m389.57 545.8v-28h15l7 7v21h-14z"/>
 </defs>
 <g transform="translate(-384.57-515.8)">
  <g color-rendering="auto" color-interpolation-filters="linearRGB" shape-rendering="auto" image-rendering="auto" text-rendering="auto" color-interpolation="sRGB" color="#000000">
   <use fill="#4bc94b" xlink:href="#c"/>
   <g transform="scale(1-1)">
    <rect opacity=".5" x="389.57" y="-518.8" width="15" fill="#ffffff" height="1"/>
    <rect opacity=".25" x="389.57" y="-545.8" width="22" height="1"/>
   </g>
  </g>
  <path opacity=".2" fill="url(#a)" fill-rule="evenodd" d="m404.57 524.8l7 7v-7z"/>
  <g fill="#ffffff">
   <path opacity=".5" color-interpolation-filters="linearRGB" color="#000000" image-rendering="auto" color-rendering="auto" d="m411.57 524.8l-7-7v7z" color-interpolation="sRGB" text-rendering="auto" shape-rendering="auto"/>
   <path opacity=".75" d="m14 11c-.554 0-1 .446-1 1v1h-2c-.554 0-1 .446-1 1v8c0 .554.446 1 1 1h8c.554 0 1-.446 1-1v-1h1c.554 0 1-.446 1-1v-8c0-.554-.446-1-1-1h-2zm0 1h7v8h-1v-6c0-.554-.446-1-1-1h-3.975c-.616-.265-1.051-.575-1.025-1m-3 2h8v8h-8zm1 1v2h6v-2zm0 3v1h6v-1zm0 2v1h6v-1z" transform="translate(384.57 515.8)"/>
  </g>
  <use fill="url(#b)" xlink:href="#c"/>
 </g>
</svg>
