<svg width="32" xmlns="http://www.w3.org/2000/svg" height="32" xmlns:xlink="http://www.w3.org/1999/xlink">
 <defs>
  <linearGradient id="a" y1="524.8" x1="404.57" y2="531.8" x2="411.57" gradientUnits="userSpaceOnUse">
   <stop stop-color="#383e51"/>
   <stop offset="1" stop-color="#655c6f" stop-opacity="0"/>
  </linearGradient>
  <linearGradient id="b" y1="545.9" x1="397.98" y2="517.97" x2="397.74" gradientUnits="userSpaceOnUse">
   <stop stop-color="#ffffff" stop-opacity="0"/>
   <stop offset="1" stop-color="#ffffff" stop-opacity=".2"/>
  </linearGradient>
  <path id="c" d="m389.57 545.8v-28h15l7 7v21h-7z"/>
 </defs>
 <g transform="translate(-384.57-515.8)">
  <use fill="#555555" xlink:href="#c"/>
  <g transform="scale(1-1)">
   <rect width="15" x="389.57" opacity=".5" y="-518.8" fill="#ffffff" height="1"/>
   <rect width="22" x="389.57" opacity=".25" y="-545.8" height="1"/>
  </g>
  <g fill-rule="evenodd">
   <path opacity=".5" fill="#ffffff" d="m411.57 524.8l-7-7v7z"/>
   <path opacity=".2" fill="url(#a)" d="m411.57 531.8l-7-7h7z"/>
  </g>
  <path fill="#343434" d="m395.57 528.8v12h12v-12zm1 1h10v8h-10zm1 1v3h3v-2h-1l-.9-1zm-1 8h1v1h-1zm2 0h4v1h-4zm5 0h1v1h-1zm2 0h1v1h-1z"/>
  <path fill="#e0e0e0" d="m394.57 527.8v12h12v-12zm1 1h10v8h-10zm1 1v3h3v-2h-1l-.9-1zm-1 8h1v1h-1zm2 0h4v1h-4zm5 0h1v1h-1zm2 0h1v1h-1z"/>
  <use fill="url(#b)" xlink:href="#c"/>
 </g>
</svg>
