<svg width="32" xmlns="http://www.w3.org/2000/svg" height="32">
 <defs>
  <linearGradient id="a" y1="61" y2="3" x2="0" gradientUnits="userSpaceOnUse" gradientTransform="matrix(.5 0 0-.48276 384.57 547.25)">
   <stop stop-color="#e3200d"/>
   <stop offset="1" stop-color="#f22613"/>
  </linearGradient>
  <linearGradient id="b" y1="518.04" y2="524.8" x2="0" gradientUnits="userSpaceOnUse">
   <stop stop-color="#f87e72"/>
   <stop offset="1" stop-color="#fbaea7"/>
  </linearGradient>
  <linearGradient id="c" y1="524.8" x1="404.57" y2="531.8" x2="411.57" gradientUnits="userSpaceOnUse">
   <stop stop-color="#383e51"/>
   <stop offset="1" stop-color="#655c6f" stop-opacity="0"/>
  </linearGradient>
 </defs>
 <g transform="translate(-384.57-515.8)">
  <path fill="url(#a)" d="m389.57 545.8v-28h15l7 7v21h-7z"/>
  <g transform="scale(1-1)">
   <rect width="15" x="389.57" y="-518.8" fill="#ffffff" height="1" fill-opacity=".412"/>
   <rect width="22" x="389.57" y="-545.8" fill="#2e3132" height="1" fill-opacity=".294"/>
  </g>
  <g fill-rule="evenodd">
   <path fill="url(#b)" d="m411.57 524.8l-7-7v7z"/>
   <path opacity=".2" fill="url(#c)" d="m411.57 531.8l-7-7h7z"/>
  </g>
  <path opacity=".75" fill="#ffffff" d="m400.57143 526.798a6 2 0 0 0 -6 2v8a6 2 0 0 0 6 2 6 2 0 0 0 6 -2v-8a6 2 0 0 0 -6 -2m0 1a5 1 0 0 1 5 1 5 1 0 0 1 -5 1 5 1 0 0 1 -5 -1 5 1 0 0 1 5 -1m-5 2.10156a6 2 0 0 0 5 .89844 6 2 0 0 0 5 -.89648v2.896a5 1 0 0 1 -5 1 5 1 0 0 1 -5 -1zm0 4a6 2 0 0 0 5 .89844 6 2 0 0 0 5 -.89648v2.896a5 1 0 0 1 -5 1 5 1 0 0 1 -5 -1z"/>
 </g>
</svg>
