<svg width="32" xmlns="http://www.w3.org/2000/svg" height="32">
 <defs>
  <linearGradient id="a" y1="61" y2="3" x2="0" gradientUnits="userSpaceOnUse" gradientTransform="matrix(.5 0 0-.48276 384.57 547.25)">
   <stop stop-color="#22a7f0"/>
   <stop offset="1" stop-color="#19b5fe"/>
  </linearGradient>
  <linearGradient id="b" y1="518.04" y2="524.8" x2="0" gradientUnits="userSpaceOnUse">
   <stop stop-color="#c8e3fe"/>
   <stop offset="1" stop-color="#ffffff"/>
  </linearGradient>
  <linearGradient id="c" y1="524.8" x1="404.57" y2="531.8" x2="411.57" gradientUnits="userSpaceOnUse">
   <stop stop-color="#383e51"/>
   <stop offset="1" stop-color="#655c6f" stop-opacity="0"/>
  </linearGradient>
 </defs>
 <g transform="translate(-384.57-515.8)">
  <path fill="url(#a)" d="m389.57 545.8v-28h15l7 7v21h-7z"/>
  <g transform="scale(1-1)">
   <rect width="15" x="389.57" y="-518.8" fill="#ffffff" height="1" fill-opacity=".412"/>
   <rect width="22" x="389.57" y="-545.8" fill="#2e3132" height="1" fill-opacity=".294"/>
  </g>
  <g fill-rule="evenodd">
   <path fill="url(#b)" d="m411.57 524.8l-7-7v7z"/>
   <path opacity=".2" fill="url(#c)" d="m411.57 531.8l-7-7h7z"/>
  </g>
  <path fill="#ffffff" d="m397.26 539.69c-.239-.062-.215-.129.179-.498.679-.635.792-1.267.599-3.347-.154-1.659-.189-1.786-.448-1.647-.562.301-1.263-.087-2.06-1.138-.394-.519-.431-.672-.364-1.481.041-.496.126-1.095.188-1.331.095-.362.065-.429-.198-.429-.171 0-.399-.107-.507-.237-.272-.328.213-.855.787-.855.233 0 .512-.105.619-.234.276-.332.697-.29 1.17.117.503.433.674 1.435.392 2.291-.319.968-.098 1.063.349.149.25-.511.603-.957.894-1.129.264-.156.65-.553.858-.882.208-.329.468-.656.579-.727.34-.217 1.274-.516 1.622-.519.475-.01 1.112.552 1.225 1.069.054.244.34.82.636 1.279.296.46.538.916.538 1.014 0 .098.21.443.468.767.385.485.467.729.461 1.386-.007.901-.492 2.049-.67 1.586-.056-.146-.033-.395.052-.553.177-.331.021-1.799-.171-1.607-.134.134-.221 1.566-.184 3.01.049 1.874-.042 3.64-.19 3.688-.378.12-.543-.191-.388-.732.233-.814.185-2.979-.074-3.321-.12-.158-.264-.561-.32-.896-.057-.335-.164-.646-.239-.692-.246-.152-.617.832-.617 1.635 0 .629-.095.919-.468 1.434-.528.729-.569.944-.234 1.222.261.217.312.713.087.852-.081.05-.291-.064-.468-.254-.25-.268-.321-.29-.321-.1 0 .285-.578.479-.897.3-.171-.095-.13-.18.183-.386.559-.366.505-.666-.242-1.349-.582-.532-.634-.639-.538-1.112.302-1.498.301-1.537-.048-1.537-.228 0-.329.098-.329.322 0 .177-.077.467-.172.644-.167.312-.217.563-.621 3.127-.201 1.278-.251 1.327-1.121 1.1m4.186-2.721c.202-.392.232-.727.145-1.654-.115-1.231-.2-1.274-.537-.272-.115.343-.34.791-.5.995-.371.476-.364.62.049 1.06.443.471.539.457.843-.13"/>
 </g>
</svg>
