<svg width="32" xmlns="http://www.w3.org/2000/svg" height="32">
 <defs>
  <linearGradient id="a" y1="2.719" y2="61" x1="7.729" x2="8.271" gradientUnits="userSpaceOnUse" gradientTransform="matrix(.5 0 0-.48276 384.57 547.25)">
   <stop stop-color="#bdc3c7"/>
   <stop offset="1" stop-color="#dadfe1"/>
  </linearGradient>
  <linearGradient id="b" y1="518.04" y2="524.8" x2="0" gradientUnits="userSpaceOnUse">
   <stop stop-color="#566472"/>
   <stop offset="1" stop-color="#5e6b78"/>
  </linearGradient>
  <linearGradient id="c" y1="524.8" x1="404.57" y2="531.8" x2="411.57" gradientUnits="userSpaceOnUse">
   <stop stop-color="#383e51"/>
   <stop offset="1" stop-color="#655c6f" stop-opacity="0"/>
  </linearGradient>
 </defs>
 <g transform="translate(-384.57-515.8)">
  <path fill="url(#a)" d="m389.57 545.8v-28h15l7 7v21h-7z"/>
  <g transform="scale(1-1)">
   <rect width="15" x="389.57" y="-518.8" fill="#ffffff" height="1" fill-opacity=".412"/>
   <rect width="22" x="389.57" y="-545.8" fill="#2e3132" height="1" fill-opacity=".294"/>
  </g>
  <g fill-rule="evenodd">
   <path fill="url(#b)" d="m411.57 524.8l-7-7v7z"/>
   <path opacity=".2" fill="url(#c)" d="m411.57 531.8l-7-7h7z"/>
  </g>
  <g fill="#8096a0">
   <path d="m402.56 530.91c.019-.152.033-.306.033-.463 0-.157-.014-.311-.033-.463l1-.785c.09-.071.116-.199.057-.304l-.949-1.644c-.059-.102-.183-.145-.289-.102l-1.182.477c-.244-.187-.513-.346-.802-.467l-.178-1.258c-.021-.112-.119-.199-.237-.199h-1.898c-.119 0-.216.088-.235.199l-.178 1.258c-.289.121-.558.278-.802.467l-1.182-.477c-.107-.04-.23 0-.289.102l-.949 1.644c-.059.102-.033.23.057.304l1 .785c-.019.152-.033.306-.033.463 0 .157.014.311.033.463l-1 .785c-.09.071-.116.199-.057.304l.949 1.644c.059.102.183.145.289.102l1.182-.477c.244.187.513.346.802.467l.178 1.258c.019.112.116.199.235.199h1.898c.119 0 .216-.088.235-.199l.178-1.258c.289-.121.558-.278.802-.467l1.182.477c.107.04.23 0 .289-.102l.949-1.644c.059-.102.033-.23-.057-.304zm-3.526 1.198c-.918 0-1.661-.743-1.661-1.661 0-.918.743-1.661 1.661-1.661.918 0 1.661.743 1.661 1.661 0 .918-.743 1.661-1.661 1.661"/>
   <path d="m405.27 539.3c.065-.091.129-.185.184-.286.055-.101.1-.205.141-.309l.921-.153c.083-.014.145-.087.143-.175l-.033-1.39c-.003-.086-.067-.157-.15-.167l-.927-.108c-.091-.206-.208-.402-.351-.582l.327-.871c.025-.079-.006-.17-.083-.211l-1.22-.666c-.076-.042-.17-.019-.221.046l-.555.746c-.228-.024-.456-.017-.679.019l-.592-.721c-.055-.063-.148-.081-.222-.036l-1.187.724c-.074.045-.102.136-.07.215l.368.856c-.065.091-.129.185-.184.286-.055.101-.1.205-.141.309l-.919.154c-.083.014-.145.087-.143.175l.033 1.39c.003.086.067.157.15.167l.927.108c.091.206.208.402.351.582l-.327.871c-.027.078.005.169.081.21l1.22.666c.076.042.17.019.221-.046l.555-.746c.228.024.456.017.679-.019l.592.721c.055.063.148.081.222.036l1.187-.724c.074-.045.102-.136.07-.215zm-2.686-.467c-.59-.322-.807-1.06-.485-1.65.322-.59 1.06-.807 1.65-.485.59.322.807 1.06.485 1.65-.322.59-1.06.807-1.65.485"/>
  </g>
 </g>
</svg>
