<svg width="32" xmlns="http://www.w3.org/2000/svg" height="32" xmlns:xlink="http://www.w3.org/1999/xlink">
 <defs>
  <linearGradient id="a" y1="392.36" y2="320.48" gradientUnits="userSpaceOnUse" x2="0" gradientTransform="matrix(.5 0 0 .42294 418.57 378.93)">
   <stop stop-color="#ffffff" stop-opacity="0"/>
   <stop offset="1" stop-color="#ffffff" stop-opacity=".2"/>
  </linearGradient>
  <path color-rendering="auto" color-interpolation-filters="linearRGB" shape-rendering="auto" image-rendering="auto" text-rendering="auto" id="b" color-interpolation="sRGB" color="#000000" d="m386.57 520.8v25h28v-25z"/>
 </defs>
 <g transform="translate(-384.57-515.8)">
  <use fill="#59cfd3" xlink:href="#b"/>
  <g color-rendering="auto" color-interpolation-filters="linearRGB" shape-rendering="auto" image-rendering="auto" text-rendering="auto" color-interpolation="sRGB" color="#000000">
   <rect opacity=".25" x="386.57" y="544.8" width="28" height="1"/>
   <g fill="#ffffff">
    <rect opacity=".5" x="386.57" y="520.8" width="28" height="1"/>
    <path opacity=".5" fill-rule="evenodd" d="m3 7v2h2v-2zm3 0v2h2v-2zm3 0v2h2v-2zm3 0v2h2v-2zm3 0v2h2v-2zm3 0v2h2v-2zm3 0v2h2v-2zm3 0v2h2v-2zm3 0v2h2v-2zm-24 19v2h2v-2zm3 0v2h2v-2zm3 0v2h2v-2zm3 0v2h2v-2zm3 0v2h2v-2zm3 0v2h2v-2zm3 0v2h2v-2zm3 0v2h2v-2zm3 0v2h2v-2z" transform="translate(384.57 515.8)"/>
    <path opacity=".75" d="m396.07142 528.79803a1.5 1.5 0 0 0 -1.5 1.5 1.5 1.5 0 0 0 1.5 1.5 1.5 1.5 0 0 0 1.5 -1.5 1.5 1.5 0 0 0 -1.5 -1.5m0 1a.5 .5 0 0 1 .5 .5 .5 .5 0 0 1 -.5 .5 .5 .5 0 0 1 -.5 -.5 .5 .5 0 0 1 .5 -.5m9.5 1l-5.6 5.58-2.6-2.58-6 6h1.406l3.119-3.082 1.408-1.404 1.564 1.418 1.102 1.068 5.6-5.398 3.594 3.398h1.406z"/>
   </g>
  </g>
  <use fill="url(#a)" xlink:href="#b"/>
 </g>
</svg>
