<svg width="32" xmlns="http://www.w3.org/2000/svg" height="32" xmlns:xlink="http://www.w3.org/1999/xlink">
 <defs>
  <linearGradient id="a" y1="392.36" y2="365.36" x2="0" gradientUnits="userSpaceOnUse" gradientTransform="translate(309.57 152.44)">
   <stop stop-color="#ffffff" stop-opacity="0"/>
   <stop offset="1" stop-color="#ffffff" stop-opacity=".2"/>
  </linearGradient>
  <linearGradient id="b" y1="17" y2="24" x1="47" x2="54" gradientUnits="userSpaceOnUse" gradientTransform="translate(357.57 507.8)">
   <stop stop-color="#060606"/>
   <stop offset="1" stop-opacity="0"/>
  </linearGradient>
  <path id="c" d="m389.57 545.8v-28h15l7 7v21h-14z"/>
 </defs>
 <g transform="translate(-384.57-515.8)">
  <g color-rendering="auto" color-interpolation-filters="linearRGB" shape-rendering="auto" image-rendering="auto" text-rendering="auto" color-interpolation="sRGB" color="#000000">
   <use fill="#febf10" xlink:href="#c"/>
   <g transform="scale(1-1)">
    <rect opacity=".5" x="389.57" y="-518.8" width="15" fill="#ffffff" height="1"/>
    <rect opacity=".25" x="389.57" y="-545.8" width="22" height="1"/>
   </g>
  </g>
  <g fill-rule="evenodd">
   <path opacity=".1" fill="url(#b)" d="m404.57 524.8l7 7v-7z"/>
   <path opacity=".5" color-interpolation-filters="linearRGB" color="#000000" image-rendering="auto" color-rendering="auto" d="m411.57 524.8l-7-7v7z" color-interpolation="sRGB" text-rendering="auto" fill="#ffffff" shape-rendering="auto"/>
  </g>
  <use fill="url(#a)" xlink:href="#c"/>
  <path opacity=".9" color-interpolation-filters="linearRGB" color="#4d4d4d" image-rendering="auto" color-rendering="auto" fill-rule="evenodd" d="m395.57 525.8v3h1v1.65a1.500006 1.500006 0 0 0 -1 1.41211 1.500006 1.500006 0 0 0 1 1.41211v1.525h-1v3h3v-1.809a6.999994 6 0 0 0 5 1.80859v-1a5.999996 5.00001 0 0 1 -5.76953 -3.63086 1.500006 1.500006 0 0 0 .76953 -1.30664 1.500006 1.500006 0 0 0 -.79883 -1.32227 5.999996 5.00001 0 0 1 5.79883 -3.74023v-1a6.999994 6 0 0 0 -5 1.80273v-1.803zm1 1h1v1h-1zm0 9h1v1h-1z" color-interpolation="sRGB" text-rendering="auto" fill="#ffffff" shape-rendering="auto"/>
 </g>
</svg>
