<svg height="32" width="32" xmlns="http://www.w3.org/2000/svg" xmlns:xlink="http://www.w3.org/1999/xlink"><linearGradient id="a" gradientTransform="matrix(.54545384 0 0 .53846154 177.71482 249.75292)" gradientUnits="userSpaceOnUse" x1="386.57101" x2="386.57101" y1="549.79797" y2="497.798"><stop offset="0" stop-color="#7f8c8d"/><stop offset="1" stop-color="#afb0b3"/></linearGradient><linearGradient id="b" gradientUnits="userSpaceOnUse" x1="400.57144" x2="400.57144" y1="522.79797" y2="535.79797"><stop offset="0" stop-color="#da4453"/><stop offset="1" stop-color="#c72737"/></linearGradient><linearGradient id="c" gradientUnits="userSpaceOnUse" x1="12" x2="26" y1="11" y2="25"><stop offset="0" stop-color="#292c2f"/><stop offset="1" stop-color="#292c2f" stop-opacity=".137755"/></linearGradient><linearGradient id="d" gradientTransform="matrix(.55555494 0 0 .54843315 382.79368 514.4732)" gradientUnits="userSpaceOnUse" x1="12" x2="12" y1="48" y2="10"><stop offset="0" stop-color="#eef1f2"/><stop offset="1" stop-color="#f9fafb"/></linearGradient><g transform="translate(-384.57143 -515.798)"><path d="m388.57146 517.798h23.99996v28h-23.99996z" fill="url(#a)" stroke-width=".541946"/><path d="m409.57143 542.798h2.99999v3h-2.99999zm-20.99997 0h2.99997v3h-2.99997z" fill="#292c2f" opacity=".3" stroke-width=".522233"/><path d="m391.57145 542.798h17.99998v3h-17.99998z" fill="#292c2e" stroke-width=".984823"/><path d="m393.57143 543.798h9v1h-9zm10 0h4v1h-4z" fill="#f6b44d" stroke-width="1.006395"/><path d="m395.57143 518.798c-2.76142 0-5 2.20953-5 4.93555v6.06445c.70597.62334 1.1102 1.56499 1.11133 2.5-.001.93463-.40565 1.87691-1.11133 2.5v3l3 3h14l3-3v-3c-.70568-.62309-1.11033-1.56537-1.11133-2.5.001-.93501.40536-1.87666 1.11133-2.5v-6.06445c0-2.72602-2.23858-4.93555-5-4.93555z" fill="url(#d)" stroke-width=".551983"/><path d="m16 7v.00195c-.79532-.0004-1.558264.3150332-2.121094.8769531-.55223.5519532-.867526 1.2974382-.878906 2.0781281.00055.0143.000953.028569.002.042969h-.002v3h-2v7l7 7h10v-9.2421302l-9.878906-9.8789638z" fill="url(#c)" opacity=".2" transform="translate(384.57143 515.798)"/><path d="m388.57143 544.798h24v1h-24z" fill="#292c2f" opacity=".4" stroke-width=".738551"/><path d="m400.57143 522.798c-1.662 0-3 1.338-3 3v3h-2v7h10v-7h-2v-3c0-1.662-1.338-3-3-3zm0 1c1.2465 0 2 .5458 2 2v3h-4v-3c0-1.4542.75351-2 2-2z" fill="url(#b)"/><path d="m388.57143 542.798h3v3zm21 0h3v3h-3z" fill="#292c2f" opacity=".2"/></g></svg>