<svg width="32" xmlns="http://www.w3.org/2000/svg" height="32">
 <defs>
  <linearGradient id="a" y1="61" y2="3" x2="0" gradientUnits="userSpaceOnUse" gradientTransform="matrix(.5 0 0-.48276 0 31.448)">
   <stop stop-color="#5e6b78"/>
   <stop offset="1" stop-color="#768492"/>
  </linearGradient>
  <linearGradient id="b" y1="2.241" y2="9" x2="0" gradientUnits="userSpaceOnUse">
   <stop stop-color="#dedede"/>
   <stop offset="1" stop-color="#fbfbfb"/>
  </linearGradient>
  <linearGradient id="c" y1="9" x1="20" y2="16" x2="27" gradientUnits="userSpaceOnUse">
   <stop stop-color="#383e51"/>
   <stop offset="1" stop-color="#655c6f" stop-opacity="0"/>
  </linearGradient>
 </defs>
 <path fill="url(#a)" d="m5 30v-28h15l7 7v21h-7z"/>
 <g transform="scale(1-1)">
  <rect width="15" x="5" y="-3" fill="#ffffff" height="1" fill-opacity=".412"/>
  <rect width="22" x="5" y="-30" fill="#2e3132" height="1" fill-opacity=".294"/>
 </g>
 <g fill-rule="evenodd">
  <path fill="url(#b)" d="m27 9l-7-7v7z"/>
  <path opacity=".2" fill="url(#c)" d="m27 16l-7-7h7z"/>
 </g>
 <path fill="#fbfbfb" color-rendering="auto" color-interpolation-filters="linearRGB" shape-rendering="auto" image-rendering="auto" text-rendering="auto" color-interpolation="sRGB" color="#4d4d4d" d="m13 12a3 3 0 0 0 -3 3 3 3 0 0 0 3 3 3 3 0 0 0 3 -3 3 3 0 0 0 -3 -3m3 3a3 3 0 0 0 3 3 3 3 0 0 0 3 -3 3 3 0 0 0 -3 -3 3 3 0 0 0 -3 3m-3-2a2 2 0 0 1 2 2 2 2 0 0 1 -2 2A2 2 0 0 1 11.628906 16.451172 1.5 1.5 0 0 0 12 16.5 1.5 1.5 0 0 0 13.5 15 1.5 1.5 0 0 0 12 13.5 1.5 1.5 0 0 0 11.625 13.548828 2 2 0 0 1 13 13m6 0a2 2 0 0 1 2 2 2 2 0 0 1 -2 2A2 2 0 0 1 17.628906 16.451172 1.5 1.5 0 0 0 18 16.5 1.5 1.5 0 0 0 19.5 15 1.5 1.5 0 0 0 18 13.5 1.5 1.5 0 0 0 17.625 13.548828 2 2 0 0 1 19 13m1.08 6.15C19.14 19.683 17.623 19.999 16 20 14.606 19.999 13.275 19.766 12.33 19.355l-.629.735c.389.198.831.354 1.299.49V22a2 2 0 0 0 2 2 2 2 0 0 0 1.5 -.679688A2 2 0 0 0 18 24 2 2 0 0 0 20 22v-1.773c.272-.127.528-.253.754-.401zM19 20.576V22a1 1 0 0 1 -1 1 1 1 0 0 1 -1 -1v-1.059c.712-.061 1.382-.185 2-.365m-5 .238C14.638 20.928 15.309 21 16 21v1a1 1 0 0 1 -1 1 1 1 0 0 1 -1 -1z"/>
</svg>
