<svg height="32" width="32" xmlns="http://www.w3.org/2000/svg" xmlns:xlink="http://www.w3.org/1999/xlink">
    <defs>
        <linearGradient id="c" gradientTransform="translate(309.57 152.44)" gradientUnits="userSpaceOnUse" x2="0" y1="392.36" y2="365.36">
            <stop offset="0" stop-color="#fff" stop-opacity="0"/>
            <stop offset="1" stop-color="#fff" stop-opacity=".2"/>
        </linearGradient>
        <linearGradient id="b" gradientUnits="userSpaceOnUse" x1="404.57" x2="411.57" y1="524.8" y2="531.8">
            <stop offset="0" stop-color="#060606"/>
            <stop offset="1" stop-opacity="0"/>
        </linearGradient>
        <path id="a" d="M389.57 545.8v-28h15l7 7v21h-14z"/>
    </defs>
    <g transform="translate(-384.57 -515.8)">
        <use fill="#13a4f7" xlink:href="#a"/>
        <path d="M389.57 518.8h15v-1h-15z" fill="#fff" opacity=".5"/>
        <path d="M389.57 545.8h22v-1h-22z" opacity=".25"/>
        <path d="M411.57 524.8l-7-7v7z" fill-rule="evenodd" opacity=".6"/>
        <path d="M404.57 524.8l7 7v-7z" fill="url(#b)" fill-rule="evenodd" opacity=".1"/>
        <use fill="url(#c)" xlink:href="#a"/>
    </g>
    <path d="M16 10a6 6 0 0 0-6 6 6 6 0 0 0 6 6 6 6 0 0 0 4.24-1.76l-.707-.707A5 5 0 0 1 16 21a5 5 0 0 1-5-5 5 5 0 0 1 5-5 5 5 0 0 1 3.533 1.467l.707-.707A6 6 0 0 0 16 10z" fill-rule="evenodd" opacity=".7"/>
</svg>
