<?xml version="1.0" encoding="UTF-8" standalone="no"?>
<svg
   xmlns:dc="http://purl.org/dc/elements/1.1/"
   xmlns:cc="http://creativecommons.org/ns#"
   xmlns:rdf="http://www.w3.org/1999/02/22-rdf-syntax-ns#"
   xmlns:svg="http://www.w3.org/2000/svg"
   xmlns="http://www.w3.org/2000/svg"
   xmlns:xlink="http://www.w3.org/1999/xlink"
   xmlns:sodipodi="http://sodipodi.sourceforge.net/DTD/sodipodi-0.dtd"
   xmlns:inkscape="http://www.inkscape.org/namespaces/inkscape"
   width="32"
   height="32"
   id="svg2"
   version="1.1"
   inkscape:version="0.91 r13725"
   sodipodi:docname="text-x-r.svg">
  <metadata
     id="metadata39">
    <rdf:RDF>
      <cc:Work
         rdf:about="">
        <dc:format>image/svg+xml</dc:format>
        <dc:type
           rdf:resource="http://purl.org/dc/dcmitype/StillImage" />
        <dc:title></dc:title>
      </cc:Work>
    </rdf:RDF>
  </metadata>
  <sodipodi:namedview
     pagecolor="#ffffff"
     bordercolor="#666666"
     borderopacity="1"
     objecttolerance="10"
     gridtolerance="10"
     guidetolerance="10"
     inkscape:pageopacity="0"
     inkscape:pageshadow="2"
     inkscape:window-width="2560"
     inkscape:window-height="1375"
     id="namedview37"
     showgrid="false"
     inkscape:zoom="16"
     inkscape:cx="18.749925"
     inkscape:cy="17.794022"
     inkscape:window-x="0"
     inkscape:window-y="36"
     inkscape:window-maximized="1"
     inkscape:current-layer="svg2" />
  <defs
     id="defs4">
    <linearGradient
       id="a"
       y1="392.36"
       y2="365.36"
       gradientUnits="userSpaceOnUse"
       x2="0"
       gradientTransform="translate(309.57,152.44)">
      <stop
         stop-color="#ffffff"
         stop-opacity="0"
         id="stop7" />
      <stop
         offset="1"
         stop-color="#ffffff"
         stop-opacity=".2"
         id="stop9" />
    </linearGradient>
    <linearGradient
       id="b"
       y1="17"
       x1="47"
       y2="24"
       gradientUnits="userSpaceOnUse"
       x2="54"
       gradientTransform="translate(-27,-8)">
      <stop
         stop-color="#060606"
         id="stop12" />
      <stop
         offset="1"
         stop-opacity="0"
         id="stop14" />
    </linearGradient>
    <path
       id="c"
       d="m389.57 545.8v-28h15l7 7v21h-14z" />
    <linearGradient
       gradientTransform="translate(-3.5810018,-18.949931)"
       id="b-3"
       y1="41"
       x1="41"
       y2="18.25"
       x2="21.129999"
       gradientUnits="userSpaceOnUse">
      <stop
         stop-color="#502ae3"
         id="stop12-6" />
      <stop
         offset="1"
         stop-color="#4db4f6"
         id="stop14-7" />
    </linearGradient>
  </defs>
  <use
     xlink:href="#c"
     id="use21"
     style="color:#000000;color-interpolation:sRGB;color-interpolation-filters:linearRGB;fill:#13a4f7;color-rendering:auto;image-rendering:auto;shape-rendering:auto;text-rendering:auto"
     x="0"
     y="0"
     width="100%"
     height="100%"
     transform="translate(-384.57,-515.8)" />
  <rect
     style="color:#000000;opacity:0.5;color-interpolation:sRGB;color-interpolation-filters:linearRGB;fill:#ffffff;color-rendering:auto;image-rendering:auto;shape-rendering:auto;text-rendering:auto"
     id="rect25"
     height="1"
     width="15"
     y="-2.9999878"
     x="5.0000072"
     transform="scale(1,-1)" />
  <rect
     style="color:#000000;opacity:0.25;color-interpolation:sRGB;color-interpolation-filters:linearRGB;color-rendering:auto;image-rendering:auto;shape-rendering:auto;text-rendering:auto"
     id="rect27"
     height="1"
     width="22"
     y="-29.999989"
     x="5.0000072"
     transform="scale(1,-1)" />
  <path
     d="M 27,9 20,2 20,9 Z"
     id="path29"
     inkscape:connector-curvature="0"
     style="color:#000000;opacity:0.6;color-interpolation:sRGB;color-interpolation-filters:linearRGB;fill-rule:evenodd;color-rendering:auto;image-rendering:auto;shape-rendering:auto;text-rendering:auto" />
  <path
     inkscape:connector-curvature="0"
     style="opacity:0.1;fill:url(#b);fill-rule:evenodd"
     id="path31"
     d="m 20,9 7,7 0,-7 z" />
  <use
     height="100%"
     width="100%"
     y="0"
     x="0"
     style="fill:url(#a)"
     id="use33"
     xlink:href="#c"
     transform="translate(-384.57,-515.8)" />
  <path
     inkscape:connector-curvature="0"
     style="opacity:0.7;fill:#000000;fill-opacity:1;fill-rule:evenodd"
     id="path20"
     d="m 20.999512,21.498117 -3.345521,0.0019 -2.279905,-3.305355 c 0,0 -0.367067,-0.619186 -0.592766,-0.798966 -0.188164,-0.149656 -0.268598,-0.203208 -0.454812,-0.203208 l -0.423126,0 9.75e-4,4.303226 -2.904357,0.0014 0,-10.997131 6.323485,0 c 0,0 2.562641,0.463792 2.6148,2.953447 0.05801,2.77558 -2.476844,3.592237 -2.476844,3.592237 0.347567,0.139615 3.143707,3.80931 3.538559,4.450491 m -5.013649,-8.611232 -2.053232,-0.0014 -9.75e-4,1.86999 2.054207,-4.78e-4 c 0,0 0.951544,-0.0029 0.951544,-0.951013 0,-0.967269 -0.951544,-0.916587 -0.951544,-0.916587" />
</svg>
