<svg height="32" width="32" xmlns="http://www.w3.org/2000/svg" xmlns:xlink="http://www.w3.org/1999/xlink"><defs><linearGradient id="a" gradientUnits="userSpaceOnUse" x1="20" x2="27" y1="9" y2="16"><stop offset="0" stop-color="#060606"/><stop offset="1" stop-opacity="0"/></linearGradient><path id="b" d="m389.57 545.8v-28h15l7 7v21h-14z"/><linearGradient id="c" gradientUnits="userSpaceOnUse" x1="400.57001" x2="400.57001" y1="517.79999" y2="545.79999"><stop offset="0" stop-color="#347bff"/><stop offset="1" stop-color="#7769ff"/></linearGradient><linearGradient id="d" gradientTransform="translate(309.57 152.44)" gradientUnits="userSpaceOnUse" x2="0" y1="392.36" y2="365.36"><stop offset="0" stop-color="#fff" stop-opacity="0"/><stop offset="1" stop-color="#fff" stop-opacity=".1"/></linearGradient></defs><use fill="url(#c)" height="100%" transform="translate(-384.57 -515.8)" width="100%" xlink:href="#b"/><path d="m5.000007-2.999988h15v1h-15z" fill="#fff" opacity=".36" transform="scale(1 -1)"/><path d="m5.000007-29.999989h22v1h-22z" opacity=".25" transform="scale(1 -1)"/><path d="m27 9-7-7v7z" fill="#2d479a"/><path d="m20 9 7 7v-7z" fill="url(#a)" fill-rule="evenodd" opacity=".1"/><use fill="url(#d)" height="100%" transform="translate(-384.57 -515.8)" width="100%" xlink:href="#b"/><path d="m10 11v6 6h12l-6-6 6-6h-6zm1 1h4l-4 4zm5.414062 0h3.171876l-8.585938 8.585938v-3.171876zm-1.099609 5.685547 4.3125 4.314453h-8.626953z" fill="#2d479a"/></svg>