<svg width="32" xmlns="http://www.w3.org/2000/svg" height="32" xmlns:xlink="http://www.w3.org/1999/xlink">
 <defs>
  <linearGradient id="a" y1="392.36" y2="365.36" gradientUnits="userSpaceOnUse" x2="0" gradientTransform="translate(309.57 152.44)">
   <stop stop-color="#ffffff" stop-opacity="0"/>
   <stop offset="1" stop-color="#ffffff" stop-opacity=".15"/>
  </linearGradient>
  <linearGradient id="b" y1="17" x1="47" y2="24" gradientUnits="userSpaceOnUse" x2="54" gradientTransform="translate(357.57 507.8)">
   <stop stop-color="#060606"/>
   <stop offset="1" stop-opacity="0"/>
  </linearGradient>
  <path id="c" d="m389.57 545.8v-28h15l7 7v21h-14z"/>
 </defs>
 <g transform="translate(-384.57-515.8)">
  <g color-rendering="auto" color-interpolation-filters="linearRGB" shape-rendering="auto" image-rendering="auto" text-rendering="auto" color-interpolation="sRGB" color="#000000">
   <use fill="#555555" xlink:href="#c"/>
   <g transform="scale(1-1)">
    <rect opacity=".4" x="389.57" y="-518.8" width="15" fill="#ffffff" height="1"/>
    <rect opacity=".35" x="389.57" y="-545.8" width="22" height="1"/>
   </g>
   <path opacity=".5" fill="#ffffff" fill-rule="evenodd" d="m411.57 524.8l-7-7v7z"/>
  </g>
  <path opacity=".1" fill="url(#b)" fill-rule="evenodd" d="m404.57 524.8l7 7v-7z"/>
  <path opacity=".75" color-interpolation-filters="linearRGB" color="#000000" image-rendering="auto" color-rendering="auto" d="m396.29 526.8l-.715.695 2.639 2.797-2.621 2.813.715.695 2.943-3.162.324-.346-.324-.348zm3.285 9v1h6v-1z" color-interpolation="sRGB" text-rendering="auto" fill="#ffffff" shape-rendering="auto"/>
  <use fill="url(#a)" xlink:href="#c"/>
 </g>
</svg>
