<svg width="32" xmlns="http://www.w3.org/2000/svg" height="32">
 <defs>
  <linearGradient id="a" y1="68.42" y2="-3.454" x1="3.116" x2="61.689" gradientUnits="userSpaceOnUse" gradientTransform="matrix(.5 0 0-.48276 384.57 547.25)">
   <stop stop-color="#66b036"/>
   <stop offset="1" stop-color="#239161"/>
  </linearGradient>
  <linearGradient id="b" y1="524.8" x1="404.57" y2="531.8" x2="411.57" gradientUnits="userSpaceOnUse">
   <stop stop-color="#383e51"/>
   <stop offset="1" stop-color="#655c6f" stop-opacity="0"/>
  </linearGradient>
 </defs>
 <g transform="translate(-384.57-515.8)">
  <path fill="url(#a)" d="m389.57 545.8v-28h15l7 7v21h-7z"/>
  <g transform="scale(1-1)">
   <rect width="15" x="389.57" opacity=".5" y="-518.8" fill="#ffffff" height="1"/>
   <rect width="22" x="389.57" y="-545.8" fill="#2e3132" height="1" fill-opacity=".294"/>
  </g>
  <g fill-rule="evenodd">
   <path opacity=".5" fill="#ffffff" d="m411.57 524.8l-7-7v7z"/>
   <path opacity=".2" fill="url(#b)" d="m411.57 531.8l-7-7h7z"/>
  </g>
  <path fill="#e3f5df" d="m406.84 527.79h-12.511c-.413 0-.747.334-.747.747v10.457c0 .413.334.747.747.747h12.512c.412 0 .747-.334.747-.747v-10.459c-.002-.412-.336-.746-.749-.746m-1.649.935c.326 0 .59.264.59.59 0 .326-.264.589-.59.589-.326 0-.59-.264-.59-.589 0-.326.264-.59.59-.59m-1.665 0c.326 0 .59.264.59.59 0 .326-.264.589-.59.589-.326 0-.59-.264-.59-.589 0-.326.264-.59.59-.59m-1.665 0c.326 0 .59.264.59.59 0 .326-.264.589-.59.589-.326 0-.59-.264-.59-.589 0-.326.264-.59.59-.59m4.233 9.522h-11.02v-7.594h11.02v7.594z"/>
 </g>
</svg>
