<svg width="32" xmlns="http://www.w3.org/2000/svg" height="32">
 <defs>
  <linearGradient id="a" y1="518.04" y2="524.8" x2="0" gradientUnits="userSpaceOnUse">
   <stop stop-color="#566472"/>
   <stop offset="1" stop-color="#5e6b78"/>
  </linearGradient>
  <linearGradient id="b" y1="524.8" x1="404.57" y2="531.8" x2="411.57" gradientUnits="userSpaceOnUse">
   <stop stop-color="#383e51"/>
   <stop offset="1" stop-color="#655c6f" stop-opacity="0"/>
  </linearGradient>
  <linearGradient id="c" y1="2.719" y2="61" x1="7.729" x2="8.271" gradientUnits="userSpaceOnUse" gradientTransform="matrix(.5 0 0-.48276 384.57 547.25)">
   <stop stop-color="#bdc3c7"/>
   <stop offset="1" stop-color="#dadfe1"/>
  </linearGradient>
 </defs>
 <g transform="translate(-384.57-515.8)">
  <path fill="url(#c)" d="m389.57 545.8v-28h15l7 7v21h-7z"/>
  <g transform="scale(1-1)">
   <rect width="15" x="389.57" y="-518.8" fill="#ffffff" height="1" fill-opacity=".412"/>
   <rect width="22" x="389.57" y="-545.8" fill="#2e3132" height="1" fill-opacity=".294"/>
  </g>
  <g fill-rule="evenodd">
   <path fill="url(#a)" d="m411.57 524.8l-7-7v7z"/>
   <path opacity=".2" fill="url(#b)" d="m411.57 531.8l-7-7h7z"/>
   <path fill="#5e6b78" d="m394.57 527.8l3 6-3 6h2l3-6-3-6zm3 0l3 6-3 6h2l2-4 2 4h2l-6-12zm6 4l1 2h2v-2zm1.5 3l1 2h.5v-2z"/>
  </g>
 </g>
</svg>
