<svg width="32" xmlns="http://www.w3.org/2000/svg" height="32" xmlns:xlink="http://www.w3.org/1999/xlink">
 <defs>
  <linearGradient id="a" y1="17" y2="24" x1="47" x2="54" gradientUnits="userSpaceOnUse" gradientTransform="translate(357.57 507.8)">
   <stop stop-color="#060606"/>
   <stop offset="1" stop-opacity="0"/>
  </linearGradient>
  <linearGradient id="b" y1="392.36" y2="365.36" x2="0" gradientUnits="userSpaceOnUse" gradientTransform="translate(309.57 152.44)">
   <stop stop-color="#ffffff" stop-opacity="0"/>
   <stop offset="1" stop-color="#ffffff" stop-opacity=".1"/>
  </linearGradient>
  <path id="c" d="m389.57 545.8v-28h15l7 7v21h-14z"/>
 </defs>
 <g transform="translate(-384.57-515.8)">
  <g color-rendering="auto" color-interpolation-filters="linearRGB" shape-rendering="auto" image-rendering="auto" text-rendering="auto" color-interpolation="sRGB" color="#000000">
   <use fill="#0c2d63" xlink:href="#c"/>
   <g transform="scale(1-1)">
    <rect opacity=".5" x="389.57" y="-518.8" width="15" fill="#ffffff" height="1"/>
    <rect opacity=".25" x="389.57" y="-545.8" width="22" height="1"/>
   </g>
   <path fill="#1d70f7" d="m411.57 524.8l-7-7v7z"/>
  </g>
  <path opacity=".1" fill="url(#a)" fill-rule="evenodd" d="m404.57 524.8l7 7v-7z"/>
  <path fill="#1d70f7" color="#000000" stroke-width="1.4" d="m394.57 526.8v1h6v-1zm0 3v1h12v-1zm0 3v1h6v-1zm0 2v1h12v-1zm0 3v1h9v-1z"/>
  <use fill="url(#b)" xlink:href="#c"/>
 </g>
</svg>
