<svg height="32" width="32" xmlns="http://www.w3.org/2000/svg" xmlns:xlink="http://www.w3.org/1999/xlink"><linearGradient id="a" gradientTransform="matrix(.5 0 0 -.48276 384.57 547.25)" gradientUnits="userSpaceOnUse" x2="0" y1="61" y2="3"><stop offset="0" stop-color="#f39c12"/><stop offset="1" stop-color="#f9a11f"/></linearGradient><linearGradient id="b" gradientUnits="userSpaceOnUse" x2="0" y1="518.04" y2="524.8"><stop offset="0" stop-color="#fddda3"/><stop offset="1" stop-color="#fde3a7"/></linearGradient><linearGradient id="c" gradientUnits="userSpaceOnUse" x1="404.57" x2="411.57" y1="524.8" y2="531.8"><stop offset="0" stop-color="#383e51"/><stop offset="1" stop-color="#655c6f" stop-opacity="0"/></linearGradient><g transform="translate(-384.57 -515.8)"><path d="m389.57 545.8v-28h15l7 7v21h-7z" fill="url(#a)"/><g transform="scale(1 -1)"><path d="m389.57-518.8h15v1h-15z" fill="#fff" fill-opacity=".412"/><path d="m389.57-545.8h22v1h-22z" fill="#2e3132" fill-opacity=".294"/></g><g fill-rule="evenodd"><path d="m411.57 524.8-7-7v7z" fill="url(#b)"/><path d="m411.57 531.8-7-7h7z" fill="url(#c)" opacity=".2"/></g><path d="m399.57 527.8c-1.108 0-2 .892-2 2h3v1h-4c-1.108 0-2 .892-2 2v2c0 1.108.892 2 2 2v-1c0-.889.39-1.676 1-2.225l.002-.002c.132-.119.275-.226.426-.32.001-.001.003-.001.004-.002.149-.093.306-.172.471-.238.03-.012.062-.019.092-.029.14-.051.283-.097.432-.127.186-.036.377-.057.574-.057h4v-3c0-1.108-.892-2-2-2zm0 .5c.277 0 .5.223.5.5s-.223.5-.5.5-.5-.223-.5-.5.223-.5.5-.5m5 2.5v1c0 .889-.392 1.678-1 2.227-.132.119-.275.226-.426.32-.001.001-.003.001-.004.002-.149.093-.306.172-.471.238-.03.012-.062.019-.092.029-.14.051-.283.097-.432.127-.186.036-.377.057-.574.057h-4v3c0 1.108.892 2 2 2h2c1.108 0 2-.892 2-2h-3v-1h4c1.108 0 2-.892 2-2v-2c0-1.108-.892-2-2-2m-3 7.5c.277 0 .5.223.5.5s-.223.5-.5.5-.5-.223-.5-.5.223-.5.5-.5" fill="#fddda3"/></g></svg>