<svg width="32" xmlns="http://www.w3.org/2000/svg" height="32">
 <defs>
  <linearGradient id="a" y1="61" y2="3" x2="0" gradientUnits="userSpaceOnUse" gradientTransform="matrix(.5 0 0-.48276 384.57 547.25)">
   <stop stop-color="#5e6b78"/>
   <stop offset="1" stop-color="#768492"/>
  </linearGradient>
  <linearGradient id="b" y1="518.04" y2="524.8" x2="0" gradientUnits="userSpaceOnUse">
   <stop stop-color="#dedede"/>
   <stop offset="1" stop-color="#fbfbfb"/>
  </linearGradient>
  <linearGradient id="c" y1="524.8" x1="404.57" y2="531.8" x2="411.57" gradientUnits="userSpaceOnUse">
   <stop stop-color="#383e51"/>
   <stop offset="1" stop-color="#655c6f" stop-opacity="0"/>
  </linearGradient>
 </defs>
 <g transform="translate(-384.57-515.8)">
  <path fill="url(#a)" d="m389.57 545.8v-28h15l7 7v21h-7z"/>
  <g transform="scale(1-1)">
   <rect width="15" x="389.57" y="-518.8" fill="#ffffff" height="1" fill-opacity=".412"/>
   <rect width="22" x="389.57" y="-545.8" fill="#2e3132" height="1" fill-opacity=".294"/>
  </g>
  <g fill-rule="evenodd">
   <path fill="url(#b)" d="m411.57 524.8l-7-7v7z"/>
   <path opacity=".2" fill="url(#c)" d="m411.57 531.8l-7-7h7z"/>
  </g>
  <path fill="#fbfbfb" d="m397.57143 527.798a1.5 1.5 0 0 0 -1.5 1.5 1.5 1.5 0 0 0 1 1.41211v6.176a1.499991 1.499991 0 0 0 -1 1.41211 1.499991 1.499991 0 0 0 1.5 1.5 1.499991 1.499991 0 0 0 1.5 -1.5 1.499991 1.499991 0 0 0 -1 -1.41211v-6.176a1.5 1.5 0 0 0 1 -1.41211 1.5 1.5 0 0 0 -1.5 -1.5m3.5 0l-2 1.4 2 1.6v-1h1c.554 0 1 .446 1 1v6.088a1.499991 1.499991 0 0 0 -1 1.41211 1.499991 1.499991 0 0 0 1.5 1.5 1.499991 1.499991 0 0 0 1.5 -1.5 1.499991 1.499991 0 0 0 -1 -1.41211v-6.088c0-1.108-.893-1.945-2-2h-1zm-3.5 1a.5 .5 0 0 1 .5 .5 .5 .5 0 0 1 -.5 .5 .5 .5 0 0 1 -.5 -.5 .5 .5 0 0 1 .5 -.5m0 9a.499991 .499991 0 0 1 .5 .5 .499991 .499991 0 0 1 -.5 .5 .499991 .499991 0 0 1 -.5 -.5 .499991 .499991 0 0 1 .5 -.5m6 0a.499991 .499991 0 0 1 .5 .5 .499991 .499991 0 0 1 -.5 .5 .499991 .499991 0 0 1 -.5 -.5 .499991 .499991 0 0 1 .5 -.5"/>
 </g>
</svg>
