<svg viewBox="0 0 16 16" xmlns="http://www.w3.org/2000/svg"><style type="text/css" id="current-color-scheme">.ColorScheme-Text{color:#eff0f1;}.ColorScheme-NegativeText{color:#da4453;}</style><path d="m8 2-1.9902344 1.9902344 2.9902344 2.9824218v-4.9726562zm4.064453 1-.757812.4804688c1.116583 1.3479812 1.710399 2.9158986 1.710937 4.5175781-.002277.8474987-.176046 1.6838048-.5 2.4843751l.726563.724609c.496057-1.020999.754848-2.1071838.755859-3.2089841-.003773-1.7764271-.676438-3.51341-1.935547-4.9980469zm-1.296875 1.4609375-.767578.4863281c.698954.9271285 1.06889 1.981008 1.072266 3.0546875-.000673.3141501-.042959.6254785-.105469.9335938l.789062.7871093c.189314-.5598042.297423-1.1366554.298829-1.7207031-.004102-1.2492036-.449158-2.4737436-1.28711-3.5410156zm-8.767578 1.5390625v4h1v-4zm2 .015625v3.984375l4 4h1v-2.984375z" style="fill:currentColor;fill-opacity:1;stroke:none" class="ColorScheme-Text"/><path d="m-.50000006 3.3284272 1-.0000001.0182925 15.9522699-1.01829245.01829z" style="fill:currentColor;fill-opacity:1;stroke:none" class="ColorScheme-NegativeText" transform="matrix(.70710678 -.70710678 .70710678 .70710678 0 0)"/></svg>