<svg xmlns="http://www.w3.org/2000/svg" viewBox="0 0 16 16">
  <defs id="defs3051">
    <style type="text/css" id="current-color-scheme">
      .ColorScheme-Text {
        color:#eff0f1;
      }
      </style>
  </defs>
    <path
       style="fill:currentColor;fill-opacity:1;stroke:none"
       d="M 8,2 4,6 4,10 8,14 9,14 9,2 8,2 Z M 2,6 2,10 3,10 3,6 2,6 Z"
          class="ColorScheme-Text"/>
    <path
       style="fill:currentColor;fill-opacity:0.25;stroke:none"
       d="M 12.064453 3 L 11.306641 3.4804688 C 12.423224 4.8284502 13.01704 6.3963674 13.017578 7.9980469 C 13.013278 9.5983362 12.416776 11.164113 11.298828 12.509766 L 12.068359 13 C 13.32703 11.513919 13.998369 9.7754967 14 7.9980469 C 13.996227 6.2216198 13.323562 4.4846369 12.064453 3 z M 10.767578 4.4609375 L 10 4.9472656 C 10.698954 5.8743941 11.06889 6.9282736 11.072266 8.0019531 C 11.069966 9.0761572 10.700653 10.130745 10.001953 11.058594 L 10.769531 11.544922 C 11.607241 10.476929 12.051681 9.2516769 12.054688 8.0019531 C 12.050588 6.7527495 11.60553 5.5282095 10.767578 4.4609375 z "
          class="ColorScheme-Text"/>
</svg>
