<svg xmlns="http://www.w3.org/2000/svg" viewBox="0 0 16 16">
  <defs id="defs3051">
    <style type="text/css" id="current-color-scheme">
      .ColorScheme-Text {
        color:#eff0f1;
      }
      </style>
  </defs>
    <path
       style="fill:currentColor;fill-opacity:1;stroke:none"
       d="M 8 2 L 4 6 L 4 10 L 8 14 L 9 14 L 9 2 L 8 2 z M 10.767578 4.4609375 L 10 4.9472656 C 10.698954 5.8743941 11.06889 6.9282736 11.072266 8.0019531 C 11.069966 9.0761572 10.700653 10.130745 10.001953 11.058594 L 10.769531 11.544922 C 11.607241 10.476929 12.051681 9.2516769 12.054688 8.0019531 C 12.050588 6.7527495 11.60553 5.5282095 10.767578 4.4609375 z M 2 6 L 2 10 L 3 10 L 3 6 L 2 6 z "
          class="ColorScheme-Text"/>
    <path
       style="fill:currentColor;fill-opacity:0.25;stroke:none"
       d="m 12.064625,3 -0.757812,0.4804688 c 1.116583,1.3479814 1.710399,2.9158986 1.710937,4.5175781 -0.0043,1.6002893 -0.600802,3.1660661 -1.71875,4.5117191 L 12.068531,13 C 13.327202,11.513919 13.998541,9.7754967 14.000172,7.9980469 13.996399,6.2216198 13.323734,4.4846369 12.064625,3 Z"
          class="ColorScheme-Text"/>
</svg>
