<svg viewBox="0 0 16 16" xmlns="http://www.w3.org/2000/svg">
    <style id="current-color-scheme" type="text/css">.ColorScheme-Text{color:#eff0f1;}.ColorScheme-NegativeText{color:#da4453;}</style>
    <path class="ColorScheme-Text" d="m8 2-4 4v4l4 4h1v-12zm-6 4v4h1v-4z" fill="currentColor"/>
    <path class="ColorScheme-NegativeText" d="m15.98633 8.0000197a3.0000002 3.0000002 0 0 1-0.55664 1.736328l0.0019 0.0019-0.01172 0.01176a3.0000002 3.0000002 0 0 1-0.677727 0.6777123l-0.01758 0.01758-0.0039-0.0038a3.0000002 3.0000002 0 0 1-1.734376 0.55852 3.0000002 3.0000002 0 0 1-2.9999993-3.0000003 3.0000002 3.0000002 0 0 1 0.5566403-1.736328l-0.0019-0.0019 0.01164-0.01164a3.0000002 3.0000002 0 0 1 0.677758-0.677914l0.01758-0.01758 0.0039 0.0038a3.0000002 3.0000002 0 0 1 1.734424-0.558478 3.0000002 3.0000002 0 0 1 3 3zm-1 0a2.0000002 2.0000002 0 0 0-2-1.999999 2.0000002 2.0000002 0 0 0-1.013672 0.279295l2.734376 2.734375a2.0000002 2.0000002 0 0 0 0.279296-1.013671zm-0.986328 1.720703-2.734375-2.734374a2.0000002 2.0000002 0 0 0-0.279297 1.013671 2.0000002 2.0000002 0 0 0 2 1.9999993 2.0000002 2.0000002 0 0 0 1.013672-0.2792963z" fill="currentColor"/>
</svg>
