<svg viewBox="0 0 16 16" xmlns="http://www.w3.org/2000/svg"><style type="text/css" id="current-color-scheme">.ColorScheme-Text{color:#eff0f1;}.ColorScheme-NegativeText{color:#da4453;}</style><path d="m8 1a6 6 0 0 0 -3.6914062 1.2929688l.7050781.7050781a5 5 0 0 1 2.9863281-.9980469 5 5 0 0 1 3.091797 1.0839844 5 5 0 0 1 .199219.1640625 5 5 0 0 1 .183593.171875 5 5 0 0 1 .183594.1875 5 5 0 0 1 .177735.2011719 5 5 0 0 1 .15625.1914062h3.007812v1h-1v4h1v1h-2.984375l1 1h1.984375c.554 0 1-.446 1-1v-6c0-.554-.446-1-1-1h-2.537109a6 6 0 0 0 -4.462891-2zm-7.01367188 2.0019531c-.54732762.0076274-.98632812.4488411-.98632812.9980469v6c0 .554.446 1 1 1h2.5371094a6 6 0 0 0 4.4589844 2c-.5521485.002137-.9960938.447332-.9960938 1 0 .028.012625.052078.015625.080078-1.622.231-3.0195312.919922-3.0195312.919922v1h8.0000002v-1s-1.393532-.688922-3.0195315-.919922c.002-.028.015625-.052078.015625-.080078 0-.551337-.4418915-.995741-.9921875-1a6 6 0 0 0 2.449219-.535156l-.7636721-.763672a5 5 0 0 1 -1.6855469.298828 5 5 0 0 1 -3.0917969-1.083984 5 5 0 0 1 -.1992187-.164063 5 5 0 0 1 -.1835938-.171875 5 5 0 0 1 -.1835937-.1875 5 5 0 0 1 -.1777344-.201172 5 5 0 0 1 -.15625-.191406h-3.0078125v-1h1v-4h-1v-1h.984375zm7.01367188.9980469a3 3 0 0 0 -1.5488281.4355469l4.1132811 4.1132812a3 3 0 0 0 .435547-1.5488281 3 3 0 0 0 -3-3zm-3 3.015625a3 3 0 0 0 2.984375 2.984375z" style="fill:currentColor;fill-opacity:1;stroke:none" class="ColorScheme-Text"/><path d="m-.49999991.50000009h1v21.62741691h-1z" style="fill:currentColor;fill-opacity:1;stroke:none" class="ColorScheme-NegativeText" transform="matrix(.70710678 -.70710678 .70710678 .70710678 0 0)"/></svg>