<svg xmlns="http://www.w3.org/2000/svg" viewBox="0 0 16 16">
  <defs id="defs3051">
    <style type="text/css" id="current-color-scheme">
      .ColorScheme-Text {
        color:#eff0f1;
      }
      .ColorScheme-PositiveText {
        color:#27ae60;
      }
      </style>
  </defs>
 <path style="fill:currentColor;fill-opacity:1;stroke:none" 
     d="M 8 1 A 6 6 0 0 0 3.546875 3 L 1 3 C 0.446 3 0 3.446 0 4 L 0 10 C 0 10.554 0.446 11 1 11 L 3.5371094 11 A 6 6 0 0 0 7.9960938 13 C 7.4439454 13.002137 7 13.447332 7 14 C 7 14.028 7.012625 14.052078 7.015625 14.080078 C 5.393625 14.311078 3.9960938 15 3.9960938 15 L 3.9960938 16 L 11.996094 16 L 11.996094 15 C 11.996094 15 10.602562 14.311078 8.9765625 14.080078 C 8.9785625 14.052078 8.9921875 14.028 8.9921875 14 C 8.9921875 13.448663 8.550296 13.004259 8 13 A 6 6 0 0 0 12.453125 11 L 15 11 C 15.554 11 16 10.554 16 10 L 16 4 C 16 3.446 15.554 3 15 3 L 12.462891 3 A 6 6 0 0 0 8 1 z M 8 2 A 5 5 0 0 1 11.091797 3.0839844 A 5 5 0 0 1 11.291016 3.2480469 A 5 5 0 0 1 11.474609 3.4199219 A 5 5 0 0 1 11.658203 3.6074219 A 5 5 0 0 1 11.835938 3.8085938 A 5 5 0 0 1 11.992188 4 L 15 4 L 15 5 L 14 5 L 14 9 L 15 9 L 15 10 L 11.992188 10 A 5 5 0 0 1 10.990234 11 A 5 5 0 0 1 8 12 A 5 5 0 0 1 4.9082031 10.916016 A 5 5 0 0 1 4.7089844 10.751953 A 5 5 0 0 1 4.5253906 10.580078 A 5 5 0 0 1 4.3417969 10.392578 A 5 5 0 0 1 4.1640625 10.191406 A 5 5 0 0 1 4.0078125 10 L 1 10 L 1 9 L 2 9 L 2 5 L 1 5 L 1 4 L 4.0097656 4 A 5 5 0 0 1 4.328125 3.6152344 A 5 5 0 0 1 5.0097656 3 A 5 5 0 0 1 8 2 z "
     class="ColorScheme-Text"
     />
  <path
      style="fill:currentColor;fill-opacity:1;stroke:none" 
     class="ColorScheme-PositiveText"
   d="m 11,6.9999852 a 3,3 0 0 1 -3,3 3,3 0 0 1 -3,-3 3,3 0 0 1 3,-3 3,3 0 0 1 3,3 z" />
</svg>
