<svg xmlns="http://www.w3.org/2000/svg" viewBox="0 0 16 16">
  <defs id="defs3051">
    <style type="text/css" id="current-color-scheme">
      .ColorScheme-Text {
        color:#eff0f1;
      }
      </style>
  </defs>
    <path
       style="fill:currentColor;fill-opacity:1;stroke:none" 
       d="M 4 2 L 4 14 L 6 14 L 6 13 L 6 12 L 5 12 L 5 5 L 11 5 L 11 6 L 12 6 L 12 2 L 4 2 z M 7 3 L 9 3 L 9 4 L 7 4 L 7 3 z M 9.5 6 L 9.2226562 7.1074219 C 8.9705339 7.1746178 8.728255 7.2744183 8.5019531 7.4042969 L 7.5253906 6.8183594 L 6.8183594 7.5253906 L 7.4042969 8.5019531 C 7.2729063 8.7286688 7.1717853 8.9716217 7.1035156 9.2246094 L 6 9.5 L 6 10.5 L 7.1074219 10.777344 C 7.1746179 11.029466 7.2744183 11.271745 7.4042969 11.498047 L 6.8183594 12.474609 L 7.5253906 13.181641 L 8.5019531 12.595703 C 8.7286688 12.727094 8.9716218 12.828214 9.2246094 12.896484 L 9.5 14 L 10.5 14 L 10.777344 12.892578 C 11.029466 12.825378 11.271745 12.725582 11.498047 12.595703 L 12.474609 13.181641 L 13.181641 12.474609 L 12.595703 11.498047 C 12.727094 11.271331 12.828214 11.028379 12.896484 10.775391 L 14 10.5 L 14 9.5 L 12.892578 9.2226562 C 12.825382 8.9705339 12.725582 8.728255 12.595703 8.5019531 L 13.181641 7.5253906 L 12.474609 6.8183594 L 11.498047 7.4042969 C 11.271331 7.2729063 11.028379 7.1717853 10.775391 7.1035156 L 10.5 6 L 9.5 6 z M 10 8 A 2 2 0 0 1 12 10 A 2 2 0 0 1 10 12 A 2 2 0 0 1 8 10 A 2 2 0 0 1 10 8 z "
       class="ColorScheme-Text"/>
</svg>
