<svg viewBox="0 0 16 16" xmlns="http://www.w3.org/2000/svg">
    <style id="current-color-scheme" type="text/css">.ColorScheme-Text{color:#eff0f1;}.ColorScheme-NegativeText{color:#da4453;}</style>
    <path class="ColorScheme-Text" d="m5 2c-1.108 0-2 .892-2 2v4c0 1.108.892 2 2 2s2-.892 2-2v-4c0-1.108-.892-2-2-2zm-4 5v1c0 1.847 1.286 3.405469 3 3.855469v1.144531h-1v1h4v-1h-1v-1.144531c1.0665924-.28065 1.9657742-.990817 2.4941406-1.9316409a4 4 0 0 1 -.4941406-1.9238281c0 1.645-1.355 3-3 3s-3-1.355-3-3v-1z" fill="currentColor"/>
    <path class="ColorScheme-NegativeText" d="m15.000021 7.9999998a3.0000002 3.0000002 0 0 1-0.55664 1.736328l0.0019 0.0019-0.01172 0.01176a3.0000002 3.0000002 0 0 1-0.677727 0.6777122l-0.01758 0.01758-0.0039-0.0038a3.0000002 3.0000002 0 0 1-1.734376 0.55852 3.0000002 3.0000002 0 0 1-2.9999992-3.0000002 3.0000002 3.0000002 0 0 1 0.55664-1.736328l-0.0019-0.0019 0.01164-0.01164a3.0000002 3.0000002 0 0 1 0.6777582-0.6779144l0.01758-0.01758 0.0039 0.00384a3.0000002 3.0000002 0 0 1 1.734424-0.5584776 3.0000002 3.0000002 0 0 1 3 3zm-1 0a2.0000002 2.0000002 0 0 0-2-1.9999991 2.0000002 2.0000002 0 0 0-1.013672 0.279295l2.734376 2.734375a2.0000002 2.0000002 0 0 0 0.279296-1.0136709zm-0.986328 1.720703-2.734375-2.734374a2.0000002 2.0000002 0 0 0-0.279297 1.013671 2.0000002 2.0000002 0 0 0 2 1.999999 2.0000002 2.0000002 0 0 0 1.013672-0.279296z" fill="currentColor"/>
</svg>
