<svg width="16" xmlns="http://www.w3.org/2000/svg" height="16" viewBox="0 0 16 16">
 <path fill="#9bd916" d="M2.498047 1.988281A.50005 .50005 0 0 0 2.150391 2.845703L3.428 4.123A5.999991 5.999991 0 0 0 2 8V14H14V8A5.999991 5.999991 0 0 0 12.582031 4.125L13.861 2.846A.50012 .50005 0 0 0 13.498047 1.988281 .50012 .50005 0 0 0 13.154297 2.138672L11.869 3.424A5.999991 5.999991 0 0 0 8 2 5.999991 5.999991 0 0 0 4.130859 3.412109L2.857 2.139A.50005 .50005 0 0 0 2.498047 1.988281M8 3A5 5 0 0 1 13 8H3A5 5 0 0 1 8 3M6 5A1 1 0 0 0 5 6 1 1 0 0 0 6 7 1 1 0 0 0 7 6 1 1 0 0 0 6 5M10 5A1 1 0 0 0 9 6 1 1 0 0 0 10 7 1 1 0 0 0 11 6 1 1 0 0 0 10 5M3 9H7V10H8V11H9V9H13V13H3zM8 11H7V12H8z"/>
</svg>
