<svg width="16" xmlns="http://www.w3.org/2000/svg" height="16" viewBox="0 0 16 16">
 <path fill="#cf000f" d="M8 2A6 6.00001 0 0 0 2 8 6 6.00001 0 0 0 8 14 6 6.00001 0 0 0 14 8 6 6.00001 0 0 0 8 2M8 3A5 5.00001 0 0 1 13 8 5 5.00001 0 0 1 8 13 5 5.00001 0 0 1 3 8 5 5.00001 0 0 1 8 3M8 4A4 4 0 0 0 5.441406 4.927734L6.082 5.697A3 3 0 0 1 8 5 3 3 0 0 1 11 8H12A4 4 0 0 0 8 4M9 6L7.398 9.203A1 1 0 0 0 7 10 1 1 0 0 0 8 11 1 1 0 0 0 9 10 1 1 0 0 0 8.748047 9.339844zM4.53125 6.01758A4 4 0 0 0 4 8H5A3 3 0 0 1 5.398438 6.513672z"/>
</svg>
