<svg height="16" viewBox="0 0 16 16" width="16" xmlns="http://www.w3.org/2000/svg"><g fill="#f59e16" transform="matrix(.22222222 0 0 .22222222 4.891625 4.222222)"><path d="m9.487688-10.000001c-4.986 0-9 4.014-9 9h13.5v4.5h-18c-4.986 0-9 4.014-9 9v9c0 4.986 4.014 9 9 9v-4.5c0-4.0005 1.755-7.540242 4.5-10.010742l.008775-.0088c.594-.5355 1.2365158-1.018407 1.9160158-1.441407.0045-.0045.013095-.0043.017595-.0088.6705-.4185 1.375664-.775265 2.1181644-1.072265.135-.054.2780865-.08684.4130865-.131837.63-.2295 1.2806721-.436288 1.9511721-.571289.836996-.162027 1.6974801-.25491 2.5839801-.25491h17.9999991v-13.5c0-4.986-4.013999-9-8.999999-9zm0 2.25c1.2465 0 2.25 1.0035 2.25 2.25s-1.0035 2.25-2.25 2.25-2.25-1.0035-2.25-2.25 1.0035-2.25 2.25-2.25z" stroke-width="4.5"/><path d="m31.987688 16.999999-6.75 6.75 3.18164 3.18164 3.56836-3.568359v16.136719h-4.5v4.5h13.5v-4.5h-4.5v-22.5z"/><path d="m8 8c-.5579142 0-1.1220508.2789384-1.4746094.8007812-.3525586.5218432-.5253906 1.2436758-.5253906 2.1992188 0 .955532.1728337 1.677374.5253906 2.199219.352557.521844.9166903.800781 1.4746094.800781.5579193 0 1.1220523-.278937 1.4746094-.800781.3525571-.521845.5253906-1.243687.5253906-2.199219 0-.955543-.172832-1.6773756-.5253906-2.1992188-.3525587-.5218428-.9166947-.8007812-1.4746094-.8007812zm0 1c.2705133 0 .4561499.0776494.6464844.359375.0346566.0512972.0656095.1214967.0976562.1894531l-1.7304687 1.7304689c-.0047093-.093245-.0136719-.176972-.0136719-.279297 0-.830184.1631812-1.3588997.3535156-1.640625.1903345-.2817256.3759715-.359375.6464844-.359375zm.9863281 1.720703c.0047094.093246.0136719.17697.0136719.279297 0 .830171-.1631794 1.358895-.3535156 1.640625-.190336.28173-.3759757.359375-.6464844.359375-.2705082 0-.4561482-.077645-.6464844-.359375-.0346568-.051298-.0656094-.121496-.0976562-.189453z" transform="matrix(4.5 0 0 4.5 -22.012312 -19.000001)"/></g></svg>