<svg width="16" xmlns="http://www.w3.org/2000/svg" height="16" viewBox="0 0 16 16">
 <path fill="#898b8d" color="#000000" stroke-width=".1" d="m8 1038.36c-3.314 0-6 2.686-6 6 0 3.314 2.686 6 6 6 3.314 0 6-2.686 6-6 0-3.314-2.686-6-6-6m0 1c2.761 0 5 2.239 5 5 0 2.761-2.239 5-5 5-2.761 0-5-2.239-5-5 0-2.761 2.239-5 5-5m0 1c-2.209 0-4 1.791-4 4h2c0-1.105.895-2 2-2zm0 3a1 1 0 0 0 -1 1 1 1 0 0 0 1 1 1 1 0 0 0 1 -1 1 1 0 0 0 -1 -1m2 1c0 1.105-.895 2-2 2v2c2.209 0 4-1.791 4-4z" transform="translate(0-1036.36)"/>
</svg>
