<svg width="16" xmlns="http://www.w3.org/2000/svg" height="16" viewBox="0 0 16 16">
 <path color-interpolation-filters="linearRGB" color="#000000" image-rendering="auto" color-rendering="auto" d="m8 1038.36c-1.072 3.818-4 6.073-4 8.182 0 2.109 1.791 3.818 4 3.818 2.209 0 4-1.709 4-3.818 0-2.109-2.928-4.364-4-8.182m2.75 6.2333a3.428571 3.272727 0 0 1 .67857 1.9485 3.428571 3.272727 0 0 1 -3.42857 3.2727 3.428571 3.272727 0 0 1 -2.03795 -.6456 4 3.818182 0 0 0 .89509 .1002 4 3.818182 0 0 0 4 -3.8182 4 3.818182 0 0 0 -.10714 -.8576" color-interpolation="sRGB" text-rendering="auto" fill="#75d8e1" shape-rendering="auto" transform="translate(0-1036.36)"/>
</svg>
