<svg width="16" xmlns="http://www.w3.org/2000/svg" height="16" viewBox="0 0 16 16">
 <path fill="#656f9d" d="m8.488 1046.52l-1.386-1.37.016-.016c.949-1.059 1.626-2.275 2.024-3.563h1.599v-1.091h-3.819v-1.091h-1.091v1.091h-3.819v1.086h6.095c-.366 1.053-.944 2.052-1.73 2.925-.507-.562-.928-1.179-1.26-1.828h-1.091c.398.889.944 1.73 1.626 2.488l-2.777 2.739.775.775 2.728-2.728 1.697 1.697zm3.072-2.766h-1.091l-2.455 6.547h1.091l.611-1.637h2.592l.617 1.637h1.091zm-1.43 3.819l.884-2.362.884 2.362z" transform="translate(0-1036.36)"/>
</svg>
