<svg width="16" xmlns="http://www.w3.org/2000/svg" height="16" viewBox="0 0 16 16">
 <g fill="#8096a0" transform="translate(0-1036.36)">
  <path d="m9.592 1042.4c.015-.118.026-.237.026-.359 0-.121-.011-.241-.026-.359l.778-.609c.07-.055.09-.154.044-.235l-.736-1.274c-.046-.079-.142-.112-.224-.079l-.916.37c-.189-.145-.397-.268-.622-.362l-.138-.975c-.017-.086-.092-.154-.184-.154h-1.471c-.092 0-.167.068-.182.154l-.138.975c-.224.094-.432.215-.622.362l-.916-.37c-.083-.031-.178 0-.224.079l-.736 1.274c-.046.079-.026.178.044.235l.776.609c-.015.118-.026.237-.026.359 0 .121.011.241.026.359l-.776.609c-.07.055-.09.155-.044.235l.736 1.274c.046.079.142.112.224.079l.916-.37c.189.145.397.268.622.362l.138.975c.015.086.09.155.182.155h1.471c.092 0 .167-.068.182-.155l.138-.975c.224-.094.432-.215.622-.362l.916.37c.083.031.178 0 .224-.079l.736-1.274c.046-.079.026-.178-.044-.235zm-2.732.929c-.712 0-1.287-.576-1.287-1.287 0-.712.576-1.287 1.287-1.287.712 0 1.287.575 1.287 1.287 0 .712-.576 1.287-1.287 1.287"/>
  <path d="m11.697 1048.9c.051-.07.1-.143.142-.221.043-.078.077-.159.109-.239l.713-.118c.064-.011.112-.068.111-.136l-.026-1.077c-.002-.067-.052-.122-.116-.13l-.718-.084c-.071-.16-.161-.312-.272-.451l.253-.675c.02-.061-.005-.131-.064-.164l-.945-.516c-.059-.032-.131-.015-.171.036l-.43.578c-.177-.019-.353-.013-.526.015l-.459-.559c-.042-.049-.115-.063-.172-.028l-.92.561c-.057.034-.079.106-.054.167l.285.663c-.051.07-.1.143-.142.222-.043.078-.077.159-.109.239l-.712.119c-.064.011-.112.068-.111.136l.026 1.077c.001.067.052.122.116.13l.718.084c.071.16.161.312.272.451l-.253.675c-.021.06.004.131.063.163l.945.516c.059.032.131.015.171-.035l.43-.578c.177.019.353.014.526-.015l.459.559c.042.049.115.063.172.028l.92-.561c.057-.034.079-.106.054-.167zm-2.082-.362c-.457-.249-.625-.821-.376-1.278.25-.457.821-.625 1.279-.376.457.249.625.821.376 1.279-.25.457-.821.625-1.279.376"/>
 </g>
</svg>
