<svg width="16" xmlns="http://www.w3.org/2000/svg" height="16" viewBox="0 0 16 16">
 <path color-interpolation-filters="linearRGB" color="#000000" image-rendering="auto" color-rendering="auto" d="m3 1038.36c-.554 0-1 .446-1 1v10c0 .554.446 1 1 1h10c.554 0 1-.446 1-1v-10c0-.554-.446-1-1-1zm0 1h10v10h-10zm1 1v1h2v-1zm3 0v1h2v-1zm3 0v1h2v-1zm-6 1.998v1h2v-1zm3 0v1h2v-1zm3 0v1h2v-1zm-6 1.998v1h2v-1zm3 0v1h2v-1zm3 0v1h2v-1zm-6 1.998v1h2v-1zm3 0v1h2v-1zm3 0v1h2v-1z" color-interpolation="sRGB" text-rendering="auto" fill="#124c2f" shape-rendering="auto" transform="translate(0-1036.36)"/>
</svg>
