<svg width="16" xmlns="http://www.w3.org/2000/svg" height="16" viewBox="0 0 16 16">
 <g fill="#6c7a89" transform="translate(0-1036.36)">
  <path d="m2 2v12h12v-12zm1 3h10v8c-3.551-.037-6.45-.077-10 0z" transform="translate(0 1036.36)"/>
  <path d="m8.338 1046.55l-1.032-1.02.012-.012c.707-.788 1.211-1.694 1.507-2.652h1.19v-.813h-2.843v-.812h-.812v.812h-2.843v.808h4.537c-.272.784-.703 1.527-1.288 2.177-.378-.418-.691-.877-.938-1.361h-.812c.297.662.703 1.288 1.211 1.852l-2.068 2.039.577.577 2.031-2.031 1.263 1.263zm2.287-2.06h-.812l-1.828 4.875h.812l.455-1.219h1.93l.459 1.219h.812zm-1.064 2.843l.658-1.759.658 1.759z"/>
 </g>
</svg>
