<svg width="16" xmlns="http://www.w3.org/2000/svg" height="16" viewBox="0 0 16 16">
 <g fill="#6c7a89" transform="translate(0-1036.36)">
  <g transform="matrix(.00095-.00013-.00013-.00095 3.256 1044.43)">
   <path d="m9471.8 4996c-30.7-15.4-172.7-143.9-314.6-285.9l-259-260.9-71 65.2c-99.8 88.3-203.4 119-308.9 88.3-72.9-21.1-262.9-205.3-1515.7-1456.2-790.5-788.5-1435.1-1440.9-1435.1-1452.4 0-9.6 239.8-259 531.4-550.6l533.4-533.4 934.4 934.4c514.2 514.2 940.1 928.6 947.8 920.9 25-24.9 11.5-483.5-19.2-627.4-15.3-78.7-65.2-216.8-109.3-307-78.7-161.2-86.3-170.8-1245.2-1333.4-640.9-642.7-1176.2-1189.5-1187.7-1212.5-32.6-63.3-24.9-191.9 15.4-270.5 67.1-132.4 270.5-199.5 401-130.5 90.2 48 2388.6 2369.4 2469.2 2496.1 234.1 360.7 341.5 849.9 297.4 1352.6-17.3 199.5-49.9 393.3-88.2 533.4-11.5 38.4 23 80.6 237.9 297.4 203.4 207.2 251.3 266.7 262.9 326.2 24.9 126.6-3.8 203.4-115.1 318.5l-103.6 107.4 276.3 278.2c226.4 230.2 276.3 291.6 287.8 351.1 47.7 253.1-194 454.6-422.3 351"/>
   <path d="m3253.7-602.4c-1648.1-1650-1884-1895.6-2045.2-2112.4-320.4-431.7-698.4-1105.1-974.6-1730.6-178.4-401-178.4-362.6 0-297.4 550.6 203.4 1281.6 556.4 1717.1 830.7 425.9 268.6 502.7 341.5 2417.4 2256.2l1841.8 1843.9-537.2 537.2c-295.5 295.5-541 537.2-546.8 537.2-5.8 0-848-840.3-1872.5-1864.8"/>
  </g>
  <path d="m7.935 1047.18c-.234.05-.494.252-.62.485-.034.061-.088.198-.121.301-.031.106-.061.193-.063.196-.018.023-.465.13-.728.175-.618.108-.786.148-.847.205-.119.11-.027.22.141.171.045-.014.236-.052.42-.083.184-.032.465-.09.625-.126.16-.038.294-.063.301-.056.007.01-.02.135-.063.285l-.076.27-.169.074c-.092.04-.225.11-.294.157-.211.139-.252.314-.103.427.081.061.305.059.445 0 .124-.056.193-.135.29-.339.052-.106.092-.162.124-.169.025-.01.247-.052.494-.103.247-.05.472-.097.501-.103.047-.011.052-.01.038.036-.009.027-.049.106-.092.175-.043.07-.076.153-.076.186 0 .07.058.139.106.121.018-.01.043-.014.054-.014.011 0 .061-.036.11-.081.092-.083.315-.49.315-.575 0-.043.034-.054.054-.02.007.011.059.032.115.045.079.02.101.036.101.072 0 .07.115.171.216.191.079.014.18 0 .288-.047.038-.016.04-.011.027.047-.009.036-.074.15-.144.256-.148.22-.328.571-.375.726-.038.133-.022.231.047.279.063.04.166.022.22-.036.047-.052.303-.593.398-.84.067-.173.099-.22.252-.382.126-.132.166-.164.139-.112-.045.097-.043.171.007.216.106.097.258 0 .391-.24.079-.144.137-.187.429-.324l.153-.07-.016.083c-.009.045-.061.173-.115.283-.106.223-.126.364-.063.485.043.083.088.085.294.014.288-.097.663-.319.759-.447.133-.18.173-.353.092-.411-.083-.061-.13-.036-.236.119-.142.211-.317.375-.485.458-.079.041-.148.068-.155.061-.009-.01.171-.492.267-.719.02-.047.036-.106.036-.13 0-.063-.079-.135-.146-.135-.031 0-.18.061-.328.137-.308.153-.288.166-.209-.121.047-.177.031-.225-.076-.236-.103-.011-.144.023-.238.191-.061.114-.141.209-.296.353-.204.188-.213.195-.261.162-.072-.052-.112-.045-.288.043-.171.085-.227.097-.27.045-.036-.043.02-.065.333-.126.303-.059.341-.074.341-.137 0-.101-.083-.198-.231-.263-.256-.115-.285-.121-.398-.092-.121.032-.301.205-.326.312-.025.112-.101.079-.101-.045 0-.052-.063-.182-.099-.205-.076-.052-.2.061-.294.267l-.074.159-.166.036c-.216.047-.842.173-.926.189-.054.01-.063.01-.052-.027.009-.023.036-.121.063-.222.07-.278.09-.314.191-.35.121-.043.53-.218.636-.272.049-.025.15-.101.225-.169.227-.211.263-.407.101-.55-.045-.038-.103-.079-.13-.09-.083-.032-.287-.043-.386-.023zm.288.31c.045.045.045.047.005.133-.027.054-.09.117-.169.171-.137.094-.566.267-.58.236-.018-.052.119-.36.207-.458.117-.132.151-.146.337-.135.119.01.166.018.2.054m-1.465 1.869c-.029.056-.106.097-.148.081-.049-.02-.036-.047.043-.088.103-.052.135-.05.106.01z"/>
 </g>
</svg>
