<svg width="16" xmlns="http://www.w3.org/2000/svg" height="16" viewBox="0 0 16 16">
 <path fill="#f27935" stroke-width="2" d="m7.380859 1038.3136a.5 .5 0 0 0 -.345703 .1464 .5 .5 0 0 0 0 .7071l3.205 3.205A4 4 0 0 0 10 1042.3622h-7.5a.5 .5 0 0 0 -.5 .5 .5 .5 0 0 0 .5 .5h4.793l-5.146 5.147a.500012 .5 0 0 0 0 .7071 .500012 .5 0 0 0 .707032 0l3.164-3.164A4 4 0 0 0 6 1046.3622a4 4 0 0 0 4 4 4 4 0 0 0 4 -4 4 4 0 0 0 -.960938 -2.5957l.006-.01-.135-.135a4 4 0 0 0 -.203165 -.2031l-4.965-4.965a.5 .5 0 0 0 -.361329 -.1464zM10 1043.3643a3 3 0 0 1 1.996094 .7637l.227.227A3 3 0 0 1 13 1046.3643a3 3 0 0 1 -3 3 3 3 0 0 1 -3 -3 3 3 0 0 1 3 -3m0 2a1 1 0 0 0 -1 1 1 1 0 0 0 1 1 1 1 0 0 0 1 -1 1 1 0 0 0 -1 -1" transform="translate(0-1036.36)"/>
</svg>
