<svg width="16" xmlns="http://www.w3.org/2000/svg" height="16" viewBox="0 0 16 16">
 <g fill="#51db51">
  <path d="m10.06 1.988c-2.175 0-3.939 1.762-3.939 3.936 0 .591.134 1.15.367 1.652l-.674.797-.059.748c-.006.005-.734.027-.734.027l-.375.271c0 0 .003.816 0 .805v.002l-.803.014-.338.387-.008.732c0 0-.692-.045-.762.02v.002c-.442.407-.74.697-.74.697l.002 1.918.633-.004h-.26l5.104-5.102c.307.267.662.474 1.041.637.476.205.993.334 1.545.334 2.176 0 3.939-1.763 3.939-3.938 0-2.174-1.763-3.936-3.939-3.936m.752 1.877c.725 0 1.313.587 1.313 1.313 0 .725-.587 1.313-1.313 1.313-.725 0-1.314-.587-1.314-1.313 0-.725.589-1.313 1.314-1.313"/>
  <path opacity=".525" d="m10.814 3.865c-.725 0-1.314.587-1.314 1.313 0 .725.589 1.313 1.314 1.313.725 0 1.313-.587 1.313-1.313 0-.725-.587-1.313-1.313-1.313m0 .75c.311 0 .563.252.563.563 0 .31-.252.563-.563.563-.311 0-.564-.252-.564-.563 0-.311.254-.563.564-.563m-3.338 4.275l-5.104 5.102h1.877l4.453-4.377c-.454-.168-.868-.413-1.227-.725"/>
 </g>
</svg>
