<svg width="16" xmlns="http://www.w3.org/2000/svg" height="16" viewBox="0 0 16 16">
 <g fill="#22a7f0" transform="matrix(.01225 0 0 .01225 1.869 1.875)">
  <path d="m530.2 118.2c0 17.3-14.1 31.2-31.4 31.2-17.4 0-31.4-14-31.4-31.2v-76.9c0-17.3 14.1-31.3 31.4-31.3 17.4 0 31.4 14 31.4 31.3z"/>
  <path d="m525.4 662c0 14.2-11.6 25.7-25.9 25.7h-1.4c-14.3 0-25.9-11.5-25.9-25.7v-83.1c0-14.2 11.6-25.8 25.9-25.8h1.4c14.3 0 25.9 11.5 25.9 25.8z"/>
  <path d="m825.5 906.7c10.4-10.7 13.8-27.1 7.1-41.5l-260-551.2c-.2-1.5-.2-3.1-.2-4.7 0-5.4 2-10.4 5.2-14.3 31-23.3 51-60.3 51-101.9 0-70.6-57.5-127.7-128.5-127.8-72.3 0-128.6 57.2-128.6 127.8 0 41.6 19.9 78.6 50.9 101.9 3.3 3.9 5.3 8.8 5.3 14.3 0 1.6 0 3.2-.2 4.7l-260 551.2c-6.7 14.3-3.4 30.8 7.1 41.5l-41 83.3 64.8-70.2c17.2 4.5 35.6-3.7 43.4-20.2l247.9-525.4c2.3-2.9 5.8-4.7 9.8-4.7.2 0 .6 0 .6 0 .2 0 .4 0 .6 0 4 0 7.5 1.9 9.7 4.7l247.9 525.4c7.7 16.6 26.2 24.7 43.3 20.2l64.8 70.2zm-325.4-640.1c-41 0-73.8-32.9-73.8-73.5 0-40.5 32.9-73.4 73.8-73.5 40.8 0 73.8 32.9 73.8 73.5 0 40.6-33 73.5-73.8 73.5"/>
  <path d="m781.7 622.9c0 9.3-7.5 16.8-16.9 16.8h-532.1c-9.3 0-16.9-7.5-16.9-16.8v-.1c0-9.3 7.6-16.8 16.9-16.8h532.1c9.4.1 16.9 7.6 16.9 16.9"/>
 </g>
</svg>
