<svg width="16" xmlns="http://www.w3.org/2000/svg" height="16" viewBox="0 0 16 16">
 <path fill="#fc963a" color="#000000" stroke-width=".1" d="m2 2v2c5.523 0 10 4.477 10 10h2c0-.021 0-.041 0-.063 0-.391-.026-.775-.063-1.156-.002-.021.002-.042 0-.063-.039-.381-.114-.756-.188-1.125-.004-.02.004-.043 0-.063-.236-1.157-.643-2.242-1.188-3.25-.004-.008.004-.024 0-.031-1.479-2.724-3.983-4.798-7-5.719-.357-.111-.724-.204-1.094-.281-.02-.004-.043.004-.063 0-.371-.076-.743-.147-1.125-.188-.021-.002-.042.002-.063 0-.383-.039-.764-.06-1.156-.063-.021 0-.041 0-.063 0m0 4v2c3.314 0 6 2.686 6 6h2c0-4.418-3.582-8-8-8m2 4c-1.105 0-2 .895-2 2 0 1.105.895 2 2 2 1.105 0 2-.895 2-2 0-1.105-.895-2-2-2"/>
</svg>
