<svg width="16" xmlns="http://www.w3.org/2000/svg" height="16" viewBox="0 0 16 16">
 <path fill="#687583" d="m7.08 1037.36c-.684 0-1.576.406-2.391 1.085-.489.22-.834.728-.834 1.319 0 .185.033.367.098.535-.846.171-1.485.949-1.485 1.883 0 .194.027.386.082.57-.349.36-.545.85-.545 1.366 0 .404.119.778.324 1.087-.212.321-.324.695-.324 1.089 0 .698.363 1.339.94 1.676-.01.086-.014.174-.014.261 0 .942.588 1.773 1.44 2.057.371.664 1.045 1.071 1.783 1.071.81 0 1.513-.488 1.852-1.198.339.71 1.04 1.198 1.85 1.198.738 0 1.414-.407 1.785-1.071.852-.284 1.44-1.116 1.44-2.057 0-.087-.006-.174-.016-.261.576-.337.94-.978.94-1.676 0-.394-.111-.768-.324-1.089.204-.31.324-.684.324-1.087 0-.516-.197-1.01-.545-1.366.055-.185.084-.376.084-.57 0-.934-.641-1.712-1.487-1.883.065-.168.098-.35.098-.535 0-.591-.344-1.099-.834-1.319-.815-.679-1.707-1.085-2.391-1.085-.38 0-.716.197-.924.496-.208-.3-.546-.496-.926-.496m0 .453c.391 0 .708.334.708.743v2.933c-.195-.161-.441-.258-.708-.258-.12 0-.218.103-.218.228 0 .125.098.226.218.226.391 0 .708.332.708.741v5.452c-.27-.364-.649-.637-1.097-.763-.116-.032-.236.039-.267.16-.031.121.037.245.153.277.712.2 1.21.877 1.21 1.647 0 .942-.733 1.709-1.634 1.709-.608 0-1.162-.351-1.446-.915-.028-.056-.077-.096-.135-.113-.712-.2-1.208-.877-1.208-1.647 0-.115.01-.232.031-.345.02-.104-.031-.209-.124-.252-.507-.235-.834-.761-.834-1.34 0-.263.066-.514.19-.736.324.299.748.48 1.212.48.12 0 .216-.103.216-.228 0-.125-.096-.226-.216-.226-.773 0-1.403-.658-1.403-1.467 0-.435.184-.846.504-1.126.072-.062.096-.167.061-.258-.069-.177-.102-.363-.102-.552 0-.809.629-1.465 1.403-1.465.773 0 1.403.656 1.403 1.465 0 .125.096.228.216.228.12 0 .218-.103.218-.228 0-1.017-.761-1.85-1.718-1.914-.087-.152-.133-.326-.133-.505 0-.404.235-.752.569-.902.013-.011.027-.012.039-.017.104-.041.214-.065.332-.065.363 0 .689.212.847.554.052.113.181.159.288.105.108-.055.154-.189.102-.302-.181-.39-.525-.672-.92-.771.554-.353 1.099-.554 1.534-.554zm1.85 0c.435 0 .981.201 1.534.554-.395.099-.737.381-.918.771-.052.113-.007.247.1.302.108.055.236.011.288-.106.159-.342.484-.554.847-.554.117 0 .228.023.332.063.012.011.026.013.039.017.334.151.569.498.569.903 0 .179-.047.351-.133.503-.958.064-1.718.899-1.718 1.916 0 .125.098.228.218.228.12 0 .218-.103.218-.228 0-.809.627-1.467 1.401-1.467.773 0 1.403.658 1.403 1.467 0 .189-.033.375-.102.552-.035.091-.011.195.061.258.32.28.504.691.504 1.126 0 .809-.629 1.467-1.403 1.467-.12 0-.216.101-.216.226 0 .125.096.228.216.228.465 0 .891-.182 1.214-.48.125.223.188.473.188.736 0 .578-.327 1.104-.834 1.34-.093.043-.144.148-.124.252.022.112.033.229.033.345 0 .77-.499 1.447-1.21 1.647-.058.017-.107.057-.135.113-.284.564-.838.915-1.446.915-.901 0-1.634-.767-1.634-1.709 0-.065-.003-.126-.008-.189.005-.019.008-.04.008-.061v-7.489c0-.408.318-.743.708-.743.12 0 .218-.101.218-.226 0-.125-.098-.228-.218-.228-.267 0-.513.097-.708.258v-1.965c0-.409.318-.743.708-.743m3.239 3.902c-.12 0-.216.103-.216.228 0 .809-.629 1.465-1.403 1.465-.38 0-.736-.155-1-.439-.084-.089-.22-.092-.306 0-.086.087-.088.23-.004.32.301.321.689.516 1.11.564.1.69.672 1.223 1.359 1.223.12 0 .216-.103.216-.228 0-.125-.096-.226-.216-.226h-.002c-.449 0-.824-.332-.916-.773.9-.123 1.597-.927 1.597-1.901 0-.125-.098-.228-.218-.228zm-7.865.238c-.12 0-.218.103-.218.228 0 .974.699 1.781 1.599 1.904-.092.441-.469.773-.918.773-.12 0-.218.103-.218.228 0 .125.098.226.218.226.688 0 1.258-.53 1.358-1.221.421-.047.81-.243 1.11-.564.084-.089.081-.234-.004-.322-.086-.087-.222-.086-.306 0-.266.284-.622.441-1 .441-.773 0-1.403-.658-1.403-1.467 0-.125-.096-.228-.216-.228zm4.626 3.391c-.12 0-.216.103-.216.228 0 .125.096.226.216.226.773 0 1.403.658 1.403 1.467 0 .052-.003.105-.008.156-.673.285-1.148.976-1.148 1.781 0 .125.096.226.216.226.12 0 .218-.101.218-.226 0-.809.629-1.467 1.403-1.467.12 0 .216-.103.216-.228 0-.125-.096-.226-.216-.226-.084 0-.167.012-.247.019 0-.012 0-.023 0-.032 0-1.059-.824-1.92-1.836-1.92zm-2.544.484c-1.013 0-1.836.861-1.836 1.92 0 .011 0 .022 0 .032-.081-.011-.162-.018-.245-.018-.12 0-.218.101-.218.226 0 .125.098.228.218.228.773 0 1.403.658 1.403 1.467 0 .125.096.228.216.228.12 0 .218-.103.218-.228 0-.805-.477-1.495-1.15-1.781-.005-.052-.008-.103-.008-.154 0-.809.629-1.467 1.403-1.467.12 0 .218-.103.218-.228 0-.125-.098-.226-.218-.226" transform="translate(0-1036.36)"/>
</svg>
