<svg width="16" xmlns="http://www.w3.org/2000/svg" height="16" viewBox="0 0 16 16">
 <g fill="#555555" transform="translate(0-1036.36)">
  <path d="m8.935 1042.3c.019-.144.032-.29.032-.439 0-.149-.014-.295-.032-.439l.978-.745c.088-.067.113-.189.055-.288l-.925-1.559c-.058-.097-.178-.137-.282-.097l-1.152.452c-.238-.178-.5-.328-.782-.443l-.173-1.193c-.021-.106-.116-.189-.231-.189h-1.85c-.116 0-.21.083-.229.189l-.173 1.193c-.282.115-.543.263-.782.443l-1.152-.452c-.104-.038-.224 0-.282.097l-.925 1.559c-.058.097-.032.218.055.288l.976.745c-.019.144-.032.29-.032.439 0 .148.014.295.032.439l-.976.745c-.088.067-.113.189-.055.288l.925 1.559c.058.097.178.137.282.097l1.152-.452c.238.178.5.328.782.443l.173 1.193c.019.106.113.189.229.189h1.85c.116 0 .21-.083.229-.189l.173-1.193c.282-.115.543-.263.782-.443l1.152.452c.104.038.224 0 .282-.097l.925-1.559c.058-.097.032-.218-.055-.288zm-3.436 1.136c-.895 0-1.619-.704-1.619-1.575 0-.871.724-1.575 1.619-1.575.895 0 1.619.704 1.619 1.575 0 .871-.724 1.575-1.619 1.575"/>
  <path d="m12.91 1048.8c.039-.103.074-.209.1-.319.026-.11.042-.221.053-.33l.839-.376c.076-.034.115-.119.091-.203l-.396-1.319c-.025-.081-.105-.133-.187-.122l-.913.128c-.141-.174-.304-.332-.488-.468l.083-.913c.004-.082-.05-.161-.134-.181l-1.339-.331c-.084-.021-.167.024-.199.099l-.335.851c-.224.034-.439.098-.643.188l-.754-.541c-.069-.047-.162-.04-.221.021l-.943.988c-.059.061-.062.156-.01.223l.576.726c-.039.103-.074.209-.1.319-.026.11-.042.22-.053.331l-.837.376c-.076.034-.115.119-.091.203l.396 1.319c.026.082.105.133.187.122l.913-.128c.141.174.304.333.488.468l-.083.913c-.005.081.049.16.133.181l1.339.332c.084.021.167-.025.199-.099l.335-.851c.224-.034.439-.098.643-.188l.754.541c.069.047.162.04.221-.021l.943-.988c.059-.062.062-.156.01-.223zm-2.687.225c-.648-.16-1.048-.811-.896-1.455.153-.644.8-1.035 1.448-.875.648.16 1.048.811.896 1.455-.153.644-.8 1.035-1.448.875"/>
 </g>
</svg>
