<svg width="16" xmlns="http://www.w3.org/2000/svg" height="16" viewBox="0 0 16 16">
 <path color-interpolation-filters="linearRGB" color="#000000" image-rendering="auto" color-rendering="auto" d="m13.996 3.654l-7 .004-2.441 6.691-1.555-2.695h-1v1h.428l2.133 3.693 3.02-7.693h6.42zm-4 2c-1.662 0-3 1.338-3 3 0 1.662 1.338 3 3 3 .773 0 1.469-.298 2-.775v.775h1v-6h-1v.775c-.531-.477-1.227-.775-2-.775m0 1c1.108 0 2 .892 2 2 0 1.108-.892 2-2 2-1.108 0-2-.892-2-2 0-1.108.892-2 2-2" color-interpolation="sRGB" text-rendering="auto" fill="#383838" shape-rendering="auto"/>
</svg>
