<svg width="16" xmlns="http://www.w3.org/2000/svg" height="16" viewBox="0 0 16 16">
 <g fill="#6c7a89" transform="translate(0-1036.36)">
  <path d="m2 2v12h12v-12zm1 3h10v8c-3.551-.037-6.45-.077-10 0z" transform="translate(0 1036.36)"/>
  <path stroke-linejoin="round" stroke-width="2" d="m8 1042.36c-.556 0-1.074.17-1.44.49-.365.32-.56.774-.56 1.26h1.143c0-.264.091-.435.225-.553.135-.118.33-.197.632-.197.302 0 .497.08.632.197.135.118.225.289.225.553 0 .229-.052.327-.121.413-.298.263-.658.488-.948.703-.327.215-.646.496-.646.884v.25h1.143v-.25c.406-.364 1.011-.681 1.388-1.015.199-.25.326-.59.326-.985 0-.486-.195-.94-.56-1.26-.365-.32-.884-.49-1.44-.49m-.857 5v1h1.143v-1z"/>
 </g>
</svg>
