<svg width="16" xmlns="http://www.w3.org/2000/svg" height="16" viewBox="0 0 16 16">
 <path color-interpolation-filters="linearRGB" color="#000000" image-rendering="auto" color-rendering="auto" d="m6 2c-1.165.411-2 1.507-2 2.814v.381c0 .74-.404 1.378-1 1.723v2.166c.596.345 1 .981 1 1.721v.381c0 1.307.835 2.403 2 2.814v-1.092c-.596-.345-1-.983-1-1.723v-.381c0-1.3-.826-2.388-1.98-2.805 1.154-.417 1.98-1.505 1.98-2.805v-.381c0-.74.404-1.378 1-1.723zm4 0v1.092c.596.345 1 .983 1 1.723v.381c0 1.299.827 2.388 1.98 2.805-1.154.416-1.98 1.505-1.98 2.805v.381c0 .74-.404 1.378-1 1.723v1.092c1.165-.411 2-1.507 2-2.814v-.381c0-.74.404-1.376 1-1.721v-2.166c-.596-.345-1-.983-1-1.723v-.381c0-1.307-.835-2.403-2-2.814" color-interpolation="sRGB" text-rendering="auto" fill="#ffa555" shape-rendering="auto"/>
</svg>
