<svg width="16" xmlns="http://www.w3.org/2000/svg" height="16" viewBox="0 0 16 16">
 <path color-interpolation-filters="linearRGB" color="#4d4d4d" image-rendering="auto" color-rendering="auto" fill-rule="evenodd" d="m4 2v3h1v1.65a1.500006 1.500006 0 0 0 -1 1.41211 1.500006 1.500006 0 0 0 1 1.41211v1.525h-1v3h3v-1.809a6.999994 6 0 0 0 5 1.80859v-1a5.999996 5.00001 0 0 1 -5.76953 -3.63086 1.500006 1.500006 0 0 0 .76953 -1.30664 1.500006 1.500006 0 0 0 -.79883 -1.32227 5.999996 5.00001 0 0 1 5.79883 -3.74023v-1a6.999994 6 0 0 0 -5 1.80273v-1.803zm1 1h1v1h-1zm0 9h1v1h-1z" color-interpolation="sRGB" text-rendering="auto" fill="#78a7dc" shape-rendering="auto"/>
</svg>
