<svg xmlns="http://www.w3.org/2000/svg" viewBox="0 0 16 16">
  <defs id="defs3051">
    <style type="text/css" id="current-color-scheme">
      .ColorScheme-Text {
        color:#232629;
      }
      </style>
  </defs>
 <path style="fill:currentColor;fill-opacity:1;stroke:none" 
     d="M 3 2 L 3 14 L 8 14 L 8 13 L 4 13 L 4 3 L 12 3 L 12 7 L 13 7 L 13 2 L 3 2 z M 11.5 8 A 1.5 1.5 0 0 0 10 9.5 L 10 11 L 9 11 L 9 14 L 14 14 L 14 11 L 13 11 L 13 9.5 A 1.5 1.5 0 0 0 11.5 8 z M 11.5 9 A 0.5 0.5 0 0 1 12 9.5 L 12 11 L 11 11 L 11 9.5 A 0.5 0.5 0 0 1 11.5 9 z "
     class="ColorScheme-Text"
     />
</svg>
