<svg xmlns="http://www.w3.org/2000/svg" viewBox="0 0 16 16">
  <defs id="defs3051">
    <style type="text/css" id="current-color-scheme">
      .ColorScheme-Text {
        color:#232629;
      }
      </style>
  </defs>
 <path style="fill:currentColor;fill-opacity:1;stroke:none" 
       d="M 10.171875 1.671875 L 9.4648438 2.3789062 L 10.414062 3.328125 L 11.085938 4 L 9 4 L 7 4 L 7 5 L 8 5 L 9 5 L 11.085938 5 L 10.414062 5.671875 L 9.4648438 6.6210938 L 10.171875 7.328125 L 11.121094 6.3789062 L 13 4.5 L 11.121094 2.6210938 L 10.171875 1.671875 z M 5.828125 3.671875 L 4.8789062 4.6210938 L 3 6.5 L 4.8789062 8.3789062 L 5.828125 9.328125 L 6.5351562 8.6210938 L 5.5859375 7.671875 L 4.9140625 7 L 7 7 L 8 7 L 9 7 L 9 6 L 7 6 L 4.9140625 6 L 5.5859375 5.328125 L 6.5351562 4.3789062 L 5.828125 3.671875 z M 12 7 L 12 10 L 9 10 L 9 13 L 4 13 L 4 9 L 3 9 L 3 14 L 9 14 L 10 14 L 13 11 L 13 10 L 13 7 L 12 7 z "
     class="ColorScheme-Text"
     />
</svg>
