<svg xmlns="http://www.w3.org/2000/svg" viewBox="0 0 16 16">
  <defs id="defs3051">
    <style type="text/css" id="current-color-scheme">
      .ColorScheme-Text {
        color:#232629;
      }
      </style>
  </defs>
 <path style="fill:currentColor;fill-opacity:1;stroke:none" 
     d="M 3 2 L 3 3 L 3 13 L 3 14 L 8 14 L 9 14 L 10 14 L 10 13 L 9 13 L 8 13 L 4 13 L 4 3 L 6 3 L 7 3 L 9 3 L 11 3 L 12 3 L 12 9 L 13 9 L 13 2 L 12 2 L 9 2 L 7 2 L 6 2 L 3 2 z M 8 5 C 6.338 5 5 6.338 5 8 C 5 9.662 6.338 11 8 11 C 8.64939 11 9.26003 10.7855 9.75 10.4375 L 12.28125 13 L 13 12.28125 L 10.4375 9.75 C 10.78555 9.2601 11 8.6494 11 8 C 11 6.338 9.662 5 8 5 z M 8 6 C 9.108 6 10 6.892 10 8 C 10 9.108 9.108 10 8 10 C 6.892 10 6 9.108 6 8 C 6 6.892 6.892 6 8 6 z "
     class="ColorScheme-Text"
     />
</svg>
