<svg xmlns="http://www.w3.org/2000/svg" viewBox="0 0 16 16">
  <defs id="defs3051">
    <style type="text/css" id="current-color-scheme">
      .ColorScheme-Text {
        color:#232629;
      }
      </style>
  </defs>
 <path style="fill:currentColor;fill-opacity:1;stroke:none" 
     d="M 5 2 L 5 4 L 2 4 L 2 14 L 12 14 L 12 12 L 14 12 L 14 4.28125 L 11.71875 2 L 11.6875 2 L 11 2 C 10.99995 1.99997 5 2 5 2 z M 6 3 L 11.28125 3 L 13 4.71875 L 13 5 L 13 11 L 12 11 L 12 6.28125 L 9.71875 4 L 9.6875 4 L 9 4 L 6 4 L 6 3 z M 3 5 L 4 5 L 4 8 L 9 8 L 9 7 L 9 5 L 9.28125 5 L 11 6.71875 L 11 7 L 11 13 L 10 13 L 10 11 L 4 11 L 4 13 L 3 13 L 3 5 z M 5 5 L 7 5 L 7 7 L 5 7 L 5 5 z M 5 12 L 9 12 L 9 13 L 5 13 L 5 12 z "
     class="ColorScheme-Text"
     />
</svg>
