<svg version="1.1" viewBox="0 0 16 16" xmlns="http://www.w3.org/2000/svg">
    <defs>
        <style type="text/css" id="current-color-scheme">.ColorScheme-Text {
        color:#232629;
      }</style>
    </defs>
    <path class="ColorScheme-Text" d="m8 2-6 4.604 2.32 7.396h7.418l2.262-7.449zm0 1 5 3.793-1.885 6.207h-6.182l-1.934-6.164z" fill="currentColor"/>
    <path d="m4.5910936 13.530925c-0.0605468-0.101736-2.0888957-6.5473393-2.0886315-6.6371675 1.413e-4 -0.0480251 1.2272918-1.0186318 2.7270015-2.1569036 2.3727734-1.8009226 2.7448388-2.0584057 2.8661289-1.9834675 0.076661 0.0473649 1.3245949 0.9756543 2.7731855 2.0628656l2.633801 1.976748-0.142803 0.4672056c-0.07854 0.2569632-0.544891 1.777024-1.036334 3.3779134l-0.89353 2.910706-3.4025273 0.01942c-1.8713901 0.01068-3.4177211-0.0062-3.4362911-0.03732z" class="ColorScheme-Text" fill="currentColor" fill-opacity=".50196078"/>
</svg>
