<svg version="1.1" viewBox="0 0 16 16" xmlns="http://www.w3.org/2000/svg">
    <defs>
        <style type="text/css" id="current-color-scheme">.ColorScheme-Text {
        color:#232629;
      }</style>
    </defs>
    <path class="ColorScheme-Text" d="m5 2v2a1 1 0 0 1-1 1h-2v6h2a1 1 0 0 1 1 1v2h6v-2a1 1 0 0 1 1-1h2v-6h-2a1 1 0 0 1-1-1v-2zm1 1h4v1a2 2 0 0 0 2 2h1v4h-1a2 2 0 0 0-2 2v1h-4v-1a2 2 0 0 0-2-2h-1v-4h1a2 2 0 0 0 2-2z" fill="currentColor"/>
    <path d="m5.7661461 12.737214c-7e-3 -0.534296-0.015752-0.718516-0.039308-0.82714-0.0937024-0.432107-0.2819027-0.787257-0.5810312-1.096459-0.209177-0.21622-0.3586831-0.325207-0.6275926-0.457502-0.4075392-0.200494-0.670663-0.241039-1.5691275-0.241781l-0.5136184-4.25e-4v-4.3955567h0.6684492c0.5815332 0 0.6924312-0.00466 0.8528891-0.035789 0.8948504-0.1736371 1.5752876-0.8455449 1.7712777-1.7490749 0.021618-0.099663 0.031007-0.3044168 0.03802-0.82909l0.00931-0.6967425h4.4255846v0.6345994c0 0.6732549 0.01236 0.8266932 0.08735 1.08412 0.234956 0.8066068 0.924445 1.4204672 1.757369 1.5646084 0.118735 0.020547 0.324295 0.027368 0.824798 0.027368h0.666649v4.3904963l-0.683254 0.01048c-0.585866 9e-3 -0.708178 0.01583-0.858116 0.04794-0.460493 0.09861-0.820154 0.28924-1.134868 0.601493-0.345988 0.343281-0.574098 0.792977-0.639712 1.261125-0.01112 0.07932-0.02021 0.42558-0.02021 0.769466v0.625247h-4.4258557z" class="ColorScheme-Text" fill="currentColor" fill-opacity=".50196078"/>
</svg>
