<svg version="1.1" viewBox="0 0 16 16" xmlns="http://www.w3.org/2000/svg">
    <defs>
        <style type="text/css" id="current-color-scheme">.ColorScheme-Text {
        color:#232629;
      }</style>
    </defs>
    <path class="ColorScheme-Text" d="m2 9v-1c0-3.314 2.684-6 5.996-6 3.311 0 5.996 2.686 5.996 6 0.019 0.069 0 1 0 1h-10.992zm0.999-1h9.993c0-2.761-2.237-5-4.997-5s-4.997 2.239-4.997 5" fill="currentColor"/>
    <path d="m2.4061195 8.3927465c1.26e-5 -0.050293 0.012525-0.2307146 0.027806-0.400937 0.1618253-1.8027295 1.0945573-3.3951283 2.5691847-4.3862185 1.2502388-0.8402798 2.7846372-1.1384869 4.2734235-0.8305311 1.7719853 0.3665353 3.3445223 1.6779759 4.0624213 3.3879169 0.290812 0.6926764 0.47673 1.5371325 0.47673 2.165355v0.1558565h-11.409588z" class="ColorScheme-Text" fill="currentColor" fill-opacity=".50196078"/>
</svg>
