<svg version="1.1" viewBox="0 0 16 16" xmlns="http://www.w3.org/2000/svg">
    <defs>
        <style type="text/css" id="current-color-scheme">.ColorScheme-Text {
        color:#232629;
      }</style>
    </defs>
    <path class="ColorScheme-Text" d="m8 3a6 5 0 0 0-6 5 6 5 0 0 0 6 5 6 5 0 0 0 6-5 6 5 0 0 0-6-5zm0 1a5 4 0 0 1 5 4 5 4 0 0 1-5 4 5 4 0 0 1-5-4 5 4 0 0 1 5-4z" fill="currentColor"/>
    <path d="m6.7193329 12.268359c-1.2434232-0.290205-2.0787895-0.731773-2.8654292-1.514646-0.651812-0.64869-0.9862901-1.2395099-1.1528008-2.0362995-0.4378368-2.0951424 1.1965364-4.1608003 3.79861-4.8010023 0.7788066-0.1916139 2.1684168-0.2250695 2.891075-0.069604 1.6694851 0.359156 3.0856961 1.3657196 3.7197611 2.6437986 1.131379 2.28051-0.3136 4.7822752-3.2771851 5.6739532-0.6717398 0.202113-2.4402198 0.26106-3.114031 0.103803z" class="ColorScheme-Text" fill="currentColor" fill-opacity=".50196078"/>
</svg>
