<svg version="1.1" viewBox="0 0 16 16" xmlns="http://www.w3.org/2000/svg">
    <defs>
        <style type="text/css" id="current-color-scheme">.ColorScheme-Text {
        color:#232629;
      }</style>
    </defs>
    <path class="ColorScheme-Text" d="m7 2h1c3.314 0 6 2.684 6 5.996 0 3.311-2.686 5.996-6 5.996-0.069 0.019-1 0-1 0v-10.992zm1 0.999v9.993c2.761 0 5-2.237 5-4.997s-2.239-4.997-5-4.997" fill="currentColor"/>
    <path d="m7.5581346 7.9531348v-5.523404l0.5129326 0.048725c2.0070218 0.1906533 3.8720138 1.3569661 4.7507498 2.9709812 0.476152 0.8745723 0.61173 1.4476542 0.605842 2.5608687-0.0048 0.9018367-0.03 1.0809325-0.227521 1.6153542-0.326797 0.8841741-0.796108 1.5704401-1.542049 2.2549181-1.008987 0.92585-2.2219362 1.436238-3.7150478 1.563225l-0.3849066 0.03274z" class="ColorScheme-Text" fill="currentColor" fill-opacity=".50196078"/>
</svg>
