<svg viewBox="0 0 16 16" xmlns="http://www.w3.org/2000/svg">
    <style type="text/css" id="current-color-scheme">
        .ColorScheme-Text {
            color:#232629;
        }
        .ColorScheme-Highlight {
            color:#3daee9;
        }
    </style>
    <rect x="7" y="3" width="3" height="5" class="ColorScheme-Highlight" fill="currentColor" fill-rule="evenodd"/>
    <path d="M8 2a4 4 0 0 0-4 4v4a4 4 0 0 0 4 4h1a4 4 0 0 0 4-4V6a4 4 0 0 0-4-4zm0 1h1a3 3 0 0 1 3 3v4a3 3 0 0 1-3 3H8a3 3 0 0 1-3-3V6a3 3 0 0 1 3-3z" fill="currentColor" class="ColorScheme-Text"/>
</svg>
