<svg xmlns="http://www.w3.org/2000/svg" viewBox="0 0 16 16">
  <defs id="defs3051">
    <style type="text/css" id="current-color-scheme">
      .ColorScheme-Text {
        color:#232629;
      }
      </style>
  </defs>
 <path style="fill:currentColor;fill-opacity:1;stroke:none" 
     d="M 2 2 L 2 13.28125 L 2 14 L 14 14 L 14 13 L 14 12 L 14 11 L 14 10 L 14 7 L 13 7 L 13 9 L 11 7 L 7.65625 10.34375 L 6.3125 9 L 6.28125 9 L 3 12.28125 L 3 3 L 9 3 L 9 2 L 2 2 z M 11 7 L 12 7 L 12 3.9140625 L 14 5.9140625 L 14 4.5 L 12.207031 2.7070312 L 11.5 2 L 10.792969 2.7070312 L 9 4.5 L 9 5.9140625 L 11 3.9140625 L 11 7 z M 6 4 C 4.8954305 4 4 4.8954305 4 6 C 4 7.1045695 4.8954305 8 6 8 C 7.1045695 8 8 7.1045695 8 6 C 8 4.8954305 7.1045695 4 6 4 z "
     class="ColorScheme-Text"
     />
</svg>
