<svg xmlns="http://www.w3.org/2000/svg" viewBox="0 0 16 16">
  <defs id="defs3051">
    <style type="text/css" id="current-color-scheme">
      .ColorScheme-Text {
        color:#232629;
      }
      </style>
  </defs>
 <path style="fill:currentColor;fill-opacity:1;stroke:none" 
       d="M 2 2 L 2 7 L 6 7 L 6 12 L 7 12 L 9 12 L 9 14 L 14 14 L 14 9 L 9 9 L 9 11 L 7 11 L 7 7 L 7 5 L 9 5 L 9 7 L 14 7 L 14 2 L 9 2 L 9 4 L 7 4 L 7 2 L 2 2 z M 3 3 L 6 3 L 6 6 L 3 6 L 3 3 z M 10 3 L 13 3 L 13 6 L 10 6 L 10 3 z "
     class="ColorScheme-Text"
     />
</svg>
