<svg xmlns="http://www.w3.org/2000/svg" viewBox="0 0 16 16">
  <defs id="defs3051">
    <style type="text/css" id="current-color-scheme">
      .ColorScheme-Text {
        color:#232629;
      }
      </style>
  </defs>
 <path style="fill:currentColor;fill-opacity:1;stroke:none" 
     d="M 2 2 L 2 14 L 14 14 L 14 2 L 12 2 L 12 4 L 10 4 L 10 2 L 6 2 L 6 4 L 4 4 L 4 2 L 2 2 z M 3 5 L 13 5 L 13 13 L 3 13 L 3 5 z M 5 7 L 5 8 L 4 8 L 5 9 L 5 10 L 11 10 L 11 9 L 12 8 L 11 8 L 11 7 L 5 7 z M 11 10 L 11 11 L 12 11 L 11 10 z M 5 10 L 4 11 L 5 11 L 5 10 z "
     class="ColorScheme-Text"
     />
</svg>
