<svg xmlns="http://www.w3.org/2000/svg" viewBox="0 0 16 16">
  <defs id="defs3051">
    <style type="text/css" id="current-color-scheme">
      .ColorScheme-Text {
        color:#232629;
      }
      </style>
  </defs>
  <g
     transform="translate(-421.71429,-531.79074)">
    <g
       transform="matrix(0.75,0,0,0.74999813,421.46429,-241.22897)">
      <path
         style="fill:currentColor;fill-opacity:1;stroke:none" 
         d="M 8 3 A 8.9999925 9.0000023 0 0 0 0.12304688 7.6679688 C 0.2519919 8.0317178 0.48048563 8.3445725 0.77929688 8.5761719 A 7.9999935 8.0000021 0 0 1 8 4 A 3.9999996 4.0000004 0 0 0 4 8 A 3.9999996 4.0000004 0 0 0 8 12 A 3.9999996 4.0000004 0 0 0 12 8 A 3.9999996 4.0000004 0 0 0 8.3496094 4.0175781 A 7.9999935 8.0000021 0 0 1 15.220703 8.5761719 C 15.522218 8.3424725 15.752612 8.0260772 15.880859 7.6582031 A 8.9999925 9.0000023 0 0 0 8 3 z M 8 5 A 2.9999996 3.0000002 0 0 1 11 8 A 2.9999996 3.0000002 0 0 1 8 11 A 2.9999996 3.0000002 0 0 1 5 8 A 2.9999996 3.0000002 0 0 1 8 5 z M 8 6 A 1.9999999 2.0000003 0 0 0 6 8 A 1.9999999 2.0000003 0 0 0 8 10 A 1.9999999 2.0000003 0 0 0 10 8 A 1.9999999 2.0000003 0 0 0 9.9101562 7.4121094 A 0.9999999 1 0 0 1 9 8 A 0.9999999 1 0 0 1 8 7 A 0.9999999 1 0 0 1 8.5898438 6.0898438 A 1.9999999 2.0000003 0 0 0 8 6 z "
         transform="matrix(1.3333333,0,0,1.3333367,0.33333333,1030.6955)"
     class="ColorScheme-Text"
         id="rect4170" />
    </g>
  </g>
</svg>
