<svg xmlns="http://www.w3.org/2000/svg" viewBox="0 0 16 16">
  <defs id="defs3051">
    <style type="text/css" id="current-color-scheme">
      .ColorScheme-Text {
        color:#232629;
      }
      </style>
  </defs>
 <path style="fill:currentColor;fill-opacity:1;stroke:none" 
       d="M 2 2 L 2 14 L 14 14 L 14 2 L 12 2 L 12 4 L 10 4 L 10 2 L 6 2 L 6 4 L 4 4 L 4 2 L 2 2 z M 3 5 L 13 5 L 13 13 L 3 13 L 3 5 z M 7 6.5 A 2.5 2.5 0 0 0 4.5 9 A 2.5 2.5 0 0 0 7 11.5 A 2.5 2.5 0 0 0 8.0019531 11.289062 A 2.5 2.5 0 0 0 9 11.5 A 2.5 2.5 0 0 0 11.5 9 A 2.5 2.5 0 0 0 9 6.5 A 2.5 2.5 0 0 0 7.9980469 6.7109375 A 2.5 2.5 0 0 0 7 6.5 z M 7 7.5 A 1.5 1.5 0 0 1 7.0019531 7.5 A 2.5 2.5 0 0 0 6.5 9 A 2.5 2.5 0 0 0 7.0039062 10.5 A 1.5 1.5 0 0 1 7 10.5 A 1.5 1.5 0 0 1 5.5 9 A 1.5 1.5 0 0 1 7 7.5 z M 8.9960938 7.5 A 1.5 1.5 0 0 1 9 7.5 A 1.5 1.5 0 0 1 10.5 9 A 1.5 1.5 0 0 1 9 10.5 A 1.5 1.5 0 0 1 8.9980469 10.5 A 2.5 2.5 0 0 0 9.5 9 A 2.5 2.5 0 0 0 8.9960938 7.5 z M 8 7.8847656 A 1.5 1.5 0 0 1 8.5 9 A 1.5 1.5 0 0 1 8 10.115234 A 1.5 1.5 0 0 1 7.5 9 A 1.5 1.5 0 0 1 8 7.8847656 z "
     class="ColorScheme-Text"
     />
</svg>
