<svg xmlns="http://www.w3.org/2000/svg" viewBox="0 0 16 16">
  <defs id="defs3051">
    <style type="text/css" id="current-color-scheme">
      .ColorScheme-Text {
        color:#232629;
      }
      </style>
  </defs>
 <path style="fill:currentColor;fill-opacity:1;stroke:none" 
       d="M 2 2 L 2 7 L 7 7 L 7 2 L 2 2 z M 9 2 L 9 7 L 14 7 L 14 2 L 9 2 z M 3 3 L 6 3 L 6 6 L 3 6 L 3 3 z M 2 9 L 2 14 L 7 14 L 7 9 L 2 9 z M 9 9 L 9 14 L 14 14 L 14 9 L 9 9 z M 10 10 L 13 10 L 13 13 L 10 13 L 10 10 z "
     class="ColorScheme-Text"
     />
</svg>
