<svg xmlns="http://www.w3.org/2000/svg" viewBox="0 0 16 16">
  <defs id="defs3051">
    <style type="text/css" id="current-color-scheme">
      .ColorScheme-Text {
        color:#232629;
      }
      </style>
  </defs>
 <path style="fill:currentColor;fill-opacity:1;stroke:none" 
     d="M 4.5 2 A 0.5 0.50001502 0 0 0 4 2.5 A 0.5 0.50001502 0 0 0 4.5 3 A 0.5 0.50001502 0 0 0 5 2.5 A 0.5 0.50001502 0 0 0 4.5 2 z M 7.5 2 A 0.5 0.5 0 0 0 7 2.5 A 0.5 0.5 0 0 0 7.5 3 A 0.5 0.5 0 0 0 8 2.5 A 0.5 0.5 0 0 0 7.5 2 z M 10.5 2 A 0.5 0.50001502 0 0 0 10 2.5 A 0.5 0.50001502 0 0 0 10.5 3 A 0.5 0.50001502 0 0 0 11 2.5 A 0.5 0.50001502 0 0 0 10.5 2 z M 4 4 L 4 6 L 2 6 L 2 14 L 14 14 L 14 10.882812 L 14 9.8652344 L 14 6 L 11 6 L 11 4 L 10 4 L 10 6 L 8 6 L 8 4 L 7 4 L 7 6 L 5 6 L 5 4 L 4 4 z M 3 7 L 13 7 L 13 10 A 2 1 0 0 1 11 9 L 11 8 L 10 8 L 10 9 A 2 1 0 0 1 8 10 A 2 1 0 0 1 6 9 L 6 8 L 5 8 L 5 9 A 2 1 0 0 1 3 10 L 3 7 z M 5.5 10.103516 A 3 2 0 0 0 8 11 A 3 2 0 0 0 10.5 10.103516 A 3 2 0 0 0 13 11 L 13 13 L 3 13 L 3 11 A 3 2 0 0 0 5.5 10.103516 z "
     class="ColorScheme-Text"
     />
</svg>
