<svg xmlns="http://www.w3.org/2000/svg" viewBox="0 0 24 24">
  <defs id="defs3051">
    <style type="text/css" id="current-color-scheme">
      .ColorScheme-Text {
        color:#eff0f1;
      }
      </style>
  </defs><g transform="translate(1,1)">
    <path
       style="fill:currentColor;fill-opacity:1;stroke:none" 
       d="M 3 3.0019531 L 3 19 L 19 19 L 19 3.0019531 L 3 3.0019531 z M 4 4 L 18 4 L 18 18 L 4 18 L 4 4 z M 10.898438 5.5039062 C 9.6042556 5.5279065 8.3182667 6.0036341 7.3007812 6.9277344 C 5.2658109 8.775735 4.9123412 11.865153 6.4746094 14.126953 C 8.0368776 16.388753 11.051478 17.149791 13.5 15.900391 C 15.689334 14.783333 16.832231 12.354748 16.398438 10 L 14.341797 10 C 14.342579 10.002612 14.342974 10.0052 14.34375 10.007812 L 11 10.007812 L 11 12.007812 L 14.335938 12.007812 C 14.072956 12.892773 13.471913 13.669053 12.589844 14.119141 C 11.020455 14.919941 9.1205424 14.440037 8.1191406 12.990234 C 7.1177389 11.540434 7.3421217 9.5928037 8.6464844 8.4082031 C 9.9508467 7.2237028 11.909227 7.1880182 13.255859 8.3242188 L 14.546875 6.7949219 C 13.496412 5.9086216 12.192617 5.4804062 10.898438 5.5039062 z "
       class="ColorScheme-Text"
        />
</g></svg>
