<svg viewBox="0 0 24 24" xmlns="http://www.w3.org/2000/svg"><style type="text/css" id="current-color-scheme">.ColorScheme-Text{color:#eff0f1;}.ColorScheme-NegativeText{color:#da4453;}</style><g transform="translate(1,1)"><path d="m11 3c-1.385 0-2.5 1.115-2.5 2.5v1.0917969l4.992188 4.9902341c.000908-.027831.007812-.053971.007812-.082031v-6c0-1.385-1.115-2.5-2.5-2.5zm-5.5 7v1c.0009163 2.235554 1.6341118 4.198898 4 4.808594v2.191406h-2v1h7v-1h-2v-2.193359c.359986-.09277.696636-.225313 1.019531-.376953l-.751953-.751954c-.542799.206376-1.13986.322266-1.767578.322266-2.4852814 0-4.5-1.790861-4.5-4v-1zm10 0v1c0 .723829-.23306 1.392777-.611328 1.978516l.71875.71875c.558683-.787154.89175-1.711219.892578-2.697266v-1zm-7 .408203v1.091797c0 1.385 1.115 2.5 2.5 2.5.323798 0 .630577-.064693.914062-.175781z" style="fill:currentColor;fill-opacity:1;stroke:none" class="ColorScheme-Text"/><path d="m-.5 4.7426407h1v21.6274173h-1z" style="fill:currentColor;fill-opacity:1;stroke:none" class="ColorScheme-NegativeText" transform="matrix(.70710678 -.70710678 .70710678 .70710678 0 0)"/></g></svg>