<svg viewBox="0 0 24 24" xmlns="http://www.w3.org/2000/svg">
    <style id="current-color-scheme" type="text/css">.ColorScheme-Text{color:#eff0f1;}.ColorScheme-NegativeText{color:#da4453;}</style><g transform="translate(1,1)">
    <path class="ColorScheme-Text" d="m7.5 3c-1.385 0-2.5 1.115-2.5 2.5v6c0 1.385 1.115 2.5 2.5 2.5s2.5-1.115 2.5-2.5v-6c0-1.385-1.115-2.5-2.5-2.5zm-5.5 7v1c.0009163 2.235554 1.6341118 4.198898 4 4.808594v2.191406h-2v1h7v-1h-2v-2.193359c1.574103-.405651 2.810226-1.417484 3.470703-2.703125a5 5 0 0 1 -.470703-2.103516c0 2.209139-2.0147186 4-4.5 4s-4.5-1.790861-4.5-4v-1z" fill="currentColor"/>
    <path class="ColorScheme-NegativeText" d="m21 11a4 4 0 0 0-4-4 4 4 0 0 0-2.449219 0.84375l-0.0039-0.0039-0.0332 0.0332a4 4 0 0 0-0.66211 0.662109l-0.01172 0.01172 2e-3 2e-3a4 4 0 0 0-0.841851 2.451121 4 4 0 0 0 4 4 4 4 0 0 0 2.449219-0.84375l0.0039 0.0039 0.0332-0.0332a4 4 0 0 0 0.662119-0.662106l0.01172-0.01172-2e-3 -2e-3a4 4 0 0 0 0.841793-2.451124zm-1 0a3 3 0 0 1-0.556641 1.736328l-4.177734-4.177734a3 3 0 0 1 1.734375-0.558594 3 3 0 0 1 3 3zm-1.265625 2.441406a3 3 0 0 1-1.734375 0.558594 3 3 0 0 1-3-3 3 3 0 0 1 0.556641-1.736328z" fill="currentColor"/>
</g></svg>
