<svg xmlns="http://www.w3.org/2000/svg" viewBox="0 0 24 24">
  <defs id="defs3051">
    <style type="text/css" id="current-color-scheme">
      .ColorScheme-Text {
        color:#eff0f1;
      }
      </style>
  </defs><g transform="translate(1,1)">
  <path
     d="m 18.765624,12.513674 a 2,2 0 0 0 -1.767578,1.896484 2,2 0 0 0 0,0.08984 l 1,0 a 1,1 0 0 1 0.882812,-0.994141 l 0.115235,0 0,-0.992187 -0.230469,0 z m 0.232422,0.002 0,1 a 1,1 0 0 1 0.994141,0.882813 l 0,0.115234 0.0059,0 a 1,1 0 0 1 -0.882813,0.99414 l -0.115275,-4.7e-5 0,-0.0078 a 2,2 0 0 0 -0.199219,0.002 2,2 0 0 0 -0.800781,0.218703 l 0,-0.207031 -0.002,0 0,2 1,0 0,-1.013672 0.002,0 0.230469,0 a 2,2 0 0 0 1.767578,-1.896484 2,2 0 0 0 0,-0.08984 l -0.01367,0 0,-0.230469 a 2,2 0 0 0 -1.896484,-1.767578 2,2 0 0 0 -0.08984,0 z m -0.998047,5.984328 0,1 1,0 0,-1 -1,0 z"
     style="fill:#fdbc4b;fill-opacity:1;stroke:none" />
    <path
       style="opacity:0.5;fill:currentColor;fill-opacity:1;stroke:none"
       d="M 11 2.5 C 6.845 2.5 3.0940625 4.1715625 0.3828125 6.8828125 L 1.0917969 7.5917969 C 3.6222969 5.0612969 7.122 3.5 11 3.5 C 14.878 3.5 18.377703 5.0612969 20.908203 7.5917969 L 21.617188 6.8828125 C 18.905938 4.1715625 15.155 2.5 11 2.5 z M 11 6.5 C 7.953 6.5 5.2030936 7.7265937 3.2148438 9.7148438 L 3.921875 10.421875 C 5.729375 8.614365 8.23 7.5 11 7.5 C 13.77 7.5 16.270615 8.614365 18.078125 10.421875 L 18.785156 9.7148438 C 16.796906 7.7265936 14.047 6.5 11 6.5 z M 11 10.5 C 9.061 10.5 7.3101719 11.279672 6.0449219 12.544922 L 6.7539062 13.253906 C 7.8384063 12.169406 9.338 11.5 11 11.5 C 12.662 11.5 14.161594 12.169406 15.246094 13.253906 L 15.955078 12.544922 C 14.689828 11.279672 12.939 10.5 11 10.5 z M 11 14.5 C 9.892004 14.5 9 15.392004 9 16.5 C 9 17.607996 9.892004 18.5 11 18.5 C 12.107996 18.5 13 17.607996 13 16.5 C 13 15.392004 12.107996 14.5 11 14.5 z M 11 15.5 C 11.554 15.5 12 15.946 12 16.5 C 12 17.054 11.554 17.5 11 17.5 C 10.446 17.5 10 17.054 10 16.5 C 10 15.946 10.446 15.5 11 15.5 z "
          class="ColorScheme-Text"/>
</g></svg>
