<svg xmlns="http://www.w3.org/2000/svg" viewBox="0 0 24 24">
  <defs id="defs3051">
    <style type="text/css" id="current-color-scheme">
      .ColorScheme-Text {
        color:#eff0f1;
      }
      .ColorScheme-Highlight {
        color:#3daee9;
      }
      </style>
  </defs><g transform="translate(1,1)">
  <g
     transform="translate(-421.71429,-525.79074)">
    <path
       style="opacity:1;fill:currentColor;fill-opacity:1;stroke:none"
       d="m 432.71439,529.79077 a 6,6 0 0 0 -6,6 6,6 0 0 0 0.004,0.12891 4,4 0 0 0 -3.00391,3.87109 4,4 0 0 0 4,4 l 9,0 a 5,5 0 0 0 5,-5 5,5 0 0 0 -3.24219,-4.67578 6,6 0 0 0 -5.75781,-4.32422 z m 0,1 a 5,5 0 0 1 4.91992,4.11133 4.0000019,4.0000019 0 0 1 3.08008,3.88867 4.0000019,4.0000019 0 0 1 -4,4 l -9,0 a 2.9999979,2.9999979 0 0 1 -3,-3 2.9999979,2.9999979 0 0 1 3,-3 2.9999979,2.9999979 0 0 1 0.10742,0.006 5,5 0 0 1 -0.10742,-1.00586 5,5 0 0 1 5,-5 z"
       id="path4196-4"
       class="ColorScheme-Text" />
    <path
       style="fill:currentColor;fill-opacity:1;stroke:none"
        class="ColorScheme-Highlight"
       d="m 441.71429,540.29071 a 4.5,4.5 0 0 1 -4.5,4.5 4.5,4.5 0 0 1 -4.5,-4.5 4.5,4.5 0 0 1 4.5,-4.5 4.5,4.5 0 0 1 4.5,4.5 z"
       id="path4509" />
    <path
       style="opacity:1;fill:#ffffff"
       d="M 15 11.992188 L 15 12.992188 L 16 12.992188 L 16 11.992188 L 15 11.992188 z M 15 13.992188 L 15 16.992188 L 16 16.992188 L 16 13.992188 L 15 13.992188 z "
       transform="translate(421.71429,525.79074)"
       id="rect4241" />
  </g>
</g></svg>
