<svg height="24" width="24" xmlns="http://www.w3.org/2000/svg">
  <defs>
    <style id="current-color-scheme" type="text/css">
      .ColorScheme-Text {
        color:#eff0f1;
      }
    </style>
  </defs><g transform="translate(1,1)">
  <path
    class="ColorScheme-Text"
    style="fill:currentColor;stroke:none"
    d="m18.026417 4.3155664-14.6859275 5.6240858s-.3576057.1786738-.3398495.4906248c.017756.311952.3398495.480572.3398495.480572l3.8388926 1.351228 1.3111363 4.152164s.1245697.523257.6171145.674726c.492546.15147.9232661-.258505.9232661-.258505l1.757566-1.813707 3.404529 2.531542s.313692.22862.65959.199066c.345897-.02956.53491-.484593.53491-.484593l2.588086-12.2636053s.125112-.4491081-.19104-.6534958c-.240693-.1960107-.758123-.030103-.758123-.030102zm-1.769631 2.280198c.08403.083749-.06234.231237-.06234.231237-2.29553 2.1149087-4.589001 4.2320706-6.8854742 6.3459476-.085025.08182-.1100605.166792-.122668.287538l-.1367426 1.325089-.9672651-3.104608 7.9211109-5.1093326s.169354-.05962.253379.024129zm-6.073053 7.2266596.772204.575075-.931069.963154z"/>
</g></svg>