<svg xmlns="http://www.w3.org/2000/svg" width="24" height="24">
  <defs>
    <style id="current-color-scheme" type="text/css">
      .ColorScheme-Text {
        color:#eff0f1;
      }
      .ColorScheme-Highlight {
        color:#3daee9;
      }
    </style>
  </defs><g transform="translate(1,1)">
  <path
    class="ColorScheme-Text"
    style="fill:currentColor;stroke:none"
    d="M 18.314453 4.2578125 C 18.155009 4.2747882 18.027344 4.316406 18.027344 4.3164062 L 3.3398438 9.9394531 C 3.3398438 9.9394531 2.9822438 10.117737 3 10.429688 C 3.017756 10.741639 3.3398438 10.910156 3.3398438 10.910156 L 7.1796875 12.261719 L 8.4902344 16.414062 C 8.4902344 16.414062 8.6148771 16.938375 9.1074219 17.089844 C 9.5999679 17.241314 10.03125 16.830078 10.03125 16.830078 L 11.789062 15.017578 L 12.142578 15.28125 A 3.9999875 3.9999875 0 0 1 16 12 A 3.9999875 3.9999875 0 0 1 17.439453 12.277344 L 18.974609 5 C 18.974609 5 19.101308 4.5500908 18.785156 4.3457031 C 18.66481 4.2476978 18.473897 4.2408368 18.314453 4.2578125 z M 16.097656 6.5527344 C 16.150498 6.548298 16.213847 6.5538286 16.255859 6.5957031 C 16.339889 6.6794521 16.195312 6.8261719 16.195312 6.8261719 C 13.899783 8.9410806 11.605067 11.059951 9.3085938 13.173828 C 9.2235688 13.255648 9.1981544 13.340191 9.1855469 13.460938 L 9.0488281 14.785156 L 8.0820312 11.681641 L 16.003906 6.5722656 C 16.003906 6.5722656 16.044815 6.5571708 16.097656 6.5527344 z M 10.183594 13.822266 L 10.955078 14.398438 L 10.025391 15.361328 L 10.183594 13.822266 z"
  />
  <path
    class="ColorScheme-Highlight"
    style="fill:currentColor;stroke:none"
    d="m16 13a3 3 0 0 0-3 3 3 3 0 0 0 3 3 3 3 0 0 0 3-3 3 3 0 0 0-3-3z"
  />
</g></svg>