<?xml version="1.0" encoding="UTF-8" standalone="no"?>
<!-- Created with Inkscape (http://www.inkscape.org/) -->

<svg
   xmlns:dc="http://purl.org/dc/elements/1.1/"
   xmlns:cc="http://creativecommons.org/ns#"
   xmlns:rdf="http://www.w3.org/1999/02/22-rdf-syntax-ns#"
   xmlns:svg="http://www.w3.org/2000/svg"
   xmlns="http://www.w3.org/2000/svg"
   xmlns:sodipodi="http://sodipodi.sourceforge.net/DTD/sodipodi-0.dtd"
   xmlns:inkscape="http://www.inkscape.org/namespaces/inkscape"
   width="24"
   height="24"
   id="svg3049"
   version="1.1"
   inkscape:version="0.91 r13725"
   sodipodi:docname="user-idle.svg"
   inkscape:export-filename="/home/uri/.kde/share/icons/NITRUX-KDE/16x16/actions/view-right-new.png"
   inkscape:export-xdpi="30"
   inkscape:export-ydpi="30">
  <defs
     id="defs3051">
    <style
       type="text/css"
       id="current-color-scheme">
      .ColorScheme-Text {
        color:#eff0f1;
      }
      .ColorScheme-Background {
        color:#31363b;
      }
      .ColorScheme-Highlight {
        color:#3daee9;
      }
      .ColorScheme-ViewText {
        color:#31363b;
      }
      .ColorScheme-ViewBackground {
        color:#4f575f;
      }
      .ColorScheme-ViewHover {
        color:#93cee9;
      }
      .ColorScheme-ViewFocus{
        color:#3daee9;
      }
      .ColorScheme-ButtonText {
        color:#31363b;
      }
      .ColorScheme-ButtonBackground {
        color:#31363b;
      }
      .ColorScheme-ButtonHover {
        color:#93cee9;
      }
      .ColorScheme-ButtonFocus{
        color:#3daee9;
      }
      </style>
  </defs><g transform="translate(1,1)">
  <sodipodi:namedview
     id="base"
     pagecolor="#ffffff"
     bordercolor="#666666"
     borderopacity="1.0"
     inkscape:pageopacity="0.0"
     inkscape:pageshadow="2"
     inkscape:zoom="30.958333"
     inkscape:cx="3.9340232"
     inkscape:cy="7.1526137"
     inkscape:document-units="px"
     inkscape:current-layer="layer1"
     showgrid="true"
     fit-margin-top="0"
     fit-margin-left="0"
     fit-margin-right="0"
     fit-margin-bottom="0"
     inkscape:window-width="1920"
     inkscape:window-height="1021"
     inkscape:window-x="0"
     inkscape:window-y="30"
     inkscape:window-maximized="1"
     inkscape:showpageshadow="false"
     borderlayer="true">
    <sodipodi:guide
       position="1.9999956,20"
       orientation="18,0"
       id="guide4067" />
    <sodipodi:guide
       position="1.9999956,2.0000004"
       orientation="0,18"
       id="guide4069" />
    <sodipodi:guide
       position="19.999996,2.0000004"
       orientation="-18,0"
       id="guide4071" />
    <sodipodi:guide
       position="19.999996,20"
       orientation="0,-18"
       id="guide4073" />
    <sodipodi:guide
       position="2.9999956,19"
       orientation="16,0"
       id="guide4077" />
    <sodipodi:guide
       position="2.9999956,3.0000004"
       orientation="0,16"
       id="guide4079" />
    <sodipodi:guide
       position="18.999996,3.0000004"
       orientation="-16,0"
       id="guide4081" />
    <sodipodi:guide
       position="18.999996,19"
       orientation="0,-16"
       id="guide4083" />
    <inkscape:grid
       type="xygrid"
       id="grid4085"
       originx="-8.8635937e-06"
       originy="-2.9100781e-05" />
  </sodipodi:namedview>
  <metadata
     id="metadata3054">
    <rdf:RDF>
      <cc:Work
         rdf:about="">
        <dc:format>image/svg+xml</dc:format>
        <dc:type
           rdf:resource="http://purl.org/dc/dcmitype/StillImage" />
        <dc:title />
      </cc:Work>
    </rdf:RDF>
  </metadata>
  <g
     inkscape:label="Capa 1"
     inkscape:groupmode="layer"
     id="layer1"
     transform="translate(-421.71429,-525.79071)">
    <path
       style="opacity:1;fill:#9b59b6;fill-opacity:1;stroke:none"
       d="M 11 3 A 3.9999902 4.0000296 0 0 0 7 7 A 3.9999902 4.0000296 0 0 0 11 11 A 3.9999902 4.0000296 0 0 0 15 7 A 3.9999902 4.0000296 0 0 0 11 3 z M 11 4 A 3 3.0000296 0 0 1 14 7 A 3 3.0000296 0 0 1 11 10 A 3 3.0000296 0 0 1 8 7 A 3 3.0000296 0 0 1 11 4 z M 11 12 A 7.9999504 8.0000296 0 0 0 3.0722656 19 L 4.0800781 19 A 6.9999604 7.0000296 0 0 1 11 13 A 6.9999604 7.0000296 0 0 1 12 13.080078 L 12 12.070312 A 7.9999504 8.0000296 0 0 0 11 12 z M 15.5 12 A 3.4999852 3.4999852 0 0 0 12 15.5 A 3.4999852 3.4999852 0 0 0 15.5 19 A 3.4999852 3.4999852 0 0 0 19 15.5 A 3.4999852 3.4999852 0 0 0 15.5 12 z "
       transform="translate(421.71429,525.79071)"
       id="path4152" />
    <path
       transform="matrix(0,1,-1,0,0,0)"
       style="opacity:0.7;fill:#ffffff;fill-opacity:1;stroke:none"
       d="m 541.79071,-435.21429 a 0.5,0.5 0 0 1 -0.5,0.5 0.5,0.5 0 0 1 -0.5,-0.5 0.5,0.5 0 0 1 0.5,-0.5 0.5,0.5 0 0 1 0.5,0.5 z"
       id="circle4207" />
    <path
       style="opacity:0.4;fill:#ffffff;fill-opacity:1;stroke:none"
       d="m 437.71429,541.29071 a 0.5,0.5 0 0 1 -0.5,0.5 0.5,0.5 0 0 1 -0.5,-0.5 0.5,0.5 0 0 1 0.5,-0.5 0.5,0.5 0 0 1 0.5,0.5 z"
       id="path4188-7" />
    <path
       style="opacity:0.3;fill:#ffffff;fill-opacity:1;stroke:none"
       d="m 439.71429,541.29071 a 0.5,0.5 0 0 1 -0.5,0.5 0.5,0.5 0 0 1 -0.5,-0.5 0.5,0.5 0 0 1 0.5,-0.5 0.5,0.5 0 0 1 0.5,0.5 z"
       id="path4188-0" />
  </g>
</g></svg>
