<svg viewBox="0 0 16 16" xmlns="http://www.w3.org/2000/svg"><style type="text/css" id="current-color-scheme">.ColorScheme-Text{color:#232629;}.ColorScheme-NegativeText{color:#da4453;}</style><path d="m8 2c-1.1026347 0-1.9894657.8838379-1.9980469 1.984375l3.9980469 4v-3.984375c0-1.108-.892-2-2-2zm-4 5v1c0 1.847 1.286 3.405469 3 3.855469v1.144531h-1v1h4v-1h-1v-1.144531c.21425-.056375.4218945-.129343.6210938-.21875l-.7753907-.775391c-.2704148.081147-.5504447.138672-.8457031.138672-1.645 0-3-1.355-3-3v-.984375l-.015625-.015625zm7 0v1c0 .2952584-.057525.5752883-.138672.8457031l.773438.7734375c.226351-.4969318.365234-1.040725.365234-1.6191406v-1zm-4.9980469 1.0175781c.0095797 1.0936005.8868683 1.9708891 1.9804688 1.9804688z" style="fill:currentColor;fill-opacity:1;stroke:none" class="ColorScheme-Text"/><path d="m-.5 3.3284271h1v15.9705629h-1z" style="fill:currentColor;fill-opacity:1;stroke:none" class="ColorScheme-NegativeText" transform="matrix(.70710678 -.70710678 .70710678 .70710678 0 0)"/></svg>