<svg xmlns="http://www.w3.org/2000/svg" viewBox="0 0 32 32">
  <defs
     id="defs3051">
    <style
       type="text/css"
       id="current-color-scheme">
      .ColorScheme-Text {
        color:#eff0f1;
      }
      </style>
  </defs>
  <path
     style="fill:currentColor;fill-opacity:1;stroke:none" 
     d="M 6 4 L 6 16 L 7 16 L 7 5 L 25 5 L 25 16 L 26 16 L 26 4 L 6 4 z M 9 17 L 9 19 L 11 19 L 11 17 L 9 17 z M 15 17 L 15 19 L 17 19 L 17 17 L 15 17 z M 21 17 L 21 19 L 23 19 L 23 17 L 21 17 z M 6 20 L 6 22 L 8 22 L 8 20 L 6 20 z M 12 20 L 12 22 L 14 22 L 14 20 L 12 20 z M 18 20 L 18 22 L 20 22 L 20 20 L 18 20 z M 24 20 L 24 22 L 26 22 L 26 20 L 24 20 z M 9 23 L 9 25 L 11 25 L 11 23 L 9 23 z M 15 23 L 15 25 L 17 25 L 17 23 L 15 23 z M 21 23 L 21 25 L 23 25 L 23 23 L 21 23 z M 6 26 L 6 28 L 8 28 L 8 26 L 6 26 z M 12 26 L 12 28 L 14 28 L 14 26 L 12 26 z M 18 26 L 18 28 L 20 28 L 20 26 L 18 26 z M 24 26 L 24 28 L 26 28 L 26 26 L 24 26 z "
     id="path38" 
     class="ColorScheme-Text"
     />
</svg>
