<svg xmlns="http://www.w3.org/2000/svg" viewBox="0 0 32 32">
  <defs
     id="defs3051">
    <style
       type="text/css"
       id="current-color-scheme">
      .ColorScheme-Text {
        color:#eff0f1;
      }
      </style>
  </defs>
  <path
     style="fill:currentColor;fill-opacity:1;stroke:none" 
     d="M 6 4 L 6 6 L 8 6 L 8 4 L 6 4 z M 12 4 L 12 6 L 14 6 L 14 4 L 12 4 z M 18 4 L 18 6 L 20 6 L 20 4 L 18 4 z M 24 4 L 24 6 L 26 6 L 26 4 L 24 4 z M 9 7 L 9 9 L 11 9 L 11 7 L 9 7 z M 15 7 L 15 9 L 17 9 L 17 7 L 15 7 z M 21 7 L 21 9 L 23 9 L 23 7 L 21 7 z M 6 10 L 6 12 L 8 12 L 8 10 L 6 10 z M 12 10 L 12 12 L 14 12 L 14 10 L 12 10 z M 18 10 L 18 12 L 20 12 L 20 10 L 18 10 z M 24 10 L 24 12 L 26 12 L 26 10 L 24 10 z M 9 13 L 9 15 L 11 15 L 11 13 L 9 13 z M 15 13 L 15 15 L 17 15 L 17 13 L 15 13 z M 21 13 L 21 15 L 23 15 L 23 13 L 21 13 z M 6 15 L 6 28 L 19 28 L 26 21 L 26 15 L 25 15 L 25 20 L 18 20 L 18 27 L 7 27 L 7 15 L 6 15 z "
     id="path52" 
     class="ColorScheme-Text"
     />
</svg>
