<svg xmlns="http://www.w3.org/2000/svg" viewBox="0 0 16 128">
  <defs id="defs3051">
    <style type="text/css" id="current-color-scheme">
      .ColorScheme-Text {
        color:#4d4d4d;
      }
      </style>
  </defs>
  <g
      transform="translate(-424.71428,-568.81881)" >
    <path
       style="opacity:1;fill:currentColor;fill-opacity:1;stroke:none"
       d="m 432.71429,681.81882 a 7,7 0 0 0 -7,7 7,7 0 0 0 0.84375,3.32812 l 0.74609,-0.74609 a 6,6 0 0 1 -0.58984,-2.58203 6,6 0 0 1 6,-6 6,6 0 0 1 2.58008,0.5918 l 0.74414,-0.74414 a 7,7 0 0 0 -3.32422,-0.84766 z m 6.15625,3.67188 -0.74609,0.74609 a 6,6 0 0 1 0.58984,2.58203 6,6 0 0 1 -6,6 6,6 0 0 1 -2.58008,-0.5918 l -0.74414,0.74414 a 7,7 0 0 0 3.32422,0.84766 7,7 0 0 0 7,-7 7,7 0 0 0 -0.84375,-3.32812 z"
       class="ColorScheme-Text" />
    <path
       style="opacity:1;fill:currentColor;fill-opacity:1;stroke:none"
       d="m 437.66404,677.76857 a 7,7 0 0 0 0,-9.8995 7,7 0 0 0 -2.94996,-1.75671 l 0,1.05513 a 6,6 0 0 1 2.24285,1.40869 6,6 0 0 1 0,8.48528 6,6 0 0 1 -2.24286,1.40593 l 0,1.05237 a 7,7 0 0 0 2.94997,-1.75119 z m -6.94954,1.75671 0,-1.05513 a 6,6 0 0 1 -2.24285,-1.40869 6,6 0 0 1 0,-8.48528 6,6 0 0 1 2.24286,-1.40593 l 0,-1.05237 a 7,7 0 0 0 -2.94997,1.75119 7,7 0 0 0 0,9.8995 7,7 0 0 0 2.94996,1.75671 z"
       class="ColorScheme-Text" />
    <path
       style="opacity:1;fill:currentColor;fill-opacity:1;stroke:none"
       d="m 432.71429,649.81882 a 7,7 0 0 1 7,7 7,7 0 0 1 -0.84375,3.32812 l -0.74609,-0.74609 a 6,6 0 0 0 0.58984,-2.58203 6,6 0 0 0 -6,-6 6,6 0 0 0 -2.58008,0.5918 l -0.74414,-0.74414 a 7,7 0 0 1 3.32422,-0.84766 z m -6.15625,3.67188 0.74609,0.74609 a 6,6 0 0 0 -0.58984,2.58203 6,6 0 0 0 6,6 6,6 0 0 0 2.58008,-0.5918 l 0.74414,0.74414 a 7,7 0 0 1 -3.32422,0.84766 7,7 0 0 1 -7,-7 7,7 0 0 1 0.84375,-3.32812 z"
       class="ColorScheme-Text" />
    <path
       d="m 427.76454,645.76856 a 7,7 0 0 0 9.89949,0 7,7 0 0 0 1.75671,-2.94995 l -1.05512,0 a 6,6 0 0 1 -1.40869,2.24285 6,6 0 0 1 -8.48528,0 6,6 0 0 1 -1.40593,-2.24286 l -1.05237,0 a 7,7 0 0 0 1.75119,2.94996 z m -1.75671,-6.94953 1.05512,0 a 6,6 0 0 1 1.40869,-2.24285 6,6 0 0 1 8.48528,0 6,6 0 0 1 1.40593,2.24286 l 1.05237,0 a 7,7 0 0 0 -1.75119,-2.94996 7,7 0 0 0 -9.89949,0 7,7 0 0 0 -1.75671,2.94995 z"
       class="ColorScheme-Text"
       style="opacity:1;fill:currentColor;fill-opacity:1;stroke:none" />
    <path
       style="opacity:1;fill:currentColor;fill-opacity:1;stroke:none"
       d="m 432.71429,617.81882 a 7,7 0 0 0 -7,7 7,7 0 0 0 0.84375,3.32812 l 0.74609,-0.74609 a 6,6 0 0 1 -0.58984,-2.58203 6,6 0 0 1 6,-6 6,6 0 0 1 2.58008,0.5918 l 0.74414,-0.74414 a 7,7 0 0 0 -3.32422,-0.84766 z m 6.15624,3.67188 -0.74609,0.74609 a 6,6 0 0 1 0.58984,2.58203 6,6 0 0 1 -5.99999,6 6,6 0 0 1 -2.58008,-0.5918 l -0.74414,0.74414 a 7,7 0 0 0 3.32422,0.84766 7,7 0 0 0 6.99999,-7 7,7 0 0 0 -0.84375,-3.32812 z"
       class="ColorScheme-Text" />
    <path
       style="opacity:1;fill:currentColor;fill-opacity:1;stroke:none"
       d="m 437.66403,613.76857 a 7,7 0 0 0 0,-9.8995 7,7 0 0 0 -2.94995,-1.75671 l 0,1.05513 a 6,6 0 0 1 2.24284,1.40869 6,6 0 0 1 0,8.48528 6,6 0 0 1 -2.24285,1.40593 l 0,1.05237 a 7,7 0 0 0 2.94996,-1.75119 z m -6.94953,1.75671 0,-1.05513 a 6,6 0 0 1 -2.24285,-1.40869 6,6 0 0 1 0,-8.48528 6,6 0 0 1 2.24286,-1.40593 l 0,-1.05237 a 7,7 0 0 0 -2.94997,1.75119 7,7 0 0 0 0,9.8995 7,7 0 0 0 2.94996,1.75671 z"
       class="ColorScheme-Text" />
    <path
       style="opacity:1;fill:currentColor;fill-opacity:1;stroke:none"
       d="m 432.71429,585.81882 a 7,7 0 0 1 6.99999,7 7,7 0 0 1 -0.84375,3.32812 l -0.74609,-0.74609 a 6,6 0 0 0 0.58984,-2.58203 6,6 0 0 0 -5.99999,-6 6,6 0 0 0 -2.58008,0.5918 l -0.74414,-0.74414 a 7,7 0 0 1 3.32422,-0.84766 z m -6.15625,3.67188 0.74609,0.74609 a 6,6 0 0 0 -0.58984,2.58203 6,6 0 0 0 6,6 6,6 0 0 0 2.58008,-0.5918 l 0.74414,0.74414 a 7,7 0 0 1 -3.32422,0.84766 7,7 0 0 1 -7,-7 7,7 0 0 1 0.84375,-3.32812 z"
       class="ColorScheme-Text" />
    <path
       style="opacity:1;fill:currentColor;fill-opacity:1;stroke:none"
       d="m 427.76454,581.76856 a 7,7 0 0 0 9.89948,0 7,7 0 0 0 1.75671,-2.94995 l -1.05511,0 a 6,6 0 0 1 -1.4087,2.24285 6,6 0 0 1 -8.48527,0 6,6 0 0 1 -1.40593,-2.24286 l -1.05237,0 a 7,7 0 0 0 1.75119,2.94996 z m -1.75671,-6.94953 1.05512,0 a 6,6 0 0 1 1.40869,-2.24285 6,6 0 0 1 8.48527,0 6,6 0 0 1 1.40594,2.24286 l 1.05237,0 a 7,7 0 0 0 -1.7512,-2.94996 7,7 0 0 0 -9.89948,0 7,7 0 0 0 -1.75671,2.94995 z"
       class="ColorScheme-Text" />
  </g>
</svg>
