<svg xmlns="http://www.w3.org/2000/svg" viewBox="0 0 24 24">
  <defs id="defs3051">
    <style type="text/css" id="current-color-scheme">
      .ColorScheme-Text {
        color:#eff0f1;
      }
      </style>
  </defs><g transform="translate(1,1)">
    <path
       style="opacity:1;fill:currentColor;fill-opacity:1;stroke:none" 
       d="M 3 3.5 L 3 18.5 L 4 18.5 L 6 18.5 L 16 18.5 L 18 18.5 L 19 18.5 L 19 3.5 L 18 3.5 L 16 3.5 L 6 3.5 L 4 3.5 L 3 3.5 z M 4 4.5 L 5 4.5 L 5 5.5 L 4 5.5 L 4 4.5 z M 6 4.5 L 16 4.5 L 16 10 L 6 10 L 6 4.5 z M 17 4.5 L 18 4.5 L 18 5.5 L 17 5.5 L 17 4.5 z M 4 7.5 L 5 7.5 L 5 8.5 L 4 8.5 L 4 7.5 z M 17 7.5 L 18 7.5 L 18 8.5 L 17 8.5 L 17 7.5 z M 4 10.5 L 5 10.5 L 5 11.5 L 4 11.5 L 4 10.5 z M 17 10.5 L 18 10.5 L 18 11.5 L 17 11.5 L 17 10.5 z M 6 12 L 16 12 L 16 17.5 L 6 17.5 L 6 12 z M 4 13.5 L 5 13.5 L 5 14.5 L 4 14.5 L 4 13.5 z M 17 13.5 L 18 13.5 L 18 14.5 L 17 14.5 L 17 13.5 z M 4 16.5 L 5 16.5 L 5 17.5 L 4 17.5 L 4 16.5 z M 17 16.5 L 18 16.5 L 18 17.5 L 17 17.5 L 17 16.5 z "
        class="ColorScheme-Text"
       id="path4867" />
</g></svg>
