<svg xmlns="http://www.w3.org/2000/svg" viewBox="0 0 24 24">
  <defs id="defs3051">
    <style type="text/css" id="current-color-scheme">
      .ColorScheme-Text {
        color:#eff0f1;
      }
      </style>
  </defs><g transform="translate(1,1)">
    <path
       style="opacity:1;fill:currentColor;fill-opacity:1;stroke:none" 
       d="M 11 3 A 8.0000019 8.0000153 0 0 0 3 11 A 8.0000019 8.0000153 0 0 0 11 19 A 8.0000019 8.0000153 0 0 0 19 11 A 8.0000019 8.0000153 0 0 0 11 3 z M 11 4 A 7 7 0 0 1 18 11 A 7 7 0 0 1 11 18 A 7 7 0 0 1 4 11 A 7 7 0 0 1 11 4 z M 13 7 A 1 1 0 0 0 12 8 A 1 1 0 0 0 13 9 A 1 1 0 0 0 14 8 A 1 1 0 0 0 13 7 z M 10.5 9 A 0.5 0.5 0 0 0 10 9.5 A 0.5 0.5 0 0 0 10.5 10 A 0.5 0.5 0 0 0 11 9.5 A 0.5 0.5 0 0 0 10.5 9 z M 8 10 A 1 1 0 0 0 7 11 A 1 1 0 0 0 8 12 A 1 1 0 0 0 9 11 A 1 1 0 0 0 8 10 z M 10.5 12 A 0.5 0.5 0 0 0 10 12.5 A 0.5 0.5 0 0 0 10.5 13 A 0.5 0.5 0 0 0 11 12.5 A 0.5 0.5 0 0 0 10.5 12 z M 13 13 A 1 1 0 0 0 12 14 A 1 1 0 0 0 13 15 A 1 1 0 0 0 14 14 A 1 1 0 0 0 13 13 z "
        class="ColorScheme-Text"
       id="path4867" />
</g></svg>
