<svg xmlns="http://www.w3.org/2000/svg" viewBox="0 0 22 22">
  <defs id="defs3051">
    <style type="text/css" id="current-color-scheme">
      .ColorScheme-Text {
        color:#eff0f1;
      }
      </style>
  </defs>
    <path 
        style="fill:currentColor;fill-opacity:1;stroke:none" 
        d="M 11 3 L 11 11 L 2 11 L 2 20 L 11 20 L 19 20 L 19 3 L 11 3 z M 12 4 L 18 4 L 18 19 L 12 19 L 12 4 z M 15 5 A 1 1 0 0 0 14 6 A 1 1 0 0 0 15 7 A 1 1 0 0 0 16 6 A 1 1 0 0 0 15 5 z M 15 8 A 2 2 0 0 0 13 10 A 2 2 0 0 0 15 12 A 2 2 0 0 0 17 10 A 2 2 0 0 0 15 8 z M 15 9 A 1 1 0 0 1 16 10 A 1 1 0 0 1 15 11 A 1 1 0 0 1 14 10 A 1 1 0 0 1 15 9 z M 3 12 L 10 12 L 10 19 L 3 19 L 3 12 z M 6.5 13 C 5.1192881 13 4 14.119288 4 15.5 C 4 16.880712 5.1192881 18 6.5 18 C 7.8807119 18 9 16.880712 9 15.5 C 9 14.119288 7.8807119 13 6.5 13 z M 6.5 14 A 1.5 1.5 0 0 1 8 15.5 A 1.5 1.5 0 0 1 6.5 17 A 1.5 1.5 0 0 1 5 15.5 A 1.5 1.5 0 0 1 6.5 14 z "
        class="ColorScheme-Text"/>
</svg>
