<svg xmlns="http://www.w3.org/2000/svg" viewBox="0 0 22 22">
  <defs id="defs3051">
    <style type="text/css" id="current-color-scheme">
      .ColorScheme-Text {
        color:#eff0f1;
      }
      </style>
  </defs>
    <path 
        style="fill:currentColor;fill-opacity:1;stroke:none" 
        d="M 6 2 L 6 20 L 15 20 L 15 2 L 6 2 z M 7 3 L 14 3 L 14 5 L 7 5 L 7 3 z M 7 6 L 14 6 L 14 15.5 L 14 19 L 7 19 L 7 15.5 L 7 6 z M 7 15.5 A 0.5 0.5 0 0 0 7.5 16 A 0.5 0.5 0 0 0 8 15.5 A 0.5 0.5 0 0 0 7.5 15 A 0.5 0.5 0 0 0 7 15.5 z M 14 15.5 A 0.5 0.5 0 0 0 13.5 15 A 0.5 0.5 0 0 0 13 15.5 A 0.5 0.5 0 0 0 13.5 16 A 0.5 0.5 0 0 0 14 15.5 z M 8.5 13 A 0.5 0.5 0 0 0 8 13.5 A 0.5 0.5 0 0 0 8.5 14 A 0.5 0.5 0 0 0 9 13.5 A 0.5 0.5 0 0 0 8.5 13 z M 10.5 13 A 0.5 0.5 0 0 0 10 13.5 A 0.5 0.5 0 0 0 10.5 14 A 0.5 0.5 0 0 0 11 13.5 A 0.5 0.5 0 0 0 10.5 13 z M 12.5 13 A 0.5 0.5 0 0 0 12 13.5 A 0.5 0.5 0 0 0 12.5 14 A 0.5 0.5 0 0 0 13 13.5 A 0.5 0.5 0 0 0 12.5 13 z M 9.5 15 A 0.5 0.5 0 0 0 9 15.5 A 0.5 0.5 0 0 0 9.5 16 A 0.5 0.5 0 0 0 10 15.5 A 0.5 0.5 0 0 0 9.5 15 z M 11.5 15 A 0.5 0.5 0 0 0 11 15.5 A 0.5 0.5 0 0 0 11.5 16 A 0.5 0.5 0 0 0 12 15.5 A 0.5 0.5 0 0 0 11.5 15 z M 8.5 17 A 0.5 0.5 0 0 0 8 17.5 A 0.5 0.5 0 0 0 8.5 18 A 0.5 0.5 0 0 0 9 17.5 A 0.5 0.5 0 0 0 8.5 17 z M 10.5 17 A 0.5 0.5 0 0 0 10 17.5 A 0.5 0.5 0 0 0 10.5 18 A 0.5 0.5 0 0 0 11 17.5 A 0.5 0.5 0 0 0 10.5 17 z M 12.5 17 A 0.5 0.5 0 0 0 12 17.5 A 0.5 0.5 0 0 0 12.5 18 A 0.5 0.5 0 0 0 13 17.5 A 0.5 0.5 0 0 0 12.5 17 z "
        class="ColorScheme-Text"/>
</svg>
