<?xml version="1.0" encoding="UTF-8" standalone="no"?>

<!-- Created with Inkscape (http://www.inkscape.org/) -->
<svg width="22" version="1.1" xmlns="http://www.w3.org/2000/svg" height="22" viewBox="0 0 5.8208332 5.8208335" xmlns:inkscape="http://www.inkscape.org/namespaces/inkscape">
 <defs id="defs4"/>
 <metadata id="metadata7"/>
 <g inkscape:label="Capa 1" inkscape:groupmode="layer" id="layer1" transform="matrix(1 0 0 1 0 -291.17916)">
  <path inkscape:connector-curvature="0" style="fill:#d4dadd;fill-rule:evenodd;stroke-width:0.264583" id="path4363" d="m 2.1166665,296.20624 0.79375,-0.52916 0.79375,0.52916 0,0.1323 -1.5875,0 z"/>
  <path inkscape:connector-curvature="0" style="fill:#86cc44;fill-rule:evenodd;stroke-width:0.264583" id="path4316" d="m 2.9104165,294.08958 -2.11666673,-2.11667 4.23333343,0 z"/>
  <path inkscape:connector-curvature="0" style="fill:#ffffff;fill-opacity:0.784314;fill-rule:evenodd;stroke-width:0.264583" id="path4563" d="m 0.79374977,291.97291 0.26458333,0.26458 3.7041668,0 0.2645833,-0.26458 -0.2645833,-0.13229 -3.7041668,0 z"/>
  <path style="fill:#383a3c" id="rect4162" d="M 2.5 1.9882812 C 2.3721986 1.9882812 2.2444124 2.0387907 2.1464844 2.1367188 C 2.0470838 2.2361192 1.9985054 2.3663853 2 2.4960938 C 1.9999897 2.4974229 2 2.4986684 2 2.5 C 2 2.6522233 2.071086 2.7834453 2.1777344 2.875 L 10 10.695312 L 10 16.902344 L 8.359375 17.849609 L 6.25 19.066406 C 6.25 19.066406 6.2480469 19.068359 6.2480469 19.068359 C 6.2312391 19.079075 6.2207761 19.095576 6.2050781 19.107422 C 6.1760647 19.129211 6.1485998 19.150244 6.125 19.177734 C 6.1061089 19.199665 6.0927355 19.223547 6.078125 19.248047 C 6.0599552 19.278414 6.0427154 19.307652 6.03125 19.341797 C 6.0208828 19.372407 6.017955 19.403472 6.0136719 19.435547 C 6.0107174 19.457621 6 19.477092 6 19.5 C 6 19.511055 6.0051599 19.520378 6.0058594 19.53125 C 6.0077731 19.562678 6.0173675 19.591964 6.0253906 19.623047 C 6.0347743 19.65934 6.0437395 19.694001 6.0605469 19.726562 C 6.0644363 19.734155 6.0640446 19.742527 6.0683594 19.75 C 6.0773295 19.765537 6.0912616 19.774872 6.1015625 19.789062 C 6.1248039 19.821089 6.149637 19.849371 6.1796875 19.875 C 6.2019928 19.89413 6.2250586 19.909116 6.25 19.923828 C 6.2785179 19.940679 6.3060599 19.955811 6.3378906 19.966797 C 6.3724658 19.9789 6.4069199 19.983998 6.4433594 19.988281 C 6.4628368 19.990567 6.4798887 20 6.5 20 L 15.5 20 C 15.522908 20 15.542379 19.989283 15.564453 19.986328 C 15.596528 19.982045 15.627593 19.979117 15.658203 19.96875 C 15.692348 19.957285 15.721586 19.940045 15.751953 19.921875 C 15.776149 19.907446 15.798621 19.893605 15.820312 19.875 C 15.850363 19.849371 15.875196 19.821089 15.898438 19.789062 C 15.908736 19.774872 15.922671 19.765537 15.931641 19.75 C 15.935916 19.742595 15.935596 19.734084 15.939453 19.726562 C 15.956887 19.692788 15.967137 19.656912 15.976562 19.619141 C 15.984004 19.589565 15.992221 19.561133 15.994141 19.53125 C 15.99484 19.520378 16 19.511055 16 19.5 C 16 19.477092 15.989283 19.457621 15.986328 19.435547 C 15.982058 19.403246 15.979188 19.372616 15.96875 19.341797 C 15.957285 19.307652 15.940045 19.278414 15.921875 19.248047 C 15.907264 19.223547 15.893891 19.199665 15.875 19.177734 C 15.8514 19.150244 15.823935 19.129211 15.794922 19.107422 C 15.779224 19.095576 15.768761 19.079075 15.751953 19.068359 L 13.640625 17.849609 L 12 16.902344 L 12 12.695312 L 12 11.28125 L 12 10.695312 L 19.822266 2.875 C 19.928914 2.7834453 20 2.6522233 20 2.5 C 20 2.4986684 20.00001 2.4974229 20 2.4960938 C 20.001495 2.3663853 19.952916 2.2361192 19.853516 2.1367188 C 19.755588 2.0387907 19.627801 1.9882813 19.5 1.9882812 C 19.480023 1.9882812 19.461268 1.9975436 19.441406 2 L 2.5585938 2 C 2.5387316 1.9975436 2.5199769 1.9882812 2.5 1.9882812 z M 3.7167969 3 L 18.283203 3 L 11 10.28125 L 3.7167969 3 z M 11 17.480469 L 13.632812 19 L 8.3671875 19 L 11 17.480469 z " transform="matrix(0.26458334 0 0 0.26458334 0 291.17916)"/>
  <path inkscape:connector-curvature="0" style="fill:#ffffff;fill-opacity:0.706215;fill-rule:evenodd;stroke-width:0.264583" id="path4361" d="m 2.9104165,292.50208 0,1.05833 1.0583334,-1.05833 z"/>
 </g>
</svg>
