<?xml version="1.0" encoding="UTF-8" standalone="no"?>

<!-- Created with Inkscape (http://www.inkscape.org/) -->
<svg width="22" version="1.1" xmlns="http://www.w3.org/2000/svg" height="22" viewBox="0 0 5.8208332 5.8208335" xmlns:inkscape="http://www.inkscape.org/namespaces/inkscape">
 <defs id="defs4"/>
 <metadata id="metadata7"/>
 <g inkscape:label="Capa 1" inkscape:groupmode="layer" id="layer1" transform="matrix(1 0 0 1 0 -291.17916)">
  <path style="fill:#442015" id="rect4156" d="M 3 2 C 2.4459713 2 2 2.4459713 2 3 L 2 19 C 2 19.554029 2.4459713 20 3 20 L 16 20 C 16.554029 20 17 19.554029 17 19 L 17 14 L 19 14 C 19.554028 14 20 13.554028 20 13 L 20 5 C 20 4.4459723 19.554028 4 19 4 L 17 4 L 17 3 C 17 2.4459713 16.554029 2 16 2 L 3 2 z M 17 5 L 18 5 C 18.554028 5 19 5.4459723 19 6 L 19 12 C 19 12.554028 18.554028 13 18 13 L 17 13 L 17 5 z " transform="matrix(0.26458334 0 0 0.26458334 0 291.17916)"/>
  <rect width="3.439583" x="0.79375" y="291.9729" rx="0.264597" height="4.233334" style="fill:#f2b41c" id="rect4179"/>
  <path style="fill:#ffffff;fill-opacity:0.784314" id="rect4201" d="M 4 3 C 3.4459723 3 3 3.4459723 3 4 L 3 6 L 10 6 L 10 6.5 C 10 6.777 10.223 7 10.5 7 C 10.777 7 11 6.777 11 6.5 L 11 7.5 C 11 7.777 11.223 8 11.5 8 C 11.777 8 12 7.777 12 7.5 L 12 6 C 12 6.554 12.446 7 13 7 C 13.554 7 14 6.554 14 6 L 16 6 L 16 4 C 16 3.4459723 15.554028 3 15 3 L 13 3 L 10.5 3 L 4 3 z " transform="matrix(0.26458334 0 0 0.26458334 0 291.17916)"/>
  <path style="fill:#ffffff;fill-opacity:0.54902" id="rect4222" d="M 4 6 L 4 19 L 7 19 L 7 6 L 4 6 z " transform="matrix(0.26458334 0 0 0.26458334 0 291.17916)"/>
  <rect width="0.264583" x="1.852084" y="293.29584" rx="0.132292" height="2.116667" style="fill:#422016" id="rect4283"/>
  <rect width="0.264583" x="2.910417" y="293.29584" rx="0.132292" height="2.116667" style="fill:#422016" id="rect4285"/>
  <path style="fill:#ffffff;fill-opacity:0.784314" id="path4289" d="M 4 3 C 3.4459723 3 3 3.4459723 3 4 L 16 4 C 16 3.4459723 15.554028 3 15 3 L 4 3 z " transform="matrix(0.26458334 0 0 0.26458334 0 291.17916)"/>
 </g>
</svg>
