<?xml version="1.0" encoding="UTF-8" standalone="no"?>

<!-- Created with Inkscape (http://www.inkscape.org/) -->
<svg width="22" version="1.1" xmlns="http://www.w3.org/2000/svg" height="22" viewBox="0 0 5.8208332 5.8208335" xmlns:inkscape="http://www.inkscape.org/namespaces/inkscape">
 <defs id="defs4"/>
 <metadata id="metadata7"/>
 <g inkscape:label="Capa 1" inkscape:groupmode="layer" id="layer1" transform="matrix(1 0 0 1 0 -291.17916)">
  <rect width="5.291667" x="0.264583" y="291.70834" rx="2.116651" height="4.762512" style="fill:#fdd583" id="rect4152"/>
  <circle cx="4.101042" cy="293.42813" style="fill:#8f5315" r="0.396875" id="circle4186"/>
  <path inkscape:connector-curvature="0" style="fill:#8f5315" id="path4202" d="m 2.6287805,295.14791 c -0.050749,-1e-5 -0.1002377,0.003 -0.1333252,0.01 -0.049792,0.01 -0.1178781,0.0344 -0.1555461,0.0553 -0.036773,0.0204 -0.093723,0.0678 -0.1198893,0.0997 -0.066219,0.0806 -0.1032972,0.18882 -0.1033529,0.30282 l 0,0.0615 0.1260905,0 0.1255738,0 0.0062,-0.0661 c 0.013852,-0.11527 0.058557,-0.18624 0.1353923,-0.21704 0.056045,-0.0249 0.1062736,-0.0262 0.1850016,-0.015 0.085468,0.0121 0.1537939,0.0337 0.3477824,0.11059 0.3013663,0.11943 0.4799116,0.17149 0.6325196,0.18449 l 0.028939,5.1e-4 0,-0.23668 c -0.1034992,-0.006 -0.2084163,-0.0317 -0.4206463,-0.1142 -0.2682314,-0.10437 -0.395318,-0.14518 -0.5131469,-0.16588 -0.038716,-0.007 -0.090844,-0.01 -0.1415934,-0.01 z"/>
  <path inkscape:connector-curvature="0" style="fill:#8f5315" id="path4229" d="m 1.3387874,293.31739 a 0.39688697,0.39687501 60 0 0 0.037078,0.30917 0.39688697,0.39687501 60 0 0 0.5421414,0.14526 0.39688697,0.39687501 60 0 0 0.1452674,-0.54214 0.39688697,0.39687501 60 0 0 -0.060279,-0.0786 l -0.6642054,0.16628 z"/>
 </g>
</svg>
