<?xml version="1.0" encoding="UTF-8" standalone="no"?>

<!-- Created with Inkscape (http://www.inkscape.org/) -->
<svg width="22" version="1.1" xmlns="http://www.w3.org/2000/svg" height="22" viewBox="0 0 5.8208332 5.8208335" xmlns:inkscape="http://www.inkscape.org/namespaces/inkscape">
 <defs id="defs4"/>
 <metadata id="metadata7"/>
 <g inkscape:label="Capa 1" inkscape:groupmode="layer" id="layer1" transform="matrix(1 0 0 1 0 -291.17916)">
  <rect width="5.291667" x="0.264583" y="291.70834" rx="2.116651" height="4.762512" style="fill:#ea5756" id="rect4152"/>
  <path inkscape:connector-curvature="0" style="fill:#b11716" id="path4229-5" d="m 1.4453896,293.14184 a 0.39687501,0.39688697 0 0 0 -0.1224732,0.28629 0.39687501,0.39688697 0 0 0 0.396875,0.39687 0.39687501,0.39688697 0 0 0 0.3968751,-0.39687 0.39687501,0.39688697 0 0 0 -0.012919,-0.0982 l -0.6583578,-0.1881 z"/>
  <path inkscape:connector-curvature="0" style="fill:#b11716" id="ellipse4233" d="m 4.3754433,293.14184 -0.6588744,0.1881 a 0.39687501,0.39688697 0 0 0 -0.012402,0.0982 0.39687501,0.39688697 0 0 0 0.396875,0.39687 0.39687501,0.39688697 0 0 0 0.3968751,-0.39687 0.39687501,0.39688697 0 0 0 -0.1224733,-0.28629 z"/>
  <path inkscape:connector-curvature="0" style="fill:#ea5756;fill-rule:evenodd;stroke-width:0.264583" id="path4167" d="m 0.52916643,293.03125 0,-1.32294 0.79376367,0.52918 z"/>
  <path inkscape:connector-curvature="0" style="fill:#ea5756;fill-rule:evenodd;stroke-width:0.264583" id="path4171" d="m 5.29168,293.03125 0,-1.32294 -0.7937637,0.52918 z"/>
  <path inkscape:connector-curvature="0" style="fill:#b11716" id="path4208" d="m 4.7371785,294.60633 -0.1720826,0.078 a 1.4552028,1.4552081 0 0 1 -1.2578044,0.72812 1.4552028,1.4552081 0 0 1 -0.2816365,-0.0284 l -0.2480469,0.11266 a 1.3229165,1.3229217 0 0 0 0.6619751,0.18036 1.3229165,1.3229217 0 0 0 1.2975953,-1.07074 z"/>
 </g>
</svg>
