<?xml version="1.0" encoding="UTF-8" standalone="no"?>

<!-- Created with Inkscape (http://www.inkscape.org/) -->
<svg width="22" version="1.1" xmlns="http://www.w3.org/2000/svg" height="22" viewBox="0 0 5.8208332 5.8208335" xmlns:inkscape="http://www.inkscape.org/namespaces/inkscape">
 <defs id="defs4"/>
 <metadata id="metadata7"/>
 <g inkscape:label="Capa 1" inkscape:groupmode="layer" id="layer1" transform="matrix(1 0 0 1 0 -291.17916)">
  <rect width="5.291667" x="0.264583" y="291.70834" rx="2.116651" height="4.762512" style="fill:#fdd583" id="rect4152"/>
  <circle cx="4.101042" cy="293.42813" style="fill:#8f5315" r="0.396875" id="circle4186"/>
  <path inkscape:connector-curvature="0" style="fill:#8f5315" id="path4208" d="m 4.424536,294.88333 a 1.4552028,1.4552081 0 0 1 -1.1172445,0.52917 1.4552028,1.4552081 0 0 1 -0.1322916,-0.007 l 0,0.24288 a 1.3229165,1.3229217 0 0 0 0.2645833,0.0287 1.3229165,1.3229217 0 0 0 1.2097454,-0.79375 l -0.2247926,0 z"/>
  <path inkscape:connector-curvature="0" style="fill:#8f5315" id="path4229-5" d="m 1.4453896,293.14184 a 0.39687501,0.39688697 0 0 0 -0.1224732,0.28629 0.39687501,0.39688697 0 0 0 0.396875,0.39687 0.39687501,0.39688697 0 0 0 0.3968751,-0.39687 0.39687501,0.39688697 0 0 0 -0.012919,-0.0982 l -0.6583578,-0.1881 z"/>
  <path inkscape:connector-curvature="0" style="fill:#8f5315" id="path4168" d="m 1.7197915,292.50209 a 0.66145838,1.0583334 0 0 0 -0.5720582,0.52917 l 0.1353923,0 a 0.66145838,1.0583334 0 0 1 0.4366659,-0.26458 0.66145838,1.0583334 0 0 1 0.4356323,0.26458 l 0.1364257,0 a 0.66145838,1.0583334 0 0 0 -0.572058,-0.52917 z"/>
 </g>
</svg>
