<?xml version="1.0" encoding="UTF-8" standalone="no"?>

<!-- Created with Inkscape (http://www.inkscape.org/) -->
<svg width="22" version="1.1" xmlns="http://www.w3.org/2000/svg" height="22" viewBox="0 0 5.8208332 5.8208335" xmlns:inkscape="http://www.inkscape.org/namespaces/inkscape">
 <defs id="defs4"/>
 <metadata id="metadata7"/>
 <g inkscape:label="Capa 1" inkscape:groupmode="layer" id="layer1" transform="matrix(1 0 0 1 0 -291.17916)">
  <rect width="5.291667" x="0.264583" y="291.70834" rx="2.116651" height="4.762512" style="fill:#fdd583" id="rect4152"/>
  <circle cx="1.719791" cy="293.42813" style="fill:#8f5315" id="path4184" r="0.396875"/>
  <circle cx="4.101042" cy="293.42813" style="fill:#8f5315" r="0.396875" id="circle4186"/>
  <path inkscape:connector-curvature="0" style="fill:#8f5315;stroke-width:3.779527" id="rect4165" d="m 2.5577397,294.61873 c -0.045072,0 -0.090134,0.0169 -0.1246766,0.0517 -0.069079,0.0688 -0.069079,0.18037 0,0.24947 l 0.2280001,0.22805 -0.2280001,0.22805 c -0.069079,0.0688 -0.069079,0.18037 0,0.24947 0.069079,0.0688 0.1802745,0.0688 0.2493535,0 l 0.2280001,-0.2281 0.2279999,0.2281 c 0.06908,0.0688 0.1802755,0.0688 0.2493541,0 0.069078,-0.0688 0.069078,-0.18036 0,-0.24947 l -0.2280005,-0.22806 0.2280005,-0.22805 c 0.069078,-0.0688 0.069078,-0.18035 0,-0.24947 -0.034543,-0.0349 -0.079607,-0.0517 -0.124678,-0.0517 -0.045072,0 -0.090134,0.0169 -0.1246768,0.0517 l -0.2280002,0.22816 -0.2280001,-0.22812 c -0.034534,-0.0348 -0.079607,-0.0517 -0.1246768,-0.0517 z"/>
 </g>
</svg>
