<?xml version="1.0" encoding="UTF-8" standalone="no"?>

<!-- Created with Inkscape (http://www.inkscape.org/) -->
<svg width="22" version="1.1" xmlns="http://www.w3.org/2000/svg" height="22" viewBox="0 0 5.8208332 5.8208335" xmlns:inkscape="http://www.inkscape.org/namespaces/inkscape">
 <defs id="defs4"/>
 <metadata id="metadata7"/>
 <g inkscape:label="Capa 1" inkscape:groupmode="layer" id="layer1" transform="matrix(1 0 0 1 0 -291.17916)">
  <rect width="5.291667" x="0.264583" y="291.70834" rx="2.116651" height="4.762512" style="fill:#fdd583" id="rect4152"/>
  <path style="fill:#353738" id="rect4199" d="M 5.125 6.25 C 3 6.25 1 6.5000063 1 7 L 1 11 C 1 11.554003 1.4460055 12 2 12 L 9 12 C 9 12 10 11.999987 10 11 L 10 9.0996094 L 12 9.0996094 L 12 11 C 12 11.999987 13 12 13 12 L 20 12 C 20.553994 12 21 11.554003 21 11 L 21 7 C 21 6.0000126 13 6.0000126 12 7 L 12 8.0996094 L 10 8.0996094 L 10 7 C 9.4999999 6.5000063 7.25 6.25 5.125 6.25 z " transform="matrix(0.26458334 0 0 0.26458334 0 291.17916)"/>
  <path style="fill:#8f5315" id="path4208" d="M 16.722656 14 A 5.4999789 5.4999989 0 0 1 12.5 16 A 5.4999789 5.4999989 0 0 1 12 15.972656 L 12 16.890625 A 4.9999992 5.0000188 0 0 0 13 17 A 4.9999992 5.0000188 0 0 0 17.572266 14 L 16.722656 14 z " transform="matrix(0.26458334 0 0 0.26458334 0 291.17916)"/>
  <path inkscape:connector-curvature="0" style="fill:#76787c;fill-rule:evenodd;stroke-width:0.264583" id="path4168" d="M 16.246094,7 C 14.711567,7.0954401 13.371486,7.3276248 13,7.6992188 L 13,11 c 1,-2.9999999 2,-2.9999999 4,-4 z" transform="matrix(0.26458334 0 0 0.26458334 0 291.17916)"/>
  <path inkscape:connector-curvature="0" style="fill:#76787c;fill-rule:evenodd;stroke-width:0.264583" id="path4181" d="m 1.3880291,293.03124 c -0.40601033,0.0253 -0.76057369,0.0867 -0.85886269,0.18501 l 0,0.87333 C 0.79374976,293.29583 1.0583334,293.29583 1.5875,293.03124 Z"/>
 </g>
</svg>
