<?xml version="1.0" encoding="UTF-8" standalone="no"?>

<!-- Created with Inkscape (http://www.inkscape.org/) -->
<svg width="22" version="1.1" xmlns="http://www.w3.org/2000/svg" height="22" viewBox="0 0 5.8208332 5.8208335" xmlns:inkscape="http://www.inkscape.org/namespaces/inkscape">
 <defs id="defs4"/>
 <metadata id="metadata7"/>
 <g inkscape:label="Capa 1" inkscape:groupmode="layer" id="layer1" transform="matrix(1 0 0 1 0 -291.17916)">
  <rect width="5.291667" x="0.264583" y="291.70834" rx="2.116651" height="4.762512" style="fill:#f6926a" id="rect4152"/>
  <path style="fill:#b84f33" id="path4229" d="M 5.4628906 7.4179688 A 1.5 1.5000452 0 0 0 5 8.5 A 1.5 1.5000452 0 0 0 6.5 10 A 1.5 1.5000452 0 0 0 8 8.5 A 1.5 1.5000452 0 0 0 7.9511719 8.1289062 L 5.4628906 7.4179688 z " transform="matrix(0.26458334 0 0 0.26458334 0 291.17916)"/>
  <path style="fill:#b84f33" id="ellipse4233" d="M 16.537109 7.4179688 L 14.046875 8.1289062 A 1.5 1.5000452 0 0 0 14 8.5 A 1.5 1.5000452 0 0 0 15.5 10 A 1.5 1.5000452 0 0 0 17 8.5 A 1.5 1.5000452 0 0 0 16.537109 7.4179688 z " transform="matrix(0.26458334 0 0 0.26458334 0 291.17916)"/>
  <path inkscape:connector-curvature="0" style="fill:#b84f33" id="path4233" d="m 2.0195147,295.41246 a 1.0583336,1.7197847 0 0 1 0.890385,-0.79375 1.0583336,1.7197847 0 0 1 0.8914186,0.79375 l -0.1038699,0 a 1.0583334,1.5875001 0 0 0 -0.7875487,-0.52917 1.0583334,1.5875001 0 0 0 -0.7870321,0.52917 l -0.1033529,0 z"/>
 </g>
</svg>
