<?xml version="1.0" encoding="UTF-8" standalone="no"?>

<!-- Created with Inkscape (http://www.inkscape.org/) -->
<svg width="22" version="1.1" xmlns="http://www.w3.org/2000/svg" height="22" viewBox="0 0 5.8208332 5.8208335" xmlns:inkscape="http://www.inkscape.org/namespaces/inkscape">
 <defs id="defs4"/>
 <metadata id="metadata7"/>
 <g inkscape:label="Capa 1" inkscape:groupmode="layer" id="layer1" transform="matrix(1 0 0 1 0 -291.17916)">
  <rect width="5.291667" x="0.264583" y="291.70834" rx="2.116651" height="4.762512" style="fill:#fdd583" id="rect4152"/>
  <circle cx="1.719791" cy="293.42813" style="fill:#8f5315" id="path4184" r="0.396875"/>
  <circle cx="4.101042" cy="293.42813" style="fill:#8f5315" id="circle4186" r="0.396875"/>
  <ellipse cx="1.719791" cy="293.42813" style="fill:#8f5315" id="ellipse4159"/>
  <path inkscape:connector-curvature="0" style="fill:#8f5315" id="path4168" d="m 1.7197915,292.50209 a 0.66145838,1.0583334 0 0 0 -0.5720582,0.52917 l 0.1353923,0 a 0.66145838,1.0583334 0 0 1 0.4366659,-0.26458 0.66145838,1.0583334 0 0 1 0.4356323,0.26458 l 0.1364258,0 a 0.66145838,1.0583334 0 0 0 -0.5720581,-0.52917 z"/>
  <path inkscape:connector-curvature="0" style="fill:#8f5315" id="path4176" d="m 4.1010423,292.23749 a 0.66145838,1.0583334 0 0 0 -0.5720582,0.52917 l 0.1353923,0 a 0.66145838,1.0583334 0 0 1 0.4366659,-0.26458 0.66145838,1.0583334 0 0 1 0.4356323,0.26458 l 0.1364258,0 a 0.66145838,1.0583334 0 0 0 -0.5720581,-0.52917 z"/>
  <rect width="0.529167" x="2.645833" y="295.41251" rx="0.132292" height="0.264583" style="fill:#8f5315" id="rect4162"/>
 </g>
</svg>
