<?xml version="1.0" encoding="UTF-8" standalone="no"?>

<!-- Created with Inkscape (http://www.inkscape.org/) -->
<svg width="22" version="1.1" xmlns="http://www.w3.org/2000/svg" height="22" viewBox="0 0 5.8208332 5.8208335" xmlns:inkscape="http://www.inkscape.org/namespaces/inkscape">
 <defs id="defs4"/>
 <metadata id="metadata7"/>
 <g inkscape:label="Capa 1" inkscape:groupmode="layer" id="layer1" transform="matrix(1 0 0 1 0 -291.17916)">
  <path inkscape:connector-curvature="0" style="fill:#8f5315" id="path4280" d="m 1.0655678,294.51437 c -0.97688062,0.8218 0.7066855,0.98312 0.125057,1.16272 -0.66145842,0 -0.92604442,-0.30999 -0.92604172,-0.52918 1.1e-6,-0.0891 0.5291667,-0.79373 0.80098472,-0.63354 z"/>
  <rect width="5.02708" x="-5.55625" y="291.70834" rx="2.116651" height="4.762512" style="fill:#fdd583" id="rect4152" transform="matrix(-1 0 0 1 0 0)"/>
  <path inkscape:connector-curvature="0" style="fill:#8f5315" id="path4233" d="m 3.3245515,294.08959 a 0.8383182,1.1465173 0 0 1 -0.705284,0.52915 0.8383182,1.1465173 0 0 1 -0.7061034,-0.52915 l 0.082281,0 a 0.83831804,1.058328 0 0 0 0.6238266,0.35277 0.83831804,1.058328 0 0 0 0.6234173,-0.35277 l 0.081864,0 z"/>
  <path inkscape:connector-curvature="0" style="fill:#8f5315" id="path4184" d="m 3.8364585,293.03124 a 0.39687501,0.39687501 0 0 1 0.396875,0.39688 0.39687501,0.39687501 0 0 1 -0.023254,0.13229 0.39687501,0.39687501 0 0 0 -0.3736206,-0.26459 0.39687501,0.39687501 0 0 0 -0.3736206,0.26459 0.39687501,0.39687501 0 0 1 -0.023254,-0.13229 0.39687501,0.39687501 0 0 1 0.396875,-0.39688 z"/>
  <path inkscape:connector-curvature="0" style="fill:#8f5315" id="path4231" d="m 1.4552079,293.03125 a 0.39687501,0.39687501 0 0 1 0.3968753,0.39687 0.39687501,0.39687501 0 0 1 -0.023254,0.13229 0.39687501,0.39687501 0 0 0 -0.3736206,-0.26458 0.39687501,0.39687501 0 0 0 -0.3736206,0.26458 0.39687501,0.39687501 0 0 1 -0.023254,-0.13229 0.39687501,0.39687501 0 0 1 0.3968747,-0.39687 z"/>
  <path inkscape:connector-curvature="0" style="fill:#8f5315" id="path4249" d="m 4.240568,294.51437 c -0.9768806,0.8218 0.7066855,0.98312 0.125057,1.16272 -0.6614584,0 -0.9260444,-0.30999 -0.9260417,-0.52918 1.1e-6,-0.0891 0.5291666,-0.79373 0.8009847,-0.63354 z"/>
 </g>
</svg>
