<?xml version="1.0" encoding="UTF-8" standalone="no"?>

<!-- Created with Inkscape (http://www.inkscape.org/) -->
<svg width="22" version="1.1" xmlns="http://www.w3.org/2000/svg" height="22" viewBox="0 0 5.8208332 5.8208335" xmlns:inkscape="http://www.inkscape.org/namespaces/inkscape">
 <defs id="defs4"/>
 <metadata id="metadata7"/>
 <g inkscape:label="Capa 1" inkscape:groupmode="layer" id="layer1" transform="matrix(1 0 0 1 0 -291.17916)">
  <rect width="5.291667" x="0.264583" y="291.70834" rx="2.116651" height="4.762512" style="fill:#fdd583" id="rect4152"/>
  <circle cx="4.101042" cy="293.42813" style="fill:#8f5315" r="0.396875" id="circle4186"/>
  <circle cx="1.719792" cy="293.42813" style="fill:#8f5315" r="0.396875" id="circle4186-1"/>
  <ellipse cx="2.910417" cy="294.88333" rx="0.529167" ry="0.79375" style="fill:#ea5756;stroke-width:3.779527" id="path4184"/>
  <path style="fill:#f37b7a;stroke-width:3.779527" id="path4186" d="M 11 15 A 1 1.5 0 0 0 10 16.5 A 1 1.5 0 0 0 10.001953 16.597656 A 2 3.0000001 0 0 0 11 17 A 2 3.0000001 0 0 0 11.996094 16.597656 A 1 1.5 0 0 0 12 16.5 A 1 1.5 0 0 0 11 15 z " transform="matrix(0.26458334 0 0 0.26458334 0 291.17916)"/>
 </g>
</svg>
