<?xml version="1.0" encoding="UTF-8" standalone="no"?>

<!-- Created with Inkscape (http://www.inkscape.org/) -->
<svg width="22" version="1.1" xmlns="http://www.w3.org/2000/svg" height="22" viewBox="0 0 5.8208332 5.8208335" xmlns:inkscape="http://www.inkscape.org/namespaces/inkscape">
 <defs id="defs4"/>
 <metadata id="metadata7"/>
 <g inkscape:label="Capa 1" inkscape:groupmode="layer" id="layer1" transform="matrix(1 0 0 1 0 -291.17916)">
  <rect width="5.291667" x="0.264583" y="291.70834" rx="2.116651" height="4.762512" style="fill:#fdd583" id="rect4152"/>
  <path inkscape:connector-curvature="0" style="fill:#8f5315" id="path4202" d="m 3.4104871,295.67408 c -0.152608,-0.013 -0.3309884,-0.065 -0.6323546,-0.18443 -0.1939884,-0.0769 -0.2622895,-0.0985 -0.347757,-0.11056 -0.078728,-0.0112 -0.1290553,-0.01 -0.1851005,0.0149 -0.076835,0.0308 -0.121315,0.10189 -0.1351673,0.21716 l -0.00631,0.0659 -0.125857,0 -0.1258571,0 3e-5,-0.0614 c 5.57e-5,-0.114 0.037043,-0.22252 0.103262,-0.3031 0.026166,-0.0319 0.083279,-0.0793 0.1200525,-0.0997 0.037668,-0.0209 0.1058681,-0.0451 0.1556597,-0.0551 0.066175,-0.0132 0.1973681,-0.0131 0.2747994,2e-5 0.1178289,0.0207 0.2447772,0.0613 0.5130087,0.16567 0.2361101,0.0918 0.3420788,0.11952 0.4577296,0.1198 0.061055,2e-4 0.068496,-6.6e-4 0.096678,-0.0112 0.053616,-0.0205 0.095394,-0.064 0.1183528,-0.12332 0.010332,-0.0269 0.023026,-0.0957 0.023063,-0.12527 l 3e-5,-0.0355 0.1270002,0 0.1270001,0 -4.2e-5,0.0569 c -4.8e-5,0.0512 -0.00686,0.10694 -0.018752,0.15353 -0.042686,0.16721 -0.1672307,0.27585 -0.3536576,0.30843 -0.037608,0.01 -0.1458081,0.0109 -0.1858194,0.01 z"/>
  <path inkscape:connector-curvature="0" style="fill:#8f5315" id="path4229" d="m 1.3387874,293.3345 a 0.39688697,0.39687501 60 0 0 0.037078,0.30917 0.39688697,0.39687501 60 0 0 0.5421414,0.14526 0.39688697,0.39687501 60 0 0 0.1452674,-0.54214 0.39688697,0.39687501 60 0 0 -0.060279,-0.0786 l -0.6642054,0.16628 z"/>
  <path inkscape:connector-curvature="0" style="fill:#8f5315" id="ellipse4233" d="m 4.4818204,293.3248 -0.6646532,-0.16654 a 0.39687501,0.39688697 30 0 0 -0.059833,0.0788 0.39687501,0.39688697 30 0 0 0.1452663,0.54214 0.39687501,0.39688697 30 0 0 0.5421414,-0.14527 0.39687501,0.39688697 30 0 0 0.037079,-0.30916 z"/>
 </g>
</svg>
