<?xml version="1.0" encoding="UTF-8" standalone="no"?>

<!-- Created with Inkscape (http://www.inkscape.org/) -->
<svg width="22" version="1.1" xmlns="http://www.w3.org/2000/svg" height="22" viewBox="0 0 5.8208332 5.8208335" xmlns:inkscape="http://www.inkscape.org/namespaces/inkscape">
 <defs id="defs4"/>
 <metadata id="metadata7"/>
 <g inkscape:label="Capa 1" inkscape:groupmode="layer" id="layer1" transform="matrix(1 0 0 1 0 -291.17916)">
  <rect width="5.291667" x="0.264583" y="291.70834" rx="2.116651" height="4.762512" style="fill:#fdd583" id="rect4152"/>
  <path style="fill:#8f5315" id="path4184" d="M 6.5 7 A 1.5 1.5 0 0 0 5 8.5 A 1.5 1.5 0 0 0 5.0878906 9 A 1.5 1.5 0 0 1 6.5 8 A 1.5 1.5 0 0 1 7.9121094 9 A 1.5 1.5 0 0 0 8 8.5 A 1.5 1.5 0 0 0 6.5 7 z " transform="matrix(0.26458334 0 0 0.26458334 0 291.17916)"/>
  <path inkscape:connector-curvature="0" style="fill:#fcc04d" id="path4230" d="M 14.095703,2.0820312 C 15.875381,2.5147424 18,3 18.849609,3.3828125 23,6.0000001 -1,6.0000001 3.1484375,3.3808594 4,3 6.3714888,2.305763 7.8964844,2.0839844 5.8755304,2.1915951 4.066935,2.4024171 2.6855469,2.6914062 0.95451609,3.0547322 0.00115592,3.5192819 0,4 0.00115592,4.4807033 0.95451612,4.9452497 2.6855469,5.3085938 4.7740291,5.7474797 7.8080511,5.9997804 11,6 14.193664,5.9992899 17.227968,5.746253 19.314453,5.3066406 21.043067,4.9438049 21.996265,4.4800309 22,4 21.996265,3.5199622 21.043067,3.056194 19.314453,2.6933594 17.933777,2.4027067 16.12203,2.1904773 14.095703,2.0820312 Z" transform="matrix(0.26458334 0 0 0.26458334 0 291.17916)"/>
  <path inkscape:connector-curvature="0" style="fill:#8f5315" id="path4231" d="m 4.101042,293.03125 a 0.39687501,0.39687501 0 0 0 -0.3968751,0.39687 0.39687501,0.39687501 0 0 0 0.023254,0.13229 0.39687501,0.39687501 0 0 1 0.3736207,-0.26458 0.39687501,0.39687501 0 0 1 0.3736206,0.26458 0.39687501,0.39687501 0 0 0 0.023254,-0.13229 0.39687501,0.39687501 0 0 0 -0.396875,-0.39687 z"/>
  <path style="fill:#8f5315" id="path4233" d="M 7.6347656 14 A 4.000001 6.4999735 0 0 0 11 17 A 4.000001 6.4999735 0 0 0 14.369141 14 L 13.976562 14 A 4.0000001 6 0 0 1 11 16 A 4.0000001 6 0 0 1 8.0253906 14 L 7.6347656 14 z " transform="matrix(0.26458334 0 0 0.26458334 0 291.17916)"/>
 </g>
</svg>
