<?xml version="1.0" encoding="UTF-8" standalone="no"?>

<!-- Created with Inkscape (http://www.inkscape.org/) -->
<svg width="22" version="1.1" xmlns="http://www.w3.org/2000/svg" height="22" viewBox="0 0 5.8208332 5.8208335" xmlns:inkscape="http://www.inkscape.org/namespaces/inkscape">
 <defs id="defs4"/>
 <metadata id="metadata7"/>
 <g inkscape:label="Capa 1" inkscape:groupmode="layer" id="layer1" transform="matrix(1 0 0 1 0 -291.17916)">
  <rect width="5.291667" x="0.264583" y="291.70834" rx="2.116651" height="4.762512" style="fill:#fdd583" id="rect4152"/>
  <path inkscape:connector-curvature="0" style="fill:#8f5315" id="path4184" d="m 4.1010419,294.88332 a 0.39687501,0.39687501 0 0 0 0.396875,-0.39688 0.39687501,0.39687501 0 0 0 -0.023254,-0.13229 0.39687501,0.39687501 0 0 1 -0.3736205,0.26459 0.39687501,0.39687501 0 0 1 -0.3736206,-0.26459 0.39687501,0.39687501 0 0 0 -0.023254,0.13229 0.39687501,0.39687501 0 0 0 0.3968751,0.39688 z"/>
  <path inkscape:connector-curvature="0" style="fill:#8f5315" id="path4231" d="m 1.7197912,294.88331 a 0.39687501,0.39687501 0 0 0 0.3968753,-0.39687 0.39687501,0.39687501 0 0 0 -0.023254,-0.13229 0.39687501,0.39687501 0 0 1 -0.3736206,0.26458 0.39687501,0.39687501 0 0 1 -0.3736205,-0.26458 0.39687501,0.39687501 0 0 0 -0.023254,0.13229 0.39687501,0.39687501 0 0 0 0.3968747,0.39687 z"/>
  <path inkscape:connector-curvature="0" style="fill:#1aa3de;stroke-width:3.779527" id="path3362" d="m 2.9104165,295.8407 c -1.7e-6,0.1323 -1.3228734,0.21009 -1.3228795,-0.26457 -3.72e-5,-0.16388 0.1765522,-0.32853 0.387937,-0.16364 0.018266,0.0184 0.036608,0.036 0.055017,0.0528 0.022598,0.0206 0.045296,0.0399 0.068078,0.0582 0.037242,0.0298 0.074707,0.0566 0.1123192,0.0808 0.2335156,0.14998 0.4727189,0.1984 0.6995284,0.2365 z"/>
  <path style="fill:#8f5315;stroke-width:3.779527" id="rect4190" d="M 17 2 L 17 3 L 20.478516 3 L 17 5.9921875 L 17 6 L 17 7 L 17.359375 7 L 22 7 L 22 6 L 18.521484 6 L 22 3.0097656 L 22 2 L 17 2 z M 12 4 L 12 5 L 14.421875 5 L 12 6.9824219 L 12 7 L 12 8 L 12.337891 8 L 16 8 L 16 7 L 13.558594 7 L 16 5.0019531 L 16 5 L 16 4 L 12 4 z " transform="matrix(0.26458334 0 0 0.26458334 0 291.17916)"/>
 </g>
</svg>
