<?xml version="1.0" encoding="UTF-8" standalone="no"?>

<!-- Created with Inkscape (http://www.inkscape.org/) -->
<svg width="22" version="1.1" xmlns="http://www.w3.org/2000/svg" height="22" viewBox="0 0 5.8208332 5.8208335" xmlns:inkscape="http://www.inkscape.org/namespaces/inkscape">
 <defs id="defs4"/>
 <metadata id="metadata7"/>
 <g inkscape:label="Capa 1" inkscape:groupmode="layer" id="layer1" transform="matrix(1 0 0 1 0 -291.17916)">
  <rect width="5.291667" x="0.264583" y="291.70834" rx="2.116651" height="4.762512" style="fill:#fdd583" id="rect4152"/>
  <path inkscape:connector-curvature="0" style="fill:#87b6f1" id="path4167" d="m 4.4979163,295.5448 c -2.8e-6,0.21919 -0.1776889,0.39687 -0.396875,0.39687 -0.2191861,0 -0.3968722,-0.17768 -0.396875,-0.39687 -2.8e-6,-0.21919 0.396875,-0.92606 0.396875,-0.92606 0,0 0.3968778,0.70687 0.396875,0.92606 z"/>
  <path inkscape:connector-curvature="0" style="fill:#8f5315" id="rect4160" d="m 3.8271565,293.7573 c -0.06822,0 -0.095332,0.0687 -0.1100791,0.1018 -0.00838,0.0321 -0.012721,0.065 -0.012911,0.0982 0,0.21918 0.1776871,0.39687 0.396875,0.39687 0.1706962,-1.2e-4 0.3221951,-0.10937 0.3762045,-0.2713 l 0.00723,-0.0233 c 0.018968,-0.0708 -0.022741,-0.14277 -0.093534,-0.16174 l -0.5110789,-0.13695 c -0.017698,-0.005 -0.035684,-0.006 -0.05271,-0.004 z"/>
  <path inkscape:connector-curvature="0" style="fill:#8f5315" id="path4174" d="m 1.9459467,293.7573 c 0.06822,0 0.095332,0.0687 0.1100791,0.1018 0.00838,0.0321 0.012721,0.065 0.012911,0.0982 0,0.21918 -0.1776871,0.39687 -0.3968751,0.39687 -0.1706962,-1.2e-4 -0.322195,-0.10937 -0.3762044,-0.2713 l -0.00723,-0.0233 c -0.018968,-0.0708 0.022741,-0.14277 0.093534,-0.16174 l 0.511079,-0.13695 c 0.017698,-0.005 0.035684,-0.006 0.05271,-0.004 z"/>
 </g>
</svg>
