<?xml version="1.0" encoding="UTF-8" standalone="no"?>

<!-- Created with Inkscape (http://www.inkscape.org/) -->
<svg width="22" version="1.1" xmlns="http://www.w3.org/2000/svg" height="22" viewBox="0 0 5.8208332 5.8208335" xmlns:xlink="http://www.w3.org/1999/xlink" xmlns:inkscape="http://www.inkscape.org/namespaces/inkscape">
 <defs id="defs4">
  <linearGradient inkscape:collect="always" id="linearGradient4198">
   <stop style="stop-color:#d82727" id="stop4200"/>
   <stop offset="1" style="stop-color:#ff9090" id="stop4202"/>
  </linearGradient>
  <linearGradient inkscape:collect="always" xlink:href="#linearGradient4198" id="linearGradient4204" y1="295.14792" y2="293.03122" x2="0" gradientUnits="userSpaceOnUse"/>
 </defs>
 <metadata id="metadata7"/>
 <g inkscape:label="Capa 1" inkscape:groupmode="layer" id="layer1" transform="matrix(1 0 0 1 0 -291.17916)">
  <rect width="5.291667" x="0.264583" y="291.70834" rx="2.116651" height="4.762512" style="fill:#fdd583" id="rect4152"/>
  <path style="fill:#8f5315" id="path4229" d="M 6.6738281 14 A 5 6 0 0 0 11 17 A 5 6 0 0 0 15.322266 14 L 14.714844 14 A 5 6 0 0 1 11 16 A 5 6 0 0 1 7.2832031 14 L 6.6738281 14 z " transform="matrix(0.26458334 0 0 0.26458334 0 291.17916)"/>
  <path inkscape:connector-curvature="0" style="fill:#8f5315" id="path4184" d="m 1.7197914,293.03124 a 0.39687501,0.39687501 0 0 0 -0.396875,0.39688 0.39687501,0.39687501 0 0 0 0.023254,0.13229 0.39687501,0.39687501 0 0 1 0.3736206,-0.26459 0.39687501,0.39687501 0 0 1 0.3736207,0.26459 0.39687501,0.39687501 0 0 0 0.023254,-0.13229 0.39687501,0.39687501 0 0 0 -0.396875,-0.39688 z"/>
  <path inkscape:connector-curvature="0" style="fill:#8f5315" id="path4231" d="m 4.1010421,293.03125 a 0.39687501,0.39687501 0 0 0 -0.3968753,0.39687 0.39687501,0.39687501 0 0 0 0.023254,0.13229 0.39687501,0.39687501 0 0 1 0.3736206,-0.26458 0.39687501,0.39687501 0 0 1 0.3736206,0.26458 0.39687501,0.39687501 0 0 0 0.023254,-0.13229 0.39687501,0.39687501 0 0 0 -0.3968747,-0.39687 z"/>
  <path inkscape:connector-curvature="0" style="fill:#353738" id="path4216" d="m 0.26458309,293.69992 0,0.10956 a 2.9104167,0.92604166 0 0 0 2.64583341,0.54467 2.9104167,0.92604166 0 0 0 2.6458334,-0.54519 l 0,-0.10697 a 2.9104167,0.66147028 0 0 1 -2.6458334,0.38757 2.9104167,0.66147028 0 0 1 -2.64583341,-0.38964 z"/>
  <ellipse cx="2.910417" cy="294.08957" rx="1.058333" ry="1.058326" style="fill:#ea5756" id="path4183"/>
  <ellipse cx="2.910417" cy="294.08957" style="fill:url(#linearGradient4204)" id="path4185"/>
  <ellipse cx="2.910417" cy="293.56039" rx="0.529166" ry="0.529191" style="fill:#f37b7a" id="path4206"/>
 </g>
</svg>
