<?xml version="1.0" encoding="UTF-8" standalone="no"?>

<!-- Created with Inkscape (http://www.inkscape.org/) -->
<svg width="22" version="1.1" xmlns="http://www.w3.org/2000/svg" height="22" viewBox="0 0 5.8208332 5.8208335" xmlns:inkscape="http://www.inkscape.org/namespaces/inkscape">
 <defs id="defs4"/>
 <metadata id="metadata7"/>
 <g inkscape:label="Capa 1" inkscape:groupmode="layer" id="layer1" transform="matrix(1 0 0 1 0 -291.17916)">
  <rect width="5.291667" x="0.264583" y="291.70834" rx="2.116651" height="4.762512" style="fill:#fdd583" id="rect4152"/>
  <circle cx="4.101042" cy="293.42813" style="fill:#8f5315" r="0.396875" id="circle4186"/>
  <path inkscape:connector-curvature="0" style="fill:#ea5756" id="path4173" d="m 3.7768191,295.05383 c -0.00128,-0.014 -0.00952,-0.0571 -0.025531,-0.12269 -0.032771,-0.13855 -0.045499,-0.22116 -0.047009,-0.30681 -0.00208,-0.1254 0.024659,-0.22658 0.081961,-0.30902 0.015366,-0.0222 0.054603,-0.0639 0.074515,-0.0791 0.076087,-0.0581 0.1695698,-0.0795 0.26216,-0.06 0.085716,0.0184 0.1650926,0.0739 0.1993846,0.14197 0.017127,0.034 0.030042,0.0842 0.035405,0.13723 l 0.00293,0.0265 0.026551,0.003 c 0.070727,0.007 0.1278136,0.0257 0.1689819,0.0543 0.016533,0.009 0.051864,0.0476 0.061724,0.0688 0.055942,0.0841 0.069393,0.18733 0.037977,0.28074 -0.016758,0.0489 -0.040773,0.0874 -0.079119,0.1257 -0.051831,0.0518 -0.1129271,0.0888 -0.1825686,0.11053 -0.054061,0.0172 -0.1015483,0.0233 -0.1706232,0.0229 -0.093726,-1.1e-4 -0.1704299,-0.0132 -0.3227112,-0.0549 -0.055212,-0.0148 -0.093523,-0.024 -0.1100506,-0.026 -0.010522,0.002 -0.014023,-10e-4 -0.014251,-0.002 -2.307e-4,-2.3e-4 7.637e-4,-0.006 7.142e-4,-0.012 z"/>
  <path inkscape:connector-curvature="0" style="fill:#8f5315;stroke-width:3.779527" id="path4174" d="m 2.6458328,294.68365 c 0.2645834,-0.26458 0.7937501,-0.52915 0.7937501,0 -0.042809,0.10332 -0.1586466,0.13101 -0.1586466,0.26459 0,0.13357 0.1158375,0.16127 0.1586466,0.26458 0,0.52915 -0.5291667,0.26458 -0.7937501,0 0.1966335,1.01716 1.177566,0.0989 0.7937501,-0.26458 0.5291666,-0.79375 -0.4785757,-0.86048 -0.7937501,-0.26459 z"/>
  <path inkscape:connector-curvature="0" style="fill:#8f5315" id="path4184-3" d="m 1.7197914,293.03124 a 0.39687501,0.39687501 0 0 0 -0.396875,0.39688 0.39687501,0.39687501 0 0 0 0.023254,0.13229 0.39687501,0.39687501 0 0 1 0.3736206,-0.26459 0.39687501,0.39687501 0 0 1 0.3736207,0.26459 0.39687501,0.39687501 0 0 0 0.023254,-0.13229 0.39687501,0.39687501 0 0 0 -0.396875,-0.39688 z"/>
 </g>
</svg>
