<?xml version="1.0" encoding="UTF-8" standalone="no"?>

<!-- Created with Inkscape (http://www.inkscape.org/) -->
<svg width="22" version="1.1" xmlns="http://www.w3.org/2000/svg" height="22" viewBox="0 0 5.8208332 5.8208335" xmlns:inkscape="http://www.inkscape.org/namespaces/inkscape">
 <defs id="defs4"/>
 <metadata id="metadata7"/>
 <g inkscape:label="Capa 1" inkscape:groupmode="layer" id="layer1" transform="matrix(1 0 0 1 0 -291.17916)">
  <rect width="5.291667" x="0.264583" y="291.70834" rx="2.116651" height="4.762512" style="fill:#fdd583" id="rect4152"/>
  <path inkscape:connector-curvature="0" style="fill:#8f5315" id="path4229" d="m 1.7657835,293.82499 a 1.3229167,1.5875 0 0 0 1.144633,0.79375 1.3229167,1.5875 0 0 0 1.1435996,-0.79375 l -0.1607138,0 a 1.3229167,1.5875 0 0 1 -0.9828858,0.52917 1.3229167,1.5875 0 0 1 -0.9834026,-0.52917 l -0.1612304,0 z"/>
  <path inkscape:connector-curvature="0" style="fill:#8f5315" id="path4184-4" d="m 1.7197914,293.03124 a 0.39687501,0.39687501 0 0 0 -0.396875,0.39688 0.39687501,0.39687501 0 0 0 0.023254,0.13229 0.39687501,0.39687501 0 0 1 0.3736206,-0.26459 0.39687501,0.39687501 0 0 1 0.3736207,0.26459 0.39687501,0.39687501 0 0 0 0.023254,-0.13229 0.39687501,0.39687501 0 0 0 -0.396875,-0.39688 z"/>
  <path inkscape:connector-curvature="0" style="fill:#8f5315" id="path4231" d="m 4.1010421,293.03125 a 0.39687501,0.39687501 0 0 0 -0.3968753,0.39687 0.39687501,0.39687501 0 0 0 0.023254,0.13229 0.39687501,0.39687501 0 0 1 0.3736207,-0.26458 0.39687501,0.39687501 0 0 1 0.3736206,0.26458 0.39687501,0.39687501 0 0 0 0.023254,-0.13229 0.39687501,0.39687501 0 0 0 -0.3968745,-0.39687 z"/>
 </g>
</svg>
