<?xml version="1.0" encoding="UTF-8" standalone="no"?>

<!-- Created with Inkscape (http://www.inkscape.org/) -->
<svg width="22" version="1.1" xmlns="http://www.w3.org/2000/svg" height="22" viewBox="0 0 5.8208332 5.8208335" xmlns:inkscape="http://www.inkscape.org/namespaces/inkscape">
 <defs id="defs4"/>
 <metadata id="metadata7"/>
 <g inkscape:label="Capa 1" inkscape:groupmode="layer" id="layer1" transform="matrix(1 0 0 1 0 -291.17916)">
  <rect width="5.291667" x="0.264583" y="291.70834" rx="2.116651" height="4.762512" style="fill:#fdd583" id="rect4152"/>
  <circle cx="1.719791" cy="293.42813" style="fill:#8f5315" id="path4184" r="0.396875"/>
  <circle cx="4.101042" cy="293.42813" style="fill:#8f5315" r="0.396875" id="circle4186"/>
  <path style="fill:#353738;stroke-width:3.779527" id="rect4159" d="M 1 12 C 1 16.431967 4.5680333 20 9 20 L 13 20 C 17.431967 20 21 16.431967 21 12 L 1 12 z " transform="matrix(0.26458334 0 0 0.26458334 0 291.17916)"/>
  <path style="fill:#353738;stroke-width:3.779527" id="rect4161" d="M 9 2 C 5.2606127 2 2.1468739 4.5441587 1.2617188 8 L 20.738281 8 C 19.853126 4.5441587 16.739387 2 13 2 L 9 2 z " transform="matrix(0.26458334 0 0 0.26458334 0 291.17916)"/>
  <path style="fill:#454749;stroke-width:3.779527" id="rect4210" d="M 9 16 C 8.4460553 16 8 16.446055 8 17 L 14 17 C 14 16.446055 13.553945 16 13 16 L 9 16 z " transform="matrix(0.26458334 0 0 0.26458334 0 291.17916)"/>
 </g>
</svg>
