<?xml version="1.0" encoding="UTF-8" standalone="no"?>

<!-- Created with Inkscape (http://www.inkscape.org/) -->
<svg width="22" version="1.1" xmlns="http://www.w3.org/2000/svg" height="22" viewBox="0 0 5.8208332 5.8208335" xmlns:inkscape="http://www.inkscape.org/namespaces/inkscape">
 <defs id="defs4"/>
 <metadata id="metadata7"/>
 <g inkscape:label="Capa 1" inkscape:groupmode="layer" id="layer1" transform="matrix(1 0 0 1 0 -291.17916)">
  <rect width="5.291667" x="0.264583" y="291.70834" rx="2.116651" height="4.762512" style="fill:#fdd583" id="rect4152"/>
  <ellipse cx="1.719791" cy="293.42813" style="fill:#8f5315" id="path4184"/>
  <path style="fill:#454749;stroke-width:3.779527" id="path4159" d="M 7.7382812 2.1074219 C 7.674639 2.117444 7.6100001 2.1252154 7.546875 2.1367188 C 8.1783316 4.9631741 10.192015 7.6299859 13.078125 9.3007812 C 15.606775 10.75928 18.470688 11.274939 21 10.804688 L 21 10.431641 C 18.637689 10.518332 15.990685 9.8263677 13.578125 8.4355469 C 10.826079 6.8443087 8.7268163 4.531025 7.7382812 2.1074219 z " transform="matrix(0.26458334 0 0 0.26458334 0 291.17916)"/>
  <rect id="rect4167" style="fill:#454749;stroke-width:3.779527" x="3.175" y="293.03125" rx="0.264577" width="1.5875" height="1.5875"/>
  <path inkscape:connector-curvature="0" style="fill:#8f5315" id="path4208" d="m 4.4245367,294.88333 a 1.4552028,1.4552081 0 0 1 -1.1172445,0.52917 1.4552028,1.4552081 0 0 1 -0.1322916,-0.007 l 0,0.24288 a 1.3229165,1.3229217 0 0 0 0.2645833,0.0287 1.3229165,1.3229217 0 0 0 1.2097454,-0.79375 l -0.2247926,0 z"/>
  <path inkscape:connector-curvature="0" style="fill:#8f5315" id="path4229-5" d="m 1.4453896,293.14184 a 0.39687501,0.39688697 0 0 0 -0.1224732,0.28629 0.39687501,0.39688697 0 0 0 0.396875,0.39687 0.39687501,0.39688697 0 0 0 0.3968751,-0.39687 0.39687501,0.39688697 0 0 0 -0.012919,-0.0982 l -0.6583578,-0.1881 z"/>
 </g>
</svg>
