<?xml version="1.0" encoding="UTF-8" standalone="no"?>

<!-- Created with Inkscape (http://www.inkscape.org/) -->
<svg width="22" version="1.1" xmlns="http://www.w3.org/2000/svg" height="22" viewBox="0 0 5.8208332 5.8208335" xmlns:inkscape="http://www.inkscape.org/namespaces/inkscape">
 <defs id="defs4"/>
 <metadata id="metadata7"/>
 <g inkscape:label="Capa 1" inkscape:groupmode="layer" id="layer1" transform="matrix(1 0 0 1 0 -291.17916)">
  <rect width="5.291667" x="0.264583" y="291.70834" rx="2.116651" height="4.762512" style="fill:#fdd583" id="rect4152"/>
  <path inkscape:connector-curvature="0" style="fill:#ea5756;stroke-width:3.779527" id="rect4167" d="m 1.5874998,294.61874 c 0,0.58632 0.4720158,1.05833 1.0583333,1.05833 l 0.5291667,0 c 0.5863175,0 1.0583334,-0.47201 1.0583334,-1.05833 l -2.6458334,0 z"/>
  <path inkscape:connector-curvature="0" style="fill:#f9f9f9;stroke-width:3.779527" id="path4165" d="m 1.5874998,294.61875 c 0,0.52916 1.0583334,0.52916 1.3229166,0.52917 0.2645835,0 1.3229168,-10e-6 1.3229168,-0.52917 z"/>
  <path inkscape:connector-curvature="0" style="fill:#8f5315" id="path4184-4" d="m 1.7197914,293.03124 a 0.39687501,0.39687501 0 0 0 -0.396875,0.39688 0.39687501,0.39687501 0 0 0 0.023254,0.13229 0.39687501,0.39687501 0 0 1 0.3736206,-0.26459 0.39687501,0.39687501 0 0 1 0.3736207,0.26459 0.39687501,0.39687501 0 0 0 0.023254,-0.13229 0.39687501,0.39687501 0 0 0 -0.396875,-0.39688 z"/>
  <path inkscape:connector-curvature="0" style="fill:#8f5315" id="path4231" d="m 4.1010421,293.03125 a 0.39687501,0.39687501 0 0 0 -0.3968753,0.39687 0.39687501,0.39687501 0 0 0 0.023254,0.13229 0.39687501,0.39687501 0 0 1 0.3736207,-0.26458 0.39687501,0.39687501 0 0 1 0.3736206,0.26458 0.39687501,0.39687501 0 0 0 0.023254,-0.13229 0.39687501,0.39687501 0 0 0 -0.3968747,-0.39687 z"/>
 </g>
</svg>
