<?xml version="1.0" encoding="UTF-8" standalone="no"?>

<!-- Created with Inkscape (http://www.inkscape.org/) -->
<svg width="22" version="1.1" xmlns="http://www.w3.org/2000/svg" height="22" viewBox="0 0 5.8208332 5.8208335" xmlns:inkscape="http://www.inkscape.org/namespaces/inkscape">
 <defs id="defs4"/>
 <metadata id="metadata7"/>
 <g inkscape:label="Capa 1" inkscape:groupmode="layer" id="layer1" transform="matrix(1 0 0 1 0 -291.17916)">
  <rect width="5.291667" x="0.264583" y="291.70834" rx="2.116651" height="4.762512" style="fill:#fdd583" id="rect4152"/>
  <path inkscape:connector-curvature="0" style="fill:#f37b7a" id="path4229" d="m 2.513541,294.88437 c -0.06201,0 -0.3968748,0.001 -0.3968748,0.001 0,0.52744 0.3968748,0.79056 0.7937494,0.79168 0.3968761,0 0.7937513,-0.26424 0.7937513,-0.79375 0,0 -0.3340889,10e-4 -0.3968752,10e-4 -0.730963,0 -0.1184718,-10e-4 -0.3968761,0 -0.2786724,-10e-4 0.3348644,1e-5 -0.3968746,0 z"/>
  <path inkscape:connector-curvature="0" style="fill:#ea5756" id="path4173" d="m 1.5745528,294.34319 c -0.016221,-0.0127 -0.070605,-0.0476 -0.1572112,-0.0984 -0.1817195,-0.10691 -0.282837,-0.17776 -0.3752896,-0.26292 -0.13520299,-0.12456 -0.21416745,-0.25432 -0.24082817,-0.39578 -0.007319,-0.0384 -0.009874,-0.12 -0.004893,-0.1554 0.0190541,-0.13572 0.095564,-0.25203 0.21448777,-0.326 0.1104347,-0.0685 0.253467,-0.0916 0.3620622,-0.0575 0.054187,0.0174 0.1211807,0.0548 0.1831073,0.10303 l 0.03127,0.0241 0.031273,-0.0241 c 0.082683,-0.0644 0.1628348,-0.1036 0.2368171,-0.11582 0.027571,-0.006 0.1055217,-0.003 0.1384377,0.006 0.1485233,0.0287 0.272309,0.11911 0.3380552,0.24573 0.034052,0.066 0.049413,0.13005 0.049413,0.20725 0,0.10501 -0.02555,0.2042 -0.076412,0.29664 -0.039083,0.0716 -0.082966,0.12588 -0.1567185,0.19586 -0.099525,0.0946 -0.1947981,0.15904 -0.4004778,0.27108 -0.074218,0.0407 -0.1245936,0.0703 -0.1443536,0.0849 -0.0087,0.01 -0.016247,0.0123 -0.01673,0.0123 -4.894e-4,0 -0.0059,-0.006 -0.012002,-0.01 z"/>
  <path inkscape:connector-curvature="0" style="fill:#ea5756" id="path4159" d="m 4.2203863,294.34319 c -0.016221,-0.0127 -0.070605,-0.0476 -0.1572112,-0.0984 -0.1817195,-0.10691 -0.282837,-0.17776 -0.3752896,-0.26292 -0.135203,-0.12456 -0.2141675,-0.25432 -0.2408282,-0.39578 -0.00732,-0.0384 -0.00987,-0.12 -0.00489,-0.1554 0.019054,-0.13572 0.095564,-0.25203 0.2144878,-0.326 0.1104347,-0.0685 0.253467,-0.0916 0.3620622,-0.0575 0.054187,0.0174 0.1211807,0.0548 0.1831073,0.10303 l 0.03127,0.0241 0.031273,-0.0241 c 0.082683,-0.0644 0.1628348,-0.1036 0.2368171,-0.11582 0.027571,-0.006 0.1055217,-0.003 0.1384377,0.006 0.1485233,0.0287 0.272309,0.11911 0.3380552,0.24573 0.034052,0.066 0.049413,0.13005 0.049413,0.20725 0,0.10501 -0.02555,0.2042 -0.076412,0.29664 -0.039083,0.0716 -0.082966,0.12588 -0.1567185,0.19586 -0.099525,0.0946 -0.1947981,0.15904 -0.4004778,0.27108 -0.074218,0.0407 -0.1245936,0.0703 -0.1443536,0.0849 -0.0087,0.01 -0.016247,0.0123 -0.01673,0.0123 -4.894e-4,0 -0.0059,-0.006 -0.012002,-0.01 z"/>
 </g>
</svg>
