<?xml version="1.0" encoding="UTF-8" standalone="no"?>

<!-- Created with Inkscape (http://www.inkscape.org/) -->
<svg width="22" version="1.1" xmlns="http://www.w3.org/2000/svg" height="22" viewBox="0 0 5.8208332 5.8208335" xmlns:inkscape="http://www.inkscape.org/namespaces/inkscape">
 <defs id="defs4"/>
 <metadata id="metadata7"/>
 <g inkscape:label="Capa 1" inkscape:groupmode="layer" id="layer1" transform="matrix(1 0 0 1 0 -291.17916)">
  <rect width="5.291667" x="0.264583" y="291.70834" rx="2.116651" height="4.762512" style="fill:#fdd583" id="rect4152"/>
  <circle cx="1.719791" cy="293.42813" style="fill:#8f5315" id="path4184" r="0.396875"/>
  <circle cx="4.101042" cy="293.42813" style="fill:#8f5315" r="0.396875" id="circle4186"/>
  <rect width="0.529167" x="2.645833" y="295.41251" rx="0.132278" height="0.264557" style="fill:#8f5315" id="rect4159"/>
  <path inkscape:connector-curvature="0" style="fill:#ea5756" id="rect4179" d="m 1.483721,294.09108 c -0.049512,-0.006 -0.099927,0.0187 -0.1265243,0.0697 l -0.099519,0.19037 c -0.00564,-0.007 -0.00806,-0.0184 -0.016503,-0.0238 -0.035102,-0.0224 -0.079753,-0.01 -0.100019,0.0293 l -0.073014,0.14057 c -0.020266,0.0389 -0.0081,0.0882 0.027005,0.11067 0.035102,0.0224 0.079253,0.009 0.099519,-0.0299 l 0.027005,-0.0515 c 0.010081,0.0294 0.027796,0.056 0.05451,0.073 0.061423,0.0392 0.1390707,0.016 0.1745334,-0.052 l 0.021004,-0.0404 c 0.00741,0.0376 0.027917,0.0716 0.060512,0.0924 0.061423,0.0392 0.1390707,0.0165 0.1745335,-0.0515 l 0.1280245,-0.24571 c 0.035463,-0.068 0.014914,-0.15444 -0.046509,-0.19368 -0.061423,-0.0393 -0.1395707,-0.016 -0.1750334,0.052 l -0.021004,0.0404 c -0.00749,-0.0374 -0.027556,-0.0717 -0.060011,-0.0924 -0.015356,-0.01 -0.032005,-0.0154 -0.048509,-0.0177 z"/>
  <path inkscape:connector-curvature="0" style="fill:#ea5756" id="path4216" d="m 4.3941384,294.09108 c -0.049512,-0.006 -0.099927,0.0187 -0.1265243,0.0697 l -0.099519,0.19037 c -0.00564,-0.007 -0.00806,-0.0184 -0.016503,-0.0238 -0.035102,-0.0224 -0.079753,-0.01 -0.100019,0.0293 l -0.073014,0.14057 c -0.020266,0.0389 -0.0081,0.0882 0.027005,0.11067 0.035102,0.0224 0.079253,0.009 0.099519,-0.0299 l 0.027005,-0.0515 c 0.010081,0.0294 0.027796,0.056 0.05451,0.073 0.061423,0.0392 0.1390707,0.016 0.1745334,-0.052 l 0.021004,-0.0404 c 0.00741,0.0376 0.027917,0.0716 0.060512,0.0924 0.061423,0.0392 0.1390707,0.0165 0.1745335,-0.0515 l 0.1280245,-0.24571 c 0.035463,-0.068 0.014914,-0.15444 -0.046509,-0.19368 -0.061423,-0.0393 -0.1395707,-0.016 -0.1750334,0.052 l -0.021004,0.0404 c -0.00749,-0.0374 -0.027556,-0.0717 -0.060011,-0.0924 -0.015356,-0.01 -0.032005,-0.0154 -0.048509,-0.0177 z"/>
 </g>
</svg>
