<?xml version="1.0" encoding="UTF-8" standalone="no"?>

<!-- Created with Inkscape (http://www.inkscape.org/) -->
<svg width="22" version="1.1" xmlns="http://www.w3.org/2000/svg" height="22" viewBox="0 0 5.8208332 5.8208335" xmlns:inkscape="http://www.inkscape.org/namespaces/inkscape">
 <defs id="defs4"/>
 <metadata id="metadata7"/>
 <g inkscape:label="Capa 1" inkscape:groupmode="layer" id="layer1" transform="matrix(1 0 0 1 0 -291.17916)">
  <rect width="5.291667" x="0.264583" y="291.70834" rx="2.116651" height="4.762512" style="fill:#c5daa2" id="rect4152"/>
  <path inkscape:connector-curvature="0" style="fill:#404046" id="path4229" d="m 1.3387874,293.3345 a 0.39688697,0.39687501 60 0 0 0.037078,0.30917 0.39688697,0.39687501 60 0 0 0.5421414,0.14526 0.39688697,0.39687501 60 0 0 0.1452674,-0.54214 0.39688697,0.39687501 60 0 0 -0.060279,-0.0786 l -0.6642054,0.16628 z"/>
  <path inkscape:connector-curvature="0" style="fill:#404046" id="ellipse4233" d="m 4.4818203,293.3248 -0.6646531,-0.16654 a 0.39687501,0.39688697 30 0 0 -0.059833,0.0788 0.39687501,0.39688697 30 0 0 0.1452663,0.54214 0.39687501,0.39688697 30 0 0 0.5421414,-0.14527 0.39687501,0.39688697 30 0 0 0.037079,-0.30916 z"/>
  <path style="fill:#404046" id="path4233" d="M 10.994141 13 A 4.0000009 6.4999732 0 0 0 8.6757812 14.220703 A 3 1.9999478 0 0 0 7 13.234375 L 7 13.630859 A 3 1.9999478 0 0 1 8 15.115234 A 3 1.9999478 0 0 1 7 16.603516 L 7 17 A 3 1.9999478 0 0 0 9 15.117188 A 3 1.9999478 0 0 0 8.96875 14.847656 A 4.0000001 6 0 0 1 10.998047 14 A 4.0000001 6 0 0 1 13.03125 14.847656 A 3 1.9999478 0 0 0 13 15.117188 A 3 1.9999478 0 0 0 15 17 L 15 16.603516 A 3 1.9999478 0 0 1 14 15.115234 A 3 1.9999478 0 0 1 15 13.630859 L 15 13.234375 A 3 1.9999478 0 0 0 13.324219 14.21875 A 4.0000009 6.4999732 0 0 0 10.998047 13 A 4.0000009 6.4999732 0 0 0 10.994141 13 z " transform="matrix(0.26458334 0 0 0.26458334 0 291.17916)"/>
 </g>
</svg>
