<?xml version="1.0" encoding="UTF-8" standalone="no"?>

<!-- Created with Inkscape (http://www.inkscape.org/) -->
<svg width="22" version="1.1" xmlns="http://www.w3.org/2000/svg" height="22" viewBox="0 0 5.8208332 5.8208335" xmlns:inkscape="http://www.inkscape.org/namespaces/inkscape">
 <defs id="defs4"/>
 <metadata id="metadata7"/>
 <g inkscape:label="Capa 1" inkscape:groupmode="layer" id="layer1" transform="matrix(1 0 0 1 0 -291.17916)">
  <path inkscape:connector-curvature="0" style="fill:#492b0b;stroke-width:3.779527" id="path4219" d="m 4.2333332,292.76666 c -4.6e-6,0.36531 -0.2961482,0.79375 -0.6614583,0.79375 -0.3653101,0 -0.6614538,-0.42844 -0.6614584,-0.79375 -1.3e-6,-0.52917 0.6614584,-1.05833 0.6614584,-1.05833 1.76e-5,1e-5 0.6614583,0.52916 0.6614583,1.05833 z"/>
  <path inkscape:connector-curvature="0" style="fill:#492b0b;stroke-width:3.779527" id="path4216" d="m 2.6458331,292.76666 c -4.6e-6,0.36531 -0.2961482,0.79375 -0.6614583,0.79375 -0.3653101,0 -0.6614538,-0.42844 -0.6614584,-0.79375 -1.3e-6,-0.52917 0.6614584,-1.05833 0.6614584,-1.05833 1.76e-5,1e-5 0.6614583,0.52916 0.6614583,1.05833 z"/>
  <path inkscape:connector-curvature="0" style="fill:#8f5315;stroke-width:3.779527" id="path4152" d="m 11,6.3980001 c -4.9705631,0 -9.0000005,0.4954773 -9,1.6000468 L 2,8 2,18 C 2.0037228,17.83189 2.1028115,17.664554 2.2949219,17.501953 3.3234355,18.383483 5.0000001,19.5 11,19.5 17,19.4983 18.683308,18.381128 19.705078,17.498047 19.898659,17.661913 19.99776,17.830582 20,18 L 20,8 20,7.99805 C 20,6.8934805 15.970563,6.3980032 11,6.3980001 Z m 0,1 c 3.37727,0.00155 6.466381,0.02318 8,0.6918437 L 19,10 3,10 3,8.0859375 C 4.5384548,7.4187891 7.6265976,7.3987971 11,7.3980001 Z M 9.9453125,19.982422 c 0.1039015,0.0037 0.2080845,0.0069 0.3124995,0.0098 -0.104415,-0.0028 -0.208598,-0.0061 -0.3124995,-0.0098 z" transform="matrix(0.26458334 0 0 0.26458334 0 291.17916)"/>
  <path style="fill:#e9e0ee;stroke-width:3.779527" id="path4199" d="M 11 6.9980469 A 8.9999999 1.9999998 0 0 0 3 8.0859375 L 3 11.912109 A 9 2 0 0 0 4 12.253906 L 4 13.5 C 4 13.777 4.223 14 4.5 14 C 4.777 14 5 13.777 5 13.5 L 5 12.486328 A 9 2 0 0 0 11 13 A 9 2 0 0 0 19 11.914062 L 19 8.0898438 A 8.9999999 1.9999998 0 0 0 11 6.9980469 z " transform="matrix(0.26458334 0 0 0.26458334 0 291.17916)"/>
  <path style="fill:#ddcfe5;stroke-width:3.779527" id="path4210" d="M 11 6.9980469 C 7.6265976 6.9988439 4.5384548 7.4187891 3 8.0859375 L 3 8.9160156 C 3.7073471 9.2211026 4.7654475 9.4656774 6 9.6503906 L 6 10.5 C 6 10.777 6.223 11 6.5 11 C 6.777 11 7 10.777 7 10.5 L 7 9.7734375 C 8.2291508 9.910298 9.5741318 9.9999812 11 10 C 14.373402 9.999203 17.461545 9.5792578 19 8.9121094 L 19 8.0898438 C 17.466381 7.4211798 14.37727 6.9995946 11 6.9980469 z " transform="matrix(0.26458334 0 0 0.26458334 0 291.17916)"/>
  <path inkscape:connector-curvature="0" style="fill:#492b0b;stroke-width:3.779527" id="path4214" d="m 2.9104165,292.76614 a 2.3812501,0.52916663 0 0 0 -2.38125009,0.52917 2.3812501,0.52916663 0 0 0 0,5.2e-4 l 0,2.64583 a 2.3812501,0.52916663 0 0 0 2.38125009,0.52917 2.3812501,0.52916663 0 0 0 2.3812501,-0.52917 l 0,-2.64583 a 2.3812501,0.52916663 0 0 0 0,-5.2e-4 2.3812501,0.52916663 0 0 0 -2.3812501,-0.52917 z m 0,0.26459 a 2.3812501,0.52916663 0 0 1 2.1166667,0.28887 l 0,2.59777 a 2.3812501,0.52916663 0 0 1 -2.1166667,0.28887 2.3812501,0.52916663 0 0 1 -2.11666675,-0.28783 l 0,-2.59985 a 2.3812501,0.52916663 0 0 1 2.11666675,-0.28783 z"/>
  <rect id="rect4183" style="fill:#e9e0ee;stroke-width:3.779527" x="0.79375" y="294.08957" rx="0.132292" width="0.264583" height="0.529174"/>
  <rect id="rect4192" style="fill:#ef4036;stroke-width:3.779527" x="1.852083" y="292.23749" rx="0" width="0.264583" height="1.322917"/>
  <rect id="rect4196" style="fill:#ef4036;stroke-width:3.779527" x="3.439583" y="292.23749" rx="0" width="0.264583" height="1.322917"/>
  <path inkscape:connector-curvature="0" style="fill:#f3ee61;stroke-width:3.779527" id="path4198" d="m 2.3812498,292.63438 c 1.9e-6,0.21918 -0.1776857,0.39687 -0.396875,0.39687 -0.2191894,0 -0.396877,-0.17769 -0.3968751,-0.39687 3.6e-6,-0.21918 0.3968751,-0.66147 0.3968751,-0.66147 0,0 0.3968714,0.44229 0.396875,0.66147 z"/>
  <path inkscape:connector-curvature="0" style="fill:#f3ee61;stroke-width:3.779527" id="path4201" d="m 3.9687499,292.63439 c 1.9e-6,0.21918 -0.1776857,0.39687 -0.396875,0.39687 -0.2191894,0 -0.396877,-0.17769 -0.3968751,-0.39687 3.6e-6,-0.21918 0.3968751,-0.66144 0.3968751,-0.66144 0,0 0.3968714,0.44226 0.396875,0.66144 z"/>
 </g>
</svg>
