<svg viewBox="0 0 16 16" xmlns="http://www.w3.org/2000/svg">
    <style type="text/css" id="current-color-scheme">
        .ColorScheme-Text {
            color:#eff0f1;
        }
    </style>
    <g class="ColorScheme-Text" fill="currentColor">
        <path d="M3 2v4h11v5h-2V7h-1v4H7v1h4v1h1v-1h3V2zm1 1h1v1h2V3h4v1h2V3h1v2H4z"/>
        <path d="M3.5 7A2.5 2.5 0 0 0 1 9.5v1.973a2.5 2.5 0 0 0 0 .027A2.5 2.5 0 0 0 3.5 14 2.5 2.5 0 0 0 6 11.5V9.527A2.5 2.5 0 0 0 6 9.5 2.5 2.5 0 0 0 3.5 7zm0 1A1.5 1.5 0 0 1 5 9.5v1.955a1.5 1.5 0 0 1 0 .045A1.5 1.5 0 0 1 3.5 13 1.5 1.5 0 0 1 2 11.5V9.545A1.5 1.5 0 0 1 2 9.5 1.5 1.5 0 0 1 3.5 8zM3 9v1h1V9z"/>
    </g>
</svg>
