<svg xmlns="http://www.w3.org/2000/svg" viewBox="0 0 16 16">
  <defs id="defs3051">
    <style type="text/css" id="current-color-scheme">
      .ColorScheme-Text {
        color:#eff0f1;
      }
      </style>
  </defs>
 <path style="fill:currentColor;fill-opacity:1;stroke:none" 
     d="M 3 2 L 3 14 L 7 14 L 7 13 L 4 13 L 4 3 L 12 3 L 12 7 L 13 7 L 13 2 L 3 2 z M 12 8 L 11 9 L 10 10 L 8 12 L 8 13 L 8 14 L 10 14 L 10.59375 13.40625 L 11 13 L 12 12 L 13 11 L 14 10 L 12 8 z M 11.689453 9.6894531 L 12.28125 10.28125 L 12 10.5625 L 10.59375 11.96875 L 10.59375 11.984375 L 9.3125 13.28125 L 8.71875 12.6875 L 11.689453 9.6894531 z "
     class="ColorScheme-Text"
     />
</svg>
