<svg version="1.1" viewBox="0 0 16 16" xmlns="http://www.w3.org/2000/svg">
    <defs>
        <style type="text/css" id="current-color-scheme">.ColorScheme-Text {
        color:#eff0f1;
      }</style>
    </defs>
    <path class="ColorScheme-Text" d="m8 2a6.0000019 6.0000148 0 0 0-6 6 6.0000019 6.0000148 0 0 0 6 6 6.0000019 6.0000148 0 0 0 6-6 6.0000019 6.0000148 0 0 0-6-6zm0 1a5 5 0 0 1 5 5 5 5 0 0 1-5 5 5 5 0 0 1-5-5 5 5 0 0 1 5-5zm0 3a2 2 0 0 0-2 2 2 2 0 0 0 2 2 2 2 0 0 0 2-2 2 2 0 0 0-2-2zm0 1a1 1 0 0 1 1 1 1 1 0 0 1-1 1 1 1 0 0 1-1-1 1 1 0 0 1 1-1z" fill="currentColor"/>
    <path d="m7.5189155 13.635441c-1.3625791-0.137856-2.5777237-0.701651-3.5240097-1.635047-0.7962165-0.785372-1.3377612-1.758057-1.5963491-2.8672523-0.1000966-0.4293573-0.1418105-1.5294637-0.0756835-1.9959711 0.3408056-2.4042848 2.1124781-4.3046503 4.5127604-4.8405639 0.5570458-0.1243721 1.5147085-0.1431313 2.1084125-0.0413008 2.0878929 0.3581099 3.7932959 1.797363 4.4853569 3.7853566 1.107218 3.1805581-0.777356 6.6396175-4.0558655 7.4443825-0.6013855 0.14762-1.3122653 0.205266-1.854622 0.150396zm2.2481129-5.6091777c-0.8801697-1.3814217-0.99251-1.3389873-1.8470385-1.8198656-1.098286 1.0028285-1.7495492 0.6263421-1.6905096 1.9221897 0.0439631 0.9649364 0.6356343 1.3463901 1.7147099 1.6523671 1.0592078-0.4245468 1.3193726-0.771652 1.8228382-1.7546912z" class="ColorScheme-Text" fill="currentColor" fill-opacity=".50196078"/>
</svg>
