<svg version="1.1" viewBox="0 0 16 16" xmlns="http://www.w3.org/2000/svg">
    <defs>
        <style type="text/css" id="current-color-scheme">.ColorScheme-Text {
        color:#eff0f1;
      }</style>
    </defs>
    <path class="ColorScheme-Text" d="m8.03 2-1.875 3.939-4.15 0.621 2.982 3.08-0.732 4.336 3.719-2.037 3.697 2.061-0.684-4.34 3.02-3.062-4.143-0.645zm-8e-3 2 1.221 2.7308789 2.762 0.432-2.01 1.9451211 0.455 3.048803-2.463-1.373-2.48 1.357 0.488-3.046803-1.988-1.9591211 2.766-0.412z" fill="currentColor"/>
    <path d="m5.1956827 12.690882c0.011922-0.03769 0.1368436-0.804872 0.2776019-1.70485l0.2559244-1.6363244-1.1004132-1.1116787-1.1004133-1.1116789 0.3458598-0.0583255c0.190223-0.032079 0.8713469-0.1359081 1.513609-0.2307315 0.6422621-0.0948233 1.1854513-0.1893939 1.2070873-0.2101571 0.0330362-0.0317034 0.5834814-1.2225282 1.2450123-2.6934403l0.1600491-0.3558688 0.6799139 1.533515c0.3739523 0.8434332 0.6844861 1.5381303 0.690075 1.5437711 0.00559 0.00564 0.6883551 0.1164466 1.5172581 0.2462349 0.828904 0.1297883 1.507098 0.2531003 1.507098 0.2740264 0 0.020926-0.491316 0.5177274-1.091814 1.1040027l-1.091814 1.065955 0.249993 1.6887211c0.137496 0.928795 0.240739 1.69806 0.229428 1.709476-0.01133 0.01144-0.616252-0.3133-1.3443133-0.721592-0.7280617-0.408292-1.3511856-0.742427-1.3847198-0.742522-0.033534-9.6e-5 -0.661981 0.332864-1.3965485 0.739909-0.7345675 0.407047-1.3479465 0.740084-1.3630644 0.740084-0.015118 0-0.017732-0.03084-0.00581-0.06852z" class="ColorScheme-Text" fill="currentColor" fill-opacity=".50196078"/>
</svg>
