<svg version="1.1" viewBox="0 0 16 16" xmlns="http://www.w3.org/2000/svg">
    <defs>
        <style type="text/css" id="current-color-scheme">.ColorScheme-Text {
        color:#eff0f1;
      }</style>
    </defs>
    <path class="ColorScheme-Text" d="m9 13.992h-1c-3.314 0-6-2.684-6-5.996 0-3.311 2.686-5.996 6-5.996 0.069-0.019 1 0 1 0v10.992zm-1-0.999v-9.993c-2.761 0-5 2.237-5 4.997s2.239 4.997 5 4.997" fill="currentColor"/>
    <path d="m7.8992658 13.457769c-1.2623485-0.143236-2.7498475-0.809909-3.6528238-1.637137-0.6085305-0.557483-1.1604987-1.352433-1.4561363-2.0971416-0.2212476-0.5573209-0.2402863-0.6942009-0.2419017-1.7391776-0.0016177-1.0464496 0.0168072-1.1818169 0.2380314-1.7488115 0.8177971-2.0960033 2.8571315-3.5252597 5.3899161-3.7774937l0.5124726-0.051036v5.5675739c0 4.4087495-0.02235 5.5655825-0.107381 5.5580085-0.059059-0.0052-0.3660392-0.03891-0.6821776-0.07478z" class="ColorScheme-Text" fill="currentColor" fill-opacity=".50196078"/>
</svg>
