<svg version="1.1" viewBox="0 0 16 16" xmlns="http://www.w3.org/2000/svg">
    <defs>
        <style type="text/css" id="current-color-scheme">.ColorScheme-Text {
        color:#eff0f1;
      }</style>
    </defs>
    <path class="ColorScheme-Text" d="m2 7v1c0 3.314 2.684 6 5.996 6 3.311 0 5.996-2.686 5.996-6 0.019-0.069 0-1 0-1h-10.992zm0.999 1h9.993c0 2.761-2.237 5-4.997 5s-4.997-2.239-4.997-5" fill="currentColor"/>
    <path d="m7.3559817 13.320767c-0.9332401-0.132617-1.8673697-0.541309-2.6280947-1.149818-0.2557898-0.204609-0.7080776-0.666556-0.9289582-0.948798-0.7039881-0.89956-1.2069276-2.1993261-1.2636891-3.2658018-0.0078363-0.1472353-0.0196495-0.3224073-0.0262514-0.3892711l-0.0120034-0.1215707h11.168973v0.2130714c0 0.3183482-0.07019 0.8283841-0.172524 1.2536607-0.563413 2.3413975-2.429807 4.0984285-4.6832509 4.4088295-0.4016482 0.05532-1.0637186 0.05519-1.4542014-3.02e-4z" class="ColorScheme-Text" fill="currentColor" fill-opacity=".50196078"/>
</svg>
