<svg version="1.1" viewBox="0 0 16 16" xmlns="http://www.w3.org/2000/svg">
    <defs>
        <style type="text/css" id="current-color-scheme">.ColorScheme-Text {
        color:#eff0f1;
      }</style>
    </defs>
    <path class="ColorScheme-Text" d="m5.098 3.6396664-0.027 0.0133135c-1.891 0.8803389-3.065 2.5411672-3.07 4.3442811 0 2.757508 2.686 4.99247 6 4.99247s6-2.234962 6-4.99247c-2e-3 -0.2787464-0.032-0.5574926-0.09-0.8320785h-5.428l-2.754-2.8681741s-0.632-0.6548457-0.631-0.6565099m-0.219 1.113321 3.121 3.2434414h5c0 2.2973691-2.239 4.1603911-5 4.1603911s-5-1.863022-5-4.1603911c2e-3 -1.262263 0.694-2.4554633 1.879-3.2434414" fill="currentColor"/>
    <path class="ColorScheme-Text" d="m7.6960106 12.732827c-1.8912279-0.154146-3.5184631-1.168686-4.3861775-2.7363383-0.5745093-1.0377132-0.7335543-2.3091636-0.4338573-3.448633 0.2499277-0.9490541 0.787651-1.8124717 1.5363523-2.4703615 0.2845497-0.2498572 0.3267454-0.2770593 0.3624493-0.2307149 0.0151471 0.0191423 0.7746678 0.9027096 1.6878236 1.9635949l1.6607753 1.9293403h5.3999537l-0.01623 0.261947c-0.140651 2.2859905-1.920441 4.1961885-4.3277529 4.6465365-0.4576599 0.08564-1.0548898 0.119891-1.4822554 0.08564" fill="currentColor" fill-opacity=".5"/>
</svg>
