<svg xmlns="http://www.w3.org/2000/svg" viewBox="0 0 16 16">
  <defs id="defs3051">
    <style type="text/css" id="current-color-scheme">
      .ColorScheme-Text {
        color:#eff0f1;
      }
      </style>
  </defs>
 <path style="fill:currentColor;fill-opacity:1;stroke:none" 
       d="M 2 2 L 2 3 L 2 6 L 2 7 L 2 13 L 2 14 L 9 14 L 9 13 L 3 13 L 3 7 L 13 7 L 13 8 L 14 8 L 14 6 L 14 5 L 14 4 L 9.0078125 4 L 7.0078125 2 L 7 2.0078125 L 7 2 L 3 2 L 2 2 z M 3 3 L 6.5917969 3 L 7.59375 4 L 7 4 L 7 4.0078125 L 6.9921875 4 L 4.9921875 6 L 3 6 L 3 3 z M 11.5 8 L 9.6210938 9.8789062 L 8.671875 10.828125 L 9.3789062 11.535156 L 10.328125 10.585938 L 11 9.9140625 L 11 12 L 11 14 L 12 14 L 12 13 L 12 12 L 12 9.9140625 L 12.671875 10.585938 L 13.621094 11.535156 L 14.328125 10.828125 L 13.378906 9.8789062 L 11.5 8 z "
     class="ColorScheme-Text"
     />
</svg>
