<svg xmlns="http://www.w3.org/2000/svg" viewBox="0 0 16 16">
  <defs id="defs3051">
    <style type="text/css" id="current-color-scheme">
      .ColorScheme-Text {
        color:#eff0f1;
      }
      </style>
  </defs>
 <path style="fill:currentColor;fill-opacity:1;stroke:none" 
     d="M 1 2 L 1 14 L 9 14 L 9 13 L 2.65625 13 L 6.6425781 8.3496094 L 8 9.7070312 C 7.986852 9.6833613 14 3.7070312 14 3.7070312 L 14 8 L 15 8 L 15 2 L 1 2 z M 2.7070312 3 L 13.292969 3 L 8 8.2929688 L 2.7070312 3 z M 2 3.7070312 L 5.9335938 7.640625 L 2 12.230469 L 2 3.7070312 z M 12 8 L 11.425781 9.6132812 L 9.8789062 8.8789062 L 10.613281 10.425781 L 9 11 L 10.613281 11.574219 L 9.8789062 13.121094 L 11.425781 12.386719 L 12 14 L 12.574219 12.386719 L 14.121094 13.121094 L 13.386719 11.574219 L 15 11 L 13.386719 10.425781 L 14.121094 8.8789062 L 12.574219 9.6132812 L 12 8 z "
     class="ColorScheme-Text"
     />
</svg>
