<svg xmlns="http://www.w3.org/2000/svg" viewBox="0 0 16 16">
  <defs id="defs3051">
    <style type="text/css" id="current-color-scheme">
      .ColorScheme-Text {
        color:#eff0f1
      }
      </style>
  </defs>
 <path 
     style="fill:currentColor;fill-opacity:1;stroke:none" 
     d="m8 2l-4 3.199v5.602l4 3.199h1v-12zm3.447 1.105l-.451.9a5 4.999975 0 0 1 2.00391 3.994141 5 4.999975 0 0 1 -2.00391 3.990234l.451.906a6 5.99997 0 0 0 2.552734 -4.896484 6 5.99997 0 0 0 -2.552734 -4.894531m-1.447 1.436v1.227a3 2.999985 0 0 1 1 2.232422 3 2.999985 0 0 1 -1 2.230469v1.229a4 3.99998 0 0 0 2 -3.458984 4 3.99998 0 0 0 -2 -3.458984m-8 1.459v4h1v-4z"
     class="ColorScheme-Text"/>
</svg>
