<svg xmlns="http://www.w3.org/2000/svg" viewBox="0 0 16 16">
  <defs id="defs3051">
    <style type="text/css" id="current-color-scheme">
      .ColorScheme-Text {
        color:#eff0f1;
      }
      </style>
  </defs>
 <path style="fill:currentColor;fill-opacity:1;stroke:none" 
     d="M 2 2 L 2 9 L 3 9 L 3 5 L 13 5 L 13 8 L 14 8 L 14 2 L 12 2 L 12 4 L 10 4 L 10 2 L 6 2 L 6 4 L 4 4 L 4 2 L 2 2 z M 4 6 L 4 8 L 6 8 L 6 6 L 4 6 z M 7 6 L 7 8 L 9 8 L 9 6 L 7 6 z M 10 6 L 10 8 L 12 8 L 12 6 L 10 6 z M 4 9 L 4 11 L 2 11 L 2 12 L 4 12 L 4 14 L 5 14 L 5 12 L 7 12 L 7 11 L 5 11 L 5 9 L 4 9 z M 8 9 L 8 14 L 14 14 L 14 9 L 13 9 L 13 10 L 12 10 L 12 9 L 10 9 L 10 10 L 9 10 L 9 9 L 8 9 z M 9 11 L 13 11 L 13 13 L 9 13 L 9 11 z "
     class="ColorScheme-Text"
     />
</svg>
