<svg version="1.1" viewBox="0 0 16 16" xmlns="http://www.w3.org/2000/svg">
    <defs>
        <style type="text/css" id="current-color-scheme">.ColorScheme-Text {
        color:#eff0f1;
      }</style>
    </defs>
    <g class="ColorScheme-Text" fill="currentColor" fill-opacity=".5">
        <path d="M 4,6.1657906 C 3.2053041,5.8975828 2.7234508,5.1086198 2.8382662,4.2636249 2.914309,3.703981 3.2761143,3.214723 3.8055868,2.9555477 4.0843064,2.8191153 4.1152669,2.8128562 4.5054745,2.8140569 4.9768835,2.8155076 5.2114027,2.8897894 5.5349357,3.1401296 6.5631059,3.9356971 6.3855391,5.5272572 5.2053623,6.0941486 4.9878551,6.198627 4.9011351,6.2171119 4.5832398,6.2267577 4.3065324,6.2351539 4.160199,6.2198573 4,6.1657906 Z"/>
        <path d="m3.9280908 10.988803v-2.1328623h1.176865v4.2657243h-1.176865z"/>
        <path d="m9.7910526 4.4923127v-1.7682054h3.5244254v3.5364108h-3.5244254z"/>
        <path d="m10.041818 11.550692c0.515165-1.019779 0.944972-1.8543808 0.955125-1.8546722 0.01797-5.155e-4 1.865519 3.6546722 1.865519 3.6907272 0 0.01-0.845395 0.01809-1.878655 0.01809h-1.8786543z"/>
    </g>
    <path d="m4.5 2a2.5 2.5 0 0 0-2.5 2.5 2.5 2.5 0 0 0 2.5 2.5 2.5 2.5 0 0 0 2.5-2.5 2.5 2.5 0 0 0-2.5-2.5zm4.5 0v5h5v-5h-5zm-4.5 1a1.5 1.5 0 0 1 1.5 1.5 1.5 1.5 0 0 1-1.5 1.5 1.5 1.5 0 0 1-1.5-1.5 1.5 1.5 0 0 1 1.5-1.5zm5.5 0h3v3h-3v-3zm-7 5v6h3v-6h-3zm8 0-3 6h6l-3-6zm-7 1h1v4h-1v-4zm7 0.7285156 0.890625 1.7753904 0.890625 1.775391h-1.78125-1.78125l0.890625-1.775391 0.890625-1.7753904z" class="ColorScheme-Text" fill="currentColor"/>
</svg>
