<svg xmlns="http://www.w3.org/2000/svg" viewBox="0 0 16 16">
  <defs id="defs3051">
    <style type="text/css" id="current-color-scheme">
      .ColorScheme-Text {
        color:#eff0f1;
      }
      </style>
  </defs>
 <path style="fill:currentColor;fill-opacity:1;stroke:none" 
       d="M 3 2 L 3 3 L 3 4 L 2 4 L 2 5 L 3 5 L 3 11 L 2 11 L 2 12 L 3 12 L 3 13 L 3 14 L 5 14 L 7 14 L 7 13 L 5 13 L 5 3 L 13 3 L 13 7 L 14 7 L 14 2 L 13 2 L 3 2 z M 11.171875 8.671875 L 10.464844 9.3789062 L 11.414062 10.328125 L 12.085938 11 L 8 11 L 8 12 L 12.085938 12 L 11.414062 12.671875 L 10.464844 13.621094 L 11.171875 14.328125 L 12.121094 13.378906 L 14 11.5 L 12.121094 9.6210938 L 11.171875 8.671875 z "
     class="ColorScheme-Text"
     />
</svg>
