<svg xmlns="http://www.w3.org/2000/svg" viewBox="0 0 16 16">
  <defs id="defs3051">
    <style type="text/css" id="current-color-scheme">
      .ColorScheme-Text {
        color:#eff0f1;
      }
      </style>
  </defs>
 <path style="fill:currentColor;fill-opacity:1;stroke:none" 
     d="M 2 2 L 2 4 L 3 4 L 3 5 L 2 5 L 2 11 L 3 11 L 3 12 L 2 12 L 2 14 L 5 14 L 13 14 L 14 14 L 14 3 L 14 2 L 5 2 L 2 2 z M 5 3 L 7 3 L 7 5 L 5 5 L 5 3 z M 8 3 L 13 3 L 13 5 L 8 5 L 8 3 z M 5 6 L 7 6 L 7 7 L 7 8 L 7 9 L 7 10 L 5 10 L 5 9 L 5 8 L 5 7 L 5 6 z M 8 6 L 13 6 L 13 8 L 13 9 L 13 10 L 8 10 L 8 9 L 8 8 L 8 6 z M 5 11 L 7 11 L 7 13 L 5 13 L 5 11 z M 8 11 L 13 11 L 13 13 L 8 13 L 8 11 z "
     class="ColorScheme-Text"
     />
</svg>
