<svg xmlns="http://www.w3.org/2000/svg" viewBox="0 0 16 16">
  <defs id="defs3051">
    <style type="text/css" id="current-color-scheme">
      .ColorScheme-Text {
        color:#eff0f1;
      }
      </style>
  </defs>
 <path style="fill:currentColor;fill-opacity:1;stroke:none" 
       d="M 2 2 L 2 6 L 6 6 L 6 2 L 2 2 z M 7 2 L 7 3 L 9 3 L 12 3 L 13 3 L 13 4 L 13 7 L 13 9 L 13 12 L 13 13 L 12 13 L 10 13 L 10 14 L 12 14 L 14 14 L 14 13 L 14 12 L 14 9 L 14 7 L 14 4 L 14 3 L 14 2 L 13 2 L 12 2 L 9 2 L 7 2 z M 3 3 L 5 3 L 5 5 L 3 5 L 3 3 z M 4.828125 7.671875 L 2.7070312 9.7929688 L 2 10.5 L 4.828125 13.328125 L 5.5351562 12.621094 L 3.9140625 11 L 8.5703125 11 L 8.5703125 10 L 3.9140625 10 L 5.5351562 8.3789062 L 4.828125 7.671875 z "
     class="ColorScheme-Text"
     />
</svg>
