<svg viewBox="0 0 16 16" xmlns="http://www.w3.org/2000/svg">
    <style
        type="text/css"
        id="current-color-scheme">
        .ColorScheme-Text {
            color:#eff0f1;
        }
    </style>
    <rect fill="#7f8c8d" height="10" ry="2" width="16" y="3"/>
    <path d="M2 3C.892 3 0 3.892 0 5v6c0 1.108.892 2 2 2h12c1.108 0 2-.892 2-2V5c0-1.108-.892-2-2-2zm0 1h12c.554 0 1 .446 1 1v6c0 .554-.446 1-1 1H2c-.554 0-1-.446-1-1V5c0-.554.446-1 1-1z" style="fill:currentColor;fill-opacity:0.6;stroke:none" class="ColorScheme-Text"/>
    <g fill="#fff">
        <rect height="2" ry="1" width="6" x="5" y="7"/>
        <path d="M3 5c-.554 0-1 .446-1 1v4c0 .554.446 1 1 1h3c.554 0 1-.446 1-1V6c0-.554-.446-1-1-1zm0 1h3v4H3zM10 5c-.554 0-1 .446-1 1v4c0 .554.446 1 1 1h3c.554 0 1-.446 1-1V6c0-.554-.446-1-1-1zm0 1h3v4h-3z"/>
    </g>
</svg>
