<svg height="16" width="16" xmlns="http://www.w3.org/2000/svg">
    <style
        type="text/css"
        id="current-color-scheme">
        .ColorScheme-NeutralText {
            color:#f67400;
        }
        .ColorScheme-Text {
            color:#eff0f1;
        }
    </style>
    <path style="fill:currentColor;fill-opacity:1;stroke:none" class="ColorScheme-NeutralText" d="M8.008 0a1 1 0 0 0-.903.553l-7 14A1 1 0 0 0 1 16h14a1 1 0 0 0 .895-1.447l-7-14A1 1 0 0 0 8.008 0z"/>
    <path style="fill:currentColor;fill-opacity:0.6;stroke:none" class="ColorScheme-Text" d="M8.008 0a1 1 0 0 0-.903.553l-7 14A1 1 0 0 0 1 16h14a1 1 0 0 0 .895-1.447l-7-14A1 1 0 0 0 8.008 0zM8 1l7 14H1z"/>
    <path d="M7 3v9h2V3zm0 10v2h2v-2z" fill="#fff"/>
</svg>
