<svg viewBox="0 0 16 16" xmlns="http://www.w3.org/2000/svg">
    <style
        type="text/css"
        id="current-color-scheme">
        .ColorScheme-NeutralText {
            color:#f67400;
        }
        .ColorScheme-Text {
            color:#eff0f1;
        }
    </style>
    <circle style="fill:currentColor;fill-opacity:1;stroke:none" class="ColorScheme-NeutralText" cx="8" cy="8" r="8"/>
    <path style="fill:currentColor;fill-opacity:0.6;stroke:none" class="ColorScheme-Text" d="M8 0a8 8 0 0 0-8 8 8 8 0 0 0 8 8 8 8 0 0 0 8-8 8 8 0 0 0-8-8zm0 1a7 7 0 0 1 7 7 7 7 0 0 1-7 7 7 7 0 0 1-7-7 7 7 0 0 1 7-7z"/>
    <path d="M8 2L5 6h2v5a1 1 0 0 1-1 1H2.266a7 7 0 0 0 2.146 2H7a2 2 0 0 0 2-2V6h2z" fill="#fff"/>
</svg>
