<svg height="16" width="16" xmlns="http://www.w3.org/2000/svg">
    <style
        type="text/css"
        id="current-color-scheme">
        .ColorScheme-PositiveText {
            color:#27ae60;
        }
        .ColorScheme-Text {
            color:#eff0f1;
        }
    </style>
    <circle style="fill:currentColor;fill-opacity:1;stroke:none" class="ColorScheme-PositiveText" cx="8" cy="8" r="8"/>
    <path style="fill:currentColor;fill-opacity:0.6;stroke:none" class="ColorScheme-Text" d="M8 0a8 8 0 0 0-8 8 8 8 0 0 0 8 8 8 8 0 0 0 8-8 8 8 0 0 0-8-8zm0 1a7 7 0 0 1 7 7 7 7 0 0 1-7 7 7 7 0 0 1-7-7 7 7 0 0 1 7-7z"/>
    <path d="M12.586 3.586L6.5 9.672 3.414 6.586 2 8l4.5 4.5L14 5z" fill="#fff"/>
</svg>
