<svg xmlns="http://www.w3.org/2000/svg" viewBox="0 0 24 24">
  <defs id="defs3051">
    <style type="text/css" id="current-color-scheme">
      .ColorScheme-Text {
        color:#eff0f1;
      }
      </style>
  </defs><g transform="translate(1,1)">
 <path 
    style="fill:currentColor;fill-opacity:1;stroke:none" 
	d="M16 3A2.00001 2 0 0 0 14 5 2.00001 2 0 0 0 16 7 2.00001 2 0 0 0 18 5 2.00001 2 0 0 0 16 3M11.5 7A.5 .5 0 0 0 11 7.5 .5 .5 0 0 0 11.5 8 .5 .5 0 0 0 12 7.5 .5 .5 0 0 0 11.5 7M9.5 8A.5 .499991 0 0 0 9 8.5 .5 .499991 0 0 0 9.5 9 .5 .499991 0 0 0 10 8.5 .5 .499991 0 0 0 9.5 8M6 9A2 2.00001 0 0 0 4 11 2 2.00001 0 0 0 6 13 2 2.00001 0 0 0 8 11 2 2.00001 0 0 0 6 9M9.5 13A.500009 .5 0 0 0 9 13.5 .500009 .5 0 0 0 9.5 14 .500009 .5 0 0 0 10 13.5 .500009 .5 0 0 0 9.5 13M11.5 14A.5 .5 0 0 0 11 14.5 .5 .5 0 0 0 11.5 15 .5 .5 0 0 0 12 14.5 .5 .5 0 0 0 11.5 14M16 15A2.00001 2 0 0 0 14 17 2.00001 2 0 0 0 16 19 2.00001 2 0 0 0 18 17 2.00001 2 0 0 0 16 15"
    class="ColorScheme-Text"
    />
</g></svg>
