<svg version="1.1" viewBox="0 0 24 24" xmlns="http://www.w3.org/2000/svg">
    <defs>
        <style type="text/css" id="current-color-scheme">.ColorScheme-Text {
        color:#eff0f1;
      }</style>
    </defs><g transform="translate(1,1)">
    <path class="ColorScheme-Text" d="m9 4-7 6 3 8 4.3728814 0.02542-0.3125 2 4.3124996-2.40625 4.3125 2.40625-0.8125-5.0625 3.5-3.59375-4.84375-0.75-2.15625-4.5937503-0.372881 0.7478814zm-0.03125 0.9745763 3.655549 2.5803035-1.407668 3.0642942-4.8437496 0.75 3.5 3.59375-0.34375 2.1875-4.0291314-0.025424-2.4375-6.96875zm4.404131 2.8008474 1.625 3.4687503 3.625 0.53125-2.625 2.6875 0.625 3.8125-3.25-1.78125-3.25 1.78125 0.625-3.8125-2.6249996-2.6875 3.6249996-0.53125z" fill="currentColor"/>
    <path d="M 5.3424071,17.367875 C 4.5092238,15.019726 3.61149,12.349192 2.78125,10 4.7880806,8.2679941 6.9889687,6.4025512 9,4.675472 10.351977,5.5787942 11.049329,6.1905838 12.802262,7.4243991 12.305376,8.6035377 11.979075,9.3737317 11.440357,10.819824 9.8659383,11.036783 8.3656563,11.230021 6.755739,11.499218 8,12.588471 8.7348585,13.444634 10,14.767981 9.9033357,15.570236 9.8018523,16.728312 9.6662524,17.524664 8,17.484323 6.4026798,17.450263 5.3424071,17.367875 Z" class="ColorScheme-Text" fill="currentColor" fill-opacity=".50196078"/>
    <path d="m9.6183501 18.527487c2.77e-4 -0.0071 0.1574013-0.92365 0.3491648-2.036752l0.3486621-2.023822-0.241833-0.234162c-0.8445979-0.817801-2.6817791-2.623452-2.6754295-2.629513 0.00419-4e-3 0.9117865-0.133887 2.0168679-0.288628 1.1050816-0.154741 2.0127176-0.284666 2.0169676-0.288723 0.0043-0.0041 0.404607-0.815837 0.889682-1.8039565 0.485073-0.988119 0.893148-1.816556 0.90683-1.8409709 0.02409-0.04299 0.05334 0.013656 0.927378 1.7959584 0.650334 1.326137 0.912295 1.844094 0.93755 1.853752 0.01928 0.0074 0.910388 0.134459 1.980246 0.282416 1.069858 0.147958 1.966491 0.274572 1.992516 0.281364 0.04509 0.01178-0.01892 0.0771-1.358133 1.386407-0.772999 0.755731-1.431732 1.400255-1.463851 1.432276l-0.0584 0.05822 0.346372 2.01715c0.190507 1.109433 0.34205 2.021278 0.336764 2.026322-0.0083 0.0079-1.116527-0.566988-3.072312-1.59372-0.289151-0.151796-0.533852-0.276231-0.543781-0.276522-0.0154-4.5e-4 -3.4849389 1.805848-3.596334 1.872309-0.021691 0.01294-0.03921 0.01771-0.038929 0.0106z" class="ColorScheme-Text" fill="currentColor" fill-opacity=".50196078"/>
</g></svg>
