<svg version="1.1" viewBox="0 0 24 24" xmlns="http://www.w3.org/2000/svg">
    <defs>
        <style type="text/css" id="current-color-scheme">.ColorScheme-Text {
        color:#eff0f1;
      }</style>
    </defs><g transform="translate(1,1)">
    <path class="ColorScheme-Text" d="m11 3c-4.432 0-8 3.568-8 8s3.568 8 8 8 8-3.568 8-8-3.568-8-8-8m0 1c3.878 0 7 3.122 7 7s-3.122 7-7 7-7-3.122-7-7 3.122-7 7-7m0 4a3 3 0 0 0-3 3 3 3 0 0 0 3 3 3 3 0 0 0 3-3 3 3 0 0 0-3-3m0 1a2 2 0 0 1 2 2 2 2 0 0 1-2 2 2 2 0 0 1-2-2 2 2 0 0 1 2-2" fill="currentColor"/>
    <path d="m10.4001 18.729319c-1.8088243-0.184648-3.4219302-0.939811-4.6781255-2.190027-1.0569773-1.051949-1.7758787-2.354791-2.1191545-3.840477-0.1328775-0.575094-0.1882528-2.048606-0.1004652-2.673459 0.4524189-3.2203656 2.804316-5.7657685 5.9906921-6.4835852 0.7394791-0.1665873 2.0107771-0.191715 2.7989201-0.0553184 2.771679 0.4796625 5.035602 2.4074378 5.954313 5.0702107 1.469833 4.2601289-1.031941 8.8932879-5.384164 9.9712129-0.798339 0.197726-1.742032 0.274939-2.462012 0.201444zm3.333948-7.816054c-0.842155-1.8969241-1.75986-3.2733857-2.848132-2.5541034-1.6444159 1.0868599-2.2759172 1.2584314-2.1975416 2.9941244 0.058357 1.292463 0.8438046 1.803392 2.2762786 2.213226 1.4061-0.568649 2.101043-1.336538 2.769395-2.653247z" class="ColorScheme-Text" fill="currentColor" fill-opacity=".50196078"/>
</g></svg>
