<svg xmlns="http://www.w3.org/2000/svg" viewBox="0 0 24 24">
  <defs id="defs3051">
    <style type="text/css" id="current-color-scheme">
      .ColorScheme-Text {
        color:#eff0f1;
      }
      </style>
  </defs><g transform="translate(1,1)">
 <path 
    style="fill:currentColor;fill-opacity:1;stroke:none" 
    d="m333 537.3622v1 10.50391a2.5 2.5 0 0 0 -1.5 -.50391 2.5 2.5 0 0 0 -2.5 2.5 2.5 2.5 0 0 0 2.5 2.5 2.5 2.5 0 0 0 2.5 -2.5v-9.5h10v5.50391a2.5 2.5 0 0 0 -1.5 -.50391 2.5 2.5 0 0 0 -2.5 2.5 2.5 2.5 0 0 0 2.5 2.5 2.5 2.5 0 0 0 2.5 -2.5v-10.5-.5-.5h-11-1m1 1h10v2h-10v-2" transform="translate(-326-534.3622)"
    class="ColorScheme-Text"
    />  
</g></svg>
