<svg xmlns="http://www.w3.org/2000/svg" viewBox="0 0 24 24">
  <defs id="defs3051">
    <style type="text/css" id="current-color-scheme">
      .ColorScheme-Text {
        color:#eff0f1;
      }
      </style>
  </defs><g transform="translate(1,1)">
 <path 
    style="fill:currentColor;fill-opacity:1;stroke:none" 
    d="M 9 3 L 9 4 L 9 8 L 7.109375 8 L 5.9550781 8 L 2 14.849609 L 2 16.310547 L 2 19 L 6 19 L 16 19 L 20 19 L 20 16.310547 L 20 14.849609 L 16.044922 8 L 16 8 L 13 8 L 13 4 L 13 3 L 9 3 z M 10 4 L 12 4 L 12 11 L 13 11 L 13 9 L 15.46875 9 L 18.933594 15 L 16 15 L 15 17 L 7 17 L 6 15 L 3.0664062 15 L 6.53125 9 L 9 9 L 9 11 L 10 11 L 10 4 z M 6.7578125 10.34375 L 6.0507812 11.050781 L 11 16 L 15.949219 11.050781 L 15.242188 10.34375 L 11 14.585938 L 6.7578125 10.34375 z "
    class="ColorScheme-Text"
    />  
</g></svg>
