<svg xmlns="http://www.w3.org/2000/svg" viewBox="0 0 24 24">
  <defs id="defs3051">
    <style type="text/css" id="current-color-scheme">
      .ColorScheme-Text {
        color:#eff0f1;
      }
      </style>
  </defs><g transform="translate(1,1)">
 <path 
     style="fill:currentColor;fill-opacity:1;stroke:none" 
     d="M 11 6 A 10 9.9999752 0 0 0 2.3144531 11.070312 C 2.4995619 11.36174 2.7600799 11.597238 3.0664062 11.759766 A 9 8.9999781 0 0 1 11 7 A 4 4 0 0 0 7 11 A 4 4 0 0 0 11 15 A 4 4 0 0 0 15 11 A 4 4 0 0 0 11.34375 7.0175781 A 9 8.9999781 0 0 1 18.931641 11.761719 C 19.241063 11.598077 19.503624 11.359295 19.689453 11.064453 A 10 9.9999752 0 0 0 11 6 z M 11 8 A 3 3 0 0 1 14 11 A 3 3 0 0 1 11 14 A 3 3 0 0 1 8 11 A 3 3 0 0 1 11 8 z "
     class="ColorScheme-Text"
     />
 <path 
     style="fill:#da4453;fill-opacity:1;stroke:none" 
     d="M 11 9 A 1.9999999 2.0000005 0 0 0 9 11 A 1.9999999 2.0000005 0 0 0 11 13 A 1.9999999 2.0000005 0 0 0 13 11 A 1.9999999 2.0000005 0 0 0 12.910156 10.412109 A 0.99999984 1 0 0 1 12 11 A 0.99999984 1 0 0 1 11 10 A 0.99999984 1 0 0 1 11.589844 9.0898438 A 1.9999999 2.0000005 0 0 0 11 9 z "
     />
</g></svg>
