<svg xmlns="http://www.w3.org/2000/svg" viewBox="0 0 24 24">
  <defs id="defs3051">
    <style type="text/css" id="current-color-scheme">
      .ColorScheme-Text {
        color:#eff0f1;
      }
      </style>
  </defs><g transform="translate(1,1)">
 <path 
    style="fill:currentColor;fill-opacity:1;stroke:none" 
    d="M 9 3 L 11 5 L 13 3 L 9 3 z M 6 6 L 6 9 L 6 15 L 6 16 L 16 16 L 16 15 L 16 6 L 7 6 L 6 6 z M 3 9 L 3 13 L 5 11 L 3 9 z M 7 9 L 15 9 L 15 15 L 7 15 L 7 9 z M 19 9 L 17 11 L 19 13 L 19 9 z M 11 17 L 9 19 L 13 19 L 11 17 z "
	class="ColorScheme-Text"
    />  
</g></svg>
