<svg version="1.1" viewBox="0 0 24 24" xmlns="http://www.w3.org/2000/svg">
    <defs>
        <style type="text/css" id="current-color-scheme">.ColorScheme-Text {
        color:#eff0f1;
      }</style>
    </defs><g transform="translate(1,1)">
    <path class="ColorScheme-Text" fill="currentColor" d="m 19,11 c 0,1.441714 -0.382922,2.789289 -1.044922,3.955078 l -0.738281,-0.738281 c 0,0 0.002,-0.002 0.002,-0.002 l -2.777341,-2.77925 0.707032,-0.707031 2.480468,2.482422 C 17.861583,12.515315 18,11.776088 18,11 18,7.12203 14.878,4 11,4 9.8375,4 8.746103,4.285828 7.783203,4.783203 L 7.044922,4.044922 C 8.210722,3.382871 9.5583,3 11,3 c 4.432,0 8,3.568034 8,8 z m -4.044922,6.955078 C 13.789278,18.617129 12.4417,19 11,19 6.568,19 3,15.431966 3,11 3,9.558286 3.382922,8.210711 4.044922,7.044922 l 0.683594,0.683594 0.002,-0.00195 2.828125,2.828126 L 6.851609,11.261723 4.373094,8.783207 C 4.139126,9.480503 4,10.221736 4,11 c 0,3.87797 3.122,7 7,7 1.1625,0 2.253897,-0.285829 3.216797,-0.783203 z"/>
</g></svg>
