<svg id="svg6" version="1.1" viewBox="0 0 24 24" xmlns="http://www.w3.org/2000/svg">
    <defs id="defs3051">
        <style id="current-color-scheme" type="text/css">.ColorScheme-Text {
        color:#eff0f1;
      }</style>
    </defs><g transform="translate(1,1)">
    <path id="path4" class="ColorScheme-Text" d="m3 3v2h1v-1h1v-1zm4 0v1h1v1h1v-2zm5 0v1h6v6h1v-7zm-9 4v2h2v-1h-1v-1zm5 0v1h-1v1h2v-2zm-5 5v7h7v-1h-6v-6zm11.998047 0.429688v4.65625l-1.621094-1.621094-0.707031 0.707031 2.828125 2.828125 2.830078-2.828125-0.707031-0.707031-1.623047 1.621094v-4.65625z" fill="currentColor"/>
</g></svg>
