<?xml version="1.0" encoding="UTF-8"?>
<svg xmlns="http://www.w3.org/2000/svg" xmlns:xlink="http://www.w3.org/1999/xlink" width="32px" height="32px" viewBox="0 0 32 32" version="1.1">
<defs>
<linearGradient id="linear0" gradientUnits="userSpaceOnUse" x1="210.1978" y1="194.856537" x2="210.1978" y2="197.101593" gradientTransform="matrix(1.409796,1.409796,-1.409796,1.409796,-3.194127,-556.800269)">
<stop offset="0" style="stop-color:rgb(60.784316%,61.960787%,63.529414%);stop-opacity:1;"/>
<stop offset="1" style="stop-color:rgb(10.196079%,10.588235%,11.764706%);stop-opacity:1;"/>
</linearGradient>
<linearGradient id="linear1" gradientUnits="userSpaceOnUse" x1="11.641666" y1="11.641666" x2="1.058333" y2="1.058333" gradientTransform="matrix(1.691759,0,0,1.691759,0.00197721,10.742657)">
<stop offset="0" style="stop-color:rgb(30.980393%,32.549021%,33.725491%);stop-opacity:1;"/>
<stop offset="1" style="stop-color:rgb(60.784316%,61.960787%,63.529414%);stop-opacity:0.996078;"/>
</linearGradient>
<radialGradient id="radial0" gradientUnits="userSpaceOnUse" cx="24" cy="24" fx="24" fy="24" r="17" gradientTransform="matrix(0.447611,0,0,0.447611,0.00197721,10.742657)">
<stop offset="0" style="stop-color:rgb(0%,22.745098%,40.784314%);stop-opacity:0.00452489;"/>
<stop offset="0.882353" style="stop-color:rgb(0%,11.372549%,20.392157%);stop-opacity:0.0588235;"/>
<stop offset="1" style="stop-color:rgb(0%,0%,0%);stop-opacity:0.135747;"/>
</radialGradient>
<linearGradient id="linear2" gradientUnits="userSpaceOnUse" x1="18.999901" y1="19" x2="31" y2="31" gradientTransform="matrix(0.447611,0,0,0.447611,1.792422,12.533101)">
<stop offset="0" style="stop-color:rgb(0%,0%,0%);stop-opacity:0.366516;"/>
<stop offset="1" style="stop-color:rgb(0%,0%,0%);stop-opacity:0;"/>
</linearGradient>
<radialGradient id="radial1" gradientUnits="userSpaceOnUse" cx="0" cy="0" fx="0" fy="0" r="1" gradientTransform="matrix(7.60939,0,0,7.60939,10.744645,21.485235)">
<stop offset="0" style="stop-color:rgb(23.921569%,83.137256%,14.509805%);stop-opacity:0.954751;"/>
<stop offset="1" style="stop-color:rgb(34.901962%,94.117647%,48.627451%);stop-opacity:1;"/>
</radialGradient>
</defs>
<g id="surface121">
<path style=" stroke:none;fill-rule:nonzero;fill:url(#linear0);" d="M 17.160156 12.53125 L 20.144531 15.515625 L 17.90625 17.753906 L 14.921875 14.769531 Z M 17.160156 12.53125 "/>
<path style=" stroke:none;fill-rule:nonzero;fill:url(#linear1);" d="M 10.746094 30.4375 C 15.6875 30.4375 19.695312 26.429688 19.695312 21.484375 C 19.695312 16.542969 15.6875 12.53125 10.746094 12.53125 C 5.800781 12.53125 1.792969 16.542969 1.792969 21.484375 C 1.792969 26.429688 5.800781 30.4375 10.746094 30.4375 Z M 10.746094 30.4375 "/>
<path style=" stroke:none;fill-rule:nonzero;fill:rgb(93.725491%,97.254902%,100%);fill-opacity:1;" d="M 10.746094 29.09375 C 14.945312 29.09375 18.355469 25.6875 18.355469 21.484375 C 18.355469 17.28125 14.945312 13.875 10.746094 13.875 C 6.542969 13.875 3.136719 17.28125 3.136719 21.484375 C 3.136719 25.6875 6.542969 29.09375 10.746094 29.09375 Z M 10.746094 29.09375 "/>
<path style=" stroke:none;fill-rule:nonzero;fill:url(#radial0);" d="M 10.746094 13.875 C 6.542969 13.875 3.136719 17.28125 3.136719 21.484375 C 3.136719 25.6875 6.542969 29.09375 10.746094 29.09375 C 14.945312 29.09375 18.355469 25.6875 18.355469 21.484375 C 18.355469 17.28125 14.945312 13.875 10.746094 13.875 Z M 10.746094 14.769531 C 14.453125 14.769531 17.457031 17.777344 17.457031 21.484375 C 17.457031 25.195312 14.453125 28.199219 10.746094 28.199219 C 7.035156 28.199219 4.03125 25.195312 4.03125 21.484375 C 4.03125 17.777344 7.035156 14.769531 10.746094 14.769531 Z M 10.746094 14.769531 "/>
<path style=" stroke:none;fill-rule:nonzero;fill:rgb(0%,0%,0%);fill-opacity:0.38914;" d="M 19.6875 21.226562 C 19.636719 23.566406 18.675781 25.792969 17.003906 27.429688 C 15.332031 29.070312 13.085938 29.988281 10.746094 29.988281 C 8.417969 29.988281 6.179688 29.078125 4.511719 27.457031 C 2.839844 25.835938 1.871094 23.625 1.800781 21.296875 C 1.796875 21.359375 1.796875 21.421875 1.792969 21.484375 C 1.792969 22.660156 2.023438 23.824219 2.472656 24.910156 C 2.921875 25.996094 3.582031 26.984375 4.414062 27.816406 C 5.246094 28.648438 6.234375 29.304688 7.320312 29.757812 C 8.40625 30.207031 9.570312 30.4375 10.746094 30.4375 C 11.921875 30.4375 13.085938 30.207031 14.171875 29.757812 C 15.257812 29.304688 16.242188 28.648438 17.074219 27.816406 C 17.90625 26.984375 18.566406 25.996094 19.015625 24.910156 C 19.464844 23.824219 19.695312 22.660156 19.695312 21.484375 C 19.695312 21.398438 19.691406 21.3125 19.6875 21.226562 Z M 19.6875 21.226562 "/>
<path style=" stroke:none;fill-rule:nonzero;fill:url(#linear2);" d="M 18.355469 24.617188 L 18.355469 21.039062 L 10.113281 22.117188 L 16.117188 28.121094 Z M 18.355469 24.617188 "/>
<path style=" stroke:none;fill-rule:nonzero;fill:url(#radial1);" d="M 10.746094 13.875 C 11.742188 13.875 12.734375 14.074219 13.65625 14.457031 C 14.578125 14.835938 15.417969 15.398438 16.125 16.105469 C 16.832031 16.8125 17.390625 17.648438 17.773438 18.574219 C 18.15625 19.496094 18.355469 20.484375 18.355469 21.484375 L 10.746094 21.484375 Z M 10.746094 13.875 "/>
<path style="fill-rule:nonzero;fill:rgb(0%,13.333334%,24.313726%);fill-opacity:1;stroke-width:0.522801;stroke-linecap:butt;stroke-linejoin:miter;stroke:rgb(0%,13.333334%,24.313726%);stroke-opacity:1;stroke-miterlimit:4;" d="M 4.233904 8.466288 L 7.23097 8.469367 " transform="matrix(2.537638,0,0,2.537638,0.00197721,0)"/>
<path style=" stroke:none;fill-rule:nonzero;fill:rgb(40.784314%,41.960785%,43.529412%);fill-opacity:0.996078;" d="M 10.746094 22.378906 C 11.238281 22.378906 11.640625 21.980469 11.640625 21.484375 C 11.640625 20.992188 11.238281 20.589844 10.746094 20.589844 C 10.25 20.589844 9.847656 20.992188 9.847656 21.484375 C 9.847656 21.980469 10.25 22.378906 10.746094 22.378906 Z M 10.746094 22.378906 "/>
<path style=" stroke:none;fill-rule:nonzero;fill:rgb(53.333336%,54.901963%,56.078434%);fill-opacity:0.996078;" d="M 6.269531 10.742188 L 15.222656 10.742188 L 15.222656 12.53125 L 6.269531 12.53125 Z M 6.269531 10.742188 "/>
<path style=" stroke:none;fill-rule:nonzero;fill:rgb(60.784316%,61.960787%,63.529414%);fill-opacity:1;" d="M 10.746094 21.933594 C 10.992188 21.933594 11.191406 21.734375 11.191406 21.484375 C 11.191406 21.238281 10.992188 21.039062 10.746094 21.039062 C 10.496094 21.039062 10.296875 21.238281 10.296875 21.484375 C 10.296875 21.734375 10.496094 21.933594 10.746094 21.933594 Z M 10.746094 21.933594 "/>
</g>
</svg>
