<?xml version="1.0" encoding="UTF-8" standalone="no"?>
<!-- Created with Inkscape (http://www.inkscape.org/) -->

<svg
   xmlns:dc="http://purl.org/dc/elements/1.1/"
   xmlns:cc="http://creativecommons.org/ns#"
   xmlns:rdf="http://www.w3.org/1999/02/22-rdf-syntax-ns#"
   xmlns:svg="http://www.w3.org/2000/svg"
   xmlns="http://www.w3.org/2000/svg"
   xmlns:xlink="http://www.w3.org/1999/xlink"
   xmlns:sodipodi="http://sodipodi.sourceforge.net/DTD/sodipodi-0.dtd"
   xmlns:inkscape="http://www.inkscape.org/namespaces/inkscape"
   width="32"
   height="32"
   id="svg3084"
   version="1.1"
   inkscape:version="0.91 r13725"
   sodipodi:docname="umbrello3.svg">
  <defs
     id="defs3086">
    <linearGradient
       inkscape:collect="always"
       xlink:href="#linearGradient3941"
       id="linearGradient4726-5-8"
       gradientUnits="userSpaceOnUse"
       gradientTransform="matrix(1.4285711,0,0,1.4285711,-544.34638,-736.75214)"
       x1="394.34604"
       y1="545.12805"
       x2="383.14603"
       y2="533.92804" />
    <linearGradient
       inkscape:collect="always"
       id="linearGradient3941">
      <stop
         style="stop-color:#cd1f03;stop-opacity:1"
         offset="0"
         id="stop3943" />
      <stop
         style="stop-color:#d94460;stop-opacity:1"
         offset="1"
         id="stop3945" />
    </linearGradient>
    <linearGradient
       inkscape:collect="always"
       xlink:href="#linearGradient4578"
       id="linearGradient4584"
       gradientUnits="userSpaceOnUse"
       gradientTransform="matrix(1.4285711,0,0,1.4285711,-529.94935,-787.04977)"
       x1="403.00854"
       y1="547.57806"
       x2="383.14603"
       y2="533.92804" />
    <linearGradient
       id="linearGradient4578"
       inkscape:collect="always">
      <stop
         id="stop4580"
         offset="0"
         style="stop-color:#b21b03;stop-opacity:1" />
      <stop
         id="stop4582"
         offset="1"
         style="stop-color:#d94460;stop-opacity:1" />
    </linearGradient>
    <linearGradient
       inkscape:collect="always"
       xlink:href="#linearGradient4064"
       id="linearGradient4600"
       x1="11.369819"
       y1="-12.558744"
       x2="47.998947"
       y2="25.997604"
       gradientUnits="userSpaceOnUse"
       gradientTransform="translate(-3.6019157,-29.295625)" />
    <linearGradient
       id="linearGradient4064"
       inkscape:collect="always">
      <stop
         id="stop4066"
         offset="0"
         style="stop-color:#000000;stop-opacity:0.188" />
      <stop
         id="stop4068"
         offset="1"
         style="stop-color:#000000;stop-opacity:0;" />
    </linearGradient>
    <linearGradient
       inkscape:collect="always"
       xlink:href="#linearGradient4058"
       id="linearGradient4600-7"
       x1="2.1875"
       y1="20.018221"
       x2="31.6875"
       y2="48.455719"
       gradientUnits="userSpaceOnUse"
       gradientTransform="translate(-8.9989454,-21.997605)" />
    <linearGradient
       id="linearGradient4058"
       inkscape:collect="always">
      <stop
         id="stop4060"
         offset="0"
         style="stop-color:#000000;stop-opacity:0.145" />
      <stop
         id="stop4062"
         offset="1"
         style="stop-color:#000000;stop-opacity:0;" />
    </linearGradient>
    <linearGradient
       inkscape:collect="always"
       xlink:href="#linearGradient3941-1"
       id="linearGradient4726-5-8-3"
       gradientUnits="userSpaceOnUse"
       gradientTransform="matrix(1.4285711,0,0,1.4285711,-553.35201,-758.19971)"
       x1="394.34604"
       y1="545.12805"
       x2="383.14603"
       y2="533.92804" />
    <linearGradient
       inkscape:collect="always"
       id="linearGradient3941-1">
      <stop
         style="stop-color:#cd1f03;stop-opacity:1"
         offset="0"
         id="stop3943-4" />
      <stop
         style="stop-color:#d94460;stop-opacity:1"
         offset="1"
         id="stop3945-9" />
    </linearGradient>
    <linearGradient
       y2="533.92804"
       x2="383.14603"
       y1="545.12805"
       x1="394.34604"
       gradientTransform="matrix(1.4285711,0,0,1.4285711,-554.34638,-758.75215)"
       gradientUnits="userSpaceOnUse"
       id="linearGradient3228"
       xlink:href="#linearGradient3941"
       inkscape:collect="always" />
    <linearGradient
       inkscape:collect="always"
       xlink:href="#linearGradient3941-1"
       id="linearGradient3293"
       gradientUnits="userSpaceOnUse"
       gradientTransform="matrix(1.9226239,0,0,1.9226239,-735.53371,-1038.1719)"
       x1="394.34604"
       y1="545.12805"
       x2="383.14603"
       y2="533.92804" />
    <linearGradient
       inkscape:collect="always"
       xlink:href="#linearGradient4058"
       id="linearGradient3295"
       gradientUnits="userSpaceOnUse"
       gradientTransform="matrix(1.345837,0,0,1.345837,-2.9231774,-47.363775)"
       x1="5.8871746"
       y1="24.047321"
       x2="31.6875"
       y2="48.455719" />
    <linearGradient
       inkscape:collect="always"
       xlink:href="#linearGradient3941"
       id="linearGradient3297"
       gradientUnits="userSpaceOnUse"
       gradientTransform="matrix(1.7316013,0,0,1.7316013,-661.51436,-934.60626)"
       x1="394.34604"
       y1="545.12805"
       x2="383.14603"
       y2="533.92804" />
    <linearGradient
       gradientTransform="matrix(0.6999997,0,0,0.6999997,-303.00306,-370.37001)"
       gradientUnits="userSpaceOnUse"
       x2="419.97357"
       y2="539.82538"
       x1="406.50085"
       y1="527.01447"
       id="c">
      <stop
         id="stop17"
         stop-color="#292c2f" />
      <stop
         id="stop19"
         stop-opacity="0"
         offset="1" />
    </linearGradient>
    <linearGradient
       gradientUnits="userSpaceOnUse"
       x2="0"
       y2="14"
       y1="34"
       id="b"
       gradientTransform="matrix(0.6999997,0,0,0.6999997,-33.804187,-20.5102)">
      <stop
         style="stop-color:#bfc9c9;stop-opacity:1"
         id="stop12"
         stop-color="#536161" />
      <stop
         style="stop-color:#fbfbfb;stop-opacity:1"
         id="stop14"
         stop-color="#f4f5f5"
         offset="1" />
    </linearGradient>
    <linearGradient
       x1="428.81628"
       gradientTransform="matrix(0.6999997,0,0,0.6999997,-269.99888,-366.65981)"
       gradientUnits="userSpaceOnUse"
       x2="388.86475"
       y2="499.67896"
       y1="547.63354"
       id="a">
      <stop
         id="stop7"
         stop-color="#2a2c2f" />
      <stop
         id="stop9"
         stop-color="#536161"
         offset="1" />
    </linearGradient>
    <linearGradient
       inkscape:collect="always"
       xlink:href="#linearGradient3941"
       id="linearGradient3297-7"
       gradientUnits="userSpaceOnUse"
       gradientTransform="matrix(1.7316013,0,0,1.7316013,-663.51436,-920.60626)"
       x1="394.34604"
       y1="545.12805"
       x2="383.14603"
       y2="533.92804" />
  </defs>
  <sodipodi:namedview
     id="base"
     pagecolor="#ffffff"
     bordercolor="#666666"
     borderopacity="1.0"
     inkscape:pageopacity="0.0"
     inkscape:pageshadow="2"
     inkscape:zoom="11.313708"
     inkscape:cx="16.031202"
     inkscape:cy="10.884944"
     inkscape:current-layer="layer1"
     showgrid="true"
     inkscape:grid-bbox="true"
     inkscape:document-units="px"
     showguides="false"
     inkscape:guide-bbox="true"
     inkscape:window-width="1280"
     inkscape:window-height="782"
     inkscape:window-x="-2"
     inkscape:window-y="-1"
     inkscape:window-maximized="1"
     inkscape:snap-bbox="true"
     inkscape:bbox-nodes="true"
     inkscape:object-nodes="true"
     inkscape:snap-global="true">
    <inkscape:grid
       type="xygrid"
       id="grid3092"
       empspacing="5"
       visible="true"
       enabled="true"
       snapvisiblegridlinesonly="true" />
    <sodipodi:guide
       orientation="0.70710678,0.70710678"
       position="5.1923341,7.4540257"
       id="guide3299" />
    <sodipodi:guide
       orientation="0.70710678,0.70710678"
       position="6.9443487,4.4915283"
       id="guide3301" />
    <sodipodi:guide
       orientation="0.70710678,0.70710678"
       position="24.218407,21.213203"
       id="guide3303" />
    <sodipodi:guide
       orientation="0.70710678,0.70710678"
       position="11.932427,7.9107571"
       id="guide3305" />
    <sodipodi:guide
       orientation="1,0"
       position="2,24"
       id="guide3307" />
    <sodipodi:guide
       orientation="1,0"
       position="20,24"
       id="guide3309" />
    <sodipodi:guide
       orientation="0,1"
       position="-2,20"
       id="guide3311" />
    <sodipodi:guide
       orientation="0,1"
       position="-2,2"
       id="guide3313" />
    <sodipodi:guide
       orientation="0,1"
       position="-2,19"
       id="guide3315" />
    <sodipodi:guide
       orientation="1,0"
       position="3,24"
       id="guide3039" />
    <sodipodi:guide
       orientation="1,0"
       position="19,24"
       id="guide3041" />
    <sodipodi:guide
       orientation="0,1"
       position="-2,3"
       id="guide3043" />
    <sodipodi:guide
       orientation="1,0"
       position="11,30"
       id="guide3045" />
    <sodipodi:guide
       orientation="0,1"
       position="-6,11"
       id="guide3047" />
  </sodipodi:namedview>
  <metadata
     id="metadata3089">
    <rdf:RDF>
      <cc:Work
         rdf:about="">
        <dc:format>image/svg+xml</dc:format>
        <dc:type
           rdf:resource="http://purl.org/dc/dcmitype/StillImage" />
        <dc:title />
      </cc:Work>
    </rdf:RDF>
  </metadata>
  <g
     id="layer1"
     inkscape:label="Layer 1"
     inkscape:groupmode="layer"
     transform="translate(0,16)">
    <rect
       style="fill:url(#linearGradient3297);color:#000000;clip-rule:nonzero;display:inline;overflow:visible;visibility:visible;opacity:1;isolation:auto;mix-blend-mode:normal;color-interpolation:sRGB;color-interpolation-filters:linearRGB;solid-color:#000000;solid-opacity:1;fill-opacity:1;fill-rule:nonzero;stroke:none;stroke-width:1;stroke-linecap:butt;stroke-linejoin:miter;stroke-miterlimit:4;stroke-dasharray:none;stroke-dashoffset:0;stroke-opacity:1;marker:none;filter-blend-mode:normal;filter-gaussianBlur-deviation:0;color-rendering:auto;image-rendering:auto;shape-rendering:auto;text-rendering:auto;enable-background:accumulate"
       id="rect23"
       height="27.999989"
       rx="0.99998665"
       y="-14.000016"
       x="1.9999971"
       width="27.999989"
       ry="1.0000174" />
    <path
       sodipodi:nodetypes="ccccc"
       inkscape:connector-curvature="0"
       id="path3096"
       d="m 4,-12 24,0 0,24 -24,0 z"
       style="color:#000000;display:inline;overflow:visible;visibility:visible;fill:#f5d66c;fill-opacity:1;fill-rule:nonzero;stroke:none;stroke-width:1;marker:none;enable-background:accumulate" />
    <path
       sodipodi:nodetypes="ccccccccccccc"
       inkscape:connector-curvature="0"
       id="path3106"
       d="m 16.959067,-9.5528143 1.550333,1.550333 4.678335,1.7450151 4.805463,4.8129151 -0.058,13.3811171 -12.109601,0.0128 L 11.708449,7.9578095 11.47078,6.2340485 6.8312394,1.6531244 8.7940188,-4.1162558 11.35158,-6.5548601 16.228789,-8.1607708 Z"
       style="color:#000000;display:inline;overflow:visible;visibility:visible;fill:url(#linearGradient3295);fill-opacity:1;fill-rule:nonzero;stroke:none;stroke-width:1px;marker:none;enable-background:accumulate" />
    <path
       sodipodi:nodetypes="cccccccccccccccccccccccccccccccccccccccccccc"
       inkscape:connector-curvature="0"
       id="path3108"
       d="m 15.916221,-8.9373765 -0.0059,0.6126424 c -1.695025,0.1273164 -3.313181,0.5245846 -4.775045,1.3491776 -2.4886606,1.329231 -4.1770503,5.1864324 -4.2704158,7.8710151 0.00513,0.2450017 -0.052229,0.5198848 0.047288,0.7459923 0.2365557,0.3050742 0.8024719,0.3963974 1.0530192,0.056538 0.6440664,-0.7448196 1.6431417,-1.2653021 2.6899576,-1.2128412 0.978822,-0.049311 1.882885,0.4802699 2.454092,1.1913322 0.206395,0.2688497 0.644169,0.341015 0.914222,0.1164283 0.323952,-0.3036084 0.61131,-0.6559795 1.01001,-0.8884126 0.284641,-0.1775427 0.600392,-0.3032506 0.933623,-0.3639547 0.05796,2.337816 -0.002,3.3680286 0.009,5.7060727 C 15.996312,6.6331088 15.897342,7.016072 15.625,7.3125 15.143409,7.9236866 14.195422,8.14914 13.46681,7.796264 12.89128,7.5382723 12.512494,6.9731909 12.481133,6.3822697 12.452373,6.0895853 12.245757,5.7897059 11.905197,5.7696475 c -0.381851,-0.048195 -0.719541,0.2896191 -0.666873,0.6408774 -0.02323,1.2807594 1.066262,2.438606 2.393738,2.6810704 1.426638,0.298803 2.991144,-0.5383019 3.442008,-1.829959 0.255632,-0.6955417 0.118493,-1.4433564 0.162065,-2.1645132 0.01146,-1.9572644 -0.02914,-2.606519 0.03073,-4.5633648 0.783821,0.1513527 1.417283,0.6717734 1.903618,1.2354097 0.275611,0.2473514 0.759669,0.1919461 0.965147,-0.1096333 0.460052,-0.5643604 1.118281,-1.0142751 1.875729,-1.1348179 0.978167,-0.1873364 1.977063,0.1732564 2.715993,0.7640789 0.288919,0.1819234 0.504139,0.4815836 0.830559,0.6081003 0.420083,0.1242747 0.929363,-0.2361754 0.822073,-0.6623509 0.01318,-2.4933488 -1.326203,-6.2417768 -3.47138,-7.7093839 -1.486728,-1.0320149 -3.298656,-1.6169387 -5.138557,-1.7949093 -0.170757,-0.029205 -0.344726,-0.018479 -0.495895,-0.059904 l -0.012,-0.607726 c 0.0071,-0.9279559 -1.318073,-0.9148679 -1.345837,0 z m 6.540432,3.9603828 c 0.832674,0.6353938 1.954321,2.8248285 2.22901,4.31734574 -0.820867,-0.48325924 -1.497253,-0.48158224 -2.480342,-0.39064264 -0.978187,0.064546 -1.901886,0.85592952 -2.60333,1.4868458 -0.844192,-0.76396037 -2.016123,-1.5749402 -3.204624,-1.4916828 -1.038044,0.025087 -2.021263,0.4751195 -2.766919,1.1314264 C 12.49813,-0.969496 10.721473,-1.3508161 9.2072617,-0.8607173 8.877214,-0.7605602 8.5316867,-0.714873 8.5006393,-0.9970277 c 0.4142368,-1.960224 2.7385307,-4.3088469 3.6297657,-4.8183472 0.931201,-0.4797895 2.91181,-1.2252124 4.555531,-1.1651261 2.148225,-0.1128889 4.829006,1.1378406 5.770717,2.0035073 z"
       style="color:#000000;display:inline;overflow:visible;visibility:visible;fill:url(#linearGradient3293);fill-opacity:1;fill-rule:nonzero;stroke:none;stroke-width:1;marker:none;enable-background:accumulate" />
    <path
       inkscape:connector-curvature="0"
       style="color:#000000;clip-rule:nonzero;display:inline;overflow:visible;visibility:visible;opacity:0.3;isolation:auto;mix-blend-mode:normal;color-interpolation:sRGB;color-interpolation-filters:linearRGB;solid-color:#000000;solid-opacity:1;fill:#ffffff;fill-opacity:1;fill-rule:nonzero;stroke-width:1;stroke-linecap:butt;stroke-linejoin:miter;stroke-miterlimit:4;stroke-dasharray:none;stroke-dashoffset:0;stroke-opacity:1;color-rendering:auto;image-rendering:auto;shape-rendering:auto;text-rendering:auto;enable-background:accumulate"
       d="m 3,-14 c -0.553993,0 -1,0.44599 -1,1 l 0,1 c 0,-0.55401 0.446007,-1 1,-1 l 26,0 c 0.553993,0 1,0.44599 1,1 l 0,-1 c 0,-0.55401 -0.446007,-1 -1,-1 l -26,0 z"
       id="rect7042" />
    <path
       id="path7077"
       d="M 3,14 C 2.446007,14 2,13.554 2,13 l 0,-1 c 0,0.554 0.446007,1 1,1 l 26,0 c 0.553993,0 1,-0.446 1,-1 l 0,1 c 0,0.554 -0.446007,1 -1,1 L 3,14 Z"
       style="color:#000000;clip-rule:nonzero;display:inline;overflow:visible;visibility:visible;opacity:0.3;isolation:auto;mix-blend-mode:normal;color-interpolation:sRGB;color-interpolation-filters:linearRGB;solid-color:#000000;solid-opacity:1;fill:#000000;fill-opacity:1;fill-rule:nonzero;stroke-width:1;stroke-linecap:butt;stroke-linejoin:miter;stroke-miterlimit:4;stroke-dasharray:none;stroke-dashoffset:0;stroke-opacity:1;color-rendering:auto;image-rendering:auto;shape-rendering:auto;text-rendering:auto;enable-background:accumulate"
       inkscape:connector-curvature="0" />
  </g>
</svg>
