<svg height="32" width="32" xmlns="http://www.w3.org/2000/svg"><linearGradient id="b" gradientTransform="matrix(1 0 0 .99 -386.57 -492.862)" gradientUnits="userSpaceOnUse" x1="386.57" x2="386.57" y1="527.133" y2="504.911"><stop offset="0" stop-color="#1d1e1e"/><stop offset="1" stop-color="#44484c"/></linearGradient><linearGradient id="a" gradientUnits="userSpaceOnUse" x1="-2" x2="-2" y1="30" y2="2"><stop offset="0" stop-color="#c6cdd1"/><stop offset="1" stop-color="#e0e5e7"/></linearGradient><path d="M2 2v28h28V2z" fill="url(#a)"/><path d="M2 7h28v20H2z" fill="url(#b)"/><path d="M2 2h28v4H2z" fill="#566069"/><path d="M2 6h28v1H2z" fill="#3daee9"/><rect fill="#eff0f1" height="2" rx="1" width="2" x="27" y="3"/><circle cx="7.5" cy="21.5" fill="#eff0f1" r="3.5"/><circle cx="7.5" cy="21.5" fill="#3daefd" r="2.5"/><path d="M13 11h2v1h-2zm3 0h3v1h-3z" fill="#da4453"/><path d="M22 11h3v1h-3zm0 2h6v1h-6zm4-2h2v1h-2z" fill="#95a5a6"/><path d="M13 13h4v1h-4zm5 0h2v1h-2z" fill="#bdc3c7"/><path d="M13 20h2v1h-2zm3 0h3v1h-3z" fill="#3daefd"/><path d="M22 20h4v1h-4z" fill="#95a5a6"/><path d="M13 22h3v1h-3z" fill="#bdc3c7"/><path d="M22 22h3v1h-3zm4 0h1v1h-1zm1-2h1v1h-1z" fill="#95a5a6"/><g fill-rule="evenodd"><path d="M7.5 8.92l-3.501 1.467s.416 1.902.867 3c.225.551.5 1.121.889 1.617s.965.99 1.745.99 1.354-.494 1.743-.99.664-1.066.889-1.617c.451-1.102.869-3 .869-3z" fill="#eff0f1"/><path d="M5 11l2.5-1 2.5 1s-.928 4-2.5 4S5 11 5 11" fill="#da4453"/></g><path d="M2 29h28v1H2z" fill="#99a1a7"/></svg>