<svg height="32" width="32" xmlns="http://www.w3.org/2000/svg" xmlns:xlink="http://www.w3.org/1999/xlink"><linearGradient id="h" gradientUnits="userSpaceOnUse" x1="30" x2="30" xlink:href="#a" y1="30" y2="8"/><linearGradient id="g" gradientUnits="userSpaceOnUse" x1="34" x2="48" y1="16" y2="30"><stop offset="0" stop-color="#292c2f"/><stop offset="1" stop-opacity="0"/></linearGradient><linearGradient id="d" gradientUnits="userSpaceOnUse" x1="10" x2="10" xlink:href="#b" y1="8" y2="2"/><linearGradient id="b" gradientUnits="userSpaceOnUse" x2="0" y1="30" y2="8"><stop offset="0" stop-color="#cea476"/><stop offset="1" stop-color="#dab58b"/></linearGradient><linearGradient id="e" gradientTransform="matrix(.35 0 0 .70968 -120 -355.923)" gradientUnits="userSpaceOnUse" x1="411.427" x2="411.427" y1="543.8" y2="512.8"><stop offset="0" stop-color="#73ba25"/><stop offset="1" stop-color="#81c13b" stop-opacity=".85"/></linearGradient><linearGradient id="c" gradientTransform="matrix(.66667 0 0 -.37037 -256.38 197.926)" gradientUnits="userSpaceOnUse" x1="408.57" x2="408.57" y1="512.798" y2="504.698"><stop offset="0" stop-color="#ebc69a"/><stop offset="1" stop-color="#73ba25" stop-opacity="0"/></linearGradient><linearGradient id="f" gradientTransform="translate(-256.38 -333.867) scale(.66667)" gradientUnits="userSpaceOnUse" x1="408.57" x2="408.57" xlink:href="#c" y1="512.801" y2="503.801"><stop offset="0" stop-color="#ebc69a"/><stop offset="1" stop-color="#f4e0c8" stop-opacity="0"/></linearGradient><linearGradient id="a" gradientUnits="userSpaceOnUse" x2="0" y1="30" y2="8"><stop offset="0" stop-color="#cfd2d5"/><stop offset="1" stop-color="#eff0f1"/></linearGradient><path d="M6 2L2 8h28l-4-6H7z" fill="url(#d)" fill-rule="evenodd"/><path d="M2 8h28v22H2z" fill="url(#b)"/><path d="M2 8h12v22H2z" fill="url(#a)"/><path d="M14 8h16v22H14z" fill="url(#e)"/><path d="M3 24v5h5v-5zm1 1h1v1h1v-1h1v2H6v1H5v-1H4z" fill="#5c4c3e"/><g stroke-opacity=".55" stroke-width="1.867"><path d="M14 2v9l1-1 1 1 1-1s1 1 1 .972V2z" fill="#f4e0c8"/><path d="M14 2h4v6h-4z" fill="url(#f)"/><path d="M14 8v3l1-1 1 1 1-1s1 1 1 .973V8z" fill="url(#c)"/></g><path d="M20 16v4l3.383 3.383L22 26l1 1-7 1 2 2h12v-8l-6-6zm-4 12l2-1-1-1z" fill="url(#g)" opacity=".2"/><path d="M20 16v4h1v-3h2v3h1v-4h-3zm-2.195 4l-.805.832L22 26l5-5.168-.805-.832L22 24.338zM16 26v2h12v-2h-1v1H17v-1z" fill="url(#h)"/><path d="M2 29v1h12v-1z" fill="#adb1b3"/><path d="M14 29h16v1H14z" fill="#649e26"/></svg>