<svg xmlns="http://www.w3.org/2000/svg" viewBox="0 0 24 24">
  <defs id="defs3051">
    <style type="text/css" id="current-color-scheme">
      .ColorScheme-Text {
        color:#232629;
      }
      </style>
  </defs><g transform="translate(1,1)">
  <g
     transform="translate(-421.71429,-525.79074)">
    <path
       style="opacity:1;fill:currentColor;fill-opacity:1;stroke:none" 
       d="m 422.71429,528.79074 0,1 0,14 0,0.41406 0,0.58594 1,0 19,0 0,-0.58594 0,-0.41406 0,-1 0,-14 -0.0488,0 -0.95117,0 -17.53711,0 -0.46289,0 -1,0 z m 1,1 0.0488,0 5.97461,5.97656 -6.02344,6.02344 0,-12 z m 1.46289,0 15.07422,0 -7.53711,7.53711 -7.53711,-7.53711 z m 16.48828,0 0.0488,0 0,12 -6.02344,-6.02344 5.97461,-5.97656 z m -11.2207,6.68359 2.26953,2.26758 2.26953,-2.26758 6.26758,6.26758 0.46289,0.46289 0,0.58594 -18,0 0,-0.58594 0.46289,-0.46289 6.26758,-6.26758 z"
       id="rect4144" 
        class="ColorScheme-Text"/>
  </g>
</g></svg>
