<svg xmlns="http://www.w3.org/2000/svg" viewBox="0 0 24 24">
  <defs id="defs3051">
    <style type="text/css" id="current-color-scheme">
      .ColorScheme-Text {
        color:#232629
      }
      </style>
  </defs><g transform="translate(1,1)">
    <path
       style="fill:currentColor;fill-opacity:1;stroke:none" 
       d="M 11 3 L 7 7 L 9.75 7 L 9.75 10 L 12.25 10 L 12.25 7 L 15 7 L 11 3 z M 5.9550781 8 L 2 14.849609 L 2 16.310547 L 2 19 L 6 19 L 16 19 L 20 19 L 20 16.310547 L 20 14.849609 L 16.044922 8 L 16 8 L 13 8 L 13 9 L 15.46875 9 L 18.933594 15 L 16 15 L 15 17 L 7 17 L 6 15 L 3.0664062 15 L 6.53125 9 L 9 9 L 9 8 L 7.109375 8 L 5.9550781 8 z "
       class="ColorScheme-Text" />
</g></svg>
