<svg xmlns="http://www.w3.org/2000/svg" viewBox="0 0 24 24">
  <defs id="defs3051">
    <style type="text/css" id="current-color-scheme">
      .ColorScheme-Text {
        color:#232629
      }
      </style>
  </defs><g transform="translate(1,1)">
    <path
       style="fill:currentColor;fill-opacity:1;stroke:none" 
       d="M 8 3 L 8 5 L 4 5 L 4 6 L 5 6 L 5 19 L 6 19 L 17 19 L 17 18 L 17 6 L 18 6 L 18 5 L 14 5 L 14 3 L 8 3 z M 9 4 L 13 4 L 13 5 L 9 5 L 9 4 z M 6 6 L 8 6 L 9 6 L 13 6 L 14 6 L 16 6 L 16 18 L 6 18 L 6 6 z M 8 9 L 8 15 L 9 15 L 9 9 L 8 9 z M 13 9 L 13 15 L 14 15 L 14 9 L 13 9 z "
       class="ColorScheme-Text" />
</g></svg>
