<svg xmlns="http://www.w3.org/2000/svg" viewBox="0 0 16 16">
  <defs id="defs3051">
    <style type="text/css" id="current-color-scheme">
      .ColorScheme-Text {
        color:#232629;
      }
      </style>
  </defs>
    <path 
        style="fill:currentColor;fill-opacity:1;stroke:none" 
        d="M 5 2 L 5 4 L 5 10.275391 C 4.705 10.104292 4.3669285 10 4 10 C 2.8920048 10 2 10.892005 2 12 C 2 13.107995 2.8920048 14 4 14 C 5.1079952 14 6 13.107995 6 12 L 6 6 L 13 6 L 13 8.2753906 C 12.705 8.1042919 12.366929 8 12 8 C 10.892005 8 10 8.8920048 10 10 C 10 11.107995 10.892005 12 12 12 C 13.107995 12 14 11.107995 14 10 L 14 2 L 5 2 z M 6 4 L 13 4 L 13 5 L 6 5 L 6 4 z " 
        class="ColorScheme-Text"/>
</svg>
