<svg viewBox="0 0 16 16" xmlns="http://www.w3.org/2000/svg">
    <style type="text/css" id="current-color-scheme">.ColorScheme-Text {color:#232629;}</style>
    <path d="M5 2a1 1 0 0 0-1 1 1 1 0 0 0 1 1 1 1 0 0 0 1-1 1 1 0 0 0-1-1zm5 0L8.5 3.5 11 6 8.5 8.5 10 10l4-4zM3.25 6.5A1.25 1.25 0 0 0 2 7.75 1.25 1.25 0 0 0 3.25 9 1.25 1.25 0 0 0 4.5 7.75 1.25 1.25 0 0 0 3.25 6.5zM6.5 11A1.5 1.5 0 0 0 5 12.5 1.5 1.5 0 0 0 6.5 14 1.5 1.5 0 0 0 8 12.5 1.5 1.5 0 0 0 6.5 11z" class="ColorScheme-Text" fill="currentColor"/>
</svg>
