<svg version="1.1" viewBox="0 0 22 22" xmlns="http://www.w3.org/2000/svg">
    <defs>
        <style type="text/css" id="current-color-scheme">
            .ColorScheme-Text {
                color:#232629;
            }
        </style>
    </defs>
    <path style="fill:currentColor;fill-opacity:1;stroke:none"
          d="m14 11c-2.215995 0-4 1.784005-4 4s1.784005 4 4 4 4-1.784005 4-4-1.784005-4-4-4m0 1c1.661995 0 3 1.338005 3 3s-1.338005 3-3 3-3-1.338005-3-3 1.338005-3 3-3m-1 1v3h2v-1h-1v-2h-1m-9-10v16h6v-1h-5v-14h8v4h4v3h1v-4.0078125l-3.992188-3.9921875-0.007812 0.0097656v-0.0097656h-9z"
          class="ColorScheme-Text"
    />
</svg>
