<svg xmlns="http://www.w3.org/2000/svg" viewBox="0 0 22 22">
  <defs id="defs3051">
    <style type="text/css" id="current-color-scheme">
      .ColorScheme-Text {
        color:#232629;
      }
      </style>
  </defs>
 <path 
    style="fill:currentColor;fill-opacity:1;stroke:none" 
	d="m4 3v16h1 7v-1h-7v-14h12v9h1v-10h-1-12-1m9 8c-1.662003 0-3 1.337997-3 3 0 1.662003 1.337997 3 3 3 .649392 0 1.246354-.208586 1.736328-.556641l2.556641 2.556641.707031-.707031-2.556641-2.556641c.348055-.489974.556641-1.086936.556641-1.736328 0-1.662003-1.337997-3-3-3m0 1c1.108003 0 2 .891997 2 2 0 1.108003-.891997 2-2 2-1.108003 0-2-.891997-2-2 0-1.108003.891997-2 2-2"
    class="ColorScheme-Text"
    />
</svg>
