<svg version="1.1" viewBox="0 0 22 22" xmlns="http://www.w3.org/2000/svg">
    <defs>
        <style type="text/css" id="current-color-scheme">.ColorScheme-Text {
        color:#232629;
      }</style>
    </defs>
    <g fill="currentColor">
        <path class="ColorScheme-Text" d="m11 21.587891c0.7415-0.4706 7e-3 1.8e-5 0.78125-0.488282l8.21875-5.46875v-8.8125-0.40625c-1.14882-0.7517-0.22209-0.1443-0.75-0.5l-7.34375-4.90625c-0.89535-0.5962-8e-3 5e-5 -0.90625-0.59375-8.02331 5.3242-6.05377 4.0138-8.375 5.5625-0.63161 0.4616-0.11719 0.09495-0.625 0.46875v0.375 7.59375 1.21875c2.3238 1.5467 0.33991 0.2266 0.5625 0.375l7.65625 5.09375 0.40625 0.25c0.28276 0.182-1.22337-0.790818 0.375 0.238282zm0.5-1.519532v-7.75l0.0625-0.09375 0.21875-0.125 7.21875-4.8125v7.78125zm-1 0-7.5-5v-7.625l7.5 5zm0.375-8.59375-7.3125-4.875 7.4375-4.96875 7.34375 4.875-7.125 4.75z"  fill="currentColor"/>
        <path class="ColorScheme-Text" d="m11.417969 20.125c0.01267 0 1.749375-1.147228 3.859375-2.548828l3.835937-2.548828v-3.957032c0-2.1774-0.01129-3.958984-0.02539-3.958984-0.01408 0-1.750785 1.148535-3.859375 2.552734l-3.833984 2.552735v3.955078c0 2.1748 0.01074 3.953125 0.02344 3.953125z"  fill="currentColor" fill-opacity=".2"/>
        <path class="ColorScheme-Text" d="m10.910156 11.605469c0.11473-0.0047 7.682972-5.111297 7.638672-5.154297-0.02192-0.0211-1.721544-1.164563-3.777344-2.539063s-3.749471-2.492421-3.763672-2.482421c-0.64001 0.4148-7.602374 5.125437-7.609374 5.148437-0.01503 0.0498 7.427418 5.027344 7.511718 5.027344z"  fill="currentColor" fill-opacity=".4"/>
        <path class="ColorScheme-Text" d="m10.572266 20.1875c0.0126 0 0.02416-1.751125 0.02344-3.890625l-2e-3 -3.888672-3.832031-2.564453c-2.10711-1.41-3.835797-2.566406-3.841797-2.566406-0.0064-0.0017-0.01172 1.752737-0.01172 3.898437v3.900391l3.820358 2.55664c2.10146 1.4055 3.83115 2.554688 3.84375 2.554688z"  fill="currentColor" fill-opacity=".6"/>
    </g>
</svg>
