<svg version="1.1" viewBox="0 0 22 22" xmlns="http://www.w3.org/2000/svg">
    <defs>
        <style type="text/css" id="current-color-scheme">.ColorScheme-Text {
        color:#232629;
      }</style>
    </defs>
    <path transform="matrix(0,1.2074206,-1.2074206,0,22.608572,-3.9083109)" d="m11.634657 8.8861029c0.552985-0.3853403 1.258126 0.070243 1.477937 0.6133618 0.379461 0.9375863-0.310798 1.9289563-1.214091 2.2028653-1.305359 0.395829-2.6098329-0.551482-2.9277924-1.8148215-0.4201295-1.6692878 0.7918673-3.2947188 2.4155504-3.6527199 2.031877-0.4480026 3.981632 1.0320287 4.377648 3.0162804 0.477767 2.39387-1.272046 4.669716-3.61701 5.102575-2.7555531 0.50865-5.3585413-1.511971-5.8275028-4.21774-0.5402455-3.117056 1.7518334-6.0478627 4.8184698-6.5524298 3.478447-0.5723242 6.737535 1.9916529 7.277357 5.4191991 0.41598 2.6412177-0.808245 5.3270537-3.00795 6.8235667" class="ColorScheme-Text" fill="none" stroke="currentColor"/>
</svg>
