<svg version="1.1" viewBox="0 0 22 22" xmlns="http://www.w3.org/2000/svg">
    <defs>
        <style type="text/css" id="current-color-scheme">.ColorScheme-Text {
        color:#232629;
      }</style>
    </defs>
    <path class="ColorScheme-Text" transform="translate(-.99999-.99999)" d="m8 4v2.500001c0 0.831-0.669 1.5-1.5 1.5h-2.5v8h2.5c0.831 0 1.5 0.669 1.5 1.5v2.5h8v-2.5c0-0.831 0.669-1.5 1.5-1.5h2.5v-8h-2.5c-0.831 0-1.5-0.669-1.5-1.5v-2.5h-8m1 1h6v1.5c0 1.385 1.115 2.5 2.5 2.5h1.5v6h-1.5c-1.385 0-2.5 1.115-2.5 2.5v1.5h-6v-1.5c0-1.385-1.115-2.5-2.5-2.5h-1.5v-6h1.5c1.385 0 2.5-1.115 2.5-2.5v-1.5" fill="currentColor"/>
    <path d="m7.701187 17.479592c-0.0163063-1.178016-0.0288537-1.254917-0.2918906-1.788963-0.2697273-0.54763-0.7070586-0.978612-1.2482631-1.230143-0.503504-0.234009-0.6325125-0.254128-1.7536694-0.273498l-1.005912-0.01738v-6.4358588l0.9525007-6.195e-4c1.0219134-6.621e-4 1.2413726-0.0258856 1.6455898-0.1891277 0.7953652-0.321206 1.3775145-0.9749617 1.6233331-1.8230089 0.0500192-0.1725604 0.0645368-0.4073421 0.0775196-1.2536604l0.015975-1.0413353h6.4385489l4.66e-4 0.9167323c3.84e-4 0.7539166 0.01223 0.9736387 0.06671 1.2371436 0.185478 0.8971454 0.78979 1.6194676 1.643239 1.9641301 0.404216 0.1632421 0.623676 0.1884645 1.645588 0.1891278l0.952503 6.18e-4v6.4438268h-0.811005c-1.189591 0-1.580354 0.0691-2.139822 0.378387-0.349507 0.193217-0.838314 0.69981-1.027063 1.064438-0.280731 0.542317-0.304279 0.678411-0.321681 1.859191l-0.01534 1.041337h-6.4329119z" class="ColorScheme-Text" fill="currentColor" fill-opacity=".50196078"/>
</svg>
