<svg xmlns="http://www.w3.org/2000/svg" viewBox="0 0 22 22">
  <defs id="defs3051">
    <style type="text/css" id="current-color-scheme">
      .ColorScheme-Text {
        color:#232629;
      }
      </style>
  </defs>
 <path 
    style="fill:currentColor;fill-opacity:1;stroke:none" 
    d="M 4 3 L 4 4 L 4 17 L 5 17 L 7 17 L 8 17 L 8 18 L 8 19 L 13 19 L 13 18 L 9 18 L 9 7 L 17 7 L 17 12 L 18 12 L 18 7 L 18 6 L 16 6 L 16 3 L 15 3 L 5 3 L 4 3 z M 5 4 L 15 4 L 15 6 L 8 6 L 8 7 L 8 16 L 7 16 L 5 16 L 5 4 z M 15 13 L 15 14 L 14 14 L 14 15 L 15 15 L 15 17 L 14 17 L 14 18 L 15 18 L 15 19 L 16 19 L 16 18 L 18 18 L 18 19 L 19 19 L 19 18 L 20 18 L 20 17 L 19 17 L 19 15 L 20 15 L 20 14 L 19 14 L 19 13 L 18 13 L 18 14 L 16 14 L 16 13 L 15 13 z M 16 15 L 18 15 L 18 17 L 16 17 L 16 15 z "
    class="ColorScheme-Text"
    />  
</svg>
