<svg id="svg9" version="1.1" viewBox="0 0 22 22" xmlns="http://www.w3.org/2000/svg">
    <style id="current-color-scheme" type="text/css">.ColorScheme-Text{color:#232629;}.ColorScheme-NegativeText{color:#da4453;}</style>
    <g id="g7" transform="matrix(3.7795276,0,0,3.7795276,0,-1100.5196)" fill="currentColor" stroke-width=".264583">
        <path id="path3" class="ColorScheme-Text" fill="currentColor" transform="matrix(.26458333 0 0 .26458333 0 291.17915)" d="m11 8v0.9882812l1.011719 1.0117188h1.988281v1.988281l1.867188 1.867188c0.27847 0.08471 0.566311 0.143978 0.863281 0.144531h3.269531v-6h-3.269531c-0.851739 0.0015874-1.662651 0.365115-2.230469 1h-1.5v-1zm-9 1v4h8.982422l-1.0000001-1h-6.9824219v-2h4.9824219l-1-1zm14.730469 0h2.269531v4h-2.269531c-0.713964-5.67e-4 -1.373481-0.381707-1.730469-1v-2h2e-3c0.356637-0.617726 1.01525-0.9987528 1.728516-1z"/>
        <path id="path5" class="ColorScheme-NegativeText" fill="currentColor" d="m0.79375004 292.16 0.1870889-0.18709 4.0462444 4.04624-0.1870887 0.18709z"/>
    </g>
</svg>
