<svg viewBox="0 0 22 22" xmlns="http://www.w3.org/2000/svg">
    <defs>
        <style id="current-color-scheme" type="text/css">.ColorScheme-Text {
        color:#232629;
      }</style>
    </defs>
    <path class="ColorScheme-Text" d="m1 3v1 8 6 0.414062 0.585938h1 6 6v-1h-6-6v-0.585938l0.4628906-0.46289 6.2675782-6.267578 1.4531252 1.451172 0.814453 0.814453h0.001953l0.816406-0.814453 1.453125-1.451172 1.316407 1.316406h1.414062l-2.023438-2.0234375 5.751954-5.7539063 0.222656-0.2226562h0.048828v0.2226562 7.7773438h1v-9h-0.048828-0.951172-0.462891-17.074218-0.4628906-1zm1 1h0.0488281l0.2226563 0.2226562 5.7519531 5.7539063-6.0234375 6.0234375v-4-7.7773438-0.2226562zm1.4628906 0h15.074218l-7.537109 7.537109-7.5371094-7.537109z" fill="currentColor"/>
    <path d="m21 16c0-1.661995-1.338005-3-3-3s-3 1.338005-3 3 1.338005 3 3 3 3-1.338005 3-3zm-1 0c0 0.371625-0.106065 0.714197-0.28125 1.011719l-2.730469-2.730469c0.297522-0.175185 0.640094-0.28125 1.011719-0.28125 1.107997 0 2 0.892003 2 2zm-0.988281 1.71875c-0.297522 0.175185-0.640094 0.28125-1.011719 0.28125-1.107997 0-2-0.892003-2-2 0-0.371625 0.106065-0.714197 0.28125-1.011719z" fill="#da4453"/>
</svg>
