<svg version="1.1" viewBox="0 0 22 22" xmlns="http://www.w3.org/2000/svg">
    <defs>
        <style type="text/css" id="current-color-scheme">.ColorScheme-Text {
        color:#232629;
      }</style>
    </defs>
    <g class="ColorScheme-Text" fill="currentColor" fill-opacity=".5">
        <path d="m4.9191813 15.518593v-2.63667h3.2463991v5.273339h-3.2463991z"/>
        <path d="m12.774834 17.091999c0.0077-0.01379 0.512473-0.80757 1.121645-1.763956 0.975961-1.532233 1.110318-1.735217 1.130571-1.708037 0.04471 0.06 2.218561 3.476388 2.218561 3.486649 0 0.0058-1.009089 0.01043-2.242419 0.01043-1.916787 0-2.240376-0.0036-2.228358-0.02507z"/>
        <path d="m12.862147 6.520958v-2.7025861h5.322777v5.4051722h-5.322777z"/>
        <path d="m6.2763231 9.1639484c-0.6529891-0.0762877-1.1981233-0.3267017-1.634075-0.7506327-0.4453128-0.4330339-0.7094046-0.9464679-0.7917201-1.5392217-0.0245074-0.1764788-0.0243987-0.5319473 2.159e-4 -0.7056543 0.1753615-1.2375409 1.2258851-2.2050635 2.4768825-2.281186 0.8287057-0.0504263 1.5579411 0.2221855 2.1296604 0.7961357 0.3641335 0.3655547 0.5961667 0.793031 0.7128603 1.3133068 0.0572949 0.2554482 0.057718 0.7963978 8.226e-4 1.0527482-0.2362021 1.0642625-1.0503154 1.857473-2.1272935 2.0726746-0.1808904 0.0361457-0.6139439 0.0597517-0.7673531 0.0418294z"/>
    </g>
    <path d="m6.5 3c-1.9390083 0-3.5 1.5609917-3.5 3.5s1.5609917 3.5 3.5 3.5 3.5-1.5609917 3.5-3.5-1.5609917-3.5-3.5-3.5zm5.5 0v7h7v-7h-7zm-5.5 1a2.5 2.5 0 0 1 2.5 2.5 2.5 2.5 0 0 1-2.5 2.5 2.5 2.5 0 0 1-2.5-2.5 2.5 2.5 0 0 1 2.5-2.5zm6.5 0h5v5h-5v-5zm-9 8v7h5v-7h-5zm11 0-4 6h8l-4-6zm-10 1h3v5h-3v-5zm10 0.720703 1.064453 1.638672 1.064453 1.640625h-2.128906-2.128906l1.064453-1.640625 1.064453-1.638672z" class="ColorScheme-Text" fill="currentColor"/>
</svg>
