<svg xmlns="http://www.w3.org/2000/svg" viewBox="0 0 22 22">
  <defs id="defs3051">
    <style type="text/css" id="current-color-scheme">
      .ColorScheme-Text {
        color:#232629;
      }
      .ColorScheme-Highlight {
        color:#3daee9;
      }
      </style>
  </defs>
 <path 
     style="fill:currentColor;fill-opacity:1;stroke:none" 
     d="M 3 3 L 3 19 L 11 19 L 11 18 L 4 18 L 4 7 L 18 7 L 18 9 L 19 9 L 19 3 L 17 3 L 17 6 L 15 6 L 15 3 L 7 3 L 7 6 L 5 6 L 5 3 L 3 3 z M 5 8 L 5 11 L 6 11 L 6 10 L 10 10 L 10 11 L 11 11 L 11 9 L 11 8 L 10 8 L 10 9 L 6 9 L 6 8 L 5 8 z M 12 10 L 12 19 L 19 19 L 19 10 L 12 10 z M 13 11 L 18 11 L 18 13 L 13 13 L 13 11 z M 13 14 L 18 14 L 18 18 L 13 18 L 13 14 z M 14 15 L 14 16 L 15 16 L 15 15 L 14 15 z M 16 15 L 16 17 L 17 17 L 17 15 L 16 15 z "
     class="ColorScheme-Text"
     />
</svg>
