<svg viewBox="0 0 24 24" xmlns="http://www.w3.org/2000/svg">
    <style id="current-color-scheme" type="text/css">.ColorScheme-Text{color:#232629;}.ColorScheme-NegativeText{color:#da4453;}</style><g transform="translate(1,1)">
    <path class="ColorScheme-NegativeText" d="m21 11a4 4 0 0 0-4-4 4 4 0 0 0-2.449219 0.84375l-0.0039-0.00391-0.0332 0.033203a4 4 0 0 0-0.66211 0.662109l-0.01172 0.011719 2e-3 0.00195a4 4 0 0 0-0.841851 2.451179 4 4 0 0 0 4 4 4 4 0 0 0 2.449219-0.84375l0.0039 0.0039 0.0332-0.0332a4 4 0 0 0 0.662109-0.662109l0.01172-0.01172-2e-3 -2e-3a4 4 0 0 0 0.841852-2.451121zm-1 0a3 3 0 0 1-0.556641 1.736328l-4.177734-4.177734a3 3 0 0 1 1.734375-0.558594 3 3 0 0 1 3 3zm-1.265625 2.441406a3 3 0 0 1-1.734375 0.558594 3 3 0 0 1-3-3 3 3 0 0 1 0.556641-1.736328z" fill="currentColor"/>
    <path class="ColorScheme-Text" d="m10.988281 3-4.988281 4.9902344v6.0195316l4.988281 4.990234h1.011719v-16zm-7.988281 5v6h2v-6z" fill="currentColor"/>
</g></svg>
