<svg version="1.1" viewBox="0 0 24 24" xmlns="http://www.w3.org/2000/svg">
    <style type="text/css">
        .ColorScheme-Text {
            color:#232629;
            }
            .ColorScheme-NeutralText {
                color:#f67400;
            }
        </style><g transform="translate(1,1)">
    <path d="m3 3v16h10v-1h-9v-8h3v-0.01l8e-3 0.01 2-2h8.99219v3h1v-6h-6.99238l-2-2-8e-3 0.01v-0.01h-6z" class="ColorScheme-Text" fill="currentColor"/>
    <path d="m17.00781 12c-1.656854 0-3 0.447715-3 1v5c0 0.552285 1.343146 1 3 1s3-0.447715 3-1v-5c0-0.552285-1.343146-1-3-1zm0 1c0.739186 8.7e-4 1.451386 0.09268 2 0.257812v0.486329c-0.549483 0.164426-1.261587 0.255525-2 0.255859-0.739186-8.7e-4 -1.451386-0.09268-2-0.257812v-0.486329c0.549483-0.164426 1.261587-0.255525 2-0.255859zm-2 1.744141c0.549483 0.164426 1.261587 0.255525 2 0.255859 0.738413-3.34e-4 1.450517-0.09143 2-0.255859v1c-0.549483 0.164426-1.261587 0.255525-2 0.255859-0.739186-8.7e-4 -1.451386-0.09268-2-0.257812z" class="ColorScheme-NeutralText" fill="currentColor"/>
</g></svg>
