<svg xmlns="http://www.w3.org/2000/svg" viewBox="0 0 24 24">
  <defs id="defs3051">
    <style type="text/css" id="current-color-scheme">
      .ColorScheme-Text {
        color:#232629;
      }
      .ColorScheme-NegativeText {
        color:#da4453;
      }
      </style>
  </defs><g transform="translate(1,1)">
  <path 
     style="fill:currentColor;fill-opacity:1;stroke:none" 
     d="M 2 8 L 2 19 L 20 19 L 20 8 L 2 8 z M 3 9 L 10 9 L 11 9 L 19 9 L 19 10 L 3 10 L 3 9 z M 3 11 L 19 11 L 19 18 L 15 18 L 7 18 L 3 18 L 3 11 z M 4 12 L 4 13 L 6 13 L 6 12 L 4 12 z M 7 12 L 7 13 L 9 13 L 9 12 L 7 12 z M 10 12 L 10 13 L 12 13 L 12 12 L 10 12 z M 13 12 L 13 13 L 15 13 L 15 12 L 13 12 z M 16 12 L 16 13 L 18 13 L 18 12 L 16 12 z M 4 14 L 4 15 L 6 15 L 6 14 L 4 14 z M 7 14 L 7 15 L 9 15 L 9 14 L 7 14 z M 10 14 L 10 15 L 12 15 L 12 14 L 10 14 z M 13 14 L 13 15 L 15 15 L 15 14 L 13 14 z M 16 14 L 16 15 L 18 15 L 18 14 L 16 14 z M 4 16 L 4 17 L 6 17 L 6 16 L 4 16 z M 7 16 L 7 17 L 15 17 L 15 16 L 7 16 z M 16 16 L 16 17 L 18 17 L 18 16 L 16 16 z "
     class="ColorScheme-Text"/>
  <path
     style="fill:currentColor;fill-opacity:1;stroke:none" 
     d="M 15.707031 2 L 15 2.7070312 L 16.792969 4.5 L 15 6.2929688 L 15.707031 7 L 17.5 5.2070312 L 19.292969 7 L 20 6.2929688 L 18.207031 4.5 L 20 2.7070312 L 19.292969 2 L 17.5 3.7929688 L 15.707031 2 z "
     class="ColorScheme-NegativeText"
     />
</g></svg>
