<svg xmlns="http://www.w3.org/2000/svg" viewBox="0 0 24 24">
  <defs id="defs3051">
    <style type="text/css" id="current-color-scheme">
      .ColorScheme-Text {
        color:#232629;
      }
      .ColorScheme-PositiveText {
        color:#27ae60;
      }
      </style>
  </defs><g transform="translate(1,1)">
 <path style="fill:currentColor;fill-opacity:1;stroke:none" 
     d="m 2,1038.3622 0,11 18,0 0,-11 z m 1,1 7,0 1,0 8,0 0,1 -16,0 z m 0,2 16,0 0,7 -4,0 -8,0 -4,0 z m 1,1 0,1 2,0 0,-1 z m 3,0 0,1 2,0 0,-1 z m 3,0 0,1 2,0 0,-1 z m 3,0 0,1 2,0 0,-1 z m 3,0 0,1 2,0 0,-1 z m -12,2 0,1 2,0 0,-1 z m 3,0 0,1 2,0 0,-1 z m 3,0 0,1 2,0 0,-1 z m 3,0 0,1 2,0 0,-1 z m 3,0 0,1 2,0 0,-1 z m -12,2 0,1 2,0 0,-1 z m 3,0 0,1 8,0 0,-1 z m 9,0 0,1 2,0 0,-1 z"
       transform="translate(0,-1030.3622)"
     class="ColorScheme-Text"
     /> 
 <path
      style="fill:currentColor;fill-opacity:1;stroke:none" 
     class="ColorScheme-PositiveText"
       d="M 17.5,2 A 2.4999997,2.4999855 0 0 0 15,4.5 2.4999997,2.4999855 0 0 0 17.5,7 2.4999997,2.4999855 0 0 0 20,4.5 2.4999997,2.4999855 0 0 0 17.5,2 Z"
     />
</g></svg>
