<svg xmlns="http://www.w3.org/2000/svg" viewBox="0 0 24 24">
  <defs id="defs3051">
    <style type="text/css" id="current-color-scheme">
      .ColorScheme-Text {
        color:#232629;
      }
      </style>
  </defs><g transform="translate(1,1)">
  <path
     style="fill:currentColor;fill-opacity:1;stroke:none" 
     d="M 7.5 3 C 6.115 3 5 4.115 5 5.5 L 5 11.5 C 5 12.885 6.115 14 7.5 14 C 8.885 14 10 12.885 10 11.5 L 10 5.5 C 10 4.115 8.885 3 7.5 3 z M 15.767578 7.4609375 L 15 7.9472656 C 15.698954 8.8743941 16.06889 9.9282736 16.072266 11.001953 C 16.069966 12.076157 15.700653 13.130745 15.001953 14.058594 L 15.769531 14.544922 C 16.607241 13.476929 17.051681 12.251677 17.054688 11.001953 C 17.050587 9.7527495 16.60553 8.5282094 15.767578 7.4609375 z M 2 10 L 2 11 C 2.0009163 13.235554 3.6341118 15.198898 6 15.808594 L 6 18 L 4 18 L 4 19 L 11 19 L 11 18 L 9 18 L 9 15.806641 C 11.365122 15.197142 12.998124 13.23483 13 11 L 13 10 L 12 10 L 12 11 C 12 13.209139 9.9852814 15 7.5 15 C 5.0147186 15 3 13.209139 3 11 L 3 10 L 2 10 z "
     class="ColorScheme-Text" />
  <path
     style="fill:currentColor;fill-opacity:0.25;stroke:none" 
     d="m 18.064453,6 -0.757812,0.4804688 c 1.116583,1.3479815 1.710399,2.9158986 1.710937,4.5175782 -0.0043,1.600289 -0.600802,3.166066 -1.71875,4.511719 L 18.068359,16 C 19.32703,14.513919 19.998369,12.775497 20,10.998047 19.996227,9.2216199 19.323562,7.4846369 18.064453,6 Z"
     class="ColorScheme-Text" />
</g></svg>
