<svg xmlns="http://www.w3.org/2000/svg" viewBox="0 0 24 24 ">
  <defs id="defs3051">
    <style type="text/css" id="current-color-scheme">
      .ColorScheme-Text {
        color:#232629;
      }
      </style>
  </defs><g transform="translate(1,1)">
    <path
       style="fill:currentColor;fill-opacity:1;stroke:none" 
        d="m 3,1033.3622 0,6 2,0 0,7 c 0,1.662 1.338,3 3,3 l 1,0 1,0 2,0 3,0 0,-1 -1,0 -1,0 0,-2 1,0 4,0 1,0 0,-13 -1,0 -9,0 0,1 9,0 0,10 -11,0 0,1 0,1 1,0 1,0 0,1 0,0.7266 0,0.2734 -1,0 c -1.108,0 -2,-0.892 -2,-2 l 0,-7 2,0 0,-6 z m 1,1 3,0 0,4 -3,0 z m 1,1 0,2 1,0 0,-2 z m -2,5 0,6 1,0 0,-6 z" 
        transform="translate(0,-1030.3622)"
        class="ColorScheme-Text"/>
</g></svg>
