<svg xmlns="http://www.w3.org/2000/svg" viewBox="0 0 24 24">
  <defs id="defs3051">
    <style type="text/css" id="current-color-scheme">
      .ColorScheme-Text {
        color:#232629;
      }
      </style>
  </defs><g transform="translate(1,1)">
    <path 
        style="fill:currentColor;fill-opacity:1;stroke:none" 
        d="M 11 4 A 6 6 0 0 0 5 10 A 6 6 0 0 0 5.0039062 10.128906 A 4 4 0 0 0 2 14 A 4 4 0 0 0 6 18 L 15 18 A 5 5 0 0 0 20 13 A 5 5 0 0 0 16.757812 8.3242188 A 6 6 0 0 0 11 4 z M 11 5 A 5 5 0 0 1 15.919922 9.1113281 A 4.0000019 4.0000019 0 0 1 19 13 A 4.0000019 4.0000019 0 0 1 15 17 L 6 17 A 2.9999979 2.9999979 0 0 1 3 14 A 2.9999979 2.9999979 0 0 1 6 11 A 2.9999979 2.9999979 0 0 1 6.1074219 11.005859 A 5 5 0 0 1 6 10 A 5 5 0 0 1 11 5 z " 
        class="ColorScheme-Text"/>
  <path
     style="color:#27ae60;fill:currentColor;fill-opacity:1;stroke:none"
     d="M 16 12 C 13.784 12 12 13.784 12 16 C 12 18.216 13.784 20 16 20 C 18.216 20 20 18.216 20 16 C 20 13.784 18.216 12 16 12 z "
     id="path8" />
  <path
     style="opacity:1;fill:#ffffff"
     d="M 18 14 L 15 17 L 14 16 L 13 17 L 14 18 L 15 19 L 19 15 L 18 14 z "
     id="path10" />
</g></svg>
