<svg height="64" width="64" xmlns="http://www.w3.org/2000/svg">
    <path d="m10 3v58h44v-58h-14z" fill="#afdde9"/>
    <path d="m10 60h44v1h-44z" opacity=".25"/>
    <path d="m10 3h44v1h-44z" fill="#fff" opacity=".5"/>
    <path d="m17 4h1v56h-1z" fill-opacity=".057"/>
    <path d="m16 4h1v56h-1z" fill="#fff" fill-opacity=".321"/>
    <path d="m26 41.943v-20.4h3v3.886h4c1 0 1 .972 1 .972v14.57c0 .972-1 .972-1 .972z" fill-rule="evenodd"/>
    <path d="m44 23.889 8 8.111-8 8-8-8z" fill="#f90"/>
    <path d="m21 41.943v-14.57h-1v-1.944h1v-2.914s0 .972 0 0c0-.971 1-.971 1-.971h3v1.943h-1v1.942h1v1.943h-1v14.57z" fill-rule="evenodd"/>
    <path d="m29.001341 27.372374h1.999388v12.628562h-1.999388z" fill="#afdde9" opacity=".99"/>
    <path d="m47.35 36.015h-6.422v-1.313c.490667-.344667.981667-.711 1.473-1.099.494-.387333.889333-.721667 1.186-1.003.443333-.416.758333-.779.945-1.089.186667-.309333.28-.615.28-.917 0-.363333-.121-.642667-.363-.838-.238-.199333-.582-.299-1.032-.299-.337333 0-.715914.112003-1.066.203-.348251.09052-.584765.169729-1.024525.34h-.326475v-1.614424c.26-.11.785667-.194576 1.291-.304576.508667-.110667 1.017667-.166 1.527-.166 1.025333 0 1.807.21 2.345.63.538667.416.808 1.006333.808 1.771 0 .502-.13.978667-.39 1.43-.256667.452-.650333.918-1.181 1.398-.333333.298667-.668333.574333-1.005.827-.337333.249333-.577333.423667-.72.523h3.675z"/>
</svg>
