<svg width="64" xmlns="http://www.w3.org/2000/svg" viewBox="0 0 64 64" height="64">
 <defs>
  <linearGradient id="a" y1="3" y2="61" x2="0" gradientUnits="userSpaceOnUse" gradientTransform="matrix(1 0 0-1 0 64)">
   <stop stop-color="#bdc3c7"/>
   <stop offset="1" stop-color="#dadfe1"/>
  </linearGradient>
  <linearGradient id="b" y1="61" y2="47" x2="0" gradientUnits="userSpaceOnUse" gradientTransform="matrix(1 0 0-1 0 64)">
   <stop stop-color="#566472"/>
   <stop offset="1" stop-color="#5e6b78"/>
  </linearGradient>
  <linearGradient id="c" y1="17" x1="40" y2="31" x2="54" gradientUnits="userSpaceOnUse">
   <stop stop-color="#383e51"/>
   <stop offset="1" stop-color="#655c6f" stop-opacity="0"/>
  </linearGradient>
 </defs>
 <path fill="url(#a)" d="m10 61v-58h30l14 14v44h-14z"/>
 <g transform="scale(1-1)">
  <rect width="30" x="10" y="-4" fill="#ffffff" height="1" fill-opacity=".412"/>
  <rect width="44" x="10" y="-61" fill="#2e3132" height="1" fill-opacity=".294"/>
 </g>
 <g fill-rule="evenodd">
  <path fill="url(#b)" d="m54 17l-14-14v14z"/>
  <path opacity=".2" fill="url(#c)" d="m40 17l14 14v-14z"/>
 </g>
 <g fill="#8096a0">
  <path d="m35.883 27.17c.035-.284.062-.572.062-.865 0-.293-.027-.581-.062-.865l1.876-1.468c.169-.133.217-.373.106-.568l-1.774-3.074c-.111-.191-.342-.271-.541-.191l-2.209.891c-.457-.35-.958-.648-1.499-.874l-.333-2.351c-.04-.208-.222-.373-.444-.373h-3.548c-.222 0-.404.164-.439.373l-.333 2.351c-.541.226-1.042.519-1.499.874l-2.209-.891c-.2-.075-.43 0-.541.191l-1.774 3.074c-.111.191-.062.43.106.568l1.872 1.468c-.035.284-.062.572-.062.865 0 .293.027.581.062.865l-1.872 1.468c-.169.133-.217.373-.106.568l1.774 3.074c.111.191.342.271.541.191l2.209-.891c.457.35.958.648 1.499.874l.333 2.351c.035.208.217.373.439.373h3.548c.222 0 .404-.164.439-.373l.333-2.351c.541-.226 1.042-.519 1.499-.874l2.209.891c.2.075.43 0 .541-.191l1.774-3.074c.111-.191.062-.43-.106-.568zm-6.591 2.24c-1.716 0-3.105-1.388-3.105-3.105 0-1.716 1.388-3.105 3.105-3.105 1.716 0 3.105 1.388 3.105 3.105 0 1.716-1.388 3.105-3.105 3.105"/>
  <path d="m40.96 42.841c.122-.17.241-.346.343-.534.103-.188.187-.383.263-.578l1.721-.285c.155-.026.27-.163.268-.328l-.062-2.597c-.004-.161-.125-.294-.281-.312l-1.732-.202c-.171-.385-.389-.752-.657-1.087l.611-1.627c.047-.148-.012-.317-.154-.395l-2.28-1.244c-.143-.078-.317-.036-.413.085l-1.038 1.394c-.427-.044-.852-.032-1.27.036l-1.107-1.348c-.102-.118-.276-.151-.415-.067l-2.218 1.353c-.138.084-.191.255-.131.402l.688 1.6c-.122.17-.241.346-.343.534-.103.188-.187.383-.263.578l-1.718.287c-.155.026-.27.163-.268.328l.062 2.597c.004.161.125.294.281.312l1.732.202c.171.385.389.752.657 1.087l-.611 1.627c-.05.146.009.316.152.393l2.28 1.244c.143.078.317.036.413-.085l1.038-1.394c.427.044.852.032 1.27-.036l1.107 1.348c.102.118.276.151.415.067l2.218-1.353c.138-.084.191-.255.131-.402zm-5.02-.872c-1.103-.602-1.508-1.981-.906-3.084.602-1.103 1.981-1.508 3.084-.906 1.103.602 1.508 1.981.906 3.084-.602 1.103-1.981 1.508-3.084.906"/>
 </g>
</svg>
