<svg version="1.1" viewBox="0 0 64 64" xmlns="http://www.w3.org/2000/svg" xmlns:xlink="http://www.w3.org/1999/xlink">
    <defs>
        <linearGradient id="b" x1="40" x2="54" y1="17" y2="31" gradientTransform="translate(238 78.36)" gradientUnits="userSpaceOnUse">
            <stop stop-color="#060606" offset="0"/>
            <stop stop-opacity="0" offset="1"/>
        </linearGradient>
        <linearGradient id="c" x2="0" y1="392.36" y2="336.36" gradientTransform="translate(190 -254)" gradientUnits="userSpaceOnUse">
            <stop stop-color="#fff" stop-opacity="0" offset="0"/>
            <stop stop-color="#fff" stop-opacity=".2" offset="1"/>
        </linearGradient>
        <path id="a" d="m248 139.36v-58h30l14 14v44h-14z"/>
    </defs>
    <g transform="translate(-238 -78.36)">
        <use fill="#2e6ad1" xlink:href="#a"/>
        <path d="m248 82.36h30v-1h-30z" fill="#fff" opacity=".5"/>
        <path d="m248 139.36h44v-1h-44z" opacity=".25"/>
        <g fill-rule="evenodd">
            <path d="m292 95.36-14-14v14z" fill="#fff" opacity=".5"/>
            <path d="m278 95.36 14 14v-14z" fill="url(#b)" opacity=".2"/>
        </g>
        <use width="100%" height="100%" fill="url(#c)" xlink:href="#a"/>
    </g>
    <g fill="#fff" opacity=".6">
        <path d="m31.992188 22a11.359 11.359 0 0 0-3.546876 0.568359c-3.528999 1.148-6.112984 3.950594-7.083984 7.683594-0.359 1.38-0.365375 1.509719-0.359375 5.511719 6e-3 3.353 0.013281 3.639953 0.113281 4.126953 0.357 1.729 1.507625 3.083953 3.140625 3.751953 0.177 0.073 0.359875 0.146172 0.546875 0.201172 0.072 0.022 0.154563 0.0335 0.226563 0.0625 0.158 0.063 0.292422 0.151031 0.357422 0.207031 0.042 0.035 0.088765 0.052313 0.134765 0.070313 0.011 0.042 0.024735 0.079468 0.052735 0.105468 0.115 0.106001 0.230453 0.10786 0.314453 0.13086 0.184 0.079 0.397656 0.049687 0.597656 0.054687l0.083984 0.003907h0.001954c0.266 3e-3 0.507031-0.022172 0.707031-0.076172 0.2-0.055 0.36875-0.126875 0.46875-0.296875 0.05-0.084 0.035062-0.09 0.039062-0.125 5e-3 -0.036 0.010672-0.076953 0.013672-0.126953 8e-3 -0.099 0.012578-0.228625 0.017578-0.390625 0.005324-0.171969 0.006481-0.44383 0.009766-0.673829 0.55282 1.673905 0.693279 2.046825 0.699219 1.833985 3e-3 -0.146 0.713719-5.538297 0.761718-5.779297 0.06-0.308 0.228704-0.262297 0.345704 0.095703 0.055 0.168 0.469922 1.851234 0.919922 3.740235v0.001953c0.514999 2.159 0.839093 3.388453 0.871093 3.314453 0.03-0.066 0.286313-1.928578 0.570313-4.142578 0.647-5.047 0.594453-4.754688 0.814453-4.679688 0.129 0.043 0.127969 0.030797 0.917969 3.841797 0.356 1.718 0.657875 3.1515 0.671875 3.1875 0.039 0.101 0.100093-0.256703 0.371093-2.220703 0.43-3.12 0.621454-4.345203 0.689454-4.408203 0.117-0.11 0.22264 0.066797 0.43164 0.716797l0.177734 0.560546c0.0218 1.311448 0.047374 2.781804 0.050782 3.439454l0.011718 1.857422 0.226563 0.166015c0.125 0.092 0.27225 0.1545 0.40625 0.1875l0.009766 0.003906 0.015625 0.001953a0.888 0.888 0 0 0 0.105468 0.017579c0.144 0.016 0.336719 0.020671 0.511719 0.013671 0.258-0.009999 0.479156-0.049953 0.660156-0.126953a0.822 0.822 0 0 0 0.253907-0.164062c0.075-0.045 0.148468-0.095156 0.230468-0.160156 0.039-0.036 0.265391-0.125547 0.400391-0.185547 0.125-0.055 0.279734-0.08086 0.427734-0.13086 0.823-0.275 1.368438-0.612765 2.023438-1.259765 0.65-0.643 1.000062-1.184141 1.289062-1.994141 0.427-1.443 0.280063-3.041062 0.289063-4.539062 0.018-4.369-0.062625-4.457204-0.390625-5.783204a10.502 10.502 0 0 0-2.931641-5.099609 10.737 10.737 0 0 0-4.148437-2.505859c-1.194-0.39-2.345532-0.585844-3.519531-0.589844zm0.21289 1.814453c0.572375 0 1.131735 0.03125 1.490234 0.09375 2.743001 0.476 5.149407 2.283031 6.441407 4.832031 0.56 1.103 0.701656 2.037985 0.847656 3.333985 0.495 2.766 0.732797 2.729437-1.658203 1.898437a8.62 8.62 0 0 1-0.820313-0.298828l-0.203125-0.158203c-0.305-0.236-0.763312-0.281141-1.195312-0.244141a2.159 2.159 0 0 0-0.607422 0.132813c-0.18 0.072-0.343594 0.170891-0.433594 0.337891-0.038 0.07-0.029156 0.095624-0.035156 0.140624-6e-3 0.045001-0.010672 0.098016-0.013672 0.166016-6e-3 0.137-0.007812 0.33161-0.007812 0.59961 0 0.227063 0.011111 0.759226 0.015625 1.099609l-0.335938-1.019531c-0.279-0.845-0.430844-1.215719-0.464844-1.136719-0.029 0.064-0.151437 0.927922-0.273437 1.919922-0.244 1.97-0.418516 3.220484-0.478516 3.396484-0.021 0.062-0.079812 0.111328-0.132812 0.111328-0.185 0-0.254094-0.235781-1.121094-3.925781-0.312-1.329-0.609156-2.576484-0.660156-2.771484l-0.089844-0.353516-0.097656 0.773438c-0.292 2.338-1.03961 7.554687-1.09961 7.679687-0.085 0.173-0.189297 0.18425-0.279296 0.03125-0.096001-0.162-0.861672-3.074297-1.388672-5.279297-0.248-1.036-0.473-1.884766-0.5-1.884766-0.026 1e-6 -0.069704 0.267704-0.095704 0.595704-0.082 1.033-0.553531 5.400796-0.644531 5.966796-0.088 0.549001-0.193984 0.697844-0.333984 0.464844-0.01601-0.026683-0.112063-0.337879-0.164063-0.486328 0.011229-0.92631 0.014034-1.651833 0.03125-2.582031 0.034-1.83 0.059766-2.673813 0.009766-3.132813-0.026-0.23-0.075406-0.39-0.191406-0.5-0.117-0.11-0.236656-0.129781-0.347656-0.175781-0.329001-0.134-0.763297-0.141797-1.154297-0.091797a2.16 2.16 0 0 0-0.529297 0.128906c-0.116 0.046-0.229782 0.101079-0.300782 0.205079a5.46 5.46 0 0 1-0.61914 0.236328c-2.442 1.288-2.342625 0.619515-1.765625-1.896485 0.66-4.582 3.297625-7.451281 7.640625-8.113281 0.409-0.0625 0.994031-0.09375 1.566406-0.09375z"/>
    </g>
</svg>
