<svg width="64" xmlns="http://www.w3.org/2000/svg" viewBox="0 0 64 64" height="64">
 <defs>
  <linearGradient id="a" y1="3" y2="61" x2="0" gradientUnits="userSpaceOnUse" gradientTransform="matrix(1 0 0-1 0 64)">
   <stop stop-color="#22a7f0"/>
   <stop offset="1" stop-color="#19b5fe"/>
  </linearGradient>
  <linearGradient id="b" y1="61" y2="47" x2="0" gradientUnits="userSpaceOnUse" gradientTransform="matrix(1 0 0-1 0 64)">
   <stop stop-color="#c8e3fe"/>
   <stop offset="1" stop-color="#ffffff"/>
  </linearGradient>
  <linearGradient id="c" y1="17" x1="40" y2="31" x2="54" gradientUnits="userSpaceOnUse">
   <stop stop-color="#383e51"/>
   <stop offset="1" stop-color="#655c6f" stop-opacity="0"/>
  </linearGradient>
 </defs>
 <path fill="url(#a)" d="m10 61v-58h30l14 14v44h-14z"/>
 <g transform="scale(1-1)">
  <rect width="30" x="10" y="-4" fill="#ffffff" height="1" fill-opacity=".412"/>
  <rect width="44" x="10" y="-61" fill="#2e3132" height="1" fill-opacity=".294"/>
 </g>
 <g fill-rule="evenodd">
  <path fill="url(#b)" d="m54 17l-14-14v14z"/>
  <path opacity=".2" fill="url(#c)" d="m40 17l14 14v-14z"/>
 </g>
 <g fill="#ffffff" transform="matrix(.0293 0 0 .0293 17.271 17.677)">
  <path d="m530.2 118.2c0 17.3-14.1 31.2-31.4 31.2-17.4 0-31.4-14-31.4-31.2v-76.9c0-17.3 14.1-31.3 31.4-31.3 17.4 0 31.4 14 31.4 31.3z"/>
  <path d="m525.4 662c0 14.2-11.6 25.7-25.9 25.7h-1.4c-14.3 0-25.9-11.5-25.9-25.7v-83.1c0-14.2 11.6-25.8 25.9-25.8h1.4c14.3 0 25.9 11.5 25.9 25.8z"/>
  <path d="m825.5 906.7c10.4-10.7 13.8-27.1 7.1-41.5l-260-551.2c-.2-1.5-.2-3.1-.2-4.7 0-5.4 2-10.4 5.2-14.3 31-23.3 51-60.3 51-101.9 0-70.6-57.5-127.7-128.5-127.8-72.3 0-128.6 57.2-128.6 127.8 0 41.6 19.9 78.6 50.9 101.9 3.3 3.9 5.3 8.8 5.3 14.3 0 1.6 0 3.2-.2 4.7l-260 551.2c-6.7 14.3-3.4 30.8 7.1 41.5l-41 83.3 64.8-70.2c17.2 4.5 35.6-3.7 43.4-20.2l247.9-525.4c2.3-2.9 5.8-4.7 9.8-4.7.2 0 .6 0 .6 0 .2 0 .4 0 .6 0 4 0 7.5 1.9 9.7 4.7l247.9 525.4c7.7 16.6 26.2 24.7 43.3 20.2l64.8 70.2zm-325.4-640.1c-41 0-73.8-32.9-73.8-73.5 0-40.5 32.9-73.4 73.8-73.5 40.8 0 73.8 32.9 73.8 73.5 0 40.6-33 73.5-73.8 73.5"/>
  <path d="m781.7 622.9c0 9.3-7.5 16.8-16.9 16.8h-532.1c-9.3 0-16.9-7.5-16.9-16.8v-.1c0-9.3 7.6-16.8 16.9-16.8h532.1c9.4.1 16.9 7.6 16.9 16.9"/>
 </g>
</svg>
