<svg width="64" xmlns="http://www.w3.org/2000/svg" viewBox="0 0 64 64" height="64">
 <defs>
  <linearGradient id="a" y1="3" y2="61" x2="0" gradientUnits="userSpaceOnUse" gradientTransform="matrix(1 0 0-1 0 64)">
   <stop stop-color="#f39c12"/>
   <stop offset="1" stop-color="#f89406"/>
  </linearGradient>
  <linearGradient id="b" y1="61" y2="47" x2="0" gradientUnits="userSpaceOnUse" gradientTransform="matrix(1 0 0-1 0 64)">
   <stop stop-color="#fddda3"/>
   <stop offset="1" stop-color="#fde3a7"/>
  </linearGradient>
  <linearGradient id="c" y1="17" x1="40" y2="31" x2="54" gradientUnits="userSpaceOnUse">
   <stop stop-color="#383e51"/>
   <stop offset="1" stop-color="#655c6f" stop-opacity="0"/>
  </linearGradient>
 </defs>
 <path fill="url(#a)" d="m10 61v-58h30l14 14v44h-14z"/>
 <g transform="scale(1-1)">
  <rect width="30" x="10" y="-4" fill="#ffffff" height="1" fill-opacity=".412"/>
  <rect width="44" x="10" y="-61" fill="#2e3132" height="1" fill-opacity=".294"/>
 </g>
 <g fill-rule="evenodd">
  <path fill="url(#b)" d="m54 17l-14-14v14z"/>
  <path opacity=".2" fill="url(#c)" d="m40 17l14 14v-14z"/>
 </g>
 <path fill="#fddda3" color-rendering="auto" shape-rendering="auto" color-interpolation-filters="linearRGB" image-rendering="auto" text-rendering="auto" color-interpolation="sRGB" color="#000000" d="m32 21c-1.876 7-7 11.134-7 15 0 3.866 3.134 7 7 7 3.866 0 7-3.134 7-7 0-3.866-5.124-8-7-15m4.8125 11.427734a6 6 0 0 1 1.1875 3.572266 6 6 0 0 1 -6 6 6 6 0 0 1 -3.566406 -1.183594 7 7 0 0 0 1.566406 .183594 7 7 0 0 0 7 -7 7 7 0 0 0 -.1875 -1.572266"/>
</svg>
