<svg width="64" xmlns="http://www.w3.org/2000/svg" viewBox="0 0 64 64" height="64">
 <defs>
  <linearGradient id="a" y1="3" y2="61" x2="0" gradientUnits="userSpaceOnUse" gradientTransform="matrix(1 0 0-1 0 64)">
   <stop stop-color="#5e6b78"/>
   <stop offset="1" stop-color="#768492"/>
  </linearGradient>
  <linearGradient id="b" y1="61" y2="47" x2="0" gradientUnits="userSpaceOnUse" gradientTransform="matrix(1 0 0-1 0 64)">
   <stop stop-color="#dedede"/>
   <stop offset="1" stop-color="#fbfbfb"/>
  </linearGradient>
  <linearGradient id="c" y1="17" x1="40" y2="31" x2="54" gradientUnits="userSpaceOnUse">
   <stop stop-color="#383e51"/>
   <stop offset="1" stop-color="#655c6f" stop-opacity="0"/>
  </linearGradient>
 </defs>
 <path fill="url(#a)" d="m10 61v-58h30l14 14v44h-14z"/>
 <g transform="scale(1-1)">
  <rect width="30" x="10" y="-4" fill="#ffffff" height="1" fill-opacity=".412"/>
  <rect width="44" x="10" y="-61" fill="#2e3132" height="1" fill-opacity=".294"/>
 </g>
 <g fill-rule="evenodd">
  <path fill="url(#b)" d="m54 17l-14-14v14z"/>
  <path opacity=".2" fill="url(#c)" d="m40 17l14 14v-14z"/>
 </g>
 <g opacity=".75" fill="#fbfbfb" transform="matrix(.00253-.00036-.00036-.00253 19.272 35.706)">
  <path d="m9471.8 4996c-30.7-15.4-172.7-143.9-314.6-285.9l-259-260.9-71 65.2c-99.8 88.3-203.4 119-308.9 88.3-72.9-21.1-262.9-205.3-1515.7-1456.2-790.5-788.5-1435.1-1440.9-1435.1-1452.4 0-9.6 239.8-259 531.4-550.6l533.4-533.4 934.4 934.4c514.2 514.2 940.1 928.6 947.8 920.9 25-24.9 11.5-483.5-19.2-627.4-15.3-78.7-65.2-216.8-109.3-307-78.7-161.2-86.3-170.8-1245.2-1333.4-640.9-642.7-1176.2-1189.5-1187.7-1212.5-32.6-63.3-24.9-191.9 15.4-270.5 67.1-132.4 270.5-199.5 401-130.5 90.2 48 2388.6 2369.4 2469.2 2496.1 234.1 360.7 341.5 849.9 297.4 1352.6-17.3 199.5-49.9 393.3-88.2 533.4-11.5 38.4 23 80.6 237.9 297.4 203.4 207.2 251.3 266.7 262.9 326.2 24.9 126.6-3.8 203.4-115.1 318.5l-103.6 107.4 276.3 278.2c226.4 230.2 276.3 291.6 287.8 351.1 47.7 253.1-194 454.6-422.3 351"/>
  <path d="m3253.7-602.4c-1648.1-1650-1884-1895.6-2045.2-2112.4-320.4-431.7-698.4-1105.1-974.6-1730.6-178.4-401-178.4-362.6 0-297.4 550.6 203.4 1281.6 556.4 1717.1 830.7 425.9 268.6 502.7 341.5 2417.4 2256.2l1841.8 1843.9-537.2 537.2c-295.5 295.5-541 537.2-546.8 537.2-5.8 0-848-840.3-1872.5-1864.8"/>
 </g>
 <path opacity=".75" fill="#fbfbfb" d="m31.707 43.03c-.621.131-1.313.669-1.647 1.289-.09.161-.233.525-.322.8-.084.28-.161.513-.167.519-.048.06-1.236.346-1.934.466-1.641.287-2.089.394-2.25.543-.316.292-.072.585.376.454.119-.036.627-.137 1.116-.221.49-.084 1.236-.239 1.659-.334.424-.101.782-.167.8-.149.018.018-.054.358-.167.758l-.203.716-.448.197c-.245.107-.597.292-.782.418-.561.37-.669.836-.275 1.134.215.161.812.155 1.182-.006.328-.149.513-.358.77-.901.137-.281.245-.43.328-.448.066-.018.657-.137 1.313-.275.657-.131 1.254-.257 1.331-.275.125-.03.137-.018.101.096-.024.072-.131.281-.245.466-.113.185-.203.406-.203.495 0 .185.155.37.28.322.048-.018.113-.036.143-.036.03 0 .161-.096.292-.215.245-.221.836-1.301.836-1.528 0-.113.09-.143.143-.054.018.03.155.084.304.119.209.054.269.096.269.191 0 .185.304.454.573.507.209.036.478-.006.764-.125.101-.042.107-.03.072.125-.024.096-.197.4-.382.681-.394.585-.872 1.516-.997 1.928-.101.352-.06.615.125.74.167.107.442.06.585-.096.125-.137.806-1.576 1.056-2.232.179-.46.263-.585.669-1.015.334-.352.442-.436.37-.299-.119.257-.113.454.018.573.28.257.686.006 1.039-.639.209-.382.364-.495 1.14-.86l.406-.185-.042.221c-.024.119-.161.46-.304.752-.281.591-.334.967-.167 1.289.113.221.233.227.782.036.764-.257 1.761-.848 2.02-1.188.352-.478.459-.937.245-1.092-.221-.161-.346-.096-.627.316-.376.561-.841.997-1.289 1.218-.209.107-.394.179-.412.161-.024-.024.454-1.307.71-1.91.054-.125.096-.281.096-.346 0-.167-.209-.358-.388-.358-.084 0-.478.161-.872.364-.818.406-.764.442-.555-.322.125-.471.084-.597-.203-.627-.275-.03-.382.06-.633.507-.161.304-.376.555-.788.937-.543.501-.567.519-.693.43-.191-.137-.299-.119-.764.113-.454.227-.603.257-.716.119-.096-.113.054-.173.884-.334.806-.155.907-.197.907-.364 0-.269-.221-.525-.615-.698-.681-.304-.758-.322-1.056-.245-.322.084-.8.543-.865.83-.066.299-.269.209-.269-.119 0-.137-.167-.483-.263-.543-.203-.137-.531.161-.782.71l-.197.424-.442.096c-.573.125-2.238.459-2.459.502-.143.024-.167.012-.137-.072.024-.06.096-.322.167-.591.185-.74.239-.836.507-.931.322-.113 1.409-.579 1.689-.722.131-.066.4-.269.597-.448.603-.561.698-1.08.268-1.462-.119-.101-.275-.209-.346-.239-.22-.084-.764-.113-1.026-.06m.764.824c.119.119.119.125.012.352-.072.143-.239.31-.448.454-.364.251-1.504.71-1.54.627-.048-.137.316-.955.549-1.218.31-.352.4-.388.895-.358.316.018.442.048.531.143m-3.892 4.966c-.078.149-.281.257-.394.215-.131-.054-.096-.125.113-.233.275-.137.358-.131.281.018"/>
</svg>
