<?xml version="1.0" encoding="UTF-8" standalone="no"?>
<svg
   xmlns:dc="http://purl.org/dc/elements/1.1/"
   xmlns:cc="http://creativecommons.org/ns#"
   xmlns:rdf="http://www.w3.org/1999/02/22-rdf-syntax-ns#"
   xmlns:svg="http://www.w3.org/2000/svg"
   xmlns="http://www.w3.org/2000/svg"
   xmlns:xlink="http://www.w3.org/1999/xlink"
   xmlns:sodipodi="http://sodipodi.sourceforge.net/DTD/sodipodi-0.dtd"
   xmlns:inkscape="http://www.inkscape.org/namespaces/inkscape"
   width="64"
   version="1.1"
   viewBox="0 0 64 64"
   height="64"
   id="svg2"
   inkscape:version="0.91 r13725"
   sodipodi:docname="application-x-deb.svg">
  <sodipodi:namedview
     pagecolor="#ffffff"
     bordercolor="#666666"
     borderopacity="1"
     objecttolerance="10"
     gridtolerance="10"
     guidetolerance="10"
     inkscape:pageopacity="0"
     inkscape:pageshadow="2"
     inkscape:window-width="1360"
     inkscape:window-height="708"
     id="namedview24"
     showgrid="true"
     inkscape:zoom="5.6568542"
     inkscape:cx="14.186431"
     inkscape:cy="24.126138"
     inkscape:window-x="0"
     inkscape:window-y="0"
     inkscape:window-maximized="1"
     inkscape:current-layer="svg2"
     inkscape:snap-bbox="true"
     inkscape:bbox-nodes="true">
    <inkscape:grid
       type="xygrid"
       id="grid5664" />
  </sodipodi:namedview>
  <defs
     id="defs4">
    <linearGradient
       id="linearGradient4351">
      <stop
         style="stop-color:#ffd6af"
         id="stop4353" />
      <stop
         offset="1"
         style="stop-color:#fffcf9"
         id="stop4355" />
    </linearGradient>
    <linearGradient
       id="linearGradient4300">
      <stop
         style="stop-color:#f62459"
         id="stop4302" />
      <stop
         offset="1"
         style="stop-color:#f73768"
         id="stop4304" />
    </linearGradient>
    <linearGradient
       inkscape:collect="always"
       xlink:href="#linearGradient6251"
       id="linearGradient5849-6"
       gradientUnits="userSpaceOnUse"
       gradientTransform="matrix(1,0,0,0.84587337,-46.999997,-272.73456)"
       x1="58"
       y1="397.08383"
       x2="58"
       y2="324.65894" />
    <linearGradient
       id="linearGradient6251"
       inkscape:collect="always">
      <stop
         id="stop6253"
         offset="0"
         style="stop-color:#ffffff;stop-opacity:0" />
      <stop
         id="stop6255"
         offset="1"
         style="stop-color:#ffffff;stop-opacity:0.2" />
    </linearGradient>
  </defs>
  <metadata
     id="metadata84">
    <rdf:RDF>
      <cc:Work
         rdf:about="">
        <dc:format>image/svg+xml</dc:format>
        <dc:type
           rdf:resource="http://purl.org/dc/dcmitype/StillImage" />
      </cc:Work>
    </rdf:RDF>
  </metadata>
  <rect
     y="10.999992"
     x="7"
     height="49.999977"
     width="49.999977"
     id="rect5837-1"
     style="color:#000000;clip-rule:nonzero;display:inline;overflow:visible;visibility:visible;opacity:1;isolation:auto;mix-blend-mode:normal;color-interpolation:sRGB;color-interpolation-filters:linearRGB;solid-color:#000000;solid-opacity:1;fill:#e6506e;fill-opacity:1;fill-rule:nonzero;stroke:none;stroke-width:1;stroke-linecap:butt;stroke-linejoin:miter;stroke-miterlimit:4;stroke-dasharray:none;stroke-dashoffset:0;stroke-opacity:1;marker:none;color-rendering:auto;image-rendering:auto;shape-rendering:auto;text-rendering:auto;enable-background:accumulate" />
  <rect
     width="50"
     x="7"
     y="59.999992"
     height="1.0000085"
     style="color:#000000;clip-rule:nonzero;display:inline;overflow:visible;visibility:visible;opacity:0.25;isolation:auto;mix-blend-mode:normal;color-interpolation:sRGB;color-interpolation-filters:linearRGB;solid-color:#000000;solid-opacity:1;fill:#000000;fill-opacity:1;fill-rule:nonzero;stroke-width:1;stroke-linecap:butt;stroke-linejoin:miter;stroke-miterlimit:4;stroke-dasharray:none;stroke-dashoffset:0;stroke-opacity:1;color-rendering:auto;image-rendering:auto;shape-rendering:auto;text-rendering:auto;enable-background:accumulate"
     id="rect5839-2" />
  <rect
     width="50"
     x="7"
     y="10.999992"
     height="1.0000085"
     style="color:#000000;clip-rule:nonzero;display:inline;overflow:visible;visibility:visible;opacity:0.5;isolation:auto;mix-blend-mode:normal;color-interpolation:sRGB;color-interpolation-filters:linearRGB;solid-color:#000000;solid-opacity:1;fill:#ffffff;fill-opacity:1;fill-rule:nonzero;stroke-width:1;stroke-linecap:butt;stroke-linejoin:miter;stroke-miterlimit:4;stroke-dasharray:none;stroke-dashoffset:0;stroke-opacity:1;color-rendering:auto;image-rendering:auto;shape-rendering:auto;text-rendering:auto;enable-background:accumulate"
     id="rect5841-7" />
  <path
     inkscape:connector-curvature="0"
     style="color:#000000;clip-rule:nonzero;display:inline;overflow:visible;visibility:visible;opacity:0.75;isolation:auto;mix-blend-mode:normal;color-interpolation:sRGB;color-interpolation-filters:linearRGB;solid-color:#000000;solid-opacity:1;fill:#ffffff;fill-opacity:1;fill-rule:nonzero;stroke-width:1;stroke-linecap:butt;stroke-linejoin:miter;stroke-miterlimit:4;stroke-dasharray:none;stroke-dashoffset:0;stroke-opacity:1;color-rendering:auto;image-rendering:auto;shape-rendering:auto;text-rendering:auto;enable-background:accumulate"
     id="path4181"
     d="m 21.53579,57.9369 c -1.18025,-0.19658 -2.87205,-0.86487 -3.92023,-1.54856 -2.30201,-1.50151 -3.80543,-3.16843 -4.73586,-5.25085 -0.30911,-0.69183 -0.47801,-1.22869 -0.96114,-3.05502 -0.12013,-0.45412 -0.26963,-0.95423 -0.33223,-1.11136 -0.10559,-0.26505 -0.11023,-0.35446 -0.0642,-1.23852 0.0437,-0.83992 0.18574,-1.97639 0.26198,-2.09592 0.0148,-0.0232 0.0496,-0.0287 0.0774,-0.0122 0.094,0.0558 0.18092,-0.20218 0.26633,-0.79062 0.0468,-0.32239 0.12032,-0.66047 0.16339,-0.7513 0.0431,-0.0908 0.11603,-0.29128 0.16214,-0.44545 0.10611,-0.35485 0.25079,-0.62761 0.69807,-1.316 0.19671,-0.30275 0.40119,-0.6325 0.45439,-0.73277 0.0626,-0.11798 0.131,-0.17578 0.1938,-0.16379 0.0605,0.0115 0.16035,-0.065 0.26492,-0.20299 0.45476,-0.6002 2.59667,-2.37098 2.79488,-2.31061 0.0541,0.0165 0.28012,-0.0579 0.50227,-0.16524 0.40181,-0.19418 0.57886,-0.2391 0.57886,-0.14687 0,0.0266 -0.0581,0.087 -0.12906,0.13423 -0.12457,0.0829 -0.12207,0.0843 0.0717,0.0393 0.11042,-0.0257 0.29638,-0.0622 0.41325,-0.0812 0.14439,-0.0235 0.2031,-0.0581 0.18318,-0.10789 -0.0175,-0.0437 0.0241,-0.087 0.10298,-0.10731 0.19746,-0.0507 0.50515,-0.0424 0.50515,0.0137 0,0.0673 -0.17593,0.13526 -0.31548,0.12198 -0.0952,-0.009 -0.10006,-0.001 -0.0287,0.0457 0.071,0.0468 0.0719,0.0568 0.005,0.0575 -0.0447,4.6e-4 -0.0665,0.0149 -0.0486,0.0322 0.018,0.0172 0.13758,-0.02 0.26578,-0.0828 0.12821,-0.0628 0.36302,-0.14086 0.5218,-0.17354 0.19546,-0.0402 0.2887,-0.0869 0.2887,-0.1445 0,-0.0741 0.0908,-0.0804 0.70265,-0.0488 0.38647,0.02 0.96965,0.0781 1.29596,0.12919 0.59326,0.0929 0.59331,0.0929 0.8144,-0.0292 0.26518,-0.14646 0.69171,-0.16552 0.80379,-0.0359 0.041,0.0474 0.15387,0.12555 0.25081,0.17365 0.15814,0.0785 0.1686,0.0786 0.10176,0.001 -0.12697,-0.1469 -8.7e-4,-0.1432 0.48939,0.0144 1.58057,0.50799 2.8691,1.4127 3.82523,2.68579 0.22674,0.3019 0.24047,0.43772 0.0257,0.25395 l -0.12292,-0.10517 0.0939,0.17617 c 0.0516,0.0969 0.0939,0.20578 0.0939,0.24197 0,0.0362 0.152,0.30371 0.33776,0.59447 0.41868,0.65531 0.5358,0.87609 0.50771,0.95697 -0.0121,0.0347 -0.19753,-0.19613 -0.41219,-0.51291 -0.21465,-0.31676 -0.5323,-0.74356 -0.70588,-0.94843 -0.25922,-0.30594 -0.32711,-0.35827 -0.38,-0.29288 -0.0354,0.0438 -0.12191,0.0875 -0.19222,0.0973 l -0.12782,0.0177 0.12645,0.23789 c 0.0695,0.13084 0.13567,0.21134 0.14695,0.17889 0.0604,-0.17377 0.34144,0.0547 0.46925,0.38138 0.0414,0.10596 0.15164,0.32417 0.24488,0.48491 0.0932,0.16074 0.15777,0.30351 0.14343,0.31728 -0.0143,0.0138 -0.0994,-0.0303 -0.18889,-0.0979 l -0.1628,-0.1229 0.11103,0.18293 c 0.0611,0.10062 0.16333,0.22369 0.22724,0.27351 0.0797,0.0622 0.11784,0.16036 0.1214,0.31301 0.007,0.28184 0.17481,0.61479 0.2663,0.52699 0.14253,-0.13678 0.17184,-0.0513 0.13597,0.39664 -0.0264,0.33002 -0.0124,0.54754 0.0503,0.77846 0.0952,0.35058 0.0747,0.43711 -0.0645,0.27326 -0.0885,-0.1042 -0.0894,-0.10413 -0.0498,0.004 0.085,0.23181 0.14846,0.5786 0.13081,0.71471 -0.0329,0.25399 -0.13232,0.14839 -0.16651,-0.17697 l -0.0334,-0.31756 -0.01,0.33795 c -0.005,0.18588 -0.0508,0.54505 -0.10107,0.79816 -0.0508,0.25566 -0.0766,0.56545 -0.058,0.69699 0.0349,0.24746 0.0102,0.25705 -0.20532,0.0798 -0.0877,-0.0722 -0.10283,-0.0576 -0.16308,0.15714 -0.0507,0.18068 -0.0503,0.28355 0.002,0.43487 0.0375,0.10902 0.0593,0.25688 0.0484,0.32857 -0.0251,0.16545 -0.16321,0.21704 -0.16321,0.061 0,-0.19621 -0.0778,-0.12638 -0.31548,0.28324 -0.64188,1.10612 -1.65752,1.96215 -2.80702,2.36592 -0.67769,0.23805 -1.13223,0.32632 -1.89648,0.3683 l -0.68832,0.0378 0.34009,0.10068 c 0.27423,0.0812 0.43527,0.0933 0.83171,0.0626 0.51938,-0.0403 1.12921,-0.14843 1.40573,-0.24932 0.11036,-0.0403 0.18489,-0.0421 0.22303,-0.006 0.0899,0.0863 -0.7089,0.4256 -1.18309,0.50248 -0.80686,0.13082 -1.88692,-0.0106 -2.84033,-0.3718 -0.64687,-0.24509 -1.60679,-0.8834 -1.45969,-0.97064 0.0279,-0.0165 0.21049,0.0669 0.40583,0.18546 0.24969,0.1515 0.35516,0.1914 0.35516,0.13433 0,-0.10779 0.0369,-0.10262 0.2353,0.0329 0.17914,0.12242 0.73015,0.34972 1.127,0.46492 0.4326,0.12557 0.26487,-0.0266 -0.31548,-0.28628 -1.83497,-0.82094 -2.59673,-1.64205 -2.97638,-3.20823 -0.13922,-0.57432 0.01,-1.83339 0.26385,-2.2277 0.0644,-0.0999 0.117,-0.2228 0.117,-0.27307 0,-0.21814 0.37905,-0.79448 0.768,-1.16774 0.68537,-0.65771 1.39794,-0.93076 2.32295,-0.89013 0.44716,0.0197 0.63814,0.0574 1.01028,0.1996 0.4221,0.16132 0.95359,0.49902 0.79082,0.50249 -0.0383,8.1e-4 -0.20605,-0.0531 -0.37284,-0.1198 -0.25354,-0.10139 -0.41611,-0.1217 -0.99158,-0.12385 -0.80809,-0.003 -1.20306,0.107 -1.77816,0.49531 -0.81534,0.55053 -1.26873,1.18464 -1.4293,1.999 -0.10774,0.54644 -0.11104,0.69785 -0.027,1.23988 0.0484,0.31233 0.0828,0.40398 0.1434,0.38168 0.0509,-0.0187 0.0797,0.009 0.0797,0.0758 0,0.19358 0.43892,0.97882 0.74332,1.32984 0.73267,0.84493 1.91783,1.38411 3.04236,1.38411 0.58366,0 1.05546,-0.10751 1.48975,-0.33946 0.1744,-0.0932 0.39453,-0.20702 0.48917,-0.25306 0.33393,-0.16243 0.5411,-0.34797 0.78331,-0.7015 0.13465,-0.19654 0.28103,-0.35734 0.32529,-0.35734 0.0654,0 0.0626,0.0284 -0.0151,0.15137 -0.25603,0.40549 0.34484,-0.33179 0.656,-0.80492 l 0.34852,-0.52993 -0.038,-0.34811 c -0.0365,-0.33451 -0.0312,-0.35493 0.13555,-0.52293 0.16062,-0.16178 0.17505,-0.20967 0.19356,-0.64217 0.0166,-0.38709 0.005,-0.46745 -0.066,-0.46789 -0.0662,-3.8e-4 -0.0946,-0.10233 -0.1231,-0.44089 -0.0377,-0.44806 -0.41787,-1.95578 -0.50638,-2.00828 -0.0267,-0.0158 -0.10085,-0.16082 -0.16473,-0.32217 -0.2156,-0.54452 -0.59376,-1.06812 -1.18339,-1.63853 -0.84842,-0.82074 -1.91715,-1.45451 -2.92667,-1.73554 -0.85872,-0.23905 -2.31691,-0.15228 -3.35555,0.19966 -0.50691,0.17177 -1.00636,0.39921 -1.09064,0.49666 -0.0382,0.0442 -0.0937,0.0661 -0.1232,0.0486 -0.0311,-0.0184 -0.0225,-0.0678 0.0204,-0.11739 0.19134,-0.22125 -0.4436,0.18369 -0.85236,0.5436 -0.24712,0.21759 -0.45832,0.40224 -0.46933,0.41033 -0.011,0.008 0.0371,3.8e-4 0.10689,-0.0171 0.11615,-0.0291 0.12107,-0.0214 0.0581,0.0916 -0.0404,0.0724 -0.25066,0.20259 -0.50841,0.31479 -0.43307,0.18851 -0.71317,0.39569 -0.93571,0.69213 -0.0888,0.11836 -0.094,0.14385 -0.0237,0.11797 0.0493,-0.0182 0.0897,-0.007 0.0897,0.0253 0,0.1572 -0.14884,0.33271 -0.36931,0.43551 -0.48847,0.22774 -1.34656,1.44421 -1.80621,2.56061 -0.20484,0.49749 -0.20159,0.48021 -0.0902,0.48021 0.11739,0 0.10922,0.12794 -0.052,0.8152 -0.23489,1.00109 -0.23517,0.96906 0.0206,2.37743 0.31167,1.71598 0.49375,2.2892 0.83995,2.64439 0.0812,0.0833 0.16015,0.26056 0.19534,0.43862 0.042,0.21261 0.11256,0.35293 0.24458,0.48647 0.12036,0.12175 0.1605,0.19642 0.11426,0.2126 -0.0907,0.0317 0.19328,0.43808 0.45238,0.6473 0.13035,0.10525 0.22695,0.14063 0.33159,0.12143 0.22935,-0.0421 0.46286,0.0847 0.82167,0.44603 0.37288,0.37551 0.41024,0.47646 0.16348,0.44171 -0.15916,-0.0224 -0.1628,-0.0183 -0.0845,0.0965 0.0451,0.066 0.21123,0.2246 0.3693,0.3525 0.22201,0.17966 0.27919,0.25738 0.25132,0.34165 -0.0401,0.12118 0.0742,0.23423 0.33283,0.32911 0.16035,0.0588 0.21202,0.18571 0.0913,0.22431 -0.0365,0.0117 0.18933,0.23477 0.50189,0.49575 0.35215,0.29403 0.58903,0.45519 0.62279,0.42371 0.0892,-0.0831 0.20349,-0.0578 0.20554,0.0455 0.002,0.11272 0.10347,0.23114 0.46767,0.54702 0.23015,0.19961 0.2876,0.22473 0.42867,0.18744 0.12918,-0.0342 0.21042,-0.0122 0.39235,0.10579 0.36297,0.23547 0.58306,0.32946 0.77151,0.32946 0.18543,0 0.21183,0.0511 0.11555,0.2238 -0.051,0.0914 -0.0401,0.10647 0.0771,0.10647 0.075,0 0.28648,0.0495 0.46987,0.11009 0.41698,0.13768 0.59092,0.14704 0.48641,0.0262 -0.15438,-0.17851 0.009,-0.12973 0.56093,0.16709 0.77073,0.41477 1.16062,0.46215 2.69539,0.32757 0.22723,-0.0199 0.30114,-0.008 0.30114,0.0474 0,0.0478 -0.19717,0.11958 -0.55926,0.20364 -0.47599,0.1105 -0.73005,0.13188 -1.70645,0.14359 -0.76939,0.009 -1.29494,-0.0109 -1.59582,-0.061 z m -0.78462,-8.25178 c 0,-0.0117 -0.071,-0.0627 -0.15774,-0.11336 l -0.15774,-0.0922 0.13542,0.11336 c 0.13214,0.11061 0.18006,0.13514 0.18006,0.0922 z m 7.89748,-5.76889 c -0.0183,-0.0439 -0.0319,-0.0309 -0.0347,0.0333 -0.003,0.058 0.0111,0.0905 0.0301,0.0722 0.0191,-0.0183 0.0211,-0.0658 0.004,-0.1055 z M 15.5961,38.10551 c 0.0714,-0.0873 0.0693,-0.0893 -0.0217,-0.0208 -0.0552,0.0416 -0.10038,0.0849 -0.10038,0.0963 0,0.0453 0.0471,0.0161 0.12204,-0.0755 z m 0.65232,-0.50917 c 0.0571,-0.0606 0.0909,-0.11009 0.0751,-0.11009 -0.0158,0 -0.0754,0.0495 -0.13249,0.11009 -0.0571,0.0606 -0.0909,0.11009 -0.0751,0.11009 0.0158,0 0.0754,-0.0495 0.1325,-0.11009 z m 0.72202,-0.38695 c 0.18908,-0.0614 0.29652,-0.0723 0.33639,-0.034 0.0399,0.0383 0.18783,0.0156 0.46321,-0.0711 0.22254,-0.07 0.39439,-0.13711 0.38189,-0.14911 -0.0125,-0.012 -0.19574,0.0336 -0.40718,0.10136 -0.29041,0.0931 -0.39492,0.1069 -0.42731,0.0566 -0.0547,-0.085 -0.57666,0.0825 -0.801,0.25709 l -0.1533,0.11928 0.16474,-0.0949 c 0.0906,-0.0522 0.28976,-0.13554 0.44256,-0.18518 z m 1.65366,-0.13973 c 0.16658,-0.0475 0.29293,-0.0959 0.28079,-0.1075 -0.0268,-0.0257 -0.62019,0.13736 -0.62019,0.17044 0,0.0333 0.005,0.0325 0.3394,-0.0629 z m 0.95119,-0.30008 0.22945,-0.0402 -0.20076,-0.005 c -0.11042,-0.003 -0.26529,0.0331 -0.34416,0.0795 -0.0928,0.0547 -0.10295,0.0706 -0.0287,0.0451 0.0631,-0.0216 0.21796,-0.0574 0.34415,-0.0795 z m 0.45558,-0.10388 c 0.0177,-0.0274 -0.0195,-0.0369 -0.0827,-0.0211 -0.13394,0.0336 -0.15087,0.071 -0.0321,0.071 0.0455,0 0.0971,-0.0225 0.1148,-0.0499 z m 1.85196,0.0166 c -0.0191,-0.0183 -0.0685,-0.0202 -0.10994,-0.004 -0.0458,0.0176 -0.0322,0.0306 0.0347,0.0333 0.0605,0.002 0.0943,-0.0106 0.0753,-0.0289 z m -0.34296,-0.0597 c -0.0552,-0.0138 -0.14555,-0.0138 -0.20076,0 -0.0552,0.0138 -0.01,0.0252 0.10038,0.0252 0.11042,0 0.15559,-0.0113 0.10038,-0.0252 z m -0.57208,-0.0571 c -0.11747,-0.0118 -0.32397,-0.012 -0.45888,-3.6e-4 -0.13491,0.0116 -0.0388,0.0213 0.21358,0.0215 0.25239,2e-4 0.36277,-0.009 0.2453,-0.0211 z M 20.2194,36.5172 c -0.0191,-0.0183 -0.0685,-0.0203 -0.10994,-0.004 -0.0458,0.0176 -0.0322,0.0306 0.0347,0.0333 0.0605,0.002 0.0943,-0.0106 0.0753,-0.0289 z m -0.38827,13.23048 c -0.58427,-0.40174 -0.80075,-0.60953 -0.80075,-0.76864 0,-0.0844 0.0199,-0.15347 0.0442,-0.15347 0.0827,0 1.05948,0.97843 1.03812,1.03992 -0.0124,0.0356 -0.13023,-0.0137 -0.28159,-0.11781 z m -0.30065,-1.02004 c -0.30344,-0.29426 -0.40067,-0.45253 -0.27803,-0.45253 0.0737,0 0.63832,0.62039 0.63832,0.70136 0,0.0381 -0.007,0.0693 -0.0161,0.0693 -0.009,0 -0.16374,-0.14314 -0.34416,-0.3181 z m 3.35735,-1.20457 c -0.1602,-0.062 -0.0602,-0.17698 0.20076,-0.23071 0.14985,-0.0309 0.38799,-0.10575 0.52919,-0.16644 0.1412,-0.0607 0.26693,-0.10055 0.27939,-0.0886 0.0125,0.012 -0.0515,0.1343 -0.14201,0.27187 -0.16367,0.2486 -0.1666,0.2501 -0.48015,0.24588 -0.17352,-0.002 -0.34775,-0.0167 -0.38718,-0.032 z m 1.72079,-1.2313 c -0.15483,-0.0597 -0.16124,-0.16135 -0.032,-0.50746 0.11103,-0.29728 0.22619,-0.35593 0.16213,-0.0826 -0.0231,0.0984 -0.0538,0.24083 -0.0684,0.31651 l -0.0265,0.13762 0.11463,-0.12528 c 0.0678,-0.0741 0.13062,-0.24813 0.15377,-0.42598 0.0215,-0.16539 0.062,-0.28713 0.09,-0.27055 0.071,0.0421 0.0634,0.47731 -0.0133,0.76991 -0.0671,0.25559 -0.1274,0.28537 -0.38037,0.18779 z M 11.03481,45.60092 c -0.0191,-0.0479 -0.0348,-0.23573 -0.0348,-0.41743 0,-0.23972 0.0197,-0.32411 0.0717,-0.3076 0.0852,0.027 0.13517,0.8121 0.0517,0.8121 -0.0296,0 -0.0694,-0.0392 -0.0886,-0.0871 z m 13.79915,-1.28754 c -0.0891,-0.11569 -0.11659,-0.20702 -0.0913,-0.30367 0.0519,-0.19848 0.1877,-0.17025 0.28788,0.0598 0.15585,0.35796 0.0206,0.52572 -0.19657,0.24382 z M 11.02301,43.43946 c -0.004,-0.31213 -3e-5,-0.32178 0.14395,-0.31651 0.12209,0.004 0.15157,0.0353 0.16565,0.1735 0.0159,0.15584 -0.16071,0.46495 -0.26563,0.46495 -0.0217,0 -0.0415,-0.14487 -0.044,-0.32194 z m 14.86831,-6.76685 c 0.008,-0.49261 0.0945,-0.65949 0.16189,-0.31459 0.047,0.24032 -0.0128,0.66469 -0.10379,0.73718 -0.0495,0.0394 -0.0643,-0.068 -0.0581,-0.42259 z m -7.53695,-0.2952 c 0.0231,-0.0664 0.81432,-0.37739 0.96028,-0.37739 0.17148,0 -0.13613,0.20164 -0.49092,0.3218 -0.39558,0.13398 -0.50092,0.14645 -0.46936,0.0556 z" />
  <path
     inkscape:connector-curvature="0"
     style="opacity:0.75;fill:#ffffff;fill-opacity:1"
     d="m 40,12 0,2 2,0 0,-2 -2,0 z m 2,2 0,2 2,0 0,-2 -2,0 z m 0,2 -2,0 0,2 2,0 0,-2 z m 0,2 0,2 2,0 0,-2 -2,0 z m 0,2 -2,0 0,2 2,0 0,-2 z m 0,2 0,2 2,0 0,-2 -2,0 z m 0,2 -2,0 0,2 2,0 0,-2 z m -2,3 0,4 1,0 0,4 2,0 0,-4 1,0 0,-4 -4,0 z m 1,1 2,0 0,2 -2,0 0,-2 z"
     id="rect4173-3-3" />
  <rect
     style="color:#000000;clip-rule:nonzero;display:inline;overflow:visible;visibility:visible;opacity:0.55199998;isolation:auto;mix-blend-mode:normal;color-interpolation:sRGB;color-interpolation-filters:linearRGB;solid-color:#000000;solid-opacity:1;fill:url(#linearGradient5849-6);fill-opacity:1;fill-rule:nonzero;stroke:none;stroke-width:1;stroke-linecap:butt;stroke-linejoin:miter;stroke-miterlimit:4;stroke-dasharray:none;stroke-dashoffset:0;stroke-opacity:1;marker:none;color-rendering:auto;image-rendering:auto;shape-rendering:auto;text-rendering:auto;enable-background:accumulate"
     id="rect5847-9"
     width="49.999977"
     height="49.999977"
     x="7"
     y="10.999992" />
</svg>
