<svg width="64" xmlns="http://www.w3.org/2000/svg" viewBox="0 0 64 64" height="64">
 <defs>
  <linearGradient id="a" y1="61" y2="3" x2="0" gradientUnits="userSpaceOnUse" gradientTransform="matrix(1 0 0-1 0 64)">
   <stop stop-color="#e3200d"/>
   <stop offset="1" stop-color="#f22613"/>
  </linearGradient>
  <linearGradient id="b" y1="61" y2="47" x2="0" gradientUnits="userSpaceOnUse" gradientTransform="matrix(1 0 0-1 0 64)">
   <stop stop-color="#f87e72"/>
   <stop offset="1" stop-color="#fbaea7"/>
  </linearGradient>
  <linearGradient id="c" y1="17" x1="40" y2="31" x2="54" gradientUnits="userSpaceOnUse">
   <stop stop-color="#383e51"/>
   <stop offset="1" stop-color="#655c6f" stop-opacity="0"/>
  </linearGradient>
 </defs>
 <path fill="url(#a)" d="m10 61v-58h30l14 14v44h-14z"/>
 <g transform="scale(1-1)">
  <rect width="30" x="10" y="-4" fill="#ffffff" height="1" fill-opacity=".412"/>
  <rect width="44" x="10" y="-61" fill="#2e3132" height="1" fill-opacity=".294"/>
 </g>
 <g fill-rule="evenodd">
  <path fill="url(#b)" d="m54 17l-14-14v14z"/>
  <path opacity=".2" fill="url(#c)" d="m40 17l14 14v-14z"/>
 </g>
 <path opacity=".75" fill="#ffffff" d="m32 22a11 3 0 0 0 -11 3v16a11 3 0 0 0 11 3 11 3 0 0 0 11 -3v-16A11 3 0 0 0 32 22m0 1A10 2 0 0 1 42 25 10 2 0 0 1 32 27 10 2 0 0 1 22 25 10 2 0 0 1 32 23M22 26.24219A11 3 0 0 0 32 28 11 3 0 0 0 42 26.24219V30A10 2 0 0 1 32 32 10 2 0 0 1 22 30zm0 5A11 3 0 0 0 32 33 11 3 0 0 0 42 31.24219V36A10 2 0 0 1 32 38 10 2 0 0 1 22 36zm0 6A11 3 0 0 0 32 39 11 3 0 0 0 42 37.24219V41A10 2 0 0 1 32 43 10 2 0 0 1 22 41v-1z"/>
</svg>
