<svg width="64" xmlns="http://www.w3.org/2000/svg" viewBox="0 0 64 64" height="64" xmlns:xlink="http://www.w3.org/1999/xlink">
 <defs>
  <linearGradient id="a" y1="61" y2="3" x2="0" gradientUnits="userSpaceOnUse" gradientTransform="matrix(1 0 0-1 0 64)">
   <stop stop-color="#3a539b"/>
   <stop offset="1" stop-color="#3f5aa9"/>
  </linearGradient>
  <linearGradient id="b" y1="17" x1="40" y2="31" x2="54" gradientUnits="userSpaceOnUse">
   <stop stop-color="#383e51"/>
   <stop offset="1" stop-color="#655c6f" stop-opacity="0"/>
  </linearGradient>
  <linearGradient id="c" y1="2.642" y2="61" x2="0" gradientUnits="userSpaceOnUse" gradientTransform="matrix(1 0 0-1 0 64)">
   <stop stop-color="#ffffff" stop-opacity="0"/>
   <stop offset="1" stop-color="#ffffff" stop-opacity=".2"/>
  </linearGradient>
  <path id="d" d="m10 61v-58h30l14 14v44h-14z"/>
 </defs>
 <use fill="url(#a)" xlink:href="#d"/>
 <g transform="scale(1-1)">
  <rect width="30" x="10" opacity=".5" y="-4" fill="#ffffff" height="1"/>
  <rect width="44" x="10" opacity=".25" y="-61" height="1"/>
 </g>
 <g fill-rule="evenodd">
  <path opacity=".5" fill="#ffffff" d="m54 17l-14-14v14z"/>
  <path opacity=".2" fill="url(#b)" d="m40 17l14 14v-14z"/>
 </g>
 <path opacity=".75" fill="#ffffff" d="m22 22c-.554 0-1 .446-1 1v20c0 .554.446 1 1 1h20c.554 0 1-.446 1-1v-20c0-.554-.446-1-1-1zm0 1h20v20h-20zm15.5 1.5l-2.5 2.5h-6.05a2.5 2.5 0 0 0 -2.449219 -2 2.5 2.5 0 0 0 -2.5 2.5 2.5 2.5 0 0 0 2 2.445312v9.05h4v2h5v-2h3v-9l2.5-2.5zm0 1.199l1.801 1.801-1.801 1.801-1.5-1.5v-.602zm-11 .300781a1.5 1.5 0 0 1 1.5 1.5 1.5 1.5 0 0 1 -1.5 1.5 1.5 1.5 0 0 1 -1.5 -1.5 1.5 1.5 0 0 1 1.5 -1.5m2.445 2h6.05l2 2v8h-2v-2h-5v2h-3v-8.05a2.5 2.5 0 0 0 1.945312 -1.949219m2.055 9h3v3h-3z"/>
 <use fill="url(#c)" xlink:href="#d"/>
</svg>
