<svg height="64" viewBox="0 0 64 64" width="64" xmlns="http://www.w3.org/2000/svg" xmlns:xlink="http://www.w3.org/1999/xlink"><linearGradient id="a" gradientUnits="userSpaceOnUse" x1="40" x2="54" y1="17" y2="31"><stop offset="0" stop-color="#383e51"/><stop offset="1" stop-color="#655c6f" stop-opacity="0"/></linearGradient><linearGradient id="b" gradientTransform="matrix(1 0 0 -1 0 64)" gradientUnits="userSpaceOnUse" x2="0" y1="61" y2="47"><stop offset="0" stop-color="#fddda3"/><stop offset="1" stop-color="#fde3a7"/></linearGradient><linearGradient id="c" gradientTransform="matrix(1 0 0 -1 0 64)" gradientUnits="userSpaceOnUse" x2="0" y1="3" y2="61"><stop offset="0" stop-color="#f39c12"/><stop offset="1" stop-color="#f89406"/></linearGradient><path d="m10 61v-58h30l14 14v44h-14z" fill="url(#c)"/><g transform="scale(1 -1)"><path d="m10-4h30v1h-30z" fill="#fff" fill-opacity=".412"/><path d="m10-61h44v1h-44z" fill="#2e3132" fill-opacity=".294"/></g><g fill-rule="evenodd"><path d="m54 17-14-14v14z" fill="url(#b)"/><path d="m40 17 14 14v-14z" fill="url(#a)" opacity=".2"/></g><path d="m10-3.999986h30v1h-30z" fill="#fff" opacity=".5" transform="scale(1 -1)"/><g fill="#fde3a7"><path d="m30 22c-1.662 0-3 1.338-3 3v2h5v1h-7c-2.216 0-4 1.784-4 4v2c0 2.216 1.784 4 4 4v-2c0-1.841 1.237781-3.368891 2.925781-3.837891.147-.041.297219-.07161.449219-.09961.205-.031999.411-.062499.625-.062499h7.224609c.477-.531.775391-1.227.775391-2v-5c0-1.662-1.338-3-3-3zm-1 2c.554 0 1 .446 1 1s-.446 1-1 1-1-.446-1-1 .446-1 1-1z" fill-rule="evenodd"/><path d="m31.5625 33c-1.136217 0-1.99161.464667-2.564453 1.392578-.577577.932645-.865234 2.302849-.865234 4.111328 0 1.803745.287657 3.170871.865234 4.103516.572843.927911 1.428236 1.392578 2.564453 1.392578 1.131483 0 1.988002-.464667 2.570313-1.392578.284054-.454487.499723-1.020269.646484-1.697266.146763-.676996.220703-1.47834.220703-2.40625 0-.927911-.07394-1.731207-.220703-2.408203-.146761-.68173-.36243-1.248638-.646484-1.703125-.577577-.927911-1.434096-1.392578-2.570313-1.392578zm0 1.136719c.676996 0 1.179198.361599 1.50586 1.085937.08805.191423.16029.416913.224609.664063l-3.685547 3.685547c-.02209-.330817-.0332-.685791-.0332-1.06836 0-.762213.04061-1.410343.121094-1.945312.08522-.539703.209302-.988683.375-1.34375.326663-.719604.82466-1.078125 1.492187-1.078125zm1.960938 3.291015c.02225.333232.03516.69071.03516 1.076172 0 1.472348-.163571 2.566381-.490234 3.28125-.326662.719605-.828864 1.078125-1.50586 1.078125-.662793 0-1.16079-.35852-1.492187-1.078125-.09063-.192919-.164623-.422835-.230469-.673828z"/><path d="m36.929 42.747489h2.313463v-7.890825l-1.753516 1.996652-.810449-.987275 2.54923-2.866041h1.488278v9.747489h2.283993v1.252512h-6.070999z"/></g></svg>