<svg enable-background="new" height="64" viewBox="0 0 64 64" width="64" xmlns="http://www.w3.org/2000/svg" xmlns:xlink="http://www.w3.org/1999/xlink"><linearGradient id="a" gradientUnits="userSpaceOnUse" x1="40" x2="54" y1="17" y2="31"><stop offset="0" stop-color="#060606"/><stop offset="1" stop-opacity="0"/></linearGradient><path d="m376 139.36v-58h30l14 14v44h-14z" fill="#326197" height="100%" transform="translate(-366 -78.360001)" width="100%"/><path d="m10-4h30v1h-30z" fill="#fff" opacity=".5" transform="scale(1 -1)"/><path d="m420 95.36-14-14v14z" fill="#fff" fill-rule="evenodd" height="100%" opacity=".5" transform="translate(-366 -78.360001)" width="100%"/><path d="m10-61h44v1h-44z" opacity=".25" transform="scale(1 -1)"/><path d="m40 16.999999 14 14v-14z" fill="url(#a)" fill-rule="evenodd" opacity=".1"/><path d="m33.406667 24.507806-3.127512 18.39483-3.160837-6.682727-9.118318 5.22767a16.451557 16.514489 0 0 0 .247533.723949l7.944924-3.672288 4.841209 10.008566 3.693986-22.934378 11.272348-.215031a16.451557 16.514489 0 0 0 -.573623-.657051z" fill="#fff" opacity=".9"/></svg>