<svg width="64" xmlns="http://www.w3.org/2000/svg" viewBox="0 0 64 64" height="64" xmlns:xlink="http://www.w3.org/1999/xlink">
 <defs>
  <linearGradient id="a" y1="392.36" y2="336.36" gradientUnits="userSpaceOnUse" x2="0" gradientTransform="translate(-48-332.36)">
   <stop stop-color="#ffffff" stop-opacity="0"/>
   <stop offset="1" stop-color="#ffffff" stop-opacity=".2"/>
  </linearGradient>
  <linearGradient id="b" y1="17" x1="40" y2="31" gradientUnits="userSpaceOnUse" x2="54">
   <stop stop-color="#060606"/>
   <stop offset="1" stop-opacity="0"/>
  </linearGradient>
  <path id="c" d="m10 61v-58h30l14 14v44h-14z"/>
 </defs>
 <use fill="#555555" xlink:href="#c"/>
 <g color-rendering="auto" color-interpolation-filters="linearRGB" shape-rendering="auto" image-rendering="auto" text-rendering="auto" color-interpolation="sRGB" color="#000000" transform="scale(1-1)">
  <rect opacity=".4" x="10" y="-4" width="30" fill="#ffffff" height="1"/>
  <rect opacity=".35" x="10" y="-61" width="44" height="1"/>
 </g>
 <g fill-rule="evenodd">
  <path opacity=".5" fill="#ffffff" d="m54 17l-14-14v14z"/>
  <path opacity=".4" fill="url(#b)" d="m40 17l14 14v-14z"/>
 </g>
 <path opacity=".75" color-interpolation-filters="linearRGB" color="#000000" image-rendering="auto" color-rendering="auto" d="m40 26.01l-8 .004-4.441 7.691-1.555-2.695h-2v1h1.428l2.133 3.693 5.02-8.693h6.42v1h1zm-5 3c-1.662 0-3 1.338-3 3 0 1.662 1.338 3 3 3 .773 0 1.469-.298 2-.775v.775h1v-6h-1v.775c-.531-.477-1.227-.775-2-.775m0 1c1.108 0 2 .892 2 2 0 1.108-.892 2-2 2-1.108 0-2-.892-2-2 0-1.108.892-2 2-2m-11.99 6.99c-.006 0-.01.223-.01.5 0 .277.004.5.01.5h17.98c.006 0 .01-.223.01-.5 0-.277-.004-.5-.01-.5zm8 3c-.006 0-.01.223-.01.5 0 .277.004.5.01.5h1.98c.006 0 .01-.223.01-.5 0-.277-.004-.5-.01-.5z" color-interpolation="sRGB" text-rendering="auto" fill="#ffffff" shape-rendering="auto"/>
 <use fill="url(#a)" xlink:href="#c"/>
</svg>
