<svg width="64" xmlns="http://www.w3.org/2000/svg" viewBox="0 0 64 64" height="64">
 <defs>
  <linearGradient id="a" y1="3" y2="61" x2="0" gradientUnits="userSpaceOnUse" gradientTransform="matrix(1 0 0-1 0 64)">
   <stop stop-color="#8e44ad"/>
   <stop offset="1" stop-color="#9b59b6"/>
  </linearGradient>
  <linearGradient id="b" y1="61" y2="47" x2="0" gradientUnits="userSpaceOnUse" gradientTransform="matrix(1 0 0-1 0 64)">
   <stop stop-color="#d3bdd7"/>
   <stop offset="1" stop-color="#e8d9eb"/>
  </linearGradient>
  <linearGradient id="c" y1="17" x1="40" y2="31" x2="54" gradientUnits="userSpaceOnUse">
   <stop stop-color="#383e51"/>
   <stop offset="1" stop-color="#655c6f" stop-opacity="0"/>
  </linearGradient>
 </defs>
 <path fill="url(#a)" d="m10 61v-58h30l14 14v44h-14z"/>
 <g transform="scale(1-1)">
  <rect width="30" x="10" y="-4" fill="#ffffff" height="1" fill-opacity=".412"/>
  <rect width="44" x="10" y="-61" fill="#2e3132" height="1" fill-opacity=".294"/>
 </g>
 <g fill-rule="evenodd">
  <path fill="url(#b)" d="m54 17l-14-14v14z"/>
  <path opacity=".2" fill="url(#c)" d="m40 17l14 14v-14z"/>
 </g>
 <path fill="#e8d9eb" color-rendering="auto" color-interpolation-filters="linearRGB" shape-rendering="auto" image-rendering="auto" text-rendering="auto" color-interpolation="sRGB" color="#000000" d="m26.5 21.9c-.831 0-1.5.669-1.5 1.5 0 .831.669 1.5 1.5 1.5.831 0 1.5-.669 1.5-1.5 0-.831-.669-1.5-1.5-1.5m8.5.1l-3 3 5 5-5 5 3 3 8-8zm-11.5 8c-1.385 0-2.5 1.115-2.5 2.5 0 1.385 1.115 2.5 2.5 2.5 1.385 0 2.5-1.115 2.5-2.5 0-1.385-1.115-2.5-2.5-2.5m5.5 8c-1.662 0-3 1.338-3 3 0 1.662 1.338 3 3 3 1.662 0 3-1.338 3-3 0-1.662-1.338-3-3-3"/>
</svg>
