<svg width="64" xmlns="http://www.w3.org/2000/svg" viewBox="0 0 64 64" height="64">
 <defs>
  <linearGradient id="a" y1="61" y2="3" x2="0" gradientUnits="userSpaceOnUse" gradientTransform="matrix(1 0 0-1 0 64)">
   <stop stop-color="#f27935"/>
   <stop offset="1" stop-color="#f2784b"/>
  </linearGradient>
  <linearGradient id="b" y1="61" y2="47" x2="0" gradientUnits="userSpaceOnUse" gradientTransform="matrix(1 0 0-1 0 64)">
   <stop stop-color="#f7ab89"/>
   <stop offset="1" stop-color="#fbd2bf"/>
  </linearGradient>
  <linearGradient id="c" y1="17" x1="40" y2="31" x2="54" gradientUnits="userSpaceOnUse">
   <stop stop-color="#383e51"/>
   <stop offset="1" stop-color="#655c6f" stop-opacity="0"/>
  </linearGradient>
 </defs>
 <path fill="url(#a)" d="m10 61v-58h30l14 14v44h-14z"/>
 <g transform="scale(1-1)">
  <rect width="30" x="10" y="-4" fill="#ffffff" height="1" fill-opacity=".412"/>
  <rect width="44" x="10" y="-61" fill="#2e3132" height="1" fill-opacity=".294"/>
 </g>
 <g fill-rule="evenodd">
  <path fill="url(#b)" d="m54 17l-14-14v14z"/>
  <path opacity=".2" fill="url(#c)" d="m40 17l14 14v-14z"/>
 </g>
 <path fill="#fbd2bf" d="m24 22a1 1 0 0 0 -1 1h-2v21h22v-21h-2a1 1 0 0 0 -1 -1h-5a1 1 0 0 0 -1 1h-3a1 1 0 0 0 -1 -1zm0 1h6.449v1H24zm11 0h5v1h-5zm-13 4h20v16h-20zm2 2v5h1v-2h6v2h1v-5h-1v2h-6v-2zm8 7v5.25h1v-2.25h6v2h1v-5h-1v2h-6v-2z"/>
</svg>
