<svg width="64" xmlns="http://www.w3.org/2000/svg" viewBox="0 0 64 64" height="64">
 <defs>
  <linearGradient id="a" y1="3" y2="61" x2="0" gradientUnits="userSpaceOnUse" gradientTransform="matrix(1 0 0-1 0 64)">
   <stop stop-color="#3a539b"/>
   <stop offset="1" stop-color="#3f5aa9"/>
  </linearGradient>
  <linearGradient id="b" y1="61" y2="47" x2="0" gradientUnits="userSpaceOnUse" gradientTransform="matrix(1 0 0-1 0 64)">
   <stop stop-color="#97aad8"/>
   <stop offset="1" stop-color="#c1cae7"/>
  </linearGradient>
  <linearGradient id="c" y1="17" x1="40" y2="31" x2="54" gradientUnits="userSpaceOnUse">
   <stop stop-color="#383e51"/>
   <stop offset="1" stop-color="#655c6f" stop-opacity="0"/>
  </linearGradient>
 </defs>
 <path fill="url(#a)" d="m10 61v-58h30l14 14v44h-14z"/>
 <g transform="scale(1-1)">
  <rect width="30" x="10" y="-4" fill="#ffffff" height="1" fill-opacity=".412"/>
  <rect width="44" x="10" y="-61" fill="#2e3132" height="1" fill-opacity=".294"/>
 </g>
 <g fill-rule="evenodd">
  <path fill="url(#b)" d="m54 17l-14-14v14z"/>
  <path opacity=".2" fill="url(#c)" d="m40 17l14 14v-14z"/>
 </g>
 <path fill="#c1cae7" stroke-width="2" d="m21 22v22h22v-22zm1 1h20v3h-20zm0 4h1v4h-1zm2 0h1v4h-1zm2 0h1v4h-1zm2 0h1v4h-1zm2 0h1v4h-1zm2 0h1v4h-1zm2 0h1v4h-1zm2 0h1v4h-1zm3 1h3v1h-3zm-17 4h20v2h-20zm0 3h1v4h-1zm2 0h1v4h-1zm2 0h1v4h-1zm2 0h1v4h-1zm2 0h1v4h-1zm2 0h1v4h-1zm2 0h1v4h-1zm2 0h1v4h-1zm3 1h3v1h-3zm-17 4h20v3h-20z"/>
</svg>
