<svg width="64" xmlns="http://www.w3.org/2000/svg" viewBox="0 0 64 64" height="64" xmlns:xlink="http://www.w3.org/1999/xlink">
 <defs>
  <linearGradient id="a" y1="17" x1="40" y2="31" x2="54" gradientUnits="userSpaceOnUse">
   <stop stop-color="#383e51"/>
   <stop offset="1" stop-color="#655c6f" stop-opacity="0"/>
  </linearGradient>
  <linearGradient id="b" y1="2.978" y2="60.978" x2="0" gradientUnits="userSpaceOnUse" gradientTransform="matrix(1 0 0-1 0 63.978)">
   <stop stop-color="#ffffff" stop-opacity="0"/>
   <stop offset="1" stop-color="#ffffff" stop-opacity=".2"/>
  </linearGradient>
  <path id="c" d="m10 60.978v-58h30l14 14v44h-14z"/>
 </defs>
 <use fill="#8542c2" xlink:href="#c"/>
 <g transform="scale(1-1)">
  <rect width="30" x="10" opacity=".5" y="-4" fill="#ffffff" height="1"/>
  <rect width="44" x="10" opacity=".25" y="-61" height="1"/>
 </g>
 <g fill-rule="evenodd">
  <path opacity=".5" fill="#ffffff" d="m54 17l-14-14v14z"/>
  <path opacity=".2" fill="url(#a)" d="m40 17l14 14v-14z"/>
 </g>
 <path opacity=".75" fill="#ffffff" d="m36 20l-4 4.5-1.26 1.5h3.26v1h-8v11h-3.238l1.238 1.5 4 4.5 4-4.5 1.26-1.5h-3.26v-1h8v-11h3.238l-1.238-1.5zm0 1.504l3.107 3.496h-2.107v11h-7v-2h5v-9h-2.107zm-9 6.496h7v2h-5v9h2.107l-3.107 3.496-3.107-3.496h2.107v-1zm3 3h4v2h-4z"/>
 <use fill="url(#b)" xlink:href="#c"/>
</svg>
