<svg width="64" xmlns="http://www.w3.org/2000/svg" viewBox="0 0 64 64" height="64" xmlns:xlink="http://www.w3.org/1999/xlink">
 <defs>
  <linearGradient id="a" y1="17" x1="40" y2="31" x2="54" gradientUnits="userSpaceOnUse">
   <stop stop-color="#383e51"/>
   <stop offset="1" stop-color="#655c6f" stop-opacity="0"/>
  </linearGradient>
  <linearGradient id="b" y1="2.978" y2="60.978" x2="0" gradientUnits="userSpaceOnUse" gradientTransform="matrix(1 0 0-1 0 63.978)">
   <stop stop-color="#ffffff" stop-opacity="0"/>
   <stop offset="1" stop-color="#ffffff" stop-opacity=".2"/>
  </linearGradient>
  <path id="c" d="m10 60.978v-58h30l14 14v44h-14z"/>
 </defs>
 <use fill="#8542c2" xlink:href="#c"/>
 <g transform="scale(1-1)">
  <rect width="30" x="10" opacity=".5" y="-4" fill="#ffffff" height="1"/>
  <rect width="44" x="10" opacity=".25" y="-61" height="1"/>
 </g>
 <g fill-rule="evenodd">
  <path opacity=".5" fill="#ffffff" d="m54 17l-14-14v14z"/>
  <path opacity=".2" fill="url(#a)" d="m40 17l14 14v-14z"/>
 </g>
 <path opacity=".75" fill="#ffffff" d="m32 22c-6.075 0-11 1.343-11 3v10a11 3 0 0 0 1 1.242188 11 3 0 0 0 .01172 .0059 11 3 0 0 0 .476562 .251953 11 3 0 0 0 .03125 .01367 11 3 0 0 0 .550781 .232422 11 3 0 0 0 .06445 .02344 11 3 0 0 0 .589843 .201172 11 3 0 0 0 .132813 .04102 11 3 0 0 0 .65039 .179687 11 3 0 0 0 .09961 .02539 11 3 0 0 0 .773437 .175781 11 3 0 0 0 .05273 .0098 11 3 0 0 0 .814453 .15039 11 3 0 0 0 .138672 .02344 11 3 0 0 0 .779297 .115234 11 3 0 0 0 .220703 .0293 11 3 0 0 0 .736328 .08203 11 3 0 0 0 .367187 .03711 11 3 0 0 0 .539063 .04492 11 3 0 0 0 .591797 .04102 11 3 0 0 0 .490234 .02539 11 3 0 0 0 .576172 .02344 11 3 0 0 0 .462891 .01367 11 3 0 0 0 .849617 .011633 11 3 0 0 0 .958984 -.01367 11 3 0 0 0 .414063 -.01367 11 3 0 0 0 .716797 -.0293 11 3 0 0 0 .345703 -.02148 11 3 0 0 0 .707031 -.04883 11 3 0 0 0 .31836 -.0293 11 3 0 0 0 .767578 -.07617 11 3 0 0 0 .179687 -.02148 11 3 0 0 0 .808594 -.107422 11 3 0 0 0 .212891 -.03516 11 3 0 0 0 .677734 -.111328 11 3 0 0 0 .3125 -.06055 11 3 0 0 0 .595703 -.125 11 3 0 0 0 .195313 -.04687 11 3 0 0 0 .662109 -.167969 11 3 0 0 0 .01367 -.0039 11 3 0 0 0 .02344 -.0078 11 3 0 0 0 .701172 -.21875 11 3 0 0 0 .636719 -.24414 11 3 0 0 0 .002 0 11 3 0 0 0 .0059 -.002 11 3 0 0 0 .535157 -.253906 11 3 0 0 0 .0059 -.0039 11 3 0 0 0 .202995 -.115217 11 3 0 0 0 1 -1.242188v-10c0-1.657-4.925-3-11-3m0 16h-1v3h1v1h-8v-1h-3v3h3v-1h16v1h3v-3h-3v1h-7v-1h1v-3zm0-15c5.523 0 10 .895 10 2 0 1.105-4.477 2-10 2-5.523 0-10-.895-10-2 0-1.105 4.477-2 10-2m-10 3.242c1.784 1.069 5.692 1.756 10 1.758 4.308-.001 8.216-.688 10-1.758v3.758c0 1.105-4.477 2-10 2-5.523 0-10-.895-10-2zm0 5c1.784 1.069 5.692 1.756 10 1.758 4.308-.001 8.216-.688 10-1.758v3.758a10 2 0 0 1 -10 2 10 2 0 0 1 -10 -2v-2zm10 7.758h1v1h-1zm-10 3h1v1h-1zm19 0h1v1h-1z"/>
 <use fill="url(#b)" xlink:href="#c"/>
</svg>
