<svg width="64" xmlns="http://www.w3.org/2000/svg" viewBox="0 0 64 64" height="64">
 <defs>
  <linearGradient id="a" y1="3" y2="61" x2="0" gradientUnits="userSpaceOnUse" gradientTransform="matrix(1 0 0-1 0 64)">
   <stop stop-color="#f9b425"/>
   <stop offset="1" stop-color="#f9bf3b"/>
  </linearGradient>
  <linearGradient id="b" y1="61" y2="47" x2="0" gradientUnits="userSpaceOnUse" gradientTransform="matrix(1 0 0-1 0 64)">
   <stop stop-color="#fddda3"/>
   <stop offset="1" stop-color="#fde3a7"/>
  </linearGradient>
  <linearGradient id="c" y1="17" x1="40" y2="31" x2="54" gradientUnits="userSpaceOnUse">
   <stop stop-color="#383e51"/>
   <stop offset="1" stop-color="#655c6f" stop-opacity="0"/>
  </linearGradient>
 </defs>
 <path fill="url(#a)" d="m10 61v-58h30l14 14v44h-14z"/>
 <g transform="scale(1-1)">
  <rect width="30" x="10" y="-4" fill="#ffffff" height="1" fill-opacity=".412"/>
  <rect width="44" x="10" y="-61" fill="#2e3132" height="1" fill-opacity=".294"/>
 </g>
 <path fill="url(#b)" fill-rule="evenodd" d="m54 17l-14-14v14z"/>
 <rect width="1" x="16" y="4" fill="#ffffff" height="56" fill-opacity=".252"/>
 <rect color-interpolation-filters="linearRGB" x="17" y="4" fill-opacity=".083" color="#000000" image-rendering="auto" color-rendering="auto" width="1" color-interpolation="sRGB" text-rendering="auto" height="56" shape-rendering="auto"/>
 <path fill="#fddda3" d="m23 22v22h1.375c6.875 0 13.75 0 20.625 0 0-6.417 0-12.833 0-19.25v-2.75h-1v1h-2v-1h-2v1h-2v-1h-2v1h-3v-1h-2v1h-3v-1h-2v1h-2v-1zm1 3h20c0 6.07 0 12.198 0 18-6.417 0-13.583 0-20 0 0-5.5 0-12.5 0-18m3 4v1h14v-1zm0 4v1h8v-1zm0 4v1h11v-1zm11 3v1h3v-1z"/>
 <path opacity=".2" fill="url(#c)" fill-rule="evenodd" d="m40 17l14 14v-14z"/>
</svg>
