<svg width="64" xmlns="http://www.w3.org/2000/svg" viewBox="0 0 64 64" height="64" xmlns:xlink="http://www.w3.org/1999/xlink">
 <defs>
  <linearGradient id="a" y1="17" x1="40" y2="31" gradientUnits="userSpaceOnUse" x2="54" gradientTransform="translate(6 8)">
   <stop stop-color="#060606"/>
   <stop offset="1" stop-opacity="0"/>
  </linearGradient>
  <linearGradient id="b" y1="392.36" y2="320.48" x2="0" gradientUnits="userSpaceOnUse" gradientTransform="matrix(1 0 0 .84587-34-272.73)">
   <stop stop-color="#ffffff" stop-opacity="0"/>
   <stop offset="1" stop-color="#ffffff" stop-opacity=".2"/>
  </linearGradient>
  <path color-rendering="auto" color-interpolation-filters="linearRGB" shape-rendering="auto" image-rendering="auto" text-rendering="auto" id="c" color-interpolation="sRGB" color="#000000" d="m4 61v-50h42l14 14v36h-14z"/>
 </defs>
 <use fill="#f2793a" xlink:href="#c"/>
 <g color-rendering="auto" color-interpolation-filters="linearRGB" shape-rendering="auto" image-rendering="auto" text-rendering="auto" color-interpolation="sRGB" color="#000000">
  <rect opacity=".25" x="4" y="60" width="56" height="1"/>
  <rect opacity=".5" x="4" y="11" width="42" fill="#ffffff" height="1"/>
 </g>
 <g fill-rule="evenodd">
  <path opacity=".5" fill="#ffffff" d="m60 25l-14-14v14z"/>
  <path opacity=".2" fill="url(#a)" d="m46 25l14 14v-14z"/>
  <path opacity=".75" color-interpolation-filters="linearRGB" color="#4d4d4d" image-rendering="auto" color-rendering="auto" d="m21.05 21.344v1.828h1v-1.828zm-2.793 1.156l-.707.707 1.293 1.293.707-.707zm6.586 0l-1.293 1.293.707.707 1.293-1.293zm-3.344 1.5c-1.381 0-2.5 1.119-2.5 2.5 0 1.381 1.119 2.5 2.5 2.5 1.381 0 2.5-1.119 2.5-2.5 0-1.381-1.119-2.5-2.5-2.5m0 1c.828 0 1.5.672 1.5 1.5 0 .828-.672 1.5-1.5 1.5-.828 0-1.5-.672-1.5-1.5 0-.828.672-1.5 1.5-1.5m-5.105 1v1h1.828v-1zm8.484 0v1h1.828v-1zm14.12 5l-2 2h-.008l-8.592 8.58v.02l-4.6-4.6-9 9h1.406l6.119-6.082 1.409-1.404 1.564 1.418 3.102 3.068 4-4 2.951-2.936 3.648-3.462 3.637 3.515 7.957 7.883h1.406zm-20.16-2.5l-1.293 1.293.707.707 1.293-1.293zm5.414 0l-.707.707 1.293 1.293.707-.707zm-3.207 1.328v1.828h1v-1.828z" color-interpolation="sRGB" text-rendering="auto" fill="#ffffff" shape-rendering="auto"/>
 </g>
 <use fill="url(#b)" xlink:href="#c"/>
</svg>
