<svg width="64" xmlns="http://www.w3.org/2000/svg" viewBox="0 0 64 64" height="64" xmlns:xlink="http://www.w3.org/1999/xlink">
 <defs>
  <linearGradient id="a" y1="17" x1="40" y2="31" gradientUnits="userSpaceOnUse" x2="54" gradientTransform="translate(302 296.36)">
   <stop stop-color="#060606"/>
   <stop offset="1" stop-opacity="0"/>
  </linearGradient>
  <linearGradient id="b" y1="392.36" y2="336.36" gradientUnits="userSpaceOnUse" x2="0" gradientTransform="translate(254-36)">
   <stop stop-color="#ffffff" stop-opacity="0"/>
   <stop offset="1" stop-color="#ffffff" stop-opacity=".2"/>
  </linearGradient>
  <path id="c" d="m312 357.36v-58h30l14 14v44h-14z"/>
 </defs>
 <g transform="translate(-302-296.36)">
  <g color-rendering="auto" color-interpolation-filters="linearRGB" shape-rendering="auto" image-rendering="auto" text-rendering="auto" color-interpolation="sRGB" color="#000000">
   <use fill="#febf10" xlink:href="#c"/>
   <g transform="scale(1-1)">
    <rect opacity=".5" x="312" y="-300.36" width="30" fill="#ffffff" height="1"/>
    <rect opacity=".25" x="312" y="-357.36" width="44" height="1"/>
   </g>
  </g>
  <g fill-rule="evenodd">
   <path opacity=".5" fill="#ffffff" d="m356 313.36l-14-14v14z"/>
   <path opacity=".1" fill="url(#a)" d="m342 313.36l14 14v-14z"/>
   <path opacity=".9" color-interpolation-filters="linearRGB" color="#4d4d4d" image-rendering="auto" color-rendering="auto" d="m326 319.36v3h1v5.057a2.5 2.5 0 0 0 -2 2.44336 2.5 2.5 0 0 0 2 2.44531v5.05h-1v3h3v-3h-1v-3.529a13 10.500004 0 0 0 12 6.5293 13 10.500004 0 0 0 1 -.041v-.996a12 9.500009 0 0 1 -1 .0371 12 9.500009 0 0 1 -11.61914 -7.16406 2.5 2.5 0 0 0 1.61914 -2.33595 2.5 2.5 0 0 0 -1.61719 -2.33789 12 9.500009 0 0 1 11.61719 -7.16211 12 9.500009 0 0 1 1 .0391v-1.01a13 10.500004 0 0 0 -1 -.0332 13 10.500004 0 0 0 -12 6.51172v-3.512h1v-3zm1 1h1v1h-1zm.5 8a1.5 1.5 0 0 1 1.5 1.5 1.5 1.5 0 0 1 -1.5 1.5 1.5 1.5 0 0 1 -1.5 -1.5 1.5 1.5 0 0 1 1.5 -1.5m-.5 10h1v1h-1z" color-interpolation="sRGB" text-rendering="auto" fill="#ffffff" shape-rendering="auto"/>
  </g>
  <use fill="url(#b)" xlink:href="#c"/>
 </g>
</svg>
