<?xml version="1.0" encoding="UTF-8" standalone="no"?>
<svg
   xmlns:dc="http://purl.org/dc/elements/1.1/"
   xmlns:cc="http://creativecommons.org/ns#"
   xmlns:rdf="http://www.w3.org/1999/02/22-rdf-syntax-ns#"
   xmlns:svg="http://www.w3.org/2000/svg"
   xmlns="http://www.w3.org/2000/svg"
   xmlns:xlink="http://www.w3.org/1999/xlink"
   xmlns:sodipodi="http://sodipodi.sourceforge.net/DTD/sodipodi-0.dtd"
   xmlns:inkscape="http://www.inkscape.org/namespaces/inkscape"
   width="64"
   viewBox="0 0 64 64"
   height="64"
   id="svg2"
   version="1.1"
   inkscape:version="0.91 r13725"
   sodipodi:docname="text-x-sass.svg">
  <metadata
     id="metadata39">
    <rdf:RDF>
      <cc:Work
         rdf:about="">
        <dc:format>image/svg+xml</dc:format>
        <dc:type
           rdf:resource="http://purl.org/dc/dcmitype/StillImage" />
        <dc:title></dc:title>
      </cc:Work>
    </rdf:RDF>
  </metadata>
  <sodipodi:namedview
     pagecolor="#ffffff"
     bordercolor="#666666"
     borderopacity="1"
     objecttolerance="10"
     gridtolerance="10"
     guidetolerance="10"
     inkscape:pageopacity="0"
     inkscape:pageshadow="2"
     inkscape:window-width="1360"
     inkscape:window-height="708"
     id="namedview37"
     showgrid="false"
     inkscape:zoom="5.2149125"
     inkscape:cx="48.061193"
     inkscape:cy="35.060328"
     inkscape:window-x="0"
     inkscape:window-y="0"
     inkscape:window-maximized="1"
     inkscape:current-layer="svg2" />
  <defs
     id="defs4">
    <linearGradient
       id="a"
       y1="17"
       x1="40"
       y2="31"
       gradientUnits="userSpaceOnUse"
       x2="54">
      <stop
         stop-color="#060606"
         id="stop7" />
      <stop
         offset="1"
         stop-opacity="0"
         id="stop9" />
    </linearGradient>
    <linearGradient
       id="b"
       y1="392.36"
       y2="336.36"
       gradientUnits="userSpaceOnUse"
       x2="0"
       gradientTransform="translate(-48,-332.36)">
      <stop
         stop-color="#ffffff"
         stop-opacity="0"
         id="stop12" />
      <stop
         offset="1"
         stop-color="#ffffff"
         stop-opacity=".2"
         id="stop14" />
    </linearGradient>
    <path
       id="c"
       d="m10 61v-58h30l14 14v44h-14z" />
  </defs>
  <g
     color-rendering="auto"
     color-interpolation-filters="linearRGB"
     shape-rendering="auto"
     image-rendering="auto"
     text-rendering="auto"
     color-interpolation="sRGB"
     color="#000000"
     id="g17"
     style="fill:#cc6699;fill-opacity:1">
    <use
       fill="#f9d24c"
       xlink:href="#c"
       id="use19"
       style="fill:#cc6699;fill-opacity:1" />
    <g
       transform="scale(1-1)"
       id="g21"
       style="fill:#cc6699;fill-opacity:1">
      <rect
         opacity=".5"
         x="10"
         y="-4"
         width="30"
         fill="#ffffff"
         height="1"
         id="rect23"
         style="fill:#cc6699;fill-opacity:1" />
      <rect
         opacity=".25"
         x="10"
         y="-61"
         width="44"
         height="1"
         id="rect25"
         style="fill:#cc6699;fill-opacity:1" />
    </g>
  </g>
  <path
     style="opacity:0.5;fill:#ffffff;fill-rule:evenodd"
     inkscape:connector-curvature="0"
     id="path29"
     d="M 54,17 40,3 40,17 Z" />
  <path
     inkscape:connector-curvature="0"
     style="opacity:0.1;fill:url(#a);fill-rule:evenodd"
     id="path31"
     d="M 40,17 54,31 54,17 Z" />
  <use
     xlink:href="#c"
     id="use35"
     style="fill:url(#b)"
     x="0"
     y="0"
     width="100%"
     height="100%" />
  <path
     d="m 42.103767,34.478139 c -0.978994,0.01215 -1.826725,0.229389 -2.537727,0.562849 -0.262524,-0.494967 -0.525045,-0.927639 -0.568799,-1.250776 -0.04922,-0.375233 -0.109391,-0.604502 -0.04922,-1.052838 0.06016,-0.448094 0.333623,-1.084046 0.333623,-1.136142 -0.0054,-0.04736 -0.06017,-0.276263 -0.623492,-0.281485 -0.563332,-0.01215 -1.050094,0.104434 -1.104786,0.244933 -0.05469,0.140865 -0.164079,0.464002 -0.235179,0.797583 -0.09844,0.489867 -1.12666,2.225288 -1.711869,3.137384 -0.191424,-0.354468 -0.3555,-0.667162 -0.388316,-0.917196 -0.04923,-0.375354 -0.109391,-0.604622 -0.04923,-1.052838 0.06018,-0.448214 0.333623,-1.083924 0.333623,-1.136142 -0.0054,-0.04735 -0.06017,-0.276142 -0.623494,-0.281363 -0.563329,-0.01215 -1.050092,0.104433 -1.104784,0.244933 -0.0547,0.140621 -0.114845,0.474202 -0.235178,0.797339 -0.114845,0.323138 -1.482163,3.220809 -1.837663,3.976498 -0.180485,0.385797 -0.339092,0.693269 -0.453947,0.90165 -0.114845,0.208382 -0.0054,0.01579 -0.0164,0.03643 -0.09844,0.177172 -0.153137,0.276142 -0.153137,0.276142 l 0,0.01214 c -0.07658,0.130299 -0.158608,0.255377 -0.196892,0.255377 -0.02734,0 -0.08202,-0.349124 0.01096,-0.82867 0.202362,-1.005721 0.694593,-2.574534 0.689123,-2.63173 0,-0.02672 0.09298,-0.302372 -0.317213,-0.443114 -0.399256,-0.140743 -0.541454,0.0935 -0.57427,0.0935 -0.03282,0 -0.06017,0.08379 -0.06017,0.08379 0,0 0.443008,-1.766873 -0.84773,-1.766873 -0.809448,0 -1.925173,0.839113 -2.477564,1.605122 -0.350033,0.182517 -1.093847,0.568192 -1.881418,0.979978 -0.300808,0.156285 -0.612555,0.323137 -0.907894,0.474201 l -0.06016,-0.06314 c -1.5642,-1.589578 -4.457426,-2.715155 -4.337103,-4.85204 0.04375,-0.776574 0.328152,-2.824689 5.556744,-5.305355 4.282413,-2.032693 7.711623,-1.474944 8.307768,-0.234733 0.847734,1.771973 -1.832192,5.065765 -6.284151,5.540088 -1.695462,0.182395 -2.586949,-0.443115 -2.811188,-0.677483 -0.235176,-0.245055 -0.267992,-0.255377 -0.355502,-0.208503 -0.142198,0.07286 -0.0547,0.291807 0,0.422106 0.131264,0.328238 0.678186,0.912095 1.607958,1.204024 0.814916,0.255256 2.805717,0.395998 5.212182,-0.489989 2.696333,-0.995399 4.801988,-3.75755 4.183966,-6.066385 -0.628963,-2.350609 -4.719952,-3.12184 -8.586702,-1.813625 -2.302546,0.781674 -4.796518,2.00112 -6.590428,3.601263 -2.133001,1.89693 -2.472095,3.554269 -2.329895,4.242317 0.4977,2.454679 4.047234,4.0547 5.469235,5.237716 -0.07109,0.03643 -0.136731,0.07286 -0.196892,0.104433 -0.711001,0.33346 -3.418272,1.683327 -4.096459,3.111398 -0.76569,1.615565 0.120325,2.777815 0.711002,2.934102 1.826726,0.484767 3.697205,-0.385677 4.709012,-1.818848 1.006339,-1.433171 0.886016,-3.293791 0.421132,-4.143347 l -0.0164,-0.03157 0.557861,-0.312694 c 0.36097,-0.203281 0.716471,-0.390898 1.028218,-0.552528 -0.175015,0.453438 -0.300809,0.9903 -0.36644,1.771974 -0.07658,0.917316 0.317217,2.105554 0.836793,2.574656 0.22971,0.20316 0.50317,0.208381 0.672718,0.208381 0.601615,0 0.875077,-0.474201 1.175883,-1.042272 0.371909,-0.693149 0.700063,-1.49571 0.700063,-1.49571 0,0 -0.410192,2.173193 0.711002,2.173193 0.410191,0 0.820385,-0.505532 1.006338,-0.766131 l 0,0.01215 c 0,0 0.01096,-0.01579 0.03282,-0.05222 0.04375,-0.06194 0.06562,-0.09958 0.06562,-0.09958 l 0,-0.01214 c 0.164078,-0.271042 0.530516,-0.891208 1.077439,-1.917937 0.705531,-1.323759 1.383717,-2.981098 1.383717,-2.981098 0,0 0.06565,0.406563 0.267993,1.073603 0.120325,0.39612 0.382846,0.82867 0.585209,1.250898 -0.164078,0.218825 -0.262523,0.343903 -0.262523,0.343903 l 0.0054,0.01214 c -0.131259,0.166609 -0.27893,0.343903 -0.432068,0.521077 -0.557862,0.635831 -1.225109,1.360188 -1.312617,1.568692 -0.103911,0.244933 -0.08202,0.427328 0.120325,0.573292 0.147668,0.104434 0.410192,0.125078 0.689123,0.104434 0.50317,-0.03157 0.853201,-0.151308 1.028219,-0.224168 0.273461,-0.09351 0.585205,-0.234491 0.886013,-0.442994 0.546926,-0.385676 0.880547,-0.93286 0.847734,-1.662439 -0.01641,-0.401342 -0.15314,-0.797583 -0.322688,-1.172694 0.04922,-0.06679 0.09844,-0.135642 0.147671,-0.208503 0.864138,-1.203902 1.531386,-2.52766 1.531386,-2.52766 0,0 0.06564,0.406563 0.267992,1.073602 0.103912,0.338803 0.311747,0.708814 0.497701,1.073603 -0.809448,0.63061 -1.318086,1.36031 -1.493101,1.839856 -0.322685,0.885865 -0.07109,1.287206 0.404723,1.380953 0.213299,0.0425 0.519577,-0.05222 0.749286,-0.145963 0.284399,-0.08865 0.628964,-0.239712 0.946177,-0.463759 0.546923,-0.385677 1.071971,-0.922539 1.044624,-1.647018 -0.01641,-0.333459 -0.10939,-0.661818 -0.235177,-0.974512 0.689124,-0.27092 1.58061,-0.427329 2.712742,-0.297029 2.43381,0.271042 2.915103,1.719878 2.822126,2.324379 -0.09298,0.604623 -0.601616,0.938204 -0.771163,1.042395 -0.169547,0.09836 -0.224239,0.135399 -0.207831,0.208381 0.02189,0.109292 0.09844,0.104434 0.246116,0.08379 0.202362,-0.03157 1.279801,-0.495088 1.323553,-1.610344 0.06565,-1.433292 -1.361838,-2.996762 -3.894095,-2.981219 z m -18.770418,6.029955 c -0.803978,0.838992 -1.93611,1.157029 -2.417403,0.885986 -0.519578,-0.286585 -0.317217,-1.521817 0.672716,-2.413147 0.601614,-0.541963 1.383717,-1.042152 1.897825,-1.349624 0.114845,-0.068 0.28987,-0.166851 0.4977,-0.286707 0.03282,-0.02065 0.0547,-0.03157 0.0547,-0.03157 0.03829,-0.02065 0.08202,-0.04736 0.125792,-0.07286 0.366438,1.271541 0.01642,2.386796 -0.831324,3.267682 z m 5.879429,-3.809766 c -0.278932,0.651496 -0.86961,2.3245 -1.22511,2.23063 -0.306277,-0.07893 -0.492231,-1.344644 -0.06016,-2.595541 0.218769,-0.63061 0.683655,-1.381076 0.957117,-1.672883 0.443008,-0.468981 0.924302,-0.625388 1.044624,-0.43255 0.1422,0.250155 -0.541454,2.06378 -0.716469,2.470344 z m 4.85121,2.209744 c -0.120325,0.05707 -0.229707,0.09958 -0.278931,0.068 -0.03829,-0.02185 0.04923,-0.09958 0.04923,-0.09958 0,0 0.607084,-0.620046 0.847731,-0.906752 0.13673,-0.166852 0.300809,-0.359568 0.475822,-0.578515 l 0,0.06194 c 0,0.750465 -0.754754,1.250775 -1.093847,1.454057 z m 3.740959,-0.813004 c -0.08751,-0.06194 -0.07656,-0.255378 0.21877,-0.859879 0.114845,-0.239711 0.377376,-0.641052 0.831324,-1.021629 0.05469,0.156408 0.08751,0.307473 0.08202,0.448337 -0.0054,0.938081 -0.705534,1.287328 -1.132134,1.433171 z"
     id="path4"
     style="fill:#ffffff;opacity:0.75"
     inkscape:connector-curvature="0" />
</svg>
