<svg height="64" viewBox="0 0 64 64" width="64" xmlns="http://www.w3.org/2000/svg" xmlns:xlink="http://www.w3.org/1999/xlink"><linearGradient id="a" gradientTransform="translate(-48 -332.36)" gradientUnits="userSpaceOnUse" x2="0" y1="392.35999" y2="336.35999"><stop offset="0" stop-color="#fff" stop-opacity="0"/><stop offset="1" stop-color="#fff" stop-opacity=".1"/></linearGradient><linearGradient id="b" gradientUnits="userSpaceOnUse" x1="40" x2="54" y1="17" y2="31"><stop offset="0" stop-color="#060606"/><stop offset="1" stop-opacity="0"/></linearGradient><linearGradient id="c" gradientUnits="userSpaceOnUse" x1="10" x2="10" y1="61" y2="3"><stop offset="0" stop-color="#7769ff"/><stop offset="1" stop-color="#347bff"/></linearGradient><path d="m10 61v-58h30l14 14v44h-14z" fill="url(#c)" height="100%" width="100%"/><g transform="scale(1 -1)"><path d="m10-4h30v1h-30z" fill="#fff" opacity=".361"/><path d="m10-61h44v1h-44z" opacity=".25"/></g><path d="m54 17-14-14v14z" fill="#2d479a"/><path d="m40 17 14 14v-14z" fill="url(#b)" fill-rule="evenodd" opacity=".2"/><path d="m10 61v-58h30l14 14v44h-14z" fill="url(#a)"/><path d="m21 22v22h22l-11-11 11-11zm1 1h9l-9 9zm10.41406 0h8.17187l-18.58593 18.58594v-8.17188zm-1.1211 10.70703 9.29297 9.29297h-18.58593z" fill="#2d479a"/></svg>