<svg xmlns="http://www.w3.org/2000/svg" viewBox="0 0 64 64">
 <defs>
  <linearGradient id="a" y1="3" y2="61" x2="0" gradientUnits="userSpaceOnUse" gradientTransform="matrix(1 0 0-1 0 64)">
   <stop stop-color="#cf000f"/>
   <stop offset="1" stop-color="#d91e18"/>
  </linearGradient>
  <linearGradient id="b" y1="61" y2="47" x2="0" gradientUnits="userSpaceOnUse" gradientTransform="matrix(1 0 0-1 0 64)">
   <stop stop-color="#fb7d80"/>
   <stop offset="1" stop-color="#fb9fa2"/>
  </linearGradient>
  <linearGradient id="c" y1="17" x1="40" y2="31" x2="54" gradientUnits="userSpaceOnUse">
   <stop stop-color="#383e51"/>
   <stop offset="1" stop-color="#655c6f" stop-opacity="0"/>
  </linearGradient>
 </defs>
 <path fill="url(#a)" d="m10 61v-58h30l14 14v44h-14z"/>
 <g transform="scale(1-1)">
  <rect width="30" x="10" y="-4" fill="#ffffff" height="1" fill-opacity=".412"/>
  <rect width="44" x="10" y="-61" fill="#2e3132" height="1" fill-opacity=".294"/>
 </g>
 <g fill-rule="evenodd">
  <path fill="url(#b)" d="m54 17l-14-14v14z"/>
  <path opacity=".2" fill="url(#c)" d="m40 17l14 14v-14z"/>
 </g>
 <path fill="#fcbcbe" d="m21 22v22h22v-22h-21zm1 1h20v20h-20zm2 3v1h1v-1zm1 1v2h2v-2zm2 0h1v-1h-1zm0 2v1h1v-1zm-2 0h-1v1h1zm11-3v1h1v-1zm1 1v2h2v-2zm2 0h1v-1h-1zm0 2v1h1v-1zm-2 0h-1v1h1zm-8 5v2h6v-2zm6 2v2h2v-2zm2 2v2h2v-2zm-8-2h-2v2h2zm-2 2h-2v2h2z"/>
</svg>
