<svg width="64" xmlns="http://www.w3.org/2000/svg" viewBox="0 0 64 64" height="64" xmlns:xlink="http://www.w3.org/1999/xlink">
 <defs>
  <linearGradient id="a" y1="17" x1="40" y2="31" gradientUnits="userSpaceOnUse" x2="54" gradientTransform="translate(46 296.36)">
   <stop stop-color="#060606"/>
   <stop offset="1" stop-opacity="0"/>
  </linearGradient>
  <linearGradient id="b" y1="392.36" y2="336.36" gradientUnits="userSpaceOnUse" x2="0" gradientTransform="translate(-2-36)">
   <stop stop-color="#ffffff" stop-opacity="0"/>
   <stop offset="1" stop-color="#ffffff" stop-opacity=".2"/>
  </linearGradient>
  <path id="c" d="m56 357.36v-58h30l14 14v44h-14z"/>
 </defs>
 <g transform="translate(-46-296.36)">
  <use fill="#1bb2fb" xlink:href="#c"/>
  <g color-rendering="auto" color-interpolation-filters="linearRGB" shape-rendering="auto" image-rendering="auto" text-rendering="auto" color-interpolation="sRGB" color="#000000" transform="scale(1-1)">
   <rect opacity=".5" x="56" y="-300.36" width="30" fill="#ffffff" height="1"/>
   <rect opacity=".25" x="56" y="-357.36" width="44" height="1"/>
  </g>
  <g fill-rule="evenodd">
   <path opacity=".5" fill="#ffffff" d="m100 313.36l-14-14v14z"/>
   <path opacity=".2" fill="url(#a)" d="m86 313.36l14 14v-14z"/>
  </g>
  <path opacity=".9" color-interpolation-filters="linearRGB" color="#000000" image-rendering="auto" color-rendering="auto" d="m67 318.36v1h22v-1zm0 3v1h22v-1zm0 3v1h11v-1zm0 4v1h22v-1zm0 3v1h9v-1zm13 0v9h9v-9zm1 1h7v7h-7zm-14 1v1h5v-1zm0 3v1h10v-1zm0 3v1h6v-1z" color-interpolation="sRGB" text-rendering="auto" fill="#ffffff" shape-rendering="auto"/>
  <use fill="url(#b)" xlink:href="#c"/>
 </g>
</svg>
