<?xml version="1.0" encoding="UTF-8" standalone="no"?>
<svg
   xmlns:dc="http://purl.org/dc/elements/1.1/"
   xmlns:cc="http://creativecommons.org/ns#"
   xmlns:rdf="http://www.w3.org/1999/02/22-rdf-syntax-ns#"
   xmlns:svg="http://www.w3.org/2000/svg"
   xmlns="http://www.w3.org/2000/svg"
   xmlns:xlink="http://www.w3.org/1999/xlink"
   xmlns:sodipodi="http://sodipodi.sourceforge.net/DTD/sodipodi-0.dtd"
   xmlns:inkscape="http://www.inkscape.org/namespaces/inkscape"
   width="64"
   viewBox="0 0 64 64"
   height="64"
   id="svg2"
   version="1.1"
   inkscape:version="0.91 r13725"
   sodipodi:docname="x-office-drawing.svg">
  <metadata
     id="metadata46">
    <rdf:RDF>
      <cc:Work
         rdf:about="">
        <dc:format>image/svg+xml</dc:format>
        <dc:type
           rdf:resource="http://purl.org/dc/dcmitype/StillImage" />
      </cc:Work>
    </rdf:RDF>
  </metadata>
  <sodipodi:namedview
     pagecolor="#ffffff"
     bordercolor="#666666"
     borderopacity="1"
     objecttolerance="10"
     gridtolerance="10"
     guidetolerance="10"
     inkscape:pageopacity="0"
     inkscape:pageshadow="2"
     inkscape:window-width="1920"
     inkscape:window-height="1025"
     id="namedview44"
     showgrid="true"
     inkscape:zoom="7.375"
     inkscape:cx="28.463246"
     inkscape:cy="42.047085"
     inkscape:window-x="0"
     inkscape:window-y="26"
     inkscape:window-maximized="1"
     inkscape:current-layer="svg2">
    <inkscape:grid
       type="xygrid"
       id="grid4364" />
  </sodipodi:namedview>
  <defs
     id="defs4">
    <linearGradient
       id="a"
       y1="17"
       x1="40"
       y2="31"
       gradientUnits="userSpaceOnUse"
       x2="54">
      <stop
         stop-color="#060606"
         id="stop7" />
      <stop
         offset="1"
         stop-opacity="0"
         id="stop9" />
    </linearGradient>
    <linearGradient
       id="b"
       y1="392.36"
       y2="336.36"
       gradientUnits="userSpaceOnUse"
       x2="0"
       gradientTransform="translate(318,-254)">
      <stop
         stop-color="#ffffff"
         stop-opacity="0"
         id="stop12" />
      <stop
         offset="1"
         stop-color="#ffffff"
         stop-opacity=".2"
         id="stop14" />
    </linearGradient>
    <path
       id="c"
       d="m376 139.36v-58h30l14 14v44h-14z" />
    <path
       fill-rule="evenodd"
       id="d"
       d="m420 95.36l-14-14v14z" />
    <linearGradient
       gradientTransform="translate(-107.16905,-5.58452)"
       x2="54"
       gradientUnits="userSpaceOnUse"
       y2="31"
       x1="40"
       y1="17"
       id="a-6">
      <stop
         id="stop4240"
         stop-color="#060606" />
      <stop
         id="stop4242"
         stop-opacity="0"
         offset="1" />
    </linearGradient>
    <linearGradient
       gradientTransform="translate(254,-36)"
       x2="0"
       gradientUnits="userSpaceOnUse"
       y2="336.36"
       y1="392.36"
       id="b-2">
      <stop
         id="stop4245"
         stop-opacity="0"
         stop-color="#ffffff" />
      <stop
         id="stop4247"
         stop-opacity=".2"
         stop-color="#ffffff"
         offset="1" />
    </linearGradient>
    <path
       d="m312 357.36v-58h30l14 14v44h-14z"
       id="c-9" />
  </defs>
  <use
     xlink:href="#c"
     id="use22"
     style="color:#000000;color-interpolation:sRGB;color-interpolation-filters:linearRGB;fill:#febf10;color-rendering:auto;image-rendering:auto;shape-rendering:auto;text-rendering:auto;fill-opacity:1"
     x="0"
     y="0"
     width="100%"
     height="100%"
     transform="translate(-366,-78.36)" />
  <path
     style="color:#000000;opacity:0.3;color-interpolation:sRGB;color-interpolation-filters:linearRGB;fill:#ffffff;color-rendering:auto;image-rendering:auto;shape-rendering:auto;text-rendering:auto"
     d="M 10 4 L 10 5 L 12 5 L 12 7 L 10 7 L 10 8 L 12 8 L 12 10 L 10 10 L 10 11 L 12 11 L 12 13 L 10 13 L 10 14 L 12 14 L 12 16 L 10 16 L 10 17 L 12 17 L 12 19 L 10 19 L 10 20 L 12 20 L 12 22 L 10 22 L 10 23 L 12 23 L 12 25 L 10 25 L 10 26 L 12 26 L 12 28 L 10 28 L 10 29 L 12 29 L 12 31 L 10 31 L 10 32 L 12 32 L 12 34 L 10 34 L 10 35 L 12 35 L 12 37 L 10 37 L 10 38 L 12 38 L 12 40 L 10 40 L 10 41 L 12 41 L 12 43 L 10 43 L 10 44 L 12 44 L 12 46 L 10 46 L 10 47 L 12 47 L 12 49 L 10 49 L 10 50 L 12 50 L 12 52 L 10 52 L 10 53 L 12 53 L 12 55 L 10 55 L 10 56 L 12 56 L 12 58 L 10 58 L 10 59 L 12 59 L 12 61 L 13 61 L 13 59 L 15 59 L 15 61 L 16 61 L 16 59 L 18 59 L 18 61 L 19 61 L 19 59 L 21 59 L 21 61 L 22 61 L 22 59 L 24 59 L 24 61 L 25 61 L 25 59 L 27 59 L 27 61 L 28 61 L 28 59 L 30 59 L 30 61 L 31 61 L 31 59 L 33 59 L 33 61 L 34 61 L 34 59 L 36 59 L 36 61 L 37 61 L 37 59 L 39 59 L 39 61 L 40 61 L 40 59 L 42 59 L 42 61 L 43 61 L 43 59 L 45 59 L 45 61 L 46 61 L 46 59 L 48 59 L 48 61 L 49 61 L 49 59 L 51 59 L 51 61 L 52 61 L 52 59 L 54 59 L 54 58 L 52 58 L 52 56 L 54 56 L 54 55 L 52 55 L 52 53 L 54 53 L 54 52 L 52 52 L 52 50 L 54 50 L 54 49 L 52 49 L 52 47 L 54 47 L 54 46 L 52 46 L 52 44 L 54 44 L 54 43 L 52 43 L 52 41 L 54 41 L 54 40 L 52 40 L 52 38 L 54 38 L 54 37 L 52 37 L 52 35 L 54 35 L 54 34 L 52 34 L 52 32 L 54 32 L 54 31 L 52 31 L 52 29 L 54 29 L 54 28 L 52 28 L 52 26 L 54 26 L 54 25 L 52 25 L 52 23 L 54 23 L 54 22 L 52 22 L 52 20 L 54 20 L 54 19 L 52 19 L 52 17 L 51 17 L 51 19 L 49 19 L 49 17 L 48 17 L 48 19 L 46 19 L 46 17 L 45 17 L 45 19 L 43 19 L 43 17 L 42 17 L 42 19 L 40 19 L 40 17 L 40 16 L 40 14 L 40 13 L 40 11 L 40 10 L 40 8 L 40 7 L 40 5 L 40 4 L 12 4 L 10 4 z M 13 5 L 15 5 L 15 7 L 13 7 L 13 5 z M 16 5 L 18 5 L 18 7 L 16 7 L 16 5 z M 19 5 L 21 5 L 21 7 L 19 7 L 19 5 z M 22 5 L 24 5 L 24 7 L 22 7 L 22 5 z M 25 5 L 27 5 L 27 7 L 25 7 L 25 5 z M 28 5 L 30 5 L 30 7 L 28 7 L 28 5 z M 31 5 L 33 5 L 33 7 L 31 7 L 31 5 z M 34 5 L 36 5 L 36 7 L 34 7 L 34 5 z M 37 5 L 39 5 L 39 7 L 37 7 L 37 5 z M 13 8 L 15 8 L 15 10 L 13 10 L 13 8 z M 16 8 L 18 8 L 18 10 L 16 10 L 16 8 z M 19 8 L 21 8 L 21 10 L 19 10 L 19 8 z M 22 8 L 24 8 L 24 10 L 22 10 L 22 8 z M 25 8 L 27 8 L 27 10 L 25 10 L 25 8 z M 28 8 L 30 8 L 30 10 L 28 10 L 28 8 z M 31 8 L 33 8 L 33 10 L 31 10 L 31 8 z M 34 8 L 36 8 L 36 10 L 34 10 L 34 8 z M 37 8 L 39 8 L 39 10 L 37 10 L 37 8 z M 13 11 L 15 11 L 15 13 L 13 13 L 13 11 z M 16 11 L 18 11 L 18 13 L 16 13 L 16 11 z M 19 11 L 21 11 L 21 13 L 19 13 L 19 11 z M 22 11 L 24 11 L 24 13 L 22 13 L 22 11 z M 25 11 L 27 11 L 27 13 L 25 13 L 25 11 z M 28 11 L 30 11 L 30 13 L 28 13 L 28 11 z M 31 11 L 33 11 L 33 13 L 31 13 L 31 11 z M 34 11 L 36 11 L 36 13 L 34 13 L 34 11 z M 37 11 L 39 11 L 39 13 L 37 13 L 37 11 z M 13 14 L 15 14 L 15 16 L 13 16 L 13 14 z M 16 14 L 18 14 L 18 16 L 16 16 L 16 14 z M 19 14 L 21 14 L 21 16 L 19 16 L 19 14 z M 22 14 L 24 14 L 24 16 L 22 16 L 22 14 z M 25 14 L 27 14 L 27 16 L 25 16 L 25 14 z M 28 14 L 30 14 L 30 16 L 28 16 L 28 14 z M 31 14 L 33 14 L 33 16 L 31 16 L 31 14 z M 34 14 L 36 14 L 36 16 L 34 16 L 34 14 z M 37 14 L 39 14 L 39 16 L 37 16 L 37 14 z M 13 17 L 15 17 L 15 19 L 13 19 L 13 17 z M 16 17 L 18 17 L 18 19 L 16 19 L 16 17 z M 19 17 L 21 17 L 21 19 L 19 19 L 19 17 z M 22 17 L 24 17 L 24 19 L 22 19 L 22 17 z M 25 17 L 27 17 L 27 19 L 25 19 L 25 17 z M 28 17 L 30 17 L 30 19 L 28 19 L 28 17 z M 31 17 L 33 17 L 33 19 L 31 19 L 31 17 z M 34 17 L 36 17 L 36 19 L 34 19 L 34 17 z M 37 17 L 39 17 L 39 19 L 37 19 L 37 17 z M 13 20 L 15 20 L 15 22 L 13 22 L 13 20 z M 16 20 L 18 20 L 18 22 L 16 22 L 16 20 z M 19 20 L 21 20 L 21 22 L 19 22 L 19 20 z M 22 20 L 24 20 L 24 22 L 22 22 L 22 20 z M 25 20 L 27 20 L 27 22 L 25 22 L 25 20 z M 28 20 L 30 20 L 30 22 L 28 22 L 28 20 z M 31 20 L 33 20 L 33 22 L 31 22 L 31 20 z M 34 20 L 36 20 L 36 22 L 34 22 L 34 20 z M 37 20 L 39 20 L 39 22 L 37 22 L 37 20 z M 40 20 L 42 20 L 42 22 L 40 22 L 40 20 z M 43 20 L 45 20 L 45 22 L 43 22 L 43 20 z M 46 20 L 48 20 L 48 22 L 46 22 L 46 20 z M 49 20 L 51 20 L 51 22 L 49 22 L 49 20 z M 13 23 L 15 23 L 15 25 L 13 25 L 13 23 z M 16 23 L 18 23 L 18 25 L 16 25 L 16 23 z M 19 23 L 21 23 L 21 25 L 19 25 L 19 23 z M 22 23 L 24 23 L 24 25 L 22 25 L 22 23 z M 25 23 L 27 23 L 27 25 L 25 25 L 25 23 z M 28 23 L 30 23 L 30 25 L 28 25 L 28 23 z M 31 23 L 33 23 L 33 25 L 31 25 L 31 23 z M 34 23 L 36 23 L 36 25 L 34 25 L 34 23 z M 37 23 L 39 23 L 39 25 L 37 25 L 37 23 z M 40 23 L 42 23 L 42 25 L 40 25 L 40 23 z M 43 23 L 45 23 L 45 25 L 43 25 L 43 23 z M 46 23 L 48 23 L 48 25 L 46 25 L 46 23 z M 49 23 L 51 23 L 51 25 L 49 25 L 49 23 z M 13 26 L 15 26 L 15 28 L 13 28 L 13 26 z M 16 26 L 18 26 L 18 28 L 16 28 L 16 26 z M 19 26 L 21 26 L 21 28 L 19 28 L 19 26 z M 22 26 L 24 26 L 24 28 L 22 28 L 22 26 z M 25 26 L 27 26 L 27 28 L 25 28 L 25 26 z M 28 26 L 30 26 L 30 28 L 28 28 L 28 26 z M 31 26 L 33 26 L 33 28 L 31 28 L 31 26 z M 34 26 L 36 26 L 36 28 L 34 28 L 34 26 z M 37 26 L 39 26 L 39 28 L 37 28 L 37 26 z M 40 26 L 42 26 L 42 28 L 40 28 L 40 26 z M 43 26 L 45 26 L 45 28 L 43 28 L 43 26 z M 46 26 L 48 26 L 48 28 L 46 28 L 46 26 z M 49 26 L 51 26 L 51 28 L 49 28 L 49 26 z M 13 29 L 15 29 L 15 31 L 13 31 L 13 29 z M 16 29 L 18 29 L 18 31 L 16 31 L 16 29 z M 19 29 L 21 29 L 21 31 L 19 31 L 19 29 z M 22 29 L 24 29 L 24 31 L 22 31 L 22 29 z M 25 29 L 27 29 L 27 31 L 25 31 L 25 29 z M 28 29 L 30 29 L 30 31 L 28 31 L 28 29 z M 31 29 L 33 29 L 33 31 L 31 31 L 31 29 z M 34 29 L 36 29 L 36 31 L 34 31 L 34 29 z M 37 29 L 39 29 L 39 31 L 37 31 L 37 29 z M 40 29 L 42 29 L 42 31 L 40 31 L 40 29 z M 43 29 L 45 29 L 45 31 L 43 31 L 43 29 z M 46 29 L 48 29 L 48 31 L 46 31 L 46 29 z M 49 29 L 51 29 L 51 31 L 49 31 L 49 29 z M 13 32 L 15 32 L 15 34 L 13 34 L 13 32 z M 16 32 L 18 32 L 18 34 L 16 34 L 16 32 z M 19 32 L 21 32 L 21 34 L 19 34 L 19 32 z M 22 32 L 24 32 L 24 34 L 22 34 L 22 32 z M 25 32 L 27 32 L 27 34 L 25 34 L 25 32 z M 28 32 L 30 32 L 30 34 L 28 34 L 28 32 z M 31 32 L 33 32 L 33 34 L 31 34 L 31 32 z M 34 32 L 36 32 L 36 34 L 34 34 L 34 32 z M 37 32 L 39 32 L 39 34 L 37 34 L 37 32 z M 40 32 L 42 32 L 42 34 L 40 34 L 40 32 z M 43 32 L 45 32 L 45 34 L 43 34 L 43 32 z M 46 32 L 48 32 L 48 34 L 46 34 L 46 32 z M 49 32 L 51 32 L 51 34 L 49 34 L 49 32 z M 13 35 L 15 35 L 15 37 L 13 37 L 13 35 z M 16 35 L 18 35 L 18 37 L 16 37 L 16 35 z M 19 35 L 21 35 L 21 37 L 19 37 L 19 35 z M 22 35 L 24 35 L 24 37 L 22 37 L 22 35 z M 25 35 L 27 35 L 27 37 L 25 37 L 25 35 z M 28 35 L 30 35 L 30 37 L 28 37 L 28 35 z M 31 35 L 33 35 L 33 37 L 31 37 L 31 35 z M 34 35 L 36 35 L 36 37 L 34 37 L 34 35 z M 37 35 L 39 35 L 39 37 L 37 37 L 37 35 z M 40 35 L 42 35 L 42 37 L 40 37 L 40 35 z M 43 35 L 45 35 L 45 37 L 43 37 L 43 35 z M 46 35 L 48 35 L 48 37 L 46 37 L 46 35 z M 49 35 L 51 35 L 51 37 L 49 37 L 49 35 z M 13 38 L 15 38 L 15 40 L 13 40 L 13 38 z M 16 38 L 18 38 L 18 40 L 16 40 L 16 38 z M 19 38 L 21 38 L 21 40 L 19 40 L 19 39 L 19 38 z M 22 38 L 24 38 L 24 40 L 22 40 L 22 39 L 22 38 z M 25 38 L 27 38 L 27 40 L 25 40 L 25 39 L 25 38 z M 28 38 L 30 38 L 30 40 L 28 40 L 28 39 L 28 38 z M 31 38 L 33 38 L 33 40 L 31 40 L 31 39 L 31 38 z M 34 38 L 36 38 L 36 40 L 34 40 L 34 39 L 34 38 z M 37 38 L 39 38 L 39 40 L 37 40 L 37 39 L 37 38 z M 40 38 L 42 38 L 42 40 L 40 40 L 40 39 L 40 38 z M 43 38 L 45 38 L 45 40 L 43 40 L 43 39 L 43 38 z M 46 38 L 48 38 L 48 40 L 46 40 L 46 39 L 46 38 z M 49 38 L 51 38 L 51 40 L 49 40 L 49 38 z M 13 41 L 15 41 L 15 43 L 13 43 L 13 41 z M 16 41 L 18 41 L 18 43 L 16 43 L 16 41 z M 19 41 L 21 41 L 21 43 L 19 43 L 19 41 z M 22 41 L 24 41 L 24 43 L 22 43 L 22 42 L 22 41 z M 25 41 L 27 41 L 27 43 L 25 43 L 25 42 L 25 41 z M 28 41 L 30 41 L 30 43 L 28 43 L 28 42 L 28 41 z M 31 41 L 33 41 L 33 43 L 31 43 L 31 42 L 31 41 z M 34 41 L 36 41 L 36 43 L 34 43 L 34 42 L 34 41 z M 37 41 L 39 41 L 39 43 L 37 43 L 37 42 L 37 41 z M 40 41 L 42 41 L 42 43 L 40 43 L 40 42 L 40 41 z M 43 41 L 45 41 L 45 43 L 43 43 L 43 42 L 43 41 z M 46 41 L 48 41 L 48 43 L 46 43 L 46 42 L 46 41 z M 49 41 L 51 41 L 51 43 L 49 43 L 49 42 L 49 41 z M 13 44 L 15 44 L 15 46 L 13 46 L 13 44 z M 16 44 L 18 44 L 18 46 L 16 46 L 16 44 z M 19 44 L 21 44 L 21 46 L 19 46 L 19 44 z M 22 44 L 24 44 L 24 46 L 22 46 L 22 44 z M 25 44 L 27 44 L 27 46 L 25 46 L 25 44 z M 28 44 L 30 44 L 30 46 L 28 46 L 28 44 z M 31 44 L 33 44 L 33 46 L 31 46 L 31 44 z M 34 44 L 36 44 L 36 46 L 34 46 L 34 44 z M 37 44 L 39 44 L 39 46 L 37 46 L 37 44 z M 40 44 L 42 44 L 42 46 L 40 46 L 40 44 z M 43 44 L 45 44 L 45 46 L 43 46 L 43 44 z M 46 44 L 48 44 L 48 46 L 46 46 L 46 44 z M 49 44 L 51 44 L 51 46 L 49 46 L 49 44 z M 13 47 L 15 47 L 15 49 L 13 49 L 13 47 z M 16 47 L 18 47 L 18 49 L 16 49 L 16 47 z M 19 47 L 21 47 L 21 49 L 19 49 L 19 47 z M 22 47 L 24 47 L 24 49 L 22 49 L 22 47 z M 25 47 L 27 47 L 27 49 L 25 49 L 25 47 z M 28 47 L 30 47 L 30 49 L 28 49 L 28 47 z M 31 47 L 33 47 L 33 49 L 31 49 L 31 47 z M 34 47 L 36 47 L 36 49 L 34 49 L 34 47 z M 37 47 L 39 47 L 39 49 L 37 49 L 37 47 z M 40 47 L 42 47 L 42 49 L 40 49 L 40 47 z M 43 47 L 45 47 L 45 49 L 43 49 L 43 47 z M 46 47 L 48 47 L 48 49 L 46 49 L 46 47 z M 49 47 L 51 47 L 51 49 L 49 49 L 49 47 z M 13 50 L 15 50 L 15 52 L 13 52 L 13 50 z M 16 50 L 18 50 L 18 52 L 16 52 L 16 50 z M 19 50 L 21 50 L 21 52 L 19 52 L 19 50 z M 22 50 L 24 50 L 24 52 L 22 52 L 22 50 z M 25 50 L 27 50 L 27 52 L 25 52 L 25 50 z M 28 50 L 30 50 L 30 52 L 28 52 L 28 50 z M 31 50 L 33 50 L 33 52 L 31 52 L 31 50 z M 34 50 L 36 50 L 36 52 L 34 52 L 34 50 z M 37 50 L 39 50 L 39 52 L 37 52 L 37 50 z M 40 50 L 42 50 L 42 52 L 40 52 L 40 50 z M 43 50 L 45 50 L 45 52 L 43 52 L 43 51 L 43 50 z M 46 50 L 48 50 L 48 52 L 46 52 L 46 51 L 46 50 z M 49 50 L 51 50 L 51 52 L 49 52 L 49 51 L 49 50 z M 13 53 L 15 53 L 15 55 L 13 55 L 13 53 z M 16 53 L 18 53 L 18 55 L 16 55 L 16 53 z M 19 53 L 21 53 L 21 55 L 19 55 L 19 53 z M 22 53 L 24 53 L 24 55 L 22 55 L 22 53 z M 25 53 L 27 53 L 27 55 L 25 55 L 25 53 z M 28 53 L 30 53 L 30 55 L 28 55 L 28 53 z M 31 53 L 33 53 L 33 55 L 31 55 L 31 53 z M 34 53 L 36 53 L 36 55 L 34 55 L 34 53 z M 37 53 L 39 53 L 39 55 L 37 55 L 37 53 z M 40 53 L 42 53 L 42 55 L 40 55 L 40 53 z M 43 53 L 45 53 L 45 55 L 43 55 L 43 53 z M 46 53 L 48 53 L 48 55 L 46 55 L 46 53 z M 49 53 L 51 53 L 51 55 L 49 55 L 49 53 z M 13 56 L 15 56 L 15 58 L 13 58 L 13 56 z M 16 56 L 18 56 L 18 58 L 16 58 L 16 56 z M 19 56 L 21 56 L 21 58 L 19 58 L 19 56 z M 22 56 L 24 56 L 24 58 L 22 58 L 22 56 z M 25 56 L 27 56 L 27 58 L 25 58 L 25 56 z M 28 56 L 30 56 L 30 58 L 28 58 L 28 56 z M 31 56 L 33 56 L 33 58 L 31 58 L 31 56 z M 34 56 L 36 56 L 36 58 L 34 58 L 34 56 z M 37 56 L 39 56 L 39 58 L 37 58 L 37 56 z M 40 56 L 42 56 L 42 58 L 40 58 L 40 56 z M 43 56 L 45 56 L 45 58 L 43 58 L 43 56 z M 46 56 L 48 56 L 48 58 L 46 58 L 46 56 z M 49 56 L 51 56 L 51 58 L 49 58 L 49 56 z "
     id="path26" />
  <rect
     style="color:#000000;opacity:0.5;color-interpolation:sRGB;color-interpolation-filters:linearRGB;fill:#ffffff;color-rendering:auto;image-rendering:auto;shape-rendering:auto;text-rendering:auto"
     id="rect28"
     transform="scale(1,-1)"
     height="1"
     width="30"
     y="-4.0000005"
     x="10" />
  <rect
     x="10"
     y="-61"
     width="44"
     height="1"
     transform="scale(1,-1)"
     id="rect30"
     style="color:#000000;opacity:0.25;color-interpolation:sRGB;color-interpolation-filters:linearRGB;color-rendering:auto;image-rendering:auto;shape-rendering:auto;text-rendering:auto" />
  <path
     d="M 40,17 54,31 54,17 Z"
     id="path36"
     style="opacity:0.1;fill:url(#a);fill-rule:evenodd"
     inkscape:connector-curvature="0" />
  <path
     d="m 24,23 0,3 1,0 0,5.057 a 2.5,2.5 0 0 0 -2,2.44336 2.5,2.5 0 0 0 2,2.44531 l 0,5.05 -1,0 0,3 3,0 0,-3 -1,0 0,-3.529 a 13,10.500004 0 0 0 12,6.5293 13,10.500004 0 0 0 1,-0.041 l 0,-0.996 A 12,9.500009 0 0 1 38,42.99607 12,9.500009 0 0 1 26.38086,35.83201 2.5,2.5 0 0 0 28,33.49606 2.5,2.5 0 0 0 26.38281,31.15817 12,9.500009 0 0 1 38,23.99606 a 12,9.500009 0 0 1 1,0.0391 l 0,-1.01 a 13,10.500004 0 0 0 -1,-0.0332 13,10.500004 0 0 0 -12,6.51172 l 0,-3.512 1,0 0,-3 z m 1,1 1,0 0,1 -1,0 z m 0.5,8 A 1.5,1.5 0 0 1 27,33.5 1.5,1.5 0 0 1 25.5,35 1.5,1.5 0 0 1 24,33.5 1.5,1.5 0 0 1 25.5,32 m -0.5,10 1,0 0,1 -1,0 z"
     id="path38"
     inkscape:connector-curvature="0"
     style="color:#4d4d4d;opacity:0.9;color-interpolation:sRGB;color-interpolation-filters:linearRGB;fill:#ffffff;fill-rule:evenodd;color-rendering:auto;image-rendering:auto;shape-rendering:auto;text-rendering:auto" />
  <path
     style="opacity:0.5;fill:#ffffff;fill-opacity:1;fill-rule:evenodd;stroke:none;stroke-width:1px;stroke-linecap:butt;stroke-linejoin:miter;stroke-opacity:1"
     d="m 40,3 0,14 14,0 z"
     id="path4366"
     inkscape:connector-curvature="0" />
  <use
     height="100%"
     width="100%"
     y="0"
     x="0"
     style="fill:url(#b)"
     id="use42"
     xlink:href="#c"
     transform="translate(-366,-78.36)" />
</svg>
