<svg xmlns="http://www.w3.org/2000/svg" viewBox="0 0 16 16">
  <defs id="defs3051">
    <style type="text/css" id="current-color-scheme">
      .ColorScheme-Text {
        color:#bebebe;
      }
      </style>
  </defs>
 <path style="fill:currentColor;fill-opacity:1;stroke:none" 
       d="M 7.3730469 2 L 7.3730469 7 L 8.6269531 7 L 8.6269531 2 L 7.3730469 2 z M 9 2.0859375 L 9 3.1015625 A 5 5 0 0 1 13 8 A 5 5 0 0 1 8 13 A 5 5 0 0 1 3 8 A 5 5 0 0 1 7 3.1054688 L 7 2.0898438 A 6 6 0 0 0 2 8 A 6 6 0 0 0 8 14 A 6 6 0 0 0 14 8 A 6 6 0 0 0 9 2.0859375 z "
     class="ColorScheme-Text"
     />
</svg>
