<svg version="1.1" viewBox="0 0 32 32" xmlns="http://www.w3.org/2000/svg">
     <defs>
          <linearGradient id="linearGradient862" x1="370.22" x2="370.03" y1="509.64" y2="479.76" gradientTransform="matrix(.93333 0 0 .93333 55.171 70.016)" gradientUnits="userSpaceOnUse">
               <stop stop-color="#197cf1" offset="0"/>
               <stop stop-color="#21c9fb" offset="1"/>
          </linearGradient>
          <linearGradient id="linearGradient4273" x2="0" y1="22" y2="10" gradientTransform="matrix(1.6667 0 0 1.6667 372.9 504.13)" gradientUnits="userSpaceOnUse">
               <stop stop-color="#7cbaf8" offset="0"/>
               <stop stop-color="#f4fcff" offset="1"/>
          </linearGradient>
          <linearGradient id="linearGradient4191" x1="7.2685" x2="25.93" y1="9.3115" y2="28.651" gradientTransform="translate(384.31 512.98)" gradientUnits="userSpaceOnUse">
               <stop stop-color="#292c2f" offset="0"/>
               <stop stop-opacity="0" offset="1"/>
          </linearGradient>
     </defs>
     <g transform="translate(-384.57 -515.8)">
          <circle cx="400.57" cy="531.8" r="14" fill="url(#linearGradient862)" stroke-width="1.3712"/>
          <path d="m402.07 522.8 1.3077 3.2548 0.37613 3.4727-1.9279 3.5315-4.2908 1.4349-1.3975 0.31027-4.5675-1.5042 12 12 3.5745-1.416 3.0958-2.2532 2.0959-2.9722 0.95879-2.2742 0.77492-1.5844z" fill="url(#linearGradient4191)" fill-rule="evenodd" opacity=".2"/>
          <path d="m397.07 520.8c-4.155 0-7.5 3.345-7.5 7.5s3.345 7.5 7.5 7.5c1.7753 0 3.3829-0.63332 4.6647-1.6569l6.6569 6.6569 1.1784-1.1784-6.6569-6.6569c1.0236-1.2818 1.6569-2.8894 1.6569-4.6647 0-4.155-3.345-7.5-7.5-7.5zm0 1.6667c3.2316 0 5.8333 2.6017 5.8333 5.8333s-2.6017 5.8333-5.8333 5.8333-5.8333-2.6017-5.8333-5.8333 2.6017-5.8333 5.8333-5.8333z" fill="url(#linearGradient4273)" stroke-width="1.6667"/>
     </g>
</svg>
