<svg height="32" width="32" xmlns="http://www.w3.org/2000/svg" xmlns:xlink="http://www.w3.org/1999/xlink"><linearGradient id="c" gradientUnits="userSpaceOnUse" x1="32" x2="32" xlink:href="#a" y1="30" y2="2"/><linearGradient id="e" gradientUnits="userSpaceOnUse" x1="-16.5" x2="-16.5" y1="29.5" y2="5.5"><stop offset="0" stop-color="#31363b"/><stop offset="1" stop-color="#333c45"/></linearGradient><linearGradient id="b"><stop offset="0" stop-color="#292c2f"/><stop offset="1" stop-opacity="0"/></linearGradient><linearGradient id="h" gradientUnits="userSpaceOnUse" x1="9" x2="9" xlink:href="#a" y1="11" y2="13"/><linearGradient id="i" gradientUnits="userSpaceOnUse" x1="23" x2="23" xlink:href="#a" y1="11" y2="13"/><linearGradient id="j" gradientUnits="userSpaceOnUse" x1="23" x2="23" xlink:href="#a" y1="15" y2="17"/><linearGradient id="f" gradientUnits="userSpaceOnUse" x1="23" x2="23" xlink:href="#a" y1="19" y2="21"/><linearGradient id="g" gradientUnits="userSpaceOnUse" x1="9" x2="9" xlink:href="#a" y1="19" y2="21"/><linearGradient id="k" gradientUnits="userSpaceOnUse" x1="9" x2="9" xlink:href="#a" y1="15" y2="17"/><linearGradient id="p" gradientUnits="userSpaceOnUse" x1="16" x2="16" y1="28" y2="4"><stop offset="0" stop-color="#cfd5d5"/><stop offset="1" stop-color="#eff0f1"/></linearGradient><linearGradient id="l" gradientUnits="userSpaceOnUse" x1="9.854" x2="29" xlink:href="#b" y1="4.146" y2="23.293"/><linearGradient id="m" gradientUnits="userSpaceOnUse" x1="12.854" x2="29" xlink:href="#b" y1="4.146" y2="20.293"/><linearGradient id="n" gradientUnits="userSpaceOnUse" x1="19.854" x2="31" xlink:href="#b" y1="4.146" y2="15.293"/><linearGradient id="o" gradientUnits="userSpaceOnUse" x1="22.854" x2="30" xlink:href="#b" y1="4.146" y2="11.293"/><linearGradient id="d" gradientUnits="userSpaceOnUse" x2="0" y1="30" y2="2"><stop offset="0" stop-color="#54a3d8"/><stop offset="1" stop-color="#7cbcec"/></linearGradient><linearGradient id="a" gradientUnits="userSpaceOnUse" x1="5" x2="5" y1="21" y2="11"><stop offset="0" stop-color="#375a7d"/><stop offset="1" stop-color="#3b85b5"/></linearGradient><path d="M4 30h24v-2H4zM4 2h24v2H4z" fill="url(#c)"/><path d="M4 28h24v2H4z" fill="#292c2f" opacity=".2"/><path d="M3 2a1 1 0 0 0-.1.006 1 1 0 0 0-.1.014 1 1 0 0 0-.095.025 1 1 0 0 0-.094.033 1 1 0 0 0-.09.045 1 1 0 0 0-.085.05 1 1 0 0 0-.08.061 1 1 0 0 0-.073.069 1 1 0 0 0-.066.076 1 1 0 0 0-.059.08 1 1 0 0 0-.049.088 1 1 0 0 0-.04.09 1 1 0 0 0-.032.095 1 1 0 0 0-.023.098 1 1 0 0 0-.012.1A1 1 0 0 0 2 3v26a1 1 0 0 0 .002.07 1 1 0 0 0 .012.1 1 1 0 0 0 .023.098 1 1 0 0 0 .031.095 1 1 0 0 0 .041.09 1 1 0 0 0 .05.088 1 1 0 0 0 .058.08 1 1 0 0 0 .066.076 1 1 0 0 0 .072.069 1 1 0 0 0 .08.06 1 1 0 0 0 .086.051 1 1 0 0 0 .09.045 1 1 0 0 0 .094.033 1 1 0 0 0 .096.025 1 1 0 0 0 .1.014A1 1 0 0 0 3 30h1a1 1 0 0 0 .1-.006 1 1 0 0 0 .1-.014 1 1 0 0 0 .095-.025 1 1 0 0 0 .094-.033 1 1 0 0 0 .09-.045 1 1 0 0 0 .085-.05 1 1 0 0 0 .08-.061 1 1 0 0 0 .073-.069 1 1 0 0 0 .066-.076 1 1 0 0 0 .059-.08 1 1 0 0 0 .049-.088 1 1 0 0 0 .04-.09 1 1 0 0 0 .032-.095 1 1 0 0 0 .023-.098 1 1 0 0 0 .012-.1A1 1 0 0 0 5 29v-1h22v1a1 1 0 0 0 .002.07 1 1 0 0 0 .012.1 1 1 0 0 0 .023.098 1 1 0 0 0 .031.095 1 1 0 0 0 .041.09 1 1 0 0 0 .05.088 1 1 0 0 0 .058.08 1 1 0 0 0 .066.076 1 1 0 0 0 .072.069 1 1 0 0 0 .08.06 1 1 0 0 0 .086.051 1 1 0 0 0 .09.045 1 1 0 0 0 .094.033 1 1 0 0 0 .096.025 1 1 0 0 0 .1.014A1 1 0 0 0 28 30h1a1 1 0 0 0 .1-.006 1 1 0 0 0 .1-.014 1 1 0 0 0 .095-.025 1 1 0 0 0 .094-.033 1 1 0 0 0 .09-.045 1 1 0 0 0 .085-.05 1 1 0 0 0 .08-.061 1 1 0 0 0 .073-.069 1 1 0 0 0 .066-.076 1 1 0 0 0 .059-.08 1 1 0 0 0 .049-.088 1 1 0 0 0 .04-.09 1 1 0 0 0 .032-.095 1 1 0 0 0 .023-.098 1 1 0 0 0 .012-.1A1 1 0 0 0 30 29V3a1 1 0 0 0-.002-.07 1 1 0 0 0-.012-.1 1 1 0 0 0-.023-.098 1 1 0 0 0-.031-.095 1 1 0 0 0-.041-.09 1 1 0 0 0-.05-.088 1 1 0 0 0-.058-.08 1 1 0 0 0-.066-.076 1 1 0 0 0-.072-.069 1 1 0 0 0-.08-.06 1 1 0 0 0-.086-.051 1 1 0 0 0-.09-.045 1 1 0 0 0-.094-.033 1 1 0 0 0-.096-.025 1 1 0 0 0-.1-.014A1 1 0 0 0 29 2h-1a1 1 0 0 0-.1.006 1 1 0 0 0-.1.014 1 1 0 0 0-.095.025 1 1 0 0 0-.094.033 1 1 0 0 0-.09.045 1 1 0 0 0-.085.05 1 1 0 0 0-.08.061 1 1 0 0 0-.073.069 1 1 0 0 0-.066.076 1 1 0 0 0-.059.08 1 1 0 0 0-.049.088 1 1 0 0 0-.04.09 1 1 0 0 0-.032.095 1 1 0 0 0-.023.098 1 1 0 0 0-.012.1A1 1 0 0 0 27 3v1H5V3a1 1 0 0 0-.002-.07 1 1 0 0 0-.012-.1 1 1 0 0 0-.023-.098 1 1 0 0 0-.031-.095 1 1 0 0 0-.041-.09 1 1 0 0 0-.05-.088 1 1 0 0 0-.058-.08 1 1 0 0 0-.066-.076 1 1 0 0 0-.072-.069 1 1 0 0 0-.08-.06 1 1 0 0 0-.086-.051 1 1 0 0 0-.09-.045 1 1 0 0 0-.094-.033 1 1 0 0 0-.096-.025 1 1 0 0 0-.1-.014A1 1 0 0 0 4 2z" fill="url(#d)"/><path d="M4 4a1 1 0 0 0-1 1v22a1 1 0 0 0 1 1h24a1 1 0 0 0 1-1V5a1 1 0 0 0-1-1zm1 2h10v20H5zm12 0h10v20H17z" fill="url(#e)" opacity=".8"/><path d="M18 19h8v2h-8z" fill="url(#f)"/><path d="M6 19h8v2H6z" fill="url(#g)"/><path d="M6 11h8v2H6z" fill="url(#h)"/><path d="M18 11h8v2h-8z" fill="url(#i)"/><path d="M18 15h8v2h-8z" fill="url(#j)"/><path d="M6 15h8v2H6z" fill="url(#k)"/><path d="M9.854 4.146L12 6.293l.146 21.56L14.293 30h-3l-2.147-2.146z" fill="url(#l)" opacity=".2"/><path d="M12.854 4.146L19 10.293l.146 17.56L21.293 30h-7l-2.147-2.146z" fill="url(#m)" opacity=".2"/><path d="M19.854 4.146L22 6.293l.146 21.56L24.293 30h-3l-2.147-2.146z" fill="url(#n)" opacity=".2"/><path d="M22.854 4.146l-.708 23.708L24.293 30H29a1.007 1.007 0 0 0 .295-.045 1 1 0 0 0 .35-.19 1 1 0 0 0 .246-.312 1.003 1.003 0 0 0 .107-.383A1 1 0 0 0 30 29V11.293z" fill="url(#o)" opacity=".2"/><path d="M9.5 4a.5.5 0 0 0-.5.5v23a.5.5 0 0 0 1 0v-23a.5.5 0 0 0-.5-.5zm3 0a.5.5 0 0 0-.5.5v23a.5.5 0 0 0 1 0v-23a.5.5 0 0 0-.5-.5zm7 0a.5.5 0 0 0-.5.5v23a.5.5 0 0 0 1 0v-23a.5.5 0 0 0-.5-.5zm3 0a.5.5 0 0 0-.5.5v23a.5.5 0 0 0 1 0v-23a.5.5 0 0 0-.5-.5z" fill="url(#p)"/></svg>