<svg height="32" width="32" xmlns="http://www.w3.org/2000/svg" xmlns:xlink="http://www.w3.org/1999/xlink"><linearGradient id="a"><stop offset="0" stop-color="#e81877"/><stop offset=".312499" stop-color="#dd1d8c"/><stop offset=".562499" stop-color="#6d57b1"/><stop offset=".75" stop-color="#2a78c1"/><stop offset="1" stop-color="#018dcb"/></linearGradient><linearGradient id="b"><stop offset="0" stop-color="#e51561"/><stop offset=".312499" stop-color="#e4156c"/><stop offset=".562499" stop-color="#e71e2c"/><stop offset=".75" stop-color="#e8301e"/><stop offset="1" stop-color="#e6320e"/></linearGradient><linearGradient id="c"><stop offset="0" stop-color="#bec900"/><stop offset=".312499" stop-color="#9ec80a"/><stop offset=".562499" stop-color="#71b93d"/><stop offset=".75" stop-color="#35a48f"/><stop offset="1" stop-color="#018fca"/></linearGradient><linearGradient id="d"><stop offset="0" stop-color="#c1cc00"/><stop offset=".312499" stop-color="#dfcd00"/><stop offset=".562499" stop-color="#f0cc00"/><stop offset=".75" stop-color="#fd8c08"/><stop offset="1" stop-color="#f25c13"/></linearGradient><linearGradient id="e" gradientTransform="matrix(-.40403755 -1.5078898 1.5078887 -.40403789 34.507553 61.88627)" gradientUnits="userSpaceOnUse" x1="8" x2="24.00001" xlink:href="#d" y1="24" y2="8"/><linearGradient id="f" gradientUnits="userSpaceOnUse" x1="394.57143" x2="408.57143" y1="523.798" y2="537.798"><stop offset="0" stop-color="#292c2f"/><stop offset="1" stop-color="#292c2f" stop-opacity=".035714"/></linearGradient><linearGradient id="g" gradientTransform="matrix(.99946327 0 0 .99953344 .211233 .25042)" gradientUnits="userSpaceOnUse" x1="400.57144" x2="400.57144" y1="536.79797" y2="522.79797"><stop offset="0" stop-color="#eff0f1"/><stop offset="1" stop-color="#fcfcfc"/></linearGradient><linearGradient id="h" gradientTransform="matrix(-1.1038511 -1.103852 1.1038511 -1.103852 60.999973 68.984915)" gradientUnits="userSpaceOnUse" x1="8" x2="24.00001" xlink:href="#d" y1="24" y2="8"/><linearGradient id="i" gradientTransform="matrix(-.40403755 -1.5078898 -1.5078887 .40403789 106.88621 42.492466)" gradientUnits="userSpaceOnUse" x1="8" x2="24.00001" xlink:href="#c" y1="23.999973" y2="8"/><linearGradient id="j" gradientTransform="matrix(.40403755 1.5078898 1.5078887 -.40403789 15.113754 -10.492425)" gradientUnits="userSpaceOnUse" x1="8" x2="24.00001" xlink:href="#b" y1="24.000031" y2="8"/><linearGradient id="k" gradientTransform="matrix(1.5078887 .40403789 -.40403755 1.5078898 34.50755 -29.88626)" gradientUnits="userSpaceOnUse" x1="8" x2="24.00001" xlink:href="#a" y1="23.999973" y2="8"/><linearGradient id="l" gradientTransform="matrix(1.5078887 .40403789 .40403755 -1.5078898 15.113751 42.492446)" gradientUnits="userSpaceOnUse" x1="8" x2="24.00001" xlink:href="#b" y1="24.000031" y2="8"/><linearGradient id="m" gradientTransform="matrix(-1.5078887 -.40403789 -.40403755 1.5078898 106.88621 -10.492446)" gradientUnits="userSpaceOnUse" x1="8" x2="24.00001" xlink:href="#c" y1="23.999973" y2="8"/><linearGradient id="n" gradientTransform="matrix(-1.5078887 -.40403789 .40403755 -1.5078898 87.492393 61.88626)" gradientUnits="userSpaceOnUse" x1="8" x2="24.00001" xlink:href="#d" y1="24" y2="8"/><linearGradient id="o" gradientTransform="matrix(1.1038511 1.103852 -1.1038511 1.103852 60.99999 -36.98486)" gradientUnits="userSpaceOnUse" x1="8" x2="24.00001" xlink:href="#a" y1="23.999973" y2="8"/><linearGradient id="p" gradientTransform="matrix(1.1038511 1.103852 1.1038511 -1.103852 8.015131 16.00003)" gradientUnits="userSpaceOnUse" x1="8" x2="24.00001" xlink:href="#b" y1="24.000031" y2="8"/><linearGradient id="q" gradientTransform="matrix(-1.1038511 -1.103852 -1.1038511 1.103852 113.98484 16.00003)" gradientUnits="userSpaceOnUse" x1="8" x2="24.00001" xlink:href="#c" y1="23.999973" y2="8"/><linearGradient id="r" gradientTransform="matrix(.40403755 1.5078898 -1.5078887 .40403789 87.49235 -29.88624)" gradientUnits="userSpaceOnUse" x1="8" x2="24.00001" xlink:href="#a" y1="23.999973" y2="8"/><g transform="translate(-384.57143 -515.798)"><g stroke-opacity=".550265" stroke-width="4.371029"><path d="m45 11.712891v20.287109h11.712891l4.287109-16z" fill="url(#l)" transform="translate(339.57143 513.798)"/><path d="m64.214844 4-3.214844 12 16 4.287109v-16.287109z" fill="url(#m)" transform="translate(339.57143 513.798)"/><path d="m61 16-4.287109 16h20.287109v-11.712891z" fill="url(#n)" transform="translate(339.57143 513.798)"/><path d="m77 11.712891-16 4.287109 4.287109 16h11.712891z" fill="url(#i)" opacity=".3" transform="translate(339.57143 513.798)"/><path d="m73 4-12 12 16 16v-28z" fill="url(#q)" opacity=".35" transform="translate(339.57143 513.798)"/><path d="m57.785156 4 3.214844 12 16-4.287109v-7.712891z" fill="url(#r)" opacity=".3" transform="translate(339.57143 513.798)"/><path d="m45 4v7.712891l16 4.287109 3.214844-12z" fill="url(#k)" transform="translate(339.57143 513.798)"/><path d="m45 4v28l16-16-12-12z" fill="url(#p)" opacity=".35" transform="translate(339.57143 513.798)"/><path d="m61 16-16 16h32z" fill="url(#h)" opacity=".35" transform="translate(339.57143 513.798)"/><path d="m61 16-16 4.287109v11.712891h20.287109z" fill="url(#e)" opacity=".3" transform="translate(339.57143 513.798)"/><path d="m45 4v16.287109l16-4.287109-3.214844-12z" fill="url(#j)" opacity=".3" transform="translate(339.57143 513.798)"/><path d="m49 4 12 12 12-12z" fill="url(#o)" opacity=".35" transform="translate(339.57143 513.798)"/></g><path d="m407.43666 522.93472a1.7499762 7.8748938 44.997781 0 1 -4.33203 6.80469 1.7499762 7.8748938 44.997781 0 1 -3.54492 3.06054l12.9043 12.99805h4.10742v-13.72851zm-9.84765 7.84961-.0176.0137.004.004a1.7499762 7.8748938 44.997781 0 1 .0137-.0176zm.13672.16992 1.70312 1.71485c-.30575-.78802-.91881-1.40227-1.70312-1.71485zm.69531 1.61914c.4221.38858.40039.94169.40039 1.30469 0 1.16824-1.7472 2.91992-5.25 2.91992l9 9h9.07422z" fill="url(#f)" opacity=".25"/><path d="m384.57144 541.79803h16.000013v3.999968h-16.000013z" fill="#fff" fill-opacity=".784314" stroke-width=".707108"/><path d="m400.57144 541.79803h16.000013v3.999968h-16.000013z" fill="#31363b" fill-opacity=".862245" stroke-width=".707108"/><circle cx="413.5715" cy="543.79797" fill="#eff0f1" r="1"/><path d="m386.57148 542.79797v1h1v-1zm1 1v1h1v-1z" fill="#4d4d4d"/><path d="m407.14523 522.8045a1.7499762 7.8748938 44.997781 0 0 -6.51432 4.46054 1.7499762 7.8748938 44.997781 0 0 -3.09995 3.5992c.9415.29981 1.67569 1.03404 1.97548 1.97564a1.7499762 7.8748938 44.997781 0 0 3.59895-3.10019 1.7499762 7.8748938 44.997781 0 0 4.33035-6.80529 1.7499762 7.8748938 44.997781 0 0 -.29051-.1299m-10.07396 9.32442c-3.49984.93784-.87497 3.15348-3.49984 4.66905 3.5028 0 5.24975-1.75076 5.24975-2.919 0-.58179.0591-1.65331-1.74991-1.75005z" fill="url(#g)"/></g></svg>