<svg height="32" width="32" xmlns="http://www.w3.org/2000/svg" xmlns:xlink="http://www.w3.org/1999/xlink"><linearGradient id="b" gradientUnits="userSpaceOnUse" x1="16" x2="16" y1="46" y2="18"><stop offset="0" stop-color="#afb0b3"/><stop offset="1" stop-color="#bdc3c7"/></linearGradient><linearGradient id="c" gradientTransform="matrix(1.125 0 0 .83333 -2.625 -.167)" gradientUnits="userSpaceOnUse" x1="16.556" x2="16.556" y1="35.001" y2="3.8"><stop offset="0" stop-color="#c0392b"/><stop offset="1" stop-color="#e74c3c"/></linearGradient><linearGradient id="e" gradientUnits="userSpaceOnUse" x1="46" x2="46" xlink:href="#a" y1="32" y2="16"/><linearGradient id="a"><stop offset="0" stop-color="#4d4d4d"/><stop offset="1" stop-color="#536161"/></linearGradient><linearGradient id="g" gradientUnits="userSpaceOnUse" x1="46" x2="46" xlink:href="#a" y1="29.771" y2="18.576"/><linearGradient id="d" gradientUnits="userSpaceOnUse" x1="46" x2="46" y1="30.881" y2="17.377"><stop offset="0" stop-color="#eff1f1"/><stop offset="1" stop-color="#fcfcfc"/></linearGradient><linearGradient id="f" gradientUnits="userSpaceOnUse" x1="17" x2="30" y1="16" y2="29"><stop offset="0" stop-color="#232629"/><stop offset="1" stop-opacity="0"/></linearGradient><path d="M2 18h28v28H2z" fill="url(#b)" transform="translate(0 -16)"/><path d="M3 24h9v5H3zm11 0h15v5H14zM3 17h15v5H3zm17 0h9v5h-9zM3 10h9v5H3zm11 0h15v5H14zm6-7h9v5h-9zM3 3h15v5H3z" fill="url(#c)"/><path d="M39 20l7-3 7 3v4l-3 4-3 3h-2l-3-3-3-4z" fill="url(#d)" transform="translate(-30 -8)"/><path d="M46 16s-2 2.658-8 3.325c0 0 0 9.333 8 12.675 8-3.342 8-12.675 8-12.675C48 18.658 46 16 46 16zm0 1.377c1.587 1.344 3.877 2.242 6.845 2.693-.16 1.446-.315 2.533-.689 3.585-.785 2.209-1.7 3.552-2.522 4.518-1.272 1.498-2.427 2.105-3.634 2.708-1.207-.603-2.362-1.21-3.634-2.708-.821-.966-1.737-2.31-2.522-4.518-.374-1.052-.528-2.14-.69-3.585 2.97-.451 5.259-1.349 6.846-2.693z" fill="url(#e)" transform="translate(-30 -8)"/><path d="M24 11.324s-.007 1.421-.479 3.344l-1.853-1.852-8.213 7.108 3.58 3.58c-.331.175-.671.344-1.035.496a11.915 11.915 0 0 1-4.045-2.77l-.014.012L20.7 30H30V17.324z" fill="url(#f)" opacity=".2"/><path d="M46 18.576c-1.743 1.21-3.702 1.823-5.668 2.24.93 5.282 2.936 7.541 5.668 8.955 2.732-1.414 4.737-3.673 5.668-8.955-1.966-.417-3.925-1.03-5.668-2.24z" fill="url(#g)" transform="translate(-30 -8)"/><path d="M2 29h28v1H2z" fill="#7b7e89"/></svg>