<?xml version="1.0" encoding="UTF-8" standalone="no"?>

<!-- Created with Inkscape (http://www.inkscape.org/) -->
<svg width="32" version="1.1" xmlns="http://www.w3.org/2000/svg" height="32" xmlns:xlink="http://www.w3.org/1999/xlink" xmlns:inkscape="http://www.inkscape.org/namespaces/inkscape">
 <defs id="defs5455">
  <linearGradient inkscape:collect="always" id="linearGradient4159">
   <stop style="stop-color:#2a2c2f" id="stop4161"/>
   <stop offset="1" style="stop-color:#424649" id="stop4163"/>
  </linearGradient>
  <linearGradient inkscape:collect="always" xlink:href="#linearGradient4159" id="linearGradient4274" y1="545.79797" y2="517.79797" x2="0" gradientUnits="userSpaceOnUse"/>
  <linearGradient inkscape:collect="always" id="linearGradient4219">
   <stop style="stop-color:#999a9c" id="stop4221"/>
   <stop offset="1" style="stop-color:#f4f5f5" id="stop4223"/>
  </linearGradient>
  <linearGradient inkscape:collect="always" xlink:href="#linearGradient4219" id="linearGradient4309" y1="537.79797" y2="525.79797" x2="0" gradientUnits="userSpaceOnUse"/>
  <linearGradient inkscape:collect="always" xlink:href="#linearGradient4227" id="linearGradient4387" y1="9" x1="9" y2="23" x2="23" gradientUnits="userSpaceOnUse"/>
  <linearGradient inkscape:collect="always" id="linearGradient4227">
   <stop style="stop-color:#292c2f" id="stop4229"/>
   <stop offset="1" style="stop-opacity:0" id="stop4231"/>
  </linearGradient>
 </defs>
 <metadata id="metadata5458"/>
 <g inkscape:label="Capa 1" inkscape:groupmode="layer" id="layer1" transform="matrix(1 0 0 1 -384.57143 -515.798)">
  <rect width="27.999973" x="386.57144" y="517.79797" rx="13.999987" height="27.999973" style="fill:url(#linearGradient4274)" id="rect4179"/>
  <path style="fill:url(#linearGradient4387);opacity:0.2;fill-rule:evenodd" id="path4361" d="M 13.28125 9.9707031 L 7.1699219 21.833984 L 15.302734 29.964844 C 15.535266 29.97622 15.764549 30 16 30 C 22.680701 30 28.227665 25.362327 29.640625 19.121094 L 24.289062 13.769531 L 20.960938 13.482422 L 19.058594 14.570312 L 19.138672 14.623047 L 19.074219 14.611328 L 21.697266 17.234375 L 21.160156 17.851562 L 13.28125 9.9707031 z " transform="matrix(1 0 0 1 384.57143 515.798)"/>
  <g id="text4228">
   <path style="fill:url(#linearGradient4309)" id="path4233" d="m 395.02473,532.78927 1.99875,-5.655 1.80375,5.655 -3.8025,0 z m 5.57375,4.8425 1.43,0 -4.17625,-11.8625 -1.69,0 -4.42,11.8625 1.43,0 1.41375,-3.75375 4.7125,0 1.3,3.75375 z"/>
   <path style="fill:url(#linearGradient4309)" id="path4235" d="m 405.53315,536.78677 c -0.82875,0 -1.44625,-0.40625 -1.44625,-1.38125 0,-1.21875 0.73125,-1.60875 3.20125,-1.93375 0.0163,0 0.79625,-0.11375 0.79625,-0.11375 l 0,2.145 c -0.56875,0.78 -1.7225,1.28375 -2.55125,1.28375 z m 2.58375,-0.11375 0.195,0.95875 1.08875,0 0,-6.4025 c 0,-1.95 -1.34875,-2.51875 -3.07125,-2.51875 -1.235,0 -2.38875,0.30875 -3.055,0.66625 l 0.37375,1.04 c 0.715,-0.34125 1.755,-0.585 2.71375,-0.585 1.2025,0 1.7225,0.5525 1.7225,1.60875 l 0,0.99125 -0.8775,0.0975 c -2.2425,0.325 -4.4525,0.63375 -4.4525,2.925 0,1.625 1.21875,2.3725 2.64875,2.3725 0.91,0 1.95,-0.2925 2.71375,-1.15375 z"/>
  </g>
 </g>
</svg>
