<?xml version="1.0" encoding="UTF-8" standalone="no"?>

<!-- Created with Inkscape (http://www.inkscape.org/) -->
<svg width="32" version="1.1" xmlns="http://www.w3.org/2000/svg" height="32" xmlns:xlink="http://www.w3.org/1999/xlink" xmlns:inkscape="http://www.inkscape.org/namespaces/inkscape">
 <defs id="defs5455">
  <linearGradient inkscape:collect="always" id="linearGradient4219">
   <stop style="stop-color:#eff0f1" id="stop4221"/>
   <stop offset="1" style="stop-color:#fcfcfc" id="stop4223"/>
  </linearGradient>
  <linearGradient inkscape:collect="always" xlink:href="#linearGradient4219" id="linearGradient5010" y1="536.79797" y2="522.79797" x2="0" gradientUnits="userSpaceOnUse"/>
  <linearGradient inkscape:collect="always" xlink:href="#linearGradient4227-9" id="linearGradient5093" y1="7" x1="9.00001" y2="21" x2="23" gradientUnits="userSpaceOnUse" gradientTransform="matrix(1 0 0 1 384.57143 515.798)"/>
  <linearGradient inkscape:collect="always" id="linearGradient4227-9">
   <stop style="stop-color:#292c2f" id="stop4229-5"/>
   <stop offset="1" style="stop-opacity:0" id="stop4231-6"/>
  </linearGradient>
  <linearGradient inkscape:collect="always" xlink:href="#linearGradient4697" id="linearGradient4703" y1="503.07938" x1="418.16971" y2="531.45813" x2="384.57144" gradientUnits="userSpaceOnUse" gradientTransform="matrix(0.91666628 0 0 0.91666628 -340.52366 -455.81464)"/>
  <linearGradient inkscape:collect="always" id="linearGradient4697">
   <stop style="stop-color:#1abc9c" id="stop4699"/>
   <stop offset="1" style="stop-color:#2980b9" id="stop4701"/>
  </linearGradient>
  <linearGradient inkscape:collect="always" xlink:href="#linearGradient4526" id="linearGradient4532" y1="521.63281" x1="404.0452" y2="528.35034" x2="430.73611" gradientUnits="userSpaceOnUse" gradientTransform="matrix(0.91666628 0 0 0.91666628 -340.52366 -455.81464)"/>
  <linearGradient inkscape:collect="always" id="linearGradient4526">
   <stop style="stop-color:#cc4a5e" id="stop4528"/>
   <stop offset="1" style="stop-color:#aa478a" id="stop4530"/>
  </linearGradient>
  <linearGradient inkscape:collect="always" xlink:href="#linearGradient4468" id="linearGradient4474" y1="542.22382" x1="398.09201" y2="524.89966" x2="394.00299" gradientUnits="userSpaceOnUse" gradientTransform="matrix(0.91666628 0 0 0.91666628 -340.52366 -455.81464)"/>
  <linearGradient inkscape:collect="always" id="linearGradient4468">
   <stop style="stop-color:#334545" id="stop4470"/>
   <stop offset="1" style="stop-color:#536161" id="stop4472"/>
  </linearGradient>
  <linearGradient inkscape:collect="always" xlink:href="#linearGradient4468" id="linearGradient4500" y1="568.79803" x1="431.57141" y2="562.79803" x2="439.57141" gradientUnits="userSpaceOnUse" gradientTransform="matrix(-1 0 0 1 839.14285 -40.00001)"/>
  <linearGradient inkscape:collect="always" xlink:href="#linearGradient4468" id="linearGradient4498" y1="581.87024" x1="406.53735" y2="572.67786" x2="423.31955" gradientUnits="userSpaceOnUse" gradientTransform="matrix(-0.91666628 0 0 0.91666628 428.69029 -492.4813)"/>
  <linearGradient inkscape:collect="always" xlink:href="#linearGradient4468" id="linearGradient4496" y1="572.33411" x1="423.05438" y2="566.76562" x2="431.22452" gradientUnits="userSpaceOnUse" gradientTransform="matrix(-0.91666628 0 0 0.91666628 448.69029 -492.4813)"/>
  <linearGradient inkscape:collect="always" xlink:href="#linearGradient4468" id="linearGradient4492" y1="577.10217" x1="431.3129" y2="571.44531" x2="440.63208" gradientUnits="userSpaceOnUse" gradientTransform="matrix(-0.91666628 0 0 0.91666628 428.69029 -492.4813)"/>
  <linearGradient inkscape:collect="always" xlink:href="#linearGradient4468" id="linearGradient4490" y1="577.36243" x1="430.56738" y2="591.32782" x2="423.74994" gradientUnits="userSpaceOnUse" gradientTransform="matrix(-0.91666628 0 0 0.91666628 428.69029 -492.4813)"/>
 </defs>
 <metadata id="metadata5458"/>
 <g inkscape:label="Capa 1" inkscape:groupmode="layer" id="layer1" transform="matrix(1 0 0 1 -384.57143 -515.798)">
  <g id="g4578" transform="matrix(0.66666636 0 0 0.85555436 128.19059 86.77139)">
   <path inkscape:connector-curvature="0" style="fill:url(#linearGradient4703)" id="path4589" d="M 12,6 12,36 56,36 56,6 12,6 Z" transform="matrix(1.0909096 0 0 1.0909096 371.48052 497.25255)"/>
   <path inkscape:connector-curvature="0" style="fill:url(#linearGradient4532);stroke-linecap:round;stroke-width:2" id="path4284" d="M 56,6 25.71875,23.482422 47.400391,36 56,36 56,6 Z" transform="matrix(1.0909096 0 0 1.0909096 371.48052 497.25255)"/>
   <path inkscape:connector-curvature="0" style="fill:url(#linearGradient4474);stroke-linecap:round;stroke-width:2" id="path4284-5-6" d="M 25.75,23.416016 12,31.355469 12,36 47.605469,36 25.75,23.416016 Z" transform="matrix(1.0909096 0 0 1.0909096 371.48052 497.25255)"/>
   <path inkscape:transform-center-x="-5.5056915" inkscape:connector-curvature="0" style="fill:url(#linearGradient4500);stroke-linecap:round;stroke-width:2" id="path4284-5-6-2-2" d="m 407.82995,527.56606 -8.25852,-4.76806 0,9.53611 z"/>
   <path inkscape:connector-curvature="0" style="fill:url(#linearGradient4498);stroke-linecap:round;stroke-width:2" id="path4284-5-6-2-0" d="m 40.890625,32.15625 0,3.84375 6.65625,0 -6.65625,-3.84375 z" transform="matrix(1.0909096 0 0 1.0909096 371.48052 497.25255)"/>
   <path inkscape:connector-curvature="0" style="fill:url(#linearGradient4496);stroke-linecap:round;stroke-width:2" id="path4284-5-6-2-6" d="m 53.320312,27.787109 0,8.212891 0.916016,0 6.654297,-3.841797 -7.570313,-4.371094 z" transform="matrix(1.0909096 0 0 1.0909096 349.66233 497.25255)"/>
   <path inkscape:connector-curvature="0" style="fill:url(#linearGradient4492);stroke-linecap:round;stroke-width:2" id="path4284-5-6-2-6-50" d="M 25.75,32.158203 25.75,36 32.404297,36 25.75,32.158203 Z" transform="matrix(1.0909096 0 0 1.0909096 371.48052 497.25255)"/>
   <path inkscape:connector-curvature="0" style="fill:url(#linearGradient4490);stroke-linecap:round;stroke-width:2" id="path4284-5-6-2-0-6" d="M 40.890625,32.15625 34.234375,36 l 6.65625,0 0,-3.84375 z" transform="matrix(1.0909096 0 0 1.0909096 371.48052 497.25255)"/>
   <path inkscape:transform-center-x="5.5056789" inkscape:connector-curvature="0" style="fill:#aa478a;stroke-linecap:round;stroke-width:2" id="path4284-1" d="m 399.53737,522.87024 33.03408,-19.07223 -2e-5,9.31712 z"/>
  </g>
  <g id="g4480">
   <path inkscape:connector-curvature="0" style="fill:url(#linearGradient5093);opacity:0.2;fill-rule:evenodd" id="path5074" d="m 396.57143,522.89761 0,1.5 7.2168,7.18359 -1.2168,1.2168 13,13 1,0 0,-1.49219 0,-2.49023 0,-5.01758 -9,-9 -2.5332,2.5332 -7.4668,-7.43359 -1,0 z m -2,5.40039 0,2.19922 4,3.97461 0,2.32617 9,9 5.59961,0 -17.59961,-17.5 -1,0 z"/>
   <path inkscape:connector-curvature="0" style="fill:url(#linearGradient5010)" id="path4783" d="m 397.07143,522.798 c -0.48475,0 -0.875,0.39025 -0.875,0.875 0,0.48475 0.39025,0.875 0.875,0.875 0.48475,0 0.875,-0.39025 0.875,-0.875 0,-0.48475 -0.39025,-0.875 -0.875,-0.875 z m 5.5,0 -2,2 3,3 -3,3 2,2 3,-3 2,-2 -2,-2 -3,-3 z m -7.6875,5.25 c -0.72712,0 -1.3125,0.58537 -1.3125,1.3125 0,0.72712 0.58538,1.3125 1.3125,1.3125 0.72713,0 1.3125,-0.58538 1.3125,-1.3125 0,-0.72713 -0.58537,-1.3125 -1.3125,-1.3125 z m 3.9375,5.25 c -0.9695,0 -1.75,0.7805 -1.75,1.75 0,0.9695 0.7805,1.75 1.75,1.75 0.9695,0 1.75,-0.7805 1.75,-1.75 0,-0.9695 -0.7805,-1.75 -1.75,-1.75 z"/>
  </g>
  <g id="g4783" transform="matrix(1 0 0 1 0 -0.000063)">
   <rect width="31.999952" x="384.57144" y="541.7981" height="3.999968" style="fill:#ffffff;fill-opacity:0.784314" id="rect4267"/>
   <circle cx="414.57144" cy="543.79797" style="fill:#4d4d4d" r="1" id="path4166"/>
   <path inkscape:connector-curvature="0" style="fill:#4d4d4d" id="rect4183" d="m 2,27 0,1 1,0 0,-1 -1,0 z m 1,1 0,1 1,0 0,-1 -1,0 z" transform="matrix(1 0 0 1 384.57143 515.798)"/>
  </g>
 </g>
</svg>
