<svg height="32" width="32" xmlns="http://www.w3.org/2000/svg" xmlns:xlink="http://www.w3.org/1999/xlink"><linearGradient id="f" gradientUnits="userSpaceOnUse" x1="2" x2="2" y1="27" y2="9"><stop offset="0" stop-color="#31363b"/><stop offset="1" stop-color="#4f575f"/></linearGradient><linearGradient id="a"><stop offset="0" stop-color="#292c2f"/><stop offset="1" stop-opacity="0"/></linearGradient><radialGradient id="e" cx="12" cy="1" gradientTransform="matrix(0 .31579 -1.89476 -.00005 3.895 5.21)" gradientUnits="userSpaceOnUse" r="9.5" xlink:href="#a"/><radialGradient id="d" cx="2" cy="5.5" gradientTransform="matrix(0 1.37931 -2.27586 0 14.517 9.241)" gradientUnits="userSpaceOnUse" r="14.5" xlink:href="#a"/><linearGradient id="b" gradientTransform="matrix(.66667 0 0 .63518 -256.381 -317.28)" gradientUnits="userSpaceOnUse" x2="0" y1="543.798" y2="502.655"><stop offset="0" stop-color="#c6cdd1"/><stop offset="1" stop-color="#e0e5e7"/></linearGradient><linearGradient id="c" gradientUnits="userSpaceOnUse" x1="7" x2="22" y1="10" y2="25"><stop offset="0"/><stop offset="1" stop-opacity="0"/></linearGradient><path d="M0 2h32v28H0z" fill="url(#b)"/><path d="M1 28L31 8l1 1v21H3z" fill="url(#c)" fill-rule="evenodd" opacity=".2"/><path d="M0 2h32v4H0z" fill="#566069"/><path d="M0 6h32v1H0z" fill="#3daee9"/><path d="M1 8h30v20H1z" fill="#eff0f1"/><rect fill="#eff0f1" height="2" rx="1" width="2" x="29" y="3"/><path d="M2 27l1 1h28V13l-1-1z" fill="url(#d)" opacity=".2"/><path d="M2 12h28v15H2z" fill="#fcfcfc"/><path d="M2 10l2 2h16v-2l-1-1z" fill="url(#e)" opacity=".2"/><path d="M2 9h18v1H2z" fill="#fcfcfc"/><path d="M2 9h9v1H2zm0 17h4v1H2zm6 0h12v1H8zm-6-2h4v1H2zm6 0h14v1H8zm-6-2h4v1H2zm6 0h12v1H8zm-6-2h4v1H2zm6 0h14v1H8zm-6-2h4v1H2zm6 0h10v1H8zm-6-2h4v1H2zm6 0h16v1H8zm-6-2h4v1H2zm6 0h18v1H8zm-6-2h4v1H2zm6 0h12v1H8z" fill="url(#f)"/></svg>