<svg height="32" width="32" xmlns="http://www.w3.org/2000/svg" xmlns:xlink="http://www.w3.org/1999/xlink"><linearGradient id="a"><stop offset="0" stop-color="#334545"/><stop offset="1" stop-color="#536161"/></linearGradient><linearGradient id="c" gradientUnits="userSpaceOnUse" x1="29.851" x2="54.318" y1="22.349" y2="28.506"><stop offset="0" stop-color="#cc4a5e"/><stop offset="1" stop-color="#aa478a"/></linearGradient><linearGradient id="d" gradientUnits="userSpaceOnUse" x1="24.394" x2="20.646" xlink:href="#a" y1="41.224" y2="25.343"/><linearGradient id="e" gradientTransform="matrix(-1 0 0 1 839.143 -40)" gradientUnits="userSpaceOnUse" x1="431.571" x2="439.571" xlink:href="#a" y1="568.798" y2="562.798"/><linearGradient id="f" gradientTransform="matrix(-.91667 0 0 .91667 428.69 -492.481)" gradientUnits="userSpaceOnUse" x1="406.537" x2="423.32" xlink:href="#a" y1="581.87" y2="572.678"/><linearGradient id="g" gradientTransform="matrix(-.91667 0 0 .91667 448.69 -492.481)" gradientUnits="userSpaceOnUse" x1="423.054" x2="431.225" xlink:href="#a" y1="572.334" y2="566.766"/><linearGradient id="h" gradientTransform="matrix(-.91667 0 0 .91667 428.69 -492.481)" gradientUnits="userSpaceOnUse" x1="431.313" x2="440.632" xlink:href="#a" y1="577.102" y2="571.445"/><linearGradient id="i" gradientTransform="matrix(-.91667 0 0 .91667 428.69 -492.481)" gradientUnits="userSpaceOnUse" x1="430.567" x2="423.75" xlink:href="#a" y1="577.362" y2="591.328"/><linearGradient id="b" gradientTransform="matrix(.72727 0 0 .93333 -14.165 -4.975)" gradientUnits="userSpaceOnUse" x1="42.798" x2="12" y1="5.341" y2="31.355"><stop offset="0" stop-color="#1abc9c"/><stop offset="1" stop-color="#2980b9"/></linearGradient><path d="M-5.437.625v28h32v-28z" fill="url(#b)" transform="translate(5.438 1.375)"/><path d="M56 6L25.719 23.482 47.4 36H56z" fill="url(#c)" transform="matrix(.72727 0 0 .93333 -8.727 -3.6)"/><path d="M25.75 23.416L12 31.356V36h35.605z" fill="url(#d)" transform="matrix(.72727 0 0 .93333 -8.727 -3.6)"/><path d="M407.83 527.566l-8.259-4.768v9.536z" fill="url(#e)" transform="matrix(.66667 0 0 .85555 -256.38 -429.027)"/><path d="M40.89 32.156V36h6.657z" fill="url(#f)" transform="matrix(.72727 0 0 .93333 -8.727 -3.6)"/><path d="M53.32 27.787V36h.916l6.655-3.842z" fill="url(#g)" transform="matrix(.72727 0 0 .93333 -23.273 -3.6)"/><path d="M25.75 32.158V36h6.654z" fill="url(#h)" transform="matrix(.72727 0 0 .93333 -8.727 -3.6)"/><path d="M40.89 32.156L34.235 36h6.657z" fill="url(#i)" transform="matrix(.72727 0 0 .93333 -8.727 -3.6)"/><path d="M9.977 18.317L32 2v7.971z" fill="#aa478a"/><path d="M32 2v10A10 10 0 0 1 22 2zM0 2v10A10 10 0 0 0 10 2zm32 28V20a10 10 0 0 0-10 10zM.001 30V20a10 10 0 0 1 10 10z" fill="#93cee9"/><path d="M0 26h32v4H0z" fill="#fff" fill-opacity=".784"/><g fill="#4d4d4d"><circle cx="30" cy="28" r="1"/><path d="M2 27v1h1v-1zm1 1v1h1v-1z"/></g></svg>