<svg height="32" width="32" xmlns="http://www.w3.org/2000/svg" xmlns:xlink="http://www.w3.org/1999/xlink"><linearGradient id="a" gradientTransform="translate(-.00007 2)" gradientUnits="userSpaceOnUse" x2="0" y1="542.79797" y2="538.79797"><stop offset="0" stop-color="#c6cdd1"/><stop offset="1" stop-color="#e0e5e7"/></linearGradient><linearGradient id="b" gradientUnits="userSpaceOnUse" x1="393.57144" x2="410.57144" xlink:href="#c" y1="519.79797" y2="536.79797"/><linearGradient id="c"><stop offset="0"/><stop offset="1" stop-opacity="0"/></linearGradient><linearGradient id="d" gradientTransform="matrix(1 0 0 1.2105271 -3.00004 -111.43158)" gradientUnits="userSpaceOnUse" x2="0" y1="538.79797" y2="519.79797"><stop offset="0" stop-color="#2a2c2f"/><stop offset="1" stop-color="#424649"/></linearGradient><linearGradient id="e" gradientUnits="userSpaceOnUse" x2="0" y1="533.79797" y2="521.79797"><stop offset="0" stop-color="#eff0f1"/><stop offset="1" stop-color="#fcfcfc"/></linearGradient><linearGradient id="f" gradientUnits="userSpaceOnUse" x1="393.57143" x2="407.57146" xlink:href="#c" y1="520.797974" y2="534.798"/><linearGradient id="g" gradientTransform="matrix(.62499976 0 0 .54999977 145.21437 241.70922)" gradientUnits="userSpaceOnUse" x1="418.16971" x2="384.57144" y1="503.07938" y2="531.45813"><stop offset="0" stop-color="#1abc9c"/><stop offset="1" stop-color="#2980b9"/></linearGradient><linearGradient id="h" gradientTransform="matrix(.62499976 0 0 .54999977 145.21437 241.70922)" gradientUnits="userSpaceOnUse" x1="404.0452" x2="430.73611" y1="521.63281" y2="528.35034"><stop offset="0" stop-color="#cc4a5e"/><stop offset="1" stop-color="#aa478a"/></linearGradient><linearGradient id="i" gradientTransform="matrix(.62499976 0 0 .54999977 145.21437 241.70922)" gradientUnits="userSpaceOnUse" x1="398.09201" x2="394.00299" xlink:href="#j" y1="542.22382" y2="524.89966"/><linearGradient id="j"><stop offset="0" stop-color="#334545"/><stop offset="1" stop-color="#536161"/></linearGradient><linearGradient id="k" gradientTransform="matrix(-.62499973 0 0 .54999974 669.67843 219.70923)" gradientUnits="userSpaceOnUse" x1="431.57141" x2="439.57141" xlink:href="#j" y1="568.79803" y2="562.79803"/><linearGradient id="l" gradientTransform="matrix(-.62499976 0 0 .54999977 669.67845 219.70922)" gradientUnits="userSpaceOnUse" x1="406.53735" x2="423.31955" xlink:href="#j" y1="581.87024" y2="572.67786"/><linearGradient id="m" gradientTransform="matrix(-.62499976 0 0 .54999977 669.67845 219.70922)" gradientUnits="userSpaceOnUse" x1="423.05438" x2="431.22452" xlink:href="#j" y1="572.33411" y2="566.76562"/><linearGradient id="n" gradientTransform="matrix(-.62499976 0 0 .54999977 669.67845 219.70922)" gradientUnits="userSpaceOnUse" x1="431.3129" x2="440.63208" xlink:href="#j" y1="577.10217" y2="571.44531"/><linearGradient id="o" gradientTransform="matrix(-.62499976 0 0 .54999977 669.67845 219.70922)" gradientUnits="userSpaceOnUse" x1="430.56738" x2="423.74994" xlink:href="#j" y1="577.36243" y2="591.32782"/><g transform="translate(-384.57143 -515.798)"><path d="m385.57142 518.798v18h30v-18z" fill="url(#g)"/><g stroke-linecap="round" stroke-width="2"><path d="m415.57142 518.798-20.64631 10.48945 14.78294 7.51055h5.86337z" fill="url(#h)"/><path d="m394.94642 529.24761-9.375 4.76367v2.78672h24.27646z" fill="url(#i)"/><path d="m400.10799 531.87043-5.16157-2.62244v5.24486z" fill="url(#k)"/><path d="m405.26957 534.49175v2.30625h4.53836z" fill="url(#l)"/><path d="m400.108 531.87027v4.92773h.62456l4.53702-2.30508z" fill="url(#m)"/><path d="m394.94642 534.49292v2.30508h4.53702z" fill="url(#n)"/><path d="m405.26957 534.49175-4.53835 2.30625h4.53835z" fill="url(#o)"/><path d="m394.92513 529.28773 20.64629-10.48973-.00001 5.12442z" fill="#aa478a"/></g><path d="m397.57144 540.79797h6v4h-6z" fill="url(#a)"/><path d="m394.57144 544.79797h12v1h-12z" fill="#99a1a7"/><path d="m385.57143 536.79801 4 4h27v-21l-1-1v18z" fill="url(#b)" fill-rule="evenodd" opacity=".2"/><path d="m384.57143 517.79801v23h32v-23zm1 1h30v18h-30z" fill="url(#d)"/><path d="m400.57143 520.798v1h-1l-1 1-1 1v4h-2v7l6 6h10 5v-5l-14-14z" fill="url(#f)" fill-rule="evenodd" opacity=".2"/><path d="m400.57143 520.798c-1.662 0-3 1.338-3 3v1 3h-1-1v.75 6.25h10v-7h-2v-4c0-1.662-1.338-3-3-3zm0 1c1.2465 0 2 .5458 2 2v4h-3-1v-3-1c0-1.4542.75351-2 2-2z" fill="url(#e)"/></g></svg>