<svg version="1.1" viewBox="0 0 32 32" xmlns="http://www.w3.org/2000/svg"><defs><linearGradient id="f" x2="0" y1="543.8" y2="502.66" gradientTransform="matrix(.66667 0 0 .63518 128.19 198.52)" gradientUnits="userSpaceOnUse"><stop stop-color="#c6cdd1" offset="0"/><stop stop-color="#e0e5e7" offset="1"/></linearGradient><linearGradient id="e" x1="391.57" x2="406.57" y1="525.8" y2="540.8" gradientUnits="userSpaceOnUse"><stop offset="0"/><stop stop-opacity="0" offset="1"/></linearGradient><linearGradient id="g" x1="393.41" x2="407.41" y1="526.65" y2="526.65" gradientTransform="matrix(1 0 0 .99999 .15371 .1567)" gradientUnits="userSpaceOnUse"><stop stop-color="#2e3436" offset="0"/><stop stop-color="#555753" offset="1"/></linearGradient><linearGradient id="h" x1="392.57" x2="407.57" y1="521.8" y2="536.8" gradientTransform="translate(-5.9e-4,4.0005)" gradientUnits="userSpaceOnUse"><stop offset="0"/><stop stop-opacity="0" offset="1"/></linearGradient></defs><g transform="translate(-384.57 -515.8)"><rect x="384.57" y="517.8" width="32" height="28" rx="0" fill="url(#f)"/><path d="m385.57 543.8 30-20 1 1-1e-5 21-29 3e-5z" fill="url(#e)" fill-rule="evenodd" opacity=".2"/><rect x="384.57" y="517.8" width="32" height="4" fill="#566069"/><rect x="384.57" y="521.8" width="32" height="1" fill="#3daee9"/><rect x="385.57" y="523.8" width="30" height="20" fill="#fff"/><rect x="413.57" y="518.8" width="2" height="2" rx="1" fill="#eff0f1"/><path d="m407.43 526.94c0.67976 0.68608-1.259 3.7315-4.332 6.8047-1.1894 1.1888-2.4316 2.2613-3.5449 3.0605l7.0169 6.9948h9l0.9945-7.7258zm-9.8476 7.8496-0.0176 0.0137 4e-3 4e-3 0.0137-0.0176zm0.13672 0.16992 1.7031 1.7148c-0.30575-0.78802-0.91881-1.4023-1.7031-1.7148zm0.69531 1.6191c0.4221 0.38858 0.40039 0.94169 0.40039 1.3047 0 1.1682-1.7472 2.9199-5.25 2.9199l3.0052 2.9968h9z" fill="url(#h)" opacity=".25"/><path d="m407.14 526.81a1.75 7.8749 44.998 0 0-6.5143 4.4605 1.75 7.8749 44.998 0 0-3.1 3.5992c0.9415 0.29981 1.6757 1.034 1.9755 1.9756a1.75 7.8749 44.998 0 0 3.599-3.1002 1.75 7.8749 44.998 0 0 4.3304-6.8053 1.75 7.8749 44.998 0 0-0.29051-0.1299m-10.074 9.3244c-3.4998 0.93784-0.87497 3.1535-3.4998 4.669 3.5028 0 5.2498-1.7508 5.2498-2.919 0-0.58179 0.0591-1.6533-1.7499-1.75z" fill="url(#g)"/></g></svg>
