<svg height="32" width="32" xmlns="http://www.w3.org/2000/svg" xmlns:xlink="http://www.w3.org/1999/xlink"><linearGradient id="b"><stop offset="0" stop-color="#eef1f2"/><stop offset="1" stop-color="#f9fafb"/></linearGradient><linearGradient id="c"><stop offset="0"/><stop offset="1" stop-opacity="0"/></linearGradient><linearGradient id="a"><stop offset="0" stop-color="#18222a"/><stop offset="1" stop-color="#566069"/></linearGradient><linearGradient id="d"><stop offset="0" stop-color="#2f3943"/><stop offset="1" stop-color="#4d5662"/></linearGradient><linearGradient id="e" gradientTransform="matrix(.58333 0 0 .625 154.239 211.424)" gradientUnits="userSpaceOnUse" x1="432.572" x2="432.572" y1="531.798" y2="507.798"><stop offset="0" stop-color="#c6cdd1"/><stop offset="1" stop-color="#e0e5e7"/></linearGradient><linearGradient id="f" gradientTransform="matrix(.55556 0 0 1.14286 165.587 -57.542)" gradientUnits="userSpaceOnUse" x1="426.571" x2="426.571" xlink:href="#a" y1="514.798" y2="511.298"/><linearGradient id="g" gradientUnits="userSpaceOnUse" x1="393.571" x2="393.571" xlink:href="#b" y1="520.798" y2="519.798"/><linearGradient id="h" gradientTransform="matrix(.5625 0 0 .58333 162.75 225.75)" gradientUnits="userSpaceOnUse" x1="410.349" x2="410.349" xlink:href="#b" y1="507.512" y2="505.798"/><linearGradient id="i" gradientTransform="matrix(.5625 0 0 .75 162.75 140.95)" gradientUnits="userSpaceOnUse" x1="403.238" x2="403.238" xlink:href="#b" y1="519.798" y2="507.798"/><linearGradient id="j" gradientTransform="matrix(.61111 0 0 .57143 142.889 237.77)" gradientUnits="userSpaceOnUse" x1="426.571" x2="426.571" xlink:href="#a" y1="533.798" y2="539.048"/><linearGradient id="k" gradientTransform="matrix(.72321 0 0 .5 97.087 275.9)" gradientUnits="userSpaceOnUse" x1="396.127" x2="421.016" y1="539.798" y2="539.798"><stop offset="0" stop-color="#e74c3c"/><stop offset=".25" stop-color="#f39c1f"/><stop offset=".5" stop-color="#11d116"/><stop offset=".75" stop-color="#3498db"/><stop offset="1" stop-color="#9b59b6"/></linearGradient><linearGradient id="l" gradientTransform="matrix(.55556 0 0 .5 164.587 275.899)" gradientUnits="userSpaceOnUse" x1="395.971" x2="406.771" xlink:href="#c" y1="533.798" y2="545.798"/><linearGradient id="m" gradientUnits="userSpaceOnUse" x1="402.571" x2="382.571" xlink:href="#d" y1="537.798" y2="530.798"/><linearGradient id="n" gradientTransform="rotate(-90 371.571 521.798)" gradientUnits="userSpaceOnUse" x1="352.571" x2="361.571" xlink:href="#d" y1="528.798" y2="528.798"/><linearGradient id="o" gradientTransform="matrix(0 -1 -1 0 935.37 893.37)" gradientUnits="userSpaceOnUse" x1="352.571" x2="361.571" xlink:href="#d" y1="528.798" y2="528.798"/><linearGradient id="p" gradientUnits="userSpaceOnUse" x1="383.571" x2="390.571" xlink:href="#c" y1="530.798" y2="537.798"/><g transform="translate(-376.571 -517.798)"><g stroke-linejoin="round"><path d="M378.572 528.798h28v15h-28z" fill="url(#e)"/><path d="M378.571 543.798h28v1h-28z" fill="#737b81"/><path d="M382.571 522.798h20v8h-20z" fill="url(#f)"/><path d="M383.571 519.798h18v9h-18z" fill="url(#g)"/><path d="M383.571 520.798h18v7h-18z" fill="url(#h)"/><path d="M383.571 521.798h18v9h-18z" fill="url(#i)"/><path d="M381.571 542.798h22v4h-22z" fill="url(#j)"/><path d="M382.571 542.798h20v5h-20z" fill="#eff0f1"/><path d="M383.571 542.798h18v4h-18z" fill="url(#k)"/></g><path d="M381.571 542.798l5 5h14v-1h1v-4z" fill="url(#l)" fill-rule="evenodd" opacity=".2"/><path d="M380.571 539.798h24v1h-24z" fill="#99a1a7"/><path d="M382.571 530.798v5c0 .554.446 1 1 1h18c.554 0 1-.446 1-1v-5z" fill="url(#m)"/><path d="M378.571 541.798h1c.554 0 1-.446 1-1v-10c0-.554-.446-1-1-1h-1z" fill="url(#n)"/><path d="M406.571 541.798h-1c-.554 0-1-.446-1-1v-10c0-.554.446-1 1-1h1z" fill="url(#o)"/><path d="M382.571 530.798l8 8h12v-8z" fill="url(#p)" fill-rule="evenodd" opacity=".2"/><path d="M362.321 531.798a.25.25 0 1 0 0 .5.25.25 0 1 0 0-.5zm1.75 0l-.5.5.75.75-.25.25-.25.25-.25.25.5.5.25-.25.25-.25.25-.25.5-.5zm-2.375 1.5a.374.374 0 1 0 0 .75.374.374 0 1 0 0-.75zm1.125 1.5a.499.499 0 1 0 0 1 .499.499 0 1 0 0-1z" fill="#d9d9d9"/><circle cx="406.071" cy="540.298" fill="#11d116" r=".5"/></g></svg>