<svg height="32" width="32" xmlns="http://www.w3.org/2000/svg" xmlns:xlink="http://www.w3.org/1999/xlink"><linearGradient id="a"><stop offset="0" stop-color="#292c2f"/><stop offset="1" stop-opacity="0"/></linearGradient><linearGradient id="b" gradientUnits="userSpaceOnUse" x1="16" x2="16" y1="30" y2="2"><stop offset="0" stop-color="#2a2c2f"/><stop offset="1" stop-color="#424649"/></linearGradient><linearGradient id="g" gradientUnits="userSpaceOnUse" x1="16" x2="16" y1="28" y2="4"><stop offset="0" stop-color="#1d99f3"/><stop offset="1" stop-color="#3daee9"/></linearGradient><linearGradient id="c" gradientUnits="userSpaceOnUse" x1="3" x2="17" xlink:href="#a" y1="3" y2="17"/><linearGradient id="d" gradientUnits="userSpaceOnUse" x1="17" x2="31" xlink:href="#a" y1="3" y2="17"/><linearGradient id="e" gradientUnits="userSpaceOnUse" x1="17" x2="31" xlink:href="#a" y1="17" y2="31"/><linearGradient id="f" gradientUnits="userSpaceOnUse" x1="3" x2="17" xlink:href="#a" y1="17" y2="31"/><linearGradient id="k" gradientUnits="userSpaceOnUse" x1="16" x2="16" y1="28" y2="4"><stop offset="0" stop-color="#eff0f1"/><stop offset="1" stop-color="#fcfcfc"/></linearGradient><linearGradient id="h" gradientUnits="userSpaceOnUse" x1="16" x2="26" xlink:href="#a" y1="9" y2="19"/><linearGradient id="j" gradientUnits="userSpaceOnUse" x1="16" x2="23" xlink:href="#a" y1="23" y2="30"/><linearGradient id="i" gradientUnits="userSpaceOnUse" x1="9" x2="15" xlink:href="#a" y1="16" y2="22"/><rect fill="url(#b)" height="28" rx="1" width="28" x="2" y="2"/><path d="M15 3l2 2v12H5l-2-2V3z" fill="url(#c)" opacity=".2"/><path d="M29 3l1 1v13H19l-2-2V3z" fill="url(#d)" opacity=".2"/><path d="M17 17v12l1 1h10c1.108 0 2-.892 2-2V18l-1-1z" fill="url(#e)" opacity=".2"/><path d="M15 17l2 2v11H4l-1-1V17z" fill="url(#f)" opacity=".2"/><path d="M3 17h12v12H3zm14 0h12v12H17zm0-14h12v12H17zM3 3h12v12H3z" fill="url(#g)"/><path d="M25 9l5 5v8.172l-6.586-6.586L23 16H9V9z" fill="url(#h)" opacity=".2"/><path d="M8.586 16.414L15.172 23H23v-7H9z" fill="url(#i)" opacity=".2"/><path d="M11 22l-1-1-3 2 7 7h16v-7.828l-6.586-6.586L23 16v7H12z" fill="url(#j)" opacity=".2"/><path d="M22 7v1H10a1.99 1.99 0 0 0-1.566.756A1.998 1.998 0 0 0 8 10v5a2.002 2.002 0 0 0 .03.34 2.001 2.001 0 0 0 .187.566A2 2 0 0 0 10 17h11a1.003 1.003 0 0 1 .49.13 1.002 1.002 0 0 1 .194.142A.996.996 0 0 1 22 18v3a1 1 0 0 1-1 1H10v-1l-3 2 3 2v-1h12a1.99 1.99 0 0 0 1.436-.607 2.002 2.002 0 0 0 .492-.858A2.001 2.001 0 0 0 24 22v-5a2.002 2.002 0 0 0-.03-.34 2.001 2.001 0 0 0-.187-.566A2 2 0 0 0 22 15H11a1.003 1.003 0 0 1-.49-.13 1.002 1.002 0 0 1-.194-.142A.996.996 0 0 1 10 14v-3a1 1 0 0 1 1-1h11v1l3-2z" fill="url(#k)"/><path d="M2 28v1c0 .554.446 1 1 1h26c.554 0 1-.446 1-1v-1c0 .554-.446 1-1 1H3c-.554 0-1-.446-1-1z" fill="#17181b"/></svg>