<svg height="32" width="32" xmlns="http://www.w3.org/2000/svg" xmlns:xlink="http://www.w3.org/1999/xlink"><linearGradient id="b"><stop offset="0" stop-color="#292c2f"/><stop offset="1" stop-opacity="0"/></linearGradient><linearGradient id="a"><stop offset="0"/><stop offset="1" stop-opacity="0"/></linearGradient><linearGradient id="g" gradientUnits="userSpaceOnUse" x1="24" x2="31" xlink:href="#a" y1="23" y2="30"/><linearGradient id="e" gradientUnits="userSpaceOnUse" x1="8" x2="15" xlink:href="#a" y1="23" y2="30"/><linearGradient id="f" gradientUnits="userSpaceOnUse" x1="24" x2="32" xlink:href="#a" y1="9" y2="17"/><linearGradient id="d" gradientUnits="userSpaceOnUse" x1="8" x2="16" xlink:href="#a" y1="9" y2="17"/><linearGradient id="h" gradientUnits="userSpaceOnUse" x1="8" x2="12" xlink:href="#b" y1="9" y2="13"/><linearGradient id="i" gradientUnits="userSpaceOnUse" x1="24" x2="28" xlink:href="#b" y1="23" y2="27"/><linearGradient id="c" gradientUnits="userSpaceOnUse" x1="32" x2="32" y1="30" y2="2"><stop offset="0" stop-color="#171d25"/><stop offset="1" stop-color="#303236"/></linearGradient><path d="M0 2h32v28H0z" fill="url(#c)" fill-rule="evenodd"/><path d="M1 15l2 2h12l2 2 2-2-2-2V5l-2-2z" fill="url(#d)" opacity=".2"/><path d="M1 29l1 1h16l-1-1V19l-2-2z" fill="url(#e)" opacity=".2"/><path d="M17 15l2 2h12l1 1V4l-1-1z" fill="url(#f)" opacity=".2"/><path d="M17 29l1 1h14V18l-1-1z" fill="url(#g)" opacity=".2"/><path d="M1 3h14v12H1z" fill="#397da1" fill-rule="evenodd"/><path d="M1 17h14v12H1zM17 3h14v12H17zm0 14h14v12H17z" fill="#4a4a4f" fill-rule="evenodd"/><path d="M4 12l3 3h8V9l-3-3z" fill="url(#h)" opacity=".2"/><path d="M4 6h8v6H4z" fill="#67aace" fill-rule="evenodd"/><path d="M4 6v6h8V6zm1 1h6v4H5z" fill="#85c9ec" fill-rule="evenodd"/><path d="M20 26l3 3h8v-6l-3-3z" fill="url(#i)" opacity=".2"/><path d="M20 20h8v6h-8z" fill="#636367"/><path d="M20 20v6h8v-6zm1 1h6v4h-6z" fill="#9a9b9d"/></svg>