<svg height="32" width="32" xmlns="http://www.w3.org/2000/svg" xmlns:xlink="http://www.w3.org/1999/xlink"><linearGradient id="e" gradientUnits="userSpaceOnUse" x1="8" x2="8" y1="25" y2="11"><stop offset="0" stop-color="#2e3436"/><stop offset="1" stop-color="#555753"/></linearGradient><linearGradient id="a"><stop offset="0"/><stop offset="1" stop-opacity="0"/></linearGradient><linearGradient id="b" gradientTransform="matrix(.66667 0 0 .63518 128.19 198.519)" gradientUnits="userSpaceOnUse" x2="0" y1="543.798" y2="502.655"><stop offset="0" stop-color="#c6cdd1"/><stop offset="1" stop-color="#e0e5e7"/></linearGradient><linearGradient id="c" gradientUnits="userSpaceOnUse" x1="391.571" x2="406.571" xlink:href="#a" y1="525.798" y2="540.798"/><linearGradient id="d" gradientUnits="userSpaceOnUse" x1="11" x2="25" xlink:href="#a" y1="14" y2="28"/><g transform="translate(-384.571 -515.798)"><path d="M384.571 517.798h32v28h-32z" fill="url(#b)"/><path d="M385.571 543.798l30-20 1 1v21h-29z" fill="url(#c)" fill-rule="evenodd" opacity=".2"/><path d="M384.571 517.798h32v4h-32z" fill="#566069"/><path d="M384.571 521.798h32v1h-32z" fill="#3daee9"/><path d="M385.571 523.798h30v20h-30z" fill="#fff"/><rect fill="#eff0f1" height="2" rx="1" width="2" x="413.571" y="518.798"/></g><path d="M8 11h16l7 7v10H14l-6-6z" fill="url(#d)" opacity=".2"/><path d="M9 12h14v9H9z" fill="#fcfcfc"/><g fill="url(#e)"><path d="M16 12a9 9 0 0 0-7.877 4.668c.129.364.357.677.656.908A8 8 0 0 1 16 13a4 4 0 0 0-4 4 4 4 0 0 0 4 4 4 4 0 0 0 4-4 4 4 0 0 0-3.65-3.982 8 8 0 0 1 6.87 4.558c.302-.234.533-.55.66-.918A9 9 0 0 0 16 12zm0 2a3 3 0 0 1 3 3 3 3 0 0 1-3 3 3 3 0 0 1-3-3 3 3 0 0 1 3-3zm0 1a2 2 0 0 0-2 2 2 2 0 0 0 2 2 2 2 0 0 0 2-2 2 2 0 0 0-.09-.588A1 1 0 0 1 17 17a1 1 0 0 1-1-1 1 1 0 0 1 .59-.91A2 2 0 0 0 16 15z"/><path d="M8 11v11h7v2h-3v1h8v-1h-3v-2h7V11H9zm1 1h14v9H9z"/></g></svg>