<?xml version="1.0" encoding="UTF-8" standalone="no"?>

<!-- Created with Inkscape (http://www.inkscape.org/) -->
<svg width="32" version="1.1" xmlns="http://www.w3.org/2000/svg" height="32" xmlns:xlink="http://www.w3.org/1999/xlink" xmlns:inkscape="http://www.inkscape.org/namespaces/inkscape">
 <defs id="defs5455">
  <linearGradient inkscape:collect="always" id="linearGradient4211">
   <stop style="stop-color:#2f3943" id="stop4213"/>
   <stop offset="1" style="stop-color:#808c9b" id="stop4215"/>
  </linearGradient>
  <linearGradient inkscape:collect="always" id="linearGradient4199">
   <stop style="stop-color:#2f3943" id="stop4201"/>
   <stop offset="1" style="stop-color:#4d5662" id="stop4203"/>
  </linearGradient>
  <linearGradient inkscape:collect="always" id="linearGradient4191">
   <stop style="stop-color:#18222a" id="stop4193"/>
   <stop offset="1" style="stop-color:#566069" id="stop4195"/>
  </linearGradient>
  <linearGradient inkscape:collect="always" xlink:href="#linearGradient4191" id="linearGradient4197" y1="545.79797" y2="517.79797" x2="0" gradientUnits="userSpaceOnUse"/>
  <linearGradient inkscape:collect="always" xlink:href="#linearGradient4199" id="linearGradient4205" y1="541.79797" y2="521.79797" x2="0" gradientUnits="userSpaceOnUse"/>
  <linearGradient inkscape:collect="always" xlink:href="#linearGradient4211" id="linearGradient4209" y1="541.79797" y2="521.79797" gradientUnits="userSpaceOnUse" x2="0"/>
  <linearGradient inkscape:collect="always" id="linearGradient4303">
   <stop style="stop-color:#197cf1" id="stop4305"/>
   <stop offset="1" style="stop-color:#21c9fb" id="stop4307"/>
  </linearGradient>
  <linearGradient inkscape:collect="always" xlink:href="#linearGradient4303" id="linearGradient4318" y1="522.79797" y2="527.79797" x2="0" gradientUnits="userSpaceOnUse"/>
  <linearGradient inkscape:collect="always" xlink:href="#linearGradient4303" id="linearGradient4328-8" y1="518.79797" y2="520.79797" x2="0" gradientUnits="userSpaceOnUse" gradientTransform="matrix(1 0 0 1 0 0.000047)"/>
  <linearGradient inkscape:collect="always" xlink:href="#linearGradient4227" id="linearGradient4532" y1="13" x1="11" y2="24" x2="22" gradientUnits="userSpaceOnUse"/>
  <linearGradient inkscape:collect="always" id="linearGradient4227">
   <stop style="stop-color:#292c2f" id="stop4229"/>
   <stop offset="1" style="stop-opacity:0" id="stop4231"/>
  </linearGradient>
 </defs>
 <metadata id="metadata5458"/>
 <g inkscape:label="Capa 1" inkscape:groupmode="layer" id="layer1" transform="matrix(1 0 0 1 -384.57143 -515.798)">
  <rect width="27.999958" x="386.5715" y="517.79797" rx="13.999979" height="28" ry="14" style="fill:url(#linearGradient4197)" id="rect4160"/>
  <rect width="23.999968" x="388.5715" y="519.79797" rx="11.999984" height="24" ry="12" style="fill:url(#linearGradient4209)" id="rect4207"/>
  <path style="fill:url(#linearGradient4532);opacity:0.2;fill-rule:evenodd" id="path4521" d="M 22 8 L 8 22 L 16 30 C 23.755988 30 30 23.756 30 16 L 22 8 z " transform="matrix(1 0 0 1 384.57143 515.798)"/>
  <rect width="19.999971" x="390.5715" y="521.79797" rx="9.999986" ry="10" height="20" style="fill:url(#linearGradient4205)" id="rect4178"/>
  <rect width="2" x="399.57144" y="522.79773" rx="1" height="4.999974" style="fill:url(#linearGradient4318)" id="rect4217"/>
  <circle cx="400.57138" cy="519.79797" style="fill:url(#linearGradient4328-8)" id="path4320-3" r="1"/>
  <circle cx="531.79797" cy="-412.57138" style="fill:#26333a" r="1" id="circle4465" transform="matrix(0 1 -1 0 0 0)"/>
  <circle cx="531.79797" cy="-388.57138" style="fill:#26333a" id="circle4467" r="1" transform="matrix(0 1 -1 0 0 0)"/>
  <circle cx="660.83624" cy="-93.006" style="fill:#26333a" id="circle4473" r="1" transform="matrix(0.5 0.8660254 -0.8660254 0.5 0 0)"/>
  <circle cx="660.83624" cy="-69.006" style="fill:#26333a" r="1" id="circle4475" transform="matrix(0.5 0.8660254 -0.8660254 0.5 0 0)"/>
  <circle cx="612.80396" cy="248.26486" style="fill:#26333a" r="1" id="circle4477" transform="matrix(0.8660254 0.5 -0.5 0.8660254 0 0)"/>
  <circle cx="81.006" cy="648.83624" style="fill:#26333a" id="circle4481" r="1" transform="matrix(0.8660254 -0.5 0.5 0.8660254 0 0)"/>
  <circle cx="-260.26486" cy="600.80396" style="fill:#26333a" r="1" id="circle4485" transform="matrix(0.5 -0.8660254 0.8660254 0.5 0 0)"/>
  <circle cx="-260.26486" cy="624.80396" style="fill:#26333a" id="circle4487" r="1" transform="matrix(0.5 -0.8660254 0.8660254 0.5 0 0)"/>
 </g>
</svg>
