<svg height="32" width="32" xmlns="http://www.w3.org/2000/svg" xmlns:xlink="http://www.w3.org/1999/xlink"><linearGradient id="f" gradientUnits="userSpaceOnUse" x1="-11.306" x2="-11.306" y1="23.62" y2="7.62"><stop offset="0" stop-color="#3e3e3e"/><stop offset="1" stop-color="#5c5c5c"/></linearGradient><linearGradient id="e" gradientUnits="userSpaceOnUse" x1="10" x2="24" xlink:href="#a" y1="9" y2="23"/><linearGradient id="a"><stop offset="0" stop-color="#292c2f"/><stop offset="1" stop-opacity="0"/></linearGradient><linearGradient id="b" gradientTransform="matrix(.58696 0 0 .53846 -227.988 -270.353)" gradientUnits="userSpaceOnUse" x1="388.423" x2="388.423" y1="557.798" y2="505.798"><stop offset="0" stop-color="#7f8c8d"/><stop offset="1" stop-color="#afb0b3"/></linearGradient><linearGradient id="c" gradientUnits="userSpaceOnUse" x1="-421.447" x2="-410.447" xlink:href="#a" y1="-504.204" y2="-493.204"/><linearGradient id="d" gradientTransform="matrix(.52174 0 0 .53846 -.696 -1.23)" gradientUnits="userSpaceOnUse" x1="1.333" x2="1.333" y1="48.714" y2="9.714"><stop offset="0" stop-color="#eef1f2"/><stop offset="1" stop-color="#f9fafb"/></linearGradient><path d="M4 2h24v28H4z" fill="url(#b)"/><path d="M7 27h18v3H7z" fill="#292c2e"/><path d="M9 28h9v1H9zm10 0h4v1h-4z" fill="#f6b44d"/><path d="M24 27h4v3h-4zM4 27h4v3H4z" fill="#292c2f" opacity=".2"/><path d="M4 27h4v3H7zm20 0h4v3h-4z" fill="#292c2f" opacity=".2"/><path d="M24.535 5.465L28 8.928V30H14l-8-8z" fill="url(#c)" opacity=".2"/><path d="M11 4a5 5 0 0 0-5 5v4.768a3 3 0 0 1 .996 2.117A2 2 0 0 1 7 16a2 2 0 0 1-.01.2 3 3 0 0 1 0 .005A3 3 0 0 1 6 18.23V22l3 3h14l3-3v-3.768a3 3 0 0 1-.996-2.117A2 2 0 0 1 25 16a2 2 0 0 1 .01-.205A3 3 0 0 1 26 13.77V9a5 5 0 0 0-5-5z" fill="url(#d)"/><path d="M17.676 27H28V14.676l-6.337-6.338L16 6l-6 3-1.56 5 1.899 5.662z" fill="url(#e)" opacity=".2"/><path d="M16 6c-4.432 0-8 3.568-8 8s3.568 8 8 8 8-3.568 8-8-3.568-8-8-8m0 1c3.878 0 7 3.122 7 7s-3.122 7-7 7-7-3.122-7-7 3.122-7 7-7m-1 1v7h6v-1h-5V8z" fill="url(#f)"/></svg>