<svg height="32" width="32" xmlns="http://www.w3.org/2000/svg" xmlns:xlink="http://www.w3.org/1999/xlink"><linearGradient id="b" gradientUnits="userSpaceOnUse" x1="6" x2="26" xlink:href="#a" y1="6" y2="26"/><linearGradient id="a"><stop offset="0" stop-color="#292c2f"/><stop offset="1" stop-opacity="0"/></linearGradient><linearGradient id="c" gradientUnits="userSpaceOnUse" x1="23" x2="30" xlink:href="#a" y1="13" y2="20"/><linearGradient id="d" gradientUnits="userSpaceOnUse" x1="2" x2="2" y1="30" y2="2"><stop offset="0" stop-color="#a5a5a5"/><stop offset="1" stop-color="#f5f2f5"/></linearGradient><linearGradient id="f" gradientUnits="userSpaceOnUse" x1="-403.097" x2="-403.097" y1="-497.798" y2="-511.798"><stop offset="0" stop-color="#ffd42a"/><stop offset="1" stop-color="#ffdf62"/></linearGradient><linearGradient id="e" gradientUnits="userSpaceOnUse" x1="9" x2="25" xlink:href="#a" y1="9" y2="25"/><rect fill="#4f575f" height="28" rx="14" width="28" x="2" y="2"/><path d="M18.594 2.248l-2.975.38-4.135 2.388-1.502 2.601s-1.973 1.39-2.271 1.31c-2.517-.029-3.869.665-4.58 1.548-.301.703-.537 1.44-.72 2.197-.006.76.161 1.351.161 1.351 7.06 6.357 14.121 9.097 21.182 13.643a13.9 13.9 0 0 0 1.275-.959l.069-.06c.36-.308.703-.636 1.029-.979.072-.076.14-.155.21-.232a13.928 13.928 0 0 0 1.749-2.375l.055-.09a13.991 13.991 0 0 0 1.824-6.282l.002-.02v-.001L28.143 9.03a13.95 13.95 0 0 0-9.55-6.783z" fill="url(#b)" fill-rule="evenodd" opacity=".2"/><path d="M29.012 10.842l-4.307 6.66 4.12 4.12a13.997 13.997 0 0 0 .187-10.78z" fill="url(#c)" fill-rule="evenodd" opacity=".2"/><path d="M16 2a14 14 0 0 0-13.059 9H3l3-1 1 1 1 1v-2l2-1V8l2-1 2-2v1l1-1-1-1h2v1l2-1-1-1v-.95A14 14 0 0 0 16 2zm10.375 4.625L26 7v1h1.469a14 14 0 0 0-1.094-1.375zm1.316 1.684L27 9l-2 2-1 1-1 3v1l1 1 1 1 2 1 2.791-.688A14 14 0 0 0 30 16a14 14 0 0 0-2.309-7.691zM4 13l-1 1h-.838c-.05.34-.088.681-.113 1.023v.002L4 16l1 1 2 1 1 1-1 1v2l1 2 2 2v2.629A14 14 0 0 0 16 30c.17-.003.34-.009.51-.018L17 29v-1l2-1 1-1v-2l1-1v-1l-1-1-3-1-1-1-1-1h-1l-1-1-3-1-2 1H6v-2H5v-2z" fill="url(#d)"/><path d="M13 9v1h-3v3l-1 1 1.5 1.5-.5.5-1 1 2 2h-1v3l-1 1 7 7c7.756 0 14-6.244 14-14l-7-7-1 1h-3v1l-2-2-1 1 1 1-.5.5L14 9z" fill="url(#e)" fill-rule="evenodd" opacity=".2"/><path d="M9 9v5h5V9zm7 0v1h1V9zm2 0v5h5V9zm-8 1h3v3h-3zm9 0h3v3h-3zm-8 1v1h1v-1zm4 0v2h1v-1h1v-1h-1zm1 2v1h-1v1h-1v1h1v1h2v-1h-1v-1h1v-2zm1 2v1h1v1h1v-1h1v-1h-2zm3-4v1h1v-1zm-10 4v1h1v-1zm1 1v1h2v-2h-1v1zm-1 0H9v1h1zm11-1v1h1v-1zm0 2v1h1v-1zm1 1v1h1v-1zM9 18v5h5v-5zm8 0v1h1v-1zm0 1h-1v1h-1v1h1v1h1v-2zm2-1v1h1v-1zm1 1v1h1v-1zm1 1v1h1v-1zm0 1h-1v2h1v-1zm-1 0v-1h-2v2h1v-1zm-10-2h3v3h-3zm1 1v1h1v-1zm11 2v1h1v-1z" fill="url(#f)"/><path d="M29.979 15.414A14 14 0 0 1 16 29 14 14 0 0 1 2.021 15.586 14 14 0 0 0 2 16a14 14 0 0 0 14 14 14 14 0 0 0 14-14 14 14 0 0 0-.021-.586z" fill="#292c2f" opacity=".3"/></svg>