<svg height="32" width="32" xmlns="http://www.w3.org/2000/svg" xmlns:xlink="http://www.w3.org/1999/xlink"><linearGradient id="b" gradientUnits="userSpaceOnUse" x1="-27.898" x2="-7.898" xlink:href="#a" y1="3.831" y2="23.831"/><linearGradient id="c" gradientUnits="userSpaceOnUse" x1="-10.898" x2="-3.898" xlink:href="#a" y1="10.831" y2="17.831"/><linearGradient id="d" gradientUnits="userSpaceOnUse" x1="-31.898" x2="-31.898" y1="27.831" y2="-.169"><stop offset="0" stop-color="#a5a5a5"/><stop offset="1" stop-color="#f5f2f5"/></linearGradient><linearGradient id="a"><stop offset="0" stop-color="#292c2f"/><stop offset="1" stop-opacity="0"/></linearGradient><linearGradient id="e" gradientUnits="userSpaceOnUse" x1="13" x2="24" xlink:href="#a" y1="15" y2="26"/><linearGradient id="f" gradientUnits="userSpaceOnUse" x1="399.571" x2="399.571" y1="538.798" y2="524.798"><stop offset="0" stop-color="#ffd42a"/><stop offset="1" stop-color="#ffdf62"/></linearGradient><g transform="translate(33.898 2.17)"><rect fill="#4f575f" height="28" rx="14" width="28" x="-31.898" y="-.169"/><path d="M-15.304.079l-2.975.38-4.135 2.388-1.502 2.6s-1.973 1.39-2.271 1.31c-2.517-.028-3.87.666-4.58 1.549-.301.703-.537 1.44-.72 2.197-.006.76.16 1.35.16 1.35 7.06 6.358 14.122 9.098 21.183 13.644a13.9 13.9 0 0 0 1.275-.96l.069-.06c.36-.307.703-.635 1.029-.978.072-.076.14-.155.21-.232a13.928 13.928 0 0 0 1.749-2.375l.055-.09a13.991 13.991 0 0 0 1.824-6.282l.002-.02v-.001L-5.755 6.86a13.95 13.95 0 0 0-9.55-6.783z" fill="url(#b)" fill-rule="evenodd" opacity=".2"/><path d="M-4.886 8.673l-4.307 6.66 4.12 4.12a13.997 13.997 0 0 0 .187-10.78z" fill="url(#c)" fill-rule="evenodd" opacity=".2"/><path d="M-17.898-.17a14 14 0 0 0-13.06 9h.06l3-1 1 1 1 1v-2l2-1v-1l2-1 2-2v1l1-1-1-1h2v1l2-1-1-1v-.95a14 14 0 0 0-1-.05zm10.375 4.626l-.375.375v1h1.469a14 14 0 0 0-1.094-1.375zm1.316 1.684l-.691.69-2 2-1 1-1 3v1l1 1 1 1 2 1 2.79-.687a14 14 0 0 0 .21-2.312 14 14 0 0 0-2.31-7.691zm-23.691 4.69l-1 1h-.838c-.05.34-.088.682-.113 1.024v.002l1.95.975 1 1 2 1 1 1-1 1v2l1 2 2 2v2.629a14 14 0 0 0 6 1.37c.17-.002.34-.008.51-.017l.49-.982v-1l2-1 1-1v-2l1-1v-1l-1-1-3-1-1-1-1-1h-1l-1-1-3-1-2 1h-2v-2h-1v-2z" fill="url(#d)"/></g><g fill-rule="evenodd"><path d="M19 15l-7 2 3 3v3l6.05 6.05a13.966 13.966 0 0 0 6.65-5.35z" fill="url(#e)" opacity=".2"/><path d="M400.571 524.798l-4 8h3v6l4-8h-3z" fill="url(#f)" transform="translate(-384.571 -515.798)"/></g><path d="M29.979 15.414A14 14 0 0 1 16 29 14 14 0 0 1 2.021 15.586 14 14 0 0 0 2 16a14 14 0 0 0 14 14 14 14 0 0 0 14-14 14 14 0 0 0-.021-.586z" fill="#292c2f" opacity=".3"/></svg>