<?xml version="1.0" encoding="UTF-8" standalone="no"?>

<!-- Created with Inkscape (http://www.inkscape.org/) -->
<svg width="32" version="1.1" xmlns="http://www.w3.org/2000/svg" height="32" xmlns:xlink="http://www.w3.org/1999/xlink" xmlns:inkscape="http://www.inkscape.org/namespaces/inkscape">
 <defs id="defs5455">
  <linearGradient id="linearGradient4227">
   <stop style="stop-color:#2e3436" id="stop4229"/>
   <stop offset="1" style="stop-color:#555753" id="stop4231"/>
  </linearGradient>
  <linearGradient inkscape:collect="always" xlink:href="#linearGradient4303-6" id="linearGradient4643-8" y1="543.79797" y2="502.65509" gradientUnits="userSpaceOnUse" x2="0" gradientTransform="matrix(0.66666726 0 0 0.63518419 128.19014 198.51873)"/>
  <linearGradient inkscape:collect="always" id="linearGradient4303-6">
   <stop style="stop-color:#c6cdd1" id="stop4305-7"/>
   <stop offset="1" style="stop-color:#e0e5e7" id="stop4307-0"/>
  </linearGradient>
  <linearGradient inkscape:collect="always" xlink:href="#linearGradient4293" id="linearGradient4183" y1="525.79797" x1="391.57144" y2="540.79797" x2="406.57147" gradientUnits="userSpaceOnUse" gradientTransform="matrix(1 0 0 1 -0.000007 0.000029)"/>
  <linearGradient inkscape:collect="always" id="linearGradient4293">
   <stop id="stop4295"/>
   <stop offset="1" style="stop-opacity:0" id="stop4297"/>
  </linearGradient>
  <linearGradient inkscape:collect="always" xlink:href="#linearGradient4293" id="linearGradient4226" y1="11" x1="9.00001" y2="25" x2="23.00001" gradientUnits="userSpaceOnUse"/>
  <linearGradient inkscape:collect="always" xlink:href="#linearGradient4227" id="linearGradient4224" y1="24.999973" y2="10.999974" x2="0" gradientUnits="userSpaceOnUse"/>
 </defs>
 <metadata id="metadata5458"/>
 <g inkscape:label="Capa 1" inkscape:groupmode="layer" id="layer1" transform="matrix(1 0 0 1 -384.57143 -515.798)">
  <rect width="32" x="384.57144" y="517.79797" rx="0" height="28" style="fill:url(#linearGradient4643-8)" id="rect4641-5"/>
  <path inkscape:connector-curvature="0" style="fill:url(#linearGradient4183);opacity:0.2;fill-rule:evenodd" id="path4167" d="m 385.57142,543.79803 30,-20 1.00001,1 -1e-5,20.99997 -29,3e-5 z"/>
  <rect width="32.00001" x="384.57141" y="517.79797" height="4" style="fill:#566069" id="rect4647-8"/>
  <rect width="31.999968" x="384.57141" y="521.79797" height="1" style="fill:#3daee9" id="rect4649-8"/>
  <rect width="30" x="385.57141" y="523.79797" height="20.00003" style="fill:#ffffff" id="rect4653-5"/>
  <rect width="2" x="413.57141" y="518.79797" rx="1" height="2" style="fill:#eff0f1" id="rect4661-1"/>
  <path style="fill:url(#linearGradient4226);opacity:0.2;fill-rule:evenodd" id="path4201" d="M 16 11 L 14 15 L 16.332031 17.332031 L 15 18 L 13 16 L 9 18 L 21 30 L 32 30 L 32 27 L 23 18 L 16 11 z " transform="matrix(1 0 0 1 384.57143 515.798)"/>
  <path style="fill:url(#linearGradient4224);stroke-width:0.1" id="path4196" d="M 16 11 L 14 15 L 18 15 L 16 11 z M 13 16 L 9 18 L 13 20 L 13 16 z M 19 16 L 19 20 L 23 18 L 19 16 z M 16 17 C 15.446 17 15 17.446 15 18 C 15 18.554 15.446 19 16 19 C 16.554 19 17 18.554 17 18 C 17 17.446 16.554 17 16 17 z M 14 21 L 16 25 L 18 21 L 14 21 z " transform="matrix(1 0 0 1 384.57143 515.798)"/>
 </g>
</svg>
