<svg height="32" width="32" xmlns="http://www.w3.org/2000/svg"><linearGradient id="c" gradientUnits="userSpaceOnUse" x1="393.571" x2="407.571" y1="527.673" y2="541.673"><stop offset="0" stop-color="#292c30"/><stop offset="1" stop-opacity="0"/></linearGradient><linearGradient id="a" gradientTransform="matrix(.66667 0 0 .63518 128.19 198.519)" gradientUnits="userSpaceOnUse" x2="0" y1="543.798" y2="502.655"><stop offset="0" stop-color="#c6cdd1"/><stop offset="1" stop-color="#e0e5e7"/></linearGradient><linearGradient id="b" gradientUnits="userSpaceOnUse" x1="391.571" x2="406.571" y1="525.798" y2="540.798"><stop offset="0"/><stop offset="1" stop-opacity="0"/></linearGradient><linearGradient id="h" gradientUnits="userSpaceOnUse" x1="358.571" x2="358.571" y1="519.798" y2="505.798"><stop offset="0" stop-color="#4d4d4d"/><stop offset="1" stop-color="#585858"/></linearGradient><linearGradient id="g" gradientUnits="userSpaceOnUse" x1="356.571" x2="356.571" y1="519.798" y2="505.798"><stop offset="0" stop-color="#afb0b3"/><stop offset="1" stop-color="#bdc3c7"/></linearGradient><linearGradient id="f" gradientUnits="userSpaceOnUse" x1="350.571" x2="350.571" y1="505.798" y2="519.798"><stop offset="0" stop-color="#7f8c8d"/><stop offset="1" stop-color="#afb0b3"/></linearGradient><linearGradient id="e" gradientUnits="userSpaceOnUse" x1="353.571" x2="353.571" y1="505.798" y2="519.798"><stop offset="0" stop-color="#31363b"/><stop offset="1" stop-color="#4d4d4d"/></linearGradient><linearGradient id="d" gradientTransform="matrix(2.85714 0 0 2.8 -885.347 -966.434)" gradientUnits="userSpaceOnUse" x1="428.371" x2="428.371" y1="530.798" y2="525.798"><stop offset="0" stop-color="#da4453"/><stop offset="1" stop-color="#fa4e5f"/></linearGradient><g transform="translate(-384.571 -515.798)"><path d="M384.571 517.798h32v28h-32z" fill="url(#a)"/><path d="M385.571 543.798l30-20 1 1v21h-29z" fill="url(#b)" fill-rule="evenodd" opacity=".2"/><path d="M384.571 517.798h32v4h-32z" fill="#566069"/><path d="M384.571 521.798h32v1h-32z" fill="#3daee9"/><path d="M385.571 523.798h30v20h-30z" fill="#fff"/><rect fill="#eff0f1" height="2" rx="1" width="2" x="413.571" y="518.798"/></g><path d="M396.513 535.673l-1.177-8 3.235 3.235 6.177-3.235 1.823 1.824 4.06-1.824 7.94 7.941v6.059h-16.058z" fill="url(#c)" fill-opacity=".2" transform="translate(-387.571 -513.673)"/><path d="M331.571 505.798h3l3.5 10 3.5-10h3l-5 14h-3z" fill="url(#d)" transform="matrix(.58824 0 0 .57143 -189.042 -275.027)"/><path d="M342.571 519.798l5-14h3l-5 14zm10 0l5-14h3l-5 14z" fill="url(#e)" transform="matrix(.58824 0 0 .57143 -189.042 -275.027)"/><path d="M339.571 519.798l5-14h3l-5 14zm10 0l5-14h3l-5 14z" fill="url(#f)" transform="matrix(.58824 0 0 .57143 -189.042 -275.027)"/><path d="M352.571 519.798h-3l-5-14h3zm10 0h-3l-5-14h3z" fill="url(#g)" transform="matrix(.58824 0 0 .57143 -189.042 -275.027)"/><path d="M347.571 505.798l5 14h3l-5-14zm10 0l5 14h3l-5-14z" fill="url(#h)" transform="matrix(.58824 0 0 .57143 -189.042 -275.027)"/></svg>