<?xml version="1.0" encoding="UTF-8" standalone="no"?>

<!-- Created with Inkscape (http://www.inkscape.org/) -->
<svg width="32" version="1.1" xmlns="http://www.w3.org/2000/svg" height="32" xmlns:xlink="http://www.w3.org/1999/xlink" xmlns:inkscape="http://www.inkscape.org/namespaces/inkscape">
 <defs id="defs5455">
  <linearGradient inkscape:collect="always" id="linearGradient4298">
   <stop style="stop-color:#42a603" id="stop4300"/>
   <stop offset="1" style="stop-color:#78da06" id="stop4302"/>
  </linearGradient>
  <linearGradient inkscape:collect="always" xlink:href="#linearGradient4298" id="linearGradient4246" y1="545.79797" y2="517.79797" x2="0" gradientUnits="userSpaceOnUse"/>
  <linearGradient inkscape:collect="always" xlink:href="#linearGradient4374" id="linearGradient4362" y1="538.79797" y2="524.79797" x2="0" gradientUnits="userSpaceOnUse" gradientTransform="matrix(1 0 0 1 -384.57143 -515.798)"/>
  <linearGradient inkscape:collect="always" id="linearGradient4374">
   <stop style="stop-color:#bcfd93" id="stop4376"/>
   <stop offset="1" style="stop-color:#fafff5" id="stop4378"/>
  </linearGradient>
  <linearGradient inkscape:collect="always" xlink:href="#linearGradient4410" id="linearGradient4183" y1="8.99996" x1="9" y2="23" x2="23.00001" gradientUnits="userSpaceOnUse"/>
  <linearGradient inkscape:collect="always" id="linearGradient4410">
   <stop style="stop-color:#383e51" id="stop4412"/>
   <stop offset="1" style="stop-color:#655c6f;stop-opacity:0" id="stop4414"/>
  </linearGradient>
 </defs>
 <metadata id="metadata5458"/>
 <g inkscape:label="Capa 1" inkscape:groupmode="layer" id="layer1" transform="matrix(1 0 0 1 -384.57143 -515.798)">
  <ellipse cx="400.57144" cy="531.79797" rx="13.999979" ry="14.00001" style="fill:url(#linearGradient4246)" id="path4159"/>
  <path style="fill:url(#linearGradient4183);opacity:0.2;fill-rule:evenodd" id="path4164" d="M 14 9 L 14 15 L 25.375 26.375 A 13.999979 14.000013 0 0 0 30 16 L 23 9 L 14 9 z M 13 15 L 9 21 L 17.859375 29.859375 A 13.999979 14.000013 0 0 0 24.84375 26.84375 L 13 15 z " transform="matrix(1 0 0 1 384.57143 515.798)"/>
  <path style="stroke-opacity:0.550265;fill:url(#linearGradient4362);stroke-width:2.8" id="path4147" d="M 14 9 L 14 15 L 20 15 L 20 18 L 23 15 L 23 9 L 14 9 z M 15 10 L 22 10 L 22 14 L 15 14 L 15 10 z M 12.5 15 L 12 15.400391 L 10 17.066406 L 10 17 L 9 17 L 9 17.5 L 9 20.5 L 9 21 L 10 21 L 10 20.933594 L 12 22.599609 L 12.5 23 L 13 23 L 13 15 L 12.5 15 z " transform="matrix(1 0 0 1 384.57143 515.798)"/>
 </g>
</svg>
