<svg height="32" width="32" xmlns="http://www.w3.org/2000/svg" xmlns:xlink="http://www.w3.org/1999/xlink"><linearGradient id="a" gradientUnits="userSpaceOnUse" x1="42.79841247438" x2="12.00001129904" y1="5.34126380931" y2="31.35510700286"><stop offset="0" stop-color="#1abc9c"/><stop offset="1" stop-color="#2980b9"/></linearGradient><linearGradient id="b" gradientUnits="userSpaceOnUse" x1="29.85095043586" x2="54.31760761537" y1="22.34856746865" y2="28.50630070454"><stop offset="0" stop-color="#cc4a5e"/><stop offset="1" stop-color="#aa478a"/></linearGradient><linearGradient id="c" gradientUnits="userSpaceOnUse" x1="24.39386190442" x2="20.64559515218" xlink:href="#d" y1="41.22365200679" y2="25.34317870546"/><linearGradient id="d"><stop offset="0" stop-color="#334545"/><stop offset="1" stop-color="#536161"/></linearGradient><linearGradient id="e" gradientTransform="matrix(-1 0 0 1 839.14285 -40.00001)" gradientUnits="userSpaceOnUse" x1="431.57141" x2="439.57141" xlink:href="#d" y1="568.79803" y2="562.79803"/><linearGradient id="f" gradientTransform="matrix(-.91666628 0 0 .91666628 428.69029 -492.4813)" gradientUnits="userSpaceOnUse" x1="406.53735" x2="423.31955" xlink:href="#d" y1="581.87024" y2="572.67786"/><linearGradient id="g" gradientTransform="matrix(-.91666628 0 0 .91666628 448.69029 -492.4813)" gradientUnits="userSpaceOnUse" x1="423.05438" x2="431.22452" xlink:href="#d" y1="572.33411" y2="566.76562"/><linearGradient id="h" gradientTransform="matrix(-.91666628 0 0 .91666628 428.69029 -492.4813)" gradientUnits="userSpaceOnUse" x1="431.3129" x2="440.63208" xlink:href="#d" y1="577.10217" y2="571.44531"/><linearGradient id="i" gradientTransform="matrix(-.91666628 0 0 .91666628 428.69029 -492.4813)" gradientUnits="userSpaceOnUse" x1="430.56738" x2="423.74994" xlink:href="#d" y1="577.36243" y2="591.32782"/><linearGradient id="j" gradientUnits="userSpaceOnUse" x1="393.57144" x2="407.57143" y1="522.798" y2="536.798"><stop offset="0" stop-color="#292c2f"/><stop offset="1" stop-opacity="0"/></linearGradient><linearGradient id="k" gradientUnits="userSpaceOnUse" x2="0" y1="536.79797" y2="522.79797"><stop offset="0" stop-color="#eff0f1"/><stop offset="1" stop-color="#fcfcfc"/></linearGradient><g transform="translate(-384.57143 -515.798)"><g transform="matrix(.66666636 0 0 .85555436 128.19059 86.77139)"><path d="m12 6v30h44v-30z" fill="url(#a)" transform="matrix(1.0909096 0 0 1.0909096 371.48052 497.25255)"/><g stroke-linecap="round" stroke-width="2"><path d="m56 6-30.28125 17.482422 21.681641 12.517578h8.599609z" fill="url(#b)" transform="matrix(1.0909096 0 0 1.0909096 371.48052 497.25255)"/><path d="m25.75 23.416016-13.75 7.939453v4.644531h35.605469z" fill="url(#c)" transform="matrix(1.0909096 0 0 1.0909096 371.48052 497.25255)"/><path d="m407.82995 527.56606-8.25852-4.76806v9.53611z" fill="url(#e)"/><path d="m40.890625 32.15625v3.84375h6.65625z" fill="url(#f)" transform="matrix(1.0909096 0 0 1.0909096 371.48052 497.25255)"/><path d="m53.320312 27.787109v8.212891h.916016l6.654297-3.841797z" fill="url(#g)" transform="matrix(1.0909096 0 0 1.0909096 349.66233 497.25255)"/><path d="m25.75 32.158203v3.841797h6.654297z" fill="url(#h)" transform="matrix(1.0909096 0 0 1.0909096 371.48052 497.25255)"/><path d="m40.890625 32.15625-6.65625 3.84375h6.65625z" fill="url(#i)" transform="matrix(1.0909096 0 0 1.0909096 371.48052 497.25255)"/><path d="m399.53737 522.87024 33.03408-19.07223-.00002 9.31712z" fill="#aa478a"/></g></g><path d="m396.57143 522.89761v1.5l7 7.01283-1 1.38756 13 13h1v-1.49219-2.49023-5.01758l-9-9-3 2.13756-7-7.03795zm-2.61558 7.39097 4.61558 4.61558-.98744 1.38128 9.51256 9.51256h6.08104l-17.36558-17.36558z" fill="url(#j)" fill-rule="evenodd" opacity=".2"/><path d="m397.07143 522.798c-.48475 0-.875.39025-.875.875s.39025.875.875.875.875-.39025.875-.875-.39025-.875-.875-.875zm5.5 0-2 2 3 3-3 3 2 2 3-3 2-2-2-2zm-7.6875 5.25c-.72712 0-1.3125.58537-1.3125 1.3125 0 .72712.58538 1.3125 1.3125 1.3125.72713 0 1.3125-.58538 1.3125-1.3125 0-.72713-.58537-1.3125-1.3125-1.3125zm3.9375 5.25c-.9695 0-1.75.7805-1.75 1.75s.7805 1.75 1.75 1.75 1.75-.7805 1.75-1.75-.7805-1.75-1.75-1.75z" fill="url(#k)"/><path d="m384.57142 541.798h16.00001v3.99997h-16.00001z" fill="#fff" fill-opacity=".784314" stroke-width=".707108"/><path d="m400.57142 541.798h16.00001v3.99997h-16.00001z" fill="#31363b" fill-opacity=".862245" stroke-width=".707108"/><circle cx="413.5715" cy="543.79797" fill="#eff0f1" r="1"/><path d="m386.57146 542.79794v1h1v-1zm1 1v1h1v-1z" fill="#4d4d4d"/></g></svg>