<svg height="32" width="32" xmlns="http://www.w3.org/2000/svg" xmlns:xlink="http://www.w3.org/1999/xlink"><linearGradient id="i" gradientUnits="userSpaceOnUse" x1="27" x2="27" y1="28" y2="5"><stop offset="0" stop-color="#433a35"/><stop offset="1" stop-color="#6c5548"/></linearGradient><linearGradient id="d" gradientUnits="userSpaceOnUse" x1="31" x2="31" y1="28" y2="5"><stop offset="0" stop-color="#6c5548"/><stop offset="1" stop-color="#997657"/></linearGradient><linearGradient id="a"><stop offset="0" stop-color="#292c2f"/><stop offset="1" stop-opacity="0"/></linearGradient><linearGradient id="l" gradientUnits="userSpaceOnUse" x1="3" x2="10" xlink:href="#a" y1="23" y2="30"/><linearGradient id="g" gradientUnits="userSpaceOnUse" x1="5" x2="17" xlink:href="#a" y1="18" y2="30"/><linearGradient id="b"><stop offset="0" stop-color="#172525"/><stop offset="1" stop-color="#334545"/></linearGradient><linearGradient id="q" gradientUnits="userSpaceOnUse" x1="21" x2="21" y1="29" y2="20"><stop offset="0" stop-color="#2980b9"/><stop offset="1" stop-color="#1d99f3"/></linearGradient><linearGradient id="n" gradientUnits="userSpaceOnUse" x1="23" x2="23" y1="28" y2="6"><stop offset="0" stop-color="#997657"/><stop offset="1" stop-color="#bb9d71"/></linearGradient><linearGradient id="m" gradientUnits="userSpaceOnUse" x1="8" x2="8" xlink:href="#b" y1="23" y2="20"/><linearGradient id="h" gradientUnits="userSpaceOnUse" x1="7.781" x2="7.005" xlink:href="#b" y1="22.743" y2="19.845"/><linearGradient id="c" gradientUnits="userSpaceOnUse" x1="8.813" x2="7.313" xlink:href="#b" y1="22.376" y2="19.778"/><linearGradient id="p" gradientUnits="userSpaceOnUse" x1="27" x2="27" xlink:href="#b" y1="18" y2="13"/><linearGradient id="o" gradientUnits="userSpaceOnUse" x1="20" x2="20" xlink:href="#b" y1="20" y2="17"/><linearGradient id="k" gradientUnits="userSpaceOnUse" x1="28.325" x2="26.772" xlink:href="#b" y1="18.274" y2="12.478"/><linearGradient id="j" gradientUnits="userSpaceOnUse" x1="20.597" x2="19.821" xlink:href="#b" y1="20.344" y2="17.447"/><linearGradient id="f" gradientUnits="userSpaceOnUse" x1="28.268" x2="25.768" xlink:href="#b" y1="18.072" y2="13.742"/><linearGradient id="e" gradientUnits="userSpaceOnUse" x1="21.206" x2="19.706" xlink:href="#b" y1="19.84" y2="17.242"/><path d="M6.533 22.75c.769-.268 1.574-.524 1.967-.918.25-.25.375-.541.438-.853C9 20.666 9 20.333 9 20c0 0-3 0-3 1 0 0 0 1 .533 1.75z" fill="url(#c)" transform="rotate(30 37.098 13.17)"/><path d="M9.35 4.035c-.167.289-.333.577-.543.817-.21.239-.465.43-.807.521-.538.144-1.362-.037-2.162-.19-.348 1.228-.744 2.127-.356 3.55.732 2.731 2.605 3.434 4.198 4.732 1.592 1.297 3.463 2 5.195 3s1.733.998 2.465 3.73l1.465 5.465 4.695.98A15.264 15.264 0 0 0 26 25a15.34 15.34 0 0 0 3.18-3.566L29 20s-2.465-3.733-1.465-5.465 4.136-9.16 3.27-9.66-3.354 1.142-5.487 1.836c-2.132.694-3.288.028-4.404-.04s-2.192.464-3.393.542c-1.2.077-2.52-.299-4.914-1.488-2.394-1.19-3.257-1.69-3.257-1.69z" fill="url(#d)" transform="translate(0 1)"/><path d="M19 19.5c-.333-.501.334-1.501 1-2 .667-.5 1.334-.5 1.667-.001s.333 1.497-.334 1.999c-.668.502-1.999.502-2.332.001z" fill="url(#e)" transform="rotate(30 37.098 13.17)"/><path d="M27.5 12.832c.833.167 1.166 2.166.833 3.5-.332 1.334-1.33 2-2.166 1.833S24.667 17 25 15.666c.334-1.334 1.668-3 2.5-2.834z" fill="url(#f)" transform="rotate(30 37.098 13.17)"/><path d="M26.916 5.975L27 10l-1 2v5H14.008c.29.152.582.3.867.465 1.732 1 1.733.998 2.465 3.73l1.465 5.465 4.695.98A15.264 15.264 0 0 0 26 26a15.34 15.34 0 0 0 3.18-3.566L29 21s-2.465-3.733-1.465-5.465c.579-1.002 1.858-3.895 2.678-6.265z" fill="url(#g)"/><path d="M6.533 22.75c.769-.268 1.574-.524 1.967-.918.25-.25.375-.541.438-.853C9 20.666 9 20.333 9 20c0 0-3 0-3 1 0 0 0 1 .533 1.75z" fill="url(#h)" transform="rotate(15 42.894 3.51)"/><path d="M26.635 4.904c-1.02.036-2.866 2.067-4.63 3.213-1.88 1.222-3.17.878-4.265 1.102s-1.997 1.017-3.136 1.402c-1.14.386-2.513.364-5.133-.166-2.621-.53-3.584-.789-3.584-.789-.087.322-.172.644-.313.93a1.608 1.608 0 0 1-.644.71c-.482.28-1.325.317-2.137.378-.018 1.275-.167 2.246.576 3.52 1.414 2.449 3.403 2.642 5.277 3.483 1.875.842 3.864 1.036 5.795 1.553 1.932.518 1.932.518 3.346 2.967l3.043 4.54A15.328 15.328 0 0 0 26 25a15.34 15.34 0 0 0 3.18-3.566L29 20s-3.346-2.967-2.828-4.898c.518-1.932 1.622-9.92.656-10.178a.657.657 0 0 0-.193-.02z" fill="url(#i)" transform="translate(0 1)"/><path d="M19 19.5c-.333-.501.334-1.501 1-2 .667-.5 1.334-.5 1.667-.001s.333 1.497-.334 1.999c-.668.502-1.999.502-2.332.001z" fill="url(#j)" transform="rotate(15 42.894 3.51)"/><path d="M27.5 12.832c.833.167 1.166 2.166.833 3.5-.332 1.334-1.33 2-2.166 1.833S24.667 17 25 15.666c.334-1.334 1.668-3 2.5-2.834z" fill="url(#k)" transform="rotate(15 42.894 3.51)"/><path d="M23.2 7.102V23h-6.132c.205.327.42.688.72 1.207l.599.895.418 1.558.728.153 1.297 1.933A15.328 15.328 0 0 0 26 26a15.34 15.34 0 0 0 3.18-3.566L29 21s-2.465-3.733-1.465-5.465c.3-.52.797-1.575 1.317-2.781l-5.026-5.025-.002.001z" fill="url(#l)"/><path d="M6.533 22.75c.769-.268 1.574-.524 1.967-.918.25-.25.375-.541.438-.853C9 20.666 9 20.333 9 20c0 0-3 0-3 1 0 0 0 1 .533 1.75z" fill="url(#m)" transform="translate(-5 -3)"/><path d="M23 6c-1 0-2.332 2.665-3.832 4.332S16.334 12 15.334 12.5s-1.667 1.499-2.668 2.166-2.331 1.001-5 1.168S4 16 4 16c0 .333 0 .666-.063.979a1.607 1.607 0 0 1-.437.853c-.393.394-1.198.65-1.967.918.313 1.237.42 2.213 1.467 3.25 2 2 3.972 1.673 6 2s4 0 6 0 2 0 4 2l1.766 1.766A15.328 15.328 0 0 0 26 25a15.336 15.336 0 0 0 4-5s-5-2-5-4-1-10-2-10z" fill="url(#n)" transform="translate(0 1)"/><path d="M19 19.5c-.333-.501.334-1.501 1-2 .667-.5 1.334-.5 1.667-.001s.333 1.497-.334 1.999c-.668.502-1.999.502-2.332.001z" fill="url(#o)" transform="translate(-5 -3)"/><path d="M27.5 12.832c.833.167 1.166 2.166.833 3.5-.332 1.334-1.33 2-2.166 1.833S24.667 17 25 15.666c.334-1.334 1.668-3 2.5-2.834z" fill="url(#p)" transform="translate(-5 -3)"/><path d="M28 20a15.336 15.336 0 0 1-4 5 15.34 15.34 0 0 1-4.47 2.53l1.236 1.236A15.328 15.328 0 0 0 26 26a15.336 15.336 0 0 0 4-5z" fill="url(#q)"/></svg>