<svg height="32" width="32" xmlns="http://www.w3.org/2000/svg" xmlns:xlink="http://www.w3.org/1999/xlink"><linearGradient id="c" gradientUnits="userSpaceOnUse" x1="6" x2="26" xlink:href="#a" y1="6" y2="26"/><linearGradient id="b"><stop offset="0" stop-color="#292c2f"/><stop offset="1" stop-opacity="0"/></linearGradient><linearGradient id="a" xlink:href="#b"/><linearGradient id="d" gradientUnits="userSpaceOnUse" x1="23" x2="30" xlink:href="#a" y1="13" y2="20"/><linearGradient id="e" gradientUnits="userSpaceOnUse" x1="2" x2="2" y1="30" y2="2"><stop offset="0" stop-color="#a5a5a5"/><stop offset="1" stop-color="#f5f2f5"/></linearGradient><linearGradient id="g" gradientUnits="userSpaceOnUse" x2="0" y1="23" y2="9"><stop offset="0" stop-color="#ffd42a"/><stop offset="1" stop-color="#ffdf62"/></linearGradient><linearGradient id="f" gradientUnits="userSpaceOnUse" x1="12" x2="25" xlink:href="#b" y1="12" y2="25"/><rect fill="#4f575f" height="28" rx="14" width="28" x="2" y="2"/><path d="M18.594 2.248l-2.975.38-4.135 2.388-1.502 2.601s-1.973 1.39-2.271 1.31c-2.517-.029-3.869.665-4.58 1.548-.301.703-.537 1.44-.72 2.197-.006.76.161 1.351.161 1.351 7.06 6.357 14.121 9.097 21.182 13.643a13.9 13.9 0 0 0 1.275-.959l.069-.06c.36-.308.703-.636 1.029-.979.072-.076.14-.155.21-.232a13.928 13.928 0 0 0 1.749-2.375l.055-.09a13.991 13.991 0 0 0 1.824-6.282l.002-.02v-.001L28.143 9.03a13.95 13.95 0 0 0-9.55-6.783z" fill="url(#c)" fill-rule="evenodd" opacity=".2"/><path d="M29.012 10.842l-4.307 6.66 4.12 4.12a13.997 13.997 0 0 0 .187-10.78z" fill="url(#d)" fill-rule="evenodd" opacity=".2"/><path d="M16 2a14 14 0 0 0-13.059 9H3l3-1 1 1 1 1v-2l2-1V8l2-1 2-2v1l1-1-1-1h2v1l2-1-1-1v-.95A14 14 0 0 0 16 2zm10.375 4.625L26 7v1h1.469a14 14 0 0 0-1.094-1.375zm1.316 1.684L27 9l-2 2-1 1-1 3v1l1 1 1 1 2 1 2.791-.688A14 14 0 0 0 30 16a14 14 0 0 0-2.309-7.691zM4 13l-1 1h-.838c-.05.34-.088.681-.113 1.023v.002L4 16l1 1 2 1 1 1-1 1v2l1 2 2 2v2.629A14 14 0 0 0 16 30c.17-.003.34-.009.51-.018L17 29v-1l2-1 1-1v-2l1-1v-1l-1-1-3-1-1-1-1-1h-1l-1-1-3-1-2 1H6v-2H5v-2z" fill="url(#e)"/><path d="M16.1 9L15 10v2h-2l-1 1-1 1v6l9.318 9.318a13.96 13.96 0 0 0 8.83-8.53l-8.548-8.59-.692.63z" fill="url(#f)" fill-rule="evenodd" opacity=".2"/><path d="M16 9a2 2 0 0 0-2 2 2 2 0 0 0 .031.338A6 6 0 0 0 10 17a6 6 0 0 0 6 6 6 6 0 0 0 6-6 6 6 0 0 0-1.135-3.502A1 1 0 0 0 21 13a1 1 0 0 0-1-1 1 1 0 0 0-.5.135 6 6 0 0 0-1.53-.795A2 2 0 0 0 18 11a2 2 0 0 0-2-2zm0 1a1 1 0 0 1 1 1 1 1 0 0 1-.006.084A6 6 0 0 0 16 11a6 6 0 0 0-.996.09A1 1 0 0 1 15 11a1 1 0 0 1 1-1zm0 2a5 5 0 0 1 .441.021 5 5 0 0 1 .059.004 5 5 0 0 1 .13.02 5 5 0 0 1 .32.05 5 5 0 0 1 .134.03 5 5 0 0 1 .37.096 5 5 0 0 1 .103.03 5 5 0 0 1 .002 0 5 5 0 0 1 .062.024 5 5 0 0 1 .342.133 5 5 0 0 1 .133.06 5 5 0 0 1 .328.167 5 5 0 0 1 .088.05 5 5 0 0 1 .365.235 5 5 0 0 1 .014.008 5 5 0 0 1 .06.045 5 5 0 0 1 .049.035 5 5 0 0 1 .992.992 5 5 0 0 1 .002.004 5 5 0 0 1 .266.39 5 5 0 0 1 .013.02 5 5 0 0 1 .008.016 5 5 0 0 1 .225.416 5 5 0 0 1 .004.007 5 5 0 0 1 .004.008 5 5 0 0 1 .175.422 5 5 0 0 1 .022.059 5 5 0 0 1 .12.388 5 5 0 0 1 .03.123 5 5 0 0 1 .065.323 5 5 0 0 1 .031.2 5 5 0 0 1 .025.28A5 5 0 0 1 21 17a5 5 0 0 1-.021.441 5 5 0 0 1-.026.21 5 5 0 0 1-.043.275 5 5 0 0 1-.053.236 5 5 0 0 1-.06.242 5 5 0 0 1-.084.25 5 5 0 0 1-.08.221 5 5 0 0 1-.12.262 5 5 0 0 1-.085.177 5 5 0 0 1-.145.254 5 5 0 0 1-.115.188 5 5 0 0 1-.158.22 5 5 0 0 1-.137.18 5 5 0 0 1-.174.2 5 5 0 0 1-.166.177 5 5 0 0 1-.178.166 5 5 0 0 1-.199.174 5 5 0 0 1-.18.137 5 5 0 0 1-.22.158 5 5 0 0 1-.188.115 5 5 0 0 1-.254.145 5 5 0 0 1-.177.086 5 5 0 0 1-.262.119 5 5 0 0 1-.22.08 5 5 0 0 1-.25.084 5 5 0 0 1-.243.06 5 5 0 0 1-.236.053 5 5 0 0 1-.276.043 5 5 0 0 1-.209.026A5 5 0 0 1 16 22a5 5 0 0 1-.441-.021 5 5 0 0 1-.21-.026 5 5 0 0 1-.275-.043 5 5 0 0 1-.236-.053 5 5 0 0 1-.242-.06 5 5 0 0 1-.25-.084 5 5 0 0 1-.221-.08 5 5 0 0 1-.262-.12 5 5 0 0 1-.177-.085 5 5 0 0 1-.254-.145 5 5 0 0 1-.188-.115 5 5 0 0 1-.22-.158 5 5 0 0 1-.18-.137 5 5 0 0 1-.2-.174 5 5 0 0 1-.177-.166 5 5 0 0 1-.166-.178 5 5 0 0 1-.174-.199 5 5 0 0 1-.137-.18 5 5 0 0 1-.158-.22 5 5 0 0 1-.115-.188 5 5 0 0 1-.145-.254 5 5 0 0 1-.086-.177 5 5 0 0 1-.119-.262 5 5 0 0 1-.08-.22 5 5 0 0 1-.084-.25 5 5 0 0 1-.06-.243 5 5 0 0 1-.053-.236 5 5 0 0 1-.043-.276 5 5 0 0 1-.026-.209A5 5 0 0 1 11 17a5 5 0 0 1 .021-.441 5 5 0 0 1 .024-.19 5 5 0 0 1 .05-.318 5 5 0 0 1 .032-.145 5 5 0 0 1 .088-.342 5 5 0 0 1 .047-.142 5 5 0 0 1 .117-.322 5 5 0 0 1 .072-.16 5 5 0 0 1 .145-.295 5 5 0 0 1 .068-.122 5 5 0 0 1 .195-.318 5 5 0 0 1 .063-.086 5 5 0 0 1 .246-.322 5 5 0 0 1 .039-.045 5 5 0 0 1 .314-.336 5 5 0 0 1 .37-.324 5 5 0 0 1 .023-.02 5 5 0 0 1 .377-.267 5 5 0 0 1 .041-.026 5 5 0 0 1 .406-.232 5 5 0 0 1 .455-.203 5 5 0 0 1 1.121-.291 5 5 0 0 1 .026-.004 5 5 0 0 1 .021-.002 5 5 0 0 1 .371-.033 5 5 0 0 1 .114-.008A5 5 0 0 1 16 12zm0 1v3a1 1 0 0 1 1 1h3a4 4 0 0 0-.018-.338 4 4 0 0 0-.025-.21 4 4 0 0 0-.027-.186 4 4 0 0 0-.051-.223 4 4 0 0 0-.04-.154 4 4 0 0 0-.07-.215 4 4 0 0 0-.066-.18 4 4 0 0 0-.078-.174 4 4 0 0 0-.09-.185 4 4 0 0 0-.094-.164 4 4 0 0 0-.115-.188 4 4 0 0 0-.097-.135 4 4 0 0 0-.141-.185 4 4 0 0 0-.113-.129 4 4 0 0 0-.149-.16 4 4 0 0 0-.16-.149 4 4 0 0 0-.129-.113 4 4 0 0 0-.185-.14 4 4 0 0 0-.135-.098 4 4 0 0 0-.188-.115 4 4 0 0 0-.164-.094 4 4 0 0 0-.185-.09 4 4 0 0 0-.174-.078 4 4 0 0 0-.18-.067 4 4 0 0 0-.215-.07 4 4 0 0 0-.154-.039 4 4 0 0 0-.223-.05 4 4 0 0 0-.185-.028 4 4 0 0 0-.211-.025A4 4 0 0 0 16 13z" fill="url(#g)"/><path d="M29.979 15.414A14 14 0 0 1 16 29 14 14 0 0 1 2.021 15.586 14 14 0 0 0 2 16a14 14 0 0 0 14 14 14 14 0 0 0 14-14 14 14 0 0 0-.021-.586z" fill="#292c2f" opacity=".3"/></svg>