<svg height="32" width="32" xmlns="http://www.w3.org/2000/svg"><linearGradient id="a" gradientUnits="userSpaceOnUse" x1="16" x2="16" y1="30" y2="2"><stop offset="0" stop-color="#197cf1"/><stop offset="1" stop-color="#20bcfa"/></linearGradient><linearGradient id="b" gradientUnits="userSpaceOnUse" x1="14" x2="25" y1="10" y2="21"><stop offset="0" stop-color="#292c2f"/><stop offset="1" stop-opacity="0"/></linearGradient><linearGradient id="c" gradientUnits="userSpaceOnUse" x1="14" x2="14" y1="21" y2="9"><stop offset="0" stop-color="#7cbaf8"/><stop offset="1" stop-color="#f4fcff"/></linearGradient><path d="M16 2C12.59 3.806 9.18 4.544 5.77 5.23v13.463c0 3.77 5.526 8.918 10.23 11.307 4.704-2.389 10.23-7.537 10.23-11.307V5.231C22.82 4.544 19.41 3.806 16 2z" fill="url(#a)"/><path d="M16 9l-2 1-1 2v3h-2v6l9 9h6.219l.024-12-8.122-8.121z" fill="url(#b)" opacity=".2"/><path d="M16 9a3 3 0 0 0-3 3v3h-2v6h10v-6h-2v-3a3 3 0 0 0-3-3zm0 1a2 2 0 0 1 2 2v3h-4v-3a2 2 0 0 1 2-2z" fill="url(#c)"/><path d="M5.77 17.693v1c0 3.77 5.526 8.918 10.23 11.307 4.704-2.389 10.23-7.537 10.23-11.307v-1c0 3.77-5.526 8.918-10.23 11.307-4.704-2.389-10.23-7.537-10.23-11.307z" fill="#292c2f" opacity=".2"/></svg>