<svg height="32" width="32" xmlns="http://www.w3.org/2000/svg" xmlns:xlink="http://www.w3.org/1999/xlink"><linearGradient id="h" gradientUnits="userSpaceOnUse" x1="11" x2="11" y1="19" y2="11"><stop offset="0" stop-color="#8e44ad"/><stop offset="1" stop-color="#b08bc4"/></linearGradient><linearGradient id="f" gradientUnits="userSpaceOnUse" x1="16" x2="16" y1="10" y2="2"><stop offset="0" stop-color="#da4453"/><stop offset="1" stop-color="#e4848f"/></linearGradient><linearGradient id="k" gradientUnits="userSpaceOnUse" x1="7" x2="7" y1="28" y2="20"><stop offset="0" stop-color="#208c4e"/><stop offset="1" stop-color="#6dbd7f"/></linearGradient><linearGradient id="b" gradientUnits="userSpaceOnUse" x2="0" y1="30" y2="2"><stop offset="0" stop-color="#c3c8cd"/><stop offset="1" stop-color="#e4e6e8"/></linearGradient><linearGradient id="a"><stop offset="0" stop-color="#292c2f"/><stop offset="1" stop-opacity="0"/></linearGradient><linearGradient id="c" gradientUnits="userSpaceOnUse" x1="12" x2="20" xlink:href="#a" y1="9" y2="17"/><linearGradient id="d" gradientUnits="userSpaceOnUse" x1="17" x2="24" xlink:href="#a" y1="18" y2="25"/><linearGradient id="e" gradientUnits="userSpaceOnUse" x1="21" x2="29" xlink:href="#a" y1="27" y2="35"/><linearGradient id="g" gradientUnits="userSpaceOnUse" x1="7" x2="14" xlink:href="#a" y1="18" y2="25"/><linearGradient id="i" gradientUnits="userSpaceOnUse" x1="3" x2="11" xlink:href="#a" y1="27" y2="35"/><linearGradient id="j" gradientUnits="userSpaceOnUse" x1="12" x2="20" xlink:href="#a" y1="27" y2="35"/><path d="M4 2h24c1.108 0 2 .892 2 2v24c0 1.108-.892 2-2 2H4c-1.108 0-2-.892-2-2V4c0-1.108.892-2 2-2z" fill="url(#b)"/><path d="M15.688 7.61l-5 4-.188.39v5.76l-4.813 3.85.625.78L11 18.64l4.688 3.75.624-.78-4.812-3.85v-5.52l4.5-3.6 4.5 3.6V18l.188.39 5 4 .625-.78-4.813-3.85V12l-.188-.39-5-4z" fill="#7f8c8d"/><path d="M12.292 9.708l2 2 .416-.416 5 5 5-5L30 16.585v-4L19.708 2.292z" fill="url(#c)" opacity=".2"/><path d="M17.292 18.708L18.585 20l.707.708.416-.416 4.5 4.5 4.5-4.5L30 21.585v-5l-5.292-5.293z" fill="url(#d)" opacity=".2"/><path d="M28.707 20.293l-7.414 7.414L22.584 29H28c1.108 0 2-.892 2-2v-5.416z" fill="url(#e)" opacity=".2"/><rect fill="url(#f)" height="8" rx="1" width="8" x="12" y="2"/><path d="M14.707 11.293l-7.414 7.414L8.584 20l1.208 1.208.916-.916L12 21.584 19 21l.292-.292-.708-.708-1.291-1.293L17 13.584z" fill="url(#g)" opacity=".2"/><path d="M18 11h6c.554 0 1 .446 1 1v6c0 .554-.446 1-1 1h-6c-.554 0-1-.446-1-1v-6c0-.554.446-1 1-1zM8 11h6c.554 0 1 .446 1 1v6c0 .554-.446 1-1 1H8c-.554 0-1-.446-1-1v-6c0-.554.446-1 1-1z" fill="url(#h)"/><path d="M3.292 27.708L4.585 29h9l-1.293-1.292L12 21.585l-1.292-1.293z" fill="url(#i)" opacity=".2"/><path d="M12.292 27.708L13.585 29h9l-1.293-1.292L21 21.585l-1.292-1.293z" fill="url(#j)" opacity=".2"/><path d="M4 20h6c.554 0 1 .446 1 1v6c0 .554-.446 1-1 1H4c-.554 0-1-.446-1-1v-6c0-.554.446-1 1-1zm9 0h6c.554 0 1 .446 1 1v6c0 .554-.446 1-1 1h-6c-.554 0-1-.446-1-1v-6c0-.554.446-1 1-1zm9 0h6c.554 0 1 .446 1 1v6c0 .554-.446 1-1 1h-6c-.554 0-1-.446-1-1v-6c0-.554.446-1 1-1z" fill="url(#k)"/><path d="M12 8v1c0 .554.446 1 1 1h6c.554 0 1-.446 1-1V8c0 .554-.446 1-1 1h-6c-.554 0-1-.446-1-1zm5 9v1c0 .554.446 1 1 1h6c.554 0 1-.446 1-1v-1c0 .554-.446 1-1 1h-6c-.554 0-1-.446-1-1zM7 17v1c0 .554.446 1 1 1h6c.554 0 1-.446 1-1v-1c0 .554-.446 1-1 1H8c-.554 0-1-.446-1-1zm-4 9v1c0 .554.446 1 1 1h6c.554 0 1-.446 1-1v-1c0 .554-.446 1-1 1H4c-.554 0-1-.446-1-1zm9 0v1c0 .554.446 1 1 1h6c.554 0 1-.446 1-1v-1c0 .554-.446 1-1 1h-6c-.554 0-1-.446-1-1zm9 0v1c0 .554.446 1 1 1h6c.554 0 1-.446 1-1v-1c0 .554-.446 1-1 1h-6c-.554 0-1-.446-1-1z" fill="#292c2f" opacity=".2"/><path d="M2 27v1c0 1.108.892 2 2 2h24c1.108 0 2-.892 2-2v-1c0 1.108-.892 2-2 2H4c-1.108 0-2-.892-2-2z" fill="#97a0a7"/></svg>