<svg height="32" width="32" xmlns="http://www.w3.org/2000/svg" xmlns:xlink="http://www.w3.org/1999/xlink"><linearGradient id="b" gradientTransform="matrix(.7 0 0 .7 -.7 -1.1)" gradientUnits="userSpaceOnUse" x2="0" y1="44" y2="4"><stop offset="0" stop-color="#1d1e1e"/><stop offset="1" stop-color="#44484c"/></linearGradient><linearGradient id="c" gradientTransform="matrix(.7 0 0 .7 -270.499 -350.76)" x2="0" xlink:href="#a" y1="507.8" y2="506.8"/><linearGradient id="a" gradientUnits="userSpaceOnUse" x2="0" y1="507.8" y2="506.8"><stop offset="0" stop-color="#3da103"/><stop offset="1" stop-color="#7ddf07"/></linearGradient><linearGradient id="d" gradientTransform="matrix(.7 0 0 .7 -270.499 -339.76)" x2="0" xlink:href="#a" y1="507.8" y2="506.8"/><linearGradient id="e" gradientTransform="matrix(.7 0 0 .7 -270.499 -328.76)" x2="0" xlink:href="#a" y1="507.8" y2="506.8"/><linearGradient id="f" gradientUnits="userSpaceOnUse" x1="5" x2="18" y1="12" y2="25"><stop offset="0" stop-color="#292c2f"/><stop offset="1" stop-opacity="0"/></linearGradient><path d="M3 7h26v17H3z" fill="#111213"/><g stroke-width=".7"><path d="M3 2v28h26V2zm1 6h24v4H4zm0 11h24v4H4z" fill="url(#b)"/><path d="M5 4h2v1H5z" fill="url(#c)"/><path d="M5 15h2v1H5z" fill="url(#d)"/><path d="M5 26h2v1H5z" fill="url(#e)"/></g><path d="M3 29h26v1H3z" opacity=".2"/><path d="M4 12l7 7h17v4H15l7 7h7V13l-1-1z" fill="url(#f)" fill-rule="evenodd" opacity=".4"/><rect fill="#eff0f1" height="16" rx="2" width="16" x="16" y="14"/><g fill="#232629"><path d="M27.936 23a2 2 0 0 1 .064.5v.5a2 2 0 0 1-2 2h-1v2h5v-5h-2z"/><path d="M25 23v2h1a1.007 1.007 0 0 0 .295-.045.997.997 0 0 0 .35-.19 1 1 0 0 0 .246-.312A.997.997 0 0 0 27 24v-.5a1 1 0 0 0-.137-.5zm-7 0v5h5v-2h-3v-1h3v-2zm0-7v5h2.064a2 2 0 0 1-.064-.5V20a2 2 0 0 1 2-2h1v-2z"/><path d="M22 19a1.007 1.007 0 0 0-.295.045.997.997 0 0 0-.35.19 1 1 0 0 0-.246.312A.997.997 0 0 0 21 20v.5a1 1 0 0 0 .137.5H23v-2zm3-3v2h3v1h-3v2h5v-5z"/></g></svg>