<?xml version="1.0" encoding="UTF-8" standalone="no"?>

<!-- Created with Inkscape (http://www.inkscape.org/) -->
<svg width="32" version="1.1" xmlns="http://www.w3.org/2000/svg" height="32" xmlns:xlink="http://www.w3.org/1999/xlink" xmlns:inkscape="http://www.inkscape.org/namespaces/inkscape">
 <defs id="defs5455">
  <linearGradient inkscape:collect="always" id="linearGradient4303">
   <stop style="stop-color:#c6cdd1" id="stop4305"/>
   <stop offset="1" style="stop-color:#e0e5e7" id="stop4307"/>
  </linearGradient>
  <linearGradient inkscape:collect="always" xlink:href="#linearGradient4159" id="linearGradient4298" y1="545.79797" y2="517.79797" x2="0" gradientUnits="userSpaceOnUse"/>
  <linearGradient inkscape:collect="always" id="linearGradient4159">
   <stop style="stop-color:#2a2c2f" id="stop4161"/>
   <stop offset="1" style="stop-color:#424649" id="stop4163"/>
  </linearGradient>
  <linearGradient inkscape:collect="always" xlink:href="#linearGradient4303" id="linearGradient4381" y1="543.79797" y2="518.79797" x2="0" gradientUnits="userSpaceOnUse" gradientTransform="matrix(0.91304246 0 0 0.95652063 35.13704 23.600554)"/>
  <linearGradient inkscape:collect="always" id="linearGradient4227">
   <stop style="stop-color:#292c2f" id="stop4229"/>
   <stop offset="1" style="stop-opacity:0" id="stop4231"/>
  </linearGradient>
  <linearGradient inkscape:collect="always" xlink:href="#linearGradient4227" id="linearGradient4173" y1="524.79797" x1="393.57144" y2="538.79797" x2="407.57147" gradientUnits="userSpaceOnUse" gradientTransform="matrix(1 0 0 1 -384.57143 -515.798)"/>
  <linearGradient inkscape:collect="always" xlink:href="#linearGradient4159" id="linearGradient4340" y1="20" y2="11" x2="0" gradientUnits="userSpaceOnUse" gradientTransform="matrix(1 0 0 1 384.57143 516.798)"/>
  <linearGradient inkscape:collect="always" xlink:href="#linearGradient4227" id="linearGradient4372" y1="14" x1="10" y2="25" x2="21" gradientUnits="userSpaceOnUse"/>
 </defs>
 <metadata id="metadata5458"/>
 <g inkscape:label="Capa 1" inkscape:groupmode="layer" id="layer1" transform="matrix(1 0 0 1 -384.57143 -515.798)">
  <rect width="15.999989" x="392.57144" y="517.79797" height="28" style="fill:url(#linearGradient4298)" id="rect4232"/>
  <path style="fill:url(#linearGradient4173);opacity:0.2;fill-rule:evenodd" id="path4164" d="M 23 5 L 9 27 L 12 30 L 24 30 L 24 6 L 23 5 z " transform="matrix(1 0 0 1 384.57143 515.798)"/>
  <rect width="15.999989" x="392.57144" y="544.79797" height="1" style="fill:#1c1e20" id="rect4180"/>
  <rect width="14" x="393.57144" y="520.79797" height="22" style="fill:url(#linearGradient4381)" id="rect4300"/>
  <rect width="6" x="397.57144" y="518.79797" height="1" style="fill:#212324" id="rect4607"/>
  <path style="fill:url(#linearGradient4372);opacity:0.2" id="rect4345" d="M 14.853516 12.146484 L 14.146484 12.853516 L 18.646484 17.353516 L 18 18 L 23 23 L 24 24 L 24 18 L 21 15 L 19.353516 16.646484 L 14.853516 12.146484 z M 13.707031 15.292969 L 12.292969 16.707031 L 15.292969 19.707031 L 14.4375 20.5625 L 23.630859 29.753906 L 24 29.384766 L 24 25.876953 L 23.460938 25.337891 L 23.607422 25.191406 L 13.707031 15.292969 z " transform="matrix(1 0 0 1 384.57143 515.798)"/>
  <path style="fill:url(#linearGradient4340)" id="path4353" d="m 399.07143,527.798 c -0.27614,0 -0.5,0.22386 -0.5,0.5 0,0.27614 0.22386,0.5 0.5,0.5 0.27614,0 0.5,-0.22386 0.5,-0.5 0,-0.27614 -0.22386,-0.5 -0.5,-0.5 z"/>
  <path style="fill:url(#linearGradient4340)" id="path4351" d="m 402.57143,527.798 -1,1 2,2 -2,2 1,1 2,-2 1,-1 -1,-1 z"/>
  <path style="fill:url(#linearGradient4340)" id="path4349" d="m 397.57143,530.798 c -0.55228,0 -1,0.44772 -1,1 0,0.55228 0.44772,1 1,1 0.55228,0 1,-0.44772 1,-1 0,-0.55228 -0.44772,-1 -1,-1 z"/>
  <path style="fill:url(#linearGradient4340)" id="path4327" d="m 400.07143,533.798 c -0.82843,0 -1.5,0.67157 -1.5,1.5 0,0.82843 0.67157,1.5 1.5,1.5 0.82843,0 1.5,-0.67157 1.5,-1.5 0,-0.82843 -0.67157,-1.5 -1.5,-1.5 z"/>
 </g>
</svg>
