<svg height="32" viewBox="0 0 32 32.000001" width="32" xmlns="http://www.w3.org/2000/svg" xmlns:xlink="http://www.w3.org/1999/xlink"><linearGradient id="a" gradientTransform="matrix(.62499976 0 0 .54999977 -239.35706 746.27342)" gradientUnits="userSpaceOnUse" x1="418.16971" x2="384.57144" y1="503.07938" y2="531.45813"><stop offset="0" stop-color="#1abc9c"/><stop offset="1" stop-color="#2980b9"/></linearGradient><linearGradient id="b" gradientTransform="matrix(.62499976 0 0 .54999977 -239.35706 746.27342)" gradientUnits="userSpaceOnUse" x1="404.0452" x2="430.73611" y1="521.63281" y2="528.35034"><stop offset="0" stop-color="#cc4a5e"/><stop offset="1" stop-color="#aa478a"/></linearGradient><linearGradient id="c" gradientTransform="matrix(.62499976 0 0 .54999977 -239.35706 746.27342)" gradientUnits="userSpaceOnUse" x1="398.09201" x2="394.00299" xlink:href="#d" y1="542.22382" y2="524.89966"/><linearGradient id="d"><stop offset="0" stop-color="#334545"/><stop offset="1" stop-color="#536161"/></linearGradient><linearGradient id="e" gradientTransform="matrix(-.62499973 0 0 .54999974 285.107 724.27344)" gradientUnits="userSpaceOnUse" x1="431.57141" x2="439.57141" xlink:href="#d" y1="568.79803" y2="562.79803"/><linearGradient id="f" gradientTransform="matrix(-.62499976 0 0 .54999977 285.10702 724.27342)" gradientUnits="userSpaceOnUse" x1="406.53735" x2="423.31955" xlink:href="#d" y1="581.87024" y2="572.67786"/><linearGradient id="g" gradientTransform="matrix(-.62499976 0 0 .54999977 285.10702 724.27342)" gradientUnits="userSpaceOnUse" x1="423.05438" x2="431.22452" xlink:href="#d" y1="572.33411" y2="566.76562"/><linearGradient id="h" gradientTransform="matrix(-.62499976 0 0 .54999977 285.10702 724.27342)" gradientUnits="userSpaceOnUse" x1="431.3129" x2="440.63208" xlink:href="#d" y1="577.10217" y2="571.44531"/><linearGradient id="i" gradientTransform="matrix(-.62499976 0 0 .54999977 285.10702 724.27342)" gradientUnits="userSpaceOnUse" x1="430.56738" x2="423.74994" xlink:href="#d" y1="577.36243" y2="591.32782"/><linearGradient id="j" gradientTransform="matrix(1 0 0 1.2105271 -387.57147 393.13263)" gradientUnits="userSpaceOnUse" x2="0" y1="538.79797" y2="519.79797"><stop offset="0" stop-color="#2a2c2f"/><stop offset="1" stop-color="#424649"/></linearGradient><linearGradient id="k" gradientTransform="translate(-384.5715 506.56421)" gradientUnits="userSpaceOnUse" x2="0" y1="542.79797" y2="538.79797"><stop offset="0" stop-color="#c6cdd1"/><stop offset="1" stop-color="#e0e5e7"/></linearGradient><linearGradient id="l" gradientUnits="userSpaceOnUse" x1="9.00001" x2="26.00001" y1="1024.36218" y2="1041.36218"><stop offset="0"/><stop offset="1" stop-opacity="0"/></linearGradient><linearGradient id="m" gradientUnits="userSpaceOnUse" x1="16" x2="16" y1="18" y2="6"><stop offset="0" stop-color="#f0f0f0"/><stop offset="1" stop-color="#fcfcfc"/></linearGradient><linearGradient id="n" gradientUnits="userSpaceOnUse" x1="19.513672" x2="15" y1="15.554688" y2="11"><stop offset="0" stop-color="#f3f3f3"/><stop offset="1" stop-color="#fcfcfc" stop-opacity="0"/></linearGradient><linearGradient id="o" gradientUnits="userSpaceOnUse" x1="14" x2="23" y1="10" y2="19"><stop offset="0" stop-color="#292c2f"/><stop offset="1" stop-color="#292c2f" stop-opacity=".030612"/></linearGradient><g transform="translate(0 -1020.3622)"><path d="m.99999322 1023.3622v18h30.00000078v-18z" fill="url(#a)"/><g stroke-linecap="round" stroke-width="2"><path d="m30.999994 1023.3622-20.646307 10.4895 14.782937 7.5105h5.86337z" fill="url(#b)"/><path d="m10.374994 1033.8118-9.37500078 4.7637v2.7867h24.27645678z" fill="url(#c)"/><path d="m15.536559 1036.4346-5.161573-2.6224v5.2449z" fill="url(#e)"/><path d="m20.698147 1039.056v2.3062h4.538353z" fill="url(#f)"/><path d="m15.536572 1036.4345v4.9277h.624556l4.537021-2.3051z" fill="url(#g)"/><path d="m10.374994 1039.0571v2.3051h4.53702z" fill="url(#h)"/><path d="m20.698147 1039.056-4.538352 2.3062h4.538352z" fill="url(#i)"/><path d="m10.353698 1033.8519 20.646291-10.4897-.000012 5.1244z" fill="#aa478a"/></g><path d="m0 1022.3622v23h32v-23zm1 1h30v18h-30z" fill="url(#j)"/><path d="m13.000011 1045.3622h6v4h-6z" fill="url(#k)"/><path d="m10.000011 1049.3622h12v1h-12z" fill="#99a1a7"/><path d="m1 1041.3622 4 4h27v-21l-1-1v18z" fill="url(#l)" fill-rule="evenodd" opacity=".2"/><path d="m16.087891 6a6 6 0 0 0 -4.330079 1.7578125 6 6 0 0 0 0 8.4843755l4.757813 4.757812h14.484375v-2.484375l-10.757812-10.7578125a6 6 0 0 0 -4.154297-1.7578125z" fill="url(#o)" opacity=".25" transform="translate(0 1020.3622)"/><path d="m16 6a6 6 0 0 0 -6 6 6 6 0 0 0 6 6 6 6 0 0 0 6-6 6 6 0 0 0 -6-6zm0 1a5.0000172 5.0000172 0 0 1 5 5 5.0000172 5.0000172 0 0 1 -5 5 5.0000172 5.0000172 0 0 1 -5-5 5.0000172 5.0000172 0 0 1 5-5z" fill="url(#n)" transform="translate(0 1020.3622)"/><path d="m16 6a5.9999828 5.9999828 0 0 0 -6 6 5.9999828 5.9999828 0 0 0 6 6 5.9999828 5.9999828 0 0 0 4.214844-1.736328l-.701172-.708984a5.0000172 5.0000172 0 0 1 -3.513672 1.445312 5.0000172 5.0000172 0 0 1 -5-5 5.0000172 5.0000172 0 0 1 5-5z" fill="url(#m)" transform="translate(0 1020.3622)"/></g></svg>