<svg height="32" width="32" xmlns="http://www.w3.org/2000/svg" xmlns:xlink="http://www.w3.org/1999/xlink"><linearGradient id="a"><stop offset="0" stop-color="#eff0f1"/><stop offset="1" stop-color="#fcfcfc"/></linearGradient><linearGradient id="b" gradientUnits="userSpaceOnUse" x1="42.79841247438" x2="12.00001129904" y1="5.34126380931" y2="31.35510700286"><stop offset="0" stop-color="#1abc9c"/><stop offset="1" stop-color="#2980b9"/></linearGradient><linearGradient id="c" gradientUnits="userSpaceOnUse" x1="29.85095043586" x2="54.31760761537" y1="22.34856746865" y2="28.50630070454"><stop offset="0" stop-color="#cc4a5e"/><stop offset="1" stop-color="#aa478a"/></linearGradient><linearGradient id="d" gradientUnits="userSpaceOnUse" x1="24.39386190442" x2="20.64559515218" xlink:href="#e" y1="41.22365200679" y2="25.34317870546"/><linearGradient id="e"><stop offset="0" stop-color="#334545"/><stop offset="1" stop-color="#536161"/></linearGradient><linearGradient id="f" gradientTransform="matrix(-1 0 0 1 839.14285 -40.00001)" gradientUnits="userSpaceOnUse" x1="431.57141" x2="439.57141" xlink:href="#e" y1="568.79803" y2="562.79803"/><linearGradient id="g" gradientTransform="matrix(-.91666628 0 0 .91666628 428.69029 -492.4813)" gradientUnits="userSpaceOnUse" x1="406.53735" x2="423.31955" xlink:href="#e" y1="581.87024" y2="572.67786"/><linearGradient id="h" gradientTransform="matrix(-.91666628 0 0 .91666628 448.69029 -492.4813)" gradientUnits="userSpaceOnUse" x1="423.05438" x2="431.22452" xlink:href="#e" y1="572.33411" y2="566.76562"/><linearGradient id="i" gradientTransform="matrix(-.91666628 0 0 .91666628 428.69029 -492.4813)" gradientUnits="userSpaceOnUse" x1="431.3129" x2="440.63208" xlink:href="#e" y1="577.10217" y2="571.44531"/><linearGradient id="j" gradientTransform="matrix(-.91666628 0 0 .91666628 428.69029 -492.4813)" gradientUnits="userSpaceOnUse" x1="430.56738" x2="423.74994" xlink:href="#e" y1="577.36243" y2="591.32782"/><linearGradient id="k" gradientUnits="userSpaceOnUse" x1="16.00001" x2="16.00001" xlink:href="#a" y1="20.99997" y2="7"/><linearGradient gradientUnits="userSpaceOnUse" x1="389.57144" x2="403.57144" xlink:href="#a" y1="506.798" y2="506.798"/><linearGradient id="l" gradientUnits="userSpaceOnUse" x1="394.57144" x2="408.57144" y1="523.79797" y2="537.79797"><stop offset="0" stop-color="#292c2f"/><stop offset="1" stop-color="#292c2f" stop-opacity="0"/></linearGradient><g transform="translate(-384.57143 -515.798)"><g transform="matrix(.66666636 0 0 .85555436 128.19059 86.77139)"><path d="m12 6v30h44v-30z" fill="url(#b)" transform="matrix(1.0909096 0 0 1.0909096 371.48052 497.25255)"/><g stroke-linecap="round" stroke-width="2"><path d="m56 6-30.28125 17.482422 21.681641 12.517578h8.599609z" fill="url(#c)" transform="matrix(1.0909096 0 0 1.0909096 371.48052 497.25255)"/><path d="m25.75 23.416016-13.75 7.939453v4.644531h35.605469z" fill="url(#d)" transform="matrix(1.0909096 0 0 1.0909096 371.48052 497.25255)"/><path d="m407.82995 527.56606-8.25852-4.76806v9.53611z" fill="url(#f)"/><path d="m40.890625 32.15625v3.84375h6.65625z" fill="url(#g)" transform="matrix(1.0909096 0 0 1.0909096 371.48052 497.25255)"/><path d="m53.320312 27.787109v8.212891h.916016l6.654297-3.841797z" fill="url(#h)" transform="matrix(1.0909096 0 0 1.0909096 349.66233 497.25255)"/><path d="m25.75 32.158203v3.841797h6.654297z" fill="url(#i)" transform="matrix(1.0909096 0 0 1.0909096 371.48052 497.25255)"/><path d="m40.890625 32.15625-6.65625 3.84375h6.65625z" fill="url(#j)" transform="matrix(1.0909096 0 0 1.0909096 371.48052 497.25255)"/><path d="m399.53737 522.87024 33.03408-19.07223-.00002 9.31712z" fill="#aa478a"/></g></g><path d="m404.7315 522.80377-2.83292 2.82138-2.82715-2.82715.53125 2.03125-2.03125-.53125 2.82715 2.82715-.5.5-4.82715-4.82715.53125 2.03125-2.03125-.53125 3 3h-1l2.32715 2.32715-4.32715 4.32715 11.84565 11.84565 11.15435.00005v-11.1543z" fill="url(#l)" opacity=".2"/><path d="m384.57144 541.79803h31.999952v3.999968h-31.999952z" fill="#fff" fill-opacity=".784314"/><circle cx="413.57144" cy="543.79797" fill="#4d4d4d" r="1"/><path d="m386.57143 542.79794v1h1v-1zm1 1v1h1v-1z" fill="#4d4d4d"/><path d="m10.5 7-.53125.96875-.96875.53125.96875.53125.53125.96875.53125-.96875.96875-.53125-.96875-.53125zm4 0-.53125.96875-.96875.53125.96875.53125.53125.96875.53125-.96875.96875-.53125-.96875-.53125zm5.654297 0-11.154297 11.154297 2.845703 2.845703 11.154297-11.1542969zm0 1.421875 1.421875 1.4238281-3.326172 3.3300779-1.423828-1.423828zm-7.654297 1.578125-.53125.96875-.96875.53125.96875.53125.53125.96875.53125-.96875.96875-.53125-.96875-.53125z" fill="url(#k)" transform="translate(384.57143 515.798)"/></g></svg>