<svg height="32" width="32" xmlns="http://www.w3.org/2000/svg"><linearGradient id="a" gradientUnits="userSpaceOnUse" x1="30" x2="30" y1="30" y2="2"><stop offset="0" stop-color="#fdbc4b"/><stop offset="1" stop-color="#fed286"/></linearGradient><linearGradient id="e" gradientUnits="userSpaceOnUse" x1="25" x2="25" y1="21" y2="7"><stop offset="0" stop-color="#232629"/><stop offset="1" stop-color="#4d4d4d"/></linearGradient><linearGradient id="d" gradientUnits="userSpaceOnUse" x1="14" x2="28" y1="12" y2="26"><stop offset="0" stop-color="#292c2f"/><stop offset="1" stop-opacity="0"/></linearGradient><linearGradient id="c" gradientUnits="userSpaceOnUse" x1="4" x2="4" y1="30" y2="27"><stop offset="0" stop-opacity=".4"/><stop offset="1" stop-opacity=".2"/></linearGradient><linearGradient id="b" gradientTransform="matrix(.66667 0 0 16 -25.794 -199.679)" gradientUnits="userSpaceOnUse" x1="38.691" x2="38.691" y1="14.355" y2="12.605"><stop offset="0" stop-color="#1d1e1e"/><stop offset="1" stop-color="#44484c"/></linearGradient><path d="M4 2h24v28H4z" fill="url(#a)"/><path d="M4 2v28h2v-1H5v-1h1V2z" fill="url(#b)"/><path d="M4 27v3h24v-1H5v-1h23v-1z" fill="url(#c)" fill-rule="evenodd"/><path d="M5 28h23v1H5z" fill="#edf573"/><path d="M10 21l6 6h12V16.753l-8.877-8.876L17 7l-3 3 .877 2.123L17 14.246 14 15l-3 3z" fill="url(#d)" opacity=".2"/><path d="M22 13a2 2 0 0 0-2 2v2h-1v4h6v-4h-1v-2a2 2 0 0 0-2-2zm0 1a1 1 0 0 1 1 1v2h-2v-2a1 1 0 0 1 1-1zm-5 0c-3.878 0-7 3.122-7 7h8v-1h-6.91A5.98 5.98 0 0 1 17 15c.343 0 .676.037 1 .098v-1.012A6.654 6.654 0 0 0 17 14zm0-7c-1.662 0-3 1.338-3 3s1.338 3 3 3 3-1.338 3-3-1.338-3-3-3zm0 1c1.108 0 2 .892 2 2s-.892 2-2 2-2-.892-2-2 .892-2 2-2z" fill="url(#e)"/></svg>