<?xml version="1.0" encoding="UTF-8" standalone="no"?>

<!-- Created with Inkscape (http://www.inkscape.org/) -->
<svg width="32" version="1.1" xmlns="http://www.w3.org/2000/svg" height="32" xmlns:xlink="http://www.w3.org/1999/xlink" xmlns:inkscape="http://www.inkscape.org/namespaces/inkscape">
 <defs id="defs5455">
  <linearGradient inkscape:collect="always" xlink:href="#linearGradient4303-6" id="linearGradient4643-8" y1="543.79797" y2="502.65509" gradientUnits="userSpaceOnUse" x2="0" gradientTransform="matrix(0.66666726 0 0 0.63518419 141.19014 191.51873)"/>
  <linearGradient inkscape:collect="always" id="linearGradient4303-6">
   <stop style="stop-color:#c6cdd1" id="stop4305-7"/>
   <stop offset="1" style="stop-color:#e0e5e7" id="stop4307-0"/>
  </linearGradient>
  <linearGradient inkscape:collect="always" xlink:href="#linearGradient4293" id="linearGradient4183" y1="525.79797" x1="391.57144" y2="540.79797" x2="406.57147" gradientUnits="userSpaceOnUse" gradientTransform="matrix(1 0 0 1 12.999989 -6.99997)"/>
  <linearGradient inkscape:collect="always" id="linearGradient4293">
   <stop id="stop4295"/>
   <stop offset="1" style="stop-opacity:0" id="stop4297"/>
  </linearGradient>
 </defs>
 <metadata id="metadata5458"/>
 <g inkscape:label="Capa 1" inkscape:groupmode="layer" id="layer1" transform="matrix(1 0 0 1 -384.57143 -515.798)">
  <g id="g4244" transform="matrix(1 0 0 1 -12.999996 6.999998)">
   <rect width="32" x="397.57144" y="510.79797" rx="0" height="28" style="fill:url(#linearGradient4643-8)" id="rect4641-5"/>
   <path inkscape:connector-curvature="0" style="fill:url(#linearGradient4183);opacity:0.2;fill-rule:evenodd" id="path4167" d="m 398.57142,536.79803 30,-20 1.00001,1 -1e-5,20.99997 -29,3e-5 z"/>
   <rect width="31.999983" x="397.57141" y="537.79797" height="1" style="fill:#99a1a7" id="rect4645-7"/>
   <rect width="32.00001" x="397.57141" y="510.79797" height="4" style="fill:#566069" id="rect4647-8"/>
   <rect width="31.999968" x="397.57141" y="514.79797" height="1" style="fill:#3daee9" id="rect4649-8"/>
   <rect width="30" x="398.57141" y="516.79797" height="20.00003" style="fill:#ffffff" id="rect4653-5"/>
   <rect width="2" x="426.57141" y="511.79797" rx="1" height="2" style="fill:#eff0f1" id="rect4661-1"/>
  </g>
  <g id="g4167">
   <path inkscape:connector-curvature="0" style="fill:#7aabdc" id="rect4160" d="m 4,11 0,6 7,0 0,-5 -3,0 -1,-1 z" transform="matrix(1 0 0 1 384.57143 515.798)"/>
   <path inkscape:connector-curvature="0" style="fill:#7aabdc" id="path4233" d="m 388.57143,534.798 0,6 7,0 0,-5 -3,0 -1,-1 z"/>
   <path inkscape:connector-curvature="0" style="fill:#ff9955" id="rect4235" d="m 398.57143,526.798 0,6 5,0 0,-4 -2,-2 -3,0 z"/>
   <path inkscape:connector-curvature="0" style="fill:#d45500;fill-rule:evenodd" id="path4237" d="m 401.57144,526.79797 2,2 -2,0 z"/>
   <path inkscape:connector-curvature="0" style="fill:#71c837" id="path4242" d="m 398.57143,534.798 0,6 5,0 0,-4 -2,-2 -3,0 z"/>
   <path inkscape:connector-curvature="0" style="fill:#447821;fill-rule:evenodd" id="path4244" d="m 401.57144,534.79797 2,2 -2,0 z"/>
   <rect width="6.00001" x="406.57144" y="526.79797" rx="0.000026" height="5.999974" style="fill:#333333" id="rect4246"/>
   <rect width="4" x="407.57144" y="528.79797" rx="1" height="2" style="fill:#3daee9" id="rect4248"/>
   <rect width="2" x="409.57144" y="528.79797" rx="1" height="2" style="fill:#eff0f1" id="rect4250"/>
  </g>
 </g>
</svg>
