<svg height="32" width="32" xmlns="http://www.w3.org/2000/svg" xmlns:xlink="http://www.w3.org/1999/xlink"><linearGradient id="e" gradientUnits="userSpaceOnUse" x1="9" x2="23" xlink:href="#a" y1="12" y2="26"/><linearGradient id="f" gradientUnits="userSpaceOnUse" x1="16" x2="16" y1="23" y2="9"><stop offset="0" stop-color="#ffd42a"/><stop offset="1" stop-color="#ffdf62"/></linearGradient><linearGradient id="b" gradientUnits="userSpaceOnUse" x1="6" x2="26" xlink:href="#a" y1="6" y2="26"/><linearGradient id="a"><stop offset="0" stop-color="#292c2f"/><stop offset="1" stop-opacity="0"/></linearGradient><linearGradient id="c" gradientUnits="userSpaceOnUse" x1="23" x2="30" xlink:href="#a" y1="13" y2="20"/><linearGradient id="d" gradientUnits="userSpaceOnUse" x1="2" x2="2" y1="30" y2="2"><stop offset="0" stop-color="#a5a5a5"/><stop offset="1" stop-color="#f5f2f5"/></linearGradient><rect fill="#4f575f" height="28" rx="14" width="28" x="2" y="2"/><path d="M18.594 2.248l-2.975.38-4.135 2.388-1.502 2.601s-1.973 1.39-2.271 1.31c-2.517-.029-3.869.665-4.58 1.548-.301.703-.537 1.44-.72 2.197-.006.76.161 1.351.161 1.351 7.06 6.357 14.121 9.097 21.182 13.643a13.9 13.9 0 0 0 1.275-.959l.069-.06c.36-.308.703-.636 1.029-.979.072-.076.14-.155.21-.232a13.928 13.928 0 0 0 1.749-2.375l.055-.09a13.991 13.991 0 0 0 1.824-6.282l.002-.02v-.001L28.143 9.03a13.95 13.95 0 0 0-9.55-6.783z" fill="url(#b)" fill-rule="evenodd" opacity=".2"/><path d="M29.012 10.842l-4.307 6.66 4.12 4.12a13.997 13.997 0 0 0 .187-10.78z" fill="url(#c)" fill-rule="evenodd" opacity=".2"/><path d="M16 2a14 14 0 0 0-13.059 9H3l3-1 1 1 1 1v-2l2-1V8l2-1 2-2v1l1-1-1-1h2v1l2-1-1-1v-.95A14 14 0 0 0 16 2zm10.375 4.625L26 7v1h1.469a14 14 0 0 0-1.094-1.375zm1.316 1.684L27 9l-2 2-1 1-1 3v1l1 1 1 1 2 1 2.791-.688A14 14 0 0 0 30 16a14 14 0 0 0-2.309-7.691zM4 13l-1 1h-.838c-.05.34-.088.681-.113 1.023v.002L4 16l1 1 2 1 1 1-1 1v2l1 2 2 2v2.629A14 14 0 0 0 16 30c.17-.003.34-.009.51-.018L17 29v-1l2-1 1-1v-2l1-1v-1l-1-1-3-1-1-1-1-1h-1l-1-1-3-1-2 1H6v-2H5v-2z" fill="url(#d)"/><path d="M29.979 15.414A14 14 0 0 1 16 29 14 14 0 0 1 2.021 15.586 14 14 0 0 0 2 16a14 14 0 0 0 14 14 14 14 0 0 0 14-14 14 14 0 0 0-.021-.586z" fill="#292c2f" opacity=".3"/><path d="M16 10.205c1.388 1.176 3.393 1.961 5.99 2.357-.14 1.264-.277 2.216-.603 3.136-.688 1.933-1.488 3.108-2.205 3.955-1.115 1.31-2.126 1.84-3.182 2.368-1.056-.528-2.067-1.058-3.18-2.368-.719-.847-1.52-2.022-2.207-3.955-.326-.92-.462-1.872-.603-3.136 2.597-.396 4.602-1.18 5.99-2.357z" fill="#4f575f"/><path d="M12.938 21.062L21.876 30H30V18.907l-7-7L20 12l-4-2-4 2-3-.093L11 18z" fill="url(#e)" opacity=".2"/><path d="M16 11.254c-1.526 1.06-3.24 1.596-4.96 1.96.815 4.622 2.57 6.599 4.96 7.837 2.39-1.238 4.145-3.215 4.96-7.837-1.72-.364-3.434-.9-4.96-1.96zM16 9s-1.75 2.324-7 2.907c0 0 0 8.17 7 11.093 7-2.924 7-11.093 7-11.093C17.75 11.324 16 9 16 9zm0 1.205c1.388 1.177 3.393 1.961 5.99 2.357-.14 1.264-.277 2.215-.603 3.135-.688 1.933-1.488 3.11-2.205 3.955-1.115 1.311-2.126 1.84-3.182 2.368-1.056-.527-2.067-1.057-3.182-2.368-.717-.845-1.517-2.022-2.205-3.955-.326-.92-.463-1.87-.604-3.135 2.598-.396 4.603-1.18 5.991-2.357z" fill="url(#f)"/></svg>