<svg height="32" width="32" xmlns="http://www.w3.org/2000/svg" xmlns:xlink="http://www.w3.org/1999/xlink"><linearGradient id="a"><stop offset="0" stop-color="#292c2f"/><stop offset="1" stop-opacity="0"/></linearGradient><linearGradient id="g" gradientUnits="userSpaceOnUse" x1="16" x2="22" xlink:href="#a" y1="23.071" y2="29.071"/><linearGradient id="f" gradientUnits="userSpaceOnUse" x1="16" x2="22" xlink:href="#a" y1="9" y2="15"/><linearGradient id="e" gradientUnits="userSpaceOnUse" x1="22" x2="29" xlink:href="#b" y1="23" y2="30"/><linearGradient id="b"><stop offset="0"/><stop offset="1" stop-opacity="0"/></linearGradient><linearGradient id="d" gradientUnits="userSpaceOnUse" x1="22" x2="30" xlink:href="#b" y1="9" y2="17"/><linearGradient id="c" gradientTransform="matrix(.875 0 0 1 2 0)" gradientUnits="userSpaceOnUse" x1="32" x2="32" y1="30" y2="2"><stop offset="0" stop-color="#171d25"/><stop offset="1" stop-color="#303236"/></linearGradient><path d="M2 2h28v28H2z" fill="url(#c)" fill-rule="evenodd"/><path d="M3 15l2 2h24l1 1V4l-1-1z" fill="url(#d)" opacity=".2"/><path d="M3 29l1 1h26V18l-1-1z" fill="url(#e)" opacity=".2"/><path d="M3 3h26v12H3z" fill="#397da1" fill-rule="evenodd"/><path d="M3 17h26v12H3z" fill="#4a4a4f" fill-rule="evenodd"/><path d="M17 4l11 11H13l-1-1 1-9z" fill="url(#f)" opacity=".2"/><path d="M12 14V4h5l1 1 1 1 1 1v7zm1-1h6V7h-2V5h-4z" fill="#eff0f1"/><path d="M12.464 26.607l2.464 2.464H29V29l-9.464-9.465L16 18.071l-3 2-2 3z" fill="url(#g)" opacity=".2"/><path d="M16 18.071a5 5 0 0 0-.96.094l-.034.006c-.166.03-.329.069-.49.119a4.93 4.93 0 0 0-.959.422 4.428 4.428 0 0 0-.46.293c-.097.07-.193.14-.284.216a3.98 3.98 0 0 0-.118.104c-.096.085-.192.17-.28.262-.214.22-.403.461-.573.716a5.04 5.04 0 0 0-.057.08 4.986 4.986 0 0 0-.254.45 5.008 5.008 0 0 0-.215.496c-.032.086-.07.17-.097.258-.014.044-.021.09-.034.134a4.529 4.529 0 0 0-.095.42 5 5 0 0 0-.059.414v.004a5 5 0 0 0-.031.512 5 5 0 0 0 .1.994c.03.166.069.329.119.49a4.926 4.926 0 0 0 .422.959 4.428 4.428 0 0 0 .293.46 4.628 4.628 0 0 0 .32.402c.085.096.17.192.262.28.22.214.461.403.717.573.026.02.053.038.08.057.119.076.241.145.367.21l.082.044a5.008 5.008 0 0 0 .496.215c.086.032.17.07.258.097.044.014.09.021.135.033a4.69 4.69 0 0 0 .419.096 5 5 0 0 0 .403.057l.011.002h.004a5 5 0 0 0 .512.031 5 5 0 0 0 .96-.094l.034-.006c.166-.03.329-.069.49-.119a4.97 4.97 0 0 0 .805-.34l.102-.05a5 5 0 0 0 .75-.506c.02-.017.043-.032.064-.05a5 5 0 0 0 .574-.573c.04-.047.083-.09.121-.137a5 5 0 0 0 .422-.625c.039-.066.078-.131.114-.2a5 5 0 0 0 .29-.685c.016-.045.041-.085.055-.13s.021-.09.033-.135l.004-.012.01-.041a5 5 0 0 0 .139-.77l.002-.011v-.004a5 5 0 0 0 .031-.512 5 5 0 0 0-.1-.994c-.03-.166-.07-.33-.119-.49-.012-.038-.034-.072-.047-.11A5 5 0 0 0 19.939 20c-.029-.036-.05-.08-.08-.116-.052-.064-.113-.12-.17-.178a5 5 0 0 0-.841-.737c-.04-.027-.076-.055-.116-.082a5.02 5.02 0 0 0-.09-.056 4.656 4.656 0 0 0-.689-.37c-.045-.018-.094-.032-.14-.05-.11-.043-.219-.087-.329-.121-.044-.014-.09-.021-.134-.033l-.012-.004a4.589 4.589 0 0 0-.811-.149l-.011-.002h-.004a5 5 0 0 0-.512-.031zm0 1a4 4 0 0 1 2.117.613c-.002.005-.006.005-.008.012.018.037.065.04.108.049l.066.045c.025.034.045.07.06.11a.37.37 0 0 1 0 .14c-.028.072-.103.064-.187.062-.023 0-.041.002-.062 0-.141-.009-.28-.054-.344.047.004.077.017.12 0 .188-.013.049-.065.082-.063.125.001.021.042.063.047.093.004.017-.007.048 0 .063.024.044.083-.007.125 0 .04.006.078.065.078.11a.27.27 0 0 1-.03.124c-.04.06-.115.046-.173.078-.047.028-.065.094-.093.141-.03.05-.06.068-.047.14a.337.337 0 0 1-.172.173.398.398 0 0 0-.14.11c-.033.034-.077.05-.094.077-.013.02-.002.066-.016.094-.02.038-.053.07-.078.11-.012.017-.034.038-.047.062-.03.052-.068.094-.063.14.004.045.06.055.063.094.002.022-.017.039-.016.063.001.034.013.05.016.078.006.067-.034.094-.047.14-.006.022.005.046 0 .063-.01.033-.062.054-.062.094-.001.028.044.053.046.093.002.027-.02.053-.015.078.01.05.102.118.14.157.052.051.103.086.125.14.02.047.027.122.063.157.026.025.076.036.11.062.031.025.075.036.109.063.055.043.13.13.218.125.047-.004.09-.023.141-.032.054-.009.117-.036.172-.031.042.005.081.034.125.031a.522.522 0 0 0 .156-.047c.09-.039.229-.112.36-.093.1.014.101.127.171.172.08.007.14-.016.204 0 .048.011.104.102.109.14.005.04-.026.07-.031.094-.013.053-.022.123-.031.156-.007.027-.017.052-.016.078 0 .024.038.079.062.11.03.038.073.067.11.109.066.076.094.18.14.281.012.026-.01.031 0 .063-.02.152-.071.253-.171.422-.048.054-.095.119-.094.187-.004.164.085.248.078.406v.006a4 4 0 0 1-4.397 1.459c0-.005.006-.006.006-.012-.002-.026-.026-.038-.047-.062-.017-.02-.004-.044-.015-.063-.022-.031-.054-.047-.063-.093.066-.013.156.073.25.047.045-.013.12-.1.14-.141.007-.013-.006-.063 0-.078.009-.017.03-.022.032-.031.006-.025-.005-.032 0-.047.016-.047.067-.076.094-.11.02-.025.043-.051.062-.078.022-.028.033-.038.047-.062.014-.083-.051-.146-.031-.219.022-.082.14-.135.219-.172.027-.013.055-.039.078-.047.054-.019.12-.013.172-.031.085-.03.114-.125.156-.203.02-.036.043-.068.047-.094.003-.023-.005-.05 0-.078.005-.027.008-.048.015-.078a.792.792 0 0 0 .016-.156c0-.037-.015-.046-.016-.079-.006-.118.035-.123.079-.187.021-.032.031-.087.046-.11.074-.108.197-.162.188-.328-.004-.054-.023-.17-.063-.187-.022-.01-.075-.003-.109-.016-.107-.04-.185-.162-.297-.172h-.062c-.044 0-.092-.041-.14-.046-.032-.004-.092.009-.11 0-.028-.014-.024-.063-.047-.079-.018-.012-.05-.02-.078-.03a.373.373 0 0 0-.125-.032c-.017-.001-.06.003-.078 0-.029-.005-.052-.03-.078-.047-.033-.02-.05-.034-.063-.062.03-.099-.074-.115-.094-.172-.009-.027.01-.07 0-.094-.011-.034-.04-.05-.078-.078a.427.427 0 0 0-.219-.11c-.041-.005-.09.003-.14 0a.246.246 0 0 1-.156-.078c-.039-.044-.045-.088-.079-.109-.031-.02-.087-.026-.109-.047-.01-.009-.007-.026-.015-.047-.017-.033-.052-.038-.032-.078-.036-.018-.023.023-.062.016-.036-.05-.06-.078-.14-.063-.037.007-.068.062-.11.063-.036 0-.063-.056-.11-.063-.035-.005-.084.037-.109.031-.039-.007-.043-.054-.078-.078-.026-.017-.08-.063-.094-.062-.045 0-.078.096-.14.062-.031-.039.052-.041.015-.078-.027-.027-.04.001-.062.016-.026.017-.05.037-.078.047-.063.023-.108.021-.157.047-.045.023-.051.063-.078.109-.02.038-.062.092-.093.094-.039.002-.075-.048-.11-.063-.104-.045-.163.03-.25.031-.08.001-.19-.127-.187-.203.002-.046.026-.114.03-.172.006-.045.047-.083.048-.125 0-.055-.089-.103-.125-.109-.052-.01-.112 0-.174.006a4 4 0 0 1 .38-1.152c.004 0 .01.005.013.006.029 0 .035-.036.062-.032.027.005.074.061.078.094.004.04-.027.08-.015.125.042.044.126.068.187.094.04-.033.006-.11 0-.156-.001-.021.002-.044 0-.063-.005-.033-.016-.066-.016-.094 0-.13.1-.183.188-.234.037-.022.077-.062.11-.078.046-.023.07-.025.109-.047.069-.04.134-.08.187-.125.025-.06-.002-.13 0-.188.025-.015.036.002.063 0 .041-.009.054-.07.078-.093.013-.014.061-.018.078-.032.042-.032.042-.079.078-.093.013-.005.042-.01.062-.016.028-.007.066-.032.11-.047.028-.01.098-.005.11-.015.013-.014-.005-.073 0-.094.021-.103.173-.106.265-.14.063-.025.132-.077.203-.063-.014.049-.074.034-.063.093.016.083.112-.02.141-.03.056-.024.162-.037.234-.063.064-.023.17-.067.11-.141-.05-.003-.066.044-.11.063-.03.005-.037-.014-.062-.016-.025-.001-.038.02-.063.016-.024-.005-.058-.05-.062-.079-.01-.076.078-.1.11-.156-.022-.069-.114-.004-.173-.031.006-.041.03-.086.079-.094a.314.314 0 0 1 .156.031c.013.012-.005.044.015.063.024.02.063.005.094 0 .011-.052-.071-.029-.062-.063.061-.04.174-.02.25-.03.043-.007.086-.042.125-.063.036-.021.07-.05.109-.016.01.037-.026.06-.047.078-.07.062-.133.131-.187.203.033.033.084.01.14.016.022.003.056.012.078.016.028.005.057-.005.078 0 .039.009.04.062.079.062.061 0 .066-.052.03-.094.012-.043.032-.08.016-.11-.028-.055-.135.01-.14-.062-.004-.045.046-.059.062-.093-.007-.088.072-.093.063-.172-.005-.033-.04-.032-.063-.063-.012-.016-.018-.05-.031-.062-.012-.01-.028-.014-.043-.02a4 4 0 0 1 .746-.074zm2.705 1.06a4 4 0 0 1 .451.487c-.033 0-.065.016-.093.016-.04 0-.122-.02-.172-.016-.03.002-.05.014-.078.016-.08.006-.126-.005-.188 0a.658.658 0 0 0-.172.046c-.02.01-.035.034-.062.047-.013.006-.03.008-.047.016-.026.012-.07.04-.094.047-.035.009-.076-.003-.14 0-.047.002-.125-.007-.126-.063 0-.084.155-.048.235-.062.03-.006.042-.042.078-.063.017-.01.03-.02.047-.031.027-.02.073-.056.078-.078.003-.02-.018-.048-.016-.063.004-.019.038-.038.063-.062.038-.038.062-.085.11-.11.031-.017.094-.021.109-.046.004-.03-.001-.037 0-.063l.017-.017zm-6.69 2.604c.025.035.051.07.079.086.002.03-.01.056 0 .078.023.032.07.042.11.063.045.025.065.089.108.109.016.006.04-.007.063 0 .06.018.073.11.125.094.034-.01.041-.061.047-.094.023-.024.042-.062.078-.062.056-.001.073.07.094.125.011.03.038.06.047.093a.821.821 0 0 1 0 .25c-.015.042-.075.064-.11.11-.016.021-.034.048-.047.062-.021.027-.046.038-.062.063-.01.013-.007.043-.016.062-.027.058-.07.102-.047.172.01.028.047.06.047.094 0 .04-.087.05-.093.094-.005.031.036.097.046.14.007.032.06.057.078.078.032.036.065.08.094.125.058.088.085.195.14.282.03.044.09.077.11.125.01.023-.009.072 0 .093.033.074.192.151.266.188.034.017.062.029.094.047.048.027.147.082.171.125.022.038.036.126.047.187.014.08-.004.148 0 .235.002.047.016.077.016.125v.062c-.001.056.005.115 0 .172v.07a4 4 0 0 1-1.484-3.453z" fill="#eff0f1"/></svg>