<?xml version="1.0" encoding="UTF-8" standalone="no"?>

<!-- Created with Inkscape (http://www.inkscape.org/) -->
<svg width="32" version="1.1" xmlns="http://www.w3.org/2000/svg" height="32" xmlns:xlink="http://www.w3.org/1999/xlink" xmlns:inkscape="http://www.inkscape.org/namespaces/inkscape">
 <defs id="defs5455">
  <linearGradient inkscape:collect="always" id="linearGradient4298">
   <stop style="stop-color:#42a603" id="stop4300"/>
   <stop offset="1" style="stop-color:#78da06" id="stop4302"/>
  </linearGradient>
  <linearGradient inkscape:collect="always" id="linearGradient4290">
   <stop style="stop-color:#7cbaf8" id="stop4292"/>
   <stop offset="1" style="stop-color:#f4fcff" id="stop4294"/>
  </linearGradient>
  <linearGradient inkscape:collect="always" id="linearGradient4303">
   <stop style="stop-color:#197cf1" id="stop4305"/>
   <stop offset="1" style="stop-color:#21c9fb" id="stop4307"/>
  </linearGradient>
  <linearGradient inkscape:collect="always" xlink:href="#linearGradient4303" id="linearGradient4217" y1="543.79797" y2="503.798" x2="0" gradientUnits="userSpaceOnUse" gradientTransform="matrix(0.70000012 0 0 0.70000031 114.57136 165.13922)"/>
  <linearGradient inkscape:collect="always" xlink:href="#linearGradient4290" id="linearGradient4296" y1="22" y2="10.00004" x2="0" gradientUnits="userSpaceOnUse"/>
  <linearGradient inkscape:collect="always" xlink:href="#linearGradient4298" id="linearGradient4304" y1="545.79797" y2="517.79797" x2="0" gradientUnits="userSpaceOnUse"/>
  <linearGradient inkscape:collect="always" id="linearGradient4227">
   <stop style="stop-color:#292c2f" id="stop4229"/>
   <stop offset="1" style="stop-opacity:0" id="stop4231"/>
  </linearGradient>
  <linearGradient inkscape:collect="always" xlink:href="#linearGradient4227" id="linearGradient4385" y1="524.79797" x1="401.57144" y2="531.79797" x2="408.57147" gradientUnits="userSpaceOnUse"/>
  <linearGradient inkscape:collect="always" xlink:href="#linearGradient4227" id="linearGradient4389" y1="524.79797" x1="401.57144" y2="531.79797" gradientUnits="userSpaceOnUse" x2="408.57147" gradientTransform="matrix(1 0 0 1 6 0)"/>
 </defs>
 <metadata id="metadata5458"/>
 <g inkscape:label="Capa 1" inkscape:groupmode="layer" id="layer1" transform="matrix(1 0 0 1 -384.57143 -515.798)">
  <path inkscape:connector-curvature="0" style="fill:url(#linearGradient4304)" id="path4182" d="m 392.57143,517.798 0,28 21.99999,0 0,-21 -6.99999,-7 -15,0 z"/>
  <path inkscape:connector-curvature="0" style="fill:#313437;fill-rule:evenodd" id="path4184" d="m 414.57142,524.798 -6.99999,-7 0,7 z"/>
  <path inkscape:connector-curvature="0" style="fill:url(#linearGradient4217)" id="rect4144" d="m 386.57143,517.798 0,28 21.99999,0 0,-21 -6.99999,-7 -15,0 z"/>
  <path inkscape:connector-curvature="0" style="fill:#313437;fill-rule:evenodd" id="path4164" d="m 408.57142,524.798 -6.99999,-7 0,7 z"/>
  <path style="fill:url(#linearGradient4296)" id="rect4211" d="M 10 10 C 9.446 10 9 10.446 9 11 C 9 11.554 9.446 12 10 12 C 10.554 12 11 11.554 11 11 C 11 10.446 10.554 10 10 10 z M 15 10 L 13 12 L 15 14 L 13 16 L 15 18 L 17 16 L 19 14 L 17 12 L 15 10 z M 8 16 C 7.446 16 7 16.446 7 17 C 7 17.554 7.446 18 8 18 C 8.554 18 9 17.554 9 17 C 9 16.446 8.554 16 8 16 z M 12 20 C 11.446 20 11 20.446 11 21 C 11 21.554 11.446 22 12 22 C 12.554 22 13 21.554 13 21 C 13 20.446 12.554 20 12 20 z " transform="matrix(1 0 0 1 384.57143 515.798)"/>
  <path inkscape:connector-curvature="0" style="fill:url(#linearGradient4385);opacity:0.2;fill-rule:evenodd" id="path4306" d="m 401.57143,524.798 6.99999,7 0,-7 z"/>
  <path inkscape:connector-curvature="0" style="fill:url(#linearGradient4389);opacity:0.2;fill-rule:evenodd" id="path4387" d="m 407.57143,524.798 6.99999,7 0,-7 z"/>
 </g>
</svg>
