<svg version="1.1" viewBox="0 0 32 32" xmlns="http://www.w3.org/2000/svg" xmlns:xlink="http://www.w3.org/1999/xlink">
    <linearGradient id="l" x1="22" x2="22" y1="30" y2="8" gradientTransform="matrix(0,-1,-1,0,44,44)" gradientUnits="userSpaceOnUse" xlink:href="#k"/>
    <linearGradient id="m" x1="18" x2="30" y1="18" y2="30" gradientUnits="userSpaceOnUse">
        <stop stop-color="#292c2f" offset="0"/>
        <stop stop-opacity="0" offset="1"/>
    </linearGradient>
    <linearGradient id="p" x1="25" x2="25" y1="8" y2="2" gradientUnits="userSpaceOnUse" xlink:href="#j"/>
    <linearGradient id="j" x2="0" y1="30" y2="8" gradientUnits="userSpaceOnUse">
        <stop stop-color="#cea476" offset="0"/>
        <stop stop-color="#dab58b" offset="1"/>
    </linearGradient>
    <linearGradient id="o" x1="411.427" x2="411.427" y1="543.8" y2="512.8" gradientTransform="matrix(.35 0 0 .70968 -120 -355.923)" gradientUnits="userSpaceOnUse">
        <stop stop-color="#73ba25" offset="0"/>
        <stop stop-color="#81c13b" stop-opacity=".85" offset="1"/>
    </linearGradient>
    <linearGradient id="i" x1="408.57" x2="408.57" y1="512.798" y2="504.698" gradientTransform="matrix(.66667 0 0 -.37037 -256.38 197.926)" gradientUnits="userSpaceOnUse">
        <stop stop-color="#ebc69a" offset="0"/>
        <stop stop-color="#73ba25" stop-opacity="0" offset="1"/>
    </linearGradient>
    <linearGradient id="n" x1="411.57" x2="411.57" y1="512.801" y2="503.801" gradientTransform="translate(-256.38 -333.867) scale(.66667)" gradientUnits="userSpaceOnUse" xlink:href="#i">
        <stop stop-color="#ebc69a" offset="0"/>
        <stop stop-color="#f4e0c8" stop-opacity="0" offset="1"/>
    </linearGradient>
    <linearGradient id="k" x2="0" y1="30" y2="8" gradientUnits="userSpaceOnUse">
        <stop stop-color="#cfd2d5" offset="0"/>
        <stop stop-color="#eff0f1" offset="1"/>
    </linearGradient>
    <path d="M6 2L2 8h28l-4-6H7z" fill="url(#p)" fill-rule="evenodd"/>
    <path d="M2 8h28v22H2z" fill="url(#j)"/>
    <path d="M2 8h12v22H2z" fill="url(#k)"/>
    <path d="M14 8h16v22H14z" fill="url(#o)"/>
    <path d="M3 24v5h5v-5zm1 1h1v1h1v-1h1v2H6v1H5v-1H4z" fill="#5c4c3e"/>
    <g stroke-opacity=".55" stroke-width="1.867">
        <path d="M14 2v9l1-1 1 1 1-1s1 1 1 .972V2z" fill="#f4e0c8"/>
        <path d="m14 2h4v6h-4z" fill="url(#n)"/>
        <path d="M14 8v3l1-1 1 1 1-1s1 1 1 .973V8z" fill="url(#i)"/>
    </g>
    <path d="M18.969 16.844L30 27.875v-6.36l-3.757-3.758L22 16zm-2.125 2.125L27.875 30h-6.36l-3.758-3.757L16 22z" fill="url(#m)" opacity=".2"/>
    <path d="m28 22a5.96 5.96 0 0 1-0.844 3.031l-2.687-2.687 0.718-0.719 1.625 1.625c0.052-0.195 0.098-0.39 0.125-0.594 8e-3 -0.052 0.026-0.103 0.032-0.156 0.017-0.168 0.031-0.327 0.031-0.5a5 5 0 0 0-5-5c-0.243 0-0.486 0.028-0.719 0.063-0.136 0.02-0.274 0.031-0.406 0.062a4.737 4.737 0 0 0-0.813 0.281c-0.03 0.014-0.063 0.018-0.093 0.032-0.092 0.04-0.164 0.108-0.25 0.156-8e-3 4e-3 -0.023-5e-3 -0.032 0l-0.718-0.75a5.96 5.96 0 0 1 3.031-0.844 6 6 0 0 1 6 6zm-2.969 5.156a5.96 5.96 0 0 1-3.031 0.844 6 6 0 0 1-6-6 5.96 5.96 0 0 1 0.844-3.031l0.75 0.75 1.906 1.937-0.688 0.688-1.625-1.594c-0.05 0.195-0.097 0.39-0.125 0.594-7e-3 0.052-0.025 0.103-0.03 0.156-0.018 0.168-0.032 0.327-0.032 0.5s0.014 0.332 0.031 0.5 0.03 0.337 0.063 0.5a5.017 5.017 0 0 0 4.906 4c0.248 0 0.48-0.028 0.719-0.063 0.136-0.02 0.274-0.031 0.406-0.062 0.287-0.067 0.548-0.167 0.813-0.281 0.03-0.013 0.063-0.018 0.093-0.032 0.09-0.04 0.165-0.108 0.25-0.156h0.032z" fill="url(#l)"/>
    <path d="m2 29v1h12v-1z" fill="#adb1b3"/>
    <path d="M14 29h16v1H14z" fill="#649e26"/>
</svg>
