<svg height="32" width="32" xmlns="http://www.w3.org/2000/svg" xmlns:xlink="http://www.w3.org/1999/xlink"><linearGradient id="i" gradientUnits="userSpaceOnUse" x1="22" x2="22" xlink:href="#a" y1="30" y2="8"/><linearGradient id="b" gradientTransform="matrix(.66667 0 0 -.37037 -256.38 197.926)" gradientUnits="userSpaceOnUse" x1="408.57" x2="408.57" y1="512.798" y2="504.698"><stop offset="0" stop-color="#ebc69a"/><stop offset="1" stop-color="#173f4f" stop-opacity="0"/></linearGradient><linearGradient id="f" gradientUnits="userSpaceOnUse" x1="32" x2="32" y1="30" y2="8"><stop offset="0" stop-color="#173f4f"/><stop offset="1" stop-color="#2f5361"/></linearGradient><linearGradient id="h" gradientUnits="userSpaceOnUse" x1="18" x2="30" y1="18" y2="30"><stop offset="0" stop-color="#292c2f"/><stop offset="1" stop-opacity="0"/></linearGradient><linearGradient id="c" gradientUnits="userSpaceOnUse" x2="0" y1="30" y2="8"><stop offset="0" stop-color="#cea476"/><stop offset="1" stop-color="#dab58b"/></linearGradient><linearGradient id="a" gradientUnits="userSpaceOnUse" x2="0" y1="30" y2="8"><stop offset="0" stop-color="#cfd2d5"/><stop offset="1" stop-color="#eff0f1"/></linearGradient><linearGradient id="g" gradientUnits="userSpaceOnUse" x1="18" x2="18" xlink:href="#b" y1="8" y2="2"><stop offset="0" stop-color="#ebc69a"/><stop offset="1" stop-color="#f4e0c8" stop-opacity="0"/></linearGradient><linearGradient id="e" gradientUnits="userSpaceOnUse" x2="0" xlink:href="#c" y1="30" y2="8"/><linearGradient id="d" gradientUnits="userSpaceOnUse" x2="0" xlink:href="#c" y1="8" y2="2"/><path d="M6 2L2 8h28l-4-6H7z" fill="url(#d)" fill-rule="evenodd"/><path d="M2 8h28v22H2z" fill="url(#e)"/><path d="M2 8h12v22H2z" fill="url(#a)"/><path d="M14 8h16v22H14z" fill="url(#f)"/><path d="M3 24v5h5v-5zm1 1h1v1h1v-1h1v2H6v1H5v-1H4z" fill="#5c4c3e"/><g stroke-opacity=".55" stroke-width="1.867"><path d="M14 2v9l1-1 1 1 1-1s1 1 1 .972V2z" fill="#f4e0c8"/><path d="M14 2h4v6h-4z" fill="url(#g)"/><path d="M14 8v3l1-1 1 1 1-1s1 1 1 .973V8z" fill="url(#b)"/></g><path d="M23 16l2 2 1.95.465 3.05 3.05V30h-8.484l-3.051-3.05L18 25l-2-2 3-4z" fill="url(#h)" opacity=".2"/><path d="M21 16v1.102a5 5 0 0 0-1.754.73l-.781-.781-1.414 1.414.781.781A5 5 0 0 0 17.105 21H16v2h1.102a5 5 0 0 0 .73 1.754l-.781.781 1.414 1.414.781-.781a5 5 0 0 0 1.754.727V28h2v-1.102a5 5 0 0 0 1.754-.73l.781.781 1.414-1.414-.781-.781A5 5 0 0 0 26.895 23H28v-2h-1.102a5 5 0 0 0-.73-1.754l.781-.781-1.414-1.414-.781.781A5 5 0 0 0 23 17.105V16zm1 2a4 4 0 0 1 2.87 1.213A4 4 0 0 1 26 22a4 4 0 0 1-1.213 2.87A4 4 0 0 1 22 26a4 4 0 0 1-2.87-1.213A4 4 0 0 1 18 22a4 4 0 0 1 1.213-2.87A4 4 0 0 1 22 18zm-1 2v4l3-2z" fill="url(#i)"/><path d="M2 29h28v1H2z" fill="#232629" opacity=".2"/></svg>