<svg viewBox="0 0 8 8" xmlns="http://www.w3.org/2000/svg">
    <style
        type="text/css"
        id="current-color-scheme">
        .ColorScheme-Highlight {
            color:#3daee9;
        }
    </style>
    <rect style="fill:currentColor;fill-opacity:1;stroke:none" class="ColorScheme-Highlight" height="8" rx="1" width="8"/>
    <path d="M6 1a1 1 0 1 0 0 2 1 1 0 0 0 0-2zM4 4.5a.5.5 0 1 0 0 1 .5.5 0 0 0 0-1zM2 3a1 1 0 1 0 0 2 1 1 0 0 0 0-2zM6 5a1 1 0 1 0 0 2 1 1 0 0 0 0-2zM4 2.5a.5.5 0 1 0 0 1 .5.5 0 0 0 0-1z" fill="#fff"/>
</svg>
