#define bullet_width 9
#define bullet_height 9
static unsigned char bullet_bits[] = {
   0x00, 0x00, 0x00, 0x00, 0x10, 0x00, 0x20, 0x00, 0x40, 0x00, 0x20, 0x00,
   0x10, 0x00, 0x00, 0x00, 0x00, 0x00 };
