<svg xmlns="http://www.w3.org/2000/svg" viewBox="0 0 16 16">
  <defs id="defs3051">
    <style type="text/css" id="current-color-scheme">
      .ColorScheme-Text {
        color:#eff0f1;
      }
      .ColorScheme-NeutralText {
        color:#f67400;
      }
      </style>
  </defs>
 <path style="fill:currentColor;fill-opacity:1;stroke:none" 
     d="M 8 2 C 4.6862915 2 2 4.6862915 2 8 C 2 11.313708 4.6862915 14 8 14 C 9.5391413 14 10.937886 13.415655 12 12.462891 L 12 10.972656 C 11.088568 12.196311 9.6430793 13 8 13 C 5.2385763 13 3 10.761424 3 8 C 3 5.2385763 5.2385763 3 8 3 C 10.761424 3 13 5.2385763 13 8 L 14 8 C 14 4.6862915 11.313708 2 8 2 z M 7 4 L 7 8 L 7 9 L 12 9 L 12 8 L 8 8 L 8 4 L 7 4 z "
     class="ColorScheme-Text"
     />
  <path 
     d="m 13,9 0,3 1,0 0,-3 z m 0,4 0,1 1,0 0,-1 z"
     style="fill:currentColor;fill-opacity:1;stroke:none" 
     class="ColorScheme-NeutralText"
   />
</svg>
