<svg xmlns="http://www.w3.org/2000/svg" viewBox="0 0 22 22">
  <defs id="defs3051">
    <style type="text/css" id="current-color-scheme">
      .ColorScheme-Text {
        color:#232629;
      }
      </style>
  </defs>
    <path
       style="fill:currentColor;fill-opacity:1;stroke:none" 
       d="M 3 3 L 3 5 A 14 14 0 0 1 17 19 L 19 19 A 16 16 0 0 0 3 3 z M 3 8 L 3 10 A 9 9 0 0 1 12 19 L 14 19 A 11 11 0 0 0 3 8 z M 5.5 14 A 2.5 2.5 0 0 0 3 16.5 A 2.5 2.5 0 0 0 5.5 19 A 2.5 2.5 0 0 0 8 16.5 A 2.5 2.5 0 0 0 5.5 14 z "
       class="ColorScheme-Text"
        />
</svg>
