<?xml version="1.0" encoding="UTF-8"?>
<svg xmlns="http://www.w3.org/2000/svg" xmlns:xlink="http://www.w3.org/1999/xlink" width="22px" height="22px" viewBox="0 0 22 22" version="1.1">
<defs>
<linearGradient id="linear0" gradientUnits="userSpaceOnUse" x1="210.1978" y1="194.856537" x2="210.1978" y2="197.101593" gradientTransform="matrix(0.661782,0.661782,-0.661782,0.661782,-1.500303,-254.494796)">
<stop offset="0" style="stop-color:rgb(60.784316%,61.960787%,63.529414%);stop-opacity:1;"/>
<stop offset="1" style="stop-color:rgb(10.196079%,10.588235%,11.764706%);stop-opacity:1;"/>
</linearGradient>
<linearGradient id="linear1" gradientUnits="userSpaceOnUse" x1="11.641666" y1="11.641666" x2="1.058333" y2="1.058333" gradientTransform="matrix(0.79414,0,0,0.79414,0,11.919306)">
<stop offset="0" style="stop-color:rgb(30.980393%,32.549021%,33.725491%);stop-opacity:1;"/>
<stop offset="1" style="stop-color:rgb(60.784316%,61.960787%,63.529414%);stop-opacity:0.996078;"/>
</linearGradient>
<radialGradient id="radial0" gradientUnits="userSpaceOnUse" cx="24" cy="24" fx="24" fy="24" r="17" gradientTransform="matrix(0.210116,0,0,0.210116,0,11.919306)">
<stop offset="0" style="stop-color:rgb(0%,22.745098%,40.784314%);stop-opacity:0.00452489;"/>
<stop offset="0.882353" style="stop-color:rgb(0%,11.372549%,20.392157%);stop-opacity:0.0588235;"/>
<stop offset="1" style="stop-color:rgb(0%,0%,0%);stop-opacity:0.135747;"/>
</radialGradient>
<linearGradient id="linear2" gradientUnits="userSpaceOnUse" x1="18.999901" y1="19" x2="31" y2="31" gradientTransform="matrix(0.210116,0,0,0.210116,0.840465,12.75977)">
<stop offset="0" style="stop-color:rgb(0%,0%,0%);stop-opacity:0.366516;"/>
<stop offset="1" style="stop-color:rgb(0%,0%,0%);stop-opacity:0;"/>
</linearGradient>
<radialGradient id="radial1" gradientUnits="userSpaceOnUse" cx="0" cy="0" fx="0" fy="0" r="1" gradientTransform="matrix(3.571974,0,0,3.571974,5.042787,16.962051)">
<stop offset="0" style="stop-color:rgb(23.921569%,83.137256%,14.509805%);stop-opacity:0.954751;"/>
<stop offset="1" style="stop-color:rgb(34.901962%,94.117647%,48.627451%);stop-opacity:1;"/>
</radialGradient>
</defs>
<g id="surface115">
<path style=" stroke:none;fill-rule:nonzero;fill:url(#linear0);" d="M 8.054688 12.761719 L 9.457031 14.160156 L 8.40625 15.210938 L 7.003906 13.808594 Z M 8.054688 12.761719 "/>
<path style=" stroke:none;fill-rule:nonzero;fill:rgb(53.333336%,54.901963%,56.078434%);fill-opacity:0.996078;" d="M 2.75 11.917969 L 6.953125 11.917969 L 6.953125 12.835938 L 2.75 12.835938 Z M 2.75 11.917969 "/>
<path style=" stroke:none;fill-rule:nonzero;fill:url(#linear1);" d="M 5.042969 21.164062 C 7.363281 21.164062 9.246094 19.28125 9.246094 16.960938 C 9.246094 14.640625 7.363281 12.761719 5.042969 12.761719 C 2.722656 12.761719 0.839844 14.640625 0.839844 16.960938 C 0.839844 19.28125 2.722656 21.164062 5.042969 21.164062 Z M 5.042969 21.164062 "/>
<path style=" stroke:none;fill-rule:nonzero;fill:rgb(93.725491%,97.254902%,100%);fill-opacity:1;" d="M 5.042969 20.535156 C 7.015625 20.535156 8.613281 18.933594 8.613281 16.960938 C 8.613281 14.988281 7.015625 13.390625 5.042969 13.390625 C 3.070312 13.390625 1.472656 14.988281 1.472656 16.960938 C 1.472656 18.933594 3.070312 20.535156 5.042969 20.535156 Z M 5.042969 20.535156 "/>
<path style=" stroke:none;fill-rule:nonzero;fill:url(#radial0);" d="M 5.042969 13.390625 C 3.070312 13.390625 1.472656 14.988281 1.472656 16.960938 C 1.472656 18.933594 3.070312 20.535156 5.042969 20.535156 C 7.015625 20.535156 8.613281 18.933594 8.613281 16.960938 C 8.613281 14.988281 7.015625 13.390625 5.042969 13.390625 Z M 5.042969 13.808594 C 6.785156 13.808594 8.195312 15.222656 8.195312 16.960938 C 8.195312 18.703125 6.785156 20.113281 5.042969 20.113281 C 3.300781 20.113281 1.890625 18.703125 1.890625 16.960938 C 1.890625 15.222656 3.300781 13.808594 5.042969 13.808594 Z M 5.042969 13.808594 "/>
<path style=" stroke:none;fill-rule:nonzero;fill:rgb(0%,0%,0%);fill-opacity:0.38914;" d="M 9.242188 16.839844 C 9.21875 17.9375 8.765625 18.984375 7.980469 19.753906 C 7.195312 20.523438 6.140625 20.953125 5.042969 20.953125 C 3.949219 20.953125 2.898438 20.527344 2.117188 19.765625 C 1.332031 19.003906 0.875 17.964844 0.84375 16.875 C 0.84375 16.902344 0.839844 16.933594 0.839844 16.960938 C 0.839844 17.515625 0.949219 18.058594 1.160156 18.570312 C 1.371094 19.082031 1.679688 19.542969 2.070312 19.933594 C 2.460938 20.324219 2.925781 20.632812 3.433594 20.84375 C 3.945312 21.054688 4.492188 21.164062 5.042969 21.164062 C 5.59375 21.164062 6.140625 21.054688 6.652344 20.84375 C 7.160156 20.632812 7.625 20.324219 8.015625 19.933594 C 8.40625 19.542969 8.714844 19.082031 8.925781 18.570312 C 9.136719 18.058594 9.246094 17.515625 9.246094 16.960938 C 9.246094 16.921875 9.242188 16.878906 9.242188 16.839844 Z M 9.242188 16.839844 "/>
<path style=" stroke:none;fill-rule:nonzero;fill:url(#linear2);" d="M 8.613281 18.433594 L 8.613281 16.753906 L 4.777344 17.222656 L 4.71875 17.285156 L 7.5625 20.078125 Z M 8.613281 18.433594 "/>
<path style=" stroke:none;fill-rule:nonzero;fill:url(#radial1);" d="M 5.042969 13.390625 C 5.511719 13.390625 5.976562 13.484375 6.410156 13.660156 C 6.84375 13.839844 7.238281 14.105469 7.570312 14.4375 C 7.898438 14.769531 8.164062 15.160156 8.34375 15.59375 C 8.523438 16.027344 8.613281 16.492188 8.613281 16.960938 L 5.042969 16.960938 Z M 5.042969 13.390625 "/>
<path style="fill-rule:nonzero;fill:rgb(13.725491%,14.901961%,16.078432%);fill-opacity:1;stroke-width:0.515187;stroke-linecap:butt;stroke-linejoin:miter;stroke:rgb(0%,13.333334%,24.313726%);stroke-opacity:1;stroke-miterlimit:4;" d="M 2.912776 9.788912 L 4.968853 9.791166 " transform="matrix(1.732668,0,0,1.732668,0,0.000000000000001776)"/>
<path style=" stroke:none;fill-rule:nonzero;fill:rgb(40.784314%,41.960785%,43.529412%);fill-opacity:0.996078;" d="M 5.042969 17.421875 C 5.296875 17.421875 5.5 17.214844 5.5 16.960938 C 5.5 16.707031 5.296875 16.503906 5.042969 16.503906 C 4.789062 16.503906 4.585938 16.707031 4.585938 16.960938 C 4.585938 17.089844 4.636719 17.203125 4.71875 17.285156 C 4.800781 17.371094 4.917969 17.421875 5.042969 17.421875 Z M 5.042969 17.421875 "/>
<path style=" stroke:none;fill-rule:nonzero;fill:rgb(60.784316%,61.960787%,63.529414%);fill-opacity:1;" d="M 5.042969 17.191406 C 5.167969 17.191406 5.273438 17.089844 5.273438 16.960938 C 5.273438 16.835938 5.167969 16.734375 5.042969 16.734375 C 4.917969 16.734375 4.8125 16.835938 4.8125 16.960938 C 4.8125 17.089844 4.917969 17.191406 5.042969 17.191406 Z M 5.042969 17.191406 "/>
</g>
</svg>
