<svg xmlns="http://www.w3.org/2000/svg" viewBox="0 0 22 22">
    <defs id="defs1">
        <style type="text/css" id="current-color-scheme">
            .ColorScheme-Text {
                color:#232629;
            }
        </style>
    </defs>
    <path style="fill:currentColor;fill-opacity:1;stroke:none" class="ColorScheme-Text" d="M3 3v16h16V5h-6.992l-2-2-.008.008V3H3zm1 1h5.586l1.004 1.004L6.57 9H4V4zm10 5a3 3 0 0 1 3 3v1h1v5h-8v-5h1v-1a3 3 0 0 1 3-3zm0 1a2 2 0 0 0-2 2v1h4v-1a2 2 0 0 0-2-2z"/>
</svg>
