<svg xmlns="http://www.w3.org/2000/svg" viewBox="0 0 22 22">
  <defs id="defs3051">
    <style type="text/css" id="current-color-scheme">
      .ColorScheme-Text {
        color:#232629;
      }
      </style>
  </defs>
      <path
         style="fill:currentColor;fill-opacity:1;stroke:none" 
         d="M 11 3 C 9.1218971 3 7.4030555 3.6450374 6.0410156 4.7207031 C 6.0359056 4.7247331 6.0304856 4.7283729 6.0253906 4.7324219 C 5.9723436 4.7745259 5.9191206 4.8159599 5.8671875 4.859375 L 5.0078125 4 L 3 4 L 3 6.0078125 L 4.0429688 7.0507812 C 3.3827678 8.2153737 3 9.5604392 3 11 C 3 12.439561 3.3827678 13.784626 4.0429688 14.949219 L 3 15.992188 L 3 18 L 5.0078125 18 L 5.8671875 17.140625 C 5.9191205 17.184035 5.9723437 17.225475 6.0253906 17.267578 C 6.0304906 17.271578 6.0359086 17.275277 6.0410156 17.279297 C 7.4030555 18.354962 9.1218971 19 11 19 C 12.958443 19 14.745099 18.300716 16.132812 17.140625 L 16.992188 18 L 19 18 L 19 15.992188 L 17.957031 14.949219 C 18.617232 13.784626 19 12.439561 19 11 C 19 9.5604392 18.617232 8.2153736 17.957031 7.0507812 L 19 6.0078125 L 19 4 L 16.992188 4 L 16.132812 4.859375 C 16.080883 4.81596 16.027656 4.774526 15.974609 4.7324219 C 15.969509 4.7283819 15.964094 4.7247321 15.958984 4.7207031 C 14.596949 3.6450376 12.878103 3 11 3 z M 11 4 C 12.240475 4 13.401828 4.3213657 14.410156 4.8828125 L 12.117188 7.1757812 C 11.760744 7.0722749 11.390711 7 11 7 C 10.609289 7 10.239255 7.072275 9.8828125 7.1757812 L 8.7070312 6 L 7.5898438 4.8828125 C 8.5981723 4.3213657 9.7595253 4 11 4 z M 4.3007812 4.7070312 L 5.1445312 5.5507812 C 5.0017761 5.7041723 4.8628506 5.861065 4.7324219 6.0253906 C 4.7283819 6.0304906 4.7247321 6.0359086 4.7207031 6.0410156 C 4.6803351 6.0921306 4.6426481 6.1451444 4.6035156 6.1972656 L 3.7070312 5.3007812 L 4.3007812 4.7070312 z M 17.699219 4.7070312 L 18.292969 5.3007812 L 17.396484 6.1972656 C 17.227386 5.9720391 17.046973 5.7565534 16.855469 5.5507812 L 17.699219 4.7070312 z M 4.8828125 7.5898438 L 7.1757812 9.8828125 C 7.0722749 10.239255 7 10.609289 7 11 C 7 11.390711 7.0722751 11.760745 7.1757812 12.117188 L 6 13.292969 L 4.8828125 14.410156 C 4.3213657 13.401828 4 12.240475 4 11 C 4 9.7595253 4.3213657 8.5981723 4.8828125 7.5898438 z M 17.117188 7.5898438 C 17.678634 8.5981723 18 9.7595253 18 11 C 18 12.240475 17.678634 13.401828 17.117188 14.410156 L 16 13.292969 L 14.824219 12.117188 C 14.927725 11.760744 15 11.390711 15 11 C 15 10.609289 14.927725 10.239255 14.824219 9.8828125 L 17.117188 7.5898438 z M 11 8 C 11.09117 8 11.176574 8.0194588 11.265625 8.0273438 C 11.660368 8.0622947 12.029961 8.169781 12.365234 8.3417969 C 12.92225 8.6275797 13.37242 9.0777503 13.658203 9.6347656 C 13.830219 9.9700393 13.937705 10.339632 13.972656 10.734375 C 13.980541 10.823426 14 10.908831 14 11 C 14 11.09117 13.980536 11.176574 13.972656 11.265625 C 13.937706 11.660368 13.830219 12.029961 13.658203 12.365234 C 13.37242 12.92225 12.92225 13.37242 12.365234 13.658203 C 12.029961 13.830219 11.660368 13.937705 11.265625 13.972656 C 11.17657 13.980541 11.091169 14 11 14 C 10.908831 14 10.823426 13.980541 10.734375 13.972656 C 10.339632 13.937705 9.9700393 13.830219 9.6347656 13.658203 C 9.0777503 13.37242 8.6275797 12.92225 8.3417969 12.365234 C 8.169781 12.029961 8.0622952 11.660368 8.0273438 11.265625 C 8.0194588 11.176574 8 11.091169 8 11 C 8 10.908831 8.0194588 10.823426 8.0273438 10.734375 C 8.062295 10.339632 8.169781 9.9700393 8.3417969 9.6347656 C 8.6275797 9.0777503 9.0777503 8.6275797 9.6347656 8.3417969 C 9.9700393 8.169781 10.339632 8.0622952 10.734375 8.0273438 C 10.823426 8.0194588 10.908831 8 11 8 z M 9.8828125 14.824219 C 10.239255 14.927725 10.609289 15 11 15 C 11.390711 15 11.760745 14.92773 12.117188 14.824219 L 14.410156 17.117188 C 13.401828 17.678634 12.240475 18 11 18 C 9.7595253 18 8.5981723 17.678634 7.5898438 17.117188 L 8.7070312 16 L 9.8828125 14.824219 z M 4.6035156 15.802734 C 4.7726139 16.027961 4.9530271 16.243447 5.1445312 16.449219 L 4.3007812 17.292969 L 3.7070312 16.699219 L 4.6035156 15.802734 z M 17.396484 15.802734 L 18.292969 16.699219 L 17.699219 17.292969 L 16.855469 16.449219 C 17.046973 16.243447 17.227386 16.027961 17.396484 15.802734 z "
     class="ColorScheme-Text"
     />
</svg>
