<svg xmlns="http://www.w3.org/2000/svg" viewBox="0 0 22 22">
  <defs id="defs3051">
    <style type="text/css" id="current-color-scheme">
      .ColorScheme-Text {
        color:#232629;
      }
      </style>
  </defs>
      <path
         style="fill:currentColor;fill-opacity:1;stroke:none" 
         d="M 0 6 L 3.5 14.75 L 4 16 L 5 16 L 5.5 14.75 L 9 6 L 8 6 L 7 6 L 4.5 12.25 L 2 6 L 1 6 L 0 6 z "
     class="ColorScheme-Text"
     />
      <path
         style="fill:currentColor;fill-opacity:1;stroke:none" 
         d="M 9 6 L 5 16 L 6 16 L 8 16 L 10.5 9.75 L 13 16 L 14 16 L 15 16 L 17.5 9.75 L 20 16 L 21 16 L 22 16 L 18 6 L 17 6 L 16 6 L 13.5 12.25 L 11 6 L 10 6 L 9 6 z M 9.5 7.25 L 10 8.5 L 7.4003906 15 L 6.4003906 15 L 9.5 7.25 z M 16.5 7.25 L 17 8.5 L 14.5 14.75 L 14 13.5 L 16.5 7.25 z "
     class="ColorScheme-Text"
     />
</svg>
