<?xml version="1.0" encoding="UTF-8" standalone="no"?>

<!-- Created with Inkscape (http://www.inkscape.org/) -->
<svg width="64" version="1.1" xmlns="http://www.w3.org/2000/svg" height="64" xmlns:xlink="http://www.w3.org/1999/xlink" xmlns:inkscape="http://www.inkscape.org/namespaces/inkscape">
 <defs id="defs3811">
  <linearGradient inkscape:collect="always" xlink:href="#linearGradient4143" id="linearGradient4416" y1="43.999989" y2="6.999989" x2="0" gradientUnits="userSpaceOnUse" gradientTransform="matrix(-1.4054053 0 0 1.4054053 804.69502 154.09579)"/>
  <linearGradient inkscape:collect="always" id="linearGradient4143">
   <stop style="stop-color:#197cf1" id="stop4145"/>
   <stop offset="1" style="stop-color:#20bcfa" id="stop4147"/>
  </linearGradient>
  <linearGradient inkscape:collect="always" id="linearGradient4290">
   <stop style="stop-color:#7cbaf8" id="stop4292"/>
   <stop offset="1" style="stop-color:#f4fcff" id="stop4294"/>
  </linearGradient>
  <linearGradient inkscape:collect="always" id="linearGradient4144" xlink:href="#linearGradient4290" y1="29.999973" y2="2" gradientUnits="userSpaceOnUse" x2="0" gradientTransform="matrix(2 0 0 2 735.85719 152.93361)"/>
  <linearGradient inkscape:collect="always" id="linearGradient4227">
   <stop style="stop-color:#292c2f" id="stop4229"/>
   <stop offset="1" style="stop-opacity:0" id="stop4231"/>
  </linearGradient>
  <linearGradient inkscape:collect="always" id="linearGradient4191" xlink:href="#linearGradient4227" y1="9" y2="23" x1="9.00001" gradientUnits="userSpaceOnUse" x2="23.00004" gradientTransform="matrix(2 0 0 2 -0.99999 -5)"/>
 </defs>
 <metadata id="metadata3814"/>
 <g inkscape:label="Layer 1" inkscape:groupmode="layer" id="layer1" transform="matrix(1 0 0 1 -736.85718 -157.93361)">
  <path inkscape:connector-curvature="0" style="fill:url(#linearGradient4416);fill-rule:evenodd" id="path4445" d="m 794.85718,163.93361 0,37.94594 -25.29727,0 -14.05412,14.05406 0,-14.05406 -12.64861,0 0,-37.94594 z"/>
  <path style="fill:url(#linearGradient4191);opacity:0.2;fill-rule:evenodd" id="path4184" d="M 33 13 L 29 17 L 33 21 L 29 37 L 35.945312 43.945312 L 58 43.945312 L 58 38 L 33 13 z " transform="matrix(1 0 0 1 736.85718 157.93361)"/>
  <path inkscape:connector-curvature="0" style="fill:url(#linearGradient4144)" id="rect4133" d="m 765.85719,170.93361 0,4 4,0 0,-4 z m 0,8 0,16 4,0 0,-16 z"/>
  <path style="fill:#0c69cf;fill-rule:evenodd" id="path4256" d="M 6 42.945312 L 6 43.945312 L 18.648438 43.945312 L 18.648438 42.945312 L 6 42.945312 z M 32.703125 42.945312 L 18.648438 57 L 18.648438 58 L 32.703125 43.945312 L 58 43.945312 L 58 42.945312 L 32.703125 42.945312 z " transform="matrix(1 0 0 1 736.85718 157.93361)"/>
 </g>
</svg>
