<svg height="64" width="64" xmlns="http://www.w3.org/2000/svg" xmlns:xlink="http://www.w3.org/1999/xlink"><linearGradient id="a" gradientTransform="matrix(-1.4054053 0 0 1.4054053 804.69502 154.09579)" gradientUnits="userSpaceOnUse" x2="0" y1="43.999989" y2="6.999989"><stop offset="0" stop-color="#42a603"/><stop offset="1" stop-color="#78da06"/></linearGradient><linearGradient id="b" gradientUnits="userSpaceOnUse" x1="753.85721" x2="781.85727" y1="171.93361" y2="199.93361"><stop offset="0" stop-color="#292c2f"/><stop offset="1" stop-opacity="0"/></linearGradient><linearGradient id="c" gradientTransform="translate(0 -5)" gradientUnits="userSpaceOnUse" x2="0" y1="199.93361" y2="175.93361"><stop offset="0" stop-color="#bcfd93"/><stop offset="1" stop-color="#fafff5"/></linearGradient><g fill-rule="evenodd" transform="translate(-736.85718 -157.93361)"><path d="m794.85718 163.93361v37.94594h-25.29727l-14.05412 14.05406v-14.05406h-12.64861v-37.94594z" fill="url(#a)"/><path d="m6 42.945312v1h12.648438v-1zm26.703125 0-14.054687 14.054688v1l14.054687-14.054688h25.296875v-1z" fill="#368902" transform="translate(736.85718 157.93361)"/><path d="m779.85718 170.93361-8 14-7 8-7-3 8 8 12 13h17v-27z" fill="url(#b)" opacity=".2"/><path d="m779.01953 170.38672-14.42969 22.12695-6.15234-4.39453-1.16211 1.62891 7.84961 5.60547 15.57031-23.87305z" fill="url(#c)" stroke-width="2"/></g></svg>