<?xml version="1.0" encoding="UTF-8" standalone="no"?>

<!-- Created with Inkscape (http://www.inkscape.org/) -->
<svg width="64" version="1.1" xmlns="http://www.w3.org/2000/svg" height="64" xmlns:xlink="http://www.w3.org/1999/xlink" xmlns:inkscape="http://www.inkscape.org/namespaces/inkscape">
 <defs id="defs3811">
  <linearGradient inkscape:collect="always" id="linearGradient4293">
   <stop id="stop4295"/>
   <stop offset="1" style="stop-opacity:0" id="stop4297"/>
  </linearGradient>
  <linearGradient inkscape:collect="always" id="linearGradient4303-6">
   <stop style="stop-color:#c6cdd1" id="stop4305-7"/>
   <stop offset="1" style="stop-color:#e0e5e7" id="stop4307-0"/>
  </linearGradient>
  <linearGradient inkscape:collect="always" id="linearGradient4643-8" xlink:href="#linearGradient4303-6" y1="543.79797" y2="502.65509" x2="0" gradientUnits="userSpaceOnUse" gradientTransform="matrix(0.66666726 0 0 0.6351842 456.88661 -137.77421)"/>
  <linearGradient inkscape:collect="always" id="linearGradient4183" xlink:href="#linearGradient4293" y1="532.2265" y2="554.2265" x1="419.16071" gradientUnits="userSpaceOnUse" x2="441.16071" gradientTransform="matrix(1 0 0 1 -408.16071 -495.22658)"/>
  <linearGradient inkscape:collect="always" xlink:href="#linearGradient4293" id="linearGradient4279" y1="23.999998" x1="20" y2="48" x2="44" gradientUnits="userSpaceOnUse" gradientTransform="matrix(1 0 0 1 1 -1)"/>
  <linearGradient inkscape:collect="always" xlink:href="#linearGradient3052" id="linearGradient4479" y1="537.79797" y2="565.79797" x2="0" gradientUnits="userSpaceOnUse" gradientTransform="matrix(1 0 0 1 353.28574 -358.86439)"/>
  <linearGradient id="linearGradient3052">
   <stop style="stop-color:#555753" id="stop3054"/>
   <stop offset="1" style="stop-color:#2e3436" id="stop3056"/>
  </linearGradient>
 </defs>
 <metadata id="metadata3814"/>
 <g inkscape:label="Layer 1" inkscape:groupmode="layer" id="layer1" transform="matrix(1 0 0 1 -736.85718 -157.93361)">
  <rect width="64" x="736.85724" y="163.93361" rx="0" height="52.00001" style="fill:url(#linearGradient4643-8)" id="rect4641-5"/>
  <rect width="63.999939" x="736.85724" y="214.93358" height="0.999998" style="fill:#99a1a7" id="rect4645-7"/>
  <path style="fill:url(#linearGradient4183);opacity:0.2;fill-rule:evenodd" id="path4167" d="M 62 15 L 2 55 L 5 58 L 64 58 L 64 17 L 62 15 z " transform="matrix(1 0 0 1 736.85718 157.93361)"/>
  <rect width="64" x="736.85718" y="163.93361" height="5.999954" style="fill:#566069" id="rect4647-8"/>
  <rect width="63.999939" x="736.85718" y="169.93356" height="1.00005" style="fill:#3daee9" id="rect4649-8"/>
  <rect width="60" x="738.85718" y="172.93355" height="40.00005" style="fill:#ffffff" id="rect4653-5"/>
  <path style="fill:url(#linearGradient4279);opacity:0.2;fill-rule:evenodd" id="path4268" d="M 33 21 L 29 23 L 28 25 L 27 27 L 27 35 L 23 35 L 23 49 L 32 58 L 64 58 L 64 50 L 37 23 L 33 21 z " transform="matrix(1 0 0 1 736.85718 157.93361)"/>
  <rect width="4" x="794.85718" y="164.93362" rx="2" height="4" style="fill:#eff0f1" id="rect4661-1"/>
  <path inkscape:connector-curvature="0" style="fill:url(#linearGradient4479)" id="rect4136-1" d="m 769.85718,178.93361 c -3.324,0 -6,2.676 -6,6 l 0,2 0,6 -2,0 -2,0 0,1.5 0,12.5 20,0 0,-14 -4,0 0,-8 c 0,-3.324 -2.676,-6 -6,-6 z m 0,1 c 2.77,0 5,2.23 5,5 l 0,8 -10,0 0,-8 c 0,-2.77 2.23,-5 5,-5 z m -9,14 4,0 10,0 4,0 0,12 -9,0 -9,0 0,-12 z"/>
 </g>
</svg>
