<svg xmlns="http://www.w3.org/2000/svg" viewBox="0 0 22 22">
  <defs id="defs3051">
    <style type="text/css" id="current-color-scheme">
      .ColorScheme-Text {
        color:#eff0f1;
      }
      </style>
  </defs>
    <path
       style="opacity:1;fill:currentColor;fill-opacity:1;stroke:none" 
       d="M 14 3 C 12.338 3 11 4.338 11 6 C 11 7.662 12.338 9 14 9 C 15.662 9 17 7.662 17 6 C 17 4.338 15.662 3 14 3 z M 14 4 A 2 2 0 0 1 16 6 A 2 2 0 0 1 14 8 A 2 2 0 0 1 12 6 A 2 2 0 0 1 14 4 z M 8 6 C 6.338 6 5 7.338 5 9 C 5 10.662 6.338 12 8 12 C 9.662 12 11 10.662 11 9 C 11 7.338 9.662 6 8 6 z M 8 7 A 2 2 0 0 1 10 9 A 2 2 0 0 1 8 11 A 2 2 0 0 1 6 9 A 2 2 0 0 1 8 7 z M 14 10 C 13.35365 10 12.744011 10.134158 12.181641 10.361328 L 12.636719 11.275391 C 13.064529 11.114881 13.51448 11 14 11 C 16.21602 11 18 12.78398 18 15 L 14.5 15 L 15 16 L 19 16 L 19 15 C 19 12.22998 16.77002 10 14 10 z M 8 13 C 5.22998 13 3 15.22998 3 18 L 3 19 L 13 19 L 13 18 C 13 15.22998 10.77002 13 8 13 z M 8 14 C 10.21602 14 12 15.78398 12 18 L 4 18 C 4 15.78398 5.78398 14 8 14 z "
        class="ColorScheme-Text"
       id="path4867" />
</svg>
