<svg xmlns="http://www.w3.org/2000/svg" viewBox="0 0 22 22">
  <defs id="defs3051">
    <style type="text/css" id="current-color-scheme">
      .ColorScheme-Text {
        color:#eff0f1
      }
      </style>
  </defs>
    <path
       style="fill:currentColor;fill-opacity:1;stroke:none" 
       d="M 3 3 L 3 19 L 19 19 L 19 3 L 3 3 z M 4 4 L 18 4 L 18 16.998047 L 18 18 L 4 18 L 4 16.998047 L 4 4 z M 4 16.998047 L 6.7988281 16.998047 L 9.5996094 13.667969 L 8.2011719 12.005859 L 4 16.998047 z M 18 16.998047 L 13.798828 12.005859 L 9.5996094 16.998047 L 18 16.998047 z M 7 5 A 2 2 0 0 0 5 7 A 2 2 0 0 0 7 9 A 2 2 0 0 0 9 7 A 2 2 0 0 0 7 5 z "
       class="ColorScheme-Text" />
</svg>
