#define image_width  12
#define image_height 12
static unsigned char image_bits[] = {
 0x00,0xf0,0x9c,0xf3,0xfe,0xf7,0xff,0xff,0xff,0xff,0xff,0xff,
 0xfe,0xf7,0xfc,0xf3,0xf8,0xf1,0xf0,0xf0,0x60,0xf0,0x00,0xf0};
