<svg viewBox="0 0 24 24" xmlns="http://www.w3.org/2000/svg">
    <style type="text/css" id="current-color-scheme">
        .ColorScheme-Text {
            color:#232629;
        }
    </style><g transform="translate(1,1)">
    <path d="m17.5 3a1.5 1.4999998 0 0 0 -1.060547.4394531l-2 2-.939453-.9394531-1 1 .646484.6464844-8.5898434 8.5898436c-.37168.37168-.5566406.862598-.5566406 1.353516v.910156l-1.5 1.5 1 1 1.5-1.5h.9101562c.490918 0 .9818357-.184962 1.3535157-.556641l8.5898441-8.5898434.646484.6464844 1-1-.939453-.9394531 1.984375-1.984375a1.5 1.4999998 0 0 0 .015625-.015625 1.5 1.4999998 0 0 0 .439453-1.0605469v-.5a1 1 0 0 0 -1-1zm-3.646484 3.8535156 1.292968 1.2929688-5.8535152 5.8535156h-2.5859376z" class="ColorScheme-Text" fill="currentColor"/>
</g></svg>
