<svg version="1.1" viewBox="0 0 24 24" xmlns="http://www.w3.org/2000/svg">
    <defs>
        <style type="text/css" id="current-color-scheme">.ColorScheme-Text {
        color:#232629;
      }</style>
    </defs><g transform="translate(1,1)">
    <path class="ColorScheme-Text" d="m11.00001 3.00001c-4.432 0-8 3.568-8 8s3.568 8 8 8 8-3.568 8-8-3.568-8-8-8m0 1c3.878 0 7 3.122 7 7s-3.122 7-7 7-7-3.122-7-7 3.122-7 7-7" fill="currentColor"/>
    <path d="m9.5489808 18.491866c-1.3863041-0.277887-2.8119364-1.054826-3.8471349-2.096603-1.1240842-1.131229-1.8125242-2.479882-2.0932988-4.100767-0.2820927-1.628495-0.0694251-3.1053918 0.6687871-4.6444778 1.868706-3.8960327 6.7140588-5.4004412 10.538051-3.2719045 0.450911 0.2509892 1.020765 0.7163205 1.624347 1.3264077 0.790603 0.7991229 0.998614 1.0839426 1.389785 1.9029561 0.630977 1.3211124 0.81807 2.2515942 0.755964 3.7597105-0.08522 2.069469-0.705434 3.500571-2.160692 4.985673-1.835965 1.873616-4.329665 2.649385-6.8758082 2.139005z" class="ColorScheme-Text" fill="currentColor" fill-opacity=".50196078"/>
</g></svg>
