<svg version="1.1" viewBox="0 0 24 24" xmlns="http://www.w3.org/2000/svg">
    <defs>
        <style type="text/css" id="current-color-scheme">.ColorScheme-Text {
        color:#232629;
      }</style>
    </defs><g transform="translate(1,1)">
    <path class="ColorScheme-Text" d="M 11,3 3.082,9.0757453 6,19 H 16 L 18.918,9.005803 Z M 11,4.3196667 17.598333,9.3251623 15,18 H 7 L 4.400347,9.381908 Z" fill="currentColor"/>
    <path d="m6.50138 18.216977c-0.0799-0.134257-2.756646-8.6403051-2.756298-8.7588484 1.87e-4 -0.063377 1.619617-1.3442544 3.598734-2.8463937 3.131269-2.3766176 3.622273-2.7164094 3.782335-2.617516 0.101166 0.062506 1.748024 1.2875385 3.65968 2.722295l3.475739 2.6086484-0.188452 0.6165557c-0.103647 0.339106-0.719075 2.34508-1.367616 4.45772l-1.179161 3.841161-4.490202 0.02563c-2.469611 0.01409-4.510253-0.0082-4.534759-0.04925z" class="ColorScheme-Text" fill="currentColor" fill-opacity=".50196078"/>
</g></svg>
