<svg xmlns="http://www.w3.org/2000/svg" viewBox="0 0 24 24">
  <defs id="defs3051">
    <style type="text/css" id="current-color-scheme">
      .ColorScheme-Text {
        color:#232629;
      }
      </style>
  </defs><g transform="translate(1,1)">
 <path 
    style="fill:currentColor;fill-opacity:1;stroke:none" 
	d="m3 3v1 15h1 9v-1h-9v-8h3v-.009766l.007813.009766 2-2h8.992188v5h1v-8h-6.992188l-2-2-.007812.009766v-.009766h-6-1m13.5 11c-1.385 0-2.5 1.115-2.5 2.5 0 .433427.118052.834808.310547 1.189453l.759765-.759765c-.041025-.137094-.070312-.278897-.070312-.429688 0-.831.669-1.5 1.5-1.5.150791 0 .292594.029287.429688.070312l.759765-.759765c-.354645-.192495-.756026-.310547-1.189453-.310547m2.189453 1.310547l-.759765.759765c.041026.137094.070312.278897.070312.429688 0 .831-.669 1.5-1.5 1.5-.150791 0-.292594-.029286-.429688-.070312l-.759765.759765c.354645.192495.756026.310547 1.189453.310547 1.385 0 2.5-1.115 2.5-2.5 0-.433427-.118052-.834808-.310547-1.189453"
    class="ColorScheme-Text"
    />  
</g></svg>
