<svg xmlns="http://www.w3.org/2000/svg" viewBox="0 0 24 24">
  <defs id="defs3051">
    <style type="text/css" id="current-color-scheme">
      .ColorScheme-Text {
        color:#232629;
      }
      </style>
  </defs><g transform="translate(1,1)">
 <path 
     style="fill:currentColor;fill-opacity:1;stroke:none" 
     d="M 1 3 L 1 4 L 1 12 L 1 18 L 1 18.414062 L 1 19 L 2 19 L 8 19 L 11 19 L 11 18 L 8 18 L 2 18 L 2 17.414062 L 2.4628906 16.951172 L 8.7304688 10.683594 L 10.183594 12.134766 L 10.998047 12.949219 L 11 12.949219 L 11.816406 12.134766 L 13.269531 10.683594 L 14.585938 12 L 16 12 L 13.976562 9.9765625 L 19.728516 4.2226562 L 19.951172 4 L 20 4 L 20 4.2226562 L 20 10 L 21 10 L 21 3 L 20.951172 3 L 20 3 L 19.537109 3 L 2.4628906 3 L 2 3 L 1 3 z M 2 4 L 2.0488281 4 L 2.2714844 4.2226562 L 8.0234375 9.9765625 L 2 16 L 2 12 L 2 4.2226562 L 2 4 z M 3.4628906 4 L 18.537109 4 L 11 11.537109 L 3.4628906 4 z "
     class="ColorScheme-Text"
     />
    <path
     style="fill:#2ecc71;fill-opacity:1;stroke:none"
     d="M 19 11 L 18.003906 11.994141 L 18 11.990234 L 13 16.988281 L 13.005859 16.994141 L 13 17 L 13.007812 17.007812 L 13.003906 18 L 13 18 L 13 18.990234 L 13 19 L 15 19 L 15.005859 18.994141 L 15.009766 18.990234 C 15.013766 18.990214 15.015531 18.992187 15.019531 18.992188 L 15.013672 18.986328 L 16 18 L 20 14.003906 C 19.995745 14.006408 19.994484 14.007267 19.990234 14.009766 L 20 13.998047 L 20.998047 13 L 21 12.998047 L 19 11 z "
     />
</g></svg>
