<svg xmlns="http://www.w3.org/2000/svg" viewBox="0 0 24 24">
  <defs id="defs3051">
    <style type="text/css" id="current-color-scheme">
      .ColorScheme-Text {
        color:#232629;
      }
      .ColorScheme-Highlight {
        color:#3daee9;
      }
      </style>
  </defs><g transform="translate(1,1)">
 <path 
     style="fill:currentColor;fill-opacity:1;stroke:none" 
     d="M 3 3 L 3 19 L 12 19 L 12 18 L 4 18 L 4 7 L 18 7 L 18 13 L 19 13 L 19 3 L 17 3 L 17 6 L 15 6 L 15 3 L 7 3 L 7 6 L 5 6 L 5 3 L 3 3 z M 5 8 L 5 11 L 6 11 L 6 10 L 10 10 L 10 11 L 11 11 L 11 8 L 10 8 L 10 9 L 6 9 L 6 8 L 5 8 z M 7 12 L 7 15 L 8 15 L 8 14 L 12 14 L 12 15 L 13 15 L 13 12 L 12 12 L 12 13 L 8 13 L 8 12 L 7 12 z M 17 13 L 16 14 L 15 15 L 13 17 L 13 18 L 13 19 L 15 19 L 15.59375 18.40625 L 16 18 L 17 17 L 18 16 L 19 15 L 17 13 z M 16.689453 14.689453 L 17.28125 15.28125 L 17 15.5625 L 15.59375 16.96875 L 15.59375 16.984375 L 14.3125 18.28125 L 13.71875 17.6875 L 16.689453 14.689453 z "
     class="ColorScheme-Text"
     />
</g></svg>
