<svg xmlns="http://www.w3.org/2000/svg" viewBox="0 0 24 24">
  <defs id="defs3051">
    <style type="text/css" id="current-color-scheme">
      .ColorScheme-Text {
        color:#232629;
      }
      </style>
  </defs><g transform="translate(1,1)">
 <path 
     style="fill:currentColor;fill-opacity:1;stroke:none" 
     d="M 3 3 L 3 10 L 10 10 L 10 3 L 3 3 z M 4 4 L 9 4 L 9 9 L 4 9 L 4 4 z M 12 4 L 12 5 L 19 5 L 19 4 L 12 4 z M 12 8 L 12 9 L 19 9 L 19 8 L 12 8 z M 3 12 L 3 19 L 10 19 L 10 12 L 3 12 z M 12 13 L 12 14 L 16 14 L 16 13 L 12 13 z M 12 17 L 12 18 L 16 18 L 16 17 L 12 17 z "
	 class="ColorScheme-Text"
     />
</g></svg>
