<svg xmlns="http://www.w3.org/2000/svg" viewBox="0 0 24 24">
  <defs id="defs3051">
    <style type="text/css" id="current-color-scheme">
      .ColorScheme-Text {
        color:#232629;
      }
      </style>
  </defs><g transform="translate(1,1)">
 <path 
    style="fill:currentColor;fill-opacity:1;stroke:none" 
    d="M 3 3 L 3 6 L 6 3 L 3 3 z M 16 3 L 19 6 L 19 3 L 16 3 z M 6 6 L 6 9 L 6 15 L 6 16 L 16 16 L 16 15 L 16 6 L 7 6 L 6 6 z M 7 9 L 15 9 L 15 15 L 7 15 L 7 9 z M 3 16 L 3 19 L 6 19 L 3 16 z M 19 16 L 16 19 L 19 19 L 19 16 z "
	class="ColorScheme-Text"
    />  
</g></svg>
