<svg xmlns="http://www.w3.org/2000/svg" viewBox="0 0 24 24">
  <defs id="defs3051">
    <style type="text/css" id="current-color-scheme">
      .ColorScheme-Text {
        color:#232629;
      }
      </style>
  </defs><g transform="translate(1,1)">
 <path 
     style="fill:currentColor;fill-opacity:1;stroke:none" 
     d="M 3 3 L 3 4 L 3 18 L 3 19 L 4 19 L 6 19 L 6 18 L 4 18 L 4 7 L 18 7 L 18 8 L 19 8 L 19 3 L 18 3 L 3 3 z M 7 9 L 7 13 L 7 15 L 7 17 L 7 18 L 7 19 L 11 19 L 19 19 L 19 18 L 19 13 L 19 9 L 18 9 L 17 9 L 7 9 z M 8 13 L 18 13 L 18 18 L 11 18 L 8 18 L 8 15 L 8 13 z "
	 class="ColorScheme-Text"
     />
</g></svg>
