<svg xmlns="http://www.w3.org/2000/svg" viewBox="0 0 12 12">
  <defs id="defs3051">
    <style type="text/css" id="current-color-scheme">
      .ColorScheme-Text {
        color:#eff0f1;
      }
      .ColorScheme-Highlight {
        color:#3daee9;
      }
      </style>
  </defs>
 <path 
     style="fill:currentColor;fill-opacity:1;stroke:none" 
     d="m424.8 542.79l.367.379 1.621 1.621h-2.076v1h2.076l-1.621 1.621-.381.379h1.417l2.5-2.5-2.5-2.5zm-2.088 2v1h2v-1z" 
     transform="translate(-421.71-535.79)"
     class="ColorScheme-Highlight"
     />
 <path 
     style="fill:currentColor;fill-opacity:1;stroke:none" 
     d="m1 1l2 2 2-2zm4 0l2 2 2-2zm4 0l2 2v-2zm2 2l-2 2 2 2zm0 4l-2 2h2zm-2 2l-2-2v2zm-2-2l2-2-2-2-2 2h2zm-2-2l-2-2-2 2z"
     class="ColorScheme-Text"
     />
</svg>
