<svg xmlns="http://www.w3.org/2000/svg" viewBox="0 0 16 16">
  <defs id="defs3051">
    <style type="text/css" id="current-color-scheme">
      .ColorScheme-Text {
        color:#eff0f1;
      }
      </style>
  </defs>
    <path 
        style="fill:currentColor;fill-opacity:1;stroke:none" 
        d="M 6 2 L 6 3 L 6 6 L 7 6 L 7 3 L 9 3 L 9 6 L 10 6 L 10 3 L 10 2 L 6 2 z M 3.7070312 6 L 3 6.7070312 L 6.2929688 10 L 8 11.707031 L 9.7070312 10 L 13 6.7070312 L 12.292969 6 L 9 9.2929688 L 8 10.292969 L 7 9.2929688 L 3.7070312 6 z M 2 12 L 2 14 L 3 14 L 14 14 L 14 13 L 14 12 L 13 12 L 13 13 L 3 13 L 3 12 L 2 12 z " 
          id="rect4099" 
          class="ColorScheme-Text"/>
</svg>
