<svg viewBox="0 0 22 22" xmlns="http://www.w3.org/2000/svg"><style type="text/css" id="current-color-scheme">.ColorScheme-Text{color:#232629;}.ColorScheme-NegativeText{color:#da4453;}</style><path d="m10.988281 3-3.0390622 3.0410156 4.0507812 4.0488284v-6.6875002-.4023438zm2.876953.5371094-.24414.9765625a7 7 0 0 1 4.378906 6.4863281 7 7 0 0 1 -1.195312 3.894531l.716796.716797a8 8 0 0 0 1.478516-4.611328 8 8 0 0 0 -5.134766-7.4628906zm.458985 3.7441406-.539063.8613281a4 4 0 0 1 1.214844 2.8574219 4 4 0 0 1 -.388672 1.701172l.740234.742187a5 5 0 0 0 .648438-2.443359 5 5 0 0 0 -1.675781-3.71875zm-8.2832034.6679688-.0410156.0410156v.0097656 1 4 1 .009766l4.988281 4.990234h1.011719v-.402344-4.6875zm-3.0410156.0507812v1 4 1h2v-1-4-1zm11.890625 8.800781a7 7 0 0 1 -1.271484.677735l.24414.974609a8 8 0 0 0 1.740235-.939453z" style="fill:currentColor;fill-opacity:1;stroke:none" class="ColorScheme-Text"/><path d="m-.50000006 4.7426407 1-.0000001v21.6274174h-1z" style="fill:currentColor;fill-opacity:1;stroke:none" class="ColorScheme-NegativeText" transform="matrix(.70710678 -.70710678 .70710678 .70710678 0 0)"/></svg>