<svg xmlns="http://www.w3.org/2000/svg" height="22" width="22">
    <defs id="defs1">
        <style type="text/css" id="current-color-scheme">
            .ColorScheme-Text {
                color:#232629;
            }
            .ColorScheme-NegativeText {
                color:#da4453;
            }
        </style>
    </defs>
    <path style="fill:currentColor;fill-opacity:1;stroke:none" class="ColorScheme-Text" d="M3 15V7h15v8zM1 5v12h19v-4h.5c.277 0 .5-.223.5-.5v-3c0-.277-.223-.5-.5-.5H20V5H4zm1 1h17v10H2z"/><path style="fill:currentColor;fill-opacity:1;stroke:none" class="ColorScheme-NegativeText" d="M15 11h6c.554 0 1 .446 1 1v6c0 .554-.446 1-1 1h-6c-.554 0-1-.446-1-1v-6c0-.554.446-1 1-1z"/><path d="M15.707 12l-.707.707L17.293 15 15 17.293l.707.707L18 15.707 20.293 18l.707-.707L18.707 15 21 12.707 20.293 12 18 14.293z" fill="#fff"/></svg>
