<svg xmlns="http://www.w3.org/2000/svg" viewBox="0 0 22 22">
  <defs id="defs3051">
    <style type="text/css" id="current-color-scheme">
      .ColorScheme-Text {
        color:#232629;
      }
      .ColorScheme-PositiveText {
        color:#27ae60;
      }
      </style>
  </defs>
  <path style="fill:currentColor;fill-opacity:1;stroke:none" 
     d="M 11 4 A 6 6 0 0 0 6.546875 6 L 4 6 C 3.446 6 3 6.446 3 7 L 3 13 C 3 13.554 3.446 14 4 14 L 6.5371094 14 A 6 6 0 0 0 11 16 A 6 6 0 0 0 15.453125 14 L 18 14 C 18.554 14 19 13.554 19 13 L 19 7 C 19 6.446 18.554 6 18 6 L 15.462891 6 A 6 6 0 0 0 11 4 z M 11 16 C 10.446 16 10 16.446 10 17 C 10 17.028 10.013325 17.052078 10.015625 17.080078 C 8.3941076 17.311278 7 18 7 18 L 7 19 L 15 19 L 15 18 C 15 18 13.605887 17.311178 11.984375 17.080078 C 11.986675 17.052078 12 17.028 12 17 C 12 16.446 11.554 16 11 16 z M 11 5 A 5 5 0 0 1 14.091797 6.0839844 A 5 5 0 0 1 14.291016 6.2480469 A 5 5 0 0 1 14.474609 6.4199219 A 5 5 0 0 1 14.658203 6.6074219 A 5 5 0 0 1 14.835938 6.8085938 A 5 5 0 0 1 14.992188 7 L 16.189453 7 L 18 7 L 18 8 L 17 8 L 17 12 L 18 12 L 18 13 L 16.1875 13 L 14.992188 13 A 5 5 0 0 1 13.990234 14 A 5 5 0 0 1 11 15 A 5 5 0 0 1 7.9082031 13.916016 A 5 5 0 0 1 7.7089844 13.751953 A 5 5 0 0 1 7.5253906 13.580078 A 5 5 0 0 1 7.3417969 13.392578 A 5 5 0 0 1 7.1640625 13.191406 A 5 5 0 0 1 7.0078125 13 L 5.8105469 13 L 4 13 L 4 12 L 5 12 L 5 8 L 4 8 L 4 7 L 5.8125 7 L 7.0078125 7 A 5 5 0 0 1 7.328125 6.6152344 A 5 5 0 0 1 8.0097656 6 A 5 5 0 0 1 11 5 z "
     class="ColorScheme-Text"
     />
  <path
      style="fill:currentColor;fill-opacity:1;stroke:none" 
     class="ColorScheme-PositiveText"
    d="M 11 7 A 2.9999826 2.9999826 0 0 0 8 10 A 2.9999826 2.9999826 0 0 0 11 13 A 2.9999826 2.9999826 0 0 0 14 10 A 2.9999826 2.9999826 0 0 0 11 7 z "
      />
</svg>
