<svg viewBox="0 0 22 22" xmlns="http://www.w3.org/2000/svg"><style type="text/css" id="current-color-scheme">.ColorScheme-Text{color:#232629;}.ColorScheme-NegativeText{color:#da4453;}</style><path d="m11 4a6 6 0 0 0 -3.6894531 1.2929688l.703125.703125a5 5 0 0 1 2.9863281-.9960938 5 5 0 0 1 3.091797 1.0839844 5 5 0 0 1 .199219.1640625 5 5 0 0 1 .183593.171875 5 5 0 0 1 .183594.1875 5 5 0 0 1 .177735.2011719 5 5 0 0 1 .15625.1914062h1.197265 1.810547v1h-1v4h1v1h-1.8125-1.171875l1 1h1.984375c.554 0 1-.446 1-1v-6c0-.554-.446-1-1-1h-2.537109a6 6 0 0 0 -4.462891-2zm-7.0136719 2.0019531c-.5473276.0076274-.9863281.4488411-.9863281.9980469v6c0 .554.446 1 1 1h2.5371094a6 6 0 0 0 4.4628906 2 6 6 0 0 0 2.449219-.535156l-.763672-.763672a5 5 0 0 1 -1.685547.298828 5 5 0 0 1 -3.0917969-1.083984 5 5 0 0 1 -.1992187-.164063 5 5 0 0 1 -.1835938-.171875 5 5 0 0 1 -.1835937-.1875 5 5 0 0 1 -.1777344-.201172 5 5 0 0 1 -.15625-.191406h-1.1972656-1.8105469v-1h1v-4h-1v-1h.984375zm7.0136719 9.9980469c-.554 0-1 .446-1 1 0 .028.013325.052078.015625.080078-1.6215174.2312-3.015625.919922-3.015625.919922v1h8v-1s-1.394113-.688822-3.015625-.919922c.0023-.028.015625-.052078.015625-.080078 0-.554-.446-1-1-1zm0-9a3 3 0 0 0 -1.5488281.4355469l4.1132811 4.1132811a3 3 0 0 0 .435547-1.548828 3 3 0 0 0 -3-3zm-3 3.015625a3 3 0 0 0 2.984375 2.984375z" style="fill:currentColor;fill-opacity:1;stroke:none" class="ColorScheme-Text"/><path d="m-.49999997 4.7426407h1v21.6274173h-1z" style="fill:currentColor;fill-opacity:1;stroke:none" class="ColorScheme-NegativeText" transform="matrix(.70710678 -.70710678 .70710678 .70710678 0 0)"/></svg>