<svg xmlns="http://www.w3.org/2000/svg" viewBox="0 0 22 22">
  <defs id="defs3051">
    <style type="text/css" id="current-color-scheme">
      .ColorScheme-Text {
        color:#232629;
      }
      </style>
  </defs>
  <path
     style="opacity:1;fill:currentColor;fill-opacity:1;stroke:none"
     d="M 3 4 L 3 16 L 6 20 L 6 17 L 6 16 L 19 16 L 19 4 L 3 4 z M 4 5 L 18 5 L 18 15 L 4 15 L 4 5 z M 11 6 A 2 2 0 0 0 9 8 L 9 10 L 8 10 L 8 14 L 14 14 L 14 10 L 13 10 L 13 8 A 2 2 0 0 0 11 6 z M 11 7 A 1 1 0 0 1 12 8 L 12 10 L 10 10 L 10 8 A 1 1 0 0 1 11 7 z "
          class="ColorScheme-Text" />
</svg>
