<svg xmlns="http://www.w3.org/2000/svg" viewBox="0 0 22 22">
  <defs id="defs3051">
    <style type="text/css" id="current-color-scheme">
      .ColorScheme-Text {
        color:#232629;
      }
      .ColorScheme-PositiveText {
        color:#27ae60;
      }
      </style>
  </defs>
 <path style="fill:currentColor;fill-opacity:1;stroke:none" 
     d="M 3 3 L 3 19 L 19 19 L 19 3 L 3 3 z M 4 4 L 18 4 L 18 18 L 4 18 L 4 4 z M 5 15 L 5 17 L 10 17 L 10 15 L 5 15 z M 12 15 L 12 17 L 17 17 L 17 15 L 12 15 z "
     class="ColorScheme-Text"
     /> 
 <path
      style="fill:currentColor;fill-opacity:1;stroke:none" 
     class="ColorScheme-PositiveText"
       d="M 11 6 A 4 4 0 0 0 7 10 A 4 4 0 0 0 11 14 A 4 4 0 0 0 15 10 A 4 4 0 0 0 11 6 z M 11 7 C 12.662 7 14 8.338 14 10 C 14 11.662 12.662 13 11 13 C 9.338 13 8 11.662 8 10 C 8 8.338 9.338 7 11 7 z M 11 9 A 1 1 0 0 0 10 10 A 1 1 0 0 0 11 11 A 1 1 0 0 0 12 10 A 1 1 0 0 0 11 9 z "
     />
</svg>
