<svg xmlns="http://www.w3.org/2000/svg" viewBox="0 0 22 22">
  <defs id="defs3051">
    <style type="text/css" id="current-color-scheme">
      .ColorScheme-Text {
        color:#232629;
      }
      </style>
  </defs>
    <path
       style="fill:currentColor;fill-opacity:1;stroke:none"
       d="M 6 3 L 6 19 L 16 19 L 16 3 L 6 3 z M 9 4 L 13 4 L 13 5 L 9 5 L 9 4 z M 7 6 L 15 6 L 15 11.5 L 13.892578 11.222656 C 13.825378 10.970456 13.725582 10.728253 13.595703 10.501953 L 14.181641 9.5253906 L 13.474609 8.8183594 L 12.498047 9.4042969 C 12.271331 9.2728969 12.028379 9.1718156 11.775391 9.1035156 L 11.5 8 L 10.5 8 L 10.222656 9.1074219 C 9.9705343 9.1744219 9.7282551 9.2743969 9.5019531 9.4042969 L 8.5253906 8.8183594 L 7.8183594 9.5253906 L 8.4042969 10.501953 C 8.2729059 10.728653 8.1717856 10.971609 8.1035156 11.224609 L 7 11.5 L 7 6 z M 11.089844 10.001953 A 2 2 0 0 1 12.986328 11.769531 L 12.984375 12.251953 A 2 2 0 0 1 10.867188 13.996094 A 2 2 0 0 1 9 11.988281 A 2 2 0 0 1 10.890625 10.003906 A 2 2 0 0 1 11.089844 10.001953 z M 7 12.5 L 8.1074219 12.777344 C 8.1746219 13.029544 8.2744179 13.271747 8.4042969 13.498047 L 7.8183594 14.474609 L 8.5253906 15.181641 L 9.5019531 14.595703 C 9.7286691 14.727103 9.9716214 14.828184 10.224609 14.896484 L 10.5 16 L 11.5 16 L 11.777344 14.892578 C 12.029466 14.825578 12.271745 14.725603 12.498047 14.595703 L 13.474609 15.181641 L 14.181641 14.474609 L 13.595703 13.498047 C 13.727094 13.271347 13.828214 13.028391 13.896484 12.775391 L 15 12.5 L 15 16 L 15 17 L 13 17 L 9 17 L 7 17 L 7 16 L 7 12.5 z "
          class="ColorScheme-Text"/>
</svg>
