<svg xmlns="http://www.w3.org/2000/svg" viewBox="0 0 22 22">
  <defs id="defs3051">
    <style type="text/css" id="current-color-scheme">
      .ColorScheme-Text {
        color:#232629;
      }
      .ColorScheme-PositiveText {
        color:#27ae60;
      }
      </style>
  </defs>
  <path
     style="fill:currentColor;fill-opacity:1;stroke:none" 
     d="M 18.064453 6 L 17.306641 6.4804688 A 10.801709 8.36847 0 0 1 19.017578 10.998047 A 10.801709 8.36847 0 0 1 17.298828 15.509766 L 18.068359 16 A 11.783681 9.1292385 0 0 0 20 10.998047 A 11.783681 9.1292385 0 0 0 18.064453 6 z M 15.767578 7.4609375 L 15 7.9472656 A 7.8557841 6.0861592 0 0 1 16.072266 11.001953 A 7.8557841 6.0861592 0 0 1 15.001953 14.058594 L 15.769531 14.544922 A 8.8377559 6.8469285 0 0 0 17.054688 11.001953 A 8.8377559 6.8469285 0 0 0 15.767578 7.4609375 z "
     class="ColorScheme-PositiveText" />
  <path
     style="fill:currentColor;fill-opacity:1;stroke:none" 
     d="M 7.5,3 C 6.115,3 5,4.115 5,5.5 l 0,6 C 5,12.885 6.115,14 7.5,14 8.885,14 10,12.885 10,11.5 l 0,-6 C 10,4.115 8.885,3 7.5,3 Z M 2,10 2,11 c 9.163e-4,2.235554 1.6341118,4.198898 4,4.808594 L 6,18 l -2,0 0,1 7,0 0,-1 -2,0 0,-2.193359 C 11.365122,15.197142 12.998124,13.23483 13,11 l 0,-1 -1,0 0,1 C 12,13.209139 9.9852814,15 7.5,15 5.0147186,15 3,13.209139 3,11 l 0,-1 z"
     class="ColorScheme-Text" />
</svg>
