<svg xmlns="http://www.w3.org/2000/svg" viewBox="0 0 22 22">
  <defs id="defs3051">
    <style type="text/css" id="current-color-scheme">
      .ColorScheme-Text {
        color:#232629;
      }
      </style>
  </defs>
  <path
     d="M 18.767578,14.013672 C 17.792964,14.126694 17.044251,14.930009 17,15.910156 c -6.73e-4,0.02994 -6.73e-4,0.0599 0,0.08984 l 1,0 C 17.999477,15.49265 18.378963,15.06531 18.882812,15.005855 18.920882,14.996559 18.960942,14.9967 19,15 c 0.507347,-5.23e-4 0.934687,0.394585 0.994141,0.898438 -0.01833,1.179783 -0.896224,1.236706 -1.992188,1.322265 0,0 -0.002,1.690325 -0.002,1.792969 l 1,0 L 19,18 l 0.002,0 0.230469,0 c 0.97452,-0.113022 1.72328,-0.916337 1.767531,-1.896484 -0.01062,-0.105074 -0.0084,-0.195751 -0.01367,-0.320313 -0.113022,-0.974614 -0.916337,-1.723327 -1.896484,-1.767578 -0.106474,-9.03e-4 -0.212743,-0.0013 -0.322266,-0.002 z M 18.001953,20 l 0,1 1,0 0,-1 -1,0 z"
     style="fill:#fdbc4b;fill-opacity:1;stroke:none" />
    <path
       style="fill:currentColor"
       d="m 2,2 0,18 1,0 0,-3 4,0 0,1 8,0 0,-1 1,0 0,-1 -13,0 0,-11 16,0 0,8 1,0 L 20,4 3,4 3,2 2,2 Z M 12.5,6 A 3.5,3.5 0 0 0 9.3417969,8 L 6,8 l 0,7 7,0 0,-2.041016 A 3.5,3.5 0 0 0 16,9.5 3.5,3.5 0 0 0 12.5,6 Z M 12.43555,7 A 2.5,2.5 0 0 1 12.5,7 2.5,2.5 0 0 1 15,9.5 2.5,2.5 0 0 1 13,11.945312 L 13,8 10.503906,8 A 2.5,2.5 0 0 1 12.435547,7 Z M 7,9 9.0390625,9 A 3.5,3.5 0 0 0 9,9.5 3.5,3.5 0 0 0 12,12.960938 L 12,14 7,14 7,9 Z M 10.050781,9 12,9 12,11.949219 A 2.5,2.5 0 0 1 10,9.5 2.5,2.5 0 0 1 10.050781,9 Z"
          class="ColorScheme-Text"/>
</svg>
