<svg width="48" xmlns="http://www.w3.org/2000/svg" height="48">
 <defs>
  <linearGradient id="a" y1="527.8" y2="504.8" gradientUnits="userSpaceOnUse" x2="0" gradientTransform="translate(-384.57 504.56)">
   <stop stop-color="#ffffff"/>
   <stop offset="1" stop-color="#ffffff" stop-opacity="0"/>
  </linearGradient>
  <linearGradient id="b" y1="4" x1="8" y2="18" gradientUnits="userSpaceOnUse" x2="22" gradientTransform="translate(0 1004.36)">
   <stop stop-color="#292c2f"/>
   <stop offset="1" stop-opacity="0"/>
  </linearGradient>
  <linearGradient id="c" y1="520.8" y2="503.8" gradientUnits="userSpaceOnUse" x2="0" gradientTransform="translate(-384.57 504.56)">
   <stop stop-color="#197cf1"/>
   <stop offset="1" stop-color="#20bcfa"/>
  </linearGradient>
  <linearGradient id="d" y1="1050.34" y2="1038.36" gradientUnits="userSpaceOnUse" x2="0" gradientTransform="matrix(-2.83522 0 0 2.83875 47.655-1933.28)">
   <stop stop-color="#c61423"/>
   <stop offset="1" stop-color="#dc2b41"/>
  </linearGradient>
  <linearGradient id="e" y1="543.8" y2="503.8" gradientUnits="userSpaceOnUse" x2="0" gradientTransform="matrix(1.125 0 0 1-435.64 504.56)">
   <stop stop-color="#1d1e1e"/>
   <stop offset="1" stop-color="#44484c"/>
  </linearGradient>
 </defs>
 <g transform="translate(0-1004.36)">
  <rect width="36" x="6" y="1008.36" fill="url(#e)" rx="0" height="40"/>
  <path fill="url(#d)" d="m36.721 1014.36c.459.028.953 0 1.494.375 4.831 2.079 1.591 7.782-4.567 12.12-.037-.818-.377-2.599-.369-3.383 5.254-3.602 8.327-7.108 4.979-8.498-3.53-1.465-4.626 2.535-4.688 8.342-.329.341-2.607 1.854-2.953 2.093.128-5.295 2.943-10.7 5.648-11.01.145-.028.303-.028.456-.028m-4.918 9.213l1.099-.428.911.614.184 1.932-1.151.883-.478.641c-3.544 2.351-6.563 4.162-10.536 5.658l-2.477.368h-1.63c-1.503-.886-.607-1.227-6.067-1.908l6.153.477c4.746-1.84 9.59-4.483 13.996-7.366m-10.83 7.708c-.712 0-6.264-.482-8.473-.686-2.186-.341-4.871-.443-4.363 2.113-.578-1.363.74-3.677 2.614-4.085 2.898-.648 7.496 1.128 9.149 1.673m-2.664.708c.862.341 2.831.587 3.761.894-1.318.682-7.938 3.126-10.671 2.614-.437 0-2.282-1.327-2.327-2.282.142 1.738 8.234.443 9.237-1.261m-1.8.031c.709-.341 4.03-.324 4.762-.596 4.158 1.455 9.752 4.87 13.755 7.173l1.16.341c.224 1.591 1.204 2.139 2.098 3.169l-1.355 1.363-1.06-1.738c-4.687-2.828-13.952-7.398-19.356-9.592m19.356 9.592c.573.341 1.12.682 1.639 1.022 1.202 3.411 2.603 5.708 3.941 5.609-2.067.988-6.519-3.881-8.02-8.461m8.02 8.461c3.153-1.874-3.521-5.29-5.02-6.281-.337-.954.585-2.535.284-3.66 4.707 2.931 7.489 7.17 5.91 9.181-.38.477-.783.716-1.182.75m-4.58-7.14c-.219-.878-3.126-2.876-3.651-3.183-.703-5.537-.737-6.084-1.334-10.388.357-.341 2.556-2.055 2.896-2.293.422 4.6 1.216 10.834 2.339 14.998"/>
  <rect width="36" x="6" y="1047.36" fill="#080809" height="1"/>
  <path fill="url(#c)" d="m8 1008.36v17l4-2.309 4 2.309v-17z"/>
  <rect width="2" x="6" opacity=".6" y="1008.36" fill="#080809" height="40"/>
  <path opacity=".2" fill="url(#b)" fill-rule="evenodd" d="m16 1008.36v17l-4-2.309-4 2.309 23 23h11v-14z"/>
  <rect width="34" x="8" y="1046.36" fill="#8b8f8f" height="1"/>
  <rect width="34" x="8" y="1045.36" fill="#212323" height="1" fill-opacity=".452"/>
  <path opacity=".15" fill="url(#a)" d="m9 1008.36h6v15l-3-2-3 2z"/>
 </g>
</svg>
