<svg width="48" xmlns="http://www.w3.org/2000/svg" height="48">
 <defs>
  <linearGradient id="a" y1="40" x1="43" y2="4" x2="13" gradientUnits="userSpaceOnUse">
   <stop stop-color="#f27935"/>
   <stop offset="1" stop-color="#f2784b"/>
  </linearGradient>
  <linearGradient id="b" y1="27.13" x1="24.13" y2="41" x2="38" gradientUnits="userSpaceOnUse">
   <stop stop-color="#292c2f"/>
   <stop offset="1" stop-opacity="0"/>
  </linearGradient>
 </defs>
 <g stroke-linejoin="round" stroke-width="6">
  <path fill="url(#a)" d="m11 4c-1.662 0-3 1.338-3 3v22.08a7.999994 7.999994 0 0 0 -4 6.916016 7.999994 7.999994 0 0 0 8 8 7.999994 7.999994 0 0 0 6.919922 -4h22.08c1.662 0 3-1.338 3-3v-30c0-1.662-1.338-3-3-3z"/>
  <path opacity=".2" fill="url(#b)" d="m26 21.75l-14-1.75 6 6-6 2 12 12h17c1.662 0 2-1.25 2-1.25zm-11.172 11.422l-5.656 5.656 4.889 4.891c2.049-.547 3.796-1.884 4.859-3.719h2.738z"/>
  <path fill="#b86333" d="M4.02344 35.488281A7.999994 7.999994 0 0 0 4 36 7.999994 7.999994 0 0 0 12 44 7.999994 7.999994 0 0 0 18.919922 40H41C42.662 40 44 38.662 44 37V36C44 37.662 42.662 39 41 39H18.92A7.999994 7.999994 0 0 1 12 43 7.999994 7.999994 0 0 1 4.02344 35.488281"/>
  <path fill="#ffffff" d="m12 16v4c8.837 0 16 7.163 16 16h4c0-11.05-8.954-20-20-20m0 8v4c4.418 0 8 3.582 8 8h4c0-6.627-5.373-12-12-12m0 8c-2.209 0-4 1.791-4 4 0 2.209 1.791 4 4 4 2.209 0 4-1.791 4-4 0-2.209-1.791-4-4-4"/>
 </g>
</svg>
