<?xml version="1.0" encoding="UTF-8" standalone="no"?>
<svg xmlns="http://www.w3.org/2000/svg" xmlns:xlink="http://www.w3.org/1999/xlink" width="48" height="48" version="1.1">
 <defs>
  <linearGradient id="linearGradient4154">
   <stop offset="0" style="stop-color:#000000;stop-opacity:1"/>
   <stop offset="1" style="stop-color:#000000;stop-opacity:0"/>
  </linearGradient>
  <linearGradient id="linearGradient4192">
   <stop style="stop-color:#272b2d;stop-opacity:1" offset="0"/>
   <stop style="stop-color:#33393e;stop-opacity:1" offset="1"/>
  </linearGradient>
  <linearGradient id="linearGradient4140">
   <stop style="stop-color:#279646;stop-opacity:1" offset="0"/>
   <stop style="stop-color:#76ff68;stop-opacity:1" offset="1"/>
  </linearGradient>
  <linearGradient xlink:href="#linearGradient4140" id="linearGradient4146" x1="24.705" y1="43.939" x2="25.061" y2="4.405" gradientUnits="userSpaceOnUse"/>
  <linearGradient xlink:href="#linearGradient4192" id="linearGradient4166" x1="31" y1="34" x2="31" y2="24" gradientUnits="userSpaceOnUse"/>
  <linearGradient xlink:href="#linearGradient4192" id="linearGradient4168" x1="18" y1="34" x2="18" y2="24" gradientUnits="userSpaceOnUse"/>
  <linearGradient xlink:href="#linearGradient4154" id="linearGradient4182" x1="13" y1="24" x2="30" y2="41" gradientUnits="userSpaceOnUse"/>
  <linearGradient xlink:href="#linearGradient4154" id="linearGradient4190" x1="29" y1="26" x2="36" y2="33" gradientUnits="userSpaceOnUse"/>
 </defs>
 <path style="fill:#000000;fill-opacity:1" d="m 28.15714,27.08737 c 1.95361,-1.92647 4.67925,-2.62713 7.19485,-2.10281 0.53163,2.48065 -0.17883,5.16843 -2.13244,7.0949 -1.9536,1.92647 -4.67924,2.62712 -7.19484,2.10281 -0.5317,-2.48072 0.17882,-5.1685 2.13243,-7.0949 z"/>
 <path d="m 8.00002,19.47854 c 0,10.28981 8.49612,24.52144 16.00003,24.52144 7.06421,0 15.99997,-14.23163 15.99997,-24.52144 0,-10.2898 -7.16343,-15.47856 -16.00004,-15.47856 -8.8366,0 -15.99996,5.18876 -15.99996,15.47856 z" style="fill:url(#linearGradient4146);fill-opacity:1"/>
 <path d="m 35.81641,24.18555 -9.63868,9.63867 5.57618,5.57617 c 2.8996,-3.22701 5.45373,-7.75769 6.92382,-12.35352 l -2.86132,-2.86132 z" style="opacity:0.2;fill:url(#linearGradient4190);fill-opacity:1;stroke:none;stroke-width:2;stroke-linecap:butt;stroke-linejoin:round;stroke-miterlimit:4;stroke-dasharray:none;stroke-opacity:1"/>
 <path d="m 28.38204,26.38204 c 2.02057,-2.02057 4.83963,-2.75545 7.44146,-2.20552 0.54985,2.60181 -0.18496,5.42087 -2.20553,7.44144 -2.02056,2.02056 -4.83963,2.75543 -7.44145,2.20551 -0.54992,-2.60189 0.18495,-5.42094 2.20552,-7.44143 z" style="fill:url(#linearGradient4166);fill-opacity:1.0"/>
 <path d="M 39.97656,18.9375 C 39.72247,29.18682 30.96138,43 24,43 16.60765,43 8.27023,29.1956 8.02344,18.94727 c -0.004,0.17956 -0.0234,0.34846 -0.0234,0.53125 0,10.28981 8.49609,24.52148 16,24.52148 7.06421,0 16,-14.23167 16,-24.52148 0,-0.18615 -0.0188,-0.35822 -0.0234,-0.54102 z" style="opacity:0.2;fill:#000000;fill-opacity:1"/>
 <path d="m 19.30078,26.17969 -5.18945,5.1875 12.17187,12.17187 c 1.96363,-0.74862 3.97836,-2.37305 5.83985,-4.53711 L 19.30078,26.17969 Z" style="opacity:0.2;fill:url(#linearGradient4182);fill-opacity:1;stroke:none;stroke-width:2;stroke-linecap:butt;stroke-linejoin:round;stroke-miterlimit:4;stroke-dasharray:none;stroke-opacity:1"/>
 <path d="m 12.1765,24.31298 c 2.60182,-0.54222 5.42089,0.18239 7.44145,2.17489 2.02057,1.9925 2.75544,4.77241 2.20553,7.33808 -2.60182,0.54222 -5.42089,-0.18238 -7.44146,-2.17488 -2.02057,-1.99257 -2.75537,-4.77241 -2.20552,-7.33809 z" style="fill:url(#linearGradient4168);fill-opacity:1"/>
</svg>
