<?xml version="1.0" encoding="UTF-8" standalone="no"?>
<svg xmlns="http://www.w3.org/2000/svg" xmlns:xlink="http://www.w3.org/1999/xlink" width="48" height="48" viewBox="0 0 48 48" version="1.1">
 <defs>
  <linearGradient id="linearGradient4163">
   <stop style="stop-color:#000000;stop-opacity:1" offset="0"/>
   <stop style="stop-color:#000000;stop-opacity:0" offset="1"/>
  </linearGradient>
  <linearGradient id="linearGradient4310">
   <stop style="stop-color:#569914;stop-opacity:1" offset="0"/>
   <stop style="stop-color:#9cc94b;stop-opacity:1" offset="1"/>
  </linearGradient>
  <linearGradient id="linearGradient4280">
   <stop style="stop-color:#383e51;stop-opacity:1" offset="0"/>
   <stop style="stop-color:#383e51;stop-opacity:0" offset="1"/>
  </linearGradient>
  <linearGradient id="linearGradient4270">
   <stop style="stop-color:#c6cdd1;stop-opacity:1;" offset="0"/>
   <stop style="stop-color:#e0e5e7;stop-opacity:1" offset="1"/>
  </linearGradient>
  <linearGradient xlink:href="#linearGradient4270" id="linearGradient4276" x1="24" y1="36" x2="24" y2="4" gradientUnits="userSpaceOnUse"/>
  <linearGradient xlink:href="#linearGradient4280" id="linearGradient4286" x1="15" y1="10" x2="36.81" y2="31.81" gradientUnits="userSpaceOnUse"/>
  <linearGradient xlink:href="#linearGradient4163" id="linearGradient4294" x1="28" y1="34" x2="38" y2="44" gradientUnits="userSpaceOnUse"/>
  <linearGradient xlink:href="#linearGradient4163" id="linearGradient4302" x1="16" y1="34" x2="26" y2="44" gradientUnits="userSpaceOnUse"/>
  <linearGradient xlink:href="#linearGradient4310" id="linearGradient4316" x1="24" y1="26" x2="24" y2="44" gradientUnits="userSpaceOnUse"/>
 </defs>
 <path d="m 11.00001,4 26,0 0,32 -26,0 z" style="fill:url(#linearGradient4276);fill-opacity:1;stroke-width:2.79999995;stroke-opacity:0.55"/>
 <path style="opacity:0.2;fill:url(#linearGradient4286);fill-opacity:1;fill-rule:evenodd" d="M 22,11 15,18 32.814453,36 37,36 l 0,-9.998 0,-11 -4,-4 -7,0 0,4 L 22,11 Z"/>
 <rect style="fill:#202224;stroke-width:2.79999995;stroke-opacity:0.55" height="7" y="11" x="15" width="7"/>
 <rect style="fill:#202224;stroke-width:2.79999995;stroke-opacity:0.55" height="7" y="11" x="26" width="7"/>
 <rect style="fill:#fdbc4a;stroke-width:2.79999995;stroke-opacity:0.55" height="7" y="11" x="17" width="3"/>
 <rect style="fill:#fdbc4a;stroke-width:2.79999995;stroke-opacity:0.55" height="7" y="11" x="28" width="3"/>
 <path style="fill:url(#linearGradient4316);fill-opacity:1;stroke-width:2.79999995;stroke-opacity:0.55" d="m 14.876953,20.0176 c -0.128914,0.016 -0.257008,0.058 -0.376953,0.1269 -0.479778,0.277 -0.642234,0.8855 -0.365234,1.3653 l 3.287109,5.6933 C 8.0061996,31.0931 7.9999916,43.162 8,44 l 32,0 c -8e-6,-0.8379 -0.0059,-12.9062 -9.419922,-16.7969 l 3.28711,-5.6933 C 34.144188,21.03 33.979778,20.4215 33.5,20.1445 33.020222,19.8675 32.411766,20.03 32.134766,20.5098 l -3.496094,6.0547 C 27.262641,26.2087 25.729864,26 24,26 c -1.729864,0 -3.262641,0.2087 -4.638672,0.5645 l -3.49414,-6.0547 c -0.207752,-0.3599 -0.603493,-0.5407 -0.990235,-0.4922 z"/>
 <rect style="opacity:1;fill:#ffffff;fill-opacity:1;stroke:none;stroke-width:2;stroke-linecap:butt;stroke-linejoin:round;stroke-miterlimit:4;stroke-dasharray:none;stroke-opacity:1" width="20" height="2" x="14" y="41" rx="1" ry="1"/>
 <path style="opacity:0.2;fill:url(#linearGradient4294);fill-opacity:1.0;stroke:none;stroke-width:2;stroke-linecap:butt;stroke-linejoin:round;stroke-miterlimit:4;stroke-dasharray:none;stroke-opacity:1" d="M 31.361328,34.5332 28.533203,37.3633 35.169922,44 40,44 c -10e-7,-0.1006 -0.0091,-0.4627 -0.02539,-0.8535 l -8.613281,-8.6133 z"/>
 <path style="opacity:0.2;fill:url(#linearGradient4302);fill-opacity:1;stroke:none;stroke-width:2;stroke-linecap:butt;stroke-linejoin:round;stroke-miterlimit:4;stroke-dasharray:none;stroke-opacity:1" d="m 19.357422,34.5293 -2.828125,2.8281 6.644531,6.6426 5.65625,0 -9.472656,-9.4707 z"/>
 <circle style="opacity:1;fill:#ffffff;fill-opacity:1;stroke:none;stroke-width:2;stroke-linecap:butt;stroke-linejoin:round;stroke-miterlimit:4;stroke-dasharray:none;stroke-opacity:1" cx="18" cy="36" r="2"/>
 <circle r="2" cy="36" cx="30" style="opacity:1;fill:#ffffff;fill-opacity:1;stroke:none;stroke-width:2;stroke-linecap:butt;stroke-linejoin:round;stroke-miterlimit:4;stroke-dasharray:none;stroke-opacity:1"/>
</svg>
