<?xml version="1.0" encoding="UTF-8" standalone="no"?>
<svg xmlns="http://www.w3.org/2000/svg" xmlns:xlink="http://www.w3.org/1999/xlink" width="48" height="48" viewBox="0 0 48 48" version="1.1">
 <defs>
  <linearGradient id="linearGradient4212">
   <stop style="stop-color:#000000;stop-opacity:1;" offset="0"/>
   <stop style="stop-color:#000000;stop-opacity:0;" offset="1"/>
  </linearGradient>
  <linearGradient id="linearGradient4198">
   <stop style="stop-color:#272b2d;stop-opacity:1;" offset="0"/>
   <stop style="stop-color:#3e4447;stop-opacity:1" offset="1"/>
  </linearGradient>
  <linearGradient id="linearGradient4185">
   <stop style="stop-color:#acacac;stop-opacity:1" offset="0"/>
   <stop style="stop-color:#cbcbcb;stop-opacity:1" offset="1"/>
  </linearGradient>
  <linearGradient id="linearGradient4144">
   <stop style="stop-color:#3b962d;stop-opacity:1" offset="0"/>
   <stop style="stop-color:#93d169;stop-opacity:1" offset="1"/>
  </linearGradient>
  <linearGradient xlink:href="#linearGradient4144" id="linearGradient4150" x1="25" y1="1046.362" x2="25" y2="1010.362" gradientUnits="userSpaceOnUse"/>
  <radialGradient xlink:href="#linearGradient4185" id="radialGradient4191" cx="24" cy="1025.362" fx="24" fy="1025.362" r="2" gradientTransform="matrix(1,0,0,0.9998745,0,0.12868292)" gradientUnits="userSpaceOnUse"/>
  <linearGradient xlink:href="#linearGradient4198" id="linearGradient4204" x1="24" y1="1032.362" x2="24" y2="1018.362" gradientUnits="userSpaceOnUse"/>
  <linearGradient xlink:href="#linearGradient4212" id="linearGradient4218" x1="20" y1="17" x2="38" y2="35" gradientUnits="userSpaceOnUse"/>
 </defs>
 <g transform="translate(0,-1004.3622)">
  <circle style="opacity:1;fill:url(#linearGradient4150);fill-opacity:1;stroke:none;stroke-width:4;stroke-linecap:round;stroke-linejoin:round;stroke-miterlimit:4;stroke-dasharray:none;stroke-opacity:1" cx="24" cy="1028.362" r="18"/>
  <path style="opacity:0.2;fill:url(#linearGradient4218);fill-opacity:1;stroke:none;stroke-width:4;stroke-linecap:round;stroke-linejoin:round;stroke-miterlimit:4;stroke-dasharray:none;stroke-opacity:1" d="M 26.013672 14.019531 L 23.246094 19.035156 L 17.611328 32.632812 L 15.224609 39.691406 L 15.267578 39.734375 A 18 18 0 0 0 24 42 A 18 18 0 0 0 41.316406 28.849609 L 26.013672 14.019531 z" transform="translate(0,1004.3622)"/>
  <path style="opacity:0.15;fill:#000000;fill-opacity:1;stroke:none;stroke-width:4;stroke-linecap:round;stroke-linejoin:round;stroke-miterlimit:4;stroke-dasharray:none;stroke-opacity:1" d="M 41.978516 23.414062 A 18 18 0 0 1 24 41 A 18 18 0 0 1 6.0214844 23.585938 A 18 18 0 0 0 6 24 A 18 18 0 0 0 24 42 A 18 18 0 0 0 42 24 A 18 18 0 0 0 41.978516 23.414062 z" transform="translate(0,1004.3622)"/>
  <path d="m 23.298076,1021.6314 -2.598076,1.5 13.50005,23.3828 2.798988,1.848 -0.200912,-3.348 z" style="opacity:1;fill:#dcdcdc;fill-opacity:1;stroke:none;stroke-width:4;stroke-linecap:round;stroke-linejoin:round;stroke-miterlimit:4;stroke-dasharray:none;stroke-opacity:1"/>
  <path style="fill:#c3c3c3;fill-opacity:1" d="m 35,1026.3539 c 0,4.0083 -1.191145,4.9591 -2.640665,6.6529 -0.74918,0.8632 -1.62866,1.5961 -2.63843,2.1498 -1.36808,0.7655 -3.448048,1.189 -5.125578,1.189 -1.67752,0 -3.25733,-0.4398 -4.60912,-1.189 C 19,1034.3622 17,1037.3622 18.324967,1037.7555 c 1.85668,1.0424 4.00652,1.6067 6.28665,1.6067 2.28013,0 4.930138,-0.5643 6.786808,-1.6067 0.99349,-0.5537 1.90554,-1.2377 2.70359,-2.0195 2.41042,-2.3453 3.92508,-5.7336 3.92508,-9.3655 -1.02845,-0.01 -2.115114,0 -3.027095,-0.01 z"/>
  <path style="opacity:1;fill:#c3c3c3;fill-opacity:1;stroke:none;stroke-width:4;stroke-linecap:round;stroke-linejoin:round;stroke-miterlimit:4;stroke-dasharray:none;stroke-opacity:1" d="m 24.700962,1021.6314 2.598076,1.5 -13.50005,23.3828 -2.798988,1.848 0.200912,-3.348 z"/>
  <path style="fill:url(#linearGradient4204);fill-opacity:1" d="m 27.113803,1021.3622 -1.113803,0 0,-2.9842 0,-0.016 -2.008142,0 -1.991858,0 0,0.016 0,2.9842 -1.130077,0 c -1.024388,0 -1.869918,0.8465 -1.869918,1.8592 l 0,4.8955 0.01627,0 c -0.01627,0.1608 0.08127,0.3377 0.292683,0.5466 l 3.75608,3.3129 c 0.260165,0.2572 0.601628,0.3858 0.926827,0.3858 l 0,-0.016 0.01627,0.016 c 0.341462,0 0.682925,-0.1286 0.926827,-0.3858 l 3.75608,-3.3129 c 0.211385,-0.2089 0.292683,-0.4019 0.292683,-0.5466 l 0.01627,0 0,-4.8794 c -0.01627,-1.0287 -0.84553,-1.8753 -1.886172,-1.8753 z"/>
  <path style="fill:url(#radialGradient4191);fill-opacity:1" d="m 24.006525,1027.3622 -0.01304,0 0,0 C 22.899023,1027.3622 22,1026.472 22,1025.3755 c 0,-1.0966 0.899023,-1.9868 1.993485,-1.9868 l 0,-0.026 0.01304,0.026 c 1.094462,0.013 1.993477,0.8902 1.993477,1.9868 0,1.0965 -0.899015,1.9738 -1.993477,1.9867 z"/>
 </g>
</svg>
