<svg width="48" xmlns="http://www.w3.org/2000/svg" height="48" viewBox="0 0 48 48">
 <defs>
  <linearGradient id="a" y1="542.8" y2="503.8" x2="0" gradientUnits="userSpaceOnUse" gradientTransform="translate(-384.57 504.56)">
   <stop stop-color="#f39c12"/>
   <stop offset="1" stop-color="#f5ab35"/>
  </linearGradient>
  <linearGradient id="b" y1="505.8" y2="541.8" x2="0" gradientUnits="userSpaceOnUse" gradientTransform="translate(-384.57 504.56)">
   <stop stop-color="#fffcde"/>
   <stop offset="1" stop-color="#fafac5"/>
  </linearGradient>
  <radialGradient cx="24" cy="1028.36" id="c" r="16" gradientUnits="userSpaceOnUse" gradientTransform="matrix(1.23105.00334-.00334 1.23128-2.11-237.92)">
   <stop stop-color="#f47750"/>
   <stop offset="1" stop-color="#fdbc4b"/>
  </radialGradient>
  <linearGradient id="d" y1="23.23" x1="23.701" y2="37.955" x2="37.996" gradientUnits="userSpaceOnUse">
   <stop/>
   <stop offset="1" stop-opacity="0"/>
  </linearGradient>
 </defs>
 <g stroke-linejoin="round" transform="translate(0-1004.36)">
  <g stroke-width=".5">
   <circle fill="url(#a)" cx="24" cy="1028.36" r="20"/>
   <path fill="#b97d1b" d="m43.978506 1027.7802a20.00001 20.00001 0 0 1 -19.978516 19.582 20.00001 20.00001 0 0 1 -19.978516 -19.418 20.00001 20.00001 0 0 0 -.021484 .418 20.00001 20.00001 0 0 0 20 20 20.00001 20.00001 0 0 0 20 -20 20.00001 20.00001 0 0 0 -.02148 -.582"/>
  </g>
  <g stroke-width="2">
   <path opacity=".2" fill="url(#d)" d="m36.541 11.08c-10.01 6.974-25.22 25.691-25.22 25.691l6.08 6.08a20.00001 20.00001 0 0 0 6.601562 1.144531 20.00001 20.00001 0 0 0 20 -20 20.00001 20.00001 0 0 0 -1.144531 -6.601562z" transform="translate(0 1004.36)"/>
   <circle fill="url(#b)" cx="24" cy="1028.36" r="18" stroke-linecap="round"/>
   <path fill="url(#c)" d="m24 1012.36c-3 0-5 2-5 2 0 0 1.193 4.052 2 6 .856 2.066 3 6 3 6 0 0 2.144-3.934 3-6 .807-1.948 2-6 2-6 0 0-2-2-5-2m-6.363 2.564c0 0-2.83 0-4.951 2.121-2.121 2.121-2.121 4.951-2.121 4.951 0 0 3.71 2.02 5.658 2.828 2.066.856 6.363 2.121 6.363 2.121 0 0-1.265-4.297-2.121-6.363-.807-1.948-2.828-5.658-2.828-5.658m12.727 0c0 0-2.02 3.71-2.828 5.658-.856 2.066-2.121 6.363-2.121 6.363 0 0 4.297-1.265 6.363-2.121 1.948-.807 5.658-2.828 5.658-2.828 0 0 0-2.83-2.121-4.951-2.121-2.121-4.951-2.121-4.951-2.121m-20.363 8.436c0 0-2 2-2 5 0 3 2 5 2 5 0 0 4.052-1.193 6-2 2.066-.856 6-3 6-3 0 0-3.934-2.144-6-3-1.948-.807-6-2-6-2m28 0c0 0-4.052 1.193-6 2-2.066.856-6 3-6 3 0 0 3.934 2.144 6 3 1.948.807 6 2 6 2 0 0 2-2 2-5 0-3-2-5-2-5m-15.414 6.414c0 0-4.297 1.265-6.363 2.121-1.948.807-5.658 2.828-5.658 2.828 0 0 0 2.83 2.121 4.951 2.121 2.121 4.951 2.121 4.951 2.121 0 0 2.02-3.71 2.828-5.658.856-2.066 2.121-6.363 2.121-6.363m2.828 0c0 0 1.265 4.297 2.121 6.363.807 1.948 2.828 5.658 2.828 5.658 0 0 2.83 0 4.951-2.121 2.121-2.121 2.121-4.951 2.121-4.951 0 0-3.71-2.02-5.658-2.828-2.066-.856-6.363-2.121-6.363-2.121m-1.414.586c0 0-2.144 3.934-3 6-.807 1.948-2 6-2 6 0 0 2 2 5 2 3 0 5-2 5-2 0 0-1.193-4.052-2-6-.856-2.066-3-6-3-6"/>
  </g>
 </g>
</svg>
