<?xml version="1.0" encoding="UTF-8" standalone="no"?>
<svg xmlns="http://www.w3.org/2000/svg" xmlns:xlink="http://www.w3.org/1999/xlink" width="48" height="48" viewBox="0 0 48 48" version="1.1">
 <defs>
  <linearGradient id="linearGradient4177">
   <stop style="stop-color:#000000;stop-opacity:1;" offset="0"/>
   <stop style="stop-color:#000000;stop-opacity:0;" offset="1"/>
  </linearGradient>
  <linearGradient id="linearGradient4141">
   <stop style="stop-color:#d8610f;stop-opacity:1" offset="0"/>
   <stop style="stop-color:#eab355;stop-opacity:1" offset="1"/>
  </linearGradient>
  <linearGradient xlink:href="#linearGradient4141" id="linearGradient4151" gradientUnits="userSpaceOnUse" x1="25" y1="44" x2="25" y2="4" gradientTransform="translate(5e-6,0)"/>
  <linearGradient xlink:href="#linearGradient4177" id="linearGradient4183" x1="16" y1="1018.362" x2="44" y2="1046.362" gradientUnits="userSpaceOnUse" gradientTransform="translate(0,-1004.3622)"/>
 </defs>
 <rect style="opacity:1;fill:url(#linearGradient4151);fill-opacity:1;stroke:none" width="40" height="40" x="4" y="4" ry="3" rx="3"/>
 <path style="opacity:0.2;fill:url(#linearGradient4183);fill-opacity:1;stroke:none;stroke-width:2;stroke-linecap:butt;stroke-linejoin:round;stroke-miterlimit:4;stroke-dasharray:none;stroke-opacity:1" d="m 25.308589,11.3301 -14.115235,14.1152 5.667969,5.666 -2.05664,2.0567 L 25.636714,44 40.999995,44 c 1.662,0 3,-1.338 3,-3 l 0,-15.293 -10.867188,-10.8672 -2.15625,2.1563 -5.667968,-5.666 z"/>
 <path style="opacity:0.15;fill:#000000;fill-opacity:1" d="m 3.999995,40 0,1 c 0,1.662 1.338,3 3,3 l 34,0 c 1.662,0 3,-1.338 3,-3 l 0,-1 c 0,1.662 -1.338,3 -3,3 l -34,0 c -1.662,0 -3,-1.338 -3,-3 z"/>
 <path style="opacity:1;fill:#ffffff;fill-opacity:1;fill-rule:nonzero;stroke:none;stroke-width:10.89999962;stroke-miterlimit:4;stroke-dasharray:none;stroke-opacity:0.50273222" d="m 23.607415,11.002 c -0.72528,0.027 -1.12297,0.2699 -1.38281,0.7929 -0.1667,0.3356 -0.30258,0.8943 -0.30273,1.2422 -5.4e-4,1.2763 -1.28975,2.4414 -2.70313,2.4414 -0.6935,0 -1.07422,-0.1905 -2.47852,-1.2422 -0.63918,-0.4787 -1.04342,-0.3552 -2.03515,0.6211 -0.9422,0.9277 -0.9651,1.3715 -0.13086,2.4785 0.34476,0.4576 0.69349,1.0681 0.77539,1.3575 0.20259,0.7155 -0.12946,2.0252 -0.66211,2.6074 -0.43658,0.4772 -1.5195,0.8496 -2.46484,0.8496 -0.89895,0 -1.22266,0.5113 -1.22266,1.9277 0,1.1029 0.0417,1.2529 0.41992,1.5039 0.23112,0.1535 0.89977,0.3477 1.48633,0.4317 0.58659,0.084 1.26284,0.2827 1.50195,0.4414 0.50483,0.3351 1.09071,1.5349 1.09571,2.2461 0.004,0.5163 -0.39315,1.4288 -0.80274,1.8437 -0.44642,0.4522 -0.77384,1.2751 -0.65625,1.6504 0.15065,0.4808 1.17075,1.5094 1.69922,1.7129 0.30269,0.1166 0.52332,0.083 0.81641,-0.125 0.85907,-0.6095 2.32831,-1.2715 2.82422,-1.2715 0.74764,0 1.98779,0.66 2.25976,1.2031 0.12804,0.2558 0.28767,0.8509 0.35547,1.3223 0.16437,1.1433 0.42541,1.6825 0.86133,1.7754 0.19818,0.042 0.51634,0.1125 0.70703,0.1563 l 0,0 c 0.19069,0.045 0.6194,0.045 0.95312,0 0.87043,-0.1169 1.33428,-0.7653 1.48047,-2.0704 0.13367,-1.1933 0.24434,-1.3853 1.12305,-1.9472 0.89229,-0.5706 1.59085,-0.6819 2.27734,-0.3633 0.56919,0.2642 0.79877,0.4009 1.73243,1.0234 0.68408,0.4562 1.10963,0.3799 1.90039,-0.3437 1.18898,-1.0881 1.2138,-1.5598 0.14843,-2.8028 -1.01411,-1.183 -1.02637,-2.6398 -0.0293,-3.7578 0.38182,-0.4281 0.72453,-0.5767 1.85547,-0.8027 1.70756,-0.3412 1.98523,-0.62 1.99023,-2.0059 0.005,-1.3842 -0.21502,-1.6102 -1.81836,-1.8613 -1.5256,-0.2389 -2.01475,-0.5829 -2.55078,-1.791 -0.44569,-1.0045 -0.32223,-1.5935 0.62891,-2.9727 0.48775,-0.7072 0.72992,-1.2238 0.67382,-1.4414 -0.12537,-0.4856 -1.70452,-1.9336 -2.10937,-1.9336 -0.18748,0 -0.68681,0.269 -1.10938,0.5957 -1.16562,0.9014 -1.86079,1.105 -2.85742,0.8379 -1.17104,-0.3137 -1.58705,-0.8089 -1.88281,-2.2382 -0.33967,-1.6415 -0.55907,-1.9366 -1.52539,-2.0469 -0.32197,-0.037 -0.60004,-0.052 -0.8418,-0.043 z"/>
 <path style="opacity:1;fill:#e89643;fill-opacity:1;fill-rule:nonzero;stroke:none;stroke-width:10.89999962;stroke-miterlimit:4;stroke-dasharray:none;stroke-opacity:0.50273222" d="m 23.999995,19 a 5,5 0 0 1 5,5 5,5 0 0 1 -5,5 5,5 0 0 1 -5,-5 5,5 0 0 1 5,-5 z"/>
</svg>
