<svg width="48" xmlns="http://www.w3.org/2000/svg" height="48" xmlns:xlink="http://www.w3.org/1999/xlink">
 <defs>
  <linearGradient id="a" y1="32.998" x1="34.5" y2="11.998" gradientUnits="userSpaceOnUse" x2="11.786">
   <stop stop-color="#dd1627"/>
   <stop offset="1" stop-color="#df3e52"/>
  </linearGradient>
  <linearGradient id="b" y1="10.38" x1="46.23" y2="35.663" x2="73.03" gradientUnits="userSpaceOnUse" gradientTransform="translate(-52)">
   <stop stop-color="#f8bac0" stop-opacity=".731"/>
   <stop offset="1" stop-color="#f8bac0" stop-opacity="0"/>
  </linearGradient>
  <path id="c" d="m.735 43.06l23.265-42.35 23.09 42.31c0 0-2.212-.155-5.272-.291-2.851-.127-1.794.114-8.278-1.089-4.911-.91-8.522-2.865-15.253-2.727-7.453.153-17.549 4.149-17.549 4.149"/>
 </defs>
 <use fill="#85151f" xlink:href="#c"/>
 <g color="#000000">
  <path fill="url(#a)" d="m6.03 37.701l17.947-32.938 19.246 35.625c0 0 .111.275-.39.133-.471-.134-.874-.529-1.362-.487-.411.035-.656.63-1.063.565-.582-.093-.88-1.202-1.469-1.185-.519.015-.391 1.01-1.166 1.072-.687.058-.575-1.827-1.267-1.885-.469-.039-.574 1.942-1.156 1.941-.616 0 .025-2.85-.863-2.897-.695-.037-.313 2.501-.937 2.504-.861.004-.13-4.157-1.192-4.139-.755.012.057 3.851-.926 3.839-.905-.011-.033-5.941-1.049-5.869-.838.059.103 5.304-.819 5.326-1.117.026-.005-7.306-1.114-7.315-.981-.009-.102 6.486-1 6.486-1.094 0 .003-8.38-1.037-8.435-1.132-.06.277 8.418-.957 8.409-1.191-.009.34-10.639-1.04-10.741-1.13-.083.309 9.951-.851 9.995-1.218.046.368-11.688-1.073-11.691-1.055-.003.074 11.242-1.019 11.4-1.01-.223.202-12.413-.978-12.417-1.218-.004.206 12.12-1.055 12.148-1.057.014.449-12.166-.939-12.12-1.276.038.049 12.07-1 12.05-1.132-.013.29-11.13-.979-11.06-.967.5-.037 8.599-.965 11.171-1.017-1.01.073-7.962-1.058-9.186-.928 1.336-.202 9.355-.957 9.385-.927.045-.045-6.291-1.039-6.351-.595-.036-.911 7.177-1.64 7.205-.847.085-.754-4.057-1.34-4.044-.679.087-.501 4.532-1.392 4.543-.512.122-.636-1.752-1.094-1.708-.411.039-.488 1.971-1.167 2.319-.621.084-.319-.592.164-1.647"/>
  <use fill="url(#b)" xlink:href="#c"/>
 </g>
</svg>
