<svg width="48" xmlns="http://www.w3.org/2000/svg" height="48" xmlns:xlink="http://www.w3.org/1999/xlink">
 <defs>
  <linearGradient id="a" y1="543.8" y2="503.8" x2="0" gradientUnits="userSpaceOnUse" gradientTransform="matrix(1.125 0 0 1-51.07 0)">
   <stop stop-color="#c6cdd1"/>
   <stop offset="1" stop-color="#e0e5e7"/>
  </linearGradient>
  <linearGradient id="b" y1="543.8" y2="503.8" x2="0" gradientUnits="userSpaceOnUse">
   <stop stop-color="#1d1e1e"/>
   <stop offset="1" stop-color="#44484c"/>
  </linearGradient>
  <linearGradient xlink:href="#a" id="c" y1="506.8" y2="504.8" x2="0" gradientUnits="userSpaceOnUse"/>
  <linearGradient xlink:href="#a" id="d" y1="508.8" y2="506.8" gradientUnits="userSpaceOnUse" x2="0"/>
  <linearGradient xlink:href="#a" id="e" y1="510.8" y2="508.8" gradientUnits="userSpaceOnUse" x2="0"/>
  <linearGradient xlink:href="#a" id="f" y1="512.8" y2="510.8" gradientUnits="userSpaceOnUse" x2="0"/>
  <linearGradient xlink:href="#a" id="g" y1="514.8" y2="512.8" gradientUnits="userSpaceOnUse" x2="0"/>
  <linearGradient xlink:href="#a" id="h" y1="516.8" y2="514.8" gradientUnits="userSpaceOnUse" x2="0"/>
  <linearGradient xlink:href="#a" id="i" y1="518.8" y2="516.8" gradientUnits="userSpaceOnUse" x2="0"/>
  <linearGradient xlink:href="#a" id="j" y1="520.8" y2="518.8" gradientUnits="userSpaceOnUse" x2="0"/>
  <linearGradient xlink:href="#a" id="k" y1="523.8" y2="520.8" gradientUnits="userSpaceOnUse" x2="0"/>
  <linearGradient xlink:href="#a" id="l" y1="33" y2="25" x2="0" gradientUnits="userSpaceOnUse"/>
  <linearGradient id="m" y1="7" x1="10" y2="32" x2="35" gradientUnits="userSpaceOnUse">
   <stop stop-color="#383e51"/>
   <stop offset="1" stop-color="#655c6f" stop-opacity="0"/>
  </linearGradient>
 </defs>
 <g transform="translate(-384.57-499.8)">
  <g stroke-opacity=".55" stroke-width="2.8">
   <rect width="36" x="390.57" y="503.8" fill="url(#a)" height="40"/>
   <rect width="8" x="404.57" y="503.8" fill="url(#b)" height="40"/>
  </g>
  <path opacity=".2" fill="url(#m)" fill-rule="evenodd" d="m28 7v3h-3l3 3v1h-3l3 3v1h-3l3 3v1h-3l17 17v-18l-2-2zm-2 18v4h-1v4h-2l11 11h8v-3l-2-2z" transform="translate(384.57 499.8)"/>
  <g stroke-opacity=".55" stroke-width="2.8">
   <path fill="url(#c)" d="m404.57 504.8v3h3v-1h1v-1h-1v-1z"/>
   <path fill="url(#d)" d="m412.57 506.8v3h-3v-1h-1v-1h1v-1z"/>
   <path fill="url(#e)" d="m404.57 508.8v3h3v-1h1v-1h-1v-1z"/>
   <path fill="url(#f)" d="m412.57 510.8v3h-3v-1h-1v-1h1v-1z"/>
   <path fill="url(#g)" d="m404.57 512.8v3h3v-1h1v-1h-1v-1z"/>
   <path fill="url(#h)" d="m412.57 514.8v3h-3v-1h-1v-1h1v-1z"/>
   <path fill="url(#i)" d="m404.57 516.8v3h3v-1h1v-1h-1v-1z"/>
   <path fill="url(#j)" d="m412.57 518.8v3h-3v-1h-1v-1h1v-1z"/>
   <path fill="url(#k)" d="m404.57 520.8v3h3v-1h1v-1h-1v-1z"/>
   <path fill="url(#l)" d="m22 25v4h1v4h2v-4h1v-4zm1 1h2v2h-2z" transform="translate(384.57 499.8)"/>
   <rect width="36" x="390.57" y="542.8" fill="#99a1a7" height="1"/>
  </g>
 </g>
</svg>
