<svg width="48" xmlns="http://www.w3.org/2000/svg" height="48" xmlns:xlink="http://www.w3.org/1999/xlink">
 <defs>
  <linearGradient id="a" y1="49.849" x1="88.5" y2="2.602" gradientUnits="userSpaceOnUse" x2="38.19" gradientTransform="matrix(.52778 0 0 .5 361.46 497.53)">
   <stop stop-color="#046526"/>
   <stop offset="1" stop-color="#22d156"/>
  </linearGradient>
  <linearGradient id="b" y1="-434.3" x1="-424.95" y2="-426.88" gradientUnits="userSpaceOnUse" x2="-415.03" gradientTransform="matrix(.99522.0977-.0977.99522 387.52 478.56)">
   <stop/>
   <stop offset="1" stop-opacity="0"/>
  </linearGradient>
  <linearGradient id="c" y1="546.23" x1="429.98" y2="529.92" gradientUnits="userSpaceOnUse" x2="413.68">
   <stop stop-color="#633677"/>
   <stop offset="1" stop-color="#824bac"/>
  </linearGradient>
  <linearGradient xlink:href="#b" id="d" y1="-434.3" x1="-424.95" y2="-426.88" gradientUnits="userSpaceOnUse" x2="-415.03" gradientTransform="matrix(.99522.0977-.0977.99522 799.06 1009.51)"/>
  <linearGradient id="e" y1="541.8" y2="505.8" gradientUnits="userSpaceOnUse" x2="0">
   <stop stop-color="#2e62f2"/>
   <stop offset="1" stop-color="#29cdfa"/>
  </linearGradient>
  <linearGradient id="f" y1="528.56" x1="414.75" y2="518.69" gradientUnits="userSpaceOnUse" x2="399.4">
   <stop stop-color="#292c2f"/>
   <stop offset="1" stop-opacity="0"/>
  </linearGradient>
  <linearGradient xlink:href="#f" id="g" y1="519.31" x1="417.57" y2="528.31" gradientUnits="userSpaceOnUse" x2="426.57"/>
  <linearGradient id="h" y1="541.8" y2="505.8" gradientUnits="userSpaceOnUse" x2="0">
   <stop stop-color="#7cbaf8"/>
   <stop offset="1" stop-color="#f4fcff"/>
  </linearGradient>
 </defs>
 <g transform="translate(-384.57-499.8)">
  <g transform="matrix(.94445 0 0 .94445 22.698 29.1)">
   <rect width="36" x="390.57" y="505.8" fill="url(#e)" rx="18" height="36"/>
   <g fill-rule="evenodd">
    <path opacity=".2" fill="url(#f)" d="m411.91 506.12l-3.824.49-5.316 3.069-1.931 3.345c0 0-2.538 1.788-2.92 1.685-3.236-.038-4.974.855-5.889 1.989-.387.904-.69 1.851-.927 2.825-.006.978.208 1.738.208 1.738 9.08 8.172 18.16 11.695 27.23 17.54.572-.38 1.117-.792 1.64-1.233.03-.025.058-.052.088-.078.463-.396.904-.818 1.323-1.258.093-.097.18-.199.271-.299.363-.399.711-.812 1.037-1.243.074-.097.147-.195.218-.294.354-.488.687-.993.992-1.517.023-.039.048-.076.07-.116 1.369-2.396 2.203-5.141 2.345-8.08 0-.008.002-.017.003-.025v-.003l-2.345-9.819c-2.571-4.485-7.01-7.741-12.277-8.721"/>
    <path opacity=".2" fill="url(#g)" d="m425.3 517.17l-5.537 8.563 5.296 5.296c.966-2.211 1.512-4.652 1.512-7.227 0-2.347-.46-4.579-1.271-6.632"/>
   </g>
   <path fill="url(#h)" d="m408.32 505.81c-1.379.019-2.714.198-4 .507-.338.304-.838.458-1.399.442-.201.192-.154.55-.264.814-.092.221-.416.458-.638.439-.164-.014-.351-.244-.352-.397-.001-.184.256-.287.116-.492-1.433.581-2.766 1.347-3.985 2.258.327-.12.688-.323.984-.329.049-.001.094.004.138.015.199.052.724.627.286.814-.041.018-.642.083-.746.065-.152-.026-.243-.236-.397-.264-.258-.045-.586.223-.809.103-2.453 1.98-4.356 4.596-5.497 7.599.105-.061.212-.124.306-.173.321-.167.593-.437.967-.462.187-.004.456.05.635.088.165.034.299.145.442.156.406.031.502-.285.834-.462.342.048.57-.057.879-.023.211.023.363.249.527.261.138.014.261-.128.394-.108.13.02.353.303.374.462.027.198-.145.376-.088.593.207.211.583.253.879.374.193-.159.026-.453 0-.683-.004-.101.014-.191 0-.284-.018-.158-.087-.304-.088-.439-.004-.625.505-.918.924-1.165.182-.108.325-.295.482-.374.222-.112.388-.138.573-.241.333-.187.619-.338.879-.55.12-.284.013-.664.023-.944.12-.074.224.033.352.023.201-.042.218-.326.331-.439.066-.065.247-.111.329-.176.2-.157.265-.394.439-.462.063-.025.208-.019.306-.045.13-.035.315-.189.527-.261.138-.048.455-.058.507-.11.065-.066 0-.252.023-.352.107-.496.854-.601 1.296-.768.31-.117.627-.332.967-.266-.067.236-.383.153-.329.439.074.397.605-.115.746-.173.268-.113.728-.181 1.08-.309.308-.113.861-.285.57-.638-.242-.014-.359.284-.57.374-.146.023-.119-.121-.244-.133-.118-.014-.185.109-.306.088-.121-.02-.29-.21-.309-.352-.048-.367.31-.517.462-.791-.1-.332-.559-.069-.836-.198.026-.198.231-.334.462-.372.189-.032.613-.015.726.085.065.055.005.194.11.286.112.101.249.092.394.068.053-.25-.325-.188-.284-.354.297-.194.779-.034 1.143-.088.209-.031.43-.179.615-.284.176-.1.406-.275.593-.11.051.179-.164.24-.264.329-.336.299-.683.642-.944.989.16.156.452.078.723.11.106.014.239.046.352.065.131.023.272.016.374.043.185.045.234.244.417.244.301-.001.303-.327.133-.53.054-.207.138-.314.065-.46-.135-.271-.632-.014-.658-.352-.016-.219.184-.21.264-.374-.036-.423.347-.454.306-.834-.018-.159-.153-.16-.264-.309-.058-.076-.084-.227-.153-.286-.23-.194-.697-.157-.726-.527-.004-.125.014-.238.025-.357-.212-.01-.421-.03-.635-.033zm-8.563 4.312c.103.014.227.124.352.133.117.004.214-.064.286-.045.184.048.261.326.088.462-.144.018-.201-.062-.309-.043-.298.051-.412.635-.635.615-.21-.018-.324-.53-.11-.683.014-.133-.097-.155-.09-.286.063-.081.244-.168.419-.153m-.989.068c.061.003.107.016.131.043-.029.234-.213.22-.394.329-.312.189-.493.476-.593.879-.029.117-.336.428-.485.397-.348-.073.096-.716.176-.814.088-.108.205-.204.309-.329.1-.121.167-.284.264-.352.106-.073.409-.16.593-.153m2.602.791c.112.003.21.02.256.065-.072.29-.695.213-.924.108.015-.109.185-.139.329-.153.101-.004.228-.023.339-.02m-1.424.535c.074-.003.15.014.229.035-.202.169-.421.264-.768.374-.167.053-.456.119-.485-.068-.035-.229.244-.175.397-.196.192-.026.403-.138.628-.146m22.08.326c.017.165.019.322-.025.5-.06.238-.274.454-.264.66.014.106.13.208.156.352.014.076-.036.24 0 .309.112.216.416.033.615.065.194.031.419.31.417.527-.003.152-.145.404-.241.55-.192.291-.451.304-.726.46-.229.13-.328.347-.462.573-.146.244-.236.392-.176.746-.196.39-.495.628-.902.814-.12.054-.284.073-.394.153-.088.063-.139.234-.264.374-.154.172-.316.243-.397.374-.063.101-.084.304-.153.439-.094.185-.294.275-.417.462-.056.087-.094.261-.156.374-.139.253-.377.435-.352.658.026.215.27.252.286.439.004.106-.07.171-.065.286.004.169.117.287.131.417.033.326-.112.457-.173.681-.029.107-.017.226-.045.309-.054.163-.282.312-.286.505-.003.137.142.247.153.439.004.133-.066.275-.043.397.047.239.475.517.66.703.249.249.573.441.681.703.09.222.09.513.264.681.128.124.341.2.505.329.153.12.321.224.485.352.268.209.671.627 1.097.595.223-.016.451-.199.703-.244.26-.046.597-.07.859-.043.201.02.407.14.615.131.22-.014.473-.177.723-.286.396-.172.971-.386 1.549-.354.111-.81.188-1.632.188-2.473 0-3.406-.953-6.574-2.584-9.284-.076-.005-.145-.016-.229-.013-.223.014-.589.014-.593-.264-.002-.228.215-.278.475-.294-.486-.743-1.03-1.441-1.617-2.102m-27.475 8.247c-.365.02-.604.037-.811.131-.476.216-.384.86-.859 1.012-.164.053-.389.054-.57.088-.156.028-.346.114-.507.111-.19-.004-.522-.187-.635-.309-.078-.084-.205-.379-.289-.575-.115.633-.194 1.277-.241 1.931.039.007.08.018.113.018.208.001.431-.215.66-.221.539-.015.773.686 1.208.902.109.054.253.057.394.088.114.025.199.073.309.11.232.079.517.07.703.153.28.124.485.65.726.791.014.142-.026.334.023.439.114.154.275.12.462.221.224.121.292.432.505.527.073.033.258.03.374.065.291.088.386.425.635.352.164-.048.152-.218.178-.374.108-.117.226-.303.394-.306.273-.014.297.282.397.547.056.15.203.281.241.439.068.273.035 1.09-.023 1.253-.069.2-.34.285-.507.507-.079.104-.116.256-.176.329-.108.131-.269.165-.349.286-.046.068-.089.214-.133.306-.132.28-.309.478-.198.814.046.138.263.232.264.394.001.191-.408.363-.439.573-.023.156.126.435.176.638.036.153.326.249.417.352.154.173.278.418.419.635.279.428.497.949.768 1.364.143.217.344.412.439.638.049.114.043.249.088.352.157.355.85.726 1.208.902.168.082.354.111.507.196.233.13.693.479.811.683.105.184.17.63.221.922.068.386.004.682.023 1.1.014.226.085.454.088.681.001.079-.042.138-.045.218-.004.274.069.583.045.859-.002.059-.008.104-.018.156 2.157.91 4.53 1.414 7.03 1.414.261 0 .515-.029.773-.04.005-.041.012-.082.02-.116.08-.223.285-.297.417-.462.1-.124.146-.27.241-.394.103-.135.196-.255.264-.374.065-.401-.16-.681-.065-1.032.105-.395.65-.636 1.032-.814.132-.061.267-.161.374-.198.265-.092.594-.042.836-.131.412-.151.455-.592.658-.967.096-.178.222-.356.241-.482.016-.114-.041-.22-.023-.354.02-.133.139-.248.176-.394.048-.19.068-.468.068-.681 0-.174-.081-.328-.088-.485-.028-.57.206-.634.417-.944.106-.154.145-.329.218-.439.354-.528.969-.783.924-1.582-.015-.264-.18-.862-.374-.947-.111-.048-.366-.004-.527-.065-.519-.194-.825-.838-1.364-.879-.115-.014-.22.047-.349.045-.213-.014-.535-.149-.771-.176-.15-.016-.349.044-.439 0-.137-.067-.152-.319-.264-.394-.089-.061-.26-.081-.394-.133-.216-.083-.388-.181-.638-.198-.077-.004-.174.037-.264.023-.138-.023-.247-.186-.374-.264-.16-.097-.308-.145-.374-.284.144-.473-.255-.605-.352-.879-.046-.128-.025-.282-.065-.397-.057-.164-.219-.258-.397-.394-.318-.245-.6-.474-1.055-.53-.2-.025-.396.06-.638.045-.256-.016-.577-.241-.768-.46-.186-.214-.277-.405-.439-.507-.154-.099-.357-.096-.462-.196-.047-.044-.038-.118-.088-.221-.077-.16-.207-.248-.111-.439-.175-.09-.18.166-.372.133-.171-.242-.315-.357-.703-.286-.178.033-.278.258-.485.264-.17.014-.303-.189-.527-.221-.169-.023-.362.046-.482.023-.188-.037-.245-.194-.417-.306-.126-.082-.369-.223-.439-.221-.221.014-.378.47-.683.309-.148-.188.241-.287.065-.462-.133-.133-.245.06-.352.133-.122.084-.237.169-.372.218-.302.113-.49.054-.726.176-.218.113-.228.303-.352.527-.101.184-.333.451-.485.462-.184.014-.36-.257-.527-.329-.503-.218-.747.193-1.165.198-.388.014-.941-.625-.922-.989.004-.222.127-.561.153-.836.023-.219.173-.35.176-.55.004-.267-.354-.473-.527-.505-.411-.076-.981.166-1.451-.023-.09-.149.105-.252.156-.397.028-.082.013-.193.043-.284.052-.14.198-.248.264-.397.049-.113.061-.276.11-.417.057-.16.163-.262.176-.374.016-.148-.04-.319-.156-.417m5.876 4.653c.149.014.167.322.015.347-.164.026-.247-.258-.088-.331.027-.014.051-.016.073-.015"/>
  </g>
  <g transform="translate(2 2)">
   <g color="#000000">
    <path fill="url(#a)" d="m385.57 500.8v15h9l6 5v-5h5v-15z"/>
    <path opacity=".2" fill="url(#b)" d="m11.375 4.875l6.5 5.688v4.063h-5.875l-2.375-3 .875-.713 2.796 3.374-.063-.875-3.252-3.612 1.088-2.202-2.051-1.927.919-.919z" transform="translate(384.57 499.8)"/>
   </g>
   <path fill="#68ff88" d="m388.79 484.34c0-.681-.344-1.021-1.031-1.021-.4 0-.821.137-1.263.411l-.174-.595c.439-.3.949-.45 1.529-.45.494 0 .905.124 1.234.373.355.271.532.69.532 1.258 0 .477-.155.931-.465 1.36-.142.194-.287.387-.436.581-.387.5-.666 1.031-.837 1.592h-.436c.023-.5.189-1.024.498-1.573.129-.229.258-.452.387-.668.306-.513.46-.936.46-1.268m-.731 5.415c-.094.103-.231.155-.411.155-.181 0-.319-.052-.416-.155-.094-.106-.14-.234-.14-.382 0-.148.047-.274.14-.377.097-.103.236-.155.416-.155.181 0 .318.052.411.155.094.103.14.231.14.382 0 .148-.047.274-.14.377" transform="translate(7.081 21.779)"/>
  </g>
  <g transform="translate(-2-2)">
   <g color="#000000">
    <path fill="url(#c)" d="m431.57 546.8v-15h-9l-6-5v5h-5v15z"/>
    <path opacity=".2" fill="url(#d)" d="m422.07 535.64l6.719 5.75.625 4.188h-5.875l-2.375-3 .875-.713 2.796 3.374-.063-.875-3.252-3.612-.325-5.05z"/>
   </g>
   <path fill="#d485ff" d="m410.54 487.64c-.094.106-.231.16-.411.16-.181 0-.319-.055-.416-.165-.094-.113-.14-.244-.14-.392 0-.148.047-.277.14-.387.097-.11.236-.165.416-.165.181 0 .318.055.411.165.097.11.145.24.145.392 0 .152-.048.282-.145.392m-.576-1.926l-.281-4.467v-.576h.852v.576l-.252 4.467h-.319" transform="translate(11.49 54.978)"/>
  </g>
 </g>
</svg>
