<svg width="48" xmlns="http://www.w3.org/2000/svg" height="48" xmlns:xlink="http://www.w3.org/1999/xlink">
 <defs>
  <linearGradient id="a" y1="38" y2="13" x2="0" gradientUnits="userSpaceOnUse" gradientTransform="matrix(1.0069 0 0 1.02209-37.23 5.249)">
   <stop stop-color="#8e44ad"/>
   <stop offset="1" stop-color="#9b59b6"/>
  </linearGradient>
  <linearGradient id="b" y1="37.956" x1="-2.994" y2="-.883" x2="-41.26" gradientUnits="userSpaceOnUse" gradientTransform="translate(0-1.022)">
   <stop stop-color="#34495e"/>
   <stop offset="1" stop-color="#1c7865"/>
  </linearGradient>
  <linearGradient id="c" y1="9.178" x1="-14.65" y2="17.522" x2="-6.43" gradientUnits="userSpaceOnUse" gradientTransform="translate(1.01-1.022)">
   <stop/>
   <stop offset="1" stop-opacity="0"/>
  </linearGradient>
  <linearGradient xlink:href="#c" id="d" y1="9.268" x1="-28.756" y2="27.436" x2="-10.858" gradientUnits="userSpaceOnUse" gradientTransform="translate(0-1.022)"/>
  <linearGradient id="e" y1="-.883" x1="-41.26" y2="37.956" x2="-2.994" gradientUnits="userSpaceOnUse" gradientTransform="translate(-1.01-1.022)">
   <stop stop-color="#66b036"/>
   <stop offset="1" stop-color="#239161"/>
  </linearGradient>
 </defs>
 <g transform="matrix(.99317 0 0 .97839 45.973 4.864)">
  <path fill="url(#e)" stroke-linejoin="bevel" stroke-width="2" d="m-36.03-.883c-2.894 0-5.137 2.332-5.223 5.224v33.615h33.04c2.894 0 5.223-2.331 5.223-5.224v-33.615z"/>
  <g fill-rule="evenodd" stroke-width="1.014">
   <path opacity=".2" fill="url(#d)" d="m-29.17 6.271l-3.02 4.088 2.458 17.375 3.02 2.044-1.074 2.044 4.332 4.398 13.01-1.912c.487-.085.946-.297 1.363-.603l-5.54-8.686.794-9.199-9.06-9.199z"/>
   <path opacity=".2" fill="url(#c)" d="m-12.06 7.293l-3.02 20.442 6.751 6.853c1.063-.939 2.311-3.634 2.311-5.304v-15.858z"/>
  </g>
  <g stroke-linejoin="bevel" stroke-width="2">
   <path fill="#ffffff" d="m-27.16 5.249c-4.03 0-7.05 2.044-7.05 11.754 0 8.01 2.149 10.798 5.086 11.53.524 6.17 6.997 4.312 6.997 4.312v-2.044c0 0-2.611.88-2.975-2.29 2.888-.769 4.989-3.586 4.989-11.508 0-9.71-3.02-11.754-7.05-11.754m0 2.044c2.01 0 3.02 1.689 3.02 9.71 0 8.02-1.01 9.71-3.02 9.71-2.01 0-3.02-1.689-3.02-9.71 0-8.02 1.01-9.71 3.02-9.71"/>
   <path fill="url(#b)" d="m-2.994 31.71c0 2.894-2.329 5.224-5.223 5.224h-33.04v1.022h33.04c2.894 0 5.223-2.331 5.223-5.224z"/>
  </g>
  <path fill="#ffffff" fill-rule="evenodd" stroke-width="1.014" d="m-15.08 7.293h3.02v4.088h2.01v2.044h-2.01v11.243c0 2.044 2.01.511 2.01.511v2.044c0 0-6.04 3.577-6.04-2.555v-11.243h-1.01v-2.044h1.01z"/>
  <path fill="url(#a)" stroke-linejoin="round" stroke-width="2" d="m-6.01 18.536c-1.958 0-3.786.697-5.074 2-1.288 1.307-1.974 3.163-1.974 5.15h4.03c0-1.079.32-1.778.794-2.26.474-.481 1.163-.806 2.226-.806 1.063 0 1.752.325 2.226.806.474.481.794 1.181.794 2.26 0 .937-.182 1.336-.425 1.689-.243.353-.641.687-1.233 1.108-.592.421-1.379.906-2.106 1.767-.727.861-1.27 2.165-1.27 3.613v1.022h4.03v-1.022c0-.596.084-.697.301-.954.217-.257.691-.603 1.357-1.076.666-.473 1.527-1.098 2.228-2.118.701-1.02 1.148-2.41 1.148-4.03 0-1.987-.687-3.843-1.974-5.15-1.288-1.307-3.116-2-5.074-2m-2.01 18.398v4.088h4.03v-4.088z"/>
  <g fill="#713e88" color-rendering="auto" color-interpolation-filters="linearRGB" shape-rendering="auto" image-rendering="auto" text-rendering="auto" color-interpolation="sRGB">
   <g color="#4d4d4d">
    <rect width="1.01" x="-5.01" y="36.93" height="4.088"/>
    <rect width="1.01" x="-5.01" y="33.87" height="1.022"/>
   </g>
   <path fill-rule="evenodd" color="#000000" d="m-6.01 18.536c.279-.007.585.014.901.056-.297-.033-.596-.056-.901-.056m1.025.074c1.01.153 2.126.555 2.995 1.268 1.18.967 1.949 3.452 2.01 5.821 0 .002 0 .003 0 .004.014 1.514-.408 2.808-1.231 3.937-.374.513-1.281 1.069-2.124 1.691-.422.311-.831.644-1.148 1.056-.318.412-.541.924-.521 1.499l1.01-.036c.002-.577.086-.682.301-.936.217-.257.691-.603 1.357-1.076.666-.473 1.527-1.098 2.228-2.118.175-.255.335-.533.476-.832.137-.291.254-.605.352-.934.025-.085.039-.175.061-.262.07-.269.138-.539.179-.828 0-.001 0-.003 0-.004.052-.381.081-.772.077-1.174v-.008c-.063-2.621-1.109-4.472-2.503-5.617-.002-.002-.004-.003-.006-.004-.983-.79-2.199-1.277-3.51-1.445"/>
  </g>
 </g>
</svg>
