<?xml version="1.0" encoding="UTF-8" standalone="no"?>
<svg xmlns="http://www.w3.org/2000/svg" xmlns:xlink="http://www.w3.org/1999/xlink" width="48" height="48" version="1.1">
 <defs>
  <linearGradient gradientTransform="matrix(0.32420382,0,0,0.32420382,387.58449,502.85674)" xlink:href="#linearGradient3347" id="linearGradient3359" x1="-23.688" y1="-24.028" x2="146.725" y2="140.728" gradientUnits="userSpaceOnUse"/>
  <linearGradient id="linearGradient3347">
   <stop style="stop-color:#006680;stop-opacity:1;" offset="0"/>
   <stop offset=".252" style="stop-color:#80b3ff;stop-opacity:1"/>
   <stop style="stop-color:#0066ff;stop-opacity:1" offset=".459"/>
   <stop offset=".899" style="stop-color:#002255;stop-opacity:1"/>
   <stop style="stop-color:#006680;stop-opacity:0;" offset="1"/>
  </linearGradient>
  <linearGradient gradientTransform="matrix(0.32420382,0,0,0.32420382,387.58449,502.85674)" xlink:href="#linearGradient3360" id="linearGradient3366" x1="-1.414" y1="88.048" x2="154.149" y2="89.816" gradientUnits="userSpaceOnUse"/>
  <linearGradient id="linearGradient3360">
   <stop style="stop-color:#ffcc00;stop-opacity:1;" offset="0"/>
   <stop offset=".245" style="stop-color:#ffff00;stop-opacity:1"/>
   <stop offset=".586" style="stop-color:#ff0000;stop-opacity:1"/>
   <stop style="stop-color:#ffcc00;stop-opacity:0;" offset="1"/>
  </linearGradient>
 </defs>
 <g transform="translate(-384.57143,-499.798)">
  <g transform="matrix(0.99716172,0,0,0.9985702,1.2099121,0.66873777)">
   <path d="m 406.18641,538.36676 c -0.74115,-3.15329 -1.42177,-5.96297 -1.51251,-6.24374 -0.19304,-0.59735 -0.46886,-0.67562 -0.56818,-0.16122 -0.0776,0.40203 -1.24472,9.40256 -1.25077,9.64573 -0.009,0.3595 -0.23714,-0.24821 -1.17033,-3.11673 l -0.9615,-2.95551 0.008,-2.57937 0.008,-2.57935 0.58544,1.9158 c 0.322,1.05369 0.64212,2.0118 0.7114,2.12913 0.2293,0.38834 0.40456,0.14088 0.54915,-0.77542 0.1491,-0.9449 0.92487,-8.23498 1.05985,-9.95971 0.0428,-0.54677 0.11371,-0.99413 0.1576,-0.99413 0.0439,0 0.41286,1.41461 0.81994,3.1436 0.86666,3.68088 2.12656,8.54325 2.28351,8.8128 0.14917,0.25617 0.32029,0.23616 0.4595,-0.0538 0.0996,-0.2074 1.32839,-8.91457 1.80867,-12.81618 l 0.15875,-1.28968 0.15006,0.5911 c 0.0826,0.32511 0.56997,2.40472 1.0832,4.62135 1.42611,6.15942 1.53751,6.55586 1.84226,6.55586 0.0855,0 0.18353,-0.0846 0.21782,-0.18807 0.0971,-0.29292 0.38669,-2.38061 0.78649,-5.66922 0.2012,-1.65508 0.40399,-3.09717 0.45063,-3.20463 0.0571,-0.13153 0.30689,0.48971 0.76419,1.90041 l 0.67942,2.0958 -0.007,2.45226 -0.007,2.45225 -0.33342,-1.05571 c -0.34275,-1.08528 -0.51621,-1.37817 -0.70818,-1.19586 -0.11184,0.10619 -0.42665,2.14797 -1.1343,7.35654 -0.44537,3.27816 -0.54358,3.87685 -0.60818,3.70783 -0.0226,-0.0592 -0.52033,-2.45308 -1.10606,-5.31992 -1.29988,-6.36214 -1.29506,-6.34163 -1.50696,-6.41534 -0.36028,-0.12531 -0.2767,-0.61255 -1.34026,7.81249 -0.46638,3.69439 -0.88713,6.80635 -0.93503,6.91546 -0.0546,0.12467 -0.58768,-1.93152 -1.4346,-5.53487 z" style="opacity:1;fill:url(#linearGradient3366);fill-opacity:1;stroke:none;stroke-width:2.41100001;stroke-miterlimit:4;stroke-dasharray:none;stroke-dashoffset:0;stroke-opacity:1"/>
   <path d="m 408.50562,503.84975 c -1.92969,-0.006 -3.85168,0.30999 -5.78439,0.94792 -5.80094,1.91467 -10.04888,6.59192 -11.64538,12.82315 -0.59019,2.30372 -0.60411,2.52065 -0.59332,9.19865 0.009,5.59766 0.0225,6.07888 0.18742,6.88996 0.58704,2.88563 2.47754,5.14899 5.16258,6.26435 0.29076,0.12079 0.58975,0.2415 0.89853,0.33435 0.11752,0.0354 0.25459,0.0565 0.37296,0.10447 0.25937,0.10526 0.48228,0.25226 0.59014,0.34574 0.77319,0.67005 2.08297,-0.5222 2.347,-1.25856 0.008,-0.0225 0.0164,-0.29239 0.0241,-0.60217 -0.0813,-0.44791 -0.129,-0.90902 -0.12664,-1.38104 l 0.0583,-11.65495 c 0.003,-0.55788 0.0615,-1.10093 0.17412,-1.62419 l -0.1773,-0.16652 c -0.36738,-0.34511 -0.002,-1.0819 -0.78678,-1.08553 -0.6492,-0.003 -0.80693,0.0309 -1.31264,0.28177 -0.31608,0.15669 -0.86836,0.3694 -1.22717,0.473 -0.97948,0.28288 -2.14982,0.91027 -3.03307,1.62546 -0.43418,0.35156 -0.81181,0.63892 -0.83901,0.63892 -0.0271,0 -0.0388,-0.94626 -0.0253,-2.10354 l 0.0241,-2.10415 0.27166,-0.0297 c 0.14934,-0.0163 0.26681,-0.078 0.2995,-0.11145 0.0326,-0.0335 0.15756,-0.50848 0.23872,-1.08089 1.08433,-7.64772 5.58132,-12.43351 12.72184,-13.53931 1.34239,-0.20788 3.84475,-0.20787 5.02326,0 4.50825,0.79521 8.46693,3.80952 10.58981,8.06393 0.91911,1.84199 1.37095,3.40277 1.61025,5.56593 0.0796,0.71915 0.13901,0.9067 0.22859,0.98592 0.0353,0.0311 0.0583,0.0681 0.11904,0.0759 0.42167,0.0548 0.44108,0.20016 0.43946,2.19091 -6.4e-4,1.02331 -0.0384,1.91787 -0.0829,1.98829 -0.0639,0.10092 -0.19614,0.0239 -0.62561,-0.36474 -0.79734,-0.72147 -1.9415,-1.36833 -3.02231,-1.7084 -0.51101,-0.16078 -1.14465,-0.39489 -1.40764,-0.5205 -0.92798,-0.44321 -1.65995,-0.65308 -2.22549,-0.12485 l -0.27989,0.26152 6.4e-4,0.0424 c 0.0953,0.48346 0.14627,0.98342 0.14627,1.49566 l 0,13.51976 c 0,0.42691 -0.0366,0.84502 -0.10321,1.25248 0.0157,0.4436 0.0418,0.67612 0.0836,0.75733 0.064,0.12442 0.31369,0.32377 0.55469,0.44324 0.35555,0.17624 -0.12202,0.27517 0.47721,0.2742 0.8018,-9.2e-4 1.06091,-0.17961 1.48108,-0.5186 0.065,-0.0608 0.43794,-0.21061 0.66107,-0.31091 0.20404,-0.0917 0.45757,-0.13255 0.7016,-0.21529 1.35294,-0.45875 2.24867,-1.02572 3.32562,-2.10605 1.06926,-1.07262 1.64307,-1.97358 2.11872,-3.32625 0.7015,-2.40858 0.33561,-5.07715 0.35081,-7.57637 0.0286,-7.29216 0.0214,-7.43717 -0.51923,-9.65077 -0.80728,-3.30548 -2.42104,-6.15919 -4.81368,-8.51352 -1.94246,-1.91135 -4.26582,-3.33588 -6.82158,-4.18235 -1.96322,-0.65022 -3.90029,-0.97855 -5.82996,-0.98465 z" clip-path="none" style="fill:url(#linearGradient3359);fill-opacity:1"/>
   <path d="m 416.47716,541.09007 c -0.17111,-0.0433 -0.39749,-0.14326 -0.55272,-0.25906 l -0.24161,-0.18025 -0.017,-2.93641 c -0.009,-1.61503 -0.0656,-5.40644 -0.12499,-8.42539 -0.0809,-4.11087 -0.0817,-5.53822 -0.003,-5.68512 0.36634,-0.68415 2.43386,-0.86289 3.18157,-0.27506 l 0.23811,0.18719 -0.0109,8.37264 c -0.006,4.43137 -0.0375,8.19187 -0.0715,8.59193 -9.3e-4,0.0131 -0.003,0.0225 -0.003,0.0283 -2.6e-4,9.3e-4 -3.2e-4,0.003 -6.4e-4,0.003 -0.002,0.006 -0.004,0.0135 -0.006,0.0202 -0.10757,0.34988 -0.63612,0.57678 -1.42443,0.6096 -0.26939,0.0113 -0.58084,9.2e-4 -0.79186,-0.0232 -0.0702,-0.008 -0.10396,-0.0126 -0.14669,-0.0233 z" style="fill:#0f2d61;stroke:#0f2d61;stroke-width:0.65561908;stroke-miterlimit:4;stroke-dasharray:none;stroke-opacity:1"/>
   <path d="m 398.60832,540.94557 c -0.66325,-0.18526 -0.61628,0.19877 -0.71059,-5.81033 -0.0803,-5.11477 -0.0693,-11.19166 0.0206,-11.50312 0.14243,-0.49292 2.02877,-0.74011 2.90158,-0.38023 0.81836,0.33744 0.77379,-0.0693 0.66183,6.04311 -0.0546,2.97625 -0.0997,6.69544 -0.10017,8.26488 -9.2e-4,1.66873 -0.0405,2.92216 -0.0961,3.01881 -0.16101,0.28042 -0.81707,0.4613 -1.64222,0.45275 -0.4156,-0.005 -0.88133,-0.043 -1.03496,-0.0859 z" style="fill:#0f2d61;stroke:#0f2d61;stroke-width:0.67285562;stroke-miterlimit:4;stroke-dasharray:none;stroke-opacity:1"/>
   <path d="m 390.77985,525.23435 0.008,-2.15708 0.0174,-1.06258 0.97308,0 0.9731,0 0.026,1.82062 0.026,1.82062 -0.46455,0.47644 c -0.53735,0.55112 -1.09695,1.35859 -1.33494,1.92625 -0.0911,0.21746 -0.13341,0.58332 -0.20765,0.39538 -0.008,-0.021 -0.0304,-1.44884 -0.0165,-3.21965 z" style="fill:#0f2d61;stroke:#0f2d61;stroke-width:0.61110938;stroke-miterlimit:4;stroke-dasharray:none;stroke-opacity:1"/>
   <path d="m 426.23267,525.19373 -0.0263,-3.21724 -1.01109,0 -1.01107,0 -0.027,1.81924 -0.0288,1.79777 0.48447,0.49758 c 0.54708,0.56188 1.13976,1.35758 1.38705,1.9248 0.0916,0.21002 0.11483,0.34969 0.21309,0.39451 9.3e-4,3.2e-4 0.002,6.3e-4 0.003,6.3e-4 1.4e-4,0 2.9e-4,-4e-5 3.3e-4,-1.4e-4 0.0236,-0.0592 0.0311,-1.45757 0.0168,-3.21711 z" style="fill:#0f2d61;stroke:#0f2d61;stroke-width:0.61513424;stroke-miterlimit:4;stroke-dasharray:none;stroke-opacity:1"/>
  </g>
 </g>
</svg>
