<svg width="48" xmlns="http://www.w3.org/2000/svg" height="48" xmlns:xlink="http://www.w3.org/1999/xlink">
 <defs>
  <linearGradient id="a" y1="30" x1="34" y2="28" x2="24" gradientUnits="userSpaceOnUse">
   <stop stop-color="#f39c12"/>
   <stop offset="1" stop-color="#ffc35a"/>
  </linearGradient>
  <linearGradient id="b" y1="30" x1="24" y2="44" x2="38" gradientUnits="userSpaceOnUse">
   <stop/>
   <stop offset="1" stop-opacity="0"/>
  </linearGradient>
  <linearGradient id="c" y1="37" y2="4" x2="0" gradientUnits="userSpaceOnUse">
   <stop stop-color="#da4453"/>
   <stop offset="1" stop-color="#ff7336"/>
  </linearGradient>
  <linearGradient xlink:href="#b" id="d" y1="22.313" x1="20.438" y2="25.406" x2="23.531" gradientUnits="userSpaceOnUse"/>
  <linearGradient id="e" y1="45" y2="24" x2="0" gradientUnits="userSpaceOnUse">
   <stop stop-color="#60c0f4"/>
   <stop offset="1" stop-color="#b9e9ff"/>
  </linearGradient>
  <linearGradient id="f" y1="23" x1="32" y2="22" x2="25" gradientUnits="userSpaceOnUse" gradientTransform="translate(-1)">
   <stop stop-color="#cea476"/>
   <stop offset="1" stop-color="#dab58b"/>
  </linearGradient>
  <linearGradient xlink:href="#b" id="g" y1="24" x1="25" y2="38" x2="39" gradientUnits="userSpaceOnUse"/>
 </defs>
 <g transform="translate(1)">
  <g fill-rule="evenodd">
   <path fill="url(#e)" d="m24 24c0 0-1 .467-1 2 0 1.533 1 2 1 2v2c0 0-6 1.867-6 8 0 6 2.933 6 6 6h10c3.067 0 6 0 6-6 0-6.133-6-8-6-8v-2c0 0 1-.467 1-2 0-1.533-1-2-1-2z"/>
   <path fill="#65c2f5" d="m26 24v7.473l-1.406.438c0 0-1.138.359-2.324 1.334-1.186.975-2.27 2.341-2.27 4.756 0 2.674.536 3.302.965 3.59.428.288 1.502.41 3.035.41h10c1.533 0 2.607-.122 3.035-.41.428-.288.965-.916.965-3.59 0-2.414-1.084-3.781-2.27-4.756-1.186-.975-2.324-1.334-2.324-1.334l-1.406-.438v-7.473z"/>
   <path opacity=".2" fill="url(#b)" d="m24 30l13.559 13.559c1.44-.608 2.441-2.059 2.441-5.559 0-6.133-6-8-6-8z"/>
  </g>
  <g stroke-linejoin="bevel">
   <g stroke-width="2">
    <rect width="10" x="24" y="28" fill="url(#a)" height="2" stroke-linecap="round"/>
    <path fill="#34495e" d="m20.742 35c-.447.78-.742 1.747-.742 3 0 2.674.536 3.302.965 3.59.428.288 1.502.41 3.035.41h10c1.533 0 2.607-.122 3.035-.41.428-.288.965-.916.965-3.59 0-1.253-.296-2.22-.742-3z"/>
   </g>
   <g stroke-linecap="round" stroke-width="4">
    <rect width="10" x="24" y="22" fill="url(#f)" rx=".989" height="2"/>
    <rect width="6" x="26" y="24" fill="#cea476" height="3"/>
   </g>
  </g>
  <path opacity=".2" fill="url(#g)" fill-rule="evenodd" d="m25 24l14.969 14.969c.019-.306.031-.625.031-.969 0-6.133-6-8-6-8v-2c0 0 1-.467 1-2 0-1.533-1-2-1-2z"/>
 </g>
 <g fill-rule="evenodd" transform="translate(-1)">
  <path fill="url(#c)" d="m33.998 4l-2.33 1.143c-2.332 1.144-4.794 3.75-4.794 3.75l.366 2.944c-.138.201-.283.415-.429.629l-1.036-1.857-1.686 2.098 1.191 2.042c-.007.011-.016.023-.023.034l-1.491-1.694c0 0-.971 1.143-3.95 5.402-2.979 4.259-5.441 9.217-5.441 9.217l.115 3.368c-.16.237-.33.494-.487.725l-.469-2.759-1.036 1.716-.26 1.655-.581.699c0 0-.962 3.599-.778 4.249.184.651 2.624-.628 2.624-.628l.129-.857 1.975-.635-2.198-.438c.053-.089.118-.197.172-.287.263.081.573.172 1.154.278 1.393.254 2.33-.253 2.33-.253l1-1.273c0 0-.777.541-1.652.699-.861.157-2.326-.205-2.37-.216.077-.127.159-.264.238-.393.37-.094 3.703-.964 5.662-2.346 2.073-1.462 6.186-5.975 6.186-5.975 0 0-.992-.009-3.129-.041-2.01-.03-3.794-.016-4 0 .093-.149 0-1 0-1l8.586-1.344c0 0 .552-1.049 1.394-2.733.842-1.684 3.02-5.922 3.02-5.922 0 0-1.462-.042-2.768-.221-1.246-.172-2.425-.472-2.536-.5.015-.023.031-.047.046-.07.181-.084 1.346-.62 2.215-.891.939-.292 3.801-.697 3.801-.697 0 0 .023-.405.229-1.236.206-.832.618-2.742.618-2.742l-4.981 2.806c.21-.288.408-.545.613-.817l4.551-2.663c0 0 .046-.584.137-1.348.092-.764.072-1.621.072-1.621"/>
  <path fill="#31363b" d="m34 4c0 0-4.621 4.941-9.222 11.275-4.601 6.334-9.268 13.499-13.934 21.68-4.052 7.104-2.586 7.05-2.586 7.05 0 0 .46-1.184 3.677-6.761 3.076-5.331 6.967-12.216 13.474-21.705 3.101-4.522 8.59-11.534 8.59-11.534"/>
  <path opacity=".2" fill="url(#d)" d="m33.998 4l-.707.883-2.577 3.298-3.972 5.03c.181-.084 1.345-.62 2.215-.891.939-.292 3.801-.697 3.801-.697 0 0 .024-.405.23-1.236.206-.832.617-2.742.617-2.742l-4.3 2.409c.21-.288.408-.544.613-.816l3.871-2.266c0 0 .045-.584.137-1.348.092-.764.072-1.621.072-1.621m-7.256 9.209l-7.742 10.791 8.586-1.344c0 0 .553-1.05 1.395-2.734.842-1.684 3.02-5.922 3.02-5.922 0 0-1.462-.041-2.768-.221-1.246-.172-2.426-.472-2.537-.5.015-.023.032-.047.047-.07m-7.742 10.791l-7.965 13.52c.58.204 2.465-.785 2.465-.785l.129-.855 1.977-.635-2.199-.439c.053-.089.118-.195.172-.285.263.081.573.171 1.154.277 1.393.254 2.328-.252 2.328-.252l1.01-1.273c0 0-.778.54-1.652.699-.861.157-2.325-.206-2.369-.217.077-.127.158-.263.236-.393.37-.094 3.703-.964 5.662-2.346 2.073-1.462 6.186-5.975 6.186-5.975 0 0-.992-.009-3.129-.041-2.01-.03-3.794-.016-4 0 .093-.149 0-1 0-1"/>
 </g>
</svg>
