<?xml version="1.0" encoding="UTF-8" standalone="no"?>
<svg
   xmlns:dc="http://purl.org/dc/elements/1.1/"
   xmlns:cc="http://creativecommons.org/ns#"
   xmlns:rdf="http://www.w3.org/1999/02/22-rdf-syntax-ns#"
   xmlns:svg="http://www.w3.org/2000/svg"
   xmlns="http://www.w3.org/2000/svg"
   xmlns:xlink="http://www.w3.org/1999/xlink"
   version="1.1"
   id="svg2"
   height="48"
   width="48">
  <metadata
     id="metadata28">
    <rdf:RDF>
      <cc:Work
         rdf:about="">
        <dc:format>image/svg+xml</dc:format>
        <dc:type
           rdf:resource="http://purl.org/dc/dcmitype/StillImage" />
        <dc:title></dc:title>
      </cc:Work>
    </rdf:RDF>
  </metadata>
  <defs
     id="defs4">
    <linearGradient
       id="linearGradient4235">
      <stop
         offset="0"
         style="stop-color:#f85b79;stop-opacity:1;"
         id="stop4237" />
      <stop
         offset="1"
         style="stop-color:#f85b79;stop-opacity:1;"
         id="stop4243" />
    </linearGradient>
    <linearGradient
       gradientUnits="userSpaceOnUse"
       y2="44"
       x2="18"
       y1="4"
       x1="18"
       id="linearGradient4233"
       xlink:href="#linearGradient4235" />
    <linearGradient
       gradientUnits="userSpaceOnUse"
       y2="44"
       x2="-16"
       y1="4"
       x1="-56"
       id="linearGradient4702"
       xlink:href="#m"
       gradientTransform="translate(60,0)" />
    <linearGradient
       gradientUnits="userSpaceOnUse"
       x2="35"
       y2="32"
       x1="10"
       y1="7"
       id="m"
       gradientTransform="translate(85,55)">
      <stop
         id="stop27"
         stop-color="#383e51" />
      <stop
         id="stop29"
         stop-opacity="0"
         stop-color="#655c6f"
         offset="1" />
    </linearGradient>
  </defs>
  <rect
     width="40"
     height="40"
     rx="2"
     ry="2"
     x="4"
     y="4"
     id="rect5505-21"
     style="color:#000000;display:inline;overflow:visible;visibility:visible;fill:url(#linearGradient4233);fill-opacity:1;fill-rule:nonzero;stroke:none;stroke-width:1.0666666;marker:none;enable-background:accumulate" />
  <path
     id="path4694"
     d="m 8,29 15,15 21,0 0,-24 -4,-4 -5,0 -2,-2 -5,3 2,2 -2,0 -1.5,-1 -2.5,0 -4,-4 -5,3 2,2 -1,0 -3,-3 0,3 -5,0 2,2 -2,3 2,2 z"
     style="fill:url(#linearGradient4702);fill-opacity:1;fill-rule:evenodd;stroke:none;stroke-width:1px;stroke-linecap:butt;stroke-linejoin:miter;stroke-opacity:1;opacity:0.2" />
  <path
     id="rect3834-3-39-6"
     d="M 15 14 L 15 17 L 20 17 L 20 14 L 15 14 z M 28 14 L 28 17 L 33 17 L 33 14 L 28 14 z M 8 16 L 8 19 L 13 19 L 13 16 L 8 16 z M 35 16 L 35 19 L 40 19 L 40 16 L 35 16 z M 21.5 18 L 21.5 21 L 26.5 21 L 26.5 18 L 21.5 18 z M 15 19 L 15 22 L 20 22 L 20 19 L 15 19 z M 28 19 L 28 22 L 33 22 L 33 19 L 28 19 z M 8 21 L 8 24 L 13 24 L 13 21 L 8 21 z M 35 21 L 35 24 L 40 24 L 40 21 L 35 21 z M 21.5 23 L 21.5 26 L 26.5 26 L 26.5 23 L 21.5 23 z M 15 24 L 15 27 L 20 27 L 20 24 L 15 24 z M 28 24 L 28 27 L 33 27 L 33 24 L 28 24 z M 8 26 L 8 29 L 13 29 L 13 26 L 8 26 z M 35 26 L 35 29 L 40 29 L 40 26 L 35 26 z M 21.5 28 L 21.5 31 L 26.5 31 L 26.5 28 L 21.5 28 z M 15 29 L 15 32 L 20 32 L 20 29 L 15 29 z M 28 29 L 28 32 L 33 32 L 33 29 L 28 29 z M 21.5 33 L 21.5 36 L 26.5 36 L 26.5 33 L 21.5 33 z "
     style="color:#000000;display:inline;overflow:visible;visibility:visible;fill:#fffbfb;fill-opacity:1;fill-rule:nonzero;stroke:none;stroke-width:1.13690269;marker:none;enable-background:accumulate" />
  <path
     id="rect4743"
     d="M 4.2753906 43 C 4.6209515 43.595799 5.2589301 44 6 44 L 42 44 C 42.74107 44 43.379048 43.595799 43.724609 43 L 4.2753906 43 z "
     style="opacity:0.15;fill:#000000;fill-opacity:1;stroke:none;stroke-width:3;stroke-miterlimit:4;stroke-dasharray:none;stroke-opacity:1" />
</svg>
