<svg height="48" width="48" xmlns="http://www.w3.org/2000/svg"><linearGradient id="c" gradientUnits="userSpaceOnUse" x1="31" x2="41" y1="27" y2="37"><stop offset="0" stop-color="#292929"/><stop offset="1" stop-opacity="0"/></linearGradient><linearGradient id="a" gradientTransform="matrix(.86658 0 0 .8707 7.6 1.527)" gradientUnits="userSpaceOnUse" x1="39.75" x2="13.888" y1="49.75" y2="11.25"><stop offset="0" stop-color="#d6602e"/><stop offset="1" stop-color="#fd8f49"/></linearGradient><linearGradient id="d" gradientUnits="userSpaceOnUse" x1="415.5" x2="407.4" y1="537.26" y2="519.75"><stop offset="0" stop-color="#eef1f2"/><stop offset="1" stop-color="#f9fafb"/></linearGradient><linearGradient id="b" gradientUnits="userSpaceOnUse" x1="41" x2="16" y1="46.75" y2="12.5"><stop offset="0" stop-color="#a3582d"/><stop offset="1" stop-color="#ba6d42"/></linearGradient><linearGradient id="e" gradientTransform="matrix(-1.17844 0 0 -1.24685 516.197 684.37)" gradientUnits="userSpaceOnUse" x1="414.63" x2="409.79" y1="531.77" y2="523.38"><stop offset="0" stop-color="#197cf1"/><stop offset="1" stop-color="#21c9fb"/></linearGradient><g stroke-linejoin="round" stroke-width="2"><path d="M24.883 6.008c-1.72.12-3.18 1.669-2.04 2.959.44.498 4.479 3.683 6.157 5.033H11c-2.854-.003-4.514 4.1 0 4l8.54.115L3.87 30.268c-4.313 3.343-.293 7.431 3.28 4.449l8.375-6.99c-.092 1.777.499 4.616 1.538 6.443 2.437 4.205 6.775 7.844 14.068 7.809 8.198-.04 15.272-6.656 14.85-15.133-.134-3.348-2.487-7.594-7.169-11.239-3.442-2.68-11.696-8.86-12.21-9.181a2.842 2.842 0 0 0-1.72-.418z" fill="url(#a)"/><path d="M19.197 6.979c-.153.504-.064 1.052.393 1.566.436.492 4.951 4.082 7.108 5.787h1.153c-1.936-1.55-7.754-6.092-8.261-6.664a1.836 1.836 0 0 1-.393-.69zm-16.5 9.574c-.274 1.269.598 2.432 3.23 2.373l9.847.125 1.692-1.273H5.926c-2.011.044-3.018-.312-3.229-1.225zm8.63 12.582L1.48 37.24c-2.675 2.222-5.55 1.02-5.892-1.142-.409 2.677 2.872 4.53 5.892 2.021l9.666-8.03c.067-.465.149-.818.18-.954zm34.982.523c-.252 8.838-8.064 15.644-17.465 15.69-8.923.043-14.296-5.245-16.593-10.374-.574-1.289-.857-2.55-1.094-3.815.103 2.538 1.056 5.265 2.226 7.16 2.708 4.316 7.958 8.208 15.46 8.171 9.711-.047 17.726-7.589 17.466-16.832z" fill="url(#b)" opacity=".5" transform="matrix(.86658 0 0 .8707 5.864 1.521)"/></g><path d="M37.352 20.648L24.654 33.346l8.477 8.476c6.56-.9 11.986-5.984 12.756-12.638z" fill="url(#c)" opacity=".2"/><g stroke-linecap="round" stroke-linejoin="round" stroke-width="2"><path d="M424.038 528.367c.094 2.688-.955 5.304-2.937 7.255-2.006 1.973-4.78 3.082-7.69 3.064-2.907-.019-5.672-1.16-7.668-3.153-1.969-1.966-3.01-4.582-2.918-7.258.091-2.63 1.272-5.106 3.265-6.903 1.97-1.776 4.596-2.762 7.318-2.755 2.725.007 5.359 1.007 7.34 2.8 2.007 1.815 3.197 4.309 3.29 6.95z" fill="url(#d)" transform="matrix(.84809 0 0 .8969 -319.626 -447.152)"/><path d="M30.996 22A4.973 4.973 0 0 0 26 26.91 5.027 5.027 0 0 0 30.996 32 4.974 4.974 0 0 0 36 26.957 5.027 5.027 0 0 0 30.996 22z" fill="url(#e)"/></g></svg>