<?xml version="1.0" encoding="UTF-8" standalone="no"?>
<svg xmlns="http://www.w3.org/2000/svg" xmlns:xlink="http://www.w3.org/1999/xlink" id="svg2817" height="48" width="48" version="1">
 <defs id="defs429">
  <linearGradient id="linearGradient4626">
   <stop style="stop-color:#000000;stop-opacity:1;" offset="0" id="stop4628"/>
   <stop style="stop-color:#000000;stop-opacity:0;" offset="1" id="stop4630"/>
  </linearGradient>
  <linearGradient id="linearGradient4656">
   <stop style="stop-color:#ffffff;stop-opacity:1;" offset="0" id="stop4658"/>
   <stop style="stop-color:#536161;stop-opacity:1" offset="1" id="stop4660"/>
  </linearGradient>
  <linearGradient id="linearGradient4598">
   <stop style="stop-color:#172525;stop-opacity:1;" offset="0" id="stop4600"/>
   <stop style="stop-color:#334545;stop-opacity:1" offset="1" id="stop4602"/>
  </linearGradient>
  <linearGradient id="linearGradient4590">
   <stop id="stop4594" offset="0" style="stop-color:#54d883;stop-opacity:1"/>
   <stop id="stop4592" offset="1" style="stop-color:#3bb566;stop-opacity:1;"/>
  </linearGradient>
  <linearGradient id="linearGradient4582">
   <stop id="stop4586" offset="0" style="stop-color:#7cbcec;stop-opacity:1"/>
   <stop id="stop4584" offset="1" style="stop-color:#3b85b5;stop-opacity:1;"/>
  </linearGradient>
  <linearGradient id="linearGradient4574">
   <stop style="stop-color:#bf4231;stop-opacity:1;" offset="0" id="stop4576"/>
   <stop style="stop-color:#f58273;stop-opacity:1" offset="1" id="stop4578"/>
  </linearGradient>
  <linearGradient id="linearGradient4564">
   <stop style="stop-color:#ffa92d;stop-opacity:1;" offset="0" id="stop4566"/>
   <stop style="stop-color:#ffc169;stop-opacity:1" offset="1" id="stop4568"/>
  </linearGradient>
  <linearGradient xlink:href="#linearGradient4564" id="linearGradient4570" x1="18.653" y1="20.191" x2="7.432" y2="8.525" gradientUnits="userSpaceOnUse" gradientTransform="matrix(0.9090909,0,0,1.0526316,2.1818183,-1.2631584)"/>
  <linearGradient xlink:href="#linearGradient4574" id="linearGradient4580" x1="28.615" y1="21.502" x2="39.94" y2="10.118" gradientUnits="userSpaceOnUse" gradientTransform="matrix(0.9090909,0,0,1.0526316,2.1818183,-1.2631584)"/>
  <linearGradient xlink:href="#linearGradient4582" id="linearGradient4588" x1="19.831" y1="26.561" x2="9.69" y2="37.881" gradientUnits="userSpaceOnUse" gradientTransform="matrix(0.9090909,0,0,1.0526316,2.1818183,-1.2631584)"/>
  <linearGradient xlink:href="#linearGradient4590" id="linearGradient4596" x1="33.241" y1="30.191" x2="40.393" y2="37.416" gradientUnits="userSpaceOnUse" gradientTransform="matrix(0.9090909,0,0,1.0526316,2.1818183,-1.2631584)"/>
  <linearGradient xlink:href="#linearGradient4598" id="linearGradient4604" x1="27.197" y1="33.475" x2="21.366" y2="14.901" gradientUnits="userSpaceOnUse" gradientTransform="matrix(1,0,0,1.2,0,-4.8)"/>
  <style id="current-color-scheme" type="text/css">
   .ColorScheme-Text { color:#4d4d4d; }
  </style>
  <linearGradient xlink:href="#linearGradient4656" id="linearGradient4662" x1="19.025" y1="15.232" x2="29.946" y2="31.765" gradientUnits="userSpaceOnUse" gradientTransform="translate(1,0)"/>
  <linearGradient xlink:href="#linearGradient4626" id="linearGradient4632" x1="23.693" y1="21.277" x2="34.937" y2="32.522" gradientUnits="userSpaceOnUse"/>
 </defs>
 <path style="fill:url(#linearGradient4570);fill-opacity:1" id="rect4203" d="M 24,3.9999996 C 12.92,3.9999996 4.0000001,12.92 4.0000001,24 L 24,24 Z"/>
 <path style="fill:url(#linearGradient4580);fill-opacity:1" id="path4556" d="M 24,3.9999996 C 35.08,3.9999996 44,12.92 44,24 l -20,0 z"/>
 <path style="fill:url(#linearGradient4596);fill-opacity:1" id="path4564" d="M 24,44 C 35.08,44 44,35.08 44,24 L 24,24 Z"/>
 <path style="fill:url(#linearGradient4588);fill-opacity:1" id="path4566" d="M 24,44 C 12.92,44 4.0000001,35.08 4.0000001,24 L 24,24 Z"/>
 <path style="fill:url(#linearGradient4632);fill-opacity:1;opacity:0.2" d="M 25.296875 14.412109 L 24 16.138672 L 24 24 L 18.097656 24 L 15.5 27.460938 L 15.066406 32.070312 L 26.798828 43.802734 C 35.606316 42.579389 42.539439 35.666677 43.792969 26.869141 L 31.832031 14.908203 L 25.296875 14.412109 z" id="path4598"/>
 <circle id="path4181" cx="24" cy="24" style="fill:url(#linearGradient4604);fill-opacity:1" r="12"/>
 <path style="color:#4d4d4d;fill:url(#linearGradient4662);fill-opacity:1;stroke:none" d="M 25.832031,15.677734 23,15.943359 23,26.882812 25.800781,26.5 l 0,-4.675781 L 29.537109,27 32.462891,26.117188 28.634766,21.148438 32.494141,16.441406 29.505859,15.794922 25.800781,20.5 l 0.03125,-4.822266 z m -6.875,2.998047 c -0.03167,0 -0.06986,0.01825 -0.09375,0.03125 l -1.089843,1.058594 c -0.0464,0.046 -0.06526,0.122181 -0.03125,0.175781 l 1.277343,2 c -0.22912,0.3639 -0.398064,0.762181 -0.529297,1.175782 L 16.125,23.587891 c -0.06596,0.017 -0.125,0.05504 -0.125,0.11914 l 0,1.46875 c 0,0.062 0.06152,0.131385 0.125,0.146485 l 2.302734,0.53125 c 0.122648,0.4795 0.30916,0.934162 0.560547,1.351562 l -1.33789,1.91211 c -0.03713,0.054 -0.0178,0.130681 0.03125,0.175781 l 1.08789,1.029297 c 0.0464,0.042 0.130877,0.06525 0.1875,0.03125 l 2.085938,-1.207032 c 0.41008,0.2235 0.839197,0.410097 1.30664,0.529297 l 0.498047,2.207031 c 0.01429,0.064 0.05783,0.117188 0.125,0.117188 l 1.556641,0 c 0.0656,0 0.140564,-0.05629 0.15625,-0.117188 l 0.558594,-2.207031 c 0.481832,-0.1229 0.951026,-0.324794 1.371093,-0.558593 l 2.054688,1.294921 c 0.05654,0.034 0.13747,0.01575 0.185547,-0.03125 l 1.089843,-1.029297 c 0.04668,-0.046 0.06546,-0.122381 0.03125,-0.175781 L 29.230469,28 l -0.25,0.08789 c -0.03554,0.017 -0.07289,7.03e-4 -0.09375,-0.0293 0,0 -0.471179,-0.673697 -1.089844,-1.529297 -0.739591,1.3676 -2.246763,2.292969 -3.984375,2.292969 -2.468722,0 -4.482422,-1.872579 -4.482422,-4.205078 0,-1.715701 1.091384,-3.192516 2.646484,-3.853516 l 0,-1.087891 C 21.693517,19.769781 21.427859,19.8659 21.167969,20 l -0.03125,0 -2.085938,-1.294922 c -0.02836,-0.017 -0.062,-0.03034 -0.09375,-0.02734 l 0,-0.002 z" id="path4653"/>
 <path style="fill:#000000;fill-opacity:1;opacity:0.15" d="M 4 24 C 4 35.08 12.92 44 24 44 C 35.08 44 44 35.08 44 24 L 43.974609 24 C 43.456395 34.611272 34.744236 43 24 43 C 13.255764 43 4.5436047 34.611272 4.0253906 24 L 4 24 z" id="path4634"/>
</svg>
