<svg width="48" xmlns="http://www.w3.org/2000/svg" height="48" viewBox="0 0 48 48" xmlns:xlink="http://www.w3.org/1999/xlink">
 <defs>
  <linearGradient id="a" y1="524.83" y2="506.25" x1="411.49" x2="413.94" gradientUnits="userSpaceOnUse">
   <stop stop-color="#ebc69a"/>
   <stop offset="1" stop-color="#f4e0c8"/>
  </linearGradient>
  <linearGradient id="b" y1="545.52" x1="414.78" y2="521.47" x2="390.67" gradientUnits="userSpaceOnUse">
   <stop stop-color="#197cf1"/>
   <stop offset="1" stop-color="#86dbfc"/>
  </linearGradient>
  <linearGradient id="c" y1="30" y2="2" x2="0" gradientUnits="userSpaceOnUse">
   <stop stop-color="#7cbaf8"/>
   <stop offset="1" stop-color="#f4fcff"/>
  </linearGradient>
  <linearGradient id="d" y1="-2.981" x1=".043" y2="19.04" x2="22.06" gradientUnits="userSpaceOnUse">
   <stop stop-color="#292c2f"/>
   <stop offset="1" stop-opacity="0"/>
  </linearGradient>
  <linearGradient id="e" y1="-.018" x1="10.972" y2="30.416" gradientUnits="userSpaceOnUse" x2="40.709" gradientTransform="translate(-6.972 1.018)">
   <stop/>
   <stop offset="1" stop-opacity="0"/>
  </linearGradient>
  <linearGradient xlink:href="#e" id="f" y1="4" x1="11" y2="22.13" gradientUnits="userSpaceOnUse" x2="29.13" gradientTransform="translate(.028 5.02)"/>
  <linearGradient id="g" y1="4" x1="8" y2="32" gradientUnits="userSpaceOnUse" x2="21" gradientTransform="translate(.028 5.02)">
   <stop stop-color="#5583ab"/>
   <stop offset="1" stop-color="#374652"/>
  </linearGradient>
  <linearGradient id="h" y1="36" y2="32" gradientUnits="userSpaceOnUse" x2="0" gradientTransform="matrix(1 0 0 1.0091-11.472 4.726)">
   <stop stop-color="#572977"/>
   <stop offset="1" stop-color="#833eb4"/>
  </linearGradient>
  <linearGradient id="i" y1="42.39" x1="26.972" y2="33" gradientUnits="userSpaceOnUse" x2="19" gradientTransform="matrix(1 0 0 1.25-11.972-4.982)">
   <stop stop-color="#2b116f"/>
   <stop offset="1" stop-color="#693d9b"/>
  </linearGradient>
  <linearGradient xlink:href="#e" id="j" y1="38.957" x1="13.98" y2="46" gradientUnits="userSpaceOnUse" x2="21" gradientTransform="translate(-6.972 1.018)"/>
 </defs>
 <g transform="translate(-384.57-499.8)">
  <path fill="url(#a)" d="m417.14 506.66c-2.374 0-4.286 1.911-4.286 4.286 0 2.374 1.911 4.286 4.286 4.286 2.374 0 4.286-1.911 4.286-4.286 0-2.374-1.911-4.286-4.286-4.286m0 10c-3.957 0-7.143 1.274-7.143 2.857v8.571h14.286v-8.571c0-1.583-3.186-2.857-7.143-2.857m0 1.429c3.166 0 5.714.909 5.714 2.04v6.532h-11.429v-6.532c0-1.131 2.549-2.04 5.714-2.04"/>
  <g transform="matrix(1.42857 0 0 1.42857-163.67-235.91)">
   <rect width="28" x="386.57" y="517.8" fill="url(#b)" rx="14" height="28"/>
   <path opacity=".2" fill="url(#d)" fill-rule="evenodd" d="m18.594 2.248l-2.975.381-4.135 2.387-1.502 2.602c0 0-1.974 1.39-2.271 1.311-2.517-.03-3.869.665-4.58 1.547-.301.703-.537 1.44-.721 2.197-.005.761.162 1.352.162 1.352 7.06 6.356 14.12 9.1 21.18 13.643.445-.295.869-.616 1.275-.959.023-.02.045-.041.068-.061.36-.308.703-.636 1.029-.979.072-.076.14-.155.211-.232.283-.31.553-.632.807-.967.057-.076.114-.152.17-.229.275-.38.535-.772.771-1.18.018-.03.037-.059.055-.09 1.065-1.864 1.714-3.999 1.824-6.281 0-.006.002-.013.002-.02v-.002l-1.824-7.637c-2-3.488-5.452-6.02-9.549-6.783" transform="translate(384.57 515.8)"/>
   <path fill="url(#c)" d="m15.807 2.01c-1.072.015-2.111.154-3.111.395-.263.236-.652.356-1.088.344-.156.149-.12.428-.205.633-.072.172-.324.356-.496.342-.127-.011-.273-.19-.273-.309 0-.143.199-.223.09-.383-1.114.452-2.151 1.047-3.1 1.756.254-.094.535-.251.766-.256.038 0 .073.003.107.012.155.041.563.488.223.633-.032.014-.499.065-.58.051-.119-.02-.189-.184-.309-.205-.201-.035-.456.174-.629.08-1.908 1.54-3.388 3.575-4.275 5.91.081-.047.165-.096.238-.135.25-.13.461-.34.752-.359.145-.003.355.039.494.068.129.026.232.113.344.121.316.024.391-.222.648-.359.266.038.443-.045.684-.018.164.018.282.193.41.203.107.011.203-.1.307-.084.101.016.275.236.291.359.021.154-.112.292-.068.461.161.164.454.197.684.291.15-.123.02-.353 0-.531-.003-.079.011-.148 0-.221-.014-.123-.068-.236-.068-.342-.003-.486.392-.714.719-.906.141-.084.252-.23.375-.291.173-.087.302-.107.445-.188.259-.145.481-.263.684-.428.094-.221.01-.516.018-.734.094-.057.174.026.273.018.156-.033.169-.254.258-.342.052-.051.192-.087.256-.137.156-.122.206-.307.342-.359.049-.02.161-.014.238-.035.101-.027.245-.147.41-.203.107-.037.354-.045.395-.086.05-.051 0-.196.018-.273.083-.386.664-.468 1.01-.598.241-.091.487-.258.752-.207-.052.183-.298.119-.256.342.058.309.471-.089.58-.135.209-.088.566-.141.84-.24.24-.088.67-.222.443-.496-.189-.011-.279.221-.443.291-.114.018-.093-.094-.189-.104-.092-.011-.144.084-.238.068-.094-.016-.226-.163-.24-.273-.037-.285.241-.402.359-.615-.078-.258-.435-.053-.65-.154.021-.154.18-.26.359-.289.147-.025.477-.012.564.066.051.043.004.151.086.223.087.079.194.071.307.053.041-.195-.253-.147-.221-.275.231-.151.606-.026.889-.068.163-.024.334-.14.479-.221.137-.078.315-.214.461-.086.04.14-.127.186-.205.256-.262.233-.531.499-.734.77.125.122.351.061.563.086.082.011.186.035.273.051.102.018.211.013.291.033.144.035.182.189.324.189.234 0 .236-.254.104-.412.042-.161.107-.244.051-.357-.105-.211-.492-.011-.512-.273-.013-.17.143-.164.205-.291-.028-.329.27-.353.238-.648-.014-.123-.119-.125-.205-.24-.045-.059-.065-.177-.119-.223-.179-.151-.542-.122-.564-.41-.003-.098.011-.185.02-.277-.165-.008-.328-.023-.494-.025zm-6.66 3.354c.08.011.177.096.273.104.091.003.167-.05.223-.035.143.038.203.254.068.359-.112.014-.156-.048-.24-.033-.232.04-.321.494-.494.479-.164-.014-.252-.413-.086-.531.011-.104-.076-.12-.07-.223.049-.063.19-.131.326-.119m-.77.053c.048.002.083.013.102.033-.023.182-.166.171-.307.256-.243.147-.384.37-.461.684-.022.091-.261.333-.377.309-.271-.057.075-.557.137-.633.068-.084.16-.159.24-.256.078-.094.13-.221.205-.273.082-.057.318-.125.461-.119m2.023.615c.087.002.164.016.199.051-.056.226-.541.166-.719.084.012-.085.144-.108.256-.119.079-.003.177-.018.264-.016m-1.107.416c.058-.002.117.011.178.027-.157.132-.328.206-.598.291-.13.041-.355.092-.377-.053-.027-.178.19-.136.309-.152.149-.021.313-.108.488-.113m17.17.254c.013.128.015.25-.02.389-.047.185-.213.353-.205.514.011.082.101.162.121.273.011.059-.028.186 0 .24.087.168.324.026.479.051.151.024.326.241.324.41-.002.118-.113.314-.188.428-.149.227-.351.237-.564.357-.178.101-.255.27-.359.445-.113.19-.183.305-.137.58-.153.303-.385.489-.701.633-.094.042-.221.057-.307.119-.068.049-.108.182-.205.291-.12.133-.246.189-.309.291-.049.079-.065.236-.119.342-.073.144-.228.214-.324.359-.044.067-.073.203-.121.291-.108.197-.293.339-.273.512.02.167.21.196.223.342.003.082-.054.133-.051.223.003.131.091.223.102.324.026.254-.087.356-.135.529-.023.083-.013.175-.035.24-.042.127-.219.242-.223.393-.002.107.11.192.119.342.003.103-.051.214-.033.309.036.186.369.402.514.547.193.193.446.343.529.547.07.173.07.399.205.529.1.096.265.156.393.256.119.093.25.174.377.273.208.163.522.488.854.463.173-.013.351-.155.547-.189.202-.036.464-.054.668-.033.156.016.316.109.479.102.171-.011.368-.138.563-.223.308-.134.755-.3 1.205-.275.086-.63.146-1.269.146-1.924 0-2.649-.741-5.113-2.01-7.221-.059-.004-.113-.012-.178-.01-.173.011-.458.011-.461-.205-.002-.177.167-.216.369-.229-.378-.578-.801-1.121-1.258-1.635m-21.369 6.414c-.284.016-.469.029-.631.102-.37.168-.298.669-.668.787-.128.041-.303.042-.443.068-.121.022-.269.089-.395.086-.148-.003-.406-.146-.494-.24-.061-.066-.16-.295-.225-.447-.089.492-.151.993-.188 1.502.03.006.062.014.088.014.162.001.335-.167.514-.172.419-.012.601.533.939.701.085.042.197.044.307.068.088.02.155.057.24.086.181.061.402.055.547.119.218.097.377.506.564.615.011.11-.02.259.018.342.088.12.214.094.359.172.174.094.227.336.393.41.057.025.201.023.291.051.227.069.3.331.494.273.127-.038.118-.169.139-.291.084-.091.175-.236.307-.238.212-.011.231.22.309.426.044.117.158.219.188.342.053.212.027.848-.018.975-.053.156-.265.222-.395.395-.061.081-.09.199-.137.256-.084.102-.209.129-.271.223-.035.053-.069.167-.104.238-.103.218-.241.372-.154.633.036.107.205.18.205.307 0 .149-.317.282-.342.445-.018.121.098.338.137.496.028.119.254.194.324.273.12.135.217.325.326.494.217.333.387.738.598 1.061.112.169.267.321.342.496.038.088.033.194.068.273.122.276.661.564.939.701.13.063.275.086.395.152.181.101.539.372.631.531.082.143.132.49.172.717.053.3.002.531.018.855.011.176.066.353.068.529.001.062-.032.107-.035.17-.003.213.053.453.035.668-.001.046-.006.081-.014.121 1.678.708 3.524 1.1 5.465 1.1.203 0 .401-.023.602-.031.005-.032.009-.064.016-.09.062-.173.221-.231.324-.359.078-.097.114-.21.188-.307.08-.105.152-.198.205-.291.05-.312-.124-.53-.051-.803.082-.307.505-.494.803-.633.102-.047.208-.125.291-.154.206-.072.462-.033.65-.102.32-.117.354-.46.512-.752.075-.138.173-.277.188-.375.013-.088-.032-.171-.018-.275.016-.103.108-.193.137-.307.038-.148.053-.364.053-.529 0-.135-.063-.255-.068-.377-.022-.443.16-.493.324-.734.082-.12.112-.256.17-.342.275-.411.753-.609.719-1.23-.012-.206-.14-.671-.291-.736-.087-.038-.285-.003-.41-.051-.404-.151-.642-.652-1.061-.684-.089-.011-.171.037-.271.035-.166-.011-.416-.116-.6-.137-.117-.013-.272.035-.342 0-.107-.052-.118-.248-.205-.307-.069-.047-.202-.063-.307-.104-.168-.065-.302-.141-.496-.154-.06-.003-.135.029-.205.018-.107-.018-.192-.145-.291-.205-.124-.076-.24-.113-.291-.221.112-.368-.198-.471-.273-.684-.036-.1-.019-.22-.051-.309-.044-.127-.171-.2-.309-.307-.247-.19-.467-.369-.82-.412-.155-.02-.308.047-.496.035-.199-.013-.449-.187-.598-.357-.145-.166-.216-.315-.342-.395-.119-.077-.278-.075-.359-.152-.036-.034-.03-.092-.068-.172-.06-.124-.161-.193-.086-.342-.136-.07-.14.129-.289.104-.133-.189-.245-.278-.547-.223-.138.026-.216.201-.377.205-.132.011-.236-.147-.41-.172-.132-.018-.281.035-.375.018-.146-.029-.191-.151-.324-.238-.098-.064-.287-.174-.342-.172-.172.011-.294.366-.531.24-.115-.146.187-.223.051-.359-.104-.104-.191.046-.273.104-.095.066-.184.131-.289.17-.235.088-.381.042-.564.137-.17.088-.177.235-.273.41-.079.143-.259.351-.377.359-.143.011-.28-.2-.41-.256-.391-.17-.581.15-.906.154-.302.011-.732-.486-.717-.77.003-.173.099-.436.119-.65.018-.17.135-.272.137-.428.003-.208-.275-.368-.41-.393-.319-.059-.763.129-1.129-.018-.07-.116.082-.196.121-.309.022-.064.01-.15.033-.221.041-.109.154-.193.205-.309.038-.088.048-.215.086-.324.045-.124.127-.204.137-.291.013-.115-.031-.248-.121-.324m4.57 3.619c.116.011.13.25.012.27-.128.02-.192-.2-.068-.258.021-.011.04-.013.057-.012" transform="translate(384.57 515.8)"/>
  </g>
 </g>
 <g fill-rule="evenodd">
  <path opacity=".2" fill="url(#e)" d="m14.598 9.791l-.57 1.227 1 34h20v-14.797z"/>
  <path opacity=".2" fill="url(#f)" d="m11.03 9.02l2 2 2 20-7 2z"/>
 </g>
 <g stroke-linejoin="bevel">
  <path fill="url(#g)" stroke-width="2" d="m11.03 9.02c-1.105 0-2 .895-2 2 .001.652.32 1.263.855 1.637-1.466 4.427-4.145 11.653-6.855 14.363 0 0 3.977 6.02 3.977 10.02h10c0-4 4.02-10.02 4.02-10.02-2.71-2.71-5.387-9.934-6.854-14.361.535-.374.853-.986.854-1.639 0-1.105-.895-2-2-2v18.27c.618.357.999 1.017 1 1.73 0 1.105-.895 2-2 2-1.105 0-2-.895-2-2 .001-.713.382-1.372 1-1.729v-14.271z"/>
  <rect width="10.02" x="7" y="39.96" fill="url(#i)" rx="0" height="5.05" stroke-linecap="round" stroke-width="6.2"/>
 </g>
 <path opacity=".2" fill="url(#j)" fill-rule="evenodd" d="m7.03 40.02l5 5h5v-5.02z"/>
 <path fill="url(#h)" stroke-linejoin="bevel" stroke-width="6.2" d="m7.03 37.02h10c.831 0 1.5.675 1.5 1.514 0 .839-.669 1.514-1.5 1.514h-10c-.831 0-1.5-.675-1.5-1.514 0-.839.669-1.514 1.5-1.514"/>
</svg>
