<?xml version="1.0" encoding="UTF-8" standalone="no"?>
<svg xmlns="http://www.w3.org/2000/svg" xmlns:xlink="http://www.w3.org/1999/xlink" version="1" width="48" height="48">
 <defs>
  <linearGradient id="linearGradient4192">
   <stop style="stop-color:#44a3c8;stop-opacity:1" offset="0"/>
   <stop style="stop-color:#8dcdda;stop-opacity:1" offset="1"/>
  </linearGradient>
  <linearGradient id="linearGradient4413">
   <stop style="stop-color:#000000;stop-opacity:1;" offset="0"/>
   <stop style="stop-color:#000000;stop-opacity:0;" offset="1"/>
  </linearGradient>
  <linearGradient id="linearGradient4401">
   <stop style="stop-color:#000000;stop-opacity:1;" offset="0"/>
   <stop style="stop-color:#000000;stop-opacity:0;" offset="1"/>
  </linearGradient>
  <linearGradient id="linearGradient4321">
   <stop offset="0" style="stop-color:#ffffff;stop-opacity:1"/>
   <stop offset="1" style="stop-color:#b1b1b1;stop-opacity:1"/>
  </linearGradient>
  <linearGradient id="linearGradient4313">
   <stop style="stop-color:#ffffff;stop-opacity:1;" offset="0"/>
   <stop style="stop-color:#ffffff;stop-opacity:0;" offset="1"/>
  </linearGradient>
  <linearGradient id="linearGradient564">
   <stop style="stop-color:#5e98d7;stop-opacity:1" offset="0"/>
   <stop style="stop-color:#3363ac;stop-opacity:1" offset="1"/>
  </linearGradient>
  <linearGradient x1="27.72" y1="14.786" x2="27.72" y2="24.357" id="linearGradient3432" xlink:href="#linearGradient4321" gradientUnits="userSpaceOnUse" gradientTransform="matrix(0.94072063,0,0,1.253843,-12.076923,-5.54014)" spreadMethod="pad"/>
  <linearGradient xlink:href="#linearGradient564" id="linearGradient4309" x1="7.623" y1="16.497" x2="46" y2="40" gradientUnits="userSpaceOnUse" gradientTransform="translate(0,-2.0004844)"/>
  <linearGradient xlink:href="#linearGradient4313" id="linearGradient4319" x1="12" y1="18" x2="14" y2="20" gradientUnits="userSpaceOnUse" gradientTransform="translate(0.5,-1.9004844)"/>
  <linearGradient xlink:href="#linearGradient4192" id="linearGradient4333" x1="17" y1="18" x2="11.574" y2="9.363" gradientUnits="userSpaceOnUse" gradientTransform="translate(0,-2.0004844)"/>
  <linearGradient xlink:href="#linearGradient4192" id="linearGradient4350" x1="13" y1="38" x2="4" y2="30" gradientUnits="userSpaceOnUse" gradientTransform="translate(0,-2.0004844)"/>
  <linearGradient xlink:href="#linearGradient4401" id="linearGradient4407" x1="10" y1="8" x2="33.004" y2="31.004" gradientUnits="userSpaceOnUse"/>
  <linearGradient xlink:href="#linearGradient4413" id="linearGradient4419" x1="4" y1="29" x2="15.409" y2="40.409" gradientUnits="userSpaceOnUse"/>
 </defs>
 <path style="opacity:1;fill:url(#linearGradient4309);fill-opacity:1" d="M 19.029297,7.9995156 C 10.148193,8.2424256 4,15.438713 4,24.755375 c 0,9.316862 7.010368,17.122745 15.152344,17.244141 7.368073,0.100714 15.295671,-7.671212 17.929687,-13.703125 1.225264,2.928291 3.63038,6.703355 7.917969,6.703125 0,0 -2,-5.285664 -2,-10.142578 0,-4.856914 2,-9.857422 2,-9.857422 -4.365626,0 -6.786413,3.860998 -7.990234,6.767578 C 34.345763,16.523149 26.661843,8.0970936 19.029297,7.9995156 Z"/>
 <path style="opacity:0.2;fill:url(#linearGradient4419);fill-opacity:1;stroke:none;stroke-width:4;stroke-linecap:round;stroke-linejoin:round;stroke-miterlimit:4;stroke-dasharray:none;stroke-opacity:1" d="M 8.9453125 29.181641 L 3.8945312 33.820312 L 12.074219 42 L 24.996094 42 L 13.263672 30.267578 L 8.9453125 29.181641 z"/>
 <path style="opacity:0.2;fill:url(#linearGradient4407);fill-opacity:1;stroke:none;stroke-width:4;stroke-linecap:round;stroke-linejoin:round;stroke-miterlimit:4;stroke-dasharray:none;stroke-opacity:1" d="M 13.251953 7.2070312 L 9.7128906 13.863281 L 10.058594 23.0625 L 26.693359 39.697266 C 31.332773 36.957994 35.351827 32.259054 37.082031 28.296875 C 38.285091 31.1721 40.630312 34.855647 44.773438 34.988281 L 17.873047 8.0878906 C 17.847278 8.0905285 17.820682 8.0910913 17.794922 8.09375 C 17.611123 7.8537792 17.408063 7.6329857 17.193359 7.4257812 L 13.251953 7.2070312 z"/>
 <path style="opacity:0.15;fill:#000000;fill-opacity:1" d="m 45,14.999516 c -0.12437,0 -0.242051,0.01337 -0.363281,0.01953 C 44.062173,16.7113 43,20.302888 43,23.856938 c 0,0.166517 0.0189,0.334658 0.02344,0.501953 C 43.151169,19.664591 45,14.999516 45,14.999516 Z M 4.0214844,24.224125 C 4.0169306,24.402285 4,24.575602 4,24.755375 c 0,9.316862 7.010368,17.122745 15.152344,17.244141 7.368073,0.100714 15.295671,-7.671212 17.929687,-13.703125 1.225264,2.928291 3.63038,6.703355 7.917969,6.703125 0,0 -0.144379,-0.394448 -0.347656,-1.019531 C 40.585259,33.779539 38.27322,30.143245 37.082031,27.296391 34.448015,33.328304 26.520417,41.10023 19.152344,40.999516 11.14852,40.88018 4.2536862,33.330746 4.0214844,24.224125 Z"/>
 <path style="fill:url(#linearGradient3432)" d="m 20,16.999129 a 6,7.997122 0 1 1 -11.9999995,0 6,7.997122 0 1 1 11.9999995,0 z"/>
 <path style="fill:url(#linearGradient4333);fill-opacity:1" d="M 20,16.999516 C 19.005811,16.1115 15.744246,10.794912 8,14.174641 8,10.801314 9.3437734,5.9995156 13.744428,5.9995156 19.376876,6.174143 20,13.626179 20,16.999516 Z"/>
 <path d="m 16,18.00093 a 2,2 0 0 1 -3.999999,0 2,2 0 1 1 3.999999,0 z" style="fill:#272b2d;fill-opacity:1"/>
 <path style="fill:url(#linearGradient4319);fill-opacity:1" d="m 14.5,17.099516 a 1,1 0 0 1 -2,0 1,1 0 1 1 2,0 z"/>
 <path style="opacity:1;fill:url(#linearGradient4350);fill-opacity:1.0;stroke:none;stroke-width:4;stroke-linecap:round;stroke-linejoin:round;stroke-miterlimit:4;stroke-dasharray:none;stroke-opacity:1" d="m 14,31.499516 c 0,1.932997 -5.5670034,3.5 -7.5,3.5 -1.9329966,0 -3.5,-1.567003 -3.5,-3.5 0,-1.932997 1.5670034,-3.5 3.5,-3.5 1.9329966,0 7.5,1.567003 7.5,3.5 z"/>
</svg>
