<?xml version="1.0" encoding="UTF-8" standalone="no"?>
<svg xmlns="http://www.w3.org/2000/svg" xmlns:xlink="http://www.w3.org/1999/xlink" height="48" width="48" version="1">
 <defs>
  <linearGradient id="linearGradient4148">
   <stop style="stop-color:#da4453;stop-opacity:1" offset="0"/>
   <stop style="stop-color:#ffc536;stop-opacity:1" offset="1"/>
  </linearGradient>
  <linearGradient id="linearGradient4239">
   <stop style="stop-color:#eff0f1;stop-opacity:1" offset="0"/>
   <stop style="stop-color:#b7bbbf;stop-opacity:1" offset="1"/>
  </linearGradient>
  <linearGradient id="linearGradient4231">
   <stop style="stop-color:#424649;stop-opacity:1;" offset="0"/>
   <stop style="stop-color:#2a2c2f;stop-opacity:1" offset="1"/>
  </linearGradient>
  <linearGradient xlink:href="#linearGradient4231" id="linearGradient4237" x1="13.52" y1="21.189" x2="27" y2="23.5" gradientUnits="userSpaceOnUse"/>
  <linearGradient xlink:href="#linearGradient4239" id="linearGradient4245" x1="4.248" y1="13.866" x2="45.925" y2="27.392" gradientUnits="userSpaceOnUse"/>
  <linearGradient xlink:href="#linearGradient4231" id="linearGradient4253" x1="41.282" y1="17.466" x2="40.402" y2="21.048" gradientUnits="userSpaceOnUse"/>
  <linearGradient xlink:href="#linearGradient4148" id="linearGradient4154" x1="3.516" y1="23.827" x2="18.132" y2="23.768" gradientUnits="userSpaceOnUse" gradientTransform="translate(1,0)"/>
 </defs>
 <path style="opacity:1;fill:url(#linearGradient4245);fill-opacity:1" d="m 16,12 c 0,0 4.306268,6.028004 3.617449,6.407055 -0.819992,0.451231 -1.52978,1.056982 -2.115475,1.598967 C 15,20 14,20 14,20 l 0,7 3.501974,0.0033 c 0,0 5.444239,1.533394 9.447077,2.00051 C 27.751469,29.097728 14,36 14,36 c 3.428015,8.5e-4 33.154686,-7.274293 32.008975,-14.084117 -2.633907,-4.029454 -11.96355,-5.74205 -11.96355,-5.74205 0,0 -2.181266,-0.16643 -3.322263,-0.16643 -2.298435,0 -4.410656,0.232578 -6.282762,0.650133 C 23.09921,15.620643 16,12 16,12 Z"/>
 <path style="opacity:0.15;fill:#000000;fill-opacity:1" d="M 16 12 C 16 12 18.670211 15.746935 19.451172 17.507812 C 19.507326 17.474887 19.559955 17.437744 19.617188 17.40625 C 20.08417 17.149274 18.292795 14.367818 17.066406 12.556641 C 16.812128 12.425915 16 12 16 12 z M 45.984375 21.824219 C 44.767987 27.435507 24.502664 33.113766 16.722656 34.607422 C 15.841722 35.053619 14 36 14 36 C 17.44339 36.000854 47.41454 28.660235 45.984375 21.824219 z M 14 26 L 14 27 L 17.501953 27.003906 C 17.501953 27.003906 21.956473 28.251335 25.771484 28.835938 C 26.573545 28.369268 27.112348 28.023 26.949219 28.003906 C 22.946381 27.53679 17.501953 26.003906 17.501953 26.003906 L 14 26 z"/>
 <path style="fill:url(#linearGradient4154);fill-opacity:1;fill-rule:evenodd" d="M 9.3995735,19 C 8.5951584,20.205456 9.2509694,20.730364 10.101105,20.829647 9.1009623,21.208639 8.4347942,20.246 7.6534509,20.016079 7.1646101,19.872233 6,20.521051 5,20 c 0.3630208,1 1.8015677,0.274808 2.2903679,0.73028 0.2317272,0.215928 1.1321689,1.238751 0.4963932,2.055233 C 7.1509855,23.601996 6.5265821,22.102573 5.5194432,22 5.0442182,21.9516 3.9753746,22.773011 3,22.361092 c 1,1.026979 1.398142,0.572551 2.0738063,1.172271 0.6756643,0.59972 1.3770456,1.532128 0.6253808,2.403305 C 5.2270809,26.483837 3.8650713,26.385482 4,27 c 0.2257277,-0.341521 1.9303764,-0.01436 2.5358134,-0.473909 1.9850355,-1.236056 3.1276982,-0.04398 2.0163024,0.747495 -0.3274191,0.217894 -0.8401271,-0.108784 -1.4061396,-0.05316 -0.9476983,0.09313 -1.9889808,0.504036 -2.1516566,0.822278 0.3193482,-0.09264 1.1018029,-0.196951 1.9071359,0.097 C 7.5989629,28.394293 8.3058946,29.052096 8.8384107,29 10.969673,28.791499 11.572473,26.387843 14,28 l 0,-9 c -0.375571,0.162017 -0.739875,0.611735 -2.211573,0.857 C 10.316729,20.102265 9.2303375,20.162055 9.3995735,19 Z"/>
 <path style="fill:url(#linearGradient4237);fill-opacity:1" d="M 17,19.999999 17,19 l -4,0 0,9 4,0 0,-1 c 6,0 10.048673,-2.240854 10,-3.5 -0.04797,-1.240835 -4,-3.5 -10,-3.500001 z"/>
 <path style="opacity:1;fill:url(#linearGradient4253);fill-opacity:1;stroke:none;stroke-width:2;stroke-linecap:round;stroke-linejoin:round;stroke-miterlimit:4;stroke-dasharray:none;stroke-opacity:1" d="M 34.019531 16.171875 A 7.9134374 3.5047922 15 0 0 40.791016 21.427734 A 7.9134374 3.5047922 15 0 0 46.005859 21.939453 C 45.814657 20.728833 44.656224 19.53283 42.197266 18.394531 C 40.09315 17.293639 37.248219 16.498177 34.019531 16.171875 z"/>
 <path style="fill:#000000;fill-opacity:1;opacity:0.2" d="M 26.820312 23.025391 C 25.979062 24.296499 22.232321 26 17 26 L 17 27 C 23 27 27.048673 24.759146 27 23.5 C 26.994364 23.354225 26.930706 23.193962 26.820312 23.025391 z M 17 27 L 13 27 L 13 28 L 17 28 L 17 27 z"/>
</svg>
