<svg width="48" xmlns="http://www.w3.org/2000/svg" height="48">
 <defs>
  <linearGradient id="a" y1="543.77" x1="407.63" y2="504.13" x2="407.69" gradientUnits="userSpaceOnUse">
   <stop stop-color="#da4453"/>
   <stop offset="1" stop-color="#e06571"/>
  </linearGradient>
  <linearGradient id="b" y1="13.1" x1="19" y2="44" x2="44" gradientUnits="userSpaceOnUse">
   <stop stop-color="#292c2f"/>
   <stop offset="1" stop-color="#292c2f" stop-opacity="0"/>
  </linearGradient>
 </defs>
 <g transform="translate(-384.57-499.8)">
  <rect width="40" x="388.57" y="503.8" fill="url(#a)" rx="3" height="40"/>
  <g font-size="12.666">
   <text x="730.88" y="132.19" font-family="Droid Sans">
    
   </text>
  </g>
  <path opacity=".2" fill="url(#b)" d="m19 13.1l-2.82 16.957 6.184.947.236-14.305zm13.48 2.412l1.113 11.813-9.574 4.568-8.623.475 11.629 11.629h12.971c2.216 0 4-1.784 4-4v-12.971z" transform="translate(384.57 499.8)"/>
  <path fill="#ffffff" stroke-linejoin="round" stroke-width="4" d="m408.57143 511.798a12 12 0 0 0 -2 .16992v16.83c0 .554-.446 1-1 1h-1c-.554 0-1-.446-1-1v-15.893a12 12 0 0 0 -7 10.89258 12 12 0 0 0 12 12 12 12 0 0 0 12 -12 12 12 0 0 0 -12 -12m-.49609 6a.50005 .545507 0 0 1 .23828 .0684l9 5.455a.50005 .545507 0 0 1 0 .95312l-9 5.455a.50005 .545507 0 0 1 -.74219 -.47656v-10.91a.50005 .545507 0 0 1 .50391 -.54492"/>
  <path opacity=".15" d="m4 40v1c0 1.662 1.338 3 3 3h34c1.662 0 3-1.338 3-3v-1c0 1.662-1.338 3-3 3h-34c-1.662 0-3-1.338-3-3" transform="translate(384.57 499.8)"/>
 </g>
</svg>
