<?xml version="1.0" encoding="UTF-8" standalone="no"?>
<svg xmlns="http://www.w3.org/2000/svg" xmlns:xlink="http://www.w3.org/1999/xlink" width="48" height="48" version="1.1">
 <defs>
  <linearGradient id="linearGradient4386">
   <stop style="stop-color:#000000;stop-opacity:1;" offset="0"/>
   <stop style="stop-color:#000000;stop-opacity:0;" offset="1"/>
  </linearGradient>
  <linearGradient xlink:href="#linearGradient4299" id="linearGradient4415" x1="408.571" y1="543.773" x2="408.632" y2="503.67" gradientUnits="userSpaceOnUse"/>
  <linearGradient id="linearGradient4227">
   <stop offset="0" style="stop-color:#2e3436;stop-opacity:1"/>
   <stop offset="1" style="stop-color:#555753;stop-opacity:1"/>
  </linearGradient>
  <linearGradient xlink:href="#linearGradient4227" id="linearGradient4437" x1="408.571" y1="535.199" x2="408.571" y2="512.397" gradientUnits="userSpaceOnUse" gradientTransform="matrix(0.96481792,0,0,0.96481792,14.374377,18.428304)"/>
  <linearGradient id="linearGradient4299">
   <stop offset="0" style="stop-color:#1064d3;stop-opacity:1"/>
   <stop offset="1" style="stop-color:#14c6fd;stop-opacity:1"/>
  </linearGradient>
  <linearGradient xlink:href="#linearGradient4386" id="linearGradient4392" x1="9.077" y1="9.083" x2="42.946" y2="42.953" gradientUnits="userSpaceOnUse"/>
 </defs>
 <g transform="translate(-384.57143,-499.798)">
  <rect style="fill:url(#linearGradient4415);fill-opacity:1.0" width="40" height="40" x="388.57" y="503.8" ry="3" rx="3"/>
  <path style="fill:#000000;fill-opacity:1;opacity:0.2" d="M 4 40 L 4 41 C 4 42.662 5.338 44 7 44 L 41 44 C 42.662 44 44 42.662 44 41 L 44 40 C 44 41.662 42.662 43 41 43 L 7 43 C 5.338 43 4 41.662 4 40 z" transform="translate(384.57143,499.798)"/>
  <path style="opacity:0.2;fill:url(#linearGradient4392);fill-opacity:1;stroke:none;stroke-width:2;stroke-linecap:butt;stroke-linejoin:round;stroke-miterlimit:4;stroke-dasharray:none;stroke-opacity:1" d="M 38.326172 9.4023438 L 9.3867188 38.341797 L 15.044922 44 L 41 44 C 42.662 44 44 42.662 44 41 L 44 15.076172 L 38.326172 9.4023438 z" transform="translate(384.57143,499.798)"/>
  <rect style="fill:#f8f8f8;fill-opacity:1;stroke:none;stroke-width:11.24999905" width="30" height="30" x="393.57" y="508.8" rx="1.822" ry="1.822"/>
  <path style="fill:url(#linearGradient4437);fill-opacity:1;stroke:none;stroke-width:3.17499971" d="m 397.57143,512.79801 0,21.99999 4.88889,0 5.11111,0 0,-5 -5,0 0,-12 5,0 0,-4.99999 -5.11111,0 z m 12,0 0,4.99999 5,0 0,12 -5,0 0,5 5.11111,0 4.88889,0 0,-22 -4.88889,0 -5.11111,0 z"/>
 </g>
</svg>
