<svg width="48" xmlns="http://www.w3.org/2000/svg" height="48">
 <defs>
  <linearGradient id="a" y1="543.8" y2="503.8" x1="434.57" gradientUnits="userSpaceOnUse" x2="384.57" gradientTransform="matrix(.6875 0 0 .9 128.18 52.38)">
   <stop stop-color="#343b40"/>
   <stop offset="1" stop-color="#555e63"/>
  </linearGradient>
  <linearGradient id="b" y1="543.8" y2="503.8" x2="0" gradientUnits="userSpaceOnUse" gradientTransform="matrix(1.15625 0 0 1-63.34 0)">
   <stop stop-color="#bd8d48"/>
   <stop offset="1" stop-color="#e8b971"/>
  </linearGradient>
  <linearGradient id="c" y1="17.14" y2="33.14" x1="37.581" gradientUnits="userSpaceOnUse" x2="53.58" gradientTransform="translate(362.99 498.66)">
   <stop stop-color="#383e51"/>
   <stop offset="1" stop-color="#655c6f" stop-opacity="0"/>
  </linearGradient>
 </defs>
 <g transform="translate(-384.57-499.8)">
  <rect width="37" x="390.57" y="503.8" fill="url(#b)" rx="0" height="40"/>
  <rect width="33" x="392.57" y="505.8" fill="url(#a)" height="36"/>
  <path fill="#aa7f41" d="m392.57 505.8v36h33v-36zm1 1h31v34h-31z"/>
  <g color="#000000">
   <rect width="4" x="418.57" y="539.8" fill="#ffffff" height="1"/>
   <rect width="4" x="413.57" y="539.8" fill="#007ad9" height="1"/>
  </g>
  <path opacity=".2" fill="url(#c)" fill-rule="evenodd" d="m416.57 518.8l-1 2v-1h-7l-4 7h-1l-1-2h-2l5 5h-5l14 14h9.99c.006 0 .01-3.568.01-8v-9z"/>
  <path fill="#d6d6d6" d="m416.57 518.8l-8 .004-4.441 7.691-1.555-2.695h-2v1h1.428l2.133 3.693 5.02-8.693h6.42v1h1zm-5 3c-1.662 0-3 1.338-3 3 0 1.662 1.338 3 3 3 .773 0 1.469-.298 2-.775v.775h1v-6h-1v.775c-.531-.477-1.227-.775-2-.775m0 1c1.108 0 2 .892 2 2 0 1.108-.892 2-2 2-1.108 0-2-.892-2-2 0-1.108.892-2 2-2m-10.99 5.99c-.006 0-.01.223-.01.5 0 .277.004.5.01.5h15.98c.006 0 .01-.223.01-.5 0-.277-.004-.5-.01-.5zm7 2c-.006 0-.01.223-.01.5 0 .277.004.5.01.5h1.98c.006 0 .01-.223.01-.5 0-.277-.004-.5-.01-.5z"/>
 </g>
</svg>
