<svg width="48" height="48" version="1.1" viewBox="0 0 12.7 12.7" xmlns="http://www.w3.org/2000/svg" xmlns:xlink="http://www.w3.org/1999/xlink"><defs><linearGradient id="a"><stop stop-color="#232629" offset="0"/><stop stop-opacity="0" offset="1"/></linearGradient><linearGradient id="j" x1="10.692" x2="34.026" y1="14.134" y2="29.068" gradientTransform="matrix(.24946 0 0 .25474 .77251 285.56)" gradientUnits="userSpaceOnUse"><stop stop-color="#349cd2" offset="0"/><stop stop-color="#2694d9" offset=".74017"/><stop stop-color="#0e6daa" offset="1"/></linearGradient><linearGradient id="k" x1="21.274" x2="27.447" y1="291.3" y2="287.35" gradientTransform="matrix(.94283 0 0 .9628 -16.618 11.67)" gradientUnits="userSpaceOnUse"><stop stop-color="#1d99f3" offset="0"/><stop stop-color="#3daee9" offset="1"/></linearGradient><linearGradient id="l" x1="27.447" x2="25.966" y1="289.76" y2="289.76" gradientTransform="matrix(.94283 0 0 .9628 -16.618 11.67)" gradientUnits="userSpaceOnUse"><stop stop-color="#1881ce" offset="0"/><stop stop-color="#2980b9" offset="1"/></linearGradient><linearGradient id="b" x1="1.0583" x2="11.642" y1="285.08" y2="296.22" gradientTransform="matrix(1 0 0 .95 1.8704e-7 14.533)" gradientUnits="userSpaceOnUse"><stop stop-color="#535a61" offset="0"/><stop stop-color="#333c45" offset="1"/></linearGradient><linearGradient id="h" x1="3.4561" x2="9.3148" y1="287.76" y2="293.61" gradientUnits="userSpaceOnUse" xlink:href="#a"/><linearGradient id="i" x1="7.8635" x2="11.642" y1="288.34" y2="292.11" gradientTransform="translate(4.5e-7,9.96e-6)" gradientUnits="userSpaceOnUse" xlink:href="#a"/></defs><g transform="translate(0 -284.3)"><rect x="1.0583" y="285.36" width="10.583" height="10.583" rx=".52917" ry=".52917" fill="url(#b)"/><path d="m1.0583 295.15v0.26458c0 0.29316 0.23601 0.52917 0.52917 0.52917h9.525c0.29316 0 0.52917-0.23601 0.52917-0.52917v-0.26458c0 0.29316-0.23601 0.52917-0.52917 0.52917h-9.525c-0.29316 0-0.52917-0.23601-0.52917-0.52917z" opacity=".4"/><path d="m7.8635 293.56 1.397-0.59431v-4.6363l-1.397-0.59024z" fill="url(#l)"/><path d="m7.8635 289.41v4.1528l2.0914 2.1167h1.6868v-5.4138l-2.3813-1.9334z" fill="url(#i)" opacity=".4"/><path d="m3.4396 289.16 4.4239 4.3986 1.397-0.59431-5.2386-4.042z" fill="url(#j)" style="isolation:isolate"/><path d="m3.4396 292.13 3.8078 3.8078h2.9677l-2.3517-2.3812 1.397-0.59431-1.397-1.0779v-4.1486z" fill="url(#h)" opacity=".35"/><path d="m4.0218 292.37-0.58223-0.23767 4.4239-4.3943 1.397 0.59024z" fill="url(#k)"/></g></svg>
