<?xml version="1.0" encoding="UTF-8" standalone="no"?>
<svg xmlns="http://www.w3.org/2000/svg" xmlns:xlink="http://www.w3.org/1999/xlink" width="48" height="48">
 <defs>
  <linearGradient xlink:href="#1" id="0" y1="543.798" x2="0" y2="503.798" gradientUnits="userSpaceOnUse" gradientTransform="translate(-5.9283447e-6,1.1108398e-5)"/>
  <linearGradient id="1">
   <stop stop-color="#197cf1"/>
   <stop offset="1" stop-color="#20bcfa"/>
  </linearGradient>
 </defs>
 <g transform="translate(-384.57143,-499.798)">
  <rect width="40" height="40" x="388.57" y="503.8" fill="url(#0)" rx="20"/>
  <path d="M 4.0117188 23.5 C 4.007647 23.666859 4 23.832126 4 24 C 4 35.079992 12.920008 44 24 44 C 35.079992 44 44 35.079992 44 24 C 44 23.832126 43.992353 23.666859 43.988281 23.5 C 43.724099 34.346571 34.912435 43 24 43 C 13.087565 43 4.2759007 34.346571 4.0117188 23.5 z" transform="translate(384.57143,499.798)" fill="#0c69cf"/>
  <path d="m 409.78685,507.798 c 3.93874,3.40021 4.92347,6.84669 4.92347,12.26249 l 1.61555,-4.185 c 1.70085,1.67225 2.86007,3.88792 3.20027,6.36972 0.1252,1.90845 -0.1864,3.59799 -0.67873,5.07501 2.00911,-1.27923 4.54669,-2.74105 5.6329,-5.07501 -0.72501,-7.72267 -6.93245,-13.8567 -14.69346,-14.44721 z m -2.76822,0.0911 c -7.72267,0.72501 -13.85669,6.93236 -14.4472,14.69333 3.40025,-3.93874 6.84658,-4.92333 12.26236,-4.92333 l -4.18487,-1.61556 c 1.67226,-1.70084 3.88791,-2.85996 6.36971,-3.20013 1.9084,-0.12521 3.59798,0.18626 5.07502,0.6786 -1.27921,-2.00913 -2.74103,-4.54671 -5.07502,-5.63291 z m -8.72305,12.38666 c -2.00912,1.27921 -4.54685,2.74102 -5.63304,5.07501 0.72502,7.72267 6.93247,13.85672 14.69346,14.44722 -3.93874,-3.40024 -4.92347,-6.84672 -4.92347,-12.2625 l -1.61556,4.18498 c -1.70081,-1.67222 -2.85996,-3.88792 -3.20012,-6.3697 -0.12521,-1.90844 0.1864,-3.59795 0.67873,-5.07501 z m 26.27585,4.73765 c -3.40023,3.93873 -6.84658,4.92348 -12.26237,4.92348 l 4.18486,1.61555 c -1.67223,1.70086 -3.88791,2.86006 -6.36972,3.20027 -1.90843,0.1252 -3.59797,-0.1864 -5.07501,-0.67875 1.27922,2.0091 2.74103,4.54672 5.07501,5.63291 7.72266,-0.72501 13.8567,-6.93244 14.44723,-14.69346 z" fill="#ecf0f1" fill-rule="evenodd"/>
 </g>
</svg>
