<svg width="48" xmlns="http://www.w3.org/2000/svg" height="48" xmlns:xlink="http://www.w3.org/1999/xlink">
 <defs>
  <linearGradient id="a" y1="534.08" x1="390.08" y2="513.54" x2="389.88" gradientUnits="userSpaceOnUse" gradientTransform="matrix(-1.08253.63333-.625-1.09696 1174.65 852.48)">
   <stop stop-color="#fcfcfc"/>
   <stop offset="1" stop-color="#b677d3"/>
  </linearGradient>
  <linearGradient xlink:href="#a" id="b" y1="532.43" x1="382.21" y2="526.79" x2="395.45" gradientUnits="userSpaceOnUse" gradientTransform="matrix(1.08253.63333.625-1.09696-357.51 852.48)"/>
  <linearGradient id="c" y1="20.16" x1="25.13" y2="4.759" x2="7.07" gradientUnits="userSpaceOnUse" gradientTransform="matrix(1.25 0 0 1.26667 388.57 502.26)">
   <stop stop-color="#c0392b"/>
   <stop offset="1" stop-color="#b677d3"/>
  </linearGradient>
  <linearGradient id="d" y1="537.6" x1="400.57" y2="546.58" x2="392.9" gradientUnits="userSpaceOnUse" gradientTransform="matrix(1.25 0 0 1.26667-92.14-151.08)">
   <stop stop-color="#ffc35a"/>
   <stop offset="1" stop-color="#faae2a"/>
  </linearGradient>
  <linearGradient xlink:href="#d" id="e" y1="538.07" x1="393.43" y2="539.31" x2="390.56" gradientUnits="userSpaceOnUse" gradientTransform="matrix(1.25 0 0 1.26667-92.14-151.08)"/>
  <linearGradient id="f" y1="535.36" x1="390.57" y2="540.75" x2="386.57" gradientUnits="userSpaceOnUse" gradientTransform="matrix(1.25 0 0 1.26667-92.14-151.08)">
   <stop stop-color="#fdbc4b"/>
   <stop offset="1" stop-color="#dde341"/>
  </linearGradient>
  <linearGradient xlink:href="#d" id="g" y1="524.44" x1="393.1" y2="522.66" x2="388.89" gradientUnits="userSpaceOnUse" gradientTransform="matrix(.95819.56059.55321-.97096-270.72 815.18)"/>
  <linearGradient xlink:href="#d" id="h" y1="522.9" x1="392.69" y2="521.73" x2="389.45" gradientUnits="userSpaceOnUse" gradientTransform="matrix(-.95819.56059-.55321-.97096 1087.86 815.18)"/>
  <linearGradient xlink:href="#d" id="i" y1="535.36" x1="390.57" y2="540.75" x2="386.57" gradientUnits="userSpaceOnUse" gradientTransform="matrix(-1.25 0 0 1.26667 909.29-151.08)"/>
  <linearGradient xlink:href="#d" id="j" y1="538.07" x1="393.43" y2="539.31" x2="390.56" gradientUnits="userSpaceOnUse" gradientTransform="matrix(-1.25 0 0 1.26667 909.29-151.08)"/>
  <linearGradient xlink:href="#d" id="k" y1="537.6" x1="400.57" y2="546.58" x2="392.9" gradientUnits="userSpaceOnUse" gradientTransform="matrix(-1.25 0 0 1.26667 909.29-151.08)"/>
  <linearGradient id="l" y1="535.8" x1="396.57" y2="542.8" x2="389.57" gradientUnits="userSpaceOnUse" gradientTransform="matrix(-1.25 0 0 1.26667 909.29-152.35)">
   <stop/>
   <stop offset="1" stop-opacity="0"/>
  </linearGradient>
  <linearGradient xlink:href="#l" id="m" y1="535.8" x1="396.57" y2="542.8" x2="389.57" gradientUnits="userSpaceOnUse" gradientTransform="matrix(-1.25 0 0 1.26667 914.29-151.08)"/>
  <linearGradient xlink:href="#l" id="n" y1="535.8" x1="396.57" y2="542.8" x2="389.57" gradientUnits="userSpaceOnUse" gradientTransform="matrix(-1.25 0 0 1.26667 919.29-151.08)"/>
  <linearGradient xlink:href="#l" id="o" y1="535.8" x1="396.57" y2="547.8" x2="384.57" gradientUnits="userSpaceOnUse" gradientTransform="matrix(-1.25 0 0 1.26667 890.54-167.55)"/>
  <linearGradient xlink:href="#d" id="p" y1="535.36" x1="390.57" y2="540.75" x2="386.57" gradientUnits="userSpaceOnUse" gradientTransform="matrix(1.25 0 0 1.26667-92.14-151.08)"/>
  <path fill-rule="evenodd" id="q" d="m394.82 525.06c-3.75 2.533 0 5.067-2.5 7.6-2.5 2.533-3.75 1.267-3.75 2.533 0 1.267 3.75 3.8 6.25 1.267 2.5-2.533 2.5-3.8 2.5-3.8 0 0 2.5-2.533 1.25-5.067-1.25-2.533-3.75-2.533-3.75-2.533"/>
 </defs>
 <g transform="matrix(1 0 0 1.05263-384.57-527.37)">
  <path fill="#ffc35a" d="m408.57 504.8c9.695 0 17.5 7.909 17.5 17.733 0 9.824-7.805 11.4-17.5 11.4-9.695 0-17.5-1.576-17.5-11.4 0-9.824 7.805-17.733 17.5-17.733"/>
  <path fill="url(#c)" d="m408.57 504.8c-.071 0-.139.009-.21.01-.664 1.956-.025 4.47 1.238 5.079 1.36.656 4.33-.672 5.269-2.669.179-.381.249-.756.271-1.123-2.028-.829-4.24-1.296-6.567-1.296m-1.167.059c-2.719.181-5.26.978-7.495 2.266.245.656.758 1.223 1.533 1.672 1.699.985 4.65 1.139 5.713-.742.484-.857.508-2.053.249-3.196m8.281 2.934c-.611 0-2.212 1.25-2.212 1.804 0 .553 1.286 1.962 1.897 1.962.611 0 .396-1.891.396-2.444 0-.553.531-1.321-.081-1.321m-13.308 1.705c-.811-.075-1.932.833-2.202 1.338-.309.577-.331 2.083.469 2.523.8.44 1.497-.553 1.807-1.131.309-.577 1.051-2.195.251-2.635-.1-.055-.209-.086-.325-.097m4.919.198c-.887.012-1.896.305-2.727.698-1.662.785-1.984 2.786-1.301 4.27.682 1.484 1.636 2.049 3.298 1.264 1.662-.785 3.405-3.746 2.722-5.23-.341-.742-1.105-1.013-1.992-1m4.724.668c-.359.03-.735.146-1.125.356-1.56.843-2.106 3.304-1.316 4.807.79 1.503 2.934 2.28 4.495 1.437 1.56-.843 1.315-3.385.525-4.889-.593-1.127-1.502-1.801-2.578-1.712m4.451 2.264c-.908.056-.979 1.272-.94 1.927.039.656.254 2.426 1.162 2.37.908-.056 1.533-1.754 1.494-2.41-.039-.656-.808-1.943-1.716-1.888m-8.787 3.434c-1.207-.019-2.527.835-3.123 1.749-.794 1.218-1.184 2.238.2 3.164 1.384.927 3.544.77 4.338-.448.794-1.218 1.106-3.197-.278-4.124-.346-.232-.735-.335-1.138-.341m-4.121.304c-.495 0-1.213.378-1.213 1.042 0 .664.323.96.818.96.495 0 .977-.296.977-.96 0-.664-.086-1.042-.581-1.042m7.893 1.442c-.764 0-1.462 1.473-1.462 2.402 0 .929 1.013.962 1.777.962.764 0 1.78-.753 1.78-1.682 0-.929-1.331-1.682-2.095-1.682"/>
  <path fill="url(#b)" d="m392.08033 527.71799a5.00433 8.858952 14.633555 0 1 -2.56498 -9.87587 5.00433 8.858952 14.633555 0 1 7.0943 -7.25319 5.00433 8.858952 14.633555 0 1 .54755 .22338 5.00437 17.717786 14.778482 0 1 -1.60478 8.66898 5.00437 17.717786 14.778482 0 1 -2.8915 8.32561 5.00433 8.858952 14.633555 0 1 -.58058 -.089"/>
  <path fill="#2c3e50" color-rendering="auto" shape-rendering="auto" color-interpolation-filters="linearRGB" image-rendering="auto" fill-rule="evenodd" text-rendering="auto" color-interpolation="sRGB" color="#000000" d="m389.05339 520.6061a5.00433 8.858952 14.633555 0 1 .46123 -2.76395 5.00433 8.858952 14.633555 0 1 .22806 -.76642c1.716.231 1.755-.194 2.705-.383 1.06-.211 3.047 1.789 1.328 1.488-1.718-.301-2.221 2.466-4.558 2.438-.072-.001-.097-.011-.164-.013"/>
  <path fill="url(#a)" d="m425.06257 527.71799a8.858952 5.00433 75.36644 0 0 2.56497 -9.87587 8.858952 5.00433 75.36644 0 0 -7.0943 -7.25319 8.858952 5.00433 75.36644 0 0 -.54755 .22338 17.717786 5.00437 75.22152 0 0 1.60479 8.66898 17.717786 5.00437 75.22152 0 0 2.8915 8.32561 8.858952 5.00433 75.36644 0 0 .58058 -.089"/>
  <g fill-rule="evenodd">
   <path fill="#2c3e50" color-rendering="auto" shape-rendering="auto" color-interpolation-filters="linearRGB" image-rendering="auto" text-rendering="auto" color-interpolation="sRGB" color="#000000" d="m428.0895 520.6061a8.858952 5.00433 75.36644 0 0 -.46122 -2.76395 8.858952 5.00433 75.36644 0 0 -.22806 -.76642c-1.716.231-1.755-.194-2.705-.383-1.06-.211-3.047 1.789-1.328 1.488 1.718-.301 2.221 2.466 4.558 2.438.072-.001.097-.011.164-.013"/>
   <g fill="#ffc35a">
    <path d="m399.91 508.61c0 0-5-1.267-5 1.267 0 1.267 1.25 5.067 1.25 7.6 0 2.533 2.5-3.8 2.5-3.8z"/>
    <path d="m417.32 508.6c0 0 5-1.267 5 1.267 0 1.267-1.25 5.067-1.25 7.6 0 2.533-2.5-3.8-2.5-3.8z"/>
   </g>
   <path fill="url(#g)" d="m394.51 530.13c0 0-4.386-1.271-3.28-3.213.553-.971 3.171-3.323 4.277-5.265 1.106-1.942.257 4.03.257 4.03z"/>
   <path fill="url(#h)" d="m422.64 530.13c0 0 4.386-1.271 3.28-3.213-.553-.971-3.171-3.323-4.277-5.265-1.106-1.942-.257 4.03-.257 4.03z"/>
  </g>
  <use fill="url(#f)" xlink:href="#q"/>
  <g fill-rule="evenodd">
   <path opacity=".1" fill="url(#n)" d="m423.57 526.33v3.459c.697-.284 1.578-.739 2.097-1.333z"/>
   <path fill="url(#i)" d="m422.32 525.06c3.75 2.533 0 5.067 2.5 7.6 2.5 2.533 3.75 1.267 3.75 2.533 0 1.267-3.75 3.8-6.25 1.267-2.5-2.533-2.5-3.8-2.5-3.8 0 0-2.5-2.533-1.25-5.067 1.25-2.533 3.75-2.533 3.75-2.533"/>
   <path opacity=".1" fill="url(#m)" d="m419.05 526.82c-.173.23-.338.483-.483.777v3.097c.47 1.154 1.25 1.969 1.25 1.969 0 0 0 1.267 2.5 3.8 2.01 2.04 4.804.796 5.828-.428l-3.328-3.372z"/>
   <path fill="url(#j)" d="m415.11 537.93c.971 3.671 6.827 4.075 8.466 2.338 1.639-1.737-1.782-1.53-2.429-3.977-.647-2.447.884-1.551-.087-5.222-.971-3.671-3.734-6-3.734-6l-5 2.533z"/>
   <path opacity=".1" fill="url(#l)" d="m413.82 526.33l-.25.633v5.272l1.533 5.69c.971 3.671 6.828 4.075 8.467 2.338 1.639-1.737-1.752-1.536-2.429-3.976-.474-1.707.059-1.653.137-2.415z"/>
   <path fill="url(#k)" d="m408.57 531.4v5.067c0 3.8 3.75 6.333 7.5 6.333 3.75 0-1.25-2.533 0-6.333 1.25-3.8-2.5-11.4-2.5-11.4l-5 1.267z"/>
  </g>
  <use fill="url(#p)" xlink:href="#q"/>
  <g fill-rule="evenodd">
   <path fill="url(#e)" d="m402.04 537.93c-.971 3.671-6.827 4.075-8.466 2.338-1.639-1.737 1.782-1.53 2.429-3.977.647-2.447-.884-1.551.087-5.222.971-3.671 3.734-6 3.734-6l5 2.533z"/>
   <path fill="url(#d)" d="m408.57 531.4v5.067c0 3.8-3.75 6.333-7.5 6.333-3.75 0 1.25-2.533 0-6.333-1.25-3.8 2.5-11.4 2.5-11.4l5 1.267z"/>
   <path opacity=".1" fill="url(#o)" d="m394.92 509.97c.038 1.255 1.098 4.611 1.216 7.083a5.00437 17.717786 14.778482 0 1 -.58594 2.4319 5.00437 17.717786 14.778482 0 1 -1.09862 3.66887c-1.23 1.529-2.812 3.038-3.228 3.768-.013.023-.013.044-.024.067l-.129.614.688 1.163c.417.353.947.638 1.438.861.12 1.014.125 2.029-.876 3.043-2.5 2.533-3.75 1.267-3.75 2.533 0 1.267 3.75 3.8 6.25 1.267.565-.572.987-1.071 1.326-1.514.038.318.016.723-.146 1.338-.647 2.447-4.068 2.239-2.429 3.976 1.639 1.737 7.496 1.333 8.467-2.338l1.143-4.243c1.699.172 3.501.247 5.391.247 3.365 0 6.491-.2 9.153-.858z"/>
  </g>
 </g>
</svg>
