<?xml version="1.0" encoding="UTF-8" standalone="no"?>
<svg xmlns="http://www.w3.org/2000/svg" xmlns:xlink="http://www.w3.org/1999/xlink" width="48" height="48" version="1.1">
 <defs>
  <linearGradient id="linearGradient4212">
   <stop style="stop-color:#cd7223;stop-opacity:1" offset="0"/>
   <stop style="stop-color:#ffc169;stop-opacity:1" offset="1"/>
  </linearGradient>
  <linearGradient id="linearGradient4204">
   <stop style="stop-color:#ffa92d;stop-opacity:1" offset="0"/>
   <stop style="stop-color:#edf573;stop-opacity:1" offset="1"/>
  </linearGradient>
  <linearGradient id="linearGradient4196">
   <stop style="stop-color:#2b4d37;stop-opacity:1" offset="0"/>
   <stop style="stop-color:#3bb566;stop-opacity:1" offset="1"/>
  </linearGradient>
  <linearGradient id="linearGradient4188">
   <stop style="stop-color:#375a7d;stop-opacity:1" offset="0"/>
   <stop style="stop-color:#54a3d8;stop-opacity:1" offset="1"/>
  </linearGradient>
  <linearGradient id="linearGradient4174">
   <stop style="stop-color:#68377d;stop-opacity:1" offset="0"/>
   <stop style="stop-color:#cb7cec;stop-opacity:1" offset="1"/>
  </linearGradient>
  <linearGradient id="linearGradient4166">
   <stop style="stop-color:#bf4231;stop-opacity:1" offset="0"/>
   <stop style="stop-color:#f58273;stop-opacity:1" offset="1"/>
  </linearGradient>
  <linearGradient id="linearGradient4366">
   <stop style="stop-color:#010609;stop-opacity:1;" offset="0"/>
   <stop style="stop-color:#010609;stop-opacity:0;" offset="1"/>
  </linearGradient>
  <linearGradient id="m" y1="268.7" y2="231.54" x1="272.35" gradientUnits="userSpaceOnUse" x2="220.97" gradientTransform="matrix(0.09374597,0,0,0.09374052,-0.00430735,0.00650676)">
   <stop stop-color="#b0b0b0" offset="0"/>
   <stop stop-color="#ffffff" offset="1"/>
  </linearGradient>
  <linearGradient xlink:href="#linearGradient4366" id="linearGradient4372" x1="15.718" y1="6.277" x2="42.144" y2="32.703" gradientUnits="userSpaceOnUse"/>
  <linearGradient xlink:href="#linearGradient4166" id="linearGradient4172" x1="21.523" y1="22.219" x2="13.091" y2="6.458" gradientUnits="userSpaceOnUse"/>
  <linearGradient xlink:href="#linearGradient4174" id="linearGradient4180" x1="16.92" y1="29.54" x2="5.917" y2="11.505" gradientUnits="userSpaceOnUse" gradientTransform="translate(-0.09345477,0)"/>
  <linearGradient xlink:href="#linearGradient4188" id="linearGradient4194" x1="21.153" y1="41.488" x2="14.308" y2="30.856" gradientUnits="userSpaceOnUse"/>
  <linearGradient xlink:href="#linearGradient4196" id="linearGradient4202" x1="33.954" y1="41.037" x2="25.384" y2="31.491" gradientUnits="userSpaceOnUse"/>
  <linearGradient xlink:href="#linearGradient4204" id="linearGradient4210" x1="42.56" y1="31.19" x2="29.652" y2="18.776" gradientUnits="userSpaceOnUse"/>
  <linearGradient xlink:href="#linearGradient4212" id="linearGradient4218" x1="40.262" y1="16.121" x2="24.036" y2="7.317" gradientUnits="userSpaceOnUse"/>
 </defs>
 <circle style="opacity:1;fill:#33393e;fill-opacity:1;stroke:none;stroke-width:2;stroke-linecap:round;stroke-linejoin:round;stroke-miterlimit:4;stroke-dasharray:none;stroke-opacity:0" cx="24" cy="24" r="19.5"/>
 <path style="fill:url(#linearGradient4218);fill-opacity:1" d="M 27.639543,4.3791865 22.871166,17.863372 41.644613,14.725425 C 38.863143,9.4194589 33.738446,5.5209766 27.635595,4.3791865"/>
 <path style="fill:url(#linearGradient4210);fill-opacity:1" d="M 42.879397,17.663855 28.740089,20.303998 40.864854,34.88849 c 3.235508,-5.045211 4.072515,-11.403086 2.014543,-17.224635"/>
 <path style="fill:url(#linearGradient4202);fill-opacity:1" d="M 39.039822,37.101943 29.668891,26.2579 23.016261,43.981327 c 6.015991,0.259767 11.977696,-2.198638 16.024548,-6.879384"/>
 <path style="fill:url(#linearGradient4194);fill-opacity:1" d="M 20.236764,43.630691 25.005141,30.146505 6.2316934,33.284452 C 9.0131642,38.590418 14.137861,42.4889 20.240712,43.630691"/>
 <path style="fill:url(#linearGradient4180);fill-opacity:1" d="M 5.1206032,30.326268 19.259911,27.686125 7.1351461,13.101633 C 3.8996383,18.146844 3.0626307,24.504719 5.1206032,30.326268"/>
 <circle style="fill:url(#m)" cy="24" cx="24" r="3"/>
 <path style="opacity:0.2;fill:url(#linearGradient4372);fill-opacity:1;stroke:none;stroke-width:2;stroke-linecap:round;stroke-linejoin:round;stroke-miterlimit:4;stroke-dasharray:none;stroke-opacity:0" d="m 24.865234,4.0429688 -4.292968,1.140625 -6.578125,7.4746092 4.234375,9.033203 18.070312,18.070313 A 20,20 0 0 0 44,24 20,20 0 0 0 43.964844,23.001953 L 25.013672,4.0507812 a 20,20 0 0 0 -0.148438,-0.00781 z"/>
 <path style="fill:url(#linearGradient4172);fill-opacity:1" d="M 8.9154475,10.898057 18.286378,21.7421 24.939009,4.0186732 C 18.923017,3.7589061 12.961313,6.2173106 8.9144604,10.898057"/>
 <path style="fill:#000000;fill-opacity:1;opacity:0.15" d="M 4.0175781 23.490234 C 3.9821739 25.778553 4.3310315 28.091261 5.1210938 30.326172 L 5.3730469 30.279297 A 20 20 0 0 1 4.0175781 23.490234 z M 43.986328 23.724609 C 43.890689 27.320121 42.81837 30.843097 40.865234 33.888672 L 40.800781 33.810547 A 20 20 0 0 1 40.441406 34.378906 L 40.865234 34.888672 C 42.998946 31.56152 44.081467 27.66321 43.986328 23.724609 z M 6.7460938 33.199219 L 6.2324219 33.285156 C 9.0133202 38.59003 14.135136 42.488169 20.236328 43.630859 L 20.572266 42.683594 A 20 20 0 0 1 19.619141 42.498047 C 19.136426 42.391717 18.658302 42.273157 18.189453 42.132812 A 20 20 0 0 1 18.125 42.115234 A 20 20 0 0 1 17.96875 42.0625 C 17.370002 41.875645 16.783875 41.661794 16.210938 41.421875 C 12.23757 39.758017 8.9180536 36.856947 6.7460938 33.199219 z M 38.617188 36.613281 A 20 20 0 0 1 26.613281 42.804688 C 26.543742 42.81421 26.473952 42.82128 26.404297 42.830078 A 20 20 0 0 1 24.480469 42.982422 C 24.470678 42.982714 24.460963 42.984097 24.451172 42.984375 A 20 20 0 0 1 24.433594 42.984375 A 20 20 0 0 1 24 43 A 20 20 0 0 1 23.714844 42.986328 C 23.606052 42.985429 23.497539 42.988999 23.388672 42.986328 L 23.015625 43.980469 C 29.031616 44.240236 34.994164 41.782309 39.041016 37.101562 L 39.039062 37.101562 L 38.617188 36.613281 z"/>
</svg>
