<?xml version="1.0" encoding="UTF-8" standalone="no"?>
<svg xmlns="http://www.w3.org/2000/svg" width="48" height="48" version="1.1">
 <defs>
  <linearGradient id="b" y1="23.775" x1="22.54" y2="37.804" x2="36.896" gradientUnits="userSpaceOnUse">
   <stop stop-color="#292c2f"/>
   <stop offset="1" stop-color="#292c2f" stop-opacity="0"/>
  </linearGradient>
  <linearGradient gradientTransform="translate(-432.5705,-499.79999)" gradientUnits="userSpaceOnUse" x2="426.695" y2="499.921" y1="547.675" id="a-6" x1="389.32">
   <stop stop-color="#18222a" style="stop-color:#1e2b35;stop-opacity:1"/>
   <stop stop-color="#566069" offset="1" style="stop-color:#6d7983;stop-opacity:1"/>
  </linearGradient>
 </defs>
 <rect width="40" x="-44" y="4" rx="20" height="40" transform="scale(-1,1)" style="fill:url(#a-6);stroke-width:2.79999995;stroke-opacity:0.55"/>
 <path style="fill:#000000;stroke-width:2.79999995;stroke-opacity:0.55;fill-opacity:1;opacity:0.3" d="m 4.0105,23.50001 c -0.004,0.167 -0.012,0.332 -0.012,0.5 0,11.08 8.92,20 20,20 11.08,0 20,-8.92 20,-20 0,-0.168 -0.008,-0.333 -0.012,-0.5 -0.264,10.847 -9.08,19.5 -19.988,19.5 -10.912,0 -19.724,-8.653 -19.988,-19.5"/>
 <path style="color:#000000;clip-rule:nonzero;display:inline;overflow:visible;visibility:visible;opacity:0.397;isolation:auto;mix-blend-mode:normal;color-interpolation:sRGB;color-interpolation-filters:linearRGB;solid-color:#000000;solid-opacity:1;fill:url(#b);fill-opacity:1;fill-rule:nonzero;stroke:none;stroke-width:1;stroke-linecap:butt;stroke-linejoin:miter;stroke-miterlimit:4;stroke-dasharray:none;stroke-dashoffset:0;stroke-opacity:1;color-rendering:auto;image-rendering:auto;shape-rendering:auto;text-rendering:auto;enable-background:accumulate" d="M 16.74806,32.280837 20.329401,28.604973 13.130467,21.547855 24,23.030641 l 1.018476,-10.000123 7.445393,7.398121 1.649019,-0.762285 9.137375,9.042831 c -1.512909,5.800289 -8.189766,13.293497 -16.008171,14.018412 z"/>
 <path d="m 4.0105,24.496364 c -0.004,-0.167 -0.012,-0.332 -0.012,-0.5 0,-11.08 8.92,-20.0000005 20,-20.0000005 11.08,0 20,8.9200005 20,20.0000005 0,0.168 -0.008,0.333 -0.012,0.5 -0.264,-10.847 -9.08,-19.5000005 -19.988,-19.5000005 -10.912,0 -19.724,8.6530005 -19.988,19.5000005" style="opacity:0.3;fill:#ffffff;fill-opacity:1;stroke-width:2.79999995;stroke-opacity:0.55"/>
 <path style="color:#000000;clip-rule:nonzero;display:inline;overflow:visible;visibility:visible;opacity:1;isolation:auto;mix-blend-mode:normal;color-interpolation:sRGB;color-interpolation-filters:linearRGB;solid-color:#000000;solid-opacity:1;fill:#ffffff;fill-opacity:1;fill-rule:nonzero;stroke:none;stroke-width:1;stroke-linecap:butt;stroke-linejoin:miter;stroke-miterlimit:4;stroke-dasharray:none;stroke-dashoffset:0;stroke-opacity:1;marker:none;color-rendering:auto;image-rendering:auto;shape-rendering:auto;text-rendering:auto;enable-background:accumulate" d="m 34.123391,19.625574 -9.102387,2.957545 7.06e-4,-9.569272 -2.0447,2.25e-4 0.0018,9.568464 -9.102493,-2.957241 -0.63225,1.947069 9.09919,2.955558 -5.623373,7.741951 1.655961,1.203584 5.623371,-7.741948 5.625252,7.741291 1.654328,-1.201663 -5.625251,-7.741291 9.102388,-2.957546 z"/>
</svg>
