<?xml version="1.0" encoding="UTF-8" standalone="no"?>
<!-- Created with Inkscape (http://www.inkscape.org/) -->

<svg
   xmlns:dc="http://purl.org/dc/elements/1.1/"
   xmlns:cc="http://creativecommons.org/ns#"
   xmlns:rdf="http://www.w3.org/1999/02/22-rdf-syntax-ns#"
   xmlns:svg="http://www.w3.org/2000/svg"
   xmlns="http://www.w3.org/2000/svg"
   xmlns:xlink="http://www.w3.org/1999/xlink"
   xmlns:sodipodi="http://sodipodi.sourceforge.net/DTD/sodipodi-0.dtd"
   xmlns:inkscape="http://www.inkscape.org/namespaces/inkscape"
   width="48"
   height="48"
   viewBox="0 0 48.000001 48.000001"
   id="svg2"
   version="1.1"
   inkscape:version="0.91 r13725"
   sodipodi:docname="emacs.svg">
  <defs
     id="defs4">
    <linearGradient
       id="linearGradient4450"
       inkscape:collect="always">
      <stop
         id="stop4452"
         offset="0"
         style="stop-color:#6e3a84;stop-opacity:1" />
      <stop
         id="stop4454"
         offset="1"
         style="stop-color:#a75ec4;stop-opacity:1" />
    </linearGradient>
    <linearGradient
       inkscape:collect="always"
       xlink:href="#linearGradient4450"
       id="linearGradient4148"
       x1="24"
       y1="1048.3622"
       x2="24"
       y2="1008.3622"
       gradientUnits="userSpaceOnUse" />
    <linearGradient
       inkscape:collect="always"
       xlink:href="#linearGradient4450"
       id="linearGradient4178"
       gradientUnits="userSpaceOnUse"
       x1="24"
       y1="1048.3622"
       x2="24"
       y2="1008.3622" />
    <linearGradient
       inkscape:collect="always"
       id="linearGradient4199">
      <stop
         style="stop-color:#dde0e2;stop-opacity:1"
         offset="0"
         id="stop4201" />
      <stop
         style="stop-color:#fcfcfc;stop-opacity:1"
         offset="1"
         id="stop4203" />
    </linearGradient>
    <linearGradient
       gradientTransform="translate(-1.0371154,-1003.3407)"
       inkscape:collect="always"
       xlink:href="#linearGradient4441"
       id="linearGradient4148-5"
       x1="24.441946"
       y1="1026.1968"
       x2="44.603519"
       y2="1046.3583"
       gradientUnits="userSpaceOnUse" />
    <linearGradient
       id="linearGradient4441"
       inkscape:collect="always">
      <stop
         id="stop4443"
         offset="0"
         style="stop-color:#000000;stop-opacity:1" />
      <stop
         id="stop4445"
         offset="1"
         style="stop-color:#9b59b6;stop-opacity:0" />
    </linearGradient>
    <linearGradient
       inkscape:collect="always"
       xlink:href="#linearGradient4199"
       id="linearGradient5176"
       x1="23.771383"
       y1="1049.4304"
       x2="23.771383"
       y2="1016.8934"
       gradientUnits="userSpaceOnUse"
       gradientTransform="matrix(1.1417511,0,0,1.1417511,-4.464526,-145.77147)" />
  </defs>
  <sodipodi:namedview
     id="base"
     pagecolor="#ffffff"
     bordercolor="#666666"
     borderopacity="1.0"
     inkscape:pageopacity="0.0"
     inkscape:pageshadow="2"
     inkscape:zoom="2.8284271"
     inkscape:cx="-128.20552"
     inkscape:cy="54.063702"
     inkscape:document-units="px"
     inkscape:current-layer="layer1"
     showgrid="true"
     units="px"
     showborder="true"
     inkscape:snap-bbox="true"
     inkscape:bbox-nodes="true"
     inkscape:snap-bbox-midpoints="true"
     inkscape:snap-grids="false"
     inkscape:window-width="2560"
     inkscape:window-height="1600"
     inkscape:window-x="0"
     inkscape:window-y="0"
     inkscape:window-maximized="1">
    <inkscape:grid
       type="xygrid"
       id="grid4136"
       originx="0"
       originy="-2"
       visible="true"
       enabled="false" />
  </sodipodi:namedview>
  <metadata
     id="metadata7">
    <rdf:RDF>
      <cc:Work
         rdf:about="">
        <dc:format>image/svg+xml</dc:format>
        <dc:type
           rdf:resource="http://purl.org/dc/dcmitype/StillImage" />
        <dc:title />
      </cc:Work>
    </rdf:RDF>
  </metadata>
  <g
     inkscape:label="Layer 1"
     inkscape:groupmode="layer"
     id="layer1"
     transform="translate(0,-1004.3622)">
    <ellipse
       style="opacity:1;fill:url(#linearGradient4148);fill-opacity:1;stroke:none;stroke-width:2;stroke-miterlimit:4;stroke-dasharray:none;stroke-opacity:1"
       id="path4140"
       cx="24"
       cy="1028.3622"
       r="20" />
    <circle
       style="opacity:1;fill:url(#linearGradient4178);fill-opacity:1;stroke:none;stroke-width:2;stroke-miterlimit:4;stroke-dasharray:none;stroke-opacity:1"
       id="path4140-7"
       cx="24"
       cy="1028.3622"
       r="20" />
    <path
       style="opacity:0.3;fill:#000000;fill-opacity:1;stroke:none;stroke-width:2;stroke-miterlimit:4;stroke-dasharray:none;stroke-opacity:1"
       d="M 43.978516,1027.7802 A 20,20 0 0 1 24,1047.3622 a 20,20 0 0 1 -19.9785164,-19.418 20,20 0 0 0 -0.021484,0.418 20,20 0 0 0 20.0000004,20 20,20 0 0 0 20,-20 20,20 0 0 0 -0.02148,-0.582 z"
       id="path4140-5"
       inkscape:connector-curvature="0" />
    <path
       style="opacity:0.2;fill:url(#linearGradient4148-5);fill-opacity:1;stroke:none;stroke-width:2;stroke-miterlimit:4;stroke-dasharray:none;stroke-opacity:1"
       d="m 30.650391,15.240234 c -4.390729,-1.077408 -7.959173,-1.220861 -9.96875,0.40625 l 1.5,3.96875 4.4375,4.0625 -7.40625,0.75 -4.21875,1.71875 1.376953,3.398438 -3.488282,-0.09766 -2.517578,-0.113282 2.212891,2.347657 12.287109,12.287109 C 35.559555,43.505664 43.993296,34.704341 44,24 43.99181,22.471049 43.80832,20.948081 43.453125,19.460938 l -7.302734,-7.302735 c -0.919516,-0.435826 -4.098066,2.168476 -5.5,3.082031 z m -20.384766,14.089844 0.0059,0.0098 0,-0.0098 z"
       transform="translate(0,1004.3622)"
       id="path4140-2"
       inkscape:connector-curvature="0"
       sodipodi:nodetypes="ccccccccccccccccccc" />
    <path
       style="fill:url(#linearGradient5176);fill-opacity:1"
       d="m 14.681626,1037.2515 c -1.725989,-1.0129 -2.564435,-1.6218 -3.487563,-2.5336 -1.110776,-1.0968 -1.612538,-1.9384 -1.757435,-2.9475 -0.199295,-1.3878 0.764851,-2.8171 2.456549,-3.6413 3.315707,-1.6158 7.80777,-1.969 12.116521,-0.9528 0.912205,0.2152 0.88263,0.1473 -0.220396,-0.5038 -1.451878,-0.8576 -3.696549,-2.6295 -5.000884,-3.9477 -1.547227,-1.5637 -2.506662,-3.2165 -2.506662,-4.2646 0,-0.6917 0.341263,-1.425 1.144338,-1.867 1.879088,-1.0342 8.474861,0.7065 12.890807,0.9536 1.398491,0.072 2.334372,0.084 2.330243,-0.726 -0.0035,-0.6934 -1.857579,-1.0736 -2.754513,-1.0089 0.787671,-0.2647 1.542758,-0.4023 2.55205,-0.4238 2.018261,-0.043 2.425663,0.2164 2.837044,0.4088 0.828775,0.3876 1.581725,1.2784 1.547181,2.412 -0.111335,3.6536 -4.469868,2.028 -7.370873,1.5033 -3.200474,-0.5789 -5.947707,-1.0532 -6.877247,0.039 -2.194353,2.5793 5.481813,7.639 7.852532,9.4377 -1.978863,0.1508 -12.551735,-0.9457 -14.008144,2.7564 -0.514256,1.6807 2.311574,3.4751 4.94913,4.3848 2.146186,0.7069 4.755659,1.5082 7.996255,1.7206 2.936241,0.1925 4.439855,-0.2267 4.163626,-2.4529 2.332821,1.2064 2.180855,3.6088 0.665477,4.6677 -2.454408,1.715 -9.804973,0.2513 -10.248602,0.1594 -3.577945,-0.7411 -6.935868,-1.8173 -9.269434,-3.1738 z"
       id="path4197-9"
       inkscape:connector-curvature="0"
       sodipodi:nodetypes="csssssssscscssssscccscsscc" />
  </g>
</svg>
