<?xml version="1.0" encoding="UTF-8" standalone="no"?>
<svg xmlns="http://www.w3.org/2000/svg" xmlns:xlink="http://www.w3.org/1999/xlink" width="48" height="48" version="1.1">
 <defs>
  <linearGradient id="linearGradient4199">
   <stop style="stop-color:#000000;stop-opacity:1;" offset="0"/>
   <stop style="stop-color:#000000;stop-opacity:0" offset="1"/>
  </linearGradient>
  <linearGradient id="linearGradient4184">
   <stop style="stop-color:#000000;stop-opacity:1;" offset="0"/>
   <stop style="stop-color:#000000;stop-opacity:0;" offset="1"/>
  </linearGradient>
  <linearGradient id="linearGradient4169">
   <stop style="stop-color:#c81c1c;stop-opacity:1" offset="0"/>
   <stop style="stop-color:#ee6d6d;stop-opacity:1" offset="1"/>
  </linearGradient>
  <linearGradient id="linearGradient4161">
   <stop style="stop-color:#37e737;stop-opacity:1" offset="0"/>
   <stop style="stop-color:#83f383;stop-opacity:1" offset="1"/>
  </linearGradient>
  <linearGradient id="linearGradient3764" x1="1" x2="47" gradientUnits="userSpaceOnUse" gradientTransform="matrix(0,-1,1,0,-1.5e-6,47.999998)">
   <stop style="stop-color:#3d3d3d;stop-opacity:1"/>
   <stop offset="1" style="stop-color:#6f6f6f;stop-opacity:1"/>
  </linearGradient>
  <linearGradient xlink:href="#linearGradient3764" id="linearGradient4178" x1="412.88" y1="543.798" x2="401.325" y2="503.798" gradientUnits="userSpaceOnUse" gradientTransform="translate(0,-0.06176652)"/>
  <linearGradient xlink:href="#linearGradient4161" id="linearGradient4167" x1="16.351" y1="33.59" x2="13.534" y2="8.515" gradientUnits="userSpaceOnUse"/>
  <linearGradient xlink:href="#linearGradient4169" id="linearGradient4175" x1="34.038" y1="36.018" x2="29.516" y2="12.147" gradientUnits="userSpaceOnUse"/>
  <linearGradient xlink:href="#linearGradient4184" id="linearGradient4190" x1="25" y1="23" x2="39" y2="37" gradientUnits="userSpaceOnUse"/>
  <linearGradient xlink:href="#linearGradient4199" id="linearGradient4205" x1="10.523" y1="16.232" x2="17.889" y2="19.736" gradientUnits="userSpaceOnUse"/>
 </defs>
 <g transform="translate(-384.57143,-499.798)">
  <rect style="fill:url(#linearGradient4178);fill-opacity:1;stroke-width:2.79999995;stroke-opacity:0.55026502" height="40" rx="20" y="503.77" x="388.61" width="40"/>
  <path d="m 388.67456,523.33648 c -0.004,0.16686 -0.0117,0.33212 -0.0117,0.5 0,11.07999 8.92001,20 20,20 11.07999,0 20,-8.92001 20,-20 0,-0.16788 -0.008,-0.33315 -0.0117,-0.5 -0.26418,10.84657 -9.07584,19.5 -19.98828,19.5 -10.91244,0 -19.7241,-8.65343 -19.98828,-19.5 z" style="fill:#000000;fill-opacity:1;stroke-width:2.79999995;stroke-opacity:0.55026502;opacity:0.15"/>
  <path style="opacity:0.2;fill:url(#linearGradient4190);fill-opacity:1;stroke:none;stroke-width:4;stroke-linecap:round;stroke-linejoin:round;stroke-miterlimit:4;stroke-dasharray:none;stroke-opacity:1" d="M 31.423828 13.564453 L 33.5625 16.425781 L 35.40625 20.845703 L 33.927734 25.160156 L 31.548828 23.755859 L 25.050781 23.525391 L 30.642578 29.117188 L 25.287109 33.103516 L 21.703125 36.251953 L 28.830078 43.378906 C 36.919322 41.399099 43.054267 34.546359 43.927734 26.068359 L 31.423828 13.564453 z" transform="translate(384.57143,499.798)"/>
  <path style="fill:url(#linearGradient4175);fill-opacity:1;fill-rule:nonzero;stroke:none" d="m 30.617188,12.886719 c 5.95,7.599 5.382593,10.538906 -5.566407,10.628906 C 38.413781,25.671625 26.805,30.977 21,32 l 0.691406,4.28125 C 32.84349,34.102936 44.637187,24.698719 30.617188,12.886719 Z" transform="translate(384.57143,499.798)"/>
  <path transform="translate(384.57143,499.798)" d="M 25,10 C 16.195,12.281 1.7866287,21.893314 16,34 10,26 11.051,23.094 22,23 8.6370003,20.848 20.199,15.023 26,14 Z" style="fill:none;fill-opacity:1;fill-rule:nonzero;stroke:url(#linearGradient4205);stroke-opacity:1;stroke-width:2;stroke-miterlimit:4;stroke-dasharray:none;stroke-linejoin:round;opacity:0.15"/>
  <path style="fill:url(#linearGradient4167);fill-opacity:1;fill-rule:nonzero;stroke:none" d="M 25,10 C 16.195,12.281 1.7866287,21.893314 16,34 10,26 11.051,23.094 22,23 8.6370003,20.848 20.199,15.023 26,14 Z" transform="translate(384.57143,499.798)"/>
 </g>
</svg>
