<svg width="48" xmlns="http://www.w3.org/2000/svg" height="48" viewBox="0 0 48 48">
 <defs>
  <linearGradient id="a" y1="32" y2="16" x2="0" gradientUnits="userSpaceOnUse" gradientTransform="translate(384.57 504.8)">
   <stop stop-color="#f7abb2"/>
   <stop offset="1" stop-color="#f9dce0"/>
  </linearGradient>
  <linearGradient id="b" y1="17" x1="18" y2="32" x2="33" gradientUnits="userSpaceOnUse" gradientTransform="translate(0 5)">
   <stop stop-color="#383e51"/>
   <stop offset="1" stop-color="#655c6f" stop-opacity="0"/>
  </linearGradient>
  <linearGradient id="c" y1="543.8" y2="509.8" gradientUnits="userSpaceOnUse" x2="0" gradientTransform="matrix(-1 0 0 1 817.14 0)">
   <stop stop-color="#c61423"/>
   <stop offset="1" stop-color="#dc2b41"/>
  </linearGradient>
 </defs>
 <g transform="translate(-384.57-499.8)">
  <path fill="#a8202e" d="m432.57 503.8v10h-48v-4h17l6-6z"/>
  <path fill="url(#c)" d="m432.57 513.8h-48v30h48z"/>
  <rect width="48" x="-432.57" y="542.8" fill="#a8202e" height="1" transform="scale(-1 1)"/>
  <g fill-rule="evenodd">
   <path fill="#5f5f5f" fill-opacity=".118" d="m432.57 503.8v10h-48v-4h23z"/>
   <path fill="#ffffff" fill-opacity=".059" d="m432.57 503.8l-20 1-11 6-17-1h17l6-6z"/>
   <path opacity=".2" fill="url(#b)" d="m30 21l-9 3-1 5-4 6 9 9h23v-5l-7-7z" transform="translate(384.57 499.8)"/>
   <path fill="url(#a)" d="m403.57 520.8l-3 14h3l1.301-6h7.365l-6.666 6 2 2c3-2 6 1.6 9-1.4l-.6-2.401-.9.701c-1.359.781-2.475-.098-4.061-.34l4.561-4.561 1-3h-11l.5-2h7.5l1-3z"/>
  </g>
  <path fill="#bc2233" d="m384.57 513.8h48v1h-48z"/>
 </g>
</svg>
