<?xml version="1.0" encoding="UTF-8" standalone="no"?>
<svg xmlns="http://www.w3.org/2000/svg" xmlns:xlink="http://www.w3.org/1999/xlink" width="48" height="48" version="1.1">
 <defs>
  <linearGradient gradientTransform="translate(-1.755e-5,1.52e-6)" xlink:href="#linearGradient4177" id="linearGradient4205" x1="388.735" y1="503.991" x2="428.408" y2="543.932" gradientUnits="userSpaceOnUse"/>
  <linearGradient id="linearGradient4177">
   <stop offset="0" style="stop-color:#3f3f3f;stop-opacity:1;"/>
   <stop style="stop-color:#de7d9c;stop-opacity:1" offset=".11"/>
   <stop offset=".449" style="stop-color:#cc3d8a;stop-opacity:1"/>
   <stop style="stop-color:#5f2b76;stop-opacity:1" offset=".934"/>
   <stop offset="1" style="stop-color:#3f3f3f;stop-opacity:0;"/>
  </linearGradient>
 </defs>
 <g transform="translate(-384.57143,-499.798)">
  <rect style="opacity:0.9;fill:url(#linearGradient4205);fill-opacity:1;stroke-width:2.79999995;stroke-opacity:0.55026502" height="40" rx="20" y="503.8" x="388.57" width="40"/>
  <path d="m 388.58314,523.298 c -0.004,0.16686 -0.0117,0.33212 -0.0117,0.5 0,11.07999 8.92001,20 20,20 11.07999,0 20,-8.92001 20,-20 0,-0.16788 -0.008,-0.33315 -0.0117,-0.5 -0.26418,10.84657 -9.07584,19.5 -19.98828,19.5 -10.91244,0 -19.7241,-8.65343 -19.98828,-19.5 z" style="opacity:0.15;fill:#000000;fill-opacity:1;stroke-width:2.79999995;stroke-opacity:0.55026502"/>
  <path style="opacity:1;fill:#ffffff;fill-opacity:1;fill-rule:nonzero;stroke:none;stroke-width:42.53499985;stroke-miterlimit:4;stroke-dasharray:none;stroke-opacity:1" d="M 23.78125 10.386719 C 21.09127 10.374439 18.78489 10.873688 16.6875 11.923828 C 15.98927 12.273408 15.880581 12.396027 15.925781 12.773438 C 16.018091 13.543707 16.41581 13.618484 17.59375 13.089844 C 19.78361 12.107104 20.849108 11.897531 23.611328 11.894531 C 26.781478 11.891901 27.948938 12.163476 30.548828 13.509766 C 30.995518 13.740756 32.40968 14.832384 32.9375 14.246094 C 33.46025 13.723374 33.184051 13.290731 31.837891 12.525391 C 29.183091 11.016041 26.86349 10.401319 23.78125 10.386719 z M 23.699219 13.5 C 20.149996 13.497315 16.602978 14.899569 14.001953 17.708984 C 12.995753 18.795814 11.822266 20.577148 11.822266 21.017578 C 11.822266 21.531118 12.034019 21.814453 12.417969 21.814453 C 12.718929 21.814453 13.025166 21.489761 13.753906 20.394531 C 15.383736 17.945071 17.49663 16.320085 20.21875 15.421875 C 22.32986 14.732835 24.802014 14.812605 27.177734 15.421875 C 30.245214 16.430145 32.876769 18.676328 34.318359 21.517578 C 34.632049 22.135808 34.819693 22.324219 35.126953 22.324219 C 35.656123 22.324219 35.966816 21.930426 35.822266 21.441406 C 35.589186 20.652646 34.345747 18.741479 33.404297 17.724609 C 30.799652 14.911234 27.248441 13.502685 23.699219 13.5 z M 23.867188 16.591797 C 23.110703 16.578655 22.343148 16.650225 21.576172 16.810547 C 17.931562 17.572387 14.885296 20.524051 13.910156 24.238281 C 13.392666 26.209311 13.630555 29.428806 14.484375 32.003906 C 14.739545 32.773466 14.862736 32.933963 15.228516 32.976562 C 16.069486 33.074303 16.151666 32.674044 15.648438 30.933594 C 14.208486 25.953454 15.448171 21.71649 19.019531 19.40625 C 22.550461 17.12216 27.406592 17.798131 30.169922 20.957031 C 31.901542 22.936551 32.851343 26.284874 32.095703 27.746094 C 31.596533 28.711414 30.381145 29.291576 29.382812 29.041016 C 28.653253 28.857916 27.788434 27.961328 27.677734 27.273438 C 27.287064 24.845958 26.735644 23.895974 25.339844 23.246094 C 24.149184 22.691704 23.156731 22.707008 21.988281 23.298828 C 20.899551 23.850288 20.065404 24.963314 19.896484 26.089844 C 19.835544 26.495794 19.862331 27.374286 19.957031 28.041016 C 20.546051 32.194106 23.517426 35.479554 27.597656 36.490234 C 28.110796 36.617284 28.949751 36.707053 29.462891 36.689453 L 30.396484 36.658203 C 30.923834 36.390513 30.952694 35.774413 30.396484 35.470703 L 29.076172 35.269531 C 27.414392 35.016301 26.726234 34.797337 25.583984 34.154297 C 23.100004 32.755927 21.320312 29.724558 21.320312 26.892578 C 21.320312 25.644558 21.792841 24.915554 22.894531 24.458984 C 23.690571 24.129064 23.702007 24.129064 24.498047 24.458984 C 25.505487 24.876504 25.990434 25.575246 26.115234 26.785156 C 26.344414 29.005636 27.885297 30.466797 29.998047 30.466797 C 31.693627 30.466797 33.120843 29.366482 33.626953 27.669922 C 34.122303 26.009562 33.457317 23.220809 32.060547 21.099609 C 30.209428 18.288433 27.145283 16.648746 23.867188 16.591797 z M 23.757812 19.808594 C 22.702053 19.821949 21.616343 20.016761 20.726562 20.363281 C 19.354612 21.035201 18.047304 22.377078 17.371094 23.804688 C 16.856544 24.890947 16.825852 25.060117 16.826172 26.904297 C 16.826552 29.173187 17.101125 30.378486 18.078125 32.416016 C 18.919985 34.171686 20.086343 35.702923 21.382812 36.751953 C 22.506562 37.661233 22.62594 37.705361 23.09375 37.363281 C 23.57267 37.013111 23.305551 36.411772 22.337891 35.669922 C 21.288701 34.865562 20.155495 33.410596 19.390625 31.884766 C 18.134275 29.378556 17.817759 26.281092 18.636719 24.507812 C 19.231089 23.220833 20.137409 22.260829 21.292969 21.693359 C 22.681329 21.011559 24.709296 21.011559 26.097656 21.693359 C 27.754756 22.507119 28.814303 23.988864 29.189453 26.021484 C 29.413373 27.234784 29.752341 27.638078 30.269531 27.304688 C 30.509181 27.150208 30.561362 26.89279 30.539062 25.96875 C 30.484882 23.72251 28.911088 21.467231 26.611328 20.337891 C 25.839328 19.962251 24.813572 19.795239 23.757812 19.808594 z" transform="translate(384.57143,499.798)"/>
  <path style="opacity:1;fill:#ffffff;fill-opacity:1;fill-rule:nonzero;stroke:none;stroke-width:42.53499985;stroke-miterlimit:4;stroke-dasharray:none;stroke-opacity:1" d="m 413.01689,533.25511 c -2.89862,-0.6323 -5.1328,-3.18614 -5.38364,-6.15391 -0.0793,-0.93797 -0.0518,-1.06193 0.27295,-1.23578 0.61868,-0.33111 0.97625,0.0165 1.1,1.06933 0.31116,2.64741 2.25668,4.64408 4.87395,5.00201 1.28052,0.17513 1.69235,0.66676 1.07537,1.28374 -0.30891,0.30891 -0.65299,0.31506 -1.93863,0.0347 z"/>
 </g>
</svg>
