<svg height="48" width="48" xmlns="http://www.w3.org/2000/svg" xmlns:xlink="http://www.w3.org/1999/xlink"><linearGradient id="a"><stop offset="0" stop-color="#4d4d4d"/><stop offset="1" stop-color="#536161"/></linearGradient><linearGradient id="b" gradientUnits="userSpaceOnUse" x1="24" x2="24" y1="44" y2="4"><stop offset="0" stop-color="#afb0b3"/><stop offset="1" stop-color="#bdc3c7"/></linearGradient><linearGradient id="d" gradientUnits="userSpaceOnUse" x1="24" x2="24" y1="32.602" y2="15.721"><stop offset="0" stop-color="#eff1f1"/><stop offset="1" stop-color="#fcfcfc"/></linearGradient><linearGradient id="g" gradientUnits="userSpaceOnUse" x1="24" x2="24" xlink:href="#a" y1="31.214" y2="17.22"/><linearGradient id="e" gradientUnits="userSpaceOnUse" x1="24" x2="24" xlink:href="#a" y1="34" y2="14"/><linearGradient id="f" gradientUnits="userSpaceOnUse" x1="24" x2="42" y1="26" y2="44"><stop offset="0" stop-color="#232629"/><stop offset="1" stop-opacity="0"/></linearGradient><linearGradient id="c" gradientUnits="userSpaceOnUse" x1="24" x2="24" y1="43" y2="5"><stop offset="0" stop-color="#c0392b"/><stop offset="1" stop-color="#e74c3c"/></linearGradient><path d="M4 4h40v40H4z" fill="url(#b)"/><path d="M25 37h18v6H25zM5 37h18v6H5zm0-8h8v6H5zm30 0h8v6h-8zm-20 0h18v6H15zM5 21h18v6H5zm20 0h18v6H25zm10-8h8v6h-8zM5 13h8v6H5zm10 0h18v6H15zm10-8h18v6H25zM5 5h18v6H5z" fill="url(#c)"/><path d="M15.25 19L24 15.25 32.75 19v5L29 29l-3.75 3.75h-2.5L19 29l-3.75-5z" fill="url(#d)"/><path d="M4 43h40v1H4z" fill="#232629" opacity=".3"/><path d="M24 14s-2.5 3.323-10 4.156c0 0 0 11.667 10 15.844 10-4.177 10-15.844 10-15.844C26.5 17.323 24 14 24 14zm0 1.72c1.984 1.682 4.846 2.803 8.557 3.368-.202 1.806-.395 3.166-.862 4.48-.981 2.762-2.126 4.44-3.152 5.649-1.59 1.872-3.034 2.63-4.543 3.385-1.509-.754-2.953-1.513-4.543-3.385-1.026-1.208-2.17-2.887-3.152-5.649-.467-1.314-.66-2.674-.862-4.48 3.711-.565 6.573-1.686 8.557-3.367z" fill="url(#e)"/><path d="M34 18.156s-.009 1.774-.598 4.178l-2.316-2.314-10.268 8.884 4.477 4.477c-.414.219-.84.43-1.295.619a14.898 14.898 0 0 1-5.057-3.463l-.017.016L32.373 44H44V28.156zm-.623 4.278zm-.416 1.431zm-.55 1.487zm-.68 1.45zm-.866 1.483zm-.996 1.36c-.091.11-.19.218-.285.328.095-.11.194-.218.285-.328zm-1.039 1.134z" fill="url(#f)" opacity=".2"/><path d="M24 17.22c-2.18 1.513-4.628 2.28-7.085 2.8 1.164 6.603 3.67 9.426 7.085 11.194 3.415-1.768 5.921-4.591 7.085-11.193-2.457-.522-4.906-1.288-7.085-2.8z" fill="url(#g)"/></svg>