<svg xmlns="http://www.w3.org/2000/svg" xmlns:xlink="http://www.w3.org/1999/xlink" width="48" height="48">
 <defs>
  <linearGradient xlink:href="#1" id="0" y1="15.024" x2="0" y2="8.6" gradientUnits="userSpaceOnUse" gradientTransform="matrix(1.4263583,0,0,1.4263583,374.44681,487.64015)"/>
  <linearGradient id="1">
   <stop stop-color="#1482cf"/>
   <stop offset="1" stop-color="#74bef2"/>
  </linearGradient>
  <linearGradient xlink:href="#1" id="2" y1="536.752" x2="0" y2="526.916" gradientUnits="userSpaceOnUse" gradientTransform="matrix(1.4263583,0,0,1.4263583,-174.08983,-225.25085)"/>
 </defs>
 <g transform="translate(-384.57143,-499.798)">
  <path d="m 403.50608,510.97559 c -0.0404,0 -0.0782,0.007 -0.11311,0.0227 -0.0143,0.007 -0.0248,0.0143 -0.0378,0.0227 -0.004,0.001 -0.0114,0.004 -0.015,0.007 -0.01,0.007 -0.0128,0.021 -0.0227,0.0301 -0.0585,0.0535 -0.10555,0.12552 -0.10555,0.21129 3e-5,0.16189 0.13237,0.2943 0.29427,0.2943 l 0.0679,0 0.70928,1.37334 0,7.244 -8.11177,20.21534 c -0.0466,0.10255 -0.0886,0.20722 -0.12081,0.3169 -0.0114,0.0374 -0.0128,0.0756 -0.0227,0.11326 -0.009,0.0369 -0.023,0.0756 -0.0301,0.11311 -0.0114,0.0592 -0.0154,0.12181 -0.0227,0.18109 -10e-4,0.0168 -0.006,0.0358 -0.007,0.0528 -0.007,0.062 -0.006,0.11925 -0.007,0.18111 l 0,0.0528 c 0,0.006 -3e-5,0.01 0,0.015 6e-5,0.01 0,0.0208 0,0.0301 10e-4,0.0685 0,0.13678 0.007,0.20374 0.007,0.0626 0.0191,0.11952 0.0301,0.1811 0.004,0.0242 0.001,0.0513 0.007,0.0755 0.001,0.01 0.006,0.0208 0.007,0.0301 0.0143,0.0636 0.0338,0.12695 0.0529,0.18864 10e-4,0.004 0.007,0.003 0.007,0.007 0.0227,0.0719 0.0389,0.14249 0.0679,0.21129 10e-4,0.004 0.006,0.004 0.007,0.007 0.0292,0.0686 0.0628,0.1385 0.0981,0.20372 10e-4,10e-4 0,0.006 0,0.007 0.0738,0.13507 0.16693,0.26698 0.26412,0.38484 0.14978,0.18042 0.32497,0.33734 0.52065,0.46785 0.006,0.004 0.017,0.0114 0.0227,0.015 0.26359,0.17262 0.56062,0.29522 0.88286,0.35464 0.0224,0.004 0.0456,0.004 0.0679,0.007 0.0432,0.007 0.0846,0.0181 0.12823,0.0227 0.0997,0.01 0.19541,0.0168 0.29428,0.015 l 20.50207,0 c 0.0168,0 0.0284,7e-5 0.0454,0 0.0629,0 0.1268,-0.003 0.18863,-0.007 0.0203,-10e-4 0.0402,-0.006 0.0603,-0.007 0.0609,-0.006 0.12167,-0.0198 0.1811,-0.0301 0.0205,-0.004 0.0399,-0.003 0.0603,-0.007 0.0602,-0.0128 0.11525,-0.0287 0.17357,-0.0454 0.08,-0.0227 0.16502,-0.0525 0.24147,-0.083 0.15111,-0.0603 0.28835,-0.13094 0.42256,-0.21884 0.004,-0.001 0.004,-0.004 0.007,-0.007 0.006,-0.004 0.01,-0.0114 0.0151,-0.015 0.12794,-0.0863 0.24576,-0.17818 0.35465,-0.28674 0.0541,-0.0539 0.10969,-0.11468 0.15847,-0.17355 10e-4,-10e-4 0.006,10e-4 0.007,0 0.0971,-0.11781 0.18279,-0.2497 0.25656,-0.38486 10e-4,-10e-4 0.007,-0.004 0.007,-0.007 0.0355,-0.0652 0.0612,-0.13508 0.0906,-0.20375 10e-4,-0.004 0.006,-0.004 0.007,-0.007 0.029,-0.0688 0.0528,-0.13935 0.0754,-0.21128 10e-4,-0.004 -0.001,-0.003 0,-0.007 0.0213,-0.0689 0.0451,-0.13993 0.0603,-0.21129 0.001,-0.007 0.006,-0.015 0.007,-0.0227 0.004,-0.0184 -0.004,-0.0418 0,-0.0603 0.0114,-0.0616 0.0238,-0.11853 0.0301,-0.18109 10e-4,-0.026 0.006,-0.0568 0.007,-0.083 0.003,-0.0411 0.007,-0.0794 0.007,-0.12081 0,-0.0153 0,-0.03 0,-0.0452 0,-0.0516 -0.004,-0.10013 -0.007,-0.15092 0,-0.0128 10e-4,-0.0322 0,-0.0454 -0.001,-0.0184 -0.006,-0.0344 -0.007,-0.0528 -0.003,-0.0128 -0.006,-0.0244 -0.007,-0.0378 -0.007,-0.0592 -0.0114,-0.12181 -0.0227,-0.18109 -0.003,-0.007 10e-4,-0.015 0,-0.0227 -0.0128,-0.0602 -0.0287,-0.12267 -0.0454,-0.18109 -0.004,-0.0184 -0.0168,-0.0345 -0.0227,-0.0528 -0.0193,-0.0628 -0.0361,-0.12067 -0.0603,-0.1811 -0.0143,-0.034 -0.0301,-0.0726 -0.0454,-0.1057 l -8.11933,-20.24553 0,-7.21383 0.67157,-1.37334 0.11326,0 c 0.16193,0 0.29428,-0.13237 0.2943,-0.29427 0,-0.14897 -0.10527,-0.26817 -0.24902,-0.28676 -0.0128,-0.003 -0.0311,-0.007 -0.0452,-0.007 l -10.33892,9.3e-4 z m 2.09774,12.76001 c 0.48963,-0.021 1.03453,0.1852 1.69028,0.70177 2.09827,1.65331 3.08991,3.34989 4.8067,1.12433 0.22765,-0.29503 0.45844,-0.54092 0.68668,-0.75459 l 5.67448,14.13338 c 0.0114,0.026 0.0198,0.0489 0.0301,0.0755 0.019,0.0472 0.0362,0.0941 0.0528,0.14336 0.003,0.0145 0.0114,0.0324 0.015,0.0454 0.0128,0.0456 0.0202,0.0887 0.0301,0.13579 10e-4,0.007 0.006,0.0154 0.007,0.0227 0.01,0.0465 0.007,0.097 0.015,0.14338 0,0.01 0.006,0.0198 0.007,0.0301 0,0.0146 -0.001,0.0325 0,0.0454 10e-4,0.01 0,0.0128 0,0.0227 10e-4,0.0398 0.007,0.0879 0.007,0.12823 0,0.0128 -0.007,0.0191 -0.007,0.0301 0,0.0324 10e-4,0.0659 0,0.0981 0,0.0205 10e-4,0.0402 0,0.0603 -0.004,0.0489 -0.0128,0.1027 -0.0227,0.15091 -10e-4,0.0145 0.001,0.0247 0,0.0377 0,0.007 -0.006,0.0154 -0.007,0.0227 -0.0114,0.0559 -0.0274,0.11197 -0.0452,0.16601 0,0.001 10e-4,0.006 0,0.007 -0.0177,0.0562 -0.0307,0.1047 -0.0528,0.15847 0,10e-4 -0.006,0.0128 -0.007,0.015 -0.023,0.0536 -0.0479,0.1074 -0.0755,0.15845 0,10e-4 -0.006,-10e-4 -0.007,0 -0.0578,0.10584 -0.1201,0.20958 -0.19619,0.30183 0,10e-4 10e-4,0.006 0,0.007 -0.0382,0.0461 -0.086,0.0861 -0.12823,0.12823 -0.0852,0.085 -0.17148,0.15876 -0.27165,0.22637 -0.003,0.001 -0.0114,0.006 -0.015,0.007 -10e-4,0 0.001,0.006 0,0.007 -0.10512,0.0687 -0.22129,0.12637 -0.33957,0.17357 -0.0599,0.024 -0.12581,0.0419 -0.18867,0.0603 -0.0455,0.0128 -0.0887,0.028 -0.13579,0.0378 -0.016,10e-4 -0.0278,0.006 -0.0453,0.007 -0.0464,0.009 -0.0882,0.0188 -0.13579,0.0227 -0.016,10e-4 -0.0355,0.007 -0.0528,0.007 -0.0484,0.004 -0.0941,0 -0.14339,0 -0.0128,5e-5 -0.0255,0 -0.0378,0 l -16.05004,0 c -0.0774,0 -0.15579,10e-4 -0.23391,-0.007 -0.0342,-0.006 -0.0719,-0.0167 -0.10569,-0.0227 -0.0177,-10e-4 -0.027,-0.004 -0.0454,-0.007 -0.25226,-0.0465 -0.48783,-0.14403 -0.69422,-0.27919 -0.007,-10e-4 -0.0128,-0.006 -0.015,-0.007 -0.15316,-0.10227 -0.29784,-0.2209 -0.41504,-0.36221 -1e-5,0 10e-4,-0.006 0,-0.007 -0.076,-0.0923 -0.1385,-0.18846 -0.19617,-0.29427 0,-10e-4 -0.006,-0.006 -0.007,-0.007 -0.0277,-0.0511 -0.0529,-0.10469 -0.0754,-0.15848 0,-10e-4 0.003,-0.006 0,-0.007 -0.0227,-0.0538 -0.0419,-0.10213 -0.0603,-0.15847 0,-0.001 0.003,-0.0128 0,-0.015 -0.0151,-0.0484 -0.027,-0.10113 -0.0376,-0.15092 0,-0.007 -0.006,-0.0143 -0.007,-0.0227 -0.006,-0.0188 -0.004,-0.0337 -0.007,-0.0528 -0.01,-0.0484 -0.0188,-0.10184 -0.0227,-0.15092 -0.007,-0.0525 -0.006,-0.0973 -0.007,-0.15091 0,-0.007 -3e-5,-0.0143 0,-0.0227 0,-0.003 -4e-5,-0.0128 0,-0.015 l 0,-0.0377 c 0,-0.0485 0.004,-0.0947 0.007,-0.14339 0,-0.0128 -10e-4,-0.0332 0,-0.0452 0.007,-0.0463 0.0128,-0.0896 0.0227,-0.13579 0.004,-0.0295 0.0145,-0.0541 0.0227,-0.083 0.007,-0.0294 0.0128,-0.0612 0.0227,-0.0904 0.0251,-0.0859 0.0539,-0.1687 0.0904,-0.24903 l 6.02257,-15.01626 c 0.22478,-0.11011 0.44571,-0.17853 0.68639,-0.18882 z" fill="#808080"/>
  <path d="m 405.78493,526.37665 c -0.19864,0.009 -0.38725,0.0602 -0.57348,0.15092 l -4.60298,11.67343 c -0.0301,0.0663 -0.0623,0.14035 -0.083,0.21129 -0.007,0.0244 -0.009,0.0435 -0.0151,0.0679 -0.007,0.0241 -0.01,0.0435 -0.015,0.0679 -0.007,0.0382 -0.0181,0.0824 -0.0227,0.12082 -10e-4,0.01 0,0.0272 0,0.0378 -0.004,0.0402 0,0.0732 0,0.11325 l 0,0.0378 0,0.007 c 0,0.007 -2e-5,0.01 0,0.015 0.001,0.0444 -0.006,0.0926 0,0.13578 0.001,0.0405 0.0148,0.0733 0.0227,0.11326 0.003,0.016 -0.006,0.0298 0,0.0454 0.003,0.007 0.007,0.017 0.007,0.0227 0.009,0.0411 0.0245,0.0809 0.0378,0.12067 0.001,0.003 5e-5,0.007 0,0.007 0.0157,0.0465 0.0265,0.0914 0.0454,0.13579 l 0,0.007 c 0.0181,0.0444 0.0452,0.0861 0.0679,0.12823 10e-4,0 -0.001,0.004 0,0.007 0.0476,0.0874 0.10326,0.16529 0.166,0.24147 0.003,0 -2e-5,0.006 0,0.007 0.0967,0.11668 0.21315,0.21749 0.33958,0.30183 0.001,0 0.01,0.004 0.015,0.007 0.17029,0.11154 0.36532,0.19547 0.5735,0.23391 0.0157,0.003 0.0233,-0.001 0.0378,0 0.0277,0.004 0.0546,0.0198 0.083,0.0227 0.0645,0.007 0.13236,0 0.19622,0 l 13.24295,0 c 0.01,0 0.0196,6e-5 0.0301,0 0.0405,0 0.0809,10e-4 0.12067,0 0.015,0 0.0248,10e-4 0.0378,0 0.0394,-0.003 0.0824,-0.016 0.12067,-0.0227 0.0148,-0.001 0.0247,-0.007 0.0378,-0.007 0.0388,-0.009 0.0679,-0.0188 0.10569,-0.0301 0.0518,-0.0157 0.10912,-0.0257 0.15848,-0.0454 0.0976,-0.0391 0.19238,-0.0866 0.27918,-0.14339 0.001,0 0,-0.006 0,-0.007 0.001,0 0.0114,-0.004 0.015,-0.007 0.0826,-0.0558 0.15606,-0.11853 0.22636,-0.18864 0.035,-0.0347 0.0666,-0.0676 0.0981,-0.10569 0.003,0 0,-0.004 0,-0.007 0.0628,-0.0762 0.11824,-0.16171 0.16603,-0.249 0.001,0 0.007,0.001 0.007,0 0.0231,-0.0421 0.0414,-0.084 0.0603,-0.12823 0.001,-0.003 0.006,-0.007 0.007,-0.007 0.0178,-0.0445 0.0307,-0.0894 0.0454,-0.13579 l 0,-0.007 c 0.0151,-0.0445 0.0277,-0.0896 0.0377,-0.13579 0,-0.007 -10e-4,-0.009 0,-0.015 0.001,-0.01 0,-0.0258 0,-0.0377 0.007,-0.0398 0.0128,-0.0879 0.015,-0.12822 0.003,-0.0167 0.007,-0.0282 0.007,-0.0454 0.003,-0.0263 0,-0.0565 0,-0.083 0,-0.009 0.007,-0.0114 0.007,-0.0227 0,-0.0334 -0.007,-0.0729 -0.007,-0.10569 0,-0.009 0.003,-0.0145 0,-0.0227 -10e-4,-0.01 0,-0.0258 0,-0.0376 -10e-4,-0.009 -0.006,-0.0145 -0.007,-0.0227 -0.007,-0.0384 -0.007,-0.075 -0.015,-0.11326 -0.003,-0.007 0.001,-0.01 0,-0.015 -0.007,-0.0388 -0.019,-0.083 -0.0301,-0.12082 -0.003,-0.01 -0.006,-0.0258 -0.007,-0.0378 -0.0143,-0.0405 -0.0297,-0.0742 -0.0454,-0.11326 -0.009,-0.0222 -0.0205,-0.0465 -0.0301,-0.0679 l -4.31622,-10.94148 c -0.18849,0.17624 -0.3855,0.38285 -0.57348,0.62628 -1.41679,1.83665 -2.9468,0.43623 -4.67843,-0.92811 -0.5454,-0.42484 -0.99226,-0.59843 -1.39633,-0.58124 z m 0.17357,1.22999 0,11.46213 -4.5049,0 4.5049,-11.46213 z" fill="url(#2)"/>
  <path d="m 407.41463,499.90627 a 0.96586862,0.96586862 0 0 0 -0.96669,0.9667 0.96586862,0.96586862 0 0 0 0.96669,0.96669 0.96586862,0.96586862 0 0 0 0.96669,-0.96669 0.96586862,0.96586862 0 0 0 -0.96669,-0.9667 z m 2.50448,2.91401 a 1.9317374,1.9317374 0 0 0 -1.9306,1.9306 1.9317374,1.9317374 0 0 0 1.9306,1.93338 1.9317374,1.9317374 0 0 0 1.93339,-1.93338 1.9317374,1.9317374 0 0 0 -1.93339,-1.9306 z m -3.37924,3.87791 a 1.2073358,1.2073358 0 0 0 -1.20628,1.20628 1.2073358,1.2073358 0 0 0 1.20628,1.20906 1.2073358,1.2073358 0 0 0 1.20628,-1.20906 1.2073358,1.2073358 0 0 0 -1.20628,-1.20628 z" fill="url(#0)"/>
  <path d="m 403.50607,510.97448 c -0.0404,0 -0.0793,0.01 -0.11422,0.0251 -0.0143,0.007 -0.0232,0.0139 -0.0362,0.0223 -0.004,10e-4 -0.0131,0.003 -0.0167,0.006 -0.01,0.007 -0.0124,0.0215 -0.0223,0.0307 -0.0585,0.0535 -0.10586,0.12595 -0.10586,0.21172 3e-5,0.16189 0.1334,0.2953 0.2953,0.2953 l 0.0669,0 0.7104,1.37064 0,-1.13941 -0.42345,-0.81904 -0.35659,0 0.003,-0.003 z m 9.95108,0.003 -0.40116,0.81904 0,1.1422 0.67139,-1.37343 0.11422,0 c 0.16193,0 0.2925,-0.13339 0.29251,-0.2953 0,-0.14897 -0.10419,-0.26836 -0.24794,-0.28694 -0.0128,-0.003 -0.0305,-0.006 -0.0446,-0.006 l -0.38445,0 z m -7.85333,11.61701 c -0.2396,0.0107 -0.46141,0.0797 -0.68532,0.18944 l -6.02023,15.01577 c -0.0365,0.0803 -0.0668,0.16486 -0.0919,0.25072 -0.01,0.0292 -0.0152,0.0598 -0.0223,0.0892 -0.008,0.029 -0.018,0.0541 -0.0223,0.0836 -0.01,0.0462 -0.0152,0.0901 -0.0223,0.1365 -10e-4,0.012 0,0.0317 0,0.0446 -0.003,0.0487 -0.008,0.0936 -0.008,0.14208 l 0,0.039 c -5e-5,0.002 0,0.0111 0,0.0139 -3e-5,0.008 0,0.0151 0,0.0223 10e-4,0.0536 10e-4,0.10073 0.008,0.15322 0.004,0.0491 0.0123,0.10208 0.0223,0.15043 0.003,0.0191 -1.3e-4,0.0341 0.006,0.0529 0.001,0.008 0.008,0.0152 0.008,0.0223 0.0107,0.0498 0.0211,0.10208 0.0362,0.15044 0.003,0.002 0,0.0125 0,0.0139 6.7e-4,0.002 0.002,0.004 0.003,0.006 0.0237,-0.0785 0.05,-0.15455 0.0836,-0.22844 l 6.02023,-15.01855 c 0.22391,-0.10969 0.44572,-0.17596 0.68532,-0.18665 l 0.003,0 c 0.48893,-0.0201 1.03367,0.18641 1.68823,0.70203 2.09827,1.65331 3.0888,3.34826 4.8056,1.1227 0.22765,-0.29503 0.45987,-0.5413 0.6881,-0.75496 l 5.67479,14.13543 c 0.0114,0.026 0.0176,0.0487 0.0279,0.0752 0.019,0.0472 0.0364,0.0928 0.0529,0.14208 0.0178,-0.054 0.0332,-0.11124 0.0446,-0.16716 10e-4,-0.007 0.008,-0.0151 0.008,-0.0223 10e-4,-0.013 -10e-4,-0.0245 0,-0.039 0.01,-0.0482 0.018,-0.10151 0.0223,-0.15043 0.001,-0.0201 0,-0.038 0,-0.0585 0.001,-0.0322 0,-0.0679 0,-0.10029 0,-0.011 0.006,-0.015 0.006,-0.0279 0,-0.0404 -0.004,-0.0884 -0.006,-0.12815 0,-0.01 0.001,-0.0151 0,-0.0251 -10e-4,-0.0128 0,-0.03 0,-0.0446 -10e-4,-0.0103 -0.008,-0.0207 -0.008,-0.0306 -0.008,-0.0464 -0.004,-0.0956 -0.0139,-0.14208 -0.001,-0.007 -0.007,-0.0152 -0.008,-0.0223 -0.01,-0.0471 -0.015,-0.0909 -0.0279,-0.13651 -0.004,-0.013 -0.0139,-0.03 -0.0167,-0.0446 -0.0165,-0.0492 -0.034,-0.0977 -0.0529,-0.14486 -0.0103,-0.0265 -0.0165,-0.0493 -0.0279,-0.0752 l -5.67479,-14.13265 c -0.22823,0.21367 -0.46045,0.45994 -0.6881,0.75497 -1.7168,2.22556 -2.70733,0.52782 -4.8056,-1.12549 -0.65456,-0.51562 -1.1993,-0.72213 -1.68823,-0.70204 l -0.003,0 z m 15.72337,18.23343 c -0.0144,0.0551 -0.0281,0.11096 -0.0446,0.16437 -0.001,0.004 10e-4,0.004 0,0.008 -0.0227,0.0719 -0.049,0.14018 -0.078,0.20894 -10e-4,0.003 -0.004,0.004 -0.006,0.008 -0.0294,0.0687 -0.0564,0.13818 -0.0919,0.20337 0,0.003 -0.004,0.007 -0.006,0.008 -0.0738,0.13516 -0.15916,0.26663 -0.2563,0.38445 -10e-4,10e-4 -0.007,-10e-4 -0.008,0 -0.0488,0.0589 -0.10473,0.1188 -0.15879,0.17272 -0.10889,0.10856 -0.22586,0.20065 -0.35381,0.28694 -0.005,0.004 -0.008,0.01 -0.0139,0.0139 -0.003,0.003 -0.004,0.007 -0.008,0.008 -0.13421,0.0879 -0.27234,0.15975 -0.42345,0.22008 -0.0765,0.0305 -0.15957,0.0581 -0.23959,0.0808 -0.0583,0.0167 -0.11531,0.0345 -0.1755,0.0474 -0.0204,0.004 -0.038,0.001 -0.0585,0.006 -0.0594,0.0103 -0.12017,0.0249 -0.18108,0.0307 -0.0201,0.001 -0.041,0.007 -0.0613,0.008 -0.0618,0.004 -0.12653,0.006 -0.18943,0.006 -0.017,7e-5 -0.0278,0 -0.0446,0 l -20.50111,0 c -0.0989,0.002 -0.1956,-0.004 -0.2953,-0.0139 -0.0436,-0.005 -0.0849,-0.0152 -0.12815,-0.0223 -0.0222,-0.003 -0.0445,-0.004 -0.0669,-0.008 -0.32225,-0.0594 -0.61953,-0.18118 -0.88312,-0.3538 -0.006,-0.004 -0.0166,-0.0124 -0.0223,-0.0167 -0.19568,-0.13051 -0.37117,-0.2876 -0.52095,-0.46802 -0.0972,-0.11786 -0.19092,-0.24937 -0.26466,-0.38445 0,-10e-4 0.001,-0.004 0,-0.006 -0.0354,-0.0652 -0.0683,-0.13476 -0.0975,-0.20337 -0.001,-0.003 -0.007,-0.004 -0.008,-0.008 -0.029,-0.0688 -0.0442,-0.13984 -0.0669,-0.21173 0,-0.004 -0.007,-10e-4 -0.008,-0.006 -0.0149,-0.0481 -0.0291,-0.0982 -0.0418,-0.14765 -0.009,0.0317 -0.019,0.0629 -0.0251,0.0947 -0.0114,0.0592 -0.015,0.1218 -0.0223,0.18108 -0.001,0.0168 -0.007,0.036 -0.008,0.0529 -0.007,0.062 -0.004,0.11922 -0.006,0.18108 l 0,0.0529 c 0,0.006 -2e-5,0.009 0,0.0139 6e-5,0.01 0,0.0214 0,0.0306 10e-4,0.0685 -0.002,0.13642 0.006,0.20337 0.007,0.0626 0.0197,0.11951 0.0306,0.18108 0.004,0.0243 0.003,0.0539 0.008,0.078 10e-4,0.01 0.004,0.0186 0.006,0.0278 0.0143,0.0636 0.0338,0.12775 0.0529,0.18944 10e-4,0.004 0.008,0.004 0.008,0.008 0.0227,0.0719 0.0379,0.14015 0.0669,0.20894 10e-4,0.004 0.007,0.005 0.008,0.008 0.0292,0.0686 0.0621,0.13814 0.0975,0.20336 0.001,10e-4 0,0.007 0,0.008 0.0737,0.13508 0.16747,0.26659 0.26466,0.38445 0.14978,0.18042 0.32527,0.33751 0.52095,0.46802 0.006,0.004 0.0166,0.0104 0.0223,0.0139 0.26359,0.17262 0.56087,0.29438 0.88312,0.35381 0.0224,0.004 0.0446,0.005 0.0669,0.008 0.0432,0.007 0.0845,0.0177 0.12815,0.0223 0.0997,0.01 0.19644,0.0186 0.2953,0.0167 l 20.50111,0 c 0.0168,0 0.0276,7e-5 0.0446,0 0.0629,0 0.1276,-0.004 0.18943,-0.008 0.0203,-10e-4 0.0412,-0.007 0.0613,-0.008 0.0609,-0.006 0.12165,-0.0176 0.18108,-0.0279 0.0205,-0.004 0.0381,-0.004 0.0585,-0.008 0.0602,-0.0128 0.11718,-0.0279 0.1755,-0.0446 0.08,-0.0227 0.16313,-0.0531 0.23959,-0.0836 0.15111,-0.0603 0.28924,-0.13218 0.42345,-0.22009 0.004,-10e-4 0.005,-0.003 0.008,-0.006 0.006,-0.004 0.009,-0.0131 0.0139,-0.0167 0.12795,-0.0863 0.24492,-0.1756 0.35381,-0.28416 0.0541,-0.0539 0.11001,-0.11664 0.15879,-0.17551 0.001,-0.001 0.007,10e-4 0.008,0 0.0971,-0.11782 0.18253,-0.24929 0.2563,-0.38445 10e-4,-10e-4 0.006,-0.003 0.006,-0.006 0.0355,-0.0652 0.0625,-0.13747 0.0919,-0.20615 10e-4,-0.004 0.004,-0.003 0.006,-0.006 0.029,-0.0688 0.0553,-0.1398 0.078,-0.21173 10e-4,-0.004 -0.001,-0.004 0,-0.008 0.0213,-0.0689 0.0432,-0.13757 0.0585,-0.20894 0.001,-0.007 0.007,-0.0174 0.008,-0.0251 0.004,-0.0184 -0.004,-0.04 0,-0.0585 0.0114,-0.0616 0.0244,-0.11852 0.0306,-0.18108 10e-4,-0.026 0.004,-0.0573 0.006,-0.0836 0.003,-0.0411 0.008,-0.0784 0.008,-0.11979 l 0,-0.0474 c 0,-0.0516 -0.006,-0.0996 -0.008,-0.15044 0,-0.0128 0.001,-0.0315 0,-0.0446 -10e-4,-0.0184 -0.004,-0.0345 -0.006,-0.0529 -0.003,-0.0128 -0.007,-0.0256 -0.008,-0.039 -0.007,-0.0592 -0.011,-0.1218 -0.0223,-0.18108 -0.003,-0.007 10e-4,-0.0146 0,-0.0223 -0.006,-0.0297 -0.0148,-0.0591 -0.0223,-0.0892 z" fill-opacity=".235"/>
 </g>
</svg>
