<svg xmlns="http://www.w3.org/2000/svg" viewBox="0 0 48 48">
 <defs>
  <linearGradient id="a" y1="513.68" y2="548.54" x1="385.49" x2="417.55" gradientUnits="userSpaceOnUse" gradientTransform="matrix(1 0 0 .99923-373.54 497.05)">
   <stop stop-color="#292c2f"/>
   <stop offset="1" stop-opacity="0"/>
  </linearGradient>
  <linearGradient id="b" y1="41.939" y2="5.978" gradientUnits="userSpaceOnUse" x2="0" gradientTransform="matrix(1 0 0 .99844.3 1003.4)">
   <stop stop-color="#d35400"/>
   <stop offset="1" stop-color="#f67400" stop-opacity=".941"/>
  </linearGradient>
  <linearGradient id="c" y1="40.14" y2="8" x1="43.857" x2="44" gradientUnits="userSpaceOnUse" gradientTransform="matrix(1 0 0 1.24348 0-5.948)">
   <stop stop-color="#31363b"/>
   <stop offset="1" stop-color="#4d4d4d"/>
  </linearGradient>
 </defs>
 <g transform="translate(0-1004.36)">
  <g fill-rule="evenodd">
   <path fill="url(#c)" d="m4 4v39.969h40v-39.969z" transform="translate(0 1004.36)"/>
   <path opacity=".2" fill="url(#a)" d="m40.32 1010.43c-8.918-2.966-8.01 8.721-10.244 14.908l-7.077 16.996-2 2.998h-3l3 2.998 22.942.031.058-34.397z"/>
  </g>
  <path fill="#232629" d="m4 5.998v1h40v-1zm0 8.994v.998h40v-.998zm0 15.986v1h40v-1zm0 8.994v.998h40v-.998z" transform="translate(0 1004.36)"/>
  <path fill="url(#b)" d="m18.1 1021.35l-4.757 16.618c-.369 1.51-1.512 6.149-3.098 6.149-.221 0-.479-.221-.479-.515v-.037c0-.552.516-.957.516-1.546 0-.663-.848-1.068-1.475-1.068-1.217 0-1.807.847-1.807 1.767 0 1.215 1.033 2.614 3.134 2.614 4.02 0 6.085-5.486 6.933-8.579l4.315-15.39 6.618-.012-4.774 16.618c-.369 1.509-1.512 6.149-3.098 6.149-.221 0-.479-.221-.479-.515v-.037c0-.552.516-.957.516-1.546 0-.663-.848-1.068-1.475-1.068-1.217 0-1.807.847-1.807 1.767 0 1.215 1.033 2.614 3.134 2.614 4.02 0 6.085-5.486 6.933-8.579l4.315-15.403h3.735l.5-.999h-4c.664-2.54 1.94-9.556 5.04-9.556 1.364 0 .664 2.54 2.839 2.54.959 0 1.623-.736 1.623-1.546 0-1.657-2.323-2.43-3.725-2.43-5.679 0-7.704 6.647-9.03 10.991h-6.61c.664-2.54 1.665-9.04 4.762-9.04 1.364 0 .664 2.541 2.839 2.541.959 0 1.623-.736 1.623-1.546 0-1.657-2.323-2.43-3.725-2.43-5.568 0-7.428 6.131-8.755 10.476h-3.879l-.5.999"/>
 </g>
</svg>
