<?xml version="1.0" encoding="UTF-8" standalone="no"?>
<svg xmlns="http://www.w3.org/2000/svg" xmlns:xlink="http://www.w3.org/1999/xlink" version="1.1" x="0" y="0" viewBox="0 0 48 48" xml:space="preserve" width="48" height="48">
 <defs>
  <linearGradient id="linearGradient4513">
   <stop style="stop-color:#000000;stop-opacity:1;" offset="0"/>
   <stop style="stop-color:#000000;stop-opacity:0;" offset="1"/>
  </linearGradient>
  <linearGradient id="linearGradient4325">
   <stop offset="0" style="stop-color:#2a2c2f;stop-opacity:1"/>
   <stop offset="1" style="stop-color:#424649;stop-opacity:1"/>
  </linearGradient>
  <linearGradient id="linearGradient4308">
   <stop style="stop-color:#884d2c;stop-opacity:1" offset="0"/>
   <stop style="stop-color:#ffc169;stop-opacity:1" offset="1"/>
  </linearGradient>
  <linearGradient xlink:href="#linearGradient4308" id="linearGradient4314" x1="24.065" y1="41.806" x2="24.065" y2="5.466" gradientUnits="userSpaceOnUse"/>
  <linearGradient xlink:href="#linearGradient4325" id="linearGradient4323" x1="24.015" y1="31.94" x2="23.63" y2="19.969" gradientUnits="userSpaceOnUse"/>
  <linearGradient xlink:href="#linearGradient4513" id="linearGradient4519" x1="8.371" y1="9.37" x2="21.722" y2="22.721" gradientUnits="userSpaceOnUse"/>
  <linearGradient xlink:href="#linearGradient4513" id="linearGradient4521" x1="11.377" y1="13.89" x2="21.886" y2="24.399" gradientUnits="userSpaceOnUse"/>
  <linearGradient xlink:href="#linearGradient4513" id="linearGradient4523" x1="8.664" y1="19.421" x2="21.623" y2="32.38" gradientUnits="userSpaceOnUse"/>
  <linearGradient xlink:href="#linearGradient4513" id="linearGradient4525" x1="10.576" y1="30.595" x2="19.144" y2="39.163" gradientUnits="userSpaceOnUse"/>
  <linearGradient xlink:href="#linearGradient4513" id="linearGradient4527" x1="12.658" y1="36.549" x2="17.235" y2="41.126" gradientUnits="userSpaceOnUse"/>
  <linearGradient xlink:href="#linearGradient4513" id="linearGradient4535" x1="32.742" y1="36.406" x2="37.389" y2="41.053" gradientUnits="userSpaceOnUse"/>
  <linearGradient xlink:href="#linearGradient4513" id="linearGradient4537" x1="35.752" y1="30.354" x2="40.572" y2="35.174" gradientUnits="userSpaceOnUse"/>
  <linearGradient xlink:href="#linearGradient4513" id="linearGradient4539" x1="36.58" y1="19.541" x2="41.485" y2="24.446" gradientUnits="userSpaceOnUse"/>
  <linearGradient xlink:href="#linearGradient4513" id="linearGradient4541" x1="34.643" y1="14.02" x2="42.643" y2="22.021" gradientUnits="userSpaceOnUse"/>
  <linearGradient xlink:href="#linearGradient4513" id="linearGradient4543" x1="38.246" y1="9.42" x2="41.225" y2="12.399" gradientUnits="userSpaceOnUse"/>
 </defs>
 <path style="fill:url(#linearGradient4314);fill-opacity:1" d="M 4 6 C 4.3277506 9.6085564 6.9566733 10.443789 7.0996094 14.298828 C 7.1754722 15.926924 5.0328407 19.668943 5.0546875 21.833984 C 5.0655015 22.860009 5.5654638 23.823327 6.4101562 24.417969 C 8.0106257 25.544095 11.368853 26 15.847656 26 L 16.115234 26 C 12.332696 26 9.4961953 27.004045 8.1445312 27.904297 C 7.4311524 28.379669 7.0091329 29.150474 7 29.970703 C 7.1654936 35.46169 7.9284326 41.829317 14.220703 42 C 21.46208 41.91858 22.943793 30.656648 23 26 C 22.909735 22.863842 15 6 4 6 z M 44 6 C 33 6 25.090265 22.863842 25 26 C 25.056207 30.656648 26.53792 41.91858 33.779297 42 C 40.071567 41.829317 40.834506 35.46169 41 29.970703 C 40.990867 29.150474 40.568848 28.379669 39.855469 27.904297 C 38.503805 27.004045 35.667304 26 31.884766 26 L 32.152344 26 C 36.631147 26 39.989375 25.544095 41.589844 24.417969 C 42.434537 23.823327 42.934499 22.860009 42.945312 21.833984 C 42.967159 19.668943 40.824528 15.926924 40.900391 14.298828 C 41.043327 10.443789 43.672249 9.6085564 44 6 z"/>
 <path style="fill:none;stroke:#272b2d;stroke-width:1px;stroke-linecap:butt;stroke-linejoin:miter;stroke-opacity:1" d="m 25.5,19 c 0,-3 0.637925,-9.5547391 4.5,-9.5"/>
 <path d="m 22.507086,19 c 0,-3 -0.637925,-9.5547391 -4.5,-9.5" style="fill:none;stroke:#272b2d;stroke-width:1px;stroke-linecap:butt;stroke-linejoin:miter;stroke-opacity:1"/>
 <ellipse cy="38" cx="14" style="opacity:1;fill:#ffffff;fill-opacity:1;stroke:none;stroke-width:2;stroke-linecap:round;stroke-linejoin:round;stroke-miterlimit:4;stroke-dasharray:none;stroke-opacity:1" r="2"/>
 <path style="opacity:0.2;fill:url(#linearGradient4535);fill-opacity:1;stroke:none;stroke-width:2;stroke-linecap:round;stroke-linejoin:round;stroke-miterlimit:4;stroke-dasharray:none;stroke-opacity:1" d="M 35.417969 36.589844 L 32.589844 39.417969 L 35.035156 41.863281 C 36.605951 41.573801 37.757498 40.823645 38.605469 39.777344 L 35.417969 36.589844 z"/>
 <path style="opacity:0.2;fill:url(#linearGradient4539);fill-opacity:1;stroke:none;stroke-width:2;stroke-linecap:round;stroke-linejoin:round;stroke-miterlimit:4;stroke-dasharray:none;stroke-opacity:1" d="M 39.408203 19.572266 L 36.580078 22.398438 L 39.484375 25.302734 C 40.350706 25.071259 41.071115 24.782958 41.589844 24.417969 C 42.13077 24.037171 42.51021 23.497358 42.730469 22.894531 L 39.408203 19.572266 z"/>
 <path style="opacity:0.2;fill:url(#linearGradient4519);fill-opacity:1;stroke:none;stroke-width:2;stroke-linecap:round;stroke-linejoin:round;stroke-miterlimit:4;stroke-dasharray:none;stroke-opacity:1" d="M 9.703125,9.2832031 8.2890625,10.695312 22.900391,25.306641 c -0.221979,-1.042217 -0.838434,-2.693623 -1.769532,-4.595703 z"/>
 <path style="opacity:0.2;fill:url(#linearGradient4527);fill-opacity:1;stroke:none;stroke-width:2;stroke-linecap:round;stroke-linejoin:round;stroke-miterlimit:4;stroke-dasharray:none;stroke-opacity:1" d="m 15.404297,36.566406 -2.828125,2.828125 2.529297,2.529297 c 1.481787,-0.218231 2.691787,-0.940022 3.683593,-1.972656 l -3.384765,-3.384766 z"/>
 <path style="opacity:0.2;fill:url(#linearGradient4523);fill-opacity:1;stroke:none;stroke-width:2;stroke-linecap:round;stroke-linejoin:round;stroke-miterlimit:4;stroke-dasharray:none;stroke-opacity:1" d="M 11.410156,19.578125 8.5820312,22.40625 12.03125,25.855469 C 13.187511,25.949952 14.45585,26 15.847656,26 l 0.267578,0 c -1.33068,0 -2.536316,0.12979 -3.609375,0.330078 l 8.947266,8.947266 c 0.519846,-1.485592 0.880351,-3.051565 1.119141,-4.53711 z"/>
 <path style="opacity:0.2;fill:url(#linearGradient4525);fill-opacity:1;stroke:none;stroke-width:2;stroke-linecap:round;stroke-linejoin:round;stroke-miterlimit:4;stroke-dasharray:none;stroke-opacity:1" d="m 12.53125,30.408203 -2.119141,2.119141 7.894532,7.894531 c 0.73351,-0.640827 1.358561,-1.443537 1.888671,-2.349609 L 12.53125,30.408203 Z"/>
 <path style="opacity:0.2;fill:url(#linearGradient4521);fill-opacity:1;stroke:none;stroke-width:2;stroke-linecap:round;stroke-linejoin:round;stroke-miterlimit:4;stroke-dasharray:none;stroke-opacity:1" d="m 13.496094,14.001953 -2.119141,2.119141 11.544922,11.544922 C 22.96266,27.065548 22.99421,26.479715 23,26 22.980821,25.333656 22.589978,24.028377 21.910156,22.416016 Z"/>
 <path style="opacity:0.2;fill:url(#linearGradient4541);fill-opacity:1;stroke:none;stroke-width:2;stroke-linecap:round;stroke-linejoin:round;stroke-miterlimit:4;stroke-dasharray:none;stroke-opacity:1" d="M 36.533203 14.042969 L 34.414062 16.162109 L 42.158203 23.90625 C 42.654566 23.336648 42.937213 22.602577 42.945312 21.833984 C 42.950183 21.351343 42.837485 20.784037 42.675781 20.185547 L 36.533203 14.042969 z"/>
 <path style="opacity:0.2;fill:url(#linearGradient4543);fill-opacity:1;stroke:none;stroke-width:2;stroke-linecap:round;stroke-linejoin:round;stroke-miterlimit:4;stroke-dasharray:none;stroke-opacity:1" d="M 39.660156 9.2460938 L 38.246094 10.660156 L 40.990234 13.404297 C 41.119007 12.568254 41.378734 11.891821 41.689453 11.277344 L 39.660156 9.2460938 z"/>
 <circle r="1" style="opacity:1;fill:#ffffff;fill-opacity:1;stroke:none;stroke-width:2;stroke-linecap:round;stroke-linejoin:round;stroke-miterlimit:4;stroke-dasharray:none;stroke-opacity:1" cx="9" cy="10"/>
 <circle cy="15.125" cx="12.5" style="opacity:1;fill:#ffffff;fill-opacity:1;stroke:none;stroke-width:2;stroke-linecap:round;stroke-linejoin:round;stroke-miterlimit:4;stroke-dasharray:none;stroke-opacity:1" r="1.5"/>
 <circle style="opacity:1;fill:#ffffff;fill-opacity:1;stroke:none;stroke-width:2;stroke-linecap:round;stroke-linejoin:round;stroke-miterlimit:4;stroke-dasharray:none;stroke-opacity:1" cx="10" cy="21" r="2"/>
 <circle r="1.5" style="opacity:1;fill:#ffffff;fill-opacity:1;stroke:none;stroke-width:2;stroke-linecap:round;stroke-linejoin:round;stroke-miterlimit:4;stroke-dasharray:none;stroke-opacity:1" cx="11.5" cy="31.5"/>
 <circle r="2" cy="38" cx="14" style="opacity:1;fill:#ffffff;fill-opacity:1;stroke:none;stroke-width:2;stroke-linecap:round;stroke-linejoin:round;stroke-miterlimit:4;stroke-dasharray:none;stroke-opacity:1"/>
 <circle r="2" cy="21" cx="-38" style="opacity:1;fill:#ffffff;fill-opacity:1;stroke:none;stroke-width:2;stroke-linecap:round;stroke-linejoin:round;stroke-miterlimit:4;stroke-dasharray:none;stroke-opacity:1" transform="scale(-1,1)"/>
 <circle r="1.5" style="opacity:1;fill:#ffffff;fill-opacity:1;stroke:none;stroke-width:2;stroke-linecap:round;stroke-linejoin:round;stroke-miterlimit:4;stroke-dasharray:none;stroke-opacity:1" cx="-35.5" cy="15.125" transform="scale(-1,1)"/>
 <circle cy="10" cx="-39" style="opacity:1;fill:#ffffff;fill-opacity:1;stroke:none;stroke-width:2;stroke-linecap:round;stroke-linejoin:round;stroke-miterlimit:4;stroke-dasharray:none;stroke-opacity:1" r="1" transform="scale(-1,1)"/>
 <path style="opacity:0.2;fill:url(#linearGradient4537);fill-opacity:1;stroke:none;stroke-width:2;stroke-linecap:round;stroke-linejoin:round;stroke-miterlimit:4;stroke-dasharray:none;stroke-opacity:1" d="M 37.566406 30.441406 L 35.447266 32.560547 L 40.013672 37.126953 C 40.378854 36.042395 40.595408 34.844586 40.742188 33.617188 L 37.566406 30.441406 z"/>
 <circle cy="31.5" cx="-36.5" style="opacity:1;fill:#ffffff;fill-opacity:1;stroke:none;stroke-width:2;stroke-linecap:round;stroke-linejoin:round;stroke-miterlimit:4;stroke-dasharray:none;stroke-opacity:1" r="1.5" transform="scale(-1,1)"/>
 <circle style="opacity:1;fill:#ffffff;fill-opacity:1;stroke:none;stroke-width:2;stroke-linecap:round;stroke-linejoin:round;stroke-miterlimit:4;stroke-dasharray:none;stroke-opacity:1" cx="-34" cy="38" r="2" transform="scale(-1,1)"/>
 <path style="fill:#000000;fill-opacity:1;opacity:0.15" d="M 4 6 C 4.3116186 9.4309423 6.6990901 10.359862 7.0566406 13.755859 C 7.0774151 13.597653 7.105773 13.431106 7.0996094 13.298828 C 6.9710988 9.8328505 4.8383614 8.8019451 4.1699219 6.0078125 C 4.1129124 6.0069055 4.0571771 6 4 6 z M 44 6 C 43.942823 6 43.887088 6.0069055 43.830078 6.0078125 C 43.161638 8.8019451 41.028901 9.8328505 40.900391 13.298828 C 40.894227 13.431106 40.922585 13.597653 40.943359 13.755859 C 41.30091 10.359862 43.688381 9.4309423 44 6 z M 5.109375 21.257812 C 5.0845114 21.45436 5.0528974 21.656582 5.0546875 21.833984 C 5.0655015 22.860009 5.5654639 23.823327 6.4101562 24.417969 C 7.3339052 25.067939 8.8577206 25.489738 10.830078 25.734375 C 12.249562 25.310167 14.031453 25 16.115234 25 L 15.847656 25 C 11.368853 25 8.0106257 24.544095 6.4101562 23.417969 C 5.6841728 22.906895 5.2343813 22.119303 5.109375 21.257812 z M 42.890625 21.257812 C 42.765619 22.119303 42.315828 22.906895 41.589844 23.417969 C 39.989375 24.544095 36.631147 25 32.152344 25 L 31.884766 25 C 33.968547 25 35.750438 25.310167 37.169922 25.734375 C 39.14228 25.489738 40.666095 25.067939 41.589844 24.417969 C 42.434537 23.823327 42.9345 22.860009 42.945312 21.833984 C 42.947103 21.656582 42.915489 21.45436 42.890625 21.257812 z M 22.964844 25.753906 C 22.775568 30.743753 21.12451 40.922376 14.220703 41 C 8.2075457 40.836888 7.2532345 35.019376 7.0351562 29.710938 C 7.0247022 29.798012 7.0009858 29.882168 7 29.970703 C 7.1654936 35.46169 7.9284327 41.829317 14.220703 42 C 21.46208 41.91858 22.943793 30.656648 23 26 C 22.99813 25.935025 22.973385 25.830395 22.964844 25.753906 z M 25.035156 25.753906 C 25.026615 25.830395 25.00187 25.935025 25 26 C 25.056207 30.656648 26.53792 41.91858 33.779297 42 C 40.071567 41.829317 40.834506 35.46169 41 29.970703 C 40.999014 29.882168 40.975298 29.798012 40.964844 29.710938 C 40.746765 35.019376 39.792454 40.836888 33.779297 41 C 26.87549 40.922376 25.224434 30.743753 25.035156 25.753906 z"/>
 <path style="fill:url(#linearGradient4323);fill-opacity:1" d="m 24,16 c -1.656854,0 -3,1.343146 -3,3 0,2 2,2 1,4 l 0,3 0,5 c 0,1.108 0.892,2 2,2 1.108,0 2,-0.892 2,-2 l 0,-5 0,-3 c -1,-2 1,-2 1,-4 0,-1.656854 -1.343146,-3 -3,-3 z"/>
</svg>
