<?xml version="1.0" encoding="UTF-8" standalone="no"?>
<svg xmlns="http://www.w3.org/2000/svg" xmlns:xlink="http://www.w3.org/1999/xlink" width="48" height="48" version="1.1">
 <defs>
  <linearGradient id="linearGradient4342">
   <stop style="stop-color:#000000;stop-opacity:1;" offset="0"/>
   <stop style="stop-color:#000000;stop-opacity:0;" offset="1"/>
  </linearGradient>
  <linearGradient id="linearGradient4202">
   <stop style="stop-color:#2a9eff;stop-opacity:1;" offset="0"/>
   <stop style="stop-color:#81c6ff;stop-opacity:1" offset="1"/>
  </linearGradient>
  <linearGradient xlink:href="#linearGradient4202" id="linearGradient4208" x1="419.368" y1="540.797" x2="404.176" y2="504.452" gradientUnits="userSpaceOnUse"/>
  <linearGradient xlink:href="#linearGradient4342" id="linearGradient4348" x1="15.319" y1="12.214" x2="39.408" y2="36.303" gradientUnits="userSpaceOnUse"/>
 </defs>
 <g transform="translate(-384.57143,-499.798)">
  <path style="opacity:1;fill:url(#linearGradient4208);fill-opacity:1;stroke-width:2.79999995;stroke-opacity:0.55026502" d="m 408.57143,503.798 c -11.08019,0 -20,8.91936 -20,19.99902 0,11.07965 8.91981,20.00098 20,20.00098 11.0802,0 20,-8.92133 20,-20.00098 0,-11.07966 -8.9198,-19.99902 -20,-19.99902 z"/>
  <path style="opacity:0.15;fill:#000000;fill-opacity:1;stroke-width:2.79999995;stroke-opacity:0.55026502" d="M 4.0117188 23.498047 C 4.0076471 23.6649 4 23.830178 4 23.998047 C 4 35.077697 12.91981 44 24 44 C 35.0802 44 44 35.077697 44 23.998047 C 44 23.830178 43.992353 23.6649 43.988281 23.498047 C 43.724105 34.344331 34.91264 43 24 43 C 13.08737 43 4.2758954 34.344331 4.0117188 23.498047 z" transform="translate(384.57143,499.798)"/>
  <path style="color:#000000;font-style:normal;font-variant:normal;font-weight:normal;font-stretch:normal;font-size:medium;line-height:normal;font-family:sans-serif;text-indent:0;text-align:start;text-decoration:none;text-decoration-line:none;text-decoration-style:solid;text-decoration-color:#000000;letter-spacing:normal;word-spacing:normal;text-transform:none;direction:ltr;block-progression:tb;writing-mode:lr-tb;baseline-shift:baseline;text-anchor:start;white-space:normal;clip-rule:nonzero;display:inline;overflow:visible;visibility:visible;opacity:1;isolation:auto;mix-blend-mode:normal;color-interpolation:sRGB;color-interpolation-filters:linearRGB;solid-color:#000000;solid-opacity:1;fill:#b5ddff;fill-opacity:1;fill-rule:nonzero;stroke:none;stroke-width:2;stroke-linecap:round;stroke-linejoin:round;stroke-miterlimit:4;stroke-dasharray:none;stroke-dashoffset:0;stroke-opacity:1;color-rendering:auto;image-rendering:auto;shape-rendering:auto;text-rendering:auto;enable-background:accumulate" d="m 428.62416,518.79409 a 1.0001,1.0001 0 0 0 -0.1289,0.008 c 0,0 -1.43678,0.12964 -3.13477,0.52148 -1.69799,0.39184 -3.6878,0.97295 -4.98242,2.26758 -0.34661,0.3466 -0.67897,0.63197 -1.01172,0.91992 -1.21708,-0.86641 -2.40404,-1.43611 -3.5664,-1.69141 a 1.0001,1.0001 0 0 0 -0.21485,-0.0234 l -0.33008,0 -0.875,2 1.04297,0 c 0.67604,0.15566 1.43671,0.4826 2.26172,1.00195 -0.82628,0.51981 -1.58887,0.84471 -2.26562,1 l -1.91602,0 -0.875,2 2.95703,0 a 1.0001,1.0001 0 0 0 0.21485,-0.0234 c 1.16279,-0.25539 2.3508,-0.8225 3.56836,-1.68945 0.33228,0.28766 0.66365,0.57185 1.00976,0.91797 1.29462,1.29462 3.28443,1.87574 4.98242,2.26758 1.69799,0.39185 3.13477,0.52148 3.13477,0.52148 a 1.0001387,1.0001387 0 0 0 0.17969,-1.99219 c 0,0 -1.31323,-0.12036 -2.86524,-0.47851 -1.55202,-0.35816 -3.31221,-1.02704 -4.01758,-1.73242 -0.27969,-0.27969 -0.55579,-0.54095 -0.83203,-0.79102 0.27624,-0.25007 0.55234,-0.51328 0.83203,-0.79297 0.70537,-0.70537 2.46556,-1.37621 4.01758,-1.73437 1.55201,-0.35815 2.86524,-0.47852 2.86524,-0.47852 a 1.0001,1.0001 0 0 0 -0.0508,-1.99805 z"/>
  <path style="color:#000000;font-style:normal;font-variant:normal;font-weight:normal;font-stretch:normal;font-size:medium;line-height:normal;font-family:sans-serif;text-indent:0;text-align:start;text-decoration:none;text-decoration-line:none;text-decoration-style:solid;text-decoration-color:#000000;letter-spacing:normal;word-spacing:normal;text-transform:none;direction:ltr;block-progression:tb;writing-mode:lr-tb;baseline-shift:baseline;text-anchor:start;white-space:normal;clip-rule:nonzero;display:inline;overflow:visible;visibility:visible;opacity:1;isolation:auto;mix-blend-mode:normal;color-interpolation:sRGB;color-interpolation-filters:linearRGB;solid-color:#000000;solid-opacity:1;fill:#b5ddff;fill-opacity:1;fill-rule:nonzero;stroke:none;stroke-width:2;stroke-linecap:round;stroke-linejoin:round;stroke-miterlimit:4;stroke-dasharray:none;stroke-dashoffset:0;stroke-opacity:1;color-rendering:auto;image-rendering:auto;shape-rendering:auto;text-rendering:auto;enable-background:accumulate" d="m 388.56166,518.79605 a 1.0001,1.0001 0 0 0 -0.082,1.99609 c 0,0 1.31323,0.12037 2.86524,0.47852 1.55202,0.35816 3.31416,1.029 4.01953,1.73437 0.27969,0.27969 0.55774,0.5429 0.83398,0.79297 -0.27624,0.25007 -0.55429,0.51133 -0.83398,0.79102 -0.70537,0.70538 -2.46751,1.37426 -4.01953,1.73242 -1.55201,0.35815 -2.86524,0.47851 -2.86524,0.47851 a 1.0002267,1.0002267 0 0 0 0.18164,1.99219 c 0,0 1.43678,-0.12963 3.13477,-0.52148 1.69798,-0.39184 3.68779,-0.97296 4.98242,-2.26758 0.34622,-0.34622 0.67946,-0.63024 1.01172,-0.91797 1.21756,0.86695 2.40361,1.43406 3.56641,1.68945 a 1.0001,1.0001 0 0 0 0.21484,0.0234 l 0.31445,0 0.875,-2 -1.02539,0 c -0.67674,-0.15529 -1.43593,-0.4802 -2.26172,-1 0.82451,-0.51933 1.58179,-0.84629 2.25782,-1.00195 l 1.90429,0 0.875,-2 -2.93945,0 a 1.0001,1.0001 0 0 0 -0.21484,0.0234 c -1.1628,0.2554 -2.34885,0.82446 -3.56641,1.69141 -0.33264,-0.28795 -0.66511,-0.57332 -1.01172,-0.91992 -1.29463,-1.29463 -3.28444,-1.87574 -4.98242,-2.26758 -1.69799,-0.39184 -3.13477,-0.52148 -3.13477,-0.52148 a 1.0001,1.0001 0 0 0 -0.0996,-0.006 z"/>
  <path d="m 476.58585,519.798 c 0,0 -5.5,0.5 -7.5,2.5 -2,2 -3.85446,3.13858 -5.5,3.5 l -7,0 m -20.01424,-6 c 0,0 5.5,0.5 7.5,2.5 2,2 3.85446,3.13858 5.5,3.5 l 7,0" style="fill:none;stroke:#ffffff;stroke-width:2;stroke-linecap:round;stroke-linejoin:round;stroke-miterlimit:4;stroke-dasharray:none;stroke-opacity:1"/>
  <path style="fill:none;stroke:#ffffff;stroke-width:2;stroke-linecap:round;stroke-linejoin:round;stroke-miterlimit:4;stroke-dasharray:none;stroke-opacity:1" d="m 476.58585,527.79662 c 0,0 -5.5,-0.5 -7.5,-2.5 -2,-2 -3.85446,-3.13858 -5.5,-3.5 l -7,0 m -20.01424,6 c 0,0 5.5,-0.5 7.5,-2.5 2,-2 3.85446,-3.13858 5.5,-3.5 l 7,0"/>
  <path d="m 448.57203,512.798 4.99958,10" style="fill:none;stroke:#ffffff;stroke-width:2;stroke-linecap:round;stroke-linejoin:round;stroke-miterlimit:4;stroke-dasharray:none;stroke-opacity:1"/>
  <path d="m 448.57138,534.798 7,-16" style="fill:none;stroke:#ffffff;stroke-width:2;stroke-linecap:round;stroke-linejoin:round;stroke-miterlimit:4;stroke-dasharray:none;stroke-opacity:1"/>
  <path d="m 454.57138,528.798 4,-10" style="fill:none;stroke:#ffffff;stroke-width:2;stroke-linecap:round;stroke-linejoin:round;stroke-miterlimit:4;stroke-dasharray:none;stroke-opacity:1"/>
  <path d="m 457.57138,528.798 7,-16" style="fill:none;stroke:#ffffff;stroke-width:2;stroke-linecap:round;stroke-linejoin:round;stroke-miterlimit:4;stroke-dasharray:none;stroke-opacity:1"/>
  <path d="m 464.57203,534.798 -5.00042,-9" style="fill:none;stroke:#ffffff;stroke-width:2;stroke-linecap:round;stroke-linejoin:round;stroke-miterlimit:4;stroke-dasharray:none;stroke-opacity:1"/>
  <path style="opacity:0.2;fill:url(#linearGradient4348);fill-opacity:1;stroke:none;stroke-width:2;stroke-linecap:round;stroke-linejoin:round;stroke-miterlimit:4;stroke-dasharray:none;stroke-opacity:1" d="M 32.591797 12.1875 L 28.833984 20.431641 L 26.685547 18.283203 L 26.001953 18.349609 L 25.869141 20.449219 L 23.677734 18.257812 L 23.150391 18.726562 L 23.148438 18.726562 L 16.654297 12.230469 L 16.386719 12.355469 L 16.576172 15.208984 L 18.400391 20.03125 L 21.253906 22.884766 L 17.447266 31.238281 L 17.480469 31.289062 L 16.166016 33.728516 L 15.21875 35.644531 L 23.564453 43.990234 C 23.709644 43.993315 23.854043 44 24 44 C 35.0802 44 44 35.077697 44 23.998047 C 44 23.859685 43.993003 23.723612 43.990234 23.585938 L 32.591797 12.1875 z" transform="translate(384.57143,499.798)"/>
  <path style="color:#000000;font-style:normal;font-variant:normal;font-weight:normal;font-stretch:normal;font-size:medium;line-height:normal;font-family:sans-serif;text-indent:0;text-align:start;text-decoration:none;text-decoration-line:none;text-decoration-style:solid;text-decoration-color:#000000;letter-spacing:normal;word-spacing:normal;text-transform:none;direction:ltr;block-progression:tb;writing-mode:lr-tb;baseline-shift:baseline;text-anchor:start;white-space:normal;clip-rule:nonzero;display:inline;overflow:visible;visibility:visible;opacity:1;isolation:auto;mix-blend-mode:normal;color-interpolation:sRGB;color-interpolation-filters:linearRGB;solid-color:#000000;solid-opacity:1;fill:#ffffff;fill-opacity:1;fill-rule:nonzero;stroke:none;stroke-width:2;stroke-linecap:round;stroke-linejoin:round;stroke-miterlimit:4;stroke-dasharray:none;stroke-dashoffset:0;stroke-opacity:1;color-rendering:auto;image-rendering:auto;shape-rendering:auto;text-rendering:auto;enable-background:accumulate" d="M 16.013672 11.986328 A 1.0001 1.0001 0 0 0 15.105469 13.447266 L 18.380859 19.998047 L 19.939453 19.998047 A 1.0001 1.0001 0 0 1 20.339844 20.083984 L 20.490234 19.742188 L 16.894531 12.552734 A 1.0001 1.0001 0 0 0 16.013672 11.986328 z M 32.001953 11.986328 A 1.0001 1.0001 0 0 0 31.082031 12.597656 L 24.082031 28.597656 A 1.0009864 1.0009864 0 0 0 25.916016 29.400391 L 32.916016 13.400391 A 1.0001 1.0001 0 0 0 32.001953 11.986328 z M 23.001953 17.986328 A 1.0001 1.0001 0 0 0 22.082031 18.597656 L 15.082031 34.597656 A 1.0009864 1.0009864 0 0 0 16.916016 35.400391 L 23.916016 19.400391 A 1.0001 1.0001 0 0 0 23.001953 17.986328 z M 25.96875 17.986328 A 1.0001 1.0001 0 0 0 25.070312 18.626953 L 21.070312 28.626953 A 1.0004702 1.0004702 0 1 0 22.927734 29.371094 L 26.927734 19.371094 A 1.0001 1.0001 0 0 0 25.96875 17.986328 z M 27.65625 27.914062 L 27.332031 28.658203 L 31.125 35.484375 A 1.0001 1.0001 0 1 0 32.873047 34.513672 L 29.253906 28 L 28.056641 28 A 1.0001 1.0001 0 0 1 27.65625 27.914062 z" transform="translate(384.57143,499.798)"/>
 </g>
</svg>
