<?xml version="1.0" encoding="UTF-8" standalone="no"?>
<svg xmlns="http://www.w3.org/2000/svg" xmlns:xlink="http://www.w3.org/1999/xlink" version="1" width="48" height="48">
 <defs>
  <linearGradient id="linearGradient4176">
   <stop style="stop-color:#6f8181;stop-opacity:1" offset="0"/>
   <stop style="stop-color:#b0b8b8;stop-opacity:1" offset="1"/>
  </linearGradient>
  <linearGradient id="linearGradient4215">
   <stop offset="0" style="stop-color:#334545;stop-opacity:1"/>
   <stop offset="1" style="stop-color:#172525;stop-opacity:1"/>
  </linearGradient>
  <linearGradient id="linearGradient4209">
   <stop offset="0" style="stop-color:#cfd5d5;stop-opacity:1"/>
   <stop offset="1" style="stop-color:#fcfcfc;stop-opacity:1"/>
  </linearGradient>
  <linearGradient id="linearGradient4349">
   <stop style="stop-color:#000000;stop-opacity:1;" offset="0"/>
   <stop style="stop-color:#000000;stop-opacity:0;" offset="1"/>
  </linearGradient>
  <linearGradient id="linearGradient4267">
   <stop style="stop-color:#6c5548;stop-opacity:1" offset="0"/>
   <stop style="stop-color:#bb9d71;stop-opacity:1" offset="1"/>
  </linearGradient>
  <radialGradient cx="15.415" cy="35.357" r="7.579" fx="15.415" fy="35.357" id="radialGradient6969" xlink:href="#linearGradient4215" gradientUnits="userSpaceOnUse" gradientTransform="matrix(-0.1877762,-0.61010386,0.62117041,-0.17515593,22.206274,53.218094)"/>
  <linearGradient id="linearGradient6951">
   <stop style="stop-color:#ffa92d;stop-opacity:1" offset="0"/>
   <stop style="stop-color:#cd7223;stop-opacity:1" offset="1"/>
  </linearGradient>
  <linearGradient x1="37.018" y1="19.24" x2="30.865" y2="14.64" id="linearGradient6957" xlink:href="#linearGradient6951" gradientUnits="userSpaceOnUse" gradientTransform="matrix(-0.114852,-0.389864,0.389864,-0.114852,31.490732,47.604576)"/>
  <linearGradient id="linearGradient6482">
   <stop style="stop-color:black;stop-opacity:1" offset="0"/>
   <stop style="stop-color:black;stop-opacity:0" offset="1"/>
  </linearGradient>
  <linearGradient x1="32.35" y1="28.083" x2="21.213" y2="30.293" id="linearGradient4351" xlink:href="#linearGradient6482" gradientUnits="userSpaceOnUse" gradientTransform="matrix(0.97383439,0,0,1.0390813,-3.062163,-1.8795811)"/>
  <linearGradient xlink:href="#linearGradient4267" id="linearGradient4273" x1="34.712" y1="34.585" x2="5" y2="9" gradientUnits="userSpaceOnUse" gradientTransform="translate(5.0238058e-7,-1)"/>
  <radialGradient xlink:href="#linearGradient4209" id="radialGradient4281" cx="22" cy="22" fx="22" fy="22" r="5" gradientUnits="userSpaceOnUse" gradientTransform="translate(5.0238058e-7,-1)"/>
  <radialGradient xlink:href="#linearGradient4209" id="radialGradient4289" cx="13.5" cy="21.5" fx="13.5" fy="21.5" r="4.5" gradientUnits="userSpaceOnUse" gradientTransform="translate(5.0238058e-7,-1)"/>
  <radialGradient xlink:href="#linearGradient4215" id="radialGradient4335" cx="3.496" cy="22.823" fx="3.496" fy="22.823" r="5.5" gradientTransform="matrix(1,0,0,1.0909092,5.0238058e-7,-3.3636383)" gradientUnits="userSpaceOnUse"/>
  <linearGradient xlink:href="#linearGradient4349" id="linearGradient4240" x1="15.263" y1="18.832" x2="31" y2="35" gradientUnits="userSpaceOnUse" gradientTransform="translate(5.0238058e-7,-1)"/>
  <radialGradient xlink:href="#linearGradient4215" id="radialGradient4282" cx="23.5" cy="22.5" fx="23.5" fy="22.5" r="2.5" gradientUnits="userSpaceOnUse" gradientTransform="translate(0,-1)"/>
  <radialGradient xlink:href="#linearGradient4215" id="radialGradient4290" cx="14.5" cy="21.5" fx="14.5" fy="21.5" r="2.5" gradientUnits="userSpaceOnUse" gradientTransform="matrix(0.8,0,0,0.8,3.4,3.8)"/>
  <linearGradient xlink:href="#linearGradient4176" id="linearGradient4182" x1="37.34" y1="35.924" x2="38.347" y2="33.509" gradientUnits="userSpaceOnUse"/>
 </defs>
 <path style="color:#000000;font-style:normal;font-variant:normal;font-weight:normal;font-stretch:normal;font-size:medium;line-height:normal;font-family:sans-serif;text-indent:0;text-align:start;text-decoration:none;text-decoration-line:none;text-decoration-style:solid;text-decoration-color:#000000;letter-spacing:normal;word-spacing:normal;text-transform:none;direction:ltr;block-progression:tb;writing-mode:lr-tb;baseline-shift:baseline;text-anchor:start;white-space:normal;clip-rule:nonzero;display:inline;overflow:visible;visibility:visible;opacity:1;isolation:auto;mix-blend-mode:normal;color-interpolation:sRGB;color-interpolation-filters:linearRGB;solid-color:#000000;solid-opacity:1;fill:url(#linearGradient4273);fill-opacity:1;fill-rule:evenodd;stroke:none;stroke-width:0.9999997;stroke-linecap:butt;stroke-linejoin:miter;stroke-miterlimit:10;stroke-dasharray:none;stroke-dashoffset:0;stroke-opacity:1;marker:none;color-rendering:auto;image-rendering:auto;shape-rendering:auto;text-rendering:auto;enable-background:accumulate" d="M 37.738383,7.0327891 C 37.423824,6.9846871 37.141223,7.15594 36.971332,7.3511485 36.801443,7.546357 36.683563,7.7882884 36.580907,8.093336 36.40337,8.6208846 35.751374,10.579408 33.400309,12.515211 31.049244,14.451017 26.994919,16.842214 19.968056,17.01683 14.628913,17.077875 11.360251,13.642455 10.000001,9 l 0,2.745345 -0.021691,7.710938 0.043382,0.101562 c 0,0 0.382783,0.821224 -0.02169,1.927735 -0.4044748,1.10651 -1.9996148,2.546687 -5.5642212,3.580078 l -0.4357803,0.125 0.082817,0.443359 c 0.1977185,1.073719 0.9858362,2.174143 2.1493184,3.300781 1.1634821,1.126639 2.7212818,2.266392 4.5352591,3.296875 3.627955,2.060967 8.27469,3.689479 12.789431,3.765625 4.51474,0.07615 8.932001,-1.448563 11.854772,-5.671875 2.922773,-4.223311 4.348195,-11.550949 3.180597,-22.0484933 l -0.002,-0.00391 0,-0.00391 C 38.55309,7.9808632 38.48727,7.7347625 38.369376,7.5191174 38.251481,7.303472 38.052943,7.0808909 37.738383,7.0327891 Z"/>
 <path style="opacity:0.2;fill:url(#linearGradient4240);fill-opacity:1;stroke:none;stroke-width:2;stroke-linecap:round;stroke-linejoin:round;stroke-miterlimit:4;stroke-dasharray:none;stroke-opacity:1" d="M 16.435548,16.998047 9.9902349,23.443359 22.482423,35.935547 c 0.358251,0.0249 0.71705,0.05648 1.074219,0.0625 4.51474,0.07615 8.932697,-1.448563 11.855468,-5.671875 0.403481,-0.583016 0.775613,-1.232087 1.119141,-1.933594 L 25.335939,17.197266 20.984376,21.546875 16.435548,16.998047 Z"/>
 <path style="color:#000000;display:inline;overflow:visible;visibility:visible;fill:url(#linearGradient4351);fill-opacity:1;fill-rule:evenodd;stroke:none;stroke-width:0.9999997;stroke-linecap:butt;stroke-linejoin:miter;stroke-miterlimit:10;stroke-dasharray:none;stroke-dashoffset:0;stroke-opacity:1;marker:none;marker-start:none;marker-mid:none;marker-end:none" d="m 16.000002,29.001996 c 6.562573,1.400513 9.904569,0.101924 11.860499,-1.509552 C 27.344048,26.780663 27.000001,26 27.000001,26 c 0,0 1.753513,0.679499 2.560494,1.790932 0.80467,1.108251 0.29878,1.791072 0.08819,3.209068 -0.468814,-1.245442 -1.343873,-1.712502 -1.462342,-2.207354 -1.759006,2.59451 -6.141431,2.48673 -12.186341,0.20935 z"/>
 <path style="color:#000000;font-style:normal;font-variant:normal;font-weight:normal;font-stretch:normal;font-size:medium;line-height:normal;font-family:sans-serif;text-indent:0;text-align:start;text-decoration:none;text-decoration-line:none;text-decoration-style:solid;text-decoration-color:#000000;letter-spacing:normal;word-spacing:normal;text-transform:none;direction:ltr;block-progression:tb;writing-mode:lr-tb;baseline-shift:baseline;text-anchor:start;white-space:normal;clip-rule:nonzero;display:inline;overflow:visible;visibility:visible;opacity:0.2;isolation:auto;mix-blend-mode:normal;color-interpolation:sRGB;color-interpolation-filters:linearRGB;solid-color:#000000;solid-opacity:1;fill:#000000;fill-opacity:1;fill-rule:evenodd;stroke:none;stroke-width:0.9999997;stroke-linecap:butt;stroke-linejoin:miter;stroke-miterlimit:10;stroke-dasharray:none;stroke-dashoffset:0;stroke-opacity:1;marker:none;color-rendering:auto;image-rendering:auto;shape-rendering:auto;text-rendering:auto;enable-background:accumulate" d="m 38.992189,14.84375 c -0.08219,6.538492 -1.42008,11.361294 -3.580079,14.482422 -2.922771,4.223312 -7.340728,5.748025 -11.855468,5.671875 C 19.041901,34.921901 14.395534,33.293389 10.767579,31.232422 8.9536018,30.201939 7.3959045,29.062186 6.2324224,27.935547 5.2472728,26.981594 4.5351322,26.044973 4.2187505,25.128906 l -0.21875,0.0625 0.082031,0.44336 c 0.1977185,1.073719 0.9869085,2.174143 2.1503907,3.300781 1.1634821,1.126639 2.7211794,2.266392 4.5351568,3.296875 3.627955,2.060967 8.274322,3.689479 12.789063,3.765625 4.51474,0.07615 8.932697,-1.448563 11.855468,-5.671875 2.26828,-3.27759 3.627602,-8.43479 3.580079,-15.482422 z m -29.0117197,3.619141 -0.00195,0.99414 0.042968,0.101563 c 0,0 0.06494,0.168797 0.113282,0.417968 0.150839,-0.837885 -0.113282,-1.417968 -0.113282,-1.417968 l -0.041015,-0.0957 z"/>
 <path d="m 36.967774,35.400437 0.926394,-1.844875 c -3.44633,-2.521335 -9.880184,-5.079843 -9.880184,-5.079843 l -1.013758,0.557286 c 0,0 5.841507,5.181035 9.967548,6.367432 z" style="color:#000000;display:inline;overflow:visible;visibility:visible;opacity:1;fill:url(#linearGradient6957);fill-opacity:1;fill-rule:nonzero;stroke:none;stroke-width:2.46045303;stroke-linecap:round;stroke-linejoin:miter;stroke-miterlimit:4;stroke-dasharray:none;stroke-dashoffset:0;stroke-opacity:1;marker:none;marker-start:none;marker-mid:none;marker-end:none"/>
 <path d="m 37.000001,32.000034 -0.483074,0.317687 c -0.447434,0.244909 -0.810437,0.661172 -1.104875,1.142591 -0.336916,0.791414 -0.469962,1.286319 -0.412051,2.059551 l 0.7,-0.119863 c 0,0 3.654923,1.048538 5.385122,1.6 l 0.202389,-0.389889 0.712489,-1.379051 -5,-2.561438 z" style="color:#000000;font-style:normal;font-variant:normal;font-weight:normal;font-stretch:normal;font-size:medium;line-height:normal;font-family:sans-serif;text-indent:0;text-align:start;text-decoration:none;text-decoration-line:none;text-decoration-style:solid;text-decoration-color:#000000;letter-spacing:normal;word-spacing:normal;text-transform:none;direction:ltr;block-progression:tb;writing-mode:lr-tb;baseline-shift:baseline;text-anchor:start;white-space:normal;clip-rule:nonzero;display:inline;overflow:visible;visibility:visible;opacity:1;isolation:auto;mix-blend-mode:normal;color-interpolation:sRGB;color-interpolation-filters:linearRGB;solid-color:#000000;solid-opacity:1;fill:url(#linearGradient4182);fill-opacity:1;fill-rule:nonzero;stroke:none;stroke-width:2.46045303;stroke-linecap:round;stroke-linejoin:miter;stroke-miterlimit:4;stroke-dasharray:none;stroke-dashoffset:0;stroke-opacity:1;marker:none;color-rendering:auto;image-rendering:auto;shape-rendering:auto;text-rendering:auto;enable-background:accumulate"/>
 <path d="m 47,42 c -1.246985,-4.051583 -1.689265,-7.268529 -4.948048,-6.98227 -2.626127,0.230686 -2.80998,3.832334 -0.09627,4.826197 C 44.569846,40.801332 46.999997,42 46.999997,42 Z" style="color:#000000;display:inline;overflow:visible;visibility:visible;opacity:1;fill:url(#radialGradient6969);fill-opacity:1.0;fill-rule:nonzero;stroke:none;stroke-width:0.2;stroke-linecap:round;stroke-linejoin:miter;stroke-miterlimit:4;stroke-dasharray:none;stroke-dashoffset:0;stroke-opacity:1;marker:none;marker-start:none;marker-mid:none;marker-end:none"/>
 <path style="color:#000000;font-style:normal;font-variant:normal;font-weight:normal;font-stretch:normal;font-size:medium;line-height:normal;font-family:sans-serif;text-indent:0;text-align:start;text-decoration:none;text-decoration-line:none;text-decoration-style:solid;text-decoration-color:#000000;letter-spacing:normal;word-spacing:normal;text-transform:none;direction:ltr;block-progression:tb;writing-mode:lr-tb;baseline-shift:baseline;text-anchor:start;white-space:normal;clip-rule:nonzero;display:inline;overflow:visible;visibility:visible;opacity:1;isolation:auto;mix-blend-mode:normal;color-interpolation:sRGB;color-interpolation-filters:linearRGB;solid-color:#000000;solid-opacity:1;fill:url(#radialGradient4289);fill-opacity:1.0;fill-rule:evenodd;stroke:none;stroke-width:0.99999988;stroke-linecap:butt;stroke-linejoin:miter;stroke-miterlimit:10;stroke-dasharray:none;stroke-dashoffset:0;stroke-opacity:1;marker:none;color-rendering:auto;image-rendering:auto;shape-rendering:auto;text-rendering:auto;enable-background:accumulate" d="m 13.5,16 c -1.111289,0 -2.22859,0.367747 -3.081479,1.125962 C 9.5656322,17.884177 8.9997718,19.041023 9.0000006,20.5 8.9997718,21.958976 9.5656322,23.115822 10.418521,23.874037 11.27141,24.632253 12.388711,24.999999 13.5,25 14.611291,25 15.730516,24.632253 16.583406,23.874037 17.436293,23.115822 18.000229,21.958976 18.000001,20.5 18.000229,19.041023 17.436293,17.884177 16.583406,17.125962 15.730517,16.367747 14.611291,16 13.5,16 Z"/>
 <path style="color:#000000;display:inline;overflow:visible;visibility:visible;fill:url(#radialGradient4335);fill-opacity:1;fill-rule:evenodd;stroke:none;stroke-width:0.9999997;stroke-linecap:butt;stroke-linejoin:miter;stroke-miterlimit:10;stroke-dasharray:none;stroke-dashoffset:0;stroke-opacity:1;marker:none;marker-start:none;marker-mid:none;marker-end:none" d="m 5.1011379,19.000187 c -0.2440479,-0.0022 -0.4833734,0.01494 -0.716009,0.05181 -0.6203616,0.09837 -1.1947404,0.332781 -1.6899353,0.689006 -1.98077905,1.424897 -2.50243678,4.654223 -0.055818,8.03584 2.4466194,3.381618 5.6835966,3.90647 7.6643764,2.481573 1.980779,-1.424898 2.504362,-4.654224 0.05774,-8.035841 C 8.7559004,20.003391 6.8094733,19.015068 5.1011379,19.000182 Z"/>
 <path style="color:#000000;font-style:normal;font-variant:normal;font-weight:normal;font-stretch:normal;font-size:medium;line-height:normal;font-family:sans-serif;text-indent:0;text-align:start;text-decoration:none;text-decoration-line:none;text-decoration-style:solid;text-decoration-color:#000000;letter-spacing:normal;word-spacing:normal;text-transform:none;direction:ltr;block-progression:tb;writing-mode:lr-tb;baseline-shift:baseline;text-anchor:start;white-space:normal;clip-rule:nonzero;display:inline;overflow:visible;visibility:visible;opacity:1;isolation:auto;mix-blend-mode:normal;color-interpolation:sRGB;color-interpolation-filters:linearRGB;solid-color:#000000;solid-opacity:1;fill:url(#radialGradient4281);fill-opacity:1;fill-rule:evenodd;stroke:none;stroke-width:0.99999964;stroke-linecap:butt;stroke-linejoin:miter;stroke-miterlimit:10;stroke-dasharray:none;stroke-dashoffset:0;stroke-opacity:1;marker:none;color-rendering:auto;image-rendering:auto;shape-rendering:auto;text-rendering:auto;enable-background:accumulate" d="m 21.999075,16 c -1.236949,0 -2.480112,0.408944 -3.426561,1.250231 -0.946449,0.841289 -1.572513,2.123381 -1.572513,3.750696 0,1.627313 0.626064,2.907553 1.572513,3.748842 C 19.518963,25.591056 20.762126,26 21.999075,26 c 1.236949,0 2.480112,-0.408944 3.426561,-1.250231 0.946449,-0.841289 1.574365,-2.121529 1.574365,-3.748842 0,-1.627315 -0.627916,-2.909407 -1.574365,-3.750696 C 24.479187,16.408944 23.236024,16 21.999075,16 Z"/>
 <path style="color:#000000;font-style:normal;font-variant:normal;font-weight:normal;font-stretch:normal;font-size:medium;line-height:normal;font-family:sans-serif;text-indent:0;text-align:start;text-decoration:none;text-decoration-line:none;text-decoration-style:solid;text-decoration-color:#000000;letter-spacing:normal;word-spacing:normal;text-transform:none;direction:ltr;block-progression:tb;writing-mode:lr-tb;baseline-shift:baseline;text-anchor:start;white-space:normal;clip-rule:nonzero;display:inline;overflow:visible;visibility:visible;opacity:1;isolation:auto;mix-blend-mode:normal;color-interpolation:sRGB;color-interpolation-filters:linearRGB;solid-color:#000000;solid-opacity:1;fill:url(#radialGradient4282);fill-opacity:1.0;fill-rule:evenodd;stroke:none;stroke-width:1.07215703;stroke-linecap:butt;stroke-linejoin:miter;stroke-miterlimit:10;stroke-dasharray:none;stroke-dashoffset:0;stroke-opacity:1;marker:none;color-rendering:auto;image-rendering:auto;shape-rendering:auto;text-rendering:auto;enable-background:accumulate" d="m 23.5,19 c -0.612591,0 -1.231888,0.202543 -1.708984,0.626628 C 21.31392,20.050713 21,20.703894 21,21.5 c 0,0.796105 0.31392,1.449288 0.791016,1.873373 C 22.268112,23.797458 22.887409,24 23.5,24 24.112591,24 24.731888,23.797458 25.208984,23.373373 25.68608,22.949288 26,22.296105 26,21.5 26,20.703894 25.68608,20.050713 25.208984,19.626628 24.731888,19.202543 24.112591,19 23.5,19 Z"/>
 <path d="m 15,19 c -0.490073,0 -0.98551,0.162034 -1.367187,0.501302 C 13.251136,19.84057 13,20.363115 13,21 c 0,0.636884 0.251136,1.15943 0.632813,1.498698 C 14.01449,22.837966 14.509927,23 15,23 15.490073,23 15.98551,22.837966 16.367187,22.498698 16.748864,22.15943 17,21.636884 17,21 17,20.363115 16.748864,19.84057 16.367187,19.501302 15.98551,19.162034 15.490073,19 15,19 Z" style="color:#000000;font-style:normal;font-variant:normal;font-weight:normal;font-stretch:normal;font-size:medium;line-height:normal;font-family:sans-serif;text-indent:0;text-align:start;text-decoration:none;text-decoration-line:none;text-decoration-style:solid;text-decoration-color:#000000;letter-spacing:normal;word-spacing:normal;text-transform:none;direction:ltr;block-progression:tb;writing-mode:lr-tb;baseline-shift:baseline;text-anchor:start;white-space:normal;clip-rule:nonzero;display:inline;overflow:visible;visibility:visible;opacity:1;isolation:auto;mix-blend-mode:normal;color-interpolation:sRGB;color-interpolation-filters:linearRGB;solid-color:#000000;solid-opacity:1;fill:url(#radialGradient4290);fill-opacity:1.0;fill-rule:evenodd;stroke:none;stroke-width:1.07215703;stroke-linecap:butt;stroke-linejoin:miter;stroke-miterlimit:10;stroke-dasharray:none;stroke-dashoffset:0;stroke-opacity:1;marker:none;color-rendering:auto;image-rendering:auto;shape-rendering:auto;text-rendering:auto;enable-background:accumulate"/>
</svg>
