<?xml version="1.0" encoding="UTF-8" standalone="no"?>
<svg xmlns="http://www.w3.org/2000/svg" xmlns:xlink="http://www.w3.org/1999/xlink" width="48" height="48" viewBox="0 0 48 48" version="1.1">
 <defs>
  <linearGradient id="linearGradient4801">
   <stop style="stop-color:#000000;stop-opacity:1;" offset="0"/>
   <stop style="stop-color:#000000;stop-opacity:0;" offset="1"/>
  </linearGradient>
  <linearGradient id="linearGradient4763">
   <stop style="stop-color:#ef4728;stop-opacity:1" offset="0"/>
   <stop style="stop-color:#f37760;stop-opacity:1" offset="1"/>
  </linearGradient>
  <linearGradient xlink:href="#linearGradient4763" id="linearGradient4769" x1="759.144" y1="712.845" x2="727.197" y2="705.482" gradientUnits="userSpaceOnUse"/>
  <linearGradient xlink:href="#linearGradient4801" id="linearGradient4809" x1="21.974" y1="13.094" x2="39.379" y2="30.499" gradientUnits="userSpaceOnUse"/>
  <linearGradient xlink:href="#linearGradient4801" id="linearGradient4811" x1="21.949" y1="22.741" x2="34.498" y2="35.291" gradientUnits="userSpaceOnUse"/>
 </defs>
 <g transform="translate(0,-1004.3622)">
  <path transform="matrix(0.70710678,0.70710678,-0.70710678,0.70710678,0,0)" style="opacity:1;fill:url(#linearGradient4769);fill-opacity:1;stroke:none;stroke-width:2;stroke-linecap:round;stroke-linejoin:round;stroke-miterlimit:4;stroke-dasharray:none;stroke-opacity:1" d="m 733.28165,694.69012 21.70168,0 c 2.5763,0 4.65036,2.07407 4.65036,4.65037 l 0,21.70168 c 0,2.5763 -2.07406,4.65036 -4.65036,4.65036 l -21.70168,0 c -2.5763,0 -4.65036,-2.07406 -4.65036,-4.65036 l 0,-21.70168 c 0,-2.5763 2.07406,-4.65037 4.65036,-4.65037 z"/>
  <g transform="matrix(0.70710678,0.70710678,-0.70710678,0.70710678,25.396147,996.27918)">
   <path d="m 15,30.5 c -2,-3.17e-4 -3.515941,-0.5 -3.5,3 0.01594,3.5 1.5,2.984016 3.499894,3" style="fill:none;stroke:#ffffff;stroke-width:1px;stroke-linecap:butt;stroke-linejoin:miter;stroke-opacity:1"/>
   <path d="m 22.5,28 c 0.02132,8 -0.5,8.537358 2.5,8.5" style="fill:none;stroke:#ffffff;stroke-width:1px;stroke-linecap:butt;stroke-linejoin:miter;stroke-opacity:1"/>
   <path d="m 26.999658,30.5 c 4,-0.0014 3.5,0.5 3.5,6 l -0.5,0 c -2,0 -3.463126,0.5 -3.5,-1.5 -0.03687,-2 1.5,-1.475395 3.5,-1.5" style="fill:none;stroke:#ffffff;stroke-width:1px;stroke-linecap:butt;stroke-linejoin:miter;stroke-opacity:1"/>
   <path d="m 18.008174,30.4903 c 1,0.01635 2.515871,-0.4903 2.49993,3.0097 -0.01594,3.5 -1.49993,3.001803 -2.49993,3 M 19,30.4903 C 18,30.506648 16.484129,30 16.50007,33.5 16.51601,37 18,36.501803 19,36.5" style="fill:none;stroke:#ffffff;stroke-width:1px;stroke-linecap:butt;stroke-linejoin:miter;stroke-opacity:1"/>
  </g>
  <path style="fill:none;stroke:#ffffff;stroke-width:2;stroke-linecap:butt;stroke-linejoin:miter;stroke-opacity:1;stroke-miterlimit:4;stroke-dasharray:none;opacity:0.5" d="m 18,1013.3622 13,12 0,0"/>
  <path style="fill:none;stroke:#ffffff;stroke-width:2;stroke-linecap:butt;stroke-linejoin:miter;stroke-opacity:1;stroke-miterlimit:4;stroke-dasharray:none;opacity:0.5" d="m 24,1029.3622 0,-10"/>
  <path style="opacity:0.2;fill:url(#linearGradient4809);fill-opacity:1;stroke:none;stroke-width:2;stroke-linecap:round;stroke-linejoin:round;stroke-miterlimit:4;stroke-dasharray:none;stroke-opacity:1" d="M 25.974609 12.722656 L 21.728516 16.96875 L 37.339844 32.582031 L 37.835938 32.085938 L 41.587891 28.333984 L 42.083984 27.837891 L 33.023438 18.777344 L 32.527344 19.273438 L 25.974609 12.722656 z" transform="translate(0,1004.3622)"/>
  <path style="opacity:0.2;fill:url(#linearGradient4811);fill-opacity:1;stroke:none;stroke-width:2;stroke-linecap:round;stroke-linejoin:round;stroke-miterlimit:4;stroke-dasharray:none;stroke-opacity:1" d="M 26.033203 22.773438 L 21.785156 27.021484 L 32.34375 37.578125 L 36.589844 33.332031 L 26.033203 22.773438 z" transform="translate(0,1004.3622)"/>
  <path style="opacity:0.15;fill:#000000;fill-opacity:1;stroke:none;stroke-width:2;stroke-linecap:round;stroke-linejoin:round;stroke-miterlimit:4;stroke-dasharray:none;stroke-opacity:1" d="M 4.0488281 23.5 C 3.9023124 24.850005 4.3279157 26.249791 5.3671875 27.289062 L 20.710938 42.632812 C 22.532657 44.454532 25.467343 44.454532 27.289062 42.632812 L 42.632812 27.289062 C 43.672084 26.249791 44.097686 24.850007 43.951172 23.5 C 43.840862 24.516395 43.41526 25.506623 42.632812 26.289062 L 27.289062 41.632812 C 25.467343 43.454512 22.532657 43.454512 20.710938 41.632812 L 5.3671875 26.289062 C 4.5847401 25.506623 4.1591369 24.516395 4.0488281 23.5 z" transform="translate(0,1004.3622)"/>
  <circle style="opacity:1;fill:#ffffff;fill-opacity:1;stroke:none;stroke-width:2;stroke-linecap:round;stroke-linejoin:round;stroke-miterlimit:4;stroke-dasharray:none;stroke-opacity:1" cx="24" cy="1019.362" r="3"/>
  <circle r="3" cy="1025.362" cx="31" style="opacity:1;fill:#ffffff;fill-opacity:1;stroke:none;stroke-width:2;stroke-linecap:round;stroke-linejoin:round;stroke-miterlimit:4;stroke-dasharray:none;stroke-opacity:1"/>
  <circle r="3" cy="1029.362" cx="24" style="opacity:1;fill:#ffffff;fill-opacity:1;stroke:none;stroke-width:2;stroke-linecap:round;stroke-linejoin:round;stroke-miterlimit:4;stroke-dasharray:none;stroke-opacity:1"/>
 </g>
</svg>
