<svg width="48" xmlns="http://www.w3.org/2000/svg" height="48">
 <defs>
  <linearGradient id="a" y1="41" y2="7" x2="0" gradientUnits="userSpaceOnUse">
   <stop stop-color="#728790"/>
   <stop offset="1" stop-color="#85969e"/>
  </linearGradient>
  <linearGradient id="b" y1="36" y2="12" x2="0" gradientUnits="userSpaceOnUse">
   <stop stop-color="#06a370"/>
   <stop offset="1" stop-color="#22d1b0"/>
  </linearGradient>
  <linearGradient id="c" y1="44" y2="4" x2="0" gradientUnits="userSpaceOnUse">
   <stop stop-color="#2a2c2f"/>
   <stop offset="1" stop-color="#424649"/>
  </linearGradient>
  <linearGradient id="d" y1="15" x1="15" y2="44" x2="44" gradientUnits="userSpaceOnUse">
   <stop stop-color="#020303"/>
   <stop offset="1" stop-color="#424649" stop-opacity="0"/>
  </linearGradient>
 </defs>
 <g stroke-opacity=".55" stroke-width="2.8">
  <path fill="url(#c)" d="m24 4c-11.08 0-20 8.92-20 20h7c0-7.202 5.798-13 13-13zm13 20c0 7.202-5.798 13-13 13v7c11.08 0 20-8.92 20-20z"/>
  <path fill="url(#a)" d="m24 7c-9.418 0-17 7.582-17 17 0 9.418 7.582 17 17 17 9.418 0 17-7.582 17-17h-7c0 5.54-4.46 10-10 10-5.54 0-10-4.46-10-10 0-5.54 4.46-10 10-10z"/>
 </g>
 <path opacity=".2" fill="url(#d)" fill-rule="evenodd" d="m22 15l-7 7 2.68 10-1.68 1 10.801 10.801c8.829-1.227 15.773-8.171 17-17l-2.801-2.801h-5c0-3.597-1.575-6.804-4.066-9zm2 2c3.878 0 7 3.122 7 7 0 3.878-3.122 7-7 7-3.878 0-7-3.122-7-7 0-3.878 3.122-7 7-7"/>
 <g stroke-opacity=".55" stroke-width="2.8">
  <path fill="url(#b)" d="m24 12c-6.648 0-12 5.352-12 12 0 6.648 5.352 12 12 12 6.648 0 12-5.352 12-12 0-6.648-5.352-12-12-12m0 5c3.878 0 7 3.122 7 7 0 3.878-3.122 7-7 7-3.878 0-7-3.122-7-7 0-3.878 3.122-7 7-7"/>
  <g fill-opacity=".118">
   <path d="m4.03 23c-.016.332-.025.664-.025 1h3v-1h-2zm39.949 1c-.518 10.611-9.23 19-19.975 19v1c11.08 0 20-8.92 20-20z"/>
   <path d="m7 24c0 9.418 7.582 17 17 17 9.418 0 17-7.582 17-17h-.051c-.517 8.946-7.869 16-16.949 16-9.08 0-16.417-7.06-16.936-16z"/>
  </g>
 </g>
</svg>
