<svg width="48" xmlns="http://www.w3.org/2000/svg" height="48" xmlns:xlink="http://www.w3.org/1999/xlink">
 <defs>
  <linearGradient id="a" y1="543.8" y2="503.8" x2="0" gradientUnits="userSpaceOnUse">
   <stop stop-color="#363a3e"/>
   <stop offset="1" stop-color="#44484c"/>
  </linearGradient>
  <linearGradient id="b" y1="24" x1="8" y2="8" x2="24" gradientUnits="userSpaceOnUse">
   <stop stop-color="#e81877"/>
   <stop offset=".312" stop-color="#dd1d8c"/>
   <stop offset=".562" stop-color="#6d57b1"/>
   <stop offset=".75" stop-color="#2a78c1"/>
   <stop offset="1" stop-color="#018dcb"/>
  </linearGradient>
  <linearGradient id="c" y1="24" x1="8" y2="8" gradientUnits="userSpaceOnUse" x2="24" gradientTransform="matrix(1 0 0-1 384.57 547.8)">
   <stop stop-color="#e51561"/>
   <stop offset=".312" stop-color="#e4156c"/>
   <stop offset=".562" stop-color="#e71e2c"/>
   <stop offset=".75" stop-color="#e8301e"/>
   <stop offset="1" stop-color="#e6320e"/>
  </linearGradient>
  <linearGradient id="d" y1="24" x1="8" y2="8" gradientUnits="userSpaceOnUse" x2="24" gradientTransform="matrix(-1 0 0 1 432.57 499.8)">
   <stop stop-color="#bec900"/>
   <stop offset=".312" stop-color="#9ec80a"/>
   <stop offset=".562" stop-color="#71b93d"/>
   <stop offset=".75" stop-color="#35a48f"/>
   <stop offset="1" stop-color="#018fca"/>
  </linearGradient>
  <linearGradient id="e" y1="24" x1="8" y2="8" gradientUnits="userSpaceOnUse" x2="24" gradientTransform="matrix(-1 0 0-1 432.57 547.8)">
   <stop stop-color="#c1cc00"/>
   <stop offset=".312" stop-color="#dfcd00"/>
   <stop offset=".562" stop-color="#f0cc00"/>
   <stop offset=".75" stop-color="#fd8c08"/>
   <stop offset="1" stop-color="#f25c13"/>
  </linearGradient>
  <linearGradient id="f" y1="-516.8" y2="-530.8" gradientUnits="userSpaceOnUse" x2="0">
   <stop stop-color="#2a2c2f"/>
   <stop offset="1" stop-color="#424649"/>
  </linearGradient>
  <filter width="1.12" x="-.06" y="-.06" height="1.12" color-interpolation-filters="sRGB" id="g">
   <feGaussianBlur stdDeviation=".4"/>
  </filter>
  <clipPath id="h">
   <use xlink:href="#x"/>
  </clipPath>
  <linearGradient xlink:href="#f" id="i" y1="40" y2="8" gradientUnits="userSpaceOnUse" x2="0"/>
  <clipPath id="j">
   <use xlink:href="#x"/>
  </clipPath>
  <clipPath id="k">
   <use xlink:href="#y"/>
  </clipPath>
  <linearGradient xlink:href="#f" id="l" y1="539.8" y2="507.8" gradientUnits="userSpaceOnUse" x2="0"/>
  <clipPath id="m">
   <use xlink:href="#y"/>
  </clipPath>
  <clipPath id="n">
   <use xlink:href="#y"/>
  </clipPath>
  <clipPath id="o">
   <use xlink:href="#y"/>
  </clipPath>
  <clipPath id="p">
   <use xlink:href="#y"/>
  </clipPath>
  <clipPath id="q">
   <use xlink:href="#y"/>
  </clipPath>
  <linearGradient id="r" y1="525.8" y2="521.8" x2="0" gradientUnits="userSpaceOnUse">
   <stop stop-color="#989a9b"/>
   <stop offset="1" stop-color="#f6f6f7"/>
  </linearGradient>
  <linearGradient id="s" y1="520.8" y2="535.8" x1="401.57" gradientUnits="userSpaceOnUse" x2="416.57">
   <stop stop-color="#292c2f"/>
   <stop offset="1" stop-opacity="0"/>
  </linearGradient>
  <clipPath id="t">
   <use xlink:href="#x"/>
  </clipPath>
  <clipPath id="u">
   <use xlink:href="#y"/>
  </clipPath>
  <clipPath id="v">
   <use xlink:href="#y"/>
  </clipPath>
  <clipPath id="w">
   <use xlink:href="#y"/>
  </clipPath>
  <rect width="32" x="8" y="8" fill="url(#i)" rx="16" height="32" id="x"/>
  <rect width="32" x="392.57" y="507.8" fill="url(#l)" rx="16" height="32" id="y"/>
  <path stroke-opacity=".55" fill="url(#b)" id="z" stroke-width="2.8" d="m24 8c-8.864 0-16 7.136-16 16h16z"/>
  <path stroke-opacity=".55" fill="url(#c)" id="A" stroke-width="2.8" d="m408.57 539.8c-8.864 0-16-7.136-16-16h16z"/>
  <path stroke-opacity=".55" fill="url(#d)" id="B" stroke-width="2.8" d="m408.57 507.8c8.864 0 16 7.136 16 16h-16z"/>
  <path stroke-opacity=".55" fill="url(#e)" id="C" stroke-width="2.8" d="m408.57 539.8c8.864 0 16-7.136 16-16h-16z"/>
 </defs>
 <g transform="translate(-384.57-499.8)">
  <rect width="40" x="388.57" y="503.8" stroke-opacity=".55" fill="url(#a)" rx="20" height="40" stroke-width="2.8"/>
  <g transform="matrix(.96593.25882-.25882.96593 149.49-87.9)">
   <use xlink:href="#z" clip-path="url(#j)" transform="translate(384.57 499.8)"/>
   <use xlink:href="#A" clip-path="url(#q)"/>
   <use xlink:href="#B" clip-path="url(#m)"/>
   <use xlink:href="#C" clip-path="url(#o)"/>
  </g>
  <g opacity=".7">
   <use opacity="1" filter="url(#g)" xlink:href="#z" clip-path="url(#h)" transform="translate(384.57 499.8)"/>
   <use opacity="1" filter="url(#g)" xlink:href="#A" clip-path="url(#p)"/>
   <use opacity="1" filter="url(#g)" xlink:href="#C" clip-path="url(#n)"/>
   <use opacity="1" filter="url(#g)" xlink:href="#B" clip-path="url(#k)"/>
  </g>
  <use opacity=".35" xlink:href="#z" clip-path="url(#h)" transform="matrix(.70711.70711-.70711.70711 408.57 489.86)"/>
  <use opacity=".35" xlink:href="#A" clip-path="url(#p)" transform="matrix(.70711.70711-.70711.70711 490.05-135.49)"/>
  <use opacity=".35" xlink:href="#C" clip-path="url(#n)" transform="matrix(.70711.70711-.70711.70711 490.05-135.49)"/>
  <use opacity=".35" xlink:href="#B" clip-path="url(#k)" transform="matrix(.70711.70711-.70711.70711 490.05-135.49)"/>
  <path fill="#2a2e32" d="m388.58 523.3c-.004.167-.012.332-.012.5 0 11.08 8.92 20 20 20 11.08 0 20-8.92 20-20 0-.168-.008-.333-.012-.5-.265 10.846-9.08 19.5-19.988 19.5-10.912 0-19.724-8.654-19.988-19.5"/>
  <path opacity=".2" fill="url(#s)" fill-rule="evenodd" d="m414.57 519.8l-11 9 13.229 13.229c4.439-1.998 8-5.561 10-10z"/>
  <g transform="matrix(.25882.96593-.96593.25882 808.78-6.421)">
   <use opacity=".3" xlink:href="#z" clip-path="url(#t)" transform="translate(384.57 499.8)"/>
   <use opacity=".3" xlink:href="#A" clip-path="url(#w)"/>
   <use opacity=".3" xlink:href="#C" clip-path="url(#v)"/>
   <use opacity=".3" xlink:href="#B" clip-path="url(#u)"/>
  </g>
  <rect width="14" x="401.57" y="-530.8" stroke-opacity=".55" fill="url(#f)" rx="7" height="14" stroke-width="2.8" transform="scale(1-1)"/>
  <path fill="url(#r)" fill-rule="evenodd" d="m406.57 525.8l2-4 2 4z"/>
 </g>
</svg>
