<?xml version="1.0" encoding="UTF-8" standalone="no"?>
<svg xmlns="http://www.w3.org/2000/svg" xmlns:xlink="http://www.w3.org/1999/xlink" width="48" height="48" version="1.1">
 <defs>
  <linearGradient id="linearGradient4283">
   <stop style="stop-color:#334545;stop-opacity:1" offset="0"/>
   <stop style="stop-color:#536161;stop-opacity:1" offset="1"/>
  </linearGradient>
  <linearGradient id="linearGradient3964">
   <stop offset="0" style="stop-color:#ffa92d;stop-opacity:1"/>
   <stop offset="1" style="stop-color:#f74028;stop-opacity:1"/>
  </linearGradient>
  <linearGradient xlink:href="#linearGradient4283" id="linearGradient4290" x1="-43" y1="30" x2="-13" y2="10" gradientUnits="userSpaceOnUse"/>
  <linearGradient xlink:href="#linearGradient4283" id="linearGradient4298" x1="7.778" y1="33.234" x2="12.567" y2="33.941" gradientUnits="userSpaceOnUse"/>
  <radialGradient xlink:href="#linearGradient3964" id="radialGradient4219" cx="41" cy="7" fx="41" fy="7" r="4" gradientUnits="userSpaceOnUse" gradientTransform="matrix(1.5,0,0,1.5,-20.5,-3.5)"/>
 </defs>
 <g>
  <path style="color:#000000;font-style:normal;font-variant:normal;font-weight:normal;font-stretch:normal;font-size:medium;line-height:normal;font-family:Sans;-inkscape-font-specification:Sans;text-indent:0;text-align:start;text-decoration:none;text-decoration-line:none;letter-spacing:normal;word-spacing:normal;text-transform:none;direction:ltr;block-progression:tb;writing-mode:lr-tb;baseline-shift:baseline;text-anchor:start;display:inline;overflow:visible;visibility:visible;fill:#b0b8b8;fill-opacity:1;stroke:none;stroke-width:1px;marker:none;enable-background:accumulate" d="m 40.03125,7.028125 c -2.463176,-0.095122 -3.89681,0.020858 -4.8125,0.40625 -0.457845,0.1926959 -0.814003,0.4869204 -1,0.84375 -0.185997,0.3568296 -0.191548,0.742313 -0.15625,1.09375 0.07059,0.702874 0.934325,1.846496 0.9755,2.471875 0.04118,0.625379 -0.68322,1.164994 -1.38175,1.78125 l 0,0.03125 c -0.483983,0.483983 -0.839075,0.749477 -1.15625,1.03125 -0.317175,0.281773 -0.599001,0.576116 -0.90625,1.03125 l 0.8125,0.5625 c 0.257486,-0.381419 0.458359,-0.584661 0.75,-0.84375 0.291641,-0.259089 0.671483,-0.577733 1.1875,-1.09375 0.891715,-0.798888 1.748091,-1.744737 1.69425,-2.5625 -0.05428,-0.824465 -0.926346,-2.013733 -0.9755,-2.503125 -0.02458,-0.244696 -4.85e-4,-0.4104155 0.0625,-0.53125 0.06298,-0.1208345 0.158804,-0.2445512 0.46875,-0.375 0.619892,-0.2608976 1.967639,-0.4367164 4.375,-0.34375 z"/>
  <rect style="fill:url(#linearGradient4298);fill-opacity:1;stroke:none" width="9" height="10" x="3.57" y="28.94" rx="1" ry="1" transform="matrix(0.70710678,-0.70710678,0.70710678,0.70710678,0,0)"/>
  <rect style="fill:url(#linearGradient4290);fill-opacity:1;stroke:#808080;stroke-width:0;stroke-linecap:round;stroke-linejoin:round;stroke-miterlimit:4;stroke-opacity:1;stroke-dasharray:none" width="32" height="32" x="-45" y="3" rx="21" ry="21" transform="matrix(0,-1,1,0,0,0)"/>
  <path style="fill:#000000;fill-opacity:1;stroke:#808080;stroke-width:0;stroke-linecap:round;stroke-linejoin:round;stroke-miterlimit:4;stroke-opacity:1;stroke-dasharray:none;opacity:0.15" d="M 3.0253906 28.5 C 3.0202495 28.667553 3 28.831155 3 29 C 3 37.864 10.136 45 19 45 C 27.864 45 35 37.864 35 29 C 35 28.831155 34.97975 28.667553 34.974609 28.5 C 34.709854 37.128653 27.695155 44 19 44 C 10.304845 44 3.2901455 37.128653 3.0253906 28.5 z"/>
  <path style="opacity:1;fill:url(#radialGradient4219);fill-opacity:1;stroke:none;stroke-width:2;stroke-linecap:round;stroke-linejoin:round;stroke-miterlimit:4;stroke-dasharray:none;stroke-opacity:1" d="m 41,2.9999997 a 1,4 0 0 0 -0.853516,1.9375 A 4,1 45 0 0 38.171875,4.1718747 4,1 45 0 0 38.9375,6.1445309 4,1 0 0 0 37,6.9999997 4,1 0 0 0 38.9375,7.8535153 1,4 45 0 0 38.171875,9.8281247 1,4 45 0 0 40.144531,9.0624997 1,4 0 0 0 41,11 1,4 0 0 0 41.853516,9.0624997 4,1 45 0 0 43.828125,9.8281247 4,1 45 0 0 43.0625,7.8554685 4,1 0 0 0 45,6.9999997 4,1 0 0 0 43.0625,6.1464841 1,4 45 0 0 43.828125,4.1718747 1,4 45 0 0 41.855469,4.9374997 1,4 0 0 0 41,2.9999997 Z"/>
 </g>
</svg>
