<svg width="48" xmlns="http://www.w3.org/2000/svg" height="48">
 <defs>
  <linearGradient id="a" y1="543.8" y2="503.8" x2="0" gradientUnits="userSpaceOnUse">
   <stop stop-color="#2a2c2f"/>
   <stop offset="1" stop-color="#424649"/>
  </linearGradient>
  <linearGradient id="b" y1="40" y2="8" x2="0" gradientUnits="userSpaceOnUse">
   <stop stop-color="#d5d5d6"/>
   <stop offset="1" stop-color="#f4f5f5"/>
  </linearGradient>
  <linearGradient id="c" y1="7" x1="6" y2="33" x2="32" gradientUnits="userSpaceOnUse">
   <stop stop-color="#292c2f"/>
   <stop offset="1" stop-opacity="0"/>
  </linearGradient>
 </defs>
 <g transform="translate(-384.57-499.8)">
  <rect width="40" x="388.57" y="503.8" fill="url(#a)" rx="0" height="40"/>
  <path opacity=".2" fill="url(#c)" fill-rule="evenodd" d="m40 8v32h-32l4 4h32v-32z" transform="translate(384.57 499.8)"/>
  <rect width="40" x="388.57" y="542.8" fill="#1c1e20" height="1"/>
  <path fill="url(#b)" d="m8 8v32h32v-32zm1 1h30v21h-30zm1 3v2h22v-2zm-1 19h30v8h-30zm2 3v1h1v-1zm2 0v1h1v-1zm2 0v1h1v-1zm16 0v1h1v-1zm2 0v1h1v-1zm2 0v1h1v-1z" transform="translate(384.57 499.8)"/>
 </g>
</svg>
