<?xml version="1.0" encoding="UTF-8" standalone="no"?>
<svg xmlns="http://www.w3.org/2000/svg" xmlns:xlink="http://www.w3.org/1999/xlink" width="48" height="48" viewBox="0 0 48 48" version="1.1">
 <defs>
  <linearGradient id="linearGradient4204">
   <stop offset="0" style="stop-color:#424242;stop-opacity:1;"/>
   <stop offset="1" style="stop-color:#424242;stop-opacity:0.32751092"/>
  </linearGradient>
  <linearGradient id="linearGradient4198">
   <stop offset="0" style="stop-color:#23232b;stop-opacity:1"/>
   <stop style="stop-color:#332e56;stop-opacity:0.36862746" offset=".88"/>
   <stop offset="1" style="stop-color:#302e51;stop-opacity:0.17647059"/>
  </linearGradient>
  <linearGradient id="linearGradient4416">
   <stop style="stop-color:#ffffff;stop-opacity:0" offset="0"/>
   <stop style="stop-color:#ffffff;stop-opacity:1" offset="1"/>
  </linearGradient>
  <linearGradient xlink:href="#linearGradient4416" id="linearGradient5033" gradientUnits="userSpaceOnUse" gradientTransform="matrix(0.9760952,0,0,0.9760952,43.296042,0.61564016)" x1="42.483" y1="35.069" x2="14.753" y2="4.339"/>
  <linearGradient xlink:href="#linearGradient4198" id="linearGradient4194" gradientUnits="userSpaceOnUse" gradientTransform="matrix(1.0800666,0,0,1.0800666,-2.014721,1002.32)" x1="11.587" y1="5.757" x2="31.626" y2="35.134"/>
  <linearGradient xlink:href="#linearGradient4204" id="linearGradient4196" gradientUnits="userSpaceOnUse" gradientTransform="matrix(1.1087909,0,0,1.1087909,-1.772208,-110.97909)" x1="23.926" y1="1011.621" x2="31.169" y2="1026.079"/>
  <linearGradient xlink:href="#linearGradient4416" id="linearGradient4212" gradientUnits="userSpaceOnUse" gradientTransform="matrix(0.9760952,0,0,0.9760952,-16.703958,0.61564016)" x1="42.483" y1="35.069" x2="14.753" y2="4.339"/>
 </defs>
 <g transform="translate(0,-1004.3622)">
  <path d="m 23.975413,1011.4074 a 21.874991,21.874991 0 0 0 -21.298703,16.9789 21.874991,21.874991 0 0 0 21.298703,17.0111 21.874991,21.874991 0 0 0 21.298697,-16.9788 21.874991,21.874991 0 0 0 -21.298697,-17.0112 z" style="color:#000000;clip-rule:nonzero;display:inline;overflow:visible;visibility:visible;opacity:1;isolation:auto;mix-blend-mode:normal;color-interpolation:sRGB;color-interpolation-filters:linearRGB;solid-color:#000000;solid-opacity:1;fill:#cd3585;fill-opacity:1;fill-rule:nonzero;stroke:none;stroke-width:1;stroke-linecap:butt;stroke-linejoin:miter;stroke-miterlimit:4;stroke-dasharray:none;stroke-dashoffset:0;stroke-opacity:1;marker:none;color-rendering:auto;image-rendering:auto;shape-rendering:auto;text-rendering:auto;enable-background:accumulate"/>
  <path d="m 2.677804,1028.3948 a 21.874991,21.874991 0 0 0 21.297609,17.0039 21.874991,21.874991 0 0 0 21.297607,-16.9768 l -0.27318,0 a 21.874991,21.874991 0 0 1 -21.024427,16.0009 21.874991,21.874991 0 0 1 -21.026515,-16.028 l -0.271094,0 z" style="color:#000000;clip-rule:nonzero;display:inline;overflow:visible;visibility:visible;opacity:0.3;isolation:auto;mix-blend-mode:normal;color-interpolation:sRGB;color-interpolation-filters:linearRGB;solid-color:#000000;solid-opacity:1;fill:#161e25;fill-opacity:1;fill-rule:nonzero;stroke:none;stroke-width:2.79999995;stroke-linecap:butt;stroke-linejoin:miter;stroke-miterlimit:4;stroke-dasharray:none;stroke-dashoffset:0;stroke-opacity:0.55;marker:none;color-rendering:auto;image-rendering:auto;shape-rendering:auto;text-rendering:auto;enable-background:accumulate"/>
  <path d="m 23.975413,1011.4702 c -10.197265,0.013 -19.026616,6.9574 -21.293439,16.8995 0.0016,0.01 0.0025,0.018 0.0042,0.025 l 0.260668,0 c 2.642598,-9.3858 11.227161,-15.927 21.028596,-15.9487 9.7913,0.022 18.375622,6.5472 21.016092,15.9758 l 0.27526,0 c -2.29026,-9.915 -11.115222,-16.9413 -21.291352,-16.9518 z" style="color:#000000;clip-rule:nonzero;display:inline;overflow:visible;visibility:visible;opacity:0.3;isolation:auto;mix-blend-mode:normal;color-interpolation:sRGB;color-interpolation-filters:linearRGB;solid-color:#000000;solid-opacity:1;fill:#ffffff;fill-opacity:1;fill-rule:nonzero;stroke:none;stroke-width:2.79999995;stroke-linecap:butt;stroke-linejoin:miter;stroke-miterlimit:4;stroke-dasharray:none;stroke-dashoffset:0;stroke-opacity:0.55;marker:none;color-rendering:auto;image-rendering:auto;shape-rendering:auto;text-rendering:auto;enable-background:accumulate"/>
  <circle r="12.363" cy="1028.163" cx="23.8" style="color:#000000;clip-rule:nonzero;display:inline;overflow:visible;visibility:visible;opacity:1;isolation:auto;mix-blend-mode:normal;color-interpolation:sRGB;color-interpolation-filters:linearRGB;solid-color:#000000;solid-opacity:1;fill:#f7f7f7;fill-opacity:1;fill-rule:nonzero;stroke:none;stroke-width:1;stroke-linecap:butt;stroke-linejoin:miter;stroke-miterlimit:4;stroke-dasharray:none;stroke-dashoffset:0;stroke-opacity:1;marker:none;color-rendering:auto;image-rendering:auto;shape-rendering:auto;text-rendering:auto;enable-background:accumulate"/>
  <path d="m 17.140081,1022.6448 -4.263806,7.987 c 1.124121,5.1944 5.715885,8.9037 11.030604,8.9105 4.600539,0.051 9.259991,-3.7282 10.675701,-7.0579 l -3.488194,-0.1768 -5.393258,-5.3338 -3.954384,3.5534 z" style="opacity:0.39100001;fill:url(#linearGradient4194);fill-opacity:1;fill-rule:evenodd;stroke:none;stroke-width:1px;stroke-linecap:butt;stroke-linejoin:miter;stroke-opacity:1"/>
  <circle r="2.61" cy="1024.555" cx="30.542" style="color:#000000;clip-rule:nonzero;display:inline;overflow:visible;visibility:visible;opacity:0.45800003;isolation:auto;mix-blend-mode:normal;color-interpolation:sRGB;color-interpolation-filters:linearRGB;solid-color:#000000;solid-opacity:1;fill:url(#linearGradient4196);fill-opacity:1;fill-rule:nonzero;stroke:none;stroke-width:1;stroke-linecap:butt;stroke-linejoin:miter;stroke-miterlimit:4;stroke-dasharray:none;stroke-dashoffset:0;stroke-opacity:1;marker:none;color-rendering:auto;image-rendering:auto;shape-rendering:auto;text-rendering:auto;enable-background:accumulate"/>
  <path d="m 23.799592,1015.8007 a 12.362624,12.362624 0 0 0 -12.362068,12.3621 12.362624,12.362624 0 0 0 4.165437,9.2395 12.362624,12.362624 0 0 1 -3.169312,-8.2433 12.362624,12.362624 0 0 1 12.362068,-12.3621 12.362624,12.362624 0 0 1 8.196631,3.1226 12.362624,12.362624 0 0 0 -9.192756,-4.1188 z" style="color:#000000;clip-rule:nonzero;display:inline;overflow:visible;visibility:visible;opacity:0;isolation:auto;mix-blend-mode:normal;color-interpolation:sRGB;color-interpolation-filters:linearRGB;solid-color:#000000;solid-opacity:1;fill:#161e25;fill-opacity:1;fill-rule:nonzero;stroke:none;stroke-width:2.79999995;stroke-linecap:butt;stroke-linejoin:miter;stroke-miterlimit:4;stroke-dasharray:none;stroke-dashoffset:0;stroke-opacity:0.55;marker:none;color-rendering:auto;image-rendering:auto;shape-rendering:auto;text-rendering:auto;enable-background:accumulate"/>
  <path d="m 23.799592,1015.8007 a 12.362624,12.362624 0 0 0 -12.362068,12.3621 12.362624,12.362624 0 0 0 3.572042,8.6869 12.362624,12.362624 0 0 1 -3.132346,-8.2024 12.362624,12.362624 0 0 1 12.362068,-12.3622 12.362624,12.362624 0 0 1 8.782242,3.6675 12.362624,12.362624 0 0 0 -9.221938,-4.1519 z" style="color:#000000;clip-rule:nonzero;display:inline;overflow:visible;visibility:visible;opacity:0.24200003;isolation:auto;mix-blend-mode:normal;color-interpolation:sRGB;color-interpolation-filters:linearRGB;solid-color:#000000;solid-opacity:1;fill:#161e25;fill-opacity:1;fill-rule:nonzero;stroke:none;stroke-width:2.79999995;stroke-linecap:butt;stroke-linejoin:miter;stroke-miterlimit:4;stroke-dasharray:none;stroke-dashoffset:0;stroke-opacity:0.55;marker:none;color-rendering:auto;image-rendering:auto;shape-rendering:auto;text-rendering:auto;enable-background:accumulate"/>
  <path d="m 23.976637,1015.8007 a 12.538716,12.538716 0 0 0 -0.10311,0 12.362624,12.362624 0 0 1 12.288137,12.3582 12.362624,12.362624 0 0 1 -12.362067,12.366 12.362624,12.362624 0 0 1 -12.358176,-12.2608 12.538716,12.538716 0 0 0 -0.0038,0.073 12.538716,12.538716 0 0 0 12.539112,12.5391 12.538716,12.538716 0 0 0 12.537169,-12.5391 12.538716,12.538716 0 0 0 -12.537169,-12.5372 z" style="color:#000000;clip-rule:nonzero;display:inline;overflow:visible;visibility:visible;opacity:0.36700056;isolation:auto;mix-blend-mode:normal;color-interpolation:sRGB;color-interpolation-filters:linearRGB;solid-color:#000000;solid-opacity:1;fill:#ffffff;fill-opacity:1;fill-rule:nonzero;stroke:none;stroke-width:2.79999995;stroke-linecap:butt;stroke-linejoin:miter;stroke-miterlimit:4;stroke-dasharray:none;stroke-dashoffset:0;stroke-opacity:0.55;marker:none;color-rendering:auto;image-rendering:auto;shape-rendering:auto;text-rendering:auto;enable-background:accumulate"/>
 </g>
 <g style="display:inline">
  <path d="M 83.975413,7.0451966 A 21.874991,21.874991 0 0 0 62.67671,24.024013 21.874991,21.874991 0 0 0 83.975413,41.035181 21.874991,21.874991 0 0 0 105.27411,24.056365 21.874991,21.874991 0 0 0 83.975413,7.0451966 Z" style="color:#000000;clip-rule:nonzero;display:inline;overflow:visible;visibility:visible;opacity:0.45;isolation:auto;mix-blend-mode:normal;color-interpolation:sRGB;color-interpolation-filters:linearRGB;solid-color:#000000;solid-opacity:1;fill:url(#linearGradient5033);fill-opacity:1;fill-rule:nonzero;stroke:none;stroke-width:1;stroke-linecap:butt;stroke-linejoin:miter;stroke-miterlimit:4;stroke-dasharray:none;stroke-dashoffset:0;stroke-opacity:1;marker:none;color-rendering:auto;image-rendering:auto;shape-rendering:auto;text-rendering:auto;enable-background:accumulate"/>
  <path style="color:#000000;clip-rule:nonzero;display:inline;overflow:visible;visibility:visible;opacity:0.45;isolation:auto;mix-blend-mode:normal;color-interpolation:sRGB;color-interpolation-filters:linearRGB;solid-color:#000000;solid-opacity:1;fill:url(#linearGradient4212);fill-opacity:1;fill-rule:nonzero;stroke:none;stroke-width:1;stroke-linecap:butt;stroke-linejoin:miter;stroke-miterlimit:4;stroke-dasharray:none;stroke-dashoffset:0;stroke-opacity:1;marker:none;color-rendering:auto;image-rendering:auto;shape-rendering:auto;text-rendering:auto;enable-background:accumulate" d="M 23.975413,7.0451966 A 21.874991,21.874991 0 0 0 2.676711,24.024013 21.874991,21.874991 0 0 0 23.975413,41.035181 21.874991,21.874991 0 0 0 45.274114,24.056365 21.874991,21.874991 0 0 0 23.975413,7.0451966 Z"/>
 </g>
</svg>
