<?xml version="1.0" encoding="UTF-8" standalone="no"?>
<svg xmlns="http://www.w3.org/2000/svg" width="48" height="48" version="1.1">
 <g transform="translate(-384.57143,-499.798)">
  <path style="fill:#479951;fill-opacity:1" d="M 35.738281 3.9296875 C 35.727181 3.9356875 35.708841 3.9642187 35.681641 4.0117188 C 35.638441 4.0872187 35.511741 4.4060031 35.400391 4.7207031 C 35.289071 5.0354131 35.119057 5.5041619 35.023438 5.7636719 C 34.927838 6.0231619 34.804547 6.3946575 34.748047 6.5859375 C 34.691547 6.7772175 34.455806 7.4297462 34.222656 8.0351562 C 33.989506 8.6405663 33.654366 9.5213306 33.478516 9.9941406 C 33.292346 10.494681 33.119416 10.856788 33.066406 10.861328 C 32.972306 10.869328 32.830028 10.459884 32.523438 9.3085938 C 32.439338 8.9926938 32.314654 8.5477825 32.246094 8.3203125 C 32.027564 7.5952425 31.713619 6.5170525 31.630859 6.1953125 C 31.552459 5.8904225 31.501302 5.7900694 31.451172 5.8496094 C 31.437372 5.8660094 31.316954 6.8720475 31.183594 8.0859375 C 30.937394 10.327007 30.895257 10.591623 30.779297 10.601562 C 30.743497 10.604562 30.629188 10.472007 30.523438 10.310547 C 30.417697 10.149087 30.184379 9.8277869 30.005859 9.5917969 C 29.559089 9.0011669 29.280333 8.6074331 29.007812 8.1894531 C 28.712112 7.7359131 28.608545 7.7345037 28.703125 8.1835938 C 28.786825 8.5810338 29.111623 9.9350519 29.382812 11.013672 C 29.691253 12.240492 29.743723 12.581787 29.626953 12.591797 C 29.534053 12.599797 27.493932 11.797461 27.138672 11.613281 C 27.047972 11.566281 26.901203 11.512221 26.814453 11.494141 C 26.727653 11.476141 26.549216 11.409663 26.416016 11.345703 C 26.282806 11.281703 25.995254 11.163111 25.777344 11.082031 L 25.380859 10.935547 L 25.521484 11.101562 C 25.599984 11.192963 25.869378 11.462389 26.117188 11.699219 C 26.364998 11.936049 26.760444 12.320681 26.996094 12.556641 C 27.231724 12.792601 27.473243 13.033544 27.533203 13.089844 C 27.593103 13.146144 27.730141 13.28756 27.837891 13.40625 C 27.945641 13.52494 28.222105 13.701908 28.453125 13.798828 C 28.632755 13.874228 28.818404 13.967489 28.996094 14.068359 L 37.158203 16.382812 C 37.911383 16.119603 38.174041 16.036034 38.275391 16.027344 C 38.347191 16.021344 38.543781 15.963067 38.712891 15.898438 C 38.881981 15.833737 39.363893 15.671059 39.783203 15.537109 C 40.202523 15.403149 40.760151 15.222262 41.019531 15.132812 C 41.278891 15.043312 41.542862 14.964534 41.607422 14.958984 C 41.671922 14.952984 41.723093 14.926338 41.720703 14.898438 C 41.716703 14.849438 41.418582 14.812861 40.169922 14.712891 C 39.309462 14.644091 38.983861 14.615291 38.394531 14.556641 C 38.104851 14.527741 37.741351 14.496728 37.587891 14.486328 C 37.383241 14.472528 37.305908 14.436006 37.298828 14.353516 C 37.292828 14.291616 37.956604 13.453694 38.771484 12.490234 C 39.586364 11.526784 40.248824 10.713481 40.246094 10.681641 C 40.237094 10.574111 39.896884 10.726238 38.802734 11.330078 C 38.375304 11.565978 37.294287 12.061976 37.185547 12.072266 C 37.141047 12.076266 37.102209 12.054137 37.099609 12.023438 C 37.097609 11.992638 37.260587 11.531727 37.460938 10.998047 C 37.863837 9.9248969 38.039671 9.4465919 38.369141 8.5449219 C 38.817171 7.3188019 38.814671 7.3129825 38.300781 7.8828125 C 38.116591 8.0870925 37.599144 8.653055 37.146484 9.140625 C 36.693834 9.628195 36.055749 10.321671 35.730469 10.681641 C 35.405149 11.041611 35.097845 11.341333 35.046875 11.345703 C 34.931045 11.355703 34.912399 11.136129 34.980469 10.568359 C 35.008769 10.332579 35.11539 9.3946413 35.21875 8.4882812 C 35.32209 7.5819113 35.484072 6.2778906 35.576172 5.5878906 C 35.668272 4.8978806 35.74484 4.2296156 35.75 4.1035156 C 35.756 3.9713456 35.756281 3.9194475 35.738281 3.9296875 z" transform="translate(384.57143,499.798)"/>
  <path style="fill:#e5b731;fill-opacity:1;stroke:none" d="M 29.121094 13.892578 C 25.231826 13.985706 21.706057 16.574959 20.585938 20.523438 L 17.513672 31.353516 C 16.135063 36.213182 18.937209 41.234673 23.796875 42.613281 L 25.5625 43.113281 C 30.422166 44.49189 35.443657 41.689744 36.822266 36.830078 L 39.894531 26.001953 C 41.27314 21.142287 38.470994 16.118843 33.611328 14.740234 L 31.847656 14.240234 C 30.936469 13.981745 30.018617 13.871087 29.121094 13.892578 z" transform="translate(384.57143,499.798)"/>
  <path style="fill:#9f7e21" d="M 29.775391 14.003906 C 29.787591 14.018806 29.8016 14.032375 29.8125 14.046875 C 30.02884 14.333455 30.173653 14.392343 30.257812 14.226562 C 30.275312 14.192162 30.292619 14.169403 30.324219 14.158203 L 29.775391 14.003906 z M 31.457031 14.103516 C 31.483831 14.169016 30.938869 14.484402 30.792969 14.576172 C 30.632569 14.677062 30.270033 14.663341 30.283203 14.556641 C 30.299103 14.427541 30.261115 14.363287 30.171875 14.367188 C 30.044755 14.373187 30.047655 14.384857 30.234375 14.648438 C 30.321475 14.771348 30.416572 14.847039 30.445312 14.818359 C 30.474112 14.789659 30.475825 14.803356 30.453125 14.847656 C 30.396925 14.955716 30.556932 15.271184 30.638672 15.214844 C 30.674172 15.190344 30.687669 15.199475 30.667969 15.234375 C 30.648369 15.269275 30.706301 15.548492 30.800781 15.851562 C 30.895281 16.154633 30.979305 16.481255 30.984375 16.578125 C 30.992375 16.736165 30.998222 16.739338 31.044922 16.617188 C 31.079622 16.526187 31.091278 16.592336 31.080078 16.816406 C 31.037878 17.713926 31.031181 16.906664 31.175781 17.808594 C 31.297941 17.925504 31.483812 18.430549 31.445312 18.542969 C 31.405712 18.658489 31.064593 18.816711 30.945312 18.775391 C 30.85855 18.745328 29.142634 19.312315 28.404297 19.626953 C 27.604267 18.479504 26.780297 17.40623 26.607422 17.447266 C 26.468112 17.661896 26.335938 17.761719 26.335938 17.761719 C 26.026358 17.686819 27.061332 19.589281 27.294922 19.675781 C 27.291148 19.682505 27.545389 20.016349 27.654297 20.164062 C 27.130574 20.503361 26.510088 20.95571 26.5 20.966797 C 26.4839 20.984497 24.918304 22.163889 24.958984 22.162109 C 24.999684 22.160109 24.904366 22.186941 24.884766 22.244141 C 24.865166 22.301341 24.486052 22.552531 24.044922 22.800781 L 23.246094 23.25 L 22.720703 24.212891 C 22.671176 24.303845 22.676198 24.306931 22.630859 24.392578 C 22.412445 24.805177 22.20017 25.220729 22.201172 25.259766 C 22.201543 25.268494 22.286794 25.42595 22.302734 25.462891 C 22.37281 25.625286 22.504503 25.903092 22.75 26.355469 C 23.05132 26.910749 23.298871 27.427823 23.300781 27.501953 C 23.302781 27.594353 23.22816 27.672133 23.0625 27.751953 C 22.92959 27.816053 22.732993 27.918519 22.626953 27.980469 C 22.520883 28.042369 22.079741 28.300237 21.644531 28.554688 C 21.147571 28.845198 20.806039 29.005455 20.730469 28.984375 C 20.664269 28.965875 20.574194 28.863039 20.527344 28.755859 C 20.480544 28.648669 20.419078 28.56135 20.392578 28.5625 C 20.335424 28.226299 20.273852 28.024137 20.210938 27.880859 C 19.96136 27.31249 19.69154 28.009555 19.601562 28.197266 C 19.569033 28.26514 19.582172 28.409027 19.609375 28.574219 C 19.676378 28.981091 19.85137 29.546015 19.796875 29.626953 C 19.583575 29.943743 18.841059 30.247076 18.880859 30.285156 C 18.633629 30.974186 18.622751 31.017025 18.894531 30.859375 C 19.162321 30.711785 20.338186 30.17136 20.384766 30.1875 C 20.498536 30.2269 21.747853 32.64207 21.726562 32.78125 C 21.706962 32.90948 19.473131 34.215222 19.244141 34.232422 C 19.132651 34.240422 19.065792 34.179164 18.976562 33.996094 C 18.910663 33.860914 18.784722 33.620754 18.695312 33.458984 L 17.556641 31.216797 L 17.304688 32.441406 C 17.275587 32.553126 18.520902 34.088316 18.513672 34.628906 L 17.341797 35.306641 L 17.480469 36.017578 L 18.90625 35.447266 L 19.576172 36.732422 C 19.944452 37.440322 20.228611 38.053377 20.207031 38.091797 C 20.185431 38.130297 20.032931 38.232172 19.869141 38.320312 C 19.705371 38.408413 19.388483 38.586897 19.164062 38.716797 C 18.782033 38.937927 18.762981 38.962109 18.863281 39.068359 C 18.922181 39.130759 18.987321 39.232151 18.988281 39.269531 C 19.035081 39.299431 19.061553 39.340581 19.101562 39.425781 C 19.224873 39.532361 19.256446 39.523485 19.878906 39.171875 C 20.235736 38.970295 20.564608 38.817784 20.611328 38.833984 C 20.714288 38.869684 21.961131 41.266181 21.962891 41.431641 C 21.963641 41.496041 21.936291 41.551164 21.900391 41.552734 C 21.758331 41.558734 21.792764 41.791444 22.027344 41.896484 C 22.480154 42.099254 23.162253 42.430281 23.189453 42.400391 C 23.204253 42.384191 23.263256 42.111652 23.222656 42.039062 C 23.081196 41.786493 23.139054 41.719078 23.833984 41.335938 C 24.214324 41.126268 24.59927 40.906419 24.6875 40.849609 C 24.7758 40.792809 25.027057 40.644158 25.248047 40.517578 C 25.600657 40.315648 25.662717 40.300512 25.748047 40.382812 C 25.801547 40.434413 26.121104 40.996986 26.458984 41.634766 C 27.067084 42.782576 26.933111 43.232748 26.712891 43.330078 C 26.542481 43.405378 26.790099 43.37838 27.292969 43.4375 C 27.546289 43.5366 27.942034 43.448231 27.996094 43.457031 C 28.050094 43.466031 28.131667 43.408809 28.154297 43.412109 C 28.176897 43.415109 28.23395 43.358093 28.28125 43.283203 C 28.37395 43.136353 30.60778 41.839621 30.78125 41.832031 C 30.84605 41.829031 30.985791 42.016826 31.150391 42.322266 C 31.296941 42.594216 31.434838 42.825188 31.455078 42.835938 C 31.527078 42.874137 32.105246 42.639046 32.103516 42.572266 C 32.102716 42.534866 31.978395 42.29301 31.828125 42.03125 C 31.677875 41.76948 31.554174 41.507052 31.552734 41.451172 C 31.549734 41.315572 33.996804 39.912984 34.146484 39.964844 C 34.205784 39.985344 34.340859 40.167937 34.443359 40.367188 C 34.545859 40.566438 34.649158 40.725679 34.673828 40.724609 C 34.761828 40.720609 35.110609 40.229698 35.105469 40.117188 C 35.102469 40.054188 35.055623 39.929554 35.001953 39.839844 C 34.820503 39.536094 34.86636 39.460507 35.40625 39.154297 C 35.89869 38.874977 35.921806 38.851657 36.103516 38.429688 C 36.283736 38.011197 36.326696 37.842523 36.253906 37.845703 C 36.235506 37.846503 35.841103 38.059846 35.376953 38.322266 C 34.683133 38.714546 34.517699 38.784844 34.449219 38.714844 C 34.312459 38.575084 33.116501 36.31237 33.113281 36.1875 C 33.111281 36.1045 33.469665 35.872649 34.390625 35.355469 C 35.093595 34.960719 35.692699 34.655028 35.724609 34.673828 C 35.756609 34.692628 35.984276 35.093243 36.228516 35.564453 C 36.472746 36.035653 36.69283 36.419109 36.71875 36.417969 C 36.74465 36.417179 36.824814 36.209651 36.896484 35.957031 L 37.027344 35.498047 L 36.744141 34.962891 C 36.588561 34.667681 36.459021 34.360653 36.457031 34.283203 C 36.454031 34.171063 36.57044 34.079421 37.03125 33.837891 L 37.611328 33.535156 L 37.761719 33.03125 C 37.844319 32.75371 37.903371 32.521492 37.894531 32.513672 C 37.885531 32.505672 37.484007 32.721834 36.998047 32.996094 C 36.512087 33.270344 36.074294 33.481114 36.027344 33.464844 C 35.906834 33.423144 34.662887 31.047624 34.685547 30.902344 C 34.706947 30.765264 36.923053 29.459006 37.164062 29.441406 C 37.288723 29.432406 37.381408 29.564183 37.773438 30.314453 C 38.027337 30.800393 38.251044 31.196203 38.271484 31.195312 C 38.291884 31.194512 38.370623 30.978234 38.445312 30.714844 L 38.582031 30.236328 L 38.302734 29.722656 C 37.893734 28.971926 37.899294 28.944774 38.583984 28.583984 L 39.158203 28.28125 L 39.292969 27.802734 C 39.367569 27.539644 39.416504 27.315314 39.402344 27.302734 C 39.388144 27.290134 38.994307 27.490933 38.529297 27.751953 C 38.039117 28.027073 37.642231 28.212266 37.582031 28.191406 C 37.524931 28.171606 37.181573 27.59477 36.820312 26.90625 C 36.308612 25.93102 36.180548 25.632354 36.236328 25.558594 C 36.349598 25.408864 38.671621 24.134049 38.769531 24.167969 C 38.817931 24.184769 39.074854 24.589879 39.339844 25.068359 C 39.877454 26.039059 39.859604 26.035177 40.021484 25.216797 C 40.081284 24.914337 40.073521 24.879546 39.800781 24.378906 C 39.644381 24.091826 39.517125 23.810163 39.515625 23.751953 C 39.513625 23.689653 39.669464 23.556964 39.896484 23.427734 L 40.283203 23.207031 L 40.273438 22.851562 C 40.268438 22.655943 40.244703 22.478058 40.220703 22.455078 C 40.196703 22.432078 39.962082 22.543558 39.701172 22.705078 C 39.440282 22.866628 39.185862 22.985187 39.132812 22.966797 C 39.006863 22.923197 37.800282 20.609141 37.794922 20.400391 C 37.791922 20.262951 37.895585 20.179808 38.515625 19.830078 C 38.913525 19.605658 39.250369 19.415567 39.261719 19.404297 C 39.287319 19.378797 39.099443 19.049518 38.970703 18.892578 C 38.880103 18.782148 38.83763 18.798024 38.15625 19.183594 C 37.75982 19.407914 37.395063 19.5796 37.345703 19.5625 C 37.259503 19.5326 35.948823 17.108826 35.945312 16.972656 C 35.944523 16.936156 36.088805 16.825639 36.265625 16.724609 C 36.582595 16.543519 36.930681 16.432892 36.800781 16.357422 C 36.454841 15.790042 35.344451 15.242445 33.994141 14.859375 C 34.178931 15.003225 34.326557 15.555132 34.523438 15.919922 C 34.908997 16.634382 34.917402 16.618276 33.638672 17.347656 C 32.476322 18.010636 32.341122 18.074921 32.201172 18.025391 C 32.096662 17.988391 30.891119 15.681216 30.886719 15.509766 C 30.883719 15.386476 32.177327 14.489888 32.523438 14.392578 L 31.457031 14.103516 z M 35.003906 15.263672 C 35.051406 15.233972 35.476112 15.578566 35.544922 15.597656 C 35.696312 15.639656 35.951669 15.831766 36.005859 15.916016 C 35.994459 16.017836 35.776776 16.148909 35.660156 16.167969 C 35.524426 16.190169 35.468919 16.153729 35.380859 15.980469 C 35.287059 15.795849 34.925716 15.312732 35.003906 15.263672 z M 35.167969 17.408203 C 35.173969 17.408013 35.178947 17.408346 35.185547 17.410156 C 35.284547 17.443656 35.483884 17.767298 35.964844 18.673828 C 36.745204 20.144688 36.743865 20.069079 35.984375 20.417969 C 35.749875 20.525699 35.478003 20.67487 35.382812 20.75 C 35.287613 20.8251 34.958001 21.017184 34.650391 21.177734 C 34.026281 21.503464 34.016578 21.507691 33.923828 21.394531 C 33.765598 21.201501 32.615695 18.906804 32.640625 18.833984 C 32.676125 18.730304 35.007249 17.415233 35.167969 17.408203 z M 31.855469 19.306641 C 31.965499 19.317841 32.125094 19.565374 32.589844 20.433594 C 33.158044 21.495114 33.261844 21.775274 33.152344 21.964844 C 33.069144 22.108834 30.963267 23.282716 30.773438 23.291016 C 30.606337 23.298016 30.555336 23.221624 30.003906 22.152344 C 29.889018 21.882906 29.442122 21.178443 28.935547 20.417969 C 29.135521 20.343239 29.288612 20.287352 29.390625 20.251953 C 29.995347 20.108828 30.655933 19.854925 31.025391 19.736328 C 31.391221 19.527288 31.777969 19.298731 31.855469 19.306641 z M 37.017578 20.771484 C 37.144738 20.845284 38.389546 23.289251 38.353516 23.394531 C 38.334716 23.449531 37.794054 23.790971 37.152344 24.150391 C 36.510624 24.509811 35.937246 24.806204 35.878906 24.808594 C 35.820606 24.810594 35.744041 24.776822 35.707031 24.732422 C 35.533231 24.523872 34.456675 22.41927 34.453125 22.28125 C 34.450125 22.14478 34.606482 22.037514 35.695312 21.427734 C 36.381593 21.043384 36.976938 20.747864 37.017578 20.771484 z M 28.128906 20.806641 C 28.662709 21.517092 29.244624 22.299833 29.402344 22.597656 C 29.686004 23.133286 29.920345 23.620538 29.921875 23.679688 C 29.925875 23.831617 29.707551 23.984551 28.582031 24.619141 C 27.941481 24.980311 27.533778 25.170389 27.423828 25.162109 C 27.274398 25.150909 27.181867 25.012166 26.654297 24.009766 C 26.324207 23.382586 26.051038 22.798891 26.048828 22.712891 C 26.765648 21.717213 27.503625 21.160605 28.128906 20.806641 z M 25.111328 22.646484 C 25.11717 22.648508 25.153201 22.719371 25.164062 22.732422 C 25.392106 23.006425 26.643883 25.534564 26.603516 25.652344 C 26.583816 25.709844 26.016223 26.066259 25.345703 26.443359 C 24.675183 26.820469 24.103619 27.127616 24.074219 27.128906 C 24.001519 27.131906 23.773863 26.749101 23.195312 25.644531 C 22.985369 25.243726 22.893579 25.042247 22.822266 24.863281 C 22.721736 24.610993 22.700726 24.463673 22.789062 24.382812 C 22.847921 24.328939 23.220372 24.041072 23.505859 23.818359 C 23.758654 23.621151 23.895715 23.513023 24.177734 23.300781 C 24.647389 22.947329 25.07603 22.634253 25.111328 22.646484 z M 33.667969 22.660156 C 33.816719 22.704456 35.08103 25.124241 35.03125 25.269531 C 35.01035 25.330531 34.46154 25.675396 33.8125 26.035156 C 33.16346 26.394916 32.58728 26.692873 32.53125 26.695312 C 32.38693 26.701312 32.366533 26.66565 31.689453 25.375 C 31.200603 24.44317 31.090701 24.189533 31.144531 24.095703 C 31.242631 23.924733 33.535259 22.620616 33.667969 22.660156 z M 30.25 24.585938 C 30.2708 24.583938 30.293006 24.588103 30.316406 24.595703 C 30.386506 24.618403 30.465264 24.677539 30.521484 24.755859 C 30.794934 25.137009 31.706496 26.96005 31.691406 27.09375 C 31.679106 27.20305 31.409441 27.382894 30.494141 27.902344 C 29.843901 28.271354 29.258036 28.579121 29.191406 28.582031 C 29.099306 28.586031 28.913082 28.287017 28.414062 27.335938 C 28.053063 26.647947 27.770119 26.043761 27.787109 25.994141 C 27.827609 25.876081 30.06523 24.596598 30.25 24.585938 z M 35.412109 26.033203 C 35.418109 26.033013 35.423488 26.033076 35.429688 26.035156 C 35.522488 26.072156 35.735317 26.424564 36.179688 27.271484 C 36.538297 27.954984 36.832554 28.556148 36.833984 28.611328 C 36.835984 28.674928 36.384989 28.965024 35.605469 29.402344 C 34.928569 29.782084 34.339392 30.095716 34.294922 30.097656 C 34.250422 30.099656 34.181904 30.064031 34.146484 30.019531 C 33.995184 29.829591 32.895518 27.660555 32.892578 27.546875 C 32.890578 27.452075 33.17858 27.253306 34.09375 26.728516 C 34.75676 26.348346 35.349589 26.036373 35.412109 26.033203 z M 27.029297 26.425781 C 27.160417 26.471281 28.366886 28.803769 28.347656 28.974609 C 28.334956 29.087589 28.080411 29.265759 27.175781 29.787109 C 26.539341 30.153909 25.96848 30.456587 25.90625 30.460938 C 25.84335 30.465937 25.717107 30.355701 25.623047 30.212891 C 25.334957 29.775501 24.490188 28.073688 24.486328 27.923828 C 24.483328 27.806448 24.694208 27.662121 25.710938 27.087891 C 26.387018 26.706031 26.980107 26.408741 27.029297 26.425781 z M 32.128906 27.933594 C 32.248456 27.974994 33.485334 30.276017 33.490234 30.466797 C 33.492234 30.569737 33.230921 30.747286 32.269531 31.291016 C 31.597481 31.671126 31.005765 31.982065 30.953125 31.984375 C 30.860525 31.988375 29.551595 29.581508 29.546875 29.398438 C 29.543875 29.283518 32.001366 27.889404 32.128906 27.933594 z M 23.705078 28.326172 C 23.720778 28.331172 23.733694 28.339709 23.746094 28.349609 C 23.875434 28.451849 25.080184 30.718977 25.083984 30.867188 C 25.085984 30.970698 24.994588 31.028427 23.585938 31.835938 C 23.096488 32.116498 22.640859 32.348652 22.574219 32.351562 C 22.439329 32.357562 22.249678 32.049505 21.548828 30.703125 C 21.207198 30.046845 21.125531 29.84328 21.175781 29.75 C 21.210981 29.6847 21.777567 29.322212 22.435547 28.945312 C 23.362407 28.414413 23.594938 28.294612 23.705078 28.326172 z M 28.798828 29.833984 C 28.805828 29.835984 28.815112 29.835844 28.820312 29.839844 C 28.963473 29.924844 30.137638 32.131539 30.142578 32.324219 C 30.145578 32.450659 30.024858 32.547821 29.423828 32.894531 C 29.026058 33.124001 28.486856 33.437414 28.222656 33.589844 C 27.958456 33.742284 27.724058 33.863418 27.705078 33.861328 C 27.553968 33.844828 27.426622 33.649138 26.851562 32.554688 C 26.354992 31.609658 26.214978 31.28829 26.267578 31.21875 C 26.305678 31.16845 26.870218 30.820799 27.523438 30.449219 C 28.383737 29.959839 28.695248 29.810904 28.798828 29.833984 z M 33.869141 31.333984 C 33.965041 31.343984 34.163049 31.656784 34.630859 32.527344 C 34.978809 33.174854 35.266381 33.765504 35.269531 33.839844 C 35.274531 33.948664 35.037871 34.110734 34.056641 34.677734 C 33.386101 35.065184 32.793774 35.386322 32.740234 35.388672 C 32.645834 35.392672 31.334868 32.983335 31.330078 32.796875 C 31.327078 32.685505 33.701931 31.317204 33.869141 31.333984 z M 25.482422 31.726562 C 25.643512 31.815962 26.789227 34.038477 26.779297 34.242188 C 26.772297 34.389037 26.62745 34.492678 25.59375 35.080078 C 24.94442 35.449048 24.388705 35.752616 24.359375 35.753906 C 24.234515 35.759906 24.060173 35.491023 23.507812 34.439453 C 23.184852 33.824603 22.92856 33.258837 22.9375 33.179688 C 22.9604 32.976347 25.313442 31.632803 25.482422 31.726562 z M 30.552734 33.208984 C 30.558734 33.208784 30.563713 33.209018 30.570312 33.210938 C 30.668313 33.244537 30.865378 33.567045 31.335938 34.453125 C 31.701307 35.141135 31.984297 35.745795 31.966797 35.796875 C 31.949297 35.847975 31.407919 36.182869 30.761719 36.542969 C 30.115519 36.903059 29.519743 37.201558 29.439453 37.205078 C 29.315153 37.211078 29.196909 37.026218 28.636719 35.960938 C 28.274899 35.272888 27.992946 34.670064 28.009766 34.621094 C 28.046766 34.513164 30.382284 33.216444 30.552734 33.208984 z M 22.097656 33.578125 C 22.103656 33.577935 22.108834 33.578108 22.115234 33.580078 C 22.210834 33.615078 22.412008 33.94496 22.867188 34.8125 C 23.225797 35.49599 23.520104 36.100427 23.521484 36.154297 C 23.523484 36.214497 23.055271 36.521046 22.300781 36.947266 C 21.626491 37.328216 21.035284 37.640608 20.990234 37.642578 C 20.903834 37.646578 20.203189 36.474932 20.199219 36.320312 C 20.197219 36.270712 20.122893 36.132325 20.033203 36.015625 C 19.943503 35.898925 19.799944 35.643833 19.714844 35.445312 C 19.562994 35.091063 19.565414 35.080518 19.683594 34.955078 C 19.844454 34.784368 21.947896 33.584675 22.097656 33.578125 z M 27.253906 35.082031 C 27.260906 35.084031 27.267837 35.084891 27.273438 35.087891 C 27.369838 35.135991 28.471189 37.152524 28.605469 37.527344 C 28.672969 37.715874 28.475565 37.869617 27.390625 38.466797 C 26.184515 39.130667 26.119797 39.159149 26.029297 39.105469 C 25.936897 39.050669 24.712244 36.718907 24.708984 36.591797 C 24.704984 36.445157 24.766972 36.40218 26.013672 35.6875 C 26.835532 35.21639 27.145316 35.062921 27.253906 35.082031 z M 32.3125 36.611328 C 32.3302 36.610578 32.348234 36.613187 32.365234 36.617188 C 32.484324 36.652488 32.610014 36.86685 33.089844 37.78125 C 33.429604 38.42873 33.709177 39.015754 33.710938 39.083984 C 33.715937 39.273304 33.576599 39.370156 32.417969 40.009766 C 31.828129 40.335366 31.285221 40.606215 31.212891 40.609375 C 31.107461 40.614375 30.952184 40.367134 30.427734 39.371094 C 30.061124 38.674804 29.788844 38.084884 29.808594 38.027344 C 29.854594 37.893024 32.10521 36.620388 32.3125 36.611328 z M 23.861328 37 C 23.869328 37.00038 23.876666 37.001906 23.884766 37.003906 C 24.006666 37.034306 24.150872 37.266814 24.669922 38.240234 C 25.179432 39.195784 25.314115 39.500391 25.265625 39.587891 C 25.231225 39.649991 24.698361 39.984661 24.082031 40.332031 C 23.465681 40.679391 22.900382 40.967646 22.826172 40.972656 C 22.693982 40.981656 22.460502 40.640334 21.982422 39.740234 C 21.896422 39.578324 21.73496 39.277753 21.625 39.070312 C 21.25897 38.379643 21.229041 38.426669 22.550781 37.662109 C 23.198181 37.287609 23.775988 36.99599 23.861328 37 z M 29.046875 38.46875 C 29.062975 38.47175 29.076891 38.475275 29.087891 38.484375 C 29.238951 38.603795 30.446376 40.972535 30.410156 41.078125 C 30.393356 41.127225 29.835622 41.469574 29.169922 41.839844 C 28.504232 42.210134 27.945161 42.524606 27.925781 42.535156 C 27.906381 42.545756 27.855626 42.532866 27.816406 42.509766 C 27.714356 42.448666 26.493914 40.092219 26.490234 39.949219 C 26.488234 39.861419 26.817998 39.641818 27.736328 39.117188 C 28.660828 38.589028 28.933915 38.44896 29.046875 38.46875 z" transform="translate(384.57143,499.798)"/>
  <path style="fill:#e2e5e7;fill-opacity:1;stroke:none;stroke-width:0.56111377;stroke-miterlimit:4;stroke-dasharray:none;stroke-opacity:1" d="m 411.66518,512.47378 a 4.6727962,4.6727962 0 0 0 -4.67187,4.67382 4.6727962,4.6727962 0 0 0 4.67187,4.67188 4.6727962,4.6727962 0 0 0 4.67383,-4.67188 4.6727962,4.6727962 0 0 0 -4.67383,-4.67382 z"/>
  <path style="color:#000000;font-style:normal;font-variant:normal;font-weight:normal;font-stretch:normal;font-size:medium;line-height:normal;font-family:sans-serif;text-indent:0;text-align:start;text-decoration:none;text-decoration-line:none;text-decoration-style:solid;text-decoration-color:#000000;letter-spacing:normal;word-spacing:normal;text-transform:none;direction:ltr;block-progression:tb;writing-mode:lr-tb;baseline-shift:baseline;text-anchor:start;white-space:normal;clip-rule:nonzero;display:inline;overflow:visible;visibility:visible;opacity:1;isolation:auto;mix-blend-mode:normal;color-interpolation:sRGB;color-interpolation-filters:linearRGB;solid-color:#000000;solid-opacity:1;fill:#48b19b;fill-opacity:1;fill-rule:nonzero;stroke:none;stroke-width:0.56111377;stroke-linecap:butt;stroke-linejoin:miter;stroke-miterlimit:4;stroke-dasharray:none;stroke-dashoffset:0;stroke-opacity:1;color-rendering:auto;image-rendering:auto;shape-rendering:auto;text-rendering:auto;enable-background:accumulate" d="m 411.66602,512.19336 c -2.73239,5.4e-4 -4.95373,2.22269 -4.95313,4.95508 5.4e-4,2.73157 2.22155,4.95063 4.95313,4.95117 2.73238,6e-4 4.95258,-2.21879 4.95312,-4.95117 6.1e-4,-2.73319 -2.21993,-4.95569 -4.95312,-4.95508 z m 0,0.56055 c 2.42985,-5.4e-4 4.39311,1.96467 4.39257,4.39453 -4.8e-4,2.42913 -1.96344,4.39116 -4.39257,4.39062 -2.42841,-4.8e-4 -4.3921,-1.96222 -4.39258,-4.39062 -5.4e-4,-2.42913 1.96345,-4.39405 4.39258,-4.39453 z"/>
  <path style="fill:#48b19b;fill-opacity:1" d="m 411.92298,513.32144 c -0.0685,0.001 -0.1185,0.013 -0.14258,0.0371 -0.0875,0.0875 -0.12396,3.11904 -0.0391,3.25 0.028,0.0431 0.0901,0.0636 0.13868,0.0449 0.20198,-0.0775 1.92382,-2.42683 1.92382,-2.625 0,-0.22431 -1.40135,-0.71647 -1.88086,-0.70703 z m -1.09375,0.0918 c -0.44758,0.056 -1.77148,0.76057 -1.77148,0.99023 0,0.11963 1.3994,1.61828 1.90429,2.03907 0.20753,0.17295 0.41039,0.31445 0.44922,0.31445 0.0488,0 0.0566,-0.17161 0.0254,-0.55664 -0.0573,-0.70642 -0.39936,-2.69038 -0.47656,-2.76758 -0.0217,-0.0217 -0.0669,-0.0275 -0.13086,-0.0195 z m 3.58594,1.14648 c -0.0469,0.0106 -0.4715,0.38424 -0.94336,0.83008 -0.83324,0.78729 -1.35937,1.37307 -1.35937,1.51367 0,0.098 0.82691,0.0245 2.06445,-0.18359 1.35047,-0.22709 1.32742,-0.21668 1.24414,-0.52734 -0.17907,-0.66799 -0.80209,-1.67879 -1.00586,-1.63282 z m -5.88086,0.50782 c -0.21621,0 -0.82499,1.65259 -0.68945,1.87109 0.0163,0.0262 0.74921,0.0537 1.6289,0.0625 1.24321,0.0125 1.59978,-0.001 1.59961,-0.0644 -4.7e-4,-0.15861 -2.32427,-1.86914 -2.53906,-1.86914 z m 5.71289,2.11914 c -1.31548,-0.0419 -2.00696,0.004 -2.05078,0.13671 -0.0299,0.0903 0.7598,0.72606 1.85742,1.49415 0.69409,0.4857 0.76786,0.52281 0.86914,0.43164 0.25181,-0.22667 0.71195,-1.68232 0.61328,-1.93946 -0.0236,-0.0614 -0.35979,-0.0934 -1.28906,-0.12304 z m -2.2793,0.41601 c -0.0462,0 -0.0571,0.18064 -0.0312,0.54688 0.043,0.61 0.34398,2.46528 0.43555,2.68554 0.0537,0.12908 0.0819,0.13446 0.30664,0.0742 0.61537,-0.16496 1.64649,-0.77753 1.64649,-0.97851 0,-0.18567 -2.1695,-2.32813 -2.35743,-2.32813 z m -0.4414,0.0762 c -0.0468,0.0109 -0.1084,0.0702 -0.1875,0.15821 -0.2276,0.25333 -1.56641,2.47354 -1.56641,2.59765 0,0.12598 0.43771,0.33944 0.99805,0.48633 0.52543,0.13774 0.79611,0.15929 0.85351,0.0664 0.0215,-0.0349 0.0442,-0.76851 0.0488,-1.62891 0.007,-1.31631 -0.006,-1.71239 -0.14648,-1.67968 z"/>
  <g transform="matrix(0.08251673,0,0,0.08251673,384.36621,506.66401)">
   <path style="fill:#e2e5e7;fill-opacity:1;stroke:none" d="M 26.958984 17.111328 L 7.90625 17.164062 L 17.457031 33.689453 L 26.958984 17.111328 z" transform="matrix(12.118755,0,0,12.118755,2.4870108,-83.20749)"/>
   <path style="fill:#e2e5e7;fill-opacity:1;stroke:none" d="M 16.419922 26.832031 L 16.419922 43.351562 L 18.496094 43.351562 L 18.496094 26.832031 L 16.419922 26.832031 z" transform="matrix(12.118755,0,0,12.118755,2.4870108,-83.20749)"/>
   <path style="fill:#e2e5e7;fill-opacity:1;stroke:none" d="M 12.521484 43.316406 L 12.521484 44.091797 L 22.322266 44.091797 L 22.322266 43.316406 L 12.521484 43.316406 z" transform="matrix(12.118755,0,0,12.118755,2.4870108,-83.20749)"/>
  </g>
  <path style="fill:#eb8923;fill-opacity:1" d="m 395.03266,518.24667 c -0.008,0.0145 -0.007,0.0315 -0.002,0.0518 0.0582,0.24826 4.19583,7.54165 5.10571,9.00016 0.49934,0.80039 1.05402,1.45294 1.41568,1.66541 0.31799,0.18682 0.68214,0.2014 0.99794,0.0374 0.34485,-0.17909 1.02653,-0.97043 1.52141,-1.76609 0.85703,-1.37794 5.03575,-8.73836 5.0722,-8.934 0.005,-0.0241 -0.0171,-0.0407 -0.0696,-0.0547 l -14.04074,0 z"/>
  <path style="fill:#48b19b;fill-opacity:1;stroke:none" d="m 395.77972,511.25945 5.80277,16.38541 -5.07105,-16.41606 z"/>
  <path style="fill:#48b19b;fill-opacity:1;stroke:#48b19b;stroke-width:0.56111383;stroke-miterlimit:4;stroke-dasharray:none;stroke-dashoffset:0;stroke-opacity:1" d="m 544.02856,-349.84555 a 0.73553276,0.73553276 0 0 1 -0.63844,0.7291 0.73553276,0.73553276 0 0 1 -0.80699,-0.53662 0.73553276,0.73553276 0 0 1 0.42539,-0.87076 0.73553276,0.73553276 0 0 1 0.9193,0.30673 l -0.63479,0.37155 z" transform="matrix(0.08743945,0.99616984,-0.99616984,0.08743945,0,0)"/>
  <path style="fill:#eb8923;fill-opacity:1;stroke:none" d="M 12.501953 12.042969 A 1.8428394 1.8428394 0 0 0 10.658203 13.884766 A 1.8428394 1.8428394 0 0 0 12.501953 15.728516 A 1.8428394 1.8428394 0 0 0 14.34375 13.884766 A 1.8428394 1.8428394 0 0 0 12.501953 12.042969 z" transform="translate(384.57143,499.798)"/>
  <path style="fill:#ecad6b;fill-opacity:1;stroke:none" d="m 406.26253,518.246 -3.28322,8.74513 5.15037,-8.75569 z"/>
 </g>
</svg>
