<?xml version="1.0" encoding="UTF-8" standalone="no"?>
<svg xmlns="http://www.w3.org/2000/svg" xmlns:xlink="http://www.w3.org/1999/xlink" width="48" height="48" version="1.1">
 <defs>
  <linearGradient id="linearGradient4295">
   <stop style="stop-color:#000000;stop-opacity:1;" offset="0"/>
   <stop style="stop-color:#000000;stop-opacity:0;" offset="1"/>
  </linearGradient>
  <linearGradient id="linearGradient4227">
   <stop style="stop-color:#ffdc69;stop-opacity:1" offset="0"/>
   <stop style="stop-color:#ffffff;stop-opacity:1" offset="1"/>
  </linearGradient>
  <linearGradient id="linearGradient4202">
   <stop style="stop-color:#f8c04a;stop-opacity:1" offset="0"/>
   <stop style="stop-color:#ffe877;stop-opacity:1" offset="1"/>
  </linearGradient>
  <linearGradient xlink:href="#linearGradient4202" id="linearGradient4208" x1="420.182" y1="542.221" x2="404.176" y2="504.452" gradientUnits="userSpaceOnUse" gradientTransform="translate(-384.57143,-499.798)"/>
  <linearGradient xlink:href="#linearGradient4227" id="linearGradient4233" x1="35.051" y1="44.542" x2="22" y2="10" gradientUnits="userSpaceOnUse" gradientTransform="translate(0,-2.0000604)"/>
  <linearGradient xlink:href="#linearGradient4295" id="linearGradient4301" x1="17" y1="15" x2="34.519" y2="32.519" gradientUnits="userSpaceOnUse"/>
 </defs>
 <path d="M 24,4 C 12.91981,4 4,12.91936 4,23.99902 4,35.07867 12.91981,44 24,44 35.0802,44 44,35.07867 44,23.99902 44,12.91936 35.0802,4 24,4 Z" style="opacity:1;fill:url(#linearGradient4208);fill-opacity:1;stroke-width:2.79999995;stroke-opacity:0.55026502"/>
 <path d="M 4.0117188,23.498047 C 4.0076471,23.6649 4,23.830178 4,23.998047 4,35.077697 12.91981,44 24,44 35.0802,44 44,35.077697 44,23.998047 44,23.830178 43.9924,23.6649 43.98828,23.498047 43.724105,34.344331 34.91264,43 24,43 13.08737,43 4.2758954,34.344331 4.0117188,23.498047 Z" style="opacity:0.15;fill:#000000;fill-opacity:1;stroke-width:2.79999995;stroke-opacity:0.55026502"/>
 <path style="opacity:0.2;fill:url(#linearGradient4301);fill-opacity:1;stroke:none;stroke-width:2;stroke-linecap:butt;stroke-linejoin:miter;stroke-miterlimit:4;stroke-dasharray:none;stroke-opacity:1" d="M 23.984375 7.9765625 L 23.447266 11.097656 L 17.412109 19.941406 L 16.158203 18.808594 L 11 21.001953 L 14.380859 24.382812 L 14.164062 24.699219 L 13.046875 33.994141 L 23.029297 43.976562 C 23.350708 43.991771 23.674693 44 24 44 C 33.829617 44 41.954214 36.976735 43.664062 27.65625 L 23.984375 7.9765625 z"/>
 <path style="fill:url(#linearGradient4233);fill-opacity:1;stroke:none;enable-background:new" d="M 24 8 L 11 21 L 13 21 L 13 34 L 35 34 L 35 21 L 37 21 L 24 8 z M 23 16 L 25 16 L 25 18 C 26.130882 18.000022 27.568937 18.000069 28 18 L 28 20 C 27.568939 20.000069 26.130955 20.000022 25 20 L 25 21.984375 C 25.473064 21.996165 25.962696 22.053255 26.466797 22.271484 C 26.908879 22.462862 27.346074 22.815217 27.619141 23.298828 C 27.892207 23.782486 28.005859 24.35457 28.005859 25 L 28.005859 25.001953 C 28.004159 25.585386 27.938349 26.095373 27.728516 26.564453 C 27.518679 27.033534 27.126168 27.430349 26.697266 27.644531 C 26.145304 27.920115 25.584428 27.974763 25 27.988281 L 25 30 L 23 30 L 23 28 L 20 28 L 20 26 L 23 26 L 23 24.015625 C 22.533226 24.003385 22.050004 23.944925 21.552734 23.730469 C 21.111035 23.539978 20.672618 23.188614 20.400391 22.705078 C 20.130017 22.224835 20.01925 21.656172 20.019531 21.017578 C 20.010031 20.505846 19.980541 19.613617 20.666016 18.921875 C 21.198826 18.384193 21.946934 18.132014 23 18.042969 L 23 16 z M 23 20.064453 C 22.389083 20.148493 22.127269 20.290367 22.087891 20.330078 C 22.031381 20.387108 22.008478 20.491866 22.017578 20.990234 L 22.017578 21.001953 L 22.017578 21.011719 C 22.016378 21.418218 22.090948 21.627486 22.144531 21.722656 C 22.198111 21.817816 22.226631 21.843181 22.345703 21.894531 C 22.468714 21.947561 22.703532 21.979711 23 21.996094 L 23 20.064453 z M 25 24.003906 L 25 25.962891 C 25.409542 25.935001 25.719758 25.897881 25.804688 25.855469 C 25.876537 25.819589 25.860494 25.841609 25.902344 25.748047 C 25.943974 25.654967 26.004059 25.412899 26.005859 25 C 26.005859 24.591834 25.931939 24.37864 25.876953 24.28125 C 25.821963 24.18386 25.792063 24.159452 25.671875 24.107422 C 25.545839 24.052853 25.30325 24.02083 25 24.003906 z"/>
</svg>
