<svg width="48" xmlns="http://www.w3.org/2000/svg" height="48" xmlns:xlink="http://www.w3.org/1999/xlink">
 <defs>
  <linearGradient id="a" y1="44" y2="4" gradientUnits="userSpaceOnUse" x2="0" gradientTransform="translate(0 1004.36)">
   <stop stop-color="#63984b"/>
   <stop offset="1" stop-color="#8fc278"/>
  </linearGradient>
  <linearGradient id="b" y1="11" x1="17" y2="41" gradientUnits="userSpaceOnUse" x2="44" gradientTransform="translate(0 1004.36)">
   <stop/>
   <stop offset="1" stop-opacity="0"/>
  </linearGradient>
  <linearGradient id="c" y1="1003.36" y2="1027.36" x1="-93" x2="-70" gradientUnits="userSpaceOnUse">
   <stop stop-color="#292c2f"/>
   <stop offset="1" stop-opacity="0"/>
  </linearGradient>
  <linearGradient id="d" x1="-50" x2="-22.15" gradientUnits="userSpaceOnUse">
   <stop stop-color="#7cbaf8"/>
   <stop offset="1" stop-color="#f4fcff"/>
  </linearGradient>
  <linearGradient xlink:href="#d" id="e" y1="1040.36" y2="1014.36" gradientUnits="userSpaceOnUse" x2="0" gradientTransform="translate(-.148)"/>
  <linearGradient id="f" y1="1043.36" y2="1012.36" x2="0" gradientUnits="userSpaceOnUse" gradientTransform="translate(60)">
   <stop stop-color="#197cf1"/>
   <stop offset="1" stop-color="#20bcfa"/>
  </linearGradient>
  <linearGradient xlink:href="#d" id="g" y1="37" y2="10" x2="0" gradientUnits="userSpaceOnUse" gradientTransform="translate(60 1004.36)"/>
 </defs>
 <g transform="translate(0-1004.36)">
  <g fill-rule="evenodd">
   <path fill="#dce269" d="m4 1008.36v9l3 2-3 2v27h40v-40z"/>
   <path fill="url(#a)" d="m4 1008.36v8l3 2-3 2v27h40v-39z"/>
  </g>
  <g color="#000000">
   <path d="m9 1044.36v1h1v-1zm1 1v1h1v-1zm1 0h1v-1h-1zm1 0v1h1v-1zm1 0h1v-1h-1zm1 0v1h1v-1zm1 0h1v-1h-1zm1 0v1h1v-1zm1 0h1v-1h-1zm1 0v1h1v-1zm1 0h1v-1h-1zm1 0v1h1v-1zm1 0h1v-1h-1zm1 0v1h1v-1zm1 0h1v-1h-1zm1 0v1h1v-1z"/>
   <path d="m35 1044.36v1h1v-1zm1 1v1h1v-1zm1 0h1v-1h-1zm1 0v1h1v-1zm1 0h1v-1h-1zm-4 0h-1v1h1z"/>
  </g>
  <path fill="#e6ea97" fill-rule="evenodd" d="m43 1044.36l-2 2h2z"/>
  <path color="#000000" d="m42 1013.36v1h1v-1zm0 1h-1v1h1zm0 1v1h1v-1zm0 1h-1v1h1zm0 1v1h1v-1zm0 1h-1v1h1zm0 1v1h1v-1zm0 1h-1v1h1zm0 1v1h1v-1zm0 1h-1v1h1zm0 1v1h1v-1zm0 1h-1v1h1zm0 1v1h1v-1zm0 1h-1v1h1zm0 1v1h1v-1zm0 1h-1v1h1z"/>
  <g fill-rule="evenodd">
   <path opacity=".2" fill="url(#b)" d="m40 1012.36v31h-32l4.584 5h31.416v-32z"/>
   <rect width="32" x="8" y="1012.36" fill="url(#f)" height="31"/>
   <rect width="32" x="8" y="1042.36" fill="#1c5593" height="1"/>
   <path opacity=".2" fill="url(#c)" d="m-80 1007.36h-4l4 4v9h-4l5 5h11v-10l-12-12z" transform="translate(106 16)"/>
   <g fill="url(#e)" transform="translate(60.15)">
    <path d="m-38.15 1019.36v4h4v-4z"/>
    <path d="m-38.15 1025.36v11h4v-11z"/>
   </g>
  </g>
  <path fill="url(#g)" stroke-linejoin="round" stroke-width=".5" d="m24 1014.3622a14 13.5 0 0 0 -14 13.5 14 13.5 0 0 0 14 13.5 14 13.5 0 0 0 14 -13.5 14 13.5 0 0 0 -14 -13.5m0 1.9277a12 11.571428 0 0 1 12 11.5723 12 11.571428 0 0 1 -12 11.5723 12 11.571428 0 0 1 -12 -11.5723 12 11.571428 0 0 1 12 -11.5723"/>
 </g>
</svg>
