<?xml version="1.0" encoding="UTF-8" standalone="no"?>
<svg xmlns="http://www.w3.org/2000/svg" xmlns:xlink="http://www.w3.org/1999/xlink" width="48" height="48" version="1.1">
 <defs>
  <linearGradient id="linearGradient4416">
   <stop style="stop-color:#ffffff;stop-opacity:0" offset="0"/>
   <stop style="stop-color:#ffffff;stop-opacity:1" offset="1"/>
  </linearGradient>
  <linearGradient id="b" y1="23.775" x1="22.54" y2="44.054" x2="42.646" gradientUnits="userSpaceOnUse" gradientTransform="translate(30,0)">
   <stop stop-color="#292c2f"/>
   <stop offset="1" stop-color="#292c2f" stop-opacity="0"/>
  </linearGradient>
  <linearGradient xlink:href="#b" id="linearGradient4384" gradientUnits="userSpaceOnUse" gradientTransform="translate(30,0)" x1="-21.261" y1="13.899" x2="10.555" y2="48.902"/>
  <linearGradient xlink:href="#b" id="linearGradient4412" gradientUnits="userSpaceOnUse" gradientTransform="translate(30,0)" x1="-7.283" y1="15.656" x2="11.881" y2="33.523"/>
  <linearGradient xlink:href="#linearGradient4416" id="linearGradient4422" x1="-30.501" y1="28.25" x2="-10.501" y2="7.875" gradientUnits="userSpaceOnUse"/>
 </defs>
 <g>
  <rect style="color:#000000;clip-rule:nonzero;display:inline;overflow:visible;visibility:visible;opacity:1;isolation:auto;mix-blend-mode:normal;color-interpolation:sRGB;color-interpolation-filters:linearRGB;solid-color:#000000;solid-opacity:1;fill:#1dc979;fill-opacity:1;fill-rule:nonzero;stroke-width:1;stroke-linecap:butt;stroke-linejoin:miter;stroke-miterlimit:4;stroke-dasharray:none;stroke-dashoffset:0;stroke-opacity:1;color-rendering:auto;image-rendering:auto;shape-rendering:auto;text-rendering:auto;enable-background:accumulate" transform="scale(-1,1)" height="40" rx="20" y="4" x="-44" width="40"/>
  <path d="m 4.0105,23.50001 c -0.004,0.167 -0.012,0.332 -0.012,0.5 0,11.08 8.92,20 20,20 11.08,0 20,-8.92 20,-20 0,-0.168 -0.008,-0.333 -0.012,-0.5 -0.264,10.847 -9.08,19.5 -19.988,19.5 -10.912,0 -19.724,-8.653 -19.988,-19.5" style="opacity:0.3;fill:#161e25;stroke-width:2.79999995;stroke-opacity:0.55"/>
  <path style="opacity:0.3;fill:#ffffff;fill-opacity:1;stroke-width:2.79999995;stroke-opacity:0.55" d="m 4.0105,24.496364 c -0.004,-0.167 -0.012,-0.332 -0.012,-0.5 0,-11.08 8.92,-20.0000005 20,-20.0000005 11.08,0 20,8.9200005 20,20.0000005 0,0.168 -0.008,0.333 -0.012,0.5 -0.264,-10.847 -9.08,-19.5000005 -19.988,-19.5000005 -10.912,0 -19.724,8.6530005 -19.988,19.5000005"/>
  <path d="m 27.390709,12.269322 a 3.363519,3.363519 0 0 1 -0.502788,1.711949 l 4.947686,2.859418 a 3.3505631,3.3505631 0 0 1 0.931548,-1.465181 l -5.376446,-3.106186 z m -6.721328,0.05244 -5.404206,3.121608 a 3.3505631,3.3505631 0 0 1 0.863686,1.425082 l 5.027885,-2.905686 A 3.363519,3.363519 0 0 1 20.669381,12.32176 Z m -6.773767,8.720144 a 3.3505631,3.3505631 0 0 1 -0.971646,0.144981 3.3505631,3.3505631 0 0 1 -0.592242,-0.05243 l 0,6.058141 a 3.3505631,3.3505631 0 0 1 0.592242,-0.05553 3.3505631,3.3505631 0 0 1 0.971646,0.144981 l 0,-6.240132 z m 20.219508,0.01548 0,6.209286 a 3.3505631,3.3505631 0 0 1 0.919209,-0.129551 3.3505631,3.3505631 0 0 1 0.783487,0.09871 l 0,-6.144509 a 3.3505631,3.3505631 0 0 1 -0.783487,0.09563 3.3505631,3.3505631 0 0 1 -0.919209,-0.129551 z M 16.205975,31.16554 a 3.3505631,3.3505631 0 0 1 -0.65085,1.39115 l 5.132763,2.964294 a 3.3505631,3.3505631 0 0 1 0.515127,-1.468265 l -4.99704,-2.887179 z m 15.555602,0.02776 -4.92301,2.843994 a 3.3505631,3.3505631 0 0 1 0.524381,1.542297 l 5.101917,-2.945787 A 3.3505631,3.3505631 0 0 1 31.761577,31.1933 Z" style="color:#000000;clip-rule:nonzero;display:inline;overflow:visible;visibility:visible;opacity:0.5;isolation:auto;mix-blend-mode:normal;color-interpolation:sRGB;color-interpolation-filters:linearRGB;solid-color:#000000;solid-opacity:1;fill:#ffffff;fill-opacity:1;fill-rule:nonzero;stroke:none;stroke-width:0.63318729;stroke-linecap:butt;stroke-linejoin:miter;stroke-miterlimit:4;stroke-dasharray:none;stroke-dashoffset:0;stroke-opacity:1;marker:none;color-rendering:auto;image-rendering:auto;shape-rendering:auto;text-rendering:auto;enable-background:accumulate"/>
  <path d="m 23.957557,9.6875179 a 2.3689674,2.3689674 0 0 0 -2.368967,2.3689671 2.3689674,2.3689674 0 0 0 2.368967,2.368968 2.3689674,2.3689674 0 0 0 2.368968,-2.368968 2.3689674,2.3689674 0 0 0 -2.368968,-2.3689671 z m -0.05553,1.5793121 a 0.7896558,0.7896558 0 0 1 0.05553,0 0.7896558,0.7896558 0 0 1 0.789656,0.789655 0.7896558,0.7896558 0 0 1 -0.789656,0.789656 0.7896558,0.7896558 0 0 1 -0.789656,-0.789656 0.7896558,0.7896558 0 0 1 0.734134,-0.789655 z" style="color:#000000;clip-rule:nonzero;display:inline;overflow:visible;visibility:visible;opacity:0.5;isolation:auto;mix-blend-mode:normal;color-interpolation:sRGB;color-interpolation-filters:linearRGB;solid-color:#000000;solid-opacity:1;fill:#ffffff;fill-opacity:1;fill-rule:nonzero;stroke:none;stroke-width:0.63318729;stroke-linecap:butt;stroke-linejoin:miter;stroke-miterlimit:4;stroke-dasharray:none;stroke-dashoffset:0;stroke-opacity:1;marker:none;color-rendering:auto;image-rendering:auto;shape-rendering:auto;text-rendering:auto;enable-background:accumulate"/>
  <path style="color:#000000;clip-rule:nonzero;display:inline;overflow:visible;visibility:visible;opacity:0.5;isolation:auto;mix-blend-mode:normal;color-interpolation:sRGB;color-interpolation-filters:linearRGB;solid-color:#000000;solid-opacity:1;fill:#ffffff;fill-opacity:1;fill-rule:nonzero;stroke:none;stroke-width:0.63318729;stroke-linecap:butt;stroke-linejoin:miter;stroke-miterlimit:4;stroke-dasharray:none;stroke-dashoffset:0;stroke-opacity:1;marker:none;color-rendering:auto;image-rendering:auto;shape-rendering:auto;text-rendering:auto;enable-background:accumulate" d="m 35.055181,28.043956 a 2.3689674,2.3689674 0 0 0 -2.368968,2.368967 2.3689674,2.3689674 0 0 0 2.368968,2.368968 2.3689674,2.3689674 0 0 0 2.368967,-2.368968 2.3689674,2.3689674 0 0 0 -2.368967,-2.368967 z m -0.05553,1.579312 a 0.7896558,0.7896558 0 0 1 0.05553,0 0.7896558,0.7896558 0 0 1 0.789656,0.789655 0.7896558,0.7896558 0 0 1 -0.789656,0.789656 0.7896558,0.7896558 0 0 1 -0.789656,-0.789656 0.7896558,0.7896558 0 0 1 0.734133,-0.789655 z"/>
  <path d="m 33.437502,19.562499 9.65625,9.46875 0.875,-5.8125 -7.34375,-7.218751 -2.625,0.40625 z" style="color:#000000;clip-rule:nonzero;display:inline;overflow:visible;visibility:visible;opacity:0.21000001;isolation:auto;mix-blend-mode:normal;color-interpolation:sRGB;color-interpolation-filters:linearRGB;solid-color:#000000;solid-opacity:1;fill:url(#linearGradient4412);fill-opacity:1;fill-rule:nonzero;stroke:none;stroke-width:1;stroke-linecap:butt;stroke-linejoin:miter;stroke-miterlimit:4;stroke-dasharray:none;stroke-dashoffset:0;stroke-opacity:1;color-rendering:auto;image-rendering:auto;shape-rendering:auto;text-rendering:auto;enable-background:accumulate"/>
  <path d="m 35.055181,15.39288 a 2.3689674,2.3689674 0 0 0 -2.368968,2.368968 2.3689674,2.3689674 0 0 0 2.368968,2.368967 2.3689674,2.3689674 0 0 0 2.368967,-2.368967 2.3689674,2.3689674 0 0 0 -2.368967,-2.368968 z m -0.05553,1.579312 a 0.7896558,0.7896558 0 0 1 0.05553,0 0.7896558,0.7896558 0 0 1 0.789656,0.789656 0.7896558,0.7896558 0 0 1 -0.789656,0.789656 0.7896558,0.7896558 0 0 1 -0.789656,-0.789656 0.7896558,0.7896558 0 0 1 0.734133,-0.789656 z" style="color:#000000;clip-rule:nonzero;display:inline;overflow:visible;visibility:visible;opacity:1;isolation:auto;mix-blend-mode:normal;color-interpolation:sRGB;color-interpolation-filters:linearRGB;solid-color:#000000;solid-opacity:1;fill:#ffffff;fill-opacity:1;fill-rule:nonzero;stroke:none;stroke-width:0.63318729;stroke-linecap:butt;stroke-linejoin:miter;stroke-miterlimit:4;stroke-dasharray:none;stroke-dashoffset:0;stroke-opacity:1;marker:none;color-rendering:auto;image-rendering:auto;shape-rendering:auto;text-rendering:auto;enable-background:accumulate"/>
  <path d="m 12.944818,28.043956 a 2.3689674,2.3689674 0 0 0 -2.368967,2.368967 2.3689674,2.3689674 0 0 0 2.368967,2.368968 2.3689674,2.3689674 0 0 0 2.368968,-2.368968 2.3689674,2.3689674 0 0 0 -2.368968,-2.368967 z m -0.05553,1.579312 a 0.7896558,0.7896558 0 0 1 0.05553,0 0.7896558,0.7896558 0 0 1 0.789656,0.789655 0.7896558,0.7896558 0 0 1 -0.789656,0.789656 0.7896558,0.7896558 0 0 1 -0.789655,-0.789656 0.7896558,0.7896558 0 0 1 0.734133,-0.789655 z" style="color:#000000;clip-rule:nonzero;display:inline;overflow:visible;visibility:visible;opacity:0.5;isolation:auto;mix-blend-mode:normal;color-interpolation:sRGB;color-interpolation-filters:linearRGB;solid-color:#000000;solid-opacity:1;fill:#ffffff;fill-opacity:1;fill-rule:nonzero;stroke:none;stroke-width:0.63318729;stroke-linecap:butt;stroke-linejoin:miter;stroke-miterlimit:4;stroke-dasharray:none;stroke-dashoffset:0;stroke-opacity:1;marker:none;color-rendering:auto;image-rendering:auto;shape-rendering:auto;text-rendering:auto;enable-background:accumulate"/>
  <path d="m 14.578125,16.0625 -3.015625,0.34375 -0.34375,2.96875 7.181641,7.166016 3.144531,7.117187 1.457031,1.453125 -0.949219,2.238281 5.300782,5.378907 c 1.077417,-0.194333 1.90878,-0.421918 2.634765,-0.648438 l 0.01953,0.01953 0.142579,-0.06836 c 1.103785,-0.355334 1.877499,-0.706 2.376953,-0.925781 2.038888,-0.749487 3.676725,-2.301075 5.377788,-3.726211 4.211162,-4.606789 3.732208,-5.360983 4.956197,-7.514023 L 33.888672,20.937499 28.125,29.4375 Z" style="color:#000000;clip-rule:nonzero;display:inline;overflow:visible;visibility:visible;opacity:0.21000001;isolation:auto;mix-blend-mode:normal;color-interpolation:sRGB;color-interpolation-filters:linearRGB;solid-color:#000000;solid-opacity:1;fill:url(#linearGradient4384);fill-opacity:1;fill-rule:nonzero;stroke:none;stroke-width:1;stroke-linecap:butt;stroke-linejoin:miter;stroke-miterlimit:4;stroke-dasharray:none;stroke-dashoffset:0;stroke-opacity:1;color-rendering:auto;image-rendering:auto;shape-rendering:auto;text-rendering:auto;enable-background:accumulate"/>
  <path style="color:#000000;clip-rule:nonzero;display:inline;overflow:visible;visibility:visible;opacity:1;isolation:auto;mix-blend-mode:normal;color-interpolation:sRGB;color-interpolation-filters:linearRGB;solid-color:#000000;solid-opacity:1;fill:#ffffff;fill-opacity:1;fill-rule:nonzero;stroke:none;stroke-width:0.63318729;stroke-linecap:butt;stroke-linejoin:miter;stroke-miterlimit:4;stroke-dasharray:none;stroke-dashoffset:0;stroke-opacity:1;marker:none;color-rendering:auto;image-rendering:auto;shape-rendering:auto;text-rendering:auto;enable-background:accumulate" d="m 12.944818,15.39288 a 2.3689674,2.3689674 0 0 0 -2.368967,2.368968 2.3689674,2.3689674 0 0 0 2.368967,2.368967 2.3689674,2.3689674 0 0 0 2.368968,-2.368967 2.3689674,2.3689674 0 0 0 -2.368968,-2.368968 z m -0.05553,1.579312 a 0.7896558,0.7896558 0 0 1 0.05553,0 0.7896558,0.7896558 0 0 1 0.789656,0.789656 0.7896558,0.7896558 0 0 1 -0.789656,0.789656 0.7896558,0.7896558 0 0 1 -0.789655,-0.789656 0.7896558,0.7896558 0 0 1 0.734133,-0.789656 z"/>
  <path style="color:#000000;clip-rule:nonzero;display:inline;overflow:visible;visibility:visible;opacity:1;isolation:auto;mix-blend-mode:normal;color-interpolation:sRGB;color-interpolation-filters:linearRGB;solid-color:#000000;solid-opacity:1;fill:#ffffff;fill-opacity:1;fill-rule:nonzero;stroke:none;stroke-width:0.63318729;stroke-linecap:butt;stroke-linejoin:miter;stroke-miterlimit:4;stroke-dasharray:none;stroke-dashoffset:0;stroke-opacity:1;marker:none;color-rendering:auto;image-rendering:auto;shape-rendering:auto;text-rendering:auto;enable-background:accumulate" d="m 23.957557,33.574547 a 2.3689674,2.3689674 0 0 0 -2.368967,2.368968 2.3689674,2.3689674 0 0 0 2.368967,2.368967 2.3689674,2.3689674 0 0 0 2.368968,-2.368967 2.3689674,2.3689674 0 0 0 -2.368968,-2.368968 z m -0.05553,1.579312 a 0.7896558,0.7896558 0 0 1 0.05553,0 0.7896558,0.7896558 0 0 1 0.789656,0.789656 0.7896558,0.7896558 0 0 1 -0.789656,0.789655 0.7896558,0.7896558 0 0 1 -0.789656,-0.789655 0.7896558,0.7896558 0 0 1 0.734134,-0.789656 z"/>
  <path d="m 15.49035,19.993143 a 3.3505631,3.3505631 0 0 1 -1.283191,0.934632 l 7.325908,12.690015 a 3.3505631,3.3505631 0 0 1 1.304783,-0.894531 l -7.3475,-12.730116 z" style="color:#000000;clip-rule:nonzero;display:inline;overflow:visible;visibility:visible;opacity:1;isolation:auto;mix-blend-mode:normal;color-interpolation:sRGB;color-interpolation-filters:linearRGB;solid-color:#000000;solid-opacity:1;fill:#ffffff;fill-opacity:1;fill-rule:nonzero;stroke:none;stroke-width:0.63318729;stroke-linecap:butt;stroke-linejoin:miter;stroke-miterlimit:4;stroke-dasharray:none;stroke-dashoffset:0;stroke-opacity:1;marker:none;color-rendering:auto;image-rendering:auto;shape-rendering:auto;text-rendering:auto;enable-background:accumulate"/>
  <path d="m 32.523472,20.05175 -7.316654,12.674593 a 3.3505631,3.3505631 0 0 1 1.307867,0.894532 L 33.82517,20.955536 A 3.3505631,3.3505631 0 0 1 32.523472,20.05175 Z" style="color:#000000;clip-rule:nonzero;display:inline;overflow:visible;visibility:visible;opacity:1;isolation:auto;mix-blend-mode:normal;color-interpolation:sRGB;color-interpolation-filters:linearRGB;solid-color:#000000;solid-opacity:1;fill:#ffffff;fill-opacity:1;fill-rule:nonzero;stroke:none;stroke-width:0.63318729;stroke-linecap:butt;stroke-linejoin:miter;stroke-miterlimit:4;stroke-dasharray:none;stroke-dashoffset:0;stroke-opacity:1;marker:none;color-rendering:auto;image-rendering:auto;shape-rendering:auto;text-rendering:auto;enable-background:accumulate"/>
  <rect width="40" x="-44" y="4" rx="20" height="40" transform="scale(-1,1)" style="color:#000000;clip-rule:nonzero;display:inline;overflow:visible;visibility:visible;opacity:0.45;isolation:auto;mix-blend-mode:normal;color-interpolation:sRGB;color-interpolation-filters:linearRGB;solid-color:#000000;solid-opacity:1;fill:url(#linearGradient4422);fill-opacity:1;fill-rule:nonzero;stroke-width:1;stroke-linecap:butt;stroke-linejoin:miter;stroke-miterlimit:4;stroke-dasharray:none;stroke-dashoffset:0;stroke-opacity:1;color-rendering:auto;image-rendering:auto;shape-rendering:auto;text-rendering:auto;enable-background:accumulate"/>
 </g>
</svg>
