<svg width="48" height="48" viewBox="0 0 12.7 12.7" xmlns="http://www.w3.org/2000/svg">
    <linearGradient id="a" x1="24" x2="24" y1="294" y2="257" gradientTransform="matrix(.26458337 0 0 .25852708 -2e-6 -64.355077)" gradientUnits="userSpaceOnUse">
        <stop stop-color="#1d99f3" offset="0"/>
        <stop stop-color="#3daee9" offset="1"/>
    </linearGradient>
    <linearGradient id="b" x1="24" x2="24" y1="294" y2="257" gradientTransform="matrix(1.0000001 0 0 .97711022 -7e-6 -243.23179)" gradientUnits="userSpaceOnUse">
        <stop stop-color="#27ae60" offset="0"/>
        <stop stop-color="#2ecc71" offset="1"/>
    </linearGradient>
    <linearGradient id="c" x1="120.39682" x2="120.34652" y1="23.021145" y2="32.414047" gradientTransform="matrix(1.3776 .37578202 -.46370298 1.7617644 -116.71956 -68.71002)" gradientUnits="userSpaceOnUse">
        <stop stop-color="#bdc3c7" offset="0"/>
        <stop stop-color="#fff" offset="1"/>
    </linearGradient>
    <linearGradient id="d" x1="119.85059" x2="119.85059" y1="27.383589" y2="33.01519" gradientTransform="matrix(.36448999 .09942566 -.12268808 .46613349 -30.882051 -18.179526)" gradientUnits="userSpaceOnUse">
        <stop stop-color="#7f8c8d" offset="0"/>
        <stop stop-color="#95a5a6" offset="1"/>
    </linearGradient>
    <linearGradient id="e" x1="112.7049" x2="112.7049" y1="30.894091" y2="32.711887" gradientTransform="matrix(.36448999 .09942566 -.12268808 .46613349 -30.882051 -18.179526)" gradientUnits="userSpaceOnUse">
        <stop stop-color="#2c3e50" offset="0"/>
        <stop stop-color="#34495e" offset="1"/>
    </linearGradient>
    <linearGradient id="f" x1="31" x2="31" y1="-21.230349" y2="36" gradientTransform="matrix(1.0000001 0 0 1.0009422 -7e-6 -.002826)" gradientUnits="userSpaceOnUse">
        <stop stop-color="#2980b9" offset="0"/>
        <stop stop-color="#3daee9" stop-opacity="0" offset="1"/>
    </linearGradient>
    <rect x="1.058333" y="1.058334" width="10.583333" height="10.583333" rx="1.586006" ry="1.5875" fill="#34495e" stroke-width=".264708"/>
    <rect x="1.058333" y="1.058334" width="10.583333" height="10.318749" rx="1.586006" ry="1.5875" fill="url(#a)" stroke-width=".264708"/>
    <path transform="scale(.26458333)" d="m30 7.0039062v1h-3v3.0039058h3l1 25.023438h13v-15.947266l-14-13.080078z" fill="url(#f)" stroke-width="1.000471"/>
    <path transform="scale(.26458333)" d="m4.0019531 37.03125c.0169102 3.309317 2.6818654 5.96875 5.9921875 5.96875h28.011718c3.310323 0 5.975278-2.659433 5.992188-5.96875h-39.996094z" fill="url(#b)" stroke-width="1.000471"/>
    <path transform="matrix(.07000435 0 0 .0700703 -2e-6 -.000748)" d="m86.929688 26.457031v3.779297h11.33789v11.337891h-18.898437v3.779297h-7.558594l7.558594 22.677734h-18.896485l11.337891 26.457031h11.339844v41.574219h34.015629v-41.574219h11.33789l11.33789-26.457031h-18.89649l7.5586-22.677734h-7.5586v-3.779297h-18.89843v-11.337891h11.33984v-3.779297z" fill="#2980b9"/>
    <path transform="scale(.26458333)" d="m12.589844 18.882812c-1.31411.046155-2.6146896.348246-3.7753909 1.074219-1.7553256 1.097893-4.5099022 1.067273-2.7617187 3.113281 2.6974983 3.157075 6.8557066 3.847408 10.66211 5.021485 6.315642 1.36154 12.475233 3.329061 18.707031 5.019531 2.241703.735305 5.456773.988142 8.578125 1.025391v-7.085938c-9.150195-2.753185-20.671599-6.036832-27.552734-7.708984-1.215764-.295439-2.543312-.505139-3.857422-.458985z" fill="url(#c)" stroke-width="1.612842"/>
    <path d="m5.717164 7.259701c-.0810626-.0221123-.1683313.043578-.1956163.1472428l-.1273086.4836885c-.027285.1036649.016029.2049749.097091.2270871l1.3337418.3638184c.068768.018759.1415181-.0261.178798-.1032928.121816.00733.2436582.014649.3654693.021983.0386542-.1274166.0773022-.2548099.1159562-.382226-.1099574-.0766369-.2199614-.15329-.3299187-.2299274-.000199-.0789481-.0398434-.1467028-.1040846-.1644498-.0000982-.0000278-.0002916-.0000796-.0003645-.0000995z" fill="url(#e)" stroke-width=".426731"/>
    <g transform="matrix(.36448999 .09942566 -.12268808 .46613349 -30.882051 -18.179526)" fill="#232629">
        <path d="m101.21759 28.533143c-.13528.0901-.26674.184668-.39067.288869-.0513.04317-.1063.08418-.16175.125058.54774.14773 1.06955.284673 1.62213.03152l.0615-.309025c-.4224-.02919-.83082-.06324-1.1312-.136424z"/>
        <rect x="105.44054" y="28.747101" width=".50766" height=".600459" rx=".25383"/>
        <rect x="106.49887" y="28.747101" width=".50766" height=".600459" rx=".25383"/>
        <rect x="107.55721" y="28.747101" width=".50766" height=".600459" rx=".25383"/>
        <rect x="108.61554" y="28.747101" width=".50766" height=".600459" rx=".25383"/>
        <rect x="109.67387" y="28.747101" width=".50766" height=".600459" rx=".25383"/>
        <rect x="110.73219" y="28.747101" width=".50766" height=".600459" rx=".25383"/>
        <rect x="111.79049" y="28.747101" width=".50766" height=".600459" rx=".25383"/>
        <rect x="112.84885" y="28.747101" width=".50766" height=".600459" rx=".25383"/>
        <rect x="113.90718" y="28.747101" width=".50766" height=".600459" rx=".25383"/>
        <rect x="114.96552" y="28.747101" width=".50766" height=".600459" rx=".25383"/>
        <rect x="116.02385" y="28.747101" width=".50766" height=".600459" rx=".25383"/>
        <rect x="117.08216" y="28.747101" width=".50766" height=".600459" rx=".25383"/>
        <rect x="118.14051" y="28.747101" width=".50766" height=".600459" rx=".25383"/>
        <rect x="119.19883" y="28.747101" width=".50766" height=".600459" rx=".25383"/>
        <rect x="120.25716" y="28.747101" width=".50766" height=".600459" rx=".25383"/>
        <rect x="121.31549" y="28.747101" width=".50766" height=".600459" rx=".25383"/>
        <rect x="122.37383" y="28.747101" width=".50766" height=".600459" rx=".25383"/>
        <rect x="123.43217" y="28.747101" width=".50766" height=".600459" rx=".25383"/>
        <rect x="124.49049" y="28.747101" width=".50766" height=".600459" rx=".25383"/>
        <rect x="125.54883" y="28.747101" width=".50766" height=".600459" rx=".25383"/>
    </g>
    <path d="m5.4731071 7.1931041 2.4394758.1579367 1.9655768.1218919 1.2813043-.8537429.243786.0664998-.804992 1.0491242-1.1498457.1717816-1.4679166-.0295252z" fill="url(#d)" opacity=".99" stroke-width=".426731"/>
    <path transform="scale(.26458333)" d="m4 36.03125v.96875c0 .353022.0358671.697228.09375 1.033203h39.8125c.057883-.335975.09375-.680181.09375-1.033203v-.96875z" fill="#34495e" stroke-width="1.000471"/>
</svg>
