<svg width="48" xmlns="http://www.w3.org/2000/svg" viewBox="0 0 48 48" height="48">
 <defs>
  <linearGradient id="a" y1="9" y2="-30" x2="0" gradientUnits="userSpaceOnUse">
   <stop stop-color="#f2a922"/>
   <stop offset="1" stop-color="#f3d23b"/>
  </linearGradient>
  <linearGradient id="b" y1="503.8" y2="543.8" x2="0" gradientUnits="userSpaceOnUse">
   <stop stop-color="#abf9c7"/>
   <stop offset="1" stop-color="#54d883"/>
  </linearGradient>
  <linearGradient id="c" y1="543.8" y2="503.8" gradientUnits="userSpaceOnUse" x2="0">
   <stop stop-color="#197cf1"/>
   <stop offset="1" stop-color="#20bcfa"/>
  </linearGradient>
 </defs>
 <g transform="translate(-384.57-499.8)">
  <rect width="40" x="388.57" y="503.8" fill="url(#c)" rx="20" height="40"/>
  <path fill="url(#b)" fill-rule="evenodd" d="m408.57 503.8c-1.452 0-2.864.16-4.227.451l-1.773 3.549-2.68-2.01c-4.806 2.311-8.529 6.472-10.254 11.584l3.934-1.574 3 2 1-3 13-7-.793-3.961c-.4-.024-.801-.039-1.207-.039m14.811 6.568l-.811 2.432 1 1-4 6 2 7 6.633.83c.239-1.239.367-2.519.367-3.83 0-3.425-.857-6.641-2.361-9.453l-1.639-.547.596-1.193c-.535-.794-1.144-1.531-1.785-2.238m-34.414 9.432c-.221 1.096-.346 2.227-.381 3.381l6.984 2.619-1-3-2-3zm6.604 6l5 12v4.338c2.449 1.065 5.151 1.662 8 1.662.199 0 .395-.008.592-.014l6.408-10.986-16-9z"/>
  <path opacity=".2" d="m388.62 523.3c-.004.17-.051.329-.051.5 0 11.08 8.92 20 20 20 11.08 0 20-8.92 20-20 0-.171-.046-.33-.051-.5-.03 1.206-.121 2.398-.354 3.541-.266 1.304-.657 2.561-1.162 3.758-.505 1.197-1.122 2.335-1.84 3.398-.717 1.064-1.536 2.053-2.439 2.957-.904.904-1.893 1.722-2.957 2.439-1.064.717-2.201 1.335-3.398 1.84-1.197.505-2.454.897-3.758 1.162-1.304.266-2.656.404-4.04.404-1.385 0-2.737-.139-4.04-.404-1.304-.266-2.561-.657-3.758-1.162-.599-.252-1.183-.533-1.75-.84-.567-.307-1.117-.641-1.648-1-1.064-.717-2.053-1.536-2.957-2.439-.904-.904-1.722-1.893-2.439-2.957-.717-1.064-1.335-2.201-1.84-3.398-.505-1.197-.897-2.454-1.162-3.758-.233-1.143-.323-2.335-.354-3.541"/>
  <g stroke-linejoin="round" stroke-width="2">
   <path fill="url(#a)" d="m82.14-24.14c-7.81-7.81-20.474-7.81-28.28 0-7.81 7.81-7.81 20.474 0 28.28 3.753 3.746 8.84 5.848 14.14 5.845v-3.997c-4.242.003-8.311-1.679-11.314-4.676-6.248-6.248-6.248-16.379 0-22.627 6.248-6.248 16.379-6.248 22.627 0 2.997 3 4.679 7.07 4.676 11.314l-3.991.003 6 7 6-7-4.01-.003c.004-5.302-2.099-10.389-5.845-14.14" transform="translate(340.57 533.8)"/>
   <path fill="#bd891a" d="m24 7.998c-4.095 0-8.19 1.561-11.314 4.686-3.252 3.252-4.795 7.554-4.662 11.814.122-3.927 1.665-7.817 4.662-10.814 6.248-6.248 16.379-6.248 22.627 0 2.76 2.765 4.386 6.438 4.627 10.314h.049c.003-4.242-1.679-8.312-4.676-11.314-3.124-3.124-7.218-4.686-11.313-4.686m-19.99 15.502c-.004.167-.012.332-.012.5 0 11.08 8.92 20 20 20v-1c-10.912 0-19.724-8.653-19.988-19.5m31.988.5v1l6 7 6-7v-1l-6 7z" transform="translate(384.57 499.8)"/>
  </g>
 </g>
</svg>
