<svg width="48" xmlns="http://www.w3.org/2000/svg" height="48" xmlns:xlink="http://www.w3.org/1999/xlink">
 <defs>
  <linearGradient id="a" y1="543.8" y2="503.8" x2="0" gradientUnits="userSpaceOnUse">
   <stop stop-color="#2a2c2f"/>
   <stop offset="1" stop-color="#424649"/>
  </linearGradient>
  <linearGradient id="b" y1="530.8" y2="516.8" gradientUnits="userSpaceOnUse" x2="0">
   <stop stop-color="#ee643a"/>
   <stop offset="1" stop-color="#fe9473"/>
  </linearGradient>
  <linearGradient xlink:href="#a" id="c" y1="-521.8" y2="-525.8" gradientUnits="userSpaceOnUse" x2="0"/>
  <linearGradient id="d" y1="523.8" x1="408.57" y2="537.8" x2="422.57" gradientUnits="userSpaceOnUse" gradientTransform="translate(-384.57-499.8)">
   <stop stop-color="#292c2f"/>
   <stop offset="1" stop-opacity="0"/>
  </linearGradient>
 </defs>
 <g transform="translate(-384.57-499.8)">
  <rect width="40" x="388.57" y="503.8" fill="url(#a)" rx="20" height="40"/>
  <path opacity=".4" fill="url(#d)" fill-rule="evenodd" d="m30 20l-11 9 13.229 13.229c4.439-1.998 8-5.561 10-10z" transform="translate(384.57 499.8)"/>
  <rect width="14" x="401.57" y="516.8" fill="url(#b)" rx="7" height="14"/>
  <rect width="4" x="406.57" y="-525.8" fill="url(#c)" rx="2" height="4" transform="scale(1-1)"/>
  <path fill="#ffffff" fill-opacity=".275" d="m24 18c-3.324 0-6 2.676-6 6 0 3.324 2.676 6 6 6 3.324 0 6-2.676 6-6 0-3.324-2.676-6-6-6m0 1c2.77 0 5 2.23 5 5 0 2.77-2.23 5-5 5-2.77 0-5-2.23-5-5 0-2.77 2.23-5 5-5" transform="translate(384.57 499.8)"/>
  <g fill="#4c5053">
   <path d="m418.07 507.34c-.971-.56-1.973-1-2.99-1.377l-3.465 9.368c.495.179.982.396 1.454.668.472.273.903.587 1.306.925l6.381-7.685c-.83-.694-1.716-1.34-2.687-1.901"/>
   <path d="m399.07 540.25c-.971-.56-1.857-1.207-2.687-1.901l6.381-7.685c.403.339.834.653 1.306.925.472.273.96.489 1.454.668l-3.465 9.368c-1.016-.372-2.02-.816-2.99-1.376"/>
   <g fill-opacity=".198">
    <path d="m422.01 510.36c-.793-.793-1.646-1.481-2.531-2.103l-5.771 8.152c.431.301.846.636 1.232 1.022.386.386.721.801 1.022 1.232l8.152-5.771c-.622-.885-1.311-1.739-2.103-2.531"/>
    <path d="m395.14 537.23c-.793-.793-1.481-1.646-2.103-2.532l8.152-5.771c.301.431.636.846 1.022 1.232.386.386.801.721 1.232 1.022l-5.771 8.152c-.885-.622-1.739-1.311-2.531-2.103"/>
    <path d="m425.03 514.3c-.56-.971-1.207-1.857-1.901-2.687l-7.685 6.381c.339.403.653.834.925 1.306.273.472.489.96.668 1.454l9.368-3.465c-.372-1.016-.816-2.02-1.377-2.99"/>
    <path d="m392.12 533.3c-.56-.971-1-1.973-1.377-2.99l9.368-3.465c.179.495.396.982.668 1.454.273.472.587.903.925 1.306l-7.685 6.381c-.694-.83-1.34-1.716-1.901-2.687"/>
   </g>
  </g>
  <path fill="#2d2f33" d="m388.58 523.3c-.004.167-.012.332-.012.5 0 11.08 8.92 20 20 20 11.08 0 20-8.92 20-20 0-.168-.008-.333-.012-.5-.265 10.846-9.08 19.5-19.988 19.5-10.912 0-19.724-8.654-19.988-19.5"/>
 </g>
</svg>
