<svg width="48" xmlns="http://www.w3.org/2000/svg" height="48" viewBox="0 0 48 48" xmlns:xlink="http://www.w3.org/1999/xlink">
 <defs>
  <linearGradient id="a" y1="509.8" x1="394.57" y2="537.95" x2="422.73" gradientUnits="userSpaceOnUse" gradientTransform="translate(-384.57-499.8)">
   <stop stop-color="#e5e7e8"/>
   <stop offset="1" stop-color="#dcdee0"/>
  </linearGradient>
  <linearGradient id="b" x1="389.57" x2="427.57" gradientUnits="userSpaceOnUse" gradientTransform="matrix(.70711.70711-.70711.70711 105.48-635.28)">
   <stop stop-color="#fcfcfc"/>
   <stop offset="1" stop-color="#eff0f1"/>
  </linearGradient>
  <linearGradient xlink:href="#a" id="c" y1="-366.47" x1="387.13" y2="-339.14" gradientUnits="userSpaceOnUse" x2="414.47"/>
  <linearGradient id="d" y1="525.26" x1="395.91" y2="513.95" x2="425.21" gradientUnits="userSpaceOnUse" gradientTransform="translate(-384.57-499.8)">
   <stop stop-color="#da4453"/>
   <stop offset="1" stop-color="#ff7336"/>
  </linearGradient>
  <linearGradient xlink:href="#d" id="e" x1="389.96" x2="410.34" gradientUnits="userSpaceOnUse" gradientTransform="matrix(.91926-.16589.15464.98614-48.43 74.963)"/>
  <linearGradient id="f" y1="44.09" x1="26.362" y2="33.75" x2="44" gradientUnits="userSpaceOnUse">
   <stop stop-color="#c0392b"/>
   <stop offset="1" stop-color="#c0392b" stop-opacity="0"/>
  </linearGradient>
  <linearGradient id="g" y1="27.554" x1="9.42" y2="40.13" x2="22" gradientUnits="userSpaceOnUse">
   <stop/>
   <stop offset="1" stop-opacity="0"/>
  </linearGradient>
  <linearGradient xlink:href="#g" id="h" y1="27.554" x1="9.42" y2="37" x2="18.866" gradientUnits="userSpaceOnUse"/>
  <linearGradient id="i" y1="519.85" x1="388.57" y2="528.52" x2="398.82" gradientUnits="userSpaceOnUse">
   <stop stop-color="#4d4d4d"/>
   <stop offset="1" stop-color="#31363b"/>
  </linearGradient>
 </defs>
 <g transform="translate(-384.57-499.8)">
  <path opacity=".4" stroke-opacity=".55" fill="#f9f9f9" stroke-width="8.587" d="m24 17c-1.788 0-3.576.685-4.945 2.055-2.74 2.74-2.74 7.151 0 9.891 2.74 2.74 7.151 2.74 9.891 0 2.74-2.74 2.74-7.151 0-9.891-1.37-1.37-3.158-2.055-4.945-2.055m-.001953 3.955078a3.00255 3.00255 0 0 1 3.00195 3.00391 3.00255 3.00255 0 0 1 -3.00195 3.00195 3.00255 3.00255 0 0 1 -3.00391 -3.00195 3.00255 3.00255 0 0 1 3.00391 -3.00391" transform="translate(384.57 499.8)"/>
  <path fill="url(#e)" fill-rule="evenodd" d="m408.57 503.8c-9.315.382-9.927 1.46-11.07 2.041-1.537.778-3.427 1.216-3.229-.043-.654.239-1.407 1.15-.769 2.29.638 1.14-.637 2.468-1.25 1.749-1.175-1.375-4.055-.296-3.635 1.463.414-.414 2.341-1.319 2.073.701-.268 2.02-.401 3.568 1.653 4.945 2.054 1.377 10.02-.016 10.02-.016z"/>
  <g stroke-opacity=".55" stroke-width="8.587">
   <path fill="url(#a)" d="m24 4c-11.03 0-19.913 8.838-19.996 19.846l1.123.023 4.684 12.02 10.166 5.922 11.4-.707 7.779-5.48 3.623-12.02-2.121-8.662-6.189-7.631-1.563-1.156-.266-.186c-2.616-1.251-5.537-1.971-8.641-1.971m0 5c8.31 0 15 6.69 15 15 0 8.31-6.69 15-15 15-8.31 0-15-6.69-15-15 0-8.31 6.69-15 15-15" transform="translate(384.57 499.8)"/>
   <path fill="url(#b)" d="m24 4.982c-4.857 0-9.714 1.861-13.436 5.582-7.443 7.443-7.443 19.428 0 26.871 7.443 7.443 19.428 7.443 26.871 0 7.443-7.443 7.443-19.428 0-26.871-3.721-3.721-8.579-5.582-13.436-5.582m0 13.02c1.532 0 3.064.588 4.238 1.762 2.348 2.348 2.348 6.128 0 8.477-2.348 2.348-6.128 2.348-8.477 0-2.348-2.348-2.348-6.128 0-8.477 1.174-1.174 2.706-1.762 4.238-1.762" transform="translate(384.57 499.8)"/>
   <path fill="url(#c)" d="M24.1875 13A11 11 0 0 0 23.408203 13.02734 11 11 0 0 0 22.318359 13.160156 11 11 0 0 0 21.244141 13.400391 11 11 0 0 0 20.20117 13.748047 11 11 0 0 0 19.19727 14.195312 11 11 0 0 0 18.244141 14.744141 11 11 0 0 0 17.349609 15.382812 11 11 0 0 0 16.523438 16.10938 11 11 0 0 0 15.775391 16.914062 11 11 0 0 0 15.10938 17.789062 11 11 0 0 0 14.535156 18.726562 11 11 0 0 0 14.05664 19.716797 11 11 0 0 0 13.677734 20.75 11 11 0 0 0 13.40625 21.814453 11 11 0 0 0 13.242188 22.900391 11 11 0 0 0 13.1875 24 11 11 0 0 0 13.214844 24.779297 11 11 0 0 0 13.347656 25.869141 11 11 0 0 0 13.589844 26.943359 11 11 0 0 0 13.935547 27.986328 11 11 0 0 0 14.382812 28.990234 11 11 0 0 0 14.931641 29.943359 11 11 0 0 0 15.572266 30.837891 11 11 0 0 0 16.296875 31.664062 11 11 0 0 0 17.10156 32.412109 11 11 0 0 0 17.976562 33.07813 11 11 0 0 0 18.914062 33.652344 11 11 0 0 0 19.904297 34.13086 11 11 0 0 0 20.9375 34.509766 11 11 0 0 0 22.00195 34.78125 11 11 0 0 0 23.08789 34.945312 11 11 0 0 0 24.1875 35 11 11 0 0 0 24.966797 34.972656 11 11 0 0 0 26.05664 34.839844 11 11 0 0 0 27.13086 34.597656 11 11 0 0 0 28.17383 34.25195 11 11 0 0 0 29.17773 33.804688 11 11 0 0 0 30.13086 33.25586 11 11 0 0 0 31.02539 32.615234 11 11 0 0 0 31.851562 31.890625 11 11 0 0 0 32.599609 31.08594 11 11 0 0 0 33.26563 30.21094 11 11 0 0 0 33.839844 29.27344 11 11 0 0 0 34.31836 28.2832 11 11 0 0 0 34.697266 27.25 11 11 0 0 0 34.96875 26.18555 11 11 0 0 0 35.13281 25.09961 11 11 0 0 0 35.1875 24 11 11 0 0 0 35.16016 23.2207 11 11 0 0 0 35.02734 22.13086 11 11 0 0 0 34.785156 21.05664 11 11 0 0 0 34.439453 20.01367 11 11 0 0 0 33.992188 19.00977 11 11 0 0 0 33.443359 18.05664 11 11 0 0 0 32.804688 17.16211 11 11 0 0 0 32.07813 16.335938 11 11 0 0 0 31.27344 15.587891 11 11 0 0 0 30.398438 14.921875 11 11 0 0 0 29.460938 14.347656 11 11 0 0 0 28.470703 13.869141 11 11 0 0 0 27.4375 13.490234 11 11 0 0 0 26.373047 13.21875 11 11 0 0 0 25.287109 13.05469 11 11 0 0 0 24.1875 13M23.996 17.998C25.529 17.998 27.06 18.583 28.24 19.758 30.588 22.11 30.588 25.893 28.24 28.24 25.889 30.591 22.11 30.591 19.756 28.24 17.407 25.893 17.407 22.11 19.756 19.758 20.931 18.583 22.463 17.998 23.996 17.998" transform="translate(384.57 499.8)"/>
  </g>
  <g fill-rule="evenodd">
   <path opacity=".4" fill="url(#g)" d="m17.625 22.875l-13.561 2.668c.784 10.353 9.376 18.457 19.936 18.457 4.193 0 8.07-1.281 11.281-3.469l-10.58-10.58a6 6 0 0 1 -.701172 .048828 6 6 0 0 1 -6 -6 6 6 0 0 1 .044922 -.705078z" transform="translate(384.57 499.8)"/>
   <path fill="url(#d)" d="m32.467 5.887c.626.575 1.438 1.404 1.939 2.301.875 1.563.75 4.281-1.938 4.781-2.688.5-2.79-.415-2.781-1.5-1.429.197-2.068 3.364.438 4.469 2.125.938 2.906.563 6.906.313 4-.25 4.469 4.625 2.594 5.375-1.875.75-2.591-.587-2.469-1.313-1.503.587-1.686 2.224-.938 3 5.847 6.06 3.043 10.739 1.438 11.219-1.989.594-3.391-.584-2.375-2.156.828-1.281.113-3.394-.893-4.143-1.01-.748-2.96-.569-3.795-.014 1.204.455 2.969 1.156 2.5 2.719-.362 1.207-1.548 1.967-3.03 1.938-3.379-.066-2.309-3.119-1.844-3.469-1.816-.225-3.03 3.089-1.844 4.219 1.166 1.112 2.805 1.733 1.813 3.438-1.041 1.788-2.5 2.75-5 2.25-2.5-.5-3.875-2.094-3.563-3.563.313-1.469 1.042-1.665 2.313-1.688-.792-1.679-4.688-1.688-4.625 1.219.032 1.501-2.481 1.748-3.531.063-1.188-1.906-.183-2.722 1.156-2.406.09-2.122-1.719-1.094-2.188-3.438-.469-2.344 3.438-4.125 3.438-4.125l-12.154-.242c.584 10.548 9.268 18.867 19.967 18.867 11.08 0 20-8.92 20-20 0-8.05-4.715-14.934-11.533-18.11" transform="translate(384.57 499.8)"/>
  </g>
  <path stroke-opacity=".55" fill="url(#f)" stroke-width="8.587" d="m4.01 23.5c-.004.167-.012.332-.012.5 0 11.08 8.92 20 20 20 11.08 0 20-8.92 20-20 0-.168-.008-.333-.012-.5-.265 10.846-9.08 19.5-19.988 19.5-10.912 0-19.724-8.654-19.988-19.5" transform="translate(384.57 499.8)"/>
  <g stroke-linejoin="round" color="#000000" stroke-width="3">
   <path fill="url(#i)" d="m388.94 519.85c-.241 1.277-.373 2.594-.373 3.943 0 1.349.132 2.666.373 3.943l11.627-1.943c1.095-.168 2-.892 2-2 0-1.108-.905-1.832-2-2z"/>
   <circle fill="#27ae60" cx="400.57" cy="523.8" r="1" stroke-linecap="round"/>
  </g>
  <path opacity=".1" stroke-opacity=".55" stroke-width="8.587" d="m408.57 520.75c-1.659-.001-3 1.345-3 3-.001.173.014.345.043.516.237-1.452 1.49-2.518 2.961-2.52 1.46 0 2.709 1.05 2.959 2.488.027-.16.042-.322.043-.484.001-1.659-1.343-3-3-3"/>
  <path opacity=".2" fill="url(#h)" fill-rule="evenodd" d="m18.04 23.291c-.21 1.761.359 3.595 1.715 4.951 1.356 1.356 3.191 1.925 4.951 1.715l-.006-.006c-.233.03-6.685-6.422-6.656-6.656z" transform="translate(384.57 499.8)"/>
  <path stroke-opacity=".55" fill="#95a5a6" stroke-width="8.587" d="m412.57 523.8c0 1.022-.391 2.043-1.174 2.826-.783.783-1.804 1.174-2.826 1.174v1c1.277 0 2.555-.488 3.533-1.467.978-.978 1.467-2.256 1.467-3.533z"/>
 </g>
</svg>
