<svg width="48" xmlns="http://www.w3.org/2000/svg" height="48" xmlns:xlink="http://www.w3.org/1999/xlink">
 <defs>
  <linearGradient id="a">
   <stop stop-color="#fcdd99"/>
   <stop offset="1" stop-color="#fcdd99" stop-opacity="0"/>
  </linearGradient>
  <linearGradient id="b" y1="522.99" x1="430.51" y2="523.86" gradientUnits="userSpaceOnUse" x2="378.58" gradientTransform="matrix(.70711.70711-.70711.70711 105.4-635.69)">
   <stop stop-color="#fcfcfc"/>
   <stop offset="1" stop-color="#e9eaeb"/>
  </linearGradient>
  <linearGradient id="c" y1="19.869" x1="-28.649" y2="49.804" gradientUnits="userSpaceOnUse" x2="3.614" gradientTransform="translate(45.719-.92)">
   <stop/>
   <stop offset="1" stop-opacity="0"/>
  </linearGradient>
  <linearGradient id="d" y1="522.18" x1="388.34" y2="523.7" gradientUnits="userSpaceOnUse" x2="402.03" gradientTransform="matrix(.70711.70711-.70711.70711 105.48-635.28)">
   <stop stop-color="#ffffff"/>
   <stop offset="1" stop-color="#eff0f1"/>
  </linearGradient>
  <linearGradient id="e" y1="527.21" x1="422.48" y2="527.34" gradientUnits="userSpaceOnUse" x2="425.86" gradientTransform="matrix(.70711.70711-.70711.70711 105.48-635.28)">
   <stop stop-color="#f9f9f9"/>
   <stop offset="1" stop-color="#f6f6f6"/>
  </linearGradient>
  <linearGradient id="f" y1="8.627" x1="9.642" y2="24.326" x2="23.912" gradientUnits="userSpaceOnUse">
   <stop stop-color="#491309"/>
   <stop offset="1" stop-color="#b6642d"/>
  </linearGradient>
  <linearGradient id="g" y1="15.871" x1="16.296" y2="31.01" x2="30.633" gradientUnits="userSpaceOnUse">
   <stop stop-color="#fee3a8"/>
   <stop offset="1" stop-color="#fcdd99" stop-opacity="0"/>
  </linearGradient>
  <linearGradient id="h" y1="33.922" x1="32.641" y2="34.953" x2="33.609" gradientUnits="userSpaceOnUse">
   <stop stop-color="#cfcfcf"/>
   <stop offset="1" stop-color="#ededed" stop-opacity="0"/>
  </linearGradient>
  <linearGradient id="i" y1="42.01" x1="13.247" y2="34.887" x2="8.892" gradientUnits="userSpaceOnUse" gradientTransform="matrix(1.31518 0 0 1.22972-3.891-7.222)">
   <stop stop-color="#d6d6d6"/>
   <stop offset="1" stop-color="#7a7a7a"/>
  </linearGradient>
  <linearGradient id="j" y1="1.586" x1="12" y2="45.31" gradientUnits="userSpaceOnUse" x2="11.875">
   <stop stop-color="#e0e0e0"/>
   <stop offset=".125" stop-color="#c0c0c0"/>
   <stop offset=".66" stop-color="#9b9b9b"/>
   <stop offset=".732" stop-color="#b3b3b3"/>
   <stop offset="1" stop-color="#b1b1b1"/>
  </linearGradient>
  <radialGradient cx="23.731" cy="23.885" xlink:href="#a" id="k" r="8.335" gradientUnits="userSpaceOnUse" gradientTransform="matrix(3.38134-.04028.04004 3.36093-57.47-55.43)"/>
  <radialGradient cx="23.748" cy="23.82" xlink:href="#a" id="l" r="5.657" gradientUnits="userSpaceOnUse" gradientTransform="matrix(4.9331-.01446.01148 3.91554-93.68-69.1)"/>
  <linearGradient xlink:href="#c" id="m" y1="20.869" x1="-20.15" y2="21.429" gradientUnits="userSpaceOnUse" x2="-11.636" gradientTransform="translate(28.344-9.795)"/>
  <linearGradient xlink:href="#c" id="n" y1="19.12" x1="-14.524" y2="19.804" gradientUnits="userSpaceOnUse" x2="-10.761" gradientTransform="translate(29.344 21.21)"/>
  <linearGradient id="o" y1="522.24" x1="385.61" y2="523.27" gradientUnits="userSpaceOnUse" x2="409.82" gradientTransform="matrix(.70711.70711-.70711.70711 105.48-635.28)">
   <stop stop-color="#ffffff"/>
   <stop offset="1" stop-color="#dfe1e3"/>
  </linearGradient>
  <path id="p" color="#000000" d="M25 15A9 9 0 1 1 7 15 9 9 0 1 1 25 15"/>
 </defs>
 <use fill="url(#o)" xlink:href="#p" stroke-width="1.271" transform="matrix(2.32442 0 0 2.32442-13.191-10.866)"/>
 <path fill="url(#b)" d="m23.924 4.578c-4.857 0-9.714 1.861-13.436 5.582-7.443 7.443-7.443 19.428 0 26.871 7.443 7.443 19.428 7.443 26.871 0 7.443-7.443 7.443-19.428 0-26.871-3.721-3.721-8.579-5.582-13.436-5.582"/>
 <g color="#000000">
  <path opacity=".2" fill="url(#c)" fill-rule="evenodd" d="m14.32 32.762l18.08-18.673 12.383 12.504c-.815 7.988-7.512 16.946-18.46 18.17z"/>
  <path fill="url(#e)" stroke-width="2.324" d="m30 35l4-6 5 5-5 5z"/>
 </g>
 <path fill="url(#h)" d="m29 34l6-4 2 2-4.969 5.094z"/>
 <g fill-rule="evenodd" color="#000000">
  <path opacity=".4" fill="url(#m)" d="m10.445 11.949l4.312-6.704 12.649 12.473c-6.44-2.137-7.637-2.179-16.647-1.643z"/>
  <path opacity=".4" fill="url(#n)" d="m10.695 39.762l5.327-3.548 7.258 8.629c-3.44-.262-4.825-.679-7.397-1.456z"/>
 </g>
 <path fill="url(#j)" d="m12 2.531c-1.621 0-3.243.499-3 1.469 1 4 2 28 1 30-.667 1.333-3 1-3 5 0 2.867 2.823 8 5 8 1.967-.008 5-5.133 5-8 0-4-2.333-3.667-3-5-1-2 0-26 1-30 .243-.97-1.379-1.469-3-1.469m-.5 1v1.469l1.125-1.438.906.188-1.188 1.438 1.188 1.5-.906.281-1.125-1.594v1.438l-.875.125v-3.344z"/>
 <use fill="url(#d)" xlink:href="#p" stroke-width="2.036" transform="matrix(1.45091 0 0 1.45091.879 2.33)"/>
 <use fill="url(#f)" xlink:href="#p" transform="matrix(1.13742 0 0 1.13731 5.556 6.694)"/>
 <path fill="url(#g)" d="m21.05 28.03v-8.813l7.55 4.346z"/>
 <g color="#000000">
  <path opacity=".052" fill="url(#l)" d="m23.425 18.18c-.978.051-1.916.39-2.757.883.324.911.839.863 1.554.447 1.809-.659 3.887.007 5.133 1.433.918-.51.609-1.096-.109-1.56-1.078-.848-2.448-1.284-3.821-1.203m-5 3.73c-.869 2.294.021 4.994 1.929 6.463.821-.687.403-1.16-.23-1.753-1.059-1.319-1.223-3.206-.562-4.728-.385.042-1.138-.785-1.137.018m10.519 1.372c-1.071-.129-.437 1.165-.798 1.814-.28 1.082-1.044 1.991-1.965 2.618.332.998.876.871 1.457.193 1.277-1.169 1.885-2.965 1.747-4.691-.147.022-.294.044-.441.067m-7.128 5.157c-.554 1 .982.914 1.657 1.028.622.023 1.237-.063 1.838-.218.018-1.192-.79-.957-1.687-.852-.527.249-1.815-.791-1.808.042"/>
  <path opacity=".052" fill="url(#k)" d="m16.932 19.02c-.846 1.171-1.324 2.559-1.536 3.981 1.345.47 1.767-.166 1.95-1.37.916-2.686 3.602-4.456 6.391-4.568.263-1.525-.695-1.713-1.891-1.317-1.971.454-3.738 1.624-4.914 3.274m-.341 9.189c1.83 3.119 5.753 4.595 9.203 3.762-.029-1.578-.959-1.536-2.225-1.357-2.493-.004-4.812-1.561-5.948-3.726-.308.48-1.954.582-1.03 1.322m11.303-10.808c-1.139 1.11.933 1.578 1.344 2.593.983 1.322 1.32 3.04 1.189 4.676 1.454.542 1.811-.201 1.569-1.494-.162-2.547-1.661-4.906-3.771-6.344-.111.189-.221.379-.332.568m-.67 12.952c.637 1.561 1.957-.283 2.712-.951.601-.693 1.072-1.478 1.45-2.311-1.352-1.123-1.829.023-2.538 1.148-.202.836-2.586 1.352-1.623 2.115"/>
 </g>
 <path fill="url(#i)" d="m14.04 35.33c.118.059 2.133.718 2.142 3.68.009 2.872-2.84 7-4.284 7.01-1.57.009-4.246-4.139-4.284-7.01-.037-2.74 2.024-3.603 2.142-3.68 1.459-.838 2.894-.848 4.284 0"/>
 <path opacity=".36" fill="#ffffff" d="m12 2.531c-1.621 0-3.243.499-3 1.469 1 4 2 28 1 30-.194.512.159.044.375-.125.938-2.512.331-25.925-.656-29.875-.225-.9 1.161-1.371 2.656-1.438-.127-.006-.247-.031-.375-.031"/>
</svg>
