<?xml version="1.0" encoding="UTF-8" standalone="no"?>
<svg xmlns="http://www.w3.org/2000/svg" xmlns:xlink="http://www.w3.org/1999/xlink" width="48" version="1.1" height="48" viewBox="0 0 48 48" id="svg2">
 <defs id="defs5455">
  <style id="current-color-scheme" type="text/css">
   .ColorScheme-Text { color:#31363b; } .ColorScheme-Background { color:#eff0f1; } .ColorScheme-Highlight { color:#3daee9; } .ColorScheme-ViewText { color:#31363b; } .ColorScheme-ViewBackground { color:#fcfcfc; } .ColorScheme-ViewHover { color:#93cee9; } .ColorScheme-ViewFocus{ color:#3daee9; } .ColorScheme-ButtonText { color:#31363b; } .ColorScheme-ButtonBackground { color:#eff0f1; } .ColorScheme-ButtonHover { color:#93cee9; } .ColorScheme-ButtonFocus{ color:#3daee9; }
  </style>
  <linearGradient xlink:href="#a" id="linearGradient4280" x1="407.571" y1="538.798" x2="407.571" y2="503.798" gradientUnits="userSpaceOnUse" gradientTransform="translate(-384.57143,-499.798)"/>
  <linearGradient gradientUnits="userSpaceOnUse" x2="0" y2="503.8" y1="543.8" id="a" gradientTransform="translate(-66.100265,-5.9003051)">
   <stop id="stop4151" stop-color="#faae2a"/>
   <stop id="stop4153" stop-color="#ffc35a" offset="1"/>
  </linearGradient>
  <linearGradient gradientUnits="userSpaceOnUse" x2="0" y2="13" y1="34" id="b" gradientTransform="translate(318.46974,493.89969)">
   <stop id="stop4156" stop-color="#2a2c2f"/>
   <stop id="stop4158" stop-color="#424649" offset="1"/>
  </linearGradient>
  <linearGradient xlink:href="#b" id="linearGradient4161" x1="37" y1="42" x2="36" y2="38" gradientUnits="userSpaceOnUse"/>
 </defs>
 <circle style="opacity:1;fill:url(#linearGradient4161);fill-opacity:1;stroke:none;stroke-width:2;stroke-linecap:round;stroke-linejoin:round;stroke-miterlimit:4;stroke-dasharray:none;stroke-opacity:1" id="path4152" cx="35" cy="40" r="4"/>
 <path style="color:#31363b;fill:url(#linearGradient4280);fill-opacity:1;stroke:none" d="M 24 4 A 4 4 0 0 0 23.244141 4.0761719 A 4 4 0 0 0 20 8 A 4 4 0 0 0 20.326172 9.5722656 C 15.079082 11.179189 11.005333 16.004053 11 21.5 C 10.995 28.95001 8.30127 34.93572 4 36 L 4 38.882812 L 4 39 C 4 39 44.00006 38.99999 44 39 L 44 38.882812 L 44 36 C 39.69873 34.93572 37.00494 28.95001 37 21.5 C 36.99956 16.00301 32.928528 11.175206 27.681641 9.5644531 A 4 4 0 0 0 28 8 A 4 4 0 0 0 24 4 z" id="path4183"/>
 <rect y="38" x="4" height="1" width="40" id="rect4211" style="opacity:1;fill:#e78220;fill-opacity:1;stroke:none;stroke-width:1;stroke-miterlimit:4;stroke-dasharray:none;stroke-opacity:1"/>
</svg>
