<svg width="48" xmlns="http://www.w3.org/2000/svg" height="48" xmlns:xlink="http://www.w3.org/1999/xlink">
 <defs>
  <linearGradient id="a" y1="514.63" x1="402.41" y2="527.8" x2="415.57" gradientUnits="userSpaceOnUse">
   <stop stop-color="#2e5d89"/>
   <stop offset="1" stop-color="#1b92f4"/>
  </linearGradient>
  <linearGradient xlink:href="#a" id="b" y1="511.72" x1="399.7" y2="526.2" gradientUnits="userSpaceOnUse" x2="414.17"/>
  <linearGradient xlink:href="#a" id="c" y1="506.89" x1="395.06" y2="524.6" gradientUnits="userSpaceOnUse" x2="412.77"/>
  <linearGradient id="d" y1="508.8" x1="398.57" y2="528.8" x2="418.57" gradientUnits="userSpaceOnUse" gradientTransform="translate(-817.14-1039.6)">
   <stop stop-color="#2f3943"/>
   <stop offset="1" stop-color="#4d5662"/>
  </linearGradient>
  <linearGradient xlink:href="#d" id="e" y1="28" y2="12" x2="0" gradientUnits="userSpaceOnUse" gradientTransform="translate(386.57 499.8)"/>
  <linearGradient xlink:href="#d" id="f" y1="28" y2="12" x2="0" gradientUnits="userSpaceOnUse" gradientTransform="matrix(-1 0 0 1 430.57 499.8)"/>
  <linearGradient id="g" y1="534.8" x1="405.57" y2="538.8" x2="411.57" gradientUnits="userSpaceOnUse" gradientTransform="matrix(1 0 0 .60001 0 213.91)">
   <stop stop-color="#18222a"/>
   <stop offset="1" stop-color="#566069"/>
  </linearGradient>
  <linearGradient xlink:href="#g" id="h" y1="511.73" x1="400.5" y2="528.6" x2="417.37" gradientUnits="userSpaceOnUse"/>
  <linearGradient id="i" y1="530.8" x1="421.57" y2="507.8" x2="398.57" gradientUnits="userSpaceOnUse">
   <stop stop-color="#c6cdd1"/>
   <stop offset="1" stop-color="#e0e5e7"/>
  </linearGradient>
  <linearGradient xlink:href="#i" id="j" y1="531.8" y2="501.7" x2="0" gradientUnits="userSpaceOnUse" gradientTransform="matrix(.91666 0 0 1 34.05 0)"/>
  <linearGradient id="k" y1="519.8" y2="541.01" x2="0" gradientUnits="userSpaceOnUse" gradientTransform="matrix(.70711-.70711.70711.70711-632.46-58.649)">
   <stop/>
   <stop offset="1" stop-opacity="0"/>
  </linearGradient>
  <linearGradient xlink:href="#k" id="l" y1="538.8" x1="410.57" y2="541.8" x2="413.57" gradientUnits="userSpaceOnUse"/>
  <linearGradient id="m" y1="541.8" y2="543.8" x2="0" gradientUnits="userSpaceOnUse">
   <stop stop-color="#1d1e1e"/>
   <stop offset="1" stop-color="#44484c"/>
  </linearGradient>
  <linearGradient xlink:href="#i" id="n" y1="537.8" y2="539.8" x2="0" gradientUnits="userSpaceOnUse"/>
 </defs>
 <g transform="translate(-384.57-499.8)">
  <g stroke-linejoin="round" stroke-width="2">
   <g stroke-linecap="round">
    <rect width="32" x="392.57" y="537.8" fill="url(#n)" height="4"/>
    <rect width="44" x="386.57" y="507.8" fill="url(#j)" rx="0" height="24"/>
   </g>
   <path opacity=".2" fill="url(#k)" d="m35.31 8.686l-22.629 22.629.686.686h32.629v-10.629z" transform="translate(384.57 499.8)"/>
  </g>
  <path opacity=".2" fill="url(#l)" fill-rule="evenodd" d="m404.57 538.8l3 3h8l-3-3z"/>
  <g stroke-linejoin="round" stroke-width="2">
   <path fill="url(#g)" d="m404.57 534.8h8v4c0 0-1 1-4 1-3 0-4-1-4-1z"/>
   <g stroke-linecap="round">
    <rect width="32" x="392.57" y="541.8" fill="url(#m)" height="2"/>
    <circle fill="url(#i)" cx="408.57" cy="519.8" r="16"/>
   </g>
   <path fill="url(#d)" d="m-394.57147-519.79797a13.999973 13.999973 0 0 1 -13.99997 13.99997 13.999973 13.999973 0 0 1 -13.99997 -13.99997 13.999973 13.999973 0 0 1 13.99997 -13.99998 13.999973 13.999973 0 0 1 13.99997 13.99998" transform="scale(-1)"/>
   <g stroke-linecap="round">
    <circle fill="url(#h)" cx="408.57" cy="519.8" r="11"/>
    <circle fill="url(#a)" cx="408.57" cy="519.8" r="10"/>
    <circle fill="url(#b)" cx="408.57" cy="519.8" r="8"/>
    <circle fill="url(#c)" cx="408.57" cy="519.8" r="6"/>
    <circle fill="#2c3e50" cx="408.57" cy="519.8" r="4"/>
   </g>
   <path fill="url(#e)" d="m386.57 511.8v16h2c1.108 0 2-.892 2-2v-12c0-1.108-.892-2-2-2z"/>
   <path fill="url(#f)" d="m430.57 511.8v16h-2c-1.108 0-2-.892-2-2v-12c0-1.108.892-2 2-2z"/>
   <g stroke-linecap="round">
    <circle fill="#11d116" cx="428.57" cy="515.8" r="1"/>
    <g fill="#84cbfe">
     <circle cx="405.57" cy="516.8" r="1"/>
     <ellipse cx="403.57" cy="514.8" rx="1.5" ry="1.5"/>
    </g>
   </g>
  </g>
 </g>
</svg>
