<?xml version="1.0" encoding="UTF-8" standalone="no"?>
<svg xmlns="http://www.w3.org/2000/svg" xmlns:xlink="http://www.w3.org/1999/xlink" width="48" height="48" version="1.1">
 <defs>
  <linearGradient id="linearGradient4527">
   <stop style="stop-color:#000000;stop-opacity:1;" offset="0"/>
   <stop style="stop-color:#000000;stop-opacity:0;" offset="1"/>
  </linearGradient>
  <linearGradient id="linearGradient4465">
   <stop style="stop-color:#172525;stop-opacity:1;" offset="0"/>
   <stop style="stop-color:#334545;stop-opacity:1" offset="1"/>
  </linearGradient>
  <linearGradient id="linearGradient3886">
   <stop style="stop-color:#f9f9f9;stop-opacity:1;" offset="0"/>
   <stop style="stop-color:#afafaf;stop-opacity:1;" offset="1"/>
  </linearGradient>
  <linearGradient xlink:href="#linearGradient3886" id="linearGradient4319" gradientUnits="userSpaceOnUse" x1="16.323" y1="14.159" x2="22.398" y2="29.741" gradientTransform="matrix(1.4814815,0,0,1.2193263,-8.1815401,-4.2638314)"/>
  <linearGradient xlink:href="#linearGradient4465" id="linearGradient4471" x1="-44" y1="33" x2="-4" y2="12" gradientUnits="userSpaceOnUse" gradientTransform="translate(8.5688477e-7,1.5266113e-6)"/>
  <linearGradient xlink:href="#linearGradient4527" id="linearGradient4533" x1="34.016" y1="17.852" x2="42.073" y2="25.909" gradientUnits="userSpaceOnUse"/>
  <linearGradient xlink:href="#linearGradient4527" id="linearGradient4535" x1="26.385" y1="20.846" x2="36.944" y2="31.405" gradientUnits="userSpaceOnUse"/>
  <linearGradient xlink:href="#linearGradient4527" id="linearGradient4537" x1="24.725" y1="2.808" x2="35.192" y2="2.808" gradientUnits="userSpaceOnUse"/>
  <linearGradient xlink:href="#linearGradient4527" id="linearGradient4539" x1="6.93" y1="20.096" x2="18.793" y2="31.959" gradientUnits="userSpaceOnUse"/>
  <linearGradient xlink:href="#linearGradient4527" id="linearGradient4555" x1="20.091" y1="24.244" x2="27.512" y2="31.664" gradientUnits="userSpaceOnUse"/>
 </defs>
 <g>
  <rect style="fill:url(#linearGradient4471);fill-opacity:1;stroke:none;stroke-width:0;stroke-linecap:round;stroke-linejoin:round;stroke-miterlimit:4;stroke-dasharray:none;stroke-opacity:1" width="40" height="40" x="-44" y="4" transform="matrix(0,-1,1,0,0,0)"/>
  <path transform="matrix(0.70710678,0.70710678,-0.70710678,0.70710678,0,0)" style="opacity:0.4;fill:url(#linearGradient4537);fill-opacity:1;stroke:none;stroke-width:2;stroke-linecap:round;stroke-linejoin:round;stroke-miterlimit:4;stroke-dasharray:none;stroke-opacity:1" d="m 25.130235,0.9892711 -0.405579,-1.68567252 25.265164,0 0,7.00863842 -21.018145,0 -1.389553,-1.9921584 z"/>
  <path style="fill:#000000;fill-opacity:1;stroke:none;stroke-width:0;stroke-linecap:round;stroke-linejoin:round;stroke-miterlimit:4;stroke-opacity:1;stroke-dasharray:none;opacity:0.15" d="M 4 43 L 4 44 L 44 44 L 44 43 L 4 43 z"/>
  <path style="opacity:0.4;fill:url(#linearGradient4539);fill-opacity:1;stroke:none;stroke-width:2;stroke-linecap:round;stroke-linejoin:round;stroke-miterlimit:4;stroke-dasharray:none;stroke-opacity:1" d="M 14.021484 20.009766 L 12.607422 21.482422 L 12.445312 25.662109 L 8.7910156 22.90625 L 7.9082031 25.384766 L 7.0175781 28.042969 L 22.974609 44 L 38.011719 44 L 14.021484 20.009766 z"/>
  <path style="opacity:0.4;fill:url(#linearGradient4535);fill-opacity:1;stroke:none;stroke-width:2;stroke-linecap:round;stroke-linejoin:round;stroke-miterlimit:4;stroke-dasharray:none;stroke-opacity:1" d="M 32.994141 20.984375 L 31.984375 21.59375 L 31.029297 27.613281 L 27.75 27.589844 L 26.910156 27.761719 L 43.148438 44 L 44 44 L 44 31.990234 L 32.994141 20.984375 z"/>
  <path style="opacity:0.4;fill:url(#linearGradient4533);fill-opacity:1;stroke:none;stroke-width:2;stroke-linecap:round;stroke-linejoin:round;stroke-miterlimit:4;stroke-dasharray:none;stroke-opacity:1" d="M 41.064453 18.015625 L 39.117188 18.789062 L 35.193359 25.003906 L 34.103516 26.005859 L 44 35.902344 L 44 20.951172 L 41.064453 18.015625 z"/>
  <path style="font-style:normal;font-variant:normal;font-weight:600;font-stretch:normal;font-size:medium;line-height:125%;font-family:FreeSans;-inkscape-font-specification:'FreeSans Semi-Bold';text-align:center;letter-spacing:0px;word-spacing:0px;text-anchor:middle;fill:url(#linearGradient4319);fill-opacity:1;stroke:none" d="M 8.9785156,19.992188 8.984375,20 7,20 7,28 9,28 9,23.576172 12,28 l 2,0 0,-8 -2,0 0,4.507812 L 9,20.023438 9,20 l -0.021484,-0.0078 z"/>
  <path style="font-style:normal;font-variant:normal;font-weight:600;font-stretch:normal;font-size:medium;line-height:125%;font-family:FreeSans;-inkscape-font-specification:'FreeSans Semi-Bold';text-align:center;letter-spacing:0px;word-spacing:0px;text-anchor:middle;fill:url(#linearGradient4319);fill-opacity:1;stroke:none" d="m 16,17 0,8 2,0 0,-8 -2,0 z"/>
  <path style="font-style:normal;font-variant:normal;font-weight:600;font-stretch:normal;font-size:medium;line-height:125%;font-family:FreeSans;-inkscape-font-specification:'FreeSans Semi-Bold';text-align:center;letter-spacing:0px;word-spacing:0px;text-anchor:middle;fill:url(#linearGradient4319);fill-opacity:1;stroke:none" d="m 26,21 0,4 c 0,0 -0.01486,0.916286 0.388672,1.884766 C 26.792205,27.853245 27.85,29 29.5,29 31.15,29 32.207795,27.853245 32.611328,26.884766 33.014861,25.916286 33,25 33,25 l 0,-4 -2,0 0,4 c 0,0 -0.01486,0.583714 -0.236328,1.115234 C 30.542205,26.646755 30.35,27 29.5,27 28.65,27 28.457795,26.646755 28.236328,26.115234 28.014861,25.583714 28,25 28,25 l 0,-4 -2,0 z"/>
  <path style="font-style:normal;font-variant:normal;font-weight:600;font-stretch:normal;font-size:medium;line-height:125%;font-family:FreeSans;-inkscape-font-specification:'FreeSans Semi-Bold';text-align:center;letter-spacing:0px;word-spacing:0px;text-anchor:middle;fill:url(#linearGradient4319);fill-opacity:1;stroke:none" d="m 34,18 2.5,4 -2.5,4 2,0 1.5,-2.400391 L 39,26 41,26 38.5,22 41,18 39,18 37.5,20.400391 36,18 34,18 Z"/>
  <path style="opacity:0.4;fill:url(#linearGradient4555);fill-opacity:1;stroke:none;stroke-width:2;stroke-linecap:round;stroke-linejoin:round;stroke-miterlimit:4;stroke-dasharray:none;stroke-opacity:1" d="M 22.039062 23.050781 L 21.316406 23.21875 L 20.242188 28.070312 L 20.003906 31 L 33.003906 44 L 42.988281 44 L 22.039062 23.050781 z"/>
  <path style="font-style:normal;font-variant:normal;font-weight:600;font-stretch:normal;font-size:medium;line-height:125%;font-family:FreeSans;-inkscape-font-specification:'FreeSans Semi-Bold';text-align:center;letter-spacing:0px;word-spacing:0px;text-anchor:middle;fill:url(#linearGradient4319);fill-opacity:1;stroke:none" d="m 20,23 0,6 0,2 2,0 3,0 0,-2 -3,0 0,-6 -2,0 z"/>
 </g>
</svg>
