<?xml version="1.0" encoding="UTF-8" standalone="no"?>
<svg xmlns="http://www.w3.org/2000/svg" xmlns:xlink="http://www.w3.org/1999/xlink" width="48" height="48" version="1.1">
 <defs>
  <linearGradient id="linearGradient4325">
   <stop style="stop-color:#000000;stop-opacity:1;" offset="0"/>
   <stop style="stop-color:#000000;stop-opacity:0;" offset="1"/>
  </linearGradient>
  <linearGradient id="linearGradient4288">
   <stop style="stop-color:#ffa92d;stop-opacity:1;" offset="0"/>
   <stop style="stop-color:#ffe569;stop-opacity:1" offset="1"/>
  </linearGradient>
  <linearGradient id="linearGradient3974">
   <stop style="stop-color:#aeaeae;stop-opacity:1;" offset="0"/>
   <stop style="stop-color:#f2f2f2;stop-opacity:1;" offset="1"/>
  </linearGradient>
  <linearGradient id="linearGradient4145">
   <stop offset="0" style="stop-color:#536161;stop-opacity:1"/>
   <stop offset="1" style="stop-color:#334545;stop-opacity:1"/>
  </linearGradient>
  <radialGradient xlink:href="#linearGradient4145" id="radialGradient3972" cx="28" cy="11" fx="28" fy="11" r="2" gradientUnits="userSpaceOnUse" gradientTransform="translate(-1,2.0000006)"/>
  <radialGradient xlink:href="#linearGradient3974" id="radialGradient3980" cx="26.5" cy="11.5" fx="26.5" fy="11.5" r="3.5" gradientUnits="userSpaceOnUse" gradientTransform="matrix(0.85714288,0,0,0.85714288,4.2857139,3.1428576)"/>
  <linearGradient xlink:href="#linearGradient4288" id="linearGradient4294" x1="32" y1="43" x2="11" y2="4" gradientUnits="userSpaceOnUse"/>
  <linearGradient xlink:href="#linearGradient4325" id="linearGradient4331" x1="25" y1="11" x2="32" y2="18" gradientUnits="userSpaceOnUse"/>
 </defs>
 <g>
  <path style="fill:url(#linearGradient4294);fill-opacity:1;stroke:none;stroke-width:0.5;stroke-linecap:round;stroke-linejoin:round;stroke-miterlimit:4;stroke-dasharray:none;stroke-opacity:1" d="M 42.993132,32.731965 A 20,20 0 0 1 20.977441,43.591299 20,20 0 0 1 5.0218941,24.935567 20,20 0 0 1 19.164154,4.870366 20,20 0 0 1 42.098346,13.624714 L 25,24 Z"/>
  <path style="opacity:0.2;fill:url(#linearGradient4331);fill-opacity:1;stroke:none;stroke-width:2;stroke-linecap:round;stroke-linejoin:round;stroke-miterlimit:4;stroke-dasharray:none;stroke-opacity:1" d="m 26.953534,10.93528 -0.923094,0.883826 -1.293281,3.117271 5.739403,5.739404 5.25586,-3.1875 -6.752973,-6.752973 z"/>
  <rect style="fill:url(#radialGradient3980);fill-opacity:1;stroke:none" width="6" height="6" x="24" y="10" rx="3" ry="3"/>
  <rect style="fill:url(#radialGradient3972);fill-opacity:1;stroke:none" width="4" height="4" x="25" y="11" rx="2" ry="2"/>
  <path style="opacity:0.15;fill:#000000;fill-opacity:1;stroke:none;stroke-width:0.5;stroke-linecap:round;stroke-linejoin:round;stroke-miterlimit:4;stroke-dasharray:none;stroke-opacity:1" d="m 5.0234375,23.982422 c -0.00822,0.317648 -0.00887,0.635446 -0.00195,0.953125 0.4275117,9.135152 6.9968556,16.816677 15.9550776,18.65625 8.958216,1.839298 18.022907,-2.63193 22.015626,-10.859375 L 42.558594,32.521484 C 38.365158,40.262532 29.602901,44.351056 20.976562,42.591797 12.035345,40.755858 5.4715575,33.099177 5.0234375,23.982422 Z"/>
 </g>
</svg>
