<?xml version="1.0" encoding="UTF-8" standalone="no"?>
<svg xmlns="http://www.w3.org/2000/svg" xmlns:xlink="http://www.w3.org/1999/xlink" width="48" height="48" version="1.1">
 <defs>
  <linearGradient id="linearGradient4250">
   <stop offset="0" style="stop-color:#efa63d;stop-opacity:1"/>
   <stop offset="1" style="stop-color:#ffd393;stop-opacity:1"/>
  </linearGradient>
  <linearGradient id="linearGradient4244">
   <stop offset="0" style="stop-color:#8c47a9;stop-opacity:1"/>
   <stop offset="1" style="stop-color:#c978ec;stop-opacity:1"/>
  </linearGradient>
  <linearGradient id="linearGradient4224">
   <stop style="stop-color:#000000;stop-opacity:1;" offset="0"/>
   <stop style="stop-color:#000000;stop-opacity:0;" offset="1"/>
  </linearGradient>
  <linearGradient id="linearGradient4207">
   <stop style="stop-color:#3bb566;stop-opacity:1;" offset="0"/>
   <stop style="stop-color:#66cd8a;stop-opacity:1" offset="1"/>
  </linearGradient>
  <linearGradient id="linearGradient4191">
   <stop style="stop-color:#3b85b5;stop-opacity:1;" offset="0"/>
   <stop style="stop-color:#77aed3;stop-opacity:1" offset="1"/>
  </linearGradient>
  <linearGradient id="linearGradient4375">
   <stop style="stop-color:#e05e4c;stop-opacity:1;" offset="0"/>
   <stop style="stop-color:#e98a7e;stop-opacity:1" offset="1"/>
  </linearGradient>
  <linearGradient id="linearGradient4369">
   <stop offset="0" style="stop-color:#334545;stop-opacity:1"/>
   <stop offset="1" style="stop-color:#172525;stop-opacity:1"/>
  </linearGradient>
  <linearGradient id="linearGradient4355">
   <stop style="stop-color:#997657;stop-opacity:1" offset="0"/>
   <stop style="stop-color:#c0e4cf;stop-opacity:1" offset="1"/>
  </linearGradient>
  <linearGradient id="linearGradient4325">
   <stop style="stop-color:#536161;stop-opacity:1" offset="0"/>
   <stop style="stop-color:#595959;stop-opacity:1" offset="1"/>
  </linearGradient>
  <linearGradient id="linearGradient4152">
   <stop style="stop-color:#cfd5d5;stop-opacity:1" offset="0"/>
   <stop style="stop-color:#fcfcfc;stop-opacity:1" offset="1"/>
  </linearGradient>
  <linearGradient xlink:href="#linearGradient4369" id="linearGradient4339" x1="24" y1="35" x2="24" y2="42" gradientUnits="userSpaceOnUse" gradientTransform="matrix(0.96296296,0,0,1,0.88888864,0)"/>
  <radialGradient xlink:href="#linearGradient4325" id="radialGradient4368" cx="24" cy="38.5" fx="24" fy="38.5" r="10" gradientTransform="matrix(2.1005949,-2.7194324e-7,7.7313908e-8,0.85000012,-26.41428,5.7750031)" gradientUnits="userSpaceOnUse"/>
  <linearGradient xlink:href="#linearGradient4152" id="linearGradient4351" x1="-30" y1="24.095" x2="-24.19" y2="23.127" gradientUnits="userSpaceOnUse" gradientTransform="matrix(1.0326692,0,0,1.0326692,0.98007606,0.11792555)"/>
  <linearGradient xlink:href="#linearGradient4355" id="linearGradient4361" x1="-44" y1="24" x2="-4" y2="24" gradientUnits="userSpaceOnUse" gradientTransform="matrix(1,0,0,0.97499975,7.5475448e-8,0.1000009)"/>
  <linearGradient xlink:href="#linearGradient4375" id="linearGradient4381" x1="11.139" y1="10.164" x2="10.977" y2="5.299" gradientUnits="userSpaceOnUse" gradientTransform="matrix(1.0833333,0,0,1.2,-1.4166667,-2)"/>
  <linearGradient xlink:href="#linearGradient4191" id="linearGradient4197" x1="37" y1="10" x2="37" y2="5" gradientUnits="userSpaceOnUse" gradientTransform="matrix(1.0833333,0,0,1.2,-16.583333,-2)"/>
  <linearGradient xlink:href="#linearGradient4224" id="linearGradient4230" x1="35.572" y1="1.395" x2="46.689" y2="1.395" gradientUnits="userSpaceOnUse"/>
  <linearGradient xlink:href="#linearGradient4207" id="linearGradient4234" gradientUnits="userSpaceOnUse" x1="24" y1="16" x2="24" y2="11" gradientTransform="matrix(1.0833334,0,0,1.2,10.499999,-9.1999999)"/>
  <linearGradient xlink:href="#linearGradient4250" id="linearGradient4240" gradientUnits="userSpaceOnUse" gradientTransform="matrix(1.0833333,0,0,1.2000001,-16.583333,3.9999994)" x1="37" y1="10" x2="37" y2="5"/>
  <linearGradient xlink:href="#linearGradient4244" id="linearGradient4242" gradientUnits="userSpaceOnUse" gradientTransform="matrix(1.0833334,0,0,1.2000001,10.499999,-3.2000009)" x1="24" y1="16" x2="24" y2="11"/>
 </defs>
 <g>
  <rect style="fill:url(#linearGradient4361);fill-opacity:1;stroke:#808080;stroke-width:0;stroke-linecap:round;stroke-linejoin:round;stroke-miterlimit:4;stroke-dasharray:none;stroke-opacity:1" width="40" height="39" x="-44" y="4" transform="matrix(0,-1,1,0,0,0)"/>
  <path style="fill:url(#linearGradient4339);fill-opacity:1;stroke:none" d="m 12.444444,35 23.111112,0 c 1.925925,2 1.925925,5 0,7 l -23.111112,0 c -1.925925,-2 -1.925925,-5 0,-7 z"/>
  <rect style="fill:url(#radialGradient4368);fill-opacity:1;stroke:none" width="20" height="5" x="14" y="36" rx="0" ry="0"/>
  <path style="fill:url(#linearGradient4197);fill-opacity:1;stroke:none" d="m 17,4 0,6 13,0 0,-6 -13,0 z"/>
  <path style="fill:url(#linearGradient4381);fill-opacity:1;stroke:none" d="M 4,4 4,10 17,10 17,4 4,4 Z"/>
  <path style="fill:#ffffff;fill-opacity:1;stroke:none;opacity:0.5" d="M 17 37 L 16 40 L 17 40 L 18 37 L 17 37 z M 19 37 L 18 40 L 19 40 L 20 37 L 19 37 z M 21 37 L 20 40 L 21 40 L 22 37 L 21 37 z"/>
  <path style="opacity:0.15;fill:#000000;fill-opacity:1;stroke:#808080;stroke-width:0;stroke-linecap:round;stroke-linejoin:round;stroke-miterlimit:4;stroke-dasharray:none;stroke-opacity:1" d="m 3.9999999,43 0,1 38.9999901,0 0,-1 -38.9999901,0 z"/>
  <path transform="matrix(0.70710678,0.70710678,-0.70710678,0.70710678,0,0)" style="opacity:0.2;fill:url(#linearGradient4230);fill-opacity:1;stroke:none;stroke-width:2;stroke-linecap:round;stroke-linejoin:round;stroke-miterlimit:4;stroke-dasharray:none;stroke-opacity:1" d="m 35.572233,0.03023463 1.156174,-1.62591423 22.459139,0 0,5.9805779 -22.425957,0 -0.824355,-1.4600046 z"/>
  <rect ry="9.294" rx="9.294" y="22" x="-30" height="6" width="6" style="fill:url(#linearGradient4351);fill-opacity:1;stroke:#808080;stroke-width:0;stroke-linecap:round;stroke-linejoin:round;stroke-miterlimit:4;stroke-dasharray:none;stroke-opacity:1" transform="matrix(0,-1,1,0,0,0)"/>
  <path d="M 30,3.9999997 30,10 l 13,0 0,-6.0000003 -13,0 z" style="fill:url(#linearGradient4234);fill-opacity:1;stroke:none"/>
  <path d="m 17,10 0,6 13,0 0,-6 -13,0 z" style="fill:url(#linearGradient4240);fill-opacity:1;stroke:none"/>
  <path style="fill:url(#linearGradient4242);fill-opacity:1;stroke:none" d="m 30,10 0,6 13,0 0,-6 -13,0 z"/>
 </g>
</svg>
