<?xml version="1.0" encoding="UTF-8" standalone="no"?>
<svg xmlns="http://www.w3.org/2000/svg" xmlns:xlink="http://www.w3.org/1999/xlink" version="1.1" viewBox="0 0 48 48" height="48" width="48">
 <defs>
  <linearGradient id="linearGradient4255">
   <stop style="stop-color:#000000;stop-opacity:1;" offset="0"/>
   <stop style="stop-color:#000000;stop-opacity:0;" offset="1"/>
  </linearGradient>
  <linearGradient id="linearGradient4235">
   <stop style="stop-color:#abdaf9;stop-opacity:1" offset="0"/>
   <stop style="stop-color:#7cbcec;stop-opacity:1" offset="1"/>
  </linearGradient>
  <linearGradient id="linearGradient4224">
   <stop style="stop-color:#375a7d;stop-opacity:1" offset="0"/>
   <stop style="stop-color:#54a3d8;stop-opacity:1" offset="1"/>
  </linearGradient>
  <linearGradient id="linearGradient4216">
   <stop style="stop-color:#c42c2c;stop-opacity:1" offset="0"/>
   <stop style="stop-color:#f36856;stop-opacity:1" offset="1"/>
  </linearGradient>
  <linearGradient id="b" y1="531.8" y2="507.82" x2="0" gradientUnits="userSpaceOnUse" gradientTransform="matrix(0.95240362,0,0,1.33561,-365.12593,-670.25)">
   <stop stop-color="#2a2c2f"/>
   <stop offset="1" stop-color="#424649"/>
  </linearGradient>
  <linearGradient xlink:href="#linearGradient4216" id="linearGradient4222" x1="24.358" y1="-2.839" x2="22.09" y2="3.458" gradientUnits="userSpaceOnUse"/>
  <linearGradient xlink:href="#linearGradient4224" id="linearGradient4230" x1="38" y1="33" x2="35" y2="15" gradientUnits="userSpaceOnUse" gradientTransform="translate(-1,0)"/>
  <linearGradient xlink:href="#linearGradient4235" id="linearGradient4241" x1="6" y1="20.242" x2="21" y2="24" gradientUnits="userSpaceOnUse"/>
  <linearGradient xlink:href="#linearGradient4255" id="linearGradient4261" x1="21.262" y1="4.028" x2="34.74" y2="17.506" gradientUnits="userSpaceOnUse"/>
  <linearGradient xlink:href="#linearGradient4255" id="linearGradient4275" x1="32.266" y1="20.126" x2="42.889" y2="30.749" gradientUnits="userSpaceOnUse" gradientTransform="translate(-1,0)"/>
 </defs>
 <path d="M 4,7 44,7 44,41 4,41 Z" style="fill:url(#b);stroke-width:2;stroke-linejoin:round"/>
 <path style="fill:#000000;stroke-width:2;stroke-linejoin:round;fill-opacity:1;opacity:0.15" d="M 4 40 L 4 41 L 44 41 L 44 40 L 4 40 z"/>
 <path d="m 18,12 0,2 3,0 0,-2 -3,0 z m -3,4 0,2 6,0 0,-2 -6,0 z m -5,4 0,2 11,0 0,-2 -11,0 z m -4,4 0,2 15,0 0,-2 -15,0 z m 4,4 0,2 11,0 0,-2 -11,0 z m 5,4 0,2 6,0 0,-2 -6,0 z" style="color:#000000;font-style:normal;font-variant:normal;font-weight:normal;font-stretch:normal;font-size:medium;line-height:normal;font-family:sans-serif;text-indent:0;text-align:start;text-decoration:none;text-decoration-line:none;text-decoration-style:solid;text-decoration-color:#000000;letter-spacing:normal;word-spacing:normal;text-transform:none;direction:ltr;block-progression:tb;writing-mode:lr-tb;baseline-shift:baseline;text-anchor:start;white-space:normal;clip-rule:nonzero;display:inline;overflow:visible;visibility:visible;opacity:0.1;isolation:auto;mix-blend-mode:normal;color-interpolation:sRGB;color-interpolation-filters:linearRGB;solid-color:#000000;solid-opacity:1;fill:#000000;fill-opacity:1;fill-rule:evenodd;stroke:none;stroke-width:7.50000048;stroke-linecap:butt;stroke-linejoin:miter;stroke-miterlimit:4;stroke-dasharray:none;stroke-dashoffset:0;stroke-opacity:1;color-rendering:auto;image-rendering:auto;shape-rendering:auto;text-rendering:auto;enable-background:accumulate"/>
 <path d="M 23,5 23.039062,43 25,43 25,5 Z" style="opacity:1;fill:#e05e4c;fill-opacity:1;stroke:none;stroke-width:3;stroke-linecap:round;stroke-linejoin:round;stroke-miterlimit:4;stroke-dasharray:none;stroke-dashoffset:0;stroke-opacity:1"/>
 <path style="color:#000000;font-style:normal;font-variant:normal;font-weight:normal;font-stretch:normal;font-size:medium;line-height:normal;font-family:sans-serif;text-indent:0;text-align:start;text-decoration:none;text-decoration-line:none;text-decoration-style:solid;text-decoration-color:#000000;letter-spacing:normal;word-spacing:normal;text-transform:none;direction:ltr;block-progression:tb;writing-mode:lr-tb;baseline-shift:baseline;text-anchor:start;white-space:normal;clip-rule:nonzero;display:inline;overflow:visible;visibility:visible;opacity:1;isolation:auto;mix-blend-mode:normal;color-interpolation:sRGB;color-interpolation-filters:linearRGB;solid-color:#000000;solid-opacity:1;fill:url(#linearGradient4241);fill-opacity:1;fill-rule:evenodd;stroke:none;stroke-width:7.50000048;stroke-linecap:butt;stroke-linejoin:miter;stroke-miterlimit:4;stroke-dasharray:none;stroke-dashoffset:0;stroke-opacity:1;color-rendering:auto;image-rendering:auto;shape-rendering:auto;text-rendering:auto;enable-background:accumulate" d="M 18 13 L 18 15 L 21 15 L 21 13 L 18 13 z M 15 17 L 15 19 L 21 19 L 21 17 L 15 17 z M 10 21 L 10 23 L 21 23 L 21 21 L 10 21 z M 6 25 L 6 27 L 21 27 L 21 25 L 6 25 z M 10 29 L 10 31 L 21 31 L 21 29 L 10 29 z M 15 33 L 15 35 L 21 35 L 21 33 L 15 33 z"/>
 <path style="opacity:0.4;fill:url(#linearGradient4261);fill-opacity:1;stroke:none;stroke-width:2;stroke-linecap:round;stroke-linejoin:round;stroke-miterlimit:4;stroke-dasharray:none;stroke-opacity:1" d="M 29.982422 4.0214844 L 23.283203 4.5898438 L 20.519531 6.1933594 L 23.980469 11.972656 L 44 31.994141 L 44 18.001953 L 32.998047 7 L 27.75 7 L 29.982422 4.0214844 z"/>
 <path style="opacity:1;fill:url(#linearGradient4222);fill-opacity:1;stroke:none;stroke-width:2;stroke-linecap:round;stroke-linejoin:round;stroke-miterlimit:4;stroke-dasharray:none;stroke-opacity:1" d="m 27.59786,3.3897637 -3.872984,0 -3.872983,0 1.936492,-3.35410195 1.936491,-3.35410205 1.936492,3.35410195 z" transform="matrix(1.5491933,0,0,-1.1925696,-12.75442,8.042529)"/>
 <path style="opacity:0.4;fill:url(#linearGradient4275);fill-opacity:1;stroke:none;stroke-width:2;stroke-linecap:round;stroke-linejoin:round;stroke-miterlimit:4;stroke-dasharray:none;stroke-opacity:1" d="M 31.699219,19.294922 29.896484,25.410156 29.326172,32.669922 37.65625,41 44,41 44,26.484375 40.652344,23.136719 31.699219,19.294922 Z"/>
 <path d="m 30.036863,15.001386 c -0.491018,0.02978 -1.019738,0.515493 -1.018503,1.053686 L 29,31.945127 c 0,0.717646 0.938879,1.342107 1.475972,0.915778 l 10.119041,-7.972194 c 0.5406,-0.421061 0.539365,-1.408778 0,-1.831707 L 30.494741,15.139288 c -0.13483,-0.10564 -0.293802,-0.147733 -0.457547,-0.137902 z" style="opacity:1;fill:url(#linearGradient4230);fill-opacity:1;fill-rule:nonzero;stroke:none;stroke-width:2.30002117;stroke-linecap:butt;stroke-linejoin:round;stroke-miterlimit:4;stroke-dasharray:none;stroke-dashoffset:80;stroke-opacity:1"/>
</svg>
