<?xml version="1.0" encoding="UTF-8" standalone="no"?>
<svg xmlns="http://www.w3.org/2000/svg" xmlns:xlink="http://www.w3.org/1999/xlink" width="48" height="48" version="1.1">
 <defs>
  <linearGradient id="linearGradient4317">
   <stop style="stop-color:#3b85b5;stop-opacity:1" offset="0"/>
   <stop style="stop-color:#7cbcec;stop-opacity:1" offset="1"/>
  </linearGradient>
  <linearGradient id="linearGradient4309">
   <stop style="stop-color:#3bb566;stop-opacity:1;" offset="0"/>
   <stop style="stop-color:#7ceca4;stop-opacity:1" offset="1"/>
  </linearGradient>
  <linearGradient id="linearGradient4301">
   <stop style="stop-color:#ffa92d;stop-opacity:1;" offset="0"/>
   <stop style="stop-color:#ffc169;stop-opacity:1" offset="1"/>
  </linearGradient>
  <linearGradient id="linearGradient4293">
   <stop style="stop-color:#bf4231;stop-opacity:1;" offset="0"/>
   <stop style="stop-color:#f58273;stop-opacity:1" offset="1"/>
  </linearGradient>
  <linearGradient xlink:href="#linearGradient4293" id="linearGradient4299" x1="16" y1="20" x2="7" y2="7" gradientUnits="userSpaceOnUse"/>
  <linearGradient xlink:href="#linearGradient4301" id="linearGradient4307" x1="39" y1="20" x2="30" y2="7" gradientUnits="userSpaceOnUse"/>
  <linearGradient xlink:href="#linearGradient4309" id="linearGradient4315" x1="17" y1="40.124" x2="10" y2="28" gradientUnits="userSpaceOnUse"/>
  <linearGradient xlink:href="#linearGradient4317" id="linearGradient4323" x1="38" y1="42" x2="30" y2="29" gradientUnits="userSpaceOnUse"/>
 </defs>
 <g>
  <path style="fill:url(#linearGradient4299);fill-opacity:1;stroke:#808080;stroke-width:0;stroke-linecap:round;stroke-linejoin:round;stroke-miterlimit:4;stroke-dasharray:none;stroke-opacity:1" d="m 12.999074,4.0000048 c -0.242518,0 -0.484965,0.092118 -0.670794,0.2779369 L 4.2787495,12.32885 c -0.3716597,0.371638 -0.3716597,0.969871 0,1.341509 l 8.0495305,8.050908 c 0.371659,0.371638 0.971781,0.371638 1.34344,0 l 8.04953,-8.050908 c 0.371661,-0.371638 0.371661,-0.969871 0,-1.341509 L 13.67172,4.2779417 C 13.485891,4.0921228 13.241591,4.0000048 12.999074,4.0000048 Z"/>
  <path d="m 34.999074,4.0000048 c -0.242518,0 -0.484965,0.092118 -0.670794,0.2779369 L 26.278749,12.32885 c -0.371659,0.371638 -0.371659,0.969871 0,1.341509 l 8.049531,8.050908 c 0.371659,0.371638 0.971781,0.371638 1.34344,0 l 8.04953,-8.050908 c 0.371661,-0.371638 0.371661,-0.969871 0,-1.341509 L 35.67172,4.2779417 C 35.485891,4.0921228 35.241591,4.0000048 34.999074,4.0000048 Z" style="fill:url(#linearGradient4307);fill-opacity:1;stroke:#808080;stroke-width:0;stroke-linecap:round;stroke-linejoin:round;stroke-miterlimit:4;stroke-dasharray:none;stroke-opacity:1"/>
  <path d="m 12.999074,26.000005 c -0.242518,0 -0.484965,0.09212 -0.670794,0.277937 L 4.2787495,34.32885 c -0.3716597,0.371638 -0.3716597,0.969871 0,1.341509 l 8.0495305,8.050908 c 0.371659,0.371638 0.971781,0.371638 1.34344,0 l 8.04953,-8.050908 c 0.371661,-0.371638 0.371661,-0.969871 0,-1.341509 l -8.04953,-8.050908 c -0.185829,-0.185819 -0.430129,-0.277937 -0.672646,-0.277937 z" style="fill:url(#linearGradient4315);fill-opacity:1;stroke:#808080;stroke-width:0;stroke-linecap:round;stroke-linejoin:round;stroke-miterlimit:4;stroke-dasharray:none;stroke-opacity:1"/>
  <path style="fill:url(#linearGradient4323);fill-opacity:1;stroke:#808080;stroke-width:0;stroke-linecap:round;stroke-linejoin:round;stroke-miterlimit:4;stroke-dasharray:none;stroke-opacity:1" d="m 34.999074,26.000005 c -0.242518,0 -0.484965,0.09212 -0.670794,0.277937 l -8.049531,8.050908 c -0.371659,0.371638 -0.371659,0.969871 0,1.341509 l 8.049531,8.050908 c 0.371659,0.371638 0.971781,0.371638 1.34344,0 l 8.04953,-8.050908 c 0.371661,-0.371638 0.371661,-0.969871 0,-1.341509 l -8.04953,-8.050908 c -0.185829,-0.185819 -0.430129,-0.277937 -0.672646,-0.277937 z"/>
  <path style="fill:#000000;fill-opacity:1;stroke:#808080;stroke-width:0;stroke-linecap:round;stroke-linejoin:round;stroke-miterlimit:4;stroke-dasharray:none;stroke-opacity:1;opacity:0.15" d="M 4.1660156 12.5 C 3.9325177 12.867121 3.9582941 13.348938 4.2792969 13.669922 L 12.328125 21.720703 C 12.699784 22.092341 13.300216 22.092341 13.671875 21.720703 L 21.720703 13.669922 C 22.041707 13.348938 22.067483 12.867121 21.833984 12.5 C 21.797319 12.557429 21.77096 12.619668 21.720703 12.669922 L 13.671875 20.720703 C 13.300216 21.092341 12.699784 21.092341 12.328125 20.720703 L 4.2792969 12.669922 C 4.2290403 12.619668 4.2026806 12.557429 4.1660156 12.5 z M 26.166016 12.5 C 25.932518 12.867121 25.958295 13.348938 26.279297 13.669922 L 34.328125 21.720703 C 34.699784 22.092341 35.300216 22.092341 35.671875 21.720703 L 43.720703 13.669922 C 44.041707 13.348938 44.067483 12.867121 43.833984 12.5 C 43.797319 12.557429 43.77096 12.619668 43.720703 12.669922 L 35.671875 20.720703 C 35.300216 21.092341 34.699784 21.092341 34.328125 20.720703 L 26.279297 12.669922 C 26.22904 12.619668 26.202681 12.557429 26.166016 12.5 z M 4.1660156 34.5 C 3.9325177 34.867121 3.9582941 35.348938 4.2792969 35.669922 L 12.328125 43.720703 C 12.699784 44.092341 13.300216 44.092341 13.671875 43.720703 L 21.720703 35.669922 C 22.041707 35.348938 22.067483 34.867121 21.833984 34.5 C 21.797319 34.557429 21.77096 34.619668 21.720703 34.669922 L 13.671875 42.720703 C 13.300216 43.092341 12.699784 43.092341 12.328125 42.720703 L 4.2792969 34.669922 C 4.2290403 34.619668 4.2026806 34.557429 4.1660156 34.5 z M 26.166016 34.5 C 25.932518 34.867121 25.958295 35.348938 26.279297 35.669922 L 34.328125 43.720703 C 34.699784 44.092341 35.300216 44.092341 35.671875 43.720703 L 43.720703 35.669922 C 44.041707 35.348938 44.067483 34.867121 43.833984 34.5 C 43.797319 34.557429 43.77096 34.619668 43.720703 34.669922 L 35.671875 42.720703 C 35.300216 43.092341 34.699784 43.092341 34.328125 42.720703 L 26.279297 34.669922 C 26.22904 34.619668 26.202681 34.557429 26.166016 34.5 z"/>
 </g>
</svg>
