<svg height="48" width="48" xmlns="http://www.w3.org/2000/svg" xmlns:xlink="http://www.w3.org/1999/xlink"><linearGradient id="a" gradientTransform="matrix(.70710678 -.70710678 .70710678 .70710678 -621.999909 -62.972876)" gradientUnits="userSpaceOnUse" x2="0" xlink:href="#c" y1="518.8" y2="526.8"/><linearGradient id="b" gradientUnits="userSpaceOnUse" x1="24" x2="24" y1="40" y2="8"><stop offset="0" stop-color="#cfd5d5"/><stop offset="1" stop-color="#eff1f1"/></linearGradient><linearGradient id="c" gradientTransform="translate(-484.55 133.21)" gradientUnits="userSpaceOnUse" x2="0" y1="518.8" y2="526.8"><stop offset="0"/><stop offset="1" stop-opacity="0"/></linearGradient><linearGradient id="d" gradientTransform="matrix(.70711 -.70711 .70711 .70711 -622.00987 -73.980138)" gradientUnits="userSpaceOnUse" x2="0" xlink:href="#c" y1="518.8" y2="526.8"/><linearGradient id="e" gradientTransform="matrix(.70711 -.70711 .70711 .70711 -611.01 -73.98)" gradientUnits="userSpaceOnUse" x2="0" xlink:href="#c" y1="518.8" y2="526.8"/><linearGradient id="f" gradientTransform="matrix(.70710678 -.70710678 .70710678 .70710678 -622.009381 -51.982203)" gradientUnits="userSpaceOnUse" x2="0" xlink:href="#c" y1="518.8" y2="526.8"/><linearGradient id="g" gradientTransform="matrix(.70710678 -.70710678 .70710678 .70710678 -633.004891 -51.975132)" gradientUnits="userSpaceOnUse" x2="0" xlink:href="#c" y1="518.8" y2="526.8"/><linearGradient id="h" gradientTransform="translate(22 -11)" gradientUnits="userSpaceOnUse" x1="406.57" x2="400.6" y1="521.8" y2="515.82"><stop offset="0" stop-color="#197cf1"/><stop offset="1" stop-color="#21c9fb"/></linearGradient><linearGradient id="i" gradientTransform="translate(-362.57 -499.8)" gradientUnits="userSpaceOnUse" x1="406.57" x2="400.6" xlink:href="#h" y1="521.8" y2="515.82"/><linearGradient id="j" gradientTransform="translate(11)" gradientUnits="userSpaceOnUse" x1="406.57" x2="400.6" y1="521.8" y2="515.82"><stop offset="0" stop-color="#da4453"/><stop offset="1" stop-color="#ff7336"/></linearGradient><linearGradient id="k" gradientTransform="translate(-373.57 -510.8)" gradientUnits="userSpaceOnUse" x1="406.57" x2="400.6" xlink:href="#h" y1="521.8" y2="515.82"/><linearGradient id="l" gradientTransform="translate(-384.57 -499.8)" gradientUnits="userSpaceOnUse" x1="406.57" x2="400.6" xlink:href="#h" y1="521.8" y2="515.82"/><linearGradient id="m" gradientTransform="translate(-373.57 -488.8)" gradientUnits="userSpaceOnUse" x1="406.57" x2="400.6" xlink:href="#h" y1="521.8" y2="515.82"/><linearGradient id="n" gradientTransform="translate(-384.57 -488.8)" gradientUnits="userSpaceOnUse" x1="406.57" x2="400.6" xlink:href="#j" y1="521.8" y2="515.82"/><linearGradient id="o" gradientTransform="translate(-384.54487 -499.82514)" gradientUnits="userSpaceOnUse" x1="137.98" x2="143.68" xlink:href="#c" y1="806.11" y2="811.81"/><linearGradient id="p" gradientTransform="matrix(.70710678 -.70710678 .70710678 .70710678 -633.004891 -62.977713)" gradientUnits="userSpaceOnUse" x2="0" xlink:href="#c" y1="518.8" y2="526.8"/><linearGradient id="q" gradientTransform="translate(-362.57 -510.8)" gradientUnits="userSpaceOnUse" x1="406.57" x2="400.6" xlink:href="#h" y1="521.8" y2="515.82"/><linearGradient id="r" gradientTransform="translate(-373.57 -499.8)" gradientUnits="userSpaceOnUse" x1="406.57" x2="400.6" xlink:href="#j" y1="521.8" y2="515.82"/><path d="m7.000007 6.999988h34v34h-34z" fill="#909c9c" stroke-linecap="round" stroke-linejoin="round" stroke-width="3"/><path d="m8 8v10h10v-10zm11 0v10h10v-10zm11 0v10h10v-10zm-22 11v10h10v-10zm11 0v10h10v-10zm11.265625 0c-.147 0-.265625.118625-.265625.265625v9.46875c0 .147.118625.267578.265625.267578h9.46875c.147 0 .267578-.120578.267578-.267578v-9.46875c0-.147-.120578-.265625-.267578-.265625zm-22.265625 11v10h10v-10zm11 0v10h10v-10zm11 0v10h10v-10z" fill="url(#b)" stroke-linecap="round" stroke-linejoin="round" stroke-width="3"/><path d="m29.789062 7-12.236328 12.236328 11.707032 11.707031 11.740234-11.740234v-12.203125zm.414063 1h9.796875v10.789062l-10.740234 10.740235-10.292969-10.292969z" fill="#3daefd" fill-opacity=".914127"/><g stroke-linejoin="round" stroke-width="3"><path d="m41 7-2.975 2.975 2.975 2.975z" fill="url(#e)" opacity=".2"/><circle cx="40.500008" cy="7.499988" fill="url(#q)" r="3.5" stroke-linecap="round"/><path d="m27.025134 20.974863 4.949748-4.949747 6.363961 6.363961-4.949748 4.949747z" fill="url(#a)" opacity=".2" stroke-linecap="round"/><circle cx="29.500008" cy="18.499989" fill="url(#r)" r="3.5" stroke-linecap="round"/><path d="m30.000134 6.9998623-2.975 2.975 6 6.0299997 5-4-5-4.9999997z" fill="url(#d)" opacity=".2"/><circle cx="29.500008" cy="7.499988" fill="url(#k)" r="3.5" stroke-linecap="round"/><path d="m16.027213 20.977081 4.949747-4.949748 6.363962 6.363961-4.949748 4.949748z" fill="url(#p)" opacity=".2" stroke-linecap="round"/><circle cx="18.500008" cy="18.499989" fill="url(#l)" r="3.5" stroke-linecap="round"/><path d="m27.022714 31.972581 4.949747-4.949747 6.363961 6.363961-4.949747 4.949747z" fill="url(#f)" opacity=".2" stroke-linecap="round"/><circle cx="29.500008" cy="29.499989" fill="url(#m)" r="3.5" stroke-linecap="round"/><path d="m16.020155 31.972603 4.949748-4.949747 6.363961 6.363961-4.949748 4.949747z" fill="url(#g)" opacity=".2" stroke-linecap="round"/><circle cx="18.500008" cy="29.499989" fill="url(#n)" r="3.5" stroke-linecap="round"/><path d="m41.000007 17.999987-2.974874 2.974874 2.974874 2.974874z" fill="url(#o)" opacity=".2"/><circle cx="40.500008" cy="18.499989" fill="url(#i)" r="3.5" stroke-linecap="round"/></g></svg>