<?xml version="1.0" encoding="UTF-8" standalone="no"?>
<svg xmlns="http://www.w3.org/2000/svg" xmlns:xlink="http://www.w3.org/1999/xlink" width="48" height="48" id="svg2" version="1.1">
 <defs id="defs4">
  <linearGradient id="linearGradient4166">
   <stop style="stop-color:#000000;stop-opacity:1;" offset="0" id="stop4168"/>
   <stop style="stop-color:#000000;stop-opacity:0;" offset="1" id="stop4170"/>
  </linearGradient>
  <linearGradient id="linearGradient4153">
   <stop style="stop-color:#bf4231;stop-opacity:1" offset="0" id="stop4155"/>
   <stop style="stop-color:#e05e4c;stop-opacity:1" offset="1" id="stop4157"/>
  </linearGradient>
  <style id="current-color-scheme" type="text/css">
   .ColorScheme-Text { color:#4d4d4d; }
  </style>
  <linearGradient xlink:href="#c-4" id="linearGradient4269" x1="13.559" y1="3.186" x2="33.627" y2="43.797" gradientUnits="userSpaceOnUse" gradientTransform="matrix(-1,0,0,-1,48.00038,48)"/>
  <linearGradient gradientUnits="userSpaceOnUse" x2="4" x1="44" id="c-4">
   <stop id="stop4683" stop-color="#42a603" style="stop-color:#459811;stop-opacity:1"/>
   <stop id="stop4685" stop-color="#78da06" offset="1" style="stop-color:#9cdb4e;stop-opacity:1"/>
  </linearGradient>
  <linearGradient xlink:href="#linearGradient4153" id="linearGradient4159" x1="11.663" y1="13.65" x2="9.664" y2="5.886" gradientUnits="userSpaceOnUse"/>
  <linearGradient xlink:href="#linearGradient4166" id="linearGradient4172" x1="10.093" y1="9.867" x2="19.545" y2="18.035" gradientUnits="userSpaceOnUse"/>
 </defs>
 <path style="fill:url(#linearGradient4269);fill-opacity:1" d="m 24.00038,44 c 5.107739,0 10.215097,-1.957285 14.128907,-5.871094 7.827617,-7.827617 7.827617,-20.430194 0,-28.2578118 -3.91381,-3.913809 -9.021168,-5.871094 -14.128907,-5.871094 l -19.9999998,0 0,19.9999998 c 0,5.107739 1.957285,10.215098 5.871094,14.128906 C 13.785283,42.042715 18.892641,44 24.00038,44 Z" id="path14"/>
 <path style="opacity:0.15;fill:#000000;fill-opacity:1;stroke:none;stroke-width:10;stroke-miterlimit:4;stroke-dasharray:none;stroke-opacity:0.39215686" d="M 26,9.5 A 1.5,1.5 0 0 0 24.5,11 1.5,1.5 0 0 0 26,12.5 1.5,1.5 0 0 0 27.5,11 1.5,1.5 0 0 0 26,9.5 Z m 5,1 A 1.5,1.5 0 0 0 29.5,12 1.5,1.5 0 0 0 31,13.5 1.5,1.5 0 0 0 32.5,12 1.5,1.5 0 0 0 31,10.5 Z m -8,2 A 1.5,1.5 0 0 0 21.5,14 1.5,1.5 0 0 0 23,15.5 1.5,1.5 0 0 0 24.5,14 1.5,1.5 0 0 0 23,12.5 Z m 12,1 A 1.5,1.5 0 0 0 33.5,15 1.5,1.5 0 0 0 35,16.5 1.5,1.5 0 0 0 36.5,15 1.5,1.5 0 0 0 35,13.5 Z m -10,3 A 1.5,1.5 0 0 0 23.5,18 1.5,1.5 0 0 0 25,19.5 1.5,1.5 0 0 0 26.5,18 1.5,1.5 0 0 0 25,16.5 Z m 13,1 A 1.5,1.5 0 0 0 36.5,19 1.5,1.5 0 0 0 38,20.5 1.5,1.5 0 0 0 39.5,19 1.5,1.5 0 0 0 38,17.5 Z m -10,3 A 1.5,1.5 0 0 0 26.5,22 1.5,1.5 0 0 0 28,23.5 1.5,1.5 0 0 0 29.5,22 1.5,1.5 0 0 0 28,20.5 Z m 11,1 A 1.5,1.5 0 0 0 37.5,23 1.5,1.5 0 0 0 39,24.5 1.5,1.5 0 0 0 40.5,23 1.5,1.5 0 0 0 39,21.5 Z m -14,2 A 1.5,1.5 0 0 0 23.5,25 1.5,1.5 0 0 0 25,26.5 1.5,1.5 0 0 0 26.5,25 1.5,1.5 0 0 0 25,23.5 Z m 7,0 A 1.5,1.5 0 0 0 30.5,25 1.5,1.5 0 0 0 32,26.5 1.5,1.5 0 0 0 33.5,25 1.5,1.5 0 0 0 32,23.5 Z m 4,2 A 1.5,1.5 0 0 0 34.5,27 1.5,1.5 0 0 0 36,28.5 1.5,1.5 0 0 0 37.5,27 1.5,1.5 0 0 0 36,25.5 Z m -14,1 A 1.5,1.5 0 0 0 20.5,28 1.5,1.5 0 0 0 22,29.5 1.5,1.5 0 0 0 23.5,28 1.5,1.5 0 0 0 22,26.5 Z m -3,3 A 1.5,1.5 0 0 0 17.5,31 1.5,1.5 0 0 0 19,32.5 1.5,1.5 0 0 0 20.5,31 1.5,1.5 0 0 0 19,29.5 Z m -3,3 A 1.5,1.5 0 0 0 14.5,34 1.5,1.5 0 0 0 16,35.5 1.5,1.5 0 0 0 17.5,34 1.5,1.5 0 0 0 16,32.5 Z m 3,3 A 1.5,1.5 0 0 0 17.5,37 1.5,1.5 0 0 0 19,38.5 1.5,1.5 0 0 0 20.5,37 1.5,1.5 0 0 0 19,35.5 Z" id="path4342-73"/>
 <path style="fill:#000000;fill-opacity:1;opacity:0.15" d="M 4.0234375 23.5 C 3.891335 28.773366 5.8293635 34.087176 9.8710938 38.128906 C 13.784902 42.042715 18.892451 44 24 44 L 24 43 C 18.892451 43 13.784902 41.042715 9.8710938 37.128906 C 6.0852063 33.343019 4.1471779 28.439561 4.0234375 23.5 z" id="path14-1"/>
 <path style="opacity:1;fill:#ffffff;fill-opacity:1;stroke:none;stroke-width:10;stroke-miterlimit:4;stroke-dasharray:none;stroke-opacity:0.39215686" d="M 25.5 9 A 1.5 1.5 0 0 0 24 10.5 A 1.5 1.5 0 0 0 25.5 12 A 1.5 1.5 0 0 0 27 10.5 A 1.5 1.5 0 0 0 25.5 9 z M 30.5 10 A 1.5 1.5 0 0 0 29 11.5 A 1.5 1.5 0 0 0 30.5 13 A 1.5 1.5 0 0 0 32 11.5 A 1.5 1.5 0 0 0 30.5 10 z M 22.5 12 A 1.5 1.5 0 0 0 21 13.5 A 1.5 1.5 0 0 0 22.5 15 A 1.5 1.5 0 0 0 24 13.5 A 1.5 1.5 0 0 0 22.5 12 z M 34.5 13 A 1.5 1.5 0 0 0 33 14.5 A 1.5 1.5 0 0 0 34.5 16 A 1.5 1.5 0 0 0 36 14.5 A 1.5 1.5 0 0 0 34.5 13 z M 24.5 16 A 1.5 1.5 0 0 0 23 17.5 A 1.5 1.5 0 0 0 24.5 19 A 1.5 1.5 0 0 0 26 17.5 A 1.5 1.5 0 0 0 24.5 16 z M 37.5 17 A 1.5 1.5 0 0 0 36 18.5 A 1.5 1.5 0 0 0 37.5 20 A 1.5 1.5 0 0 0 39 18.5 A 1.5 1.5 0 0 0 37.5 17 z M 27.5 20 A 1.5 1.5 0 0 0 26 21.5 A 1.5 1.5 0 0 0 27.5 23 A 1.5 1.5 0 0 0 29 21.5 A 1.5 1.5 0 0 0 27.5 20 z M 38.5 21 A 1.5 1.5 0 0 0 37 22.5 A 1.5 1.5 0 0 0 38.5 24 A 1.5 1.5 0 0 0 40 22.5 A 1.5 1.5 0 0 0 38.5 21 z M 24.5 23 A 1.5 1.5 0 0 0 23 24.5 A 1.5 1.5 0 0 0 24.5 26 A 1.5 1.5 0 0 0 26 24.5 A 1.5 1.5 0 0 0 24.5 23 z M 31.5 23 A 1.5 1.5 0 0 0 30 24.5 A 1.5 1.5 0 0 0 31.5 26 A 1.5 1.5 0 0 0 33 24.5 A 1.5 1.5 0 0 0 31.5 23 z M 35.5 25 A 1.5 1.5 0 0 0 34 26.5 A 1.5 1.5 0 0 0 35.5 28 A 1.5 1.5 0 0 0 37 26.5 A 1.5 1.5 0 0 0 35.5 25 z M 21.5 26 A 1.5 1.5 0 0 0 20 27.5 A 1.5 1.5 0 0 0 21.5 29 A 1.5 1.5 0 0 0 23 27.5 A 1.5 1.5 0 0 0 21.5 26 z M 18.5 29 A 1.5 1.5 0 0 0 17 30.5 A 1.5 1.5 0 0 0 18.5 32 A 1.5 1.5 0 0 0 20 30.5 A 1.5 1.5 0 0 0 18.5 29 z M 15.5 32 A 1.5 1.5 0 0 0 14 33.5 A 1.5 1.5 0 0 0 15.5 35 A 1.5 1.5 0 0 0 17 33.5 A 1.5 1.5 0 0 0 15.5 32 z M 18.5 35 A 1.5 1.5 0 0 0 17 36.5 A 1.5 1.5 0 0 0 18.5 38 A 1.5 1.5 0 0 0 20 36.5 A 1.5 1.5 0 0 0 18.5 35 z" id="path4342"/>
 <path style="opacity:0.15;fill:#000000;fill-opacity:1" d="M 43.993679,23.5 C 44.125781,28.773366 42.187753,34.087176 38.146022,38.128906 34.232214,42.042715 29.124665,44 24.017116,44 l 0,-1 C 29.124665,43 34.232214,41.042715 38.146022,37.128906 41.93191,33.343019 43.869938,28.439561 43.993679,23.5 Z" id="path14-1-1"/>
 <path style="opacity:0.2;fill:url(#linearGradient4172);fill-opacity:1;stroke:none;stroke-width:2;stroke-linecap:round;stroke-linejoin:round;stroke-miterlimit:4;stroke-dasharray:none;stroke-opacity:1" d="M 13.568359 6.5019531 L 6.5039062 13.568359 L 34.136719 41.201172 C 35.556328 40.36031 36.905964 39.351849 38.128906 38.128906 C 39.352094 36.905718 40.362222 35.556665 41.203125 34.136719 L 13.568359 6.5019531 z" id="rect4161"/>
 <path style="opacity:1;fill:url(#linearGradient4159);fill-opacity:1;stroke:none;stroke-width:2;stroke-linecap:round;stroke-linejoin:round;stroke-miterlimit:4;stroke-dasharray:none;stroke-opacity:1" d="M 5.757,7.1719316 8.5854271,10.000359 5.757,12.828786 7.1712136,14.243 9.999641,11.414573 12.828068,14.243 14.242282,12.828786 11.413855,10.000359 14.242282,7.1719316 12.828068,5.757718 9.999641,8.5861451 7.1712136,5.757718 5.757,7.1719316 Z" id="rect4146"/>
</svg>
