<svg width="48" xmlns="http://www.w3.org/2000/svg" height="48" xmlns:xlink="http://www.w3.org/1999/xlink">
 <defs>
  <linearGradient id="a" y1="4.716" x1="17.483" y2="39.833" x2="37.758" gradientUnits="userSpaceOnUse" gradientTransform="matrix(-.99376-.00423.00423.98887 47.823 2.34)">
   <stop stop-color="#3fc380"/>
   <stop offset="1" stop-color="#3f8ed3"/>
  </linearGradient>
  <linearGradient xlink:href="#a" id="b" y1="4.716" x1="17.483" y2="39.833" x2="37.758" gradientUnits="userSpaceOnUse" gradientTransform="matrix(-.99376-.00423.00423.98887 47.823 31.34)"/>
  <linearGradient xlink:href="#a" id="c" y1="4.716" x1="17.483" y2="39.833" x2="37.758" gradientUnits="userSpaceOnUse" gradientTransform="matrix(-.99376-.00423.00423.98887 47.823 16.34)"/>
  <linearGradient id="d" y1="4.716" x1="17.483" y2="39.833" x2="37.758" gradientUnits="userSpaceOnUse" gradientTransform="matrix(-.99376-.0067.00423 1.56572 47.823 12.372)">
   <stop stop-color="#148e76"/>
   <stop offset="1" stop-color="#218059"/>
  </linearGradient>
  <linearGradient id="e" y1="18" x1="4" y2="31" x2="43" gradientUnits="userSpaceOnUse" gradientTransform="translate(0-2)">
   <stop stop-color="#292c2f"/>
   <stop offset="1" stop-opacity="0"/>
  </linearGradient>
  <linearGradient xlink:href="#e" id="f" y1="18" x1="4" y2="31" x2="43" gradientUnits="userSpaceOnUse" gradientTransform="translate(0 14)"/>
  <linearGradient xlink:href="#d" id="g" y1="4.716" x1="17.483" y2="39.833" x2="37.758" gradientUnits="userSpaceOnUse" gradientTransform="matrix(.99376.0067-.00423-1.56572.177 35.628)"/>
 </defs>
 <g stroke-linejoin="bevel" stroke-width="2">
  <path fill="url(#g)" d="m42 18h-36l-2-2h40z"/>
  <path fill="url(#d)" d="m6 30h36l2 2h-40z"/>
  <path fill="url(#a)" d="m4 4h40v12h-40z"/>
  <path fill="url(#b)" d="m4 32h40v12h-40z"/>
  <path fill="url(#c)" d="m4 18h40v12h-40z"/>
 </g>
 <g fill-rule="evenodd">
  <path opacity=".2" fill="url(#e)" d="m4 18l12 12h28v-12z"/>
  <path opacity=".2" fill="url(#f)" d="m4 32l12 12h28v-12z"/>
 </g>
 <path opacity=".1" stroke-linejoin="bevel" stroke-width="2" d="m4 43h40v1h-40z"/>
</svg>
