<svg width="48" xmlns="http://www.w3.org/2000/svg" height="48">
 <defs>
  <linearGradient id="a" y1="543.8" y2="503.8" gradientUnits="userSpaceOnUse" x2="0" gradientTransform="matrix(1.01818 0 0 1-3.065 0)">
   <stop stop-color="#197cf1"/>
   <stop offset="1" stop-color="#21c9fb"/>
  </linearGradient>
  <linearGradient id="b" y1="524.8" y2="531.8" x1="401.57" gradientUnits="userSpaceOnUse" x2="408.57" gradientTransform="matrix(1.42857 0 0 1.42265-159.1-232.81)">
   <stop stop-color="#292c2f"/>
   <stop offset="1" stop-opacity="0"/>
  </linearGradient>
  <linearGradient id="c" y1="532.79" y2="514.8" x2="0" gradientUnits="userSpaceOnUse">
   <stop stop-color="#7cbaf8"/>
   <stop offset="1" stop-color="#f4fcff"/>
  </linearGradient>
 </defs>
 <g transform="translate(-384.57-499.8)">
  <path fill="url(#a)" d="m392.57 503.8v40h32v-30l-10-10z"/>
  <g fill-rule="evenodd">
   <path fill="#313437" d="m424.57 513.8l-10-10v10z"/>
   <path opacity=".2" fill="url(#b)" d="m414.57 513.8l10 9.959v-9.959z"/>
  </g>
  <path fill="url(#c)" stroke-width="1.3" d="m406.56763 514.798a6.996204 6.996203 0 0 0 -6.9962 6.9962 6.996204 6.996203 0 0 0 6.9962 6.99621 6.996204 6.996203 0 0 0 4.18328 -1.39964l5.407 5.407 1.413-1.413-5.407-5.407a6.996204 6.996203 0 0 0 1.39963 -4.18328 6.996204 6.996203 0 0 0 -6.99621 -6.9962m0 1.99892a4.997289 4.997288 0 0 1 4.99729 4.99728 4.997289 4.997288 0 0 1 -.0254 .49973 4.997289 4.997288 0 0 1 -.80621 2.25269 4.997289 4.997288 0 0 1 -1.41329 1.41329 4.997289 4.997288 0 0 1 -.38066 .22644 4.997289 4.997288 0 0 1 -.0488 .0293 4.997289 4.997288 0 0 1 -.01 .004 4.997289 4.997288 0 0 1 -.44312 .20497 4.997289 4.997288 0 0 1 -.43531 .15227 4.997289 4.997288 0 0 1 -.0371 .0137 4.997289 4.997288 0 0 1 -.006 .002 4.997289 4.997288 0 0 1 -.45483 .10736 4.997289 4.997288 0 0 1 -.0254 .006 4.997289 4.997288 0 0 1 -.004 0 4.997289 4.997288 0 0 1 -.36698 .0508 4.997289 4.997288 0 0 1 -.14836 .0195 4.997289 4.997288 0 0 1 -.39237 .0156 4.997289 4.997288 0 0 1 -4.99728 -4.99729 4.997289 4.997288 0 0 1 .0254 -.49973 4.997289 4.997288 0 0 1 2.27221 -3.70502 4.997289 4.997288 0 0 1 .88819 -.45288 4.997289 4.997288 0 0 1 1.81151 -.33966"/>
 </g>
</svg>
