<svg height="48" width="48" xmlns="http://www.w3.org/2000/svg" xmlns:xlink="http://www.w3.org/1999/xlink"><linearGradient id="a" gradientTransform="matrix(1.0333333 0 0 1 40.020665 1.01)" gradientUnits="userSpaceOnUse" x1="-3.01" x2="-29.01" y1="42.995" y2="7.995"><stop offset="0" stop-color="#317ac2"/><stop offset="1" stop-color="#36a5e6"/></linearGradient><linearGradient id="b" gradientUnits="userSpaceOnUse" x1="9" x2="9" y1="5" y2="43"><stop offset="0" stop-color="#505791"/><stop offset="1" stop-color="#2b3057"/></linearGradient><linearGradient id="c" gradientUnits="userSpaceOnUse" x1="24" x2="24" xlink:href="#a" y1="45" y2="3"/><linearGradient id="d" gradientTransform="matrix(1.0333333 0 0 1 40.020665 1.01)" gradientUnits="userSpaceOnUse" x1="-15.50387" x2="-15.50387" xlink:href="#a" y1="43.990002" y2="1.99"/><linearGradient id="e" gradientUnits="userSpaceOnUse" x1="38" x2="92" y1="3" y2="57"><stop offset="0" stop-color="#232629"/><stop offset="1" stop-color="#292c2f" stop-opacity="0"/></linearGradient><linearGradient gradientUnits="userSpaceOnUse" x1="11.999999" x2="36.000001" y1="24" y2="24"><stop offset="0"/><stop offset="1" stop-opacity="0"/></linearGradient><path d="m39.998967 3 .001033 42h-30.9989667l-.0010333-42z" fill="url(#d)" stroke-width=".203306"/><path d="m38.999034 4 .000966 40h-28.999033l-.000967-40z" fill="#fff" stroke-width=".191899"/><path d="m37.999034 3 .000966 42h-28.9990334l-.0009666-42z" fill="url(#c)" stroke-width=".196638"/><text x="-27.930717" y="19.715731"><tspan x="-27.930717" y="56.110737"/></text><text x="-49.243217" y="15.715731"><tspan x="-49.243217" y="52.110737"/></text><path d="m12 15v18h3.394531v-7.970703l7.533203 7.970703h4.191407v-.205078l-8.664063-9.078125 7.996094-8.613281v-.103516h-4.216797l-6.839844 7.611328v-7.611328zm19.585938.011719c-2.388403.141939-3.587891 1.630378-3.587891 3.847656 0 2.457242 1.659226 4.023437 3.962891 4.023437 2.426527 0 4.039062-1.551289 4.039062-4.162109 0-1.151833-.399197-2.457256-1.228516-3.255859l-1.183593 1.197265c.445375.430018.707031 1.336245.707031 2.027344 0 1.320768-.674505 2.134951-1.611328 2.257813v-5.91211c-.389704-.036474-.756456-.043714-1.097656-.023437zm-.455079 1.820312v4.083985c-.982897-.27644-1.472656-1.105529-1.472656-2.119141 0-1.075044.489759-1.841982 1.472656-1.964844zm-6.066406 7.363281v1.859376h10.736328v-1.859376zm1.029297 3.384766c-1.458988 0-1.458988 2.212891 0 2.212891s1.458988-2.212891 0-2.212891zm2.105469.169922v1.873047h7.601562v-1.873047z" fill="#eff0f1"/><path d="m7 5v38h3v-2h-1v-1h1v-2h-1v-1h1v-2h-1v-1h1v-2h-1v-1h1v-2h-1v-1h1v-2h-1v-1h1v-2h-1v-1h1v-2h-1v-1h1v-2h-1v-1h1v-2h-1v-1h1v-2h-1v-1h1v-2h-1v-1h1v-2z" fill="url(#b)"/><path d="m38 3 2 2v40h-2z" fill="url(#e)" opacity=".4"/></svg>