<svg width="48" xmlns="http://www.w3.org/2000/svg" height="48" xmlns:xlink="http://www.w3.org/1999/xlink">
 <defs>
  <linearGradient id="a" y1="532.8" x1="409.57" y2="543.8" x2="420.57" gradientUnits="userSpaceOnUse" gradientTransform="translate(-2-2.999)">
   <stop stop-opacity=".314"/>
   <stop offset="1" stop-opacity="0"/>
  </linearGradient>
  <linearGradient id="c" y1="531.8" y2="507.82" x2="0" gradientUnits="userSpaceOnUse" gradientTransform="matrix(1 0 0 1.33561-.003-168.45)">
   <stop stop-color="#2a2c2f"/>
   <stop offset="1" stop-color="#424649"/>
  </linearGradient>
  <linearGradient id="d" y1="577.8" y2="541.8" gradientUnits="userSpaceOnUse" x2="0" gradientTransform="matrix(1.50001 0 0 1-588.86-533.81)">
   <stop stop-color="#c6cdd1"/>
   <stop offset="1" stop-color="#e0e5e7"/>
  </linearGradient>
  <path fill="#feb70d" stroke-linejoin="bevel" id="e" d="m410.57 528.8l-1.996-10h12z"/>
 </defs>
 <g transform="translate(-384.57-499.8)">
  <g stroke-linejoin="round" stroke-width="2">
   <path fill="url(#c)" d="m387.57 508.8h41.999v34h-41.999z"/>
   <path fill="url(#d)" d="m2 8v36h44v-36zm2 2h40v32h-40z" transform="translate(384.57 499.8)"/>
  </g>
  <g transform="translate(0-3)">
   <g transform="translate(20)">
    <g transform="translate(-34 9.999)">
     <path fill="#6af804" fill-rule="evenodd" d="m410.57 528.8l4.14-5.64 5.86-4.36 2 10z"/>
     <use xlink:href="#e"/>
    </g>
    <path fill="#ffffff" stroke-linejoin="bevel" fill-opacity=".353" d="m376.58 538.8l-2-10h12l1.994 10z"/>
   </g>
   <g transform="translate(-7 4.999)">
    <path fill="#6af804" fill-rule="evenodd" d="m410.57 528.8l3.751-6.06 6.249-3.936 2 10z"/>
    <use xlink:href="#e"/>
   </g>
   <g fill-rule="evenodd">
    <path fill="url(#a)" d="m415.56 533.8h-11.982l4.984 5h-11.99v-.002l-.004.002 8 8h26v-18l-9.992-9.992 1.992 9.992h-11.998z"/>
    <path fill="#6af804" d="m410.57 528.8l4.627-5.577 5.373-4.423 2 10z"/>
   </g>
   <use xlink:href="#e"/>
   <path stroke-linejoin="bevel" fill-opacity=".353" d="m410.57 528.8l-1.996-10h12l1.994 10z"/>
  </g>
 </g>
</svg>
