<?xml version="1.0" encoding="UTF-8" standalone="no"?>
<svg xmlns="http://www.w3.org/2000/svg" xmlns:xlink="http://www.w3.org/1999/xlink" width="48" height="48" version="1.1">
 <defs>
  <linearGradient id="linearGradient4167">
   <stop style="stop-color:#ffffff;stop-opacity:0" offset="0"/>
   <stop style="stop-color:#ffffff;stop-opacity:1" offset="1"/>
  </linearGradient>
  <linearGradient id="linearGradient4324">
   <stop style="stop-color:#eff1f1;stop-opacity:1" offset="0"/>
   <stop style="stop-color:#ececec;stop-opacity:1;" offset="1"/>
  </linearGradient>
  <linearGradient id="linearGradient4306">
   <stop offset="0" style="stop-color:#000000;stop-opacity:0;"/>
   <stop offset="1" style="stop-color:#000000;stop-opacity:1;"/>
  </linearGradient>
  <linearGradient id="linearGradient4266">
   <stop style="stop-color:#e22828;stop-opacity:1" offset="0"/>
   <stop style="stop-color:#e05e4c;stop-opacity:1" offset="1"/>
  </linearGradient>
  <linearGradient xlink:href="#linearGradient4266" id="linearGradient4272" x1="35" y1="44" x2="19" y2="3" gradientUnits="userSpaceOnUse"/>
  <linearGradient xlink:href="#linearGradient4306" id="linearGradient4312" x1="-17" y1="12" x2="-7" y2="12" gradientUnits="userSpaceOnUse"/>
  <radialGradient xlink:href="#linearGradient4324" id="radialGradient4340" cx="-12" cy="12" fx="-12" fy="12" r="4" gradientUnits="userSpaceOnUse"/>
  <linearGradient xlink:href="#linearGradient4167" id="linearGradient4165" gradientUnits="userSpaceOnUse" x1="-17" y1="12" x2="-7" y2="12" gradientTransform="translate(24,0)"/>
  <linearGradient xlink:href="#linearGradient4306" id="linearGradient4186" gradientUnits="userSpaceOnUse" x1="-17" y1="12" x2="-7" y2="12" gradientTransform="translate(-12,12)"/>
  <radialGradient xlink:href="#linearGradient4324" id="radialGradient4188" gradientUnits="userSpaceOnUse" cx="-12" cy="12" fx="-12" fy="12" r="4" gradientTransform="translate(-12,12)"/>
  <linearGradient xlink:href="#linearGradient4167" id="linearGradient4190" gradientUnits="userSpaceOnUse" gradientTransform="translate(36,12)" x1="-17" y1="12" x2="-7" y2="12"/>
  <linearGradient xlink:href="#linearGradient4306" id="linearGradient4200" gradientUnits="userSpaceOnUse" x1="-17" y1="12" x2="-7" y2="12" gradientTransform="translate(-24,24)"/>
  <radialGradient xlink:href="#linearGradient4324" id="radialGradient4202" gradientUnits="userSpaceOnUse" cx="-12" cy="12" fx="-12" fy="12" r="4" gradientTransform="translate(-24,24)"/>
  <linearGradient xlink:href="#linearGradient4167" id="linearGradient4204" gradientUnits="userSpaceOnUse" gradientTransform="translate(48,24)" x1="-17" y1="12" x2="-7" y2="12"/>
 </defs>
 <g>
  <rect style="opacity:1;fill:url(#linearGradient4272);fill-opacity:1;stroke:none;stroke-width:2;stroke-linecap:round;stroke-linejoin:round;stroke-miterlimit:4;stroke-dasharray:none;stroke-opacity:1" width="40" height="40" x="4" y="4" rx="2" ry="2"/>
  <path style="opacity:0.15;fill:#000000;fill-opacity:1;stroke:none;stroke-width:2;stroke-linecap:round;stroke-linejoin:round;stroke-miterlimit:4;stroke-dasharray:none;stroke-opacity:1" d="M 4 41 L 4 42 C 4 43.108 4.892 44 6 44 L 42 44 C 43.108 44 44 43.108 44 42 L 44 41 C 44 42.108 43.108 43 42 43 L 6 43 C 4.892 43 4 42.108 4 41 z"/>
  <rect style="opacity:0.1;fill:none;fill-opacity:1;stroke:url(#linearGradient4312);stroke-width:2;stroke-miterlimit:4;stroke-dasharray:none;stroke-opacity:1" width="8" height="8" x="-16" y="8" transform="matrix(0,-1,1,0,0,0)" ry="4" rx="4"/>
  <rect rx="4" ry="4" transform="matrix(0,-1,1,0,0,0)" y="8" x="-16" height="8" width="8" style="fill:url(#radialGradient4340);fill-opacity:1;stroke:none"/>
  <rect rx="4" ry="4" transform="matrix(0,1,1,0,0,0)" y="8" x="8" height="8" width="8" style="opacity:0.1;fill:none;fill-opacity:1;stroke:url(#linearGradient4165);stroke-width:2;stroke-miterlimit:4;stroke-dasharray:none;stroke-opacity:1"/>
  <rect rx="4" ry="4" transform="matrix(0,-1,1,0,0,0)" y="20" x="-28" height="8" width="8" style="opacity:0.1;fill:none;fill-opacity:1;stroke:url(#linearGradient4186);stroke-width:2;stroke-miterlimit:4;stroke-dasharray:none;stroke-opacity:1"/>
  <rect style="fill:url(#radialGradient4188);fill-opacity:1;stroke:none" width="8" height="8" x="-28" y="20" transform="matrix(0,-1,1,0,0,0)" ry="4" rx="4"/>
  <rect style="opacity:0.1;fill:none;fill-opacity:1;stroke:url(#linearGradient4190);stroke-width:2;stroke-miterlimit:4;stroke-dasharray:none;stroke-opacity:1" width="8" height="8" x="20" y="20" transform="matrix(0,1,1,0,0,0)" ry="4" rx="4"/>
  <rect style="opacity:0.1;fill:none;fill-opacity:1;stroke:url(#linearGradient4200);stroke-width:2;stroke-miterlimit:4;stroke-dasharray:none;stroke-opacity:1" width="8" height="8" x="-40" y="32" transform="matrix(0,-1,1,0,0,0)" ry="4" rx="4"/>
  <rect rx="4" ry="4" transform="matrix(0,-1,1,0,0,0)" y="32" x="-40" height="8" width="8" style="fill:url(#radialGradient4202);fill-opacity:1;stroke:none"/>
  <rect rx="4" ry="4" transform="matrix(0,1,1,0,0,0)" y="32" x="32" height="8" width="8" style="opacity:0.1;fill:none;fill-opacity:1;stroke:url(#linearGradient4204);stroke-width:2;stroke-miterlimit:4;stroke-dasharray:none;stroke-opacity:1"/>
 </g>
</svg>
