<svg height="48" viewBox="0 0 12.7 12.7" width="48" xmlns="http://www.w3.org/2000/svg" xmlns:xlink="http://www.w3.org/1999/xlink"><linearGradient id="a"><stop offset="0" stop-color="#78542e"/><stop offset="1" stop-color="#544020"/></linearGradient><linearGradient id="e" gradientUnits="userSpaceOnUse" x1="6.35" x2="6.35" y1="293.825" y2="286.152"><stop offset="0" stop-color="#dadedf"/><stop offset="1" stop-color="#fcfcfc"/></linearGradient><linearGradient id="h" gradientTransform="matrix(1 0 0 .99999 0 0)" gradientUnits="userSpaceOnUse" x1="24" x2="24" y1="24" y2="21"><stop offset="0" stop-color="#232629"/><stop offset="1" stop-color="#4f535c"/></linearGradient><linearGradient id="g" gradientUnits="userSpaceOnUse" x1="6.35" x2="6.35" y1="294.09" y2="289.86"><stop offset="0" stop-color="#e26b00"/><stop offset="1" stop-color="#ff9230"/></linearGradient><linearGradient id="b" gradientUnits="userSpaceOnUse" x1="6.35" x2="6.35" y1="295.94" y2="285.36"><stop offset="0" stop-color="#239b56"/><stop offset="1" stop-color="#27d06e"/></linearGradient><linearGradient id="d" gradientTransform="matrix(1 0 0 .91667 0 2.333)" gradientUnits="userSpaceOnUse" x1="24" x2="24" xlink:href="#a" y1="29" y2="40"/><linearGradient id="f" gradientUnits="userSpaceOnUse" x1="24" x2="24" xlink:href="#a" y1="9.007" y2="21.026"/><linearGradient id="c" gradientUnits="userSpaceOnUse" x1="12" x2="44" y1="12" y2="44"><stop offset="0" stop-color="#292c2f"/><stop offset="1" stop-opacity="0"/></linearGradient><linearGradient id="i" gradientUnits="userSpaceOnUse" x1="6.35" x2="6.35" y1="289.326" y2="286.946"><stop offset="0" stop-color="#7e8690"/><stop offset="1" stop-color="#8f97a1"/></linearGradient><linearGradient id="j" gradientTransform="matrix(.26474 0 0 .24954 -.01 284.22)" gradientUnits="userSpaceOnUse" x1="24.025" x2="24.025" y1="18.359" y2="10.937"><stop offset="0" stop-color="#098ae7"/><stop offset="1" stop-color="#34a3f4"/></linearGradient><path d="M11.642 290.65a5.292 5.292 0 0 1-5.292 5.292 5.292 5.292 0 0 1-5.291-5.292 5.292 5.292 0 0 1 5.291-5.292 5.292 5.292 0 0 1 5.292 5.292z" fill="url(#b)" transform="translate(0 -284.3)"/><path d="M24.738 5L12 31l.248 7.744 3.41 3.41A20 20 0 0 0 24 44a20 20 0 0 0 20-20 20 20 0 0 0-.275-3.275L35 12h-3.262l-7-7z" fill="url(#c)" opacity=".2" transform="scale(.26458)"/><path d="M11 28c0 2.75-.26 9.236 1.248 10.744.26.26.418.256.553.256.416 0-.09-4.747 1.199-7.334L11 28zm26 0l-3 3.666c1.29 2.587.783 7.334 1.2 7.334.134 0 .291.005.552-.256C37.26 37.236 37 30.75 37 28z" fill="url(#d)" transform="scale(.26458)"/><path d="M6.545 285.62c-.384.716-1.579.734-2.312 1.323-1.052.846-1.587 2.91-1.587 3.969 0 .529.353 1.323.53 1.587.528.794 1.343 1.165 2.116 1.323.347.071 1.628.054 2.116 0 .827-.091 1.588-.53 2.117-1.323.177-.264.53-1.143.53-1.587 0-1.059-.444-3.273-1.588-3.969-.609-.377-1.631-.528-1.946-.668.037-.116.194-.196.025-.655z" fill="url(#e)" transform="translate(0 -284.3)"/><path d="M19.385 8.84a3.498 3.498 0 0 0-1.346.217C15.192 10.155 14.51 10.49 13 12c-2.419 2.419-3.478 10.484-1.785 9.318 5.567-3.832 8.765-4.21 9.623-4.695C21.924 16.01 21.781 15 24 15s2.076 1.01 3.162 1.623c.858.484 4.056.863 9.623 4.695C38.478 22.484 37.42 14.42 35 12c-1.509-1.509-2.192-1.845-5.04-2.943a3.5 3.5 0 0 0-1.345-.217c-1.385.026-2.898.646-4.615.646s-3.23-.62-4.615-.646z" fill="url(#f)" transform="scale(.26458)"/><path d="M6.35 3.7c-.775 0-.606.486-.837.694.288-.162.25-.43.837-.43s.55.268.837.43c-.231-.208-.062-.694-.837-.694z" opacity=".388"/><path d="M6.35 294.09c-1.058 0-2.646-1.058-2.646-1.587 0-.53.794-.794 1.058-1.323.265-.53.794-1.323 1.588-1.323s1.323.793 1.587 1.323c.265.529 1.059.793 1.059 1.322 0 .53-1.588 1.588-2.646 1.588z" fill="url(#g)" transform="translate(0 -284.3)"/><path d="M5.245 7.144c-.151 0-.217.254-.232.38-.007.061.071.149.133.149.14 0 .192-.53.099-.53zm2.21 0c-.094 0-.04.529.098.529.062 0 .141-.088.134-.149-.015-.126-.081-.38-.232-.38z" opacity=".55"/><path d="M15.537 21c-.373 0-.537.696-.537 1.408S15.048 24 15.435 24s.565-.835.565-1.592S15.91 21 15.537 21zm16.926 0c-.373 0-.463.762-.463 1.408S32.238 24 32.565 24s.435-.902.435-1.592S32.836 21 32.463 21z" fill="url(#h)" transform="scale(.26458)"/><path d="M11.639 6.27a5.292 5.16 0 0 1-5.29 5.105A5.292 5.16 0 0 1 1.062 6.29a5.292 5.292 0 0 0-.003.056A5.292 5.292 0 0 0 6.35 11.64a5.292 5.292 0 0 0 5.292-5.292 5.292 5.292 0 0 0-.003-.077z" fill="#292c2f" opacity=".3"/><path d="M5.078 286.82c-.256.02-.552.11-.845.258-.444.227-.822.503-1.058.96-.084.161-.392.898 0 1.157.308.204.558-.25 1.058-.53.5-.278 1.146-.35 1.323-.464.25-.163.265-.58.265-.858 0-.397-.316-.556-.743-.523zm2.544 0c-.427-.033-.743.126-.743.523 0 .279.014.695.265.858.177.115.822.186 1.323.465.5.279.75.733 1.058.529.391-.259.084-.996 0-1.158-.236-.456-.614-.732-1.058-.959a2.318 2.318 0 0 0-.845-.258z" fill="url(#i)" transform="translate(0 -284.3)"/><path d="M5.087 286.9a2.26 2.26 0 0 0-.77.223c-.428.205-.762.438-.974.823a1.769 1.769 0 0 0-.158.457.667.667 0 0 0-.002.256c.016.067.042.106.094.139.038.024.039.02.068.014a.583.583 0 0 0 .16-.088c.146-.104.346-.287.624-.433.276-.145.578-.23.828-.295.251-.064.471-.13.483-.138.062-.038.111-.122.14-.247.03-.125.036-.277.036-.406 0-.11-.03-.165-.078-.21a.443.443 0 0 0-.25-.093 1.025 1.025 0 0 0-.202-.002zm2.527 0a1.025 1.025 0 0 0-.202.002.443.443 0 0 0-.25.093c-.048.045-.078.1-.078.21 0 .129.006.28.035.406.03.125.08.209.141.246.012.008.232.075.483.139s.552.15.828.295c.278.146.478.33.624.433.073.051.13.081.16.088.03.007.03.01.068-.015.052-.032.078-.07.094-.138a.666.666 0 0 0-.002-.256 1.768 1.768 0 0 0-.158-.457c-.212-.386-.546-.618-.974-.823a2.26 2.26 0 0 0-.77-.223z" fill="url(#j)" transform="translate(0 -284.3)"/></svg>