<?xml version="1.0" encoding="UTF-8" standalone="no"?>
<svg xmlns="http://www.w3.org/2000/svg" xmlns:xlink="http://www.w3.org/1999/xlink" width="48" height="48" version="1.1">
 <defs>
  <linearGradient id="linearGradient4217">
   <stop style="stop-color:#000000;stop-opacity:1;" offset="0"/>
   <stop style="stop-color:#000000;stop-opacity:0;" offset="1"/>
  </linearGradient>
  <linearGradient id="linearGradient4161">
   <stop style="stop-color:#334545;stop-opacity:1;" offset="0"/>
   <stop style="stop-color:#4d6868;stop-opacity:1" offset="1"/>
  </linearGradient>
  <linearGradient id="linearGradient4266">
   <stop style="stop-color:#c6cdd1;stop-opacity:1" offset="0"/>
   <stop style="stop-color:#e0e5e7;stop-opacity:1" offset="1"/>
  </linearGradient>
  <linearGradient xlink:href="#linearGradient4266" id="linearGradient4272" x1="35" y1="44" x2="19" y2="3" gradientUnits="userSpaceOnUse"/>
  <linearGradient xlink:href="#linearGradient4161" id="linearGradient4167" x1="-16" y1="12" x2="-8.664" y2="9.744" gradientUnits="userSpaceOnUse"/>
  <linearGradient xlink:href="#linearGradient4161" id="linearGradient4171" gradientUnits="userSpaceOnUse" x1="-16" y1="12" x2="-8.664" y2="9.744" gradientTransform="translate(-12,12)"/>
  <linearGradient xlink:href="#linearGradient4161" id="linearGradient4175" gradientUnits="userSpaceOnUse" x1="-16" y1="12" x2="-8.664" y2="9.744" gradientTransform="translate(-23.999998,23.999998)"/>
  <linearGradient xlink:href="#linearGradient4161" id="linearGradient4181" gradientUnits="userSpaceOnUse" x1="-16" y1="12" x2="-8.664" y2="9.744" gradientTransform="translate(0,-48)"/>
  <linearGradient xlink:href="#linearGradient4161" id="linearGradient4183" gradientUnits="userSpaceOnUse" gradientTransform="translate(-23.999998,-24.000002)" x1="-16" y1="12" x2="-8.664" y2="9.744"/>
  <linearGradient xlink:href="#linearGradient4217" id="linearGradient4223" x1="34" y1="9" x2="43" y2="18" gradientUnits="userSpaceOnUse"/>
  <linearGradient xlink:href="#linearGradient4217" id="linearGradient4225" x1="9.246" y1="33.122" x2="18" y2="41.875" gradientUnits="userSpaceOnUse"/>
  <linearGradient xlink:href="#linearGradient4217" id="linearGradient4227" x1="9" y1="9" x2="20" y2="20" gradientUnits="userSpaceOnUse"/>
  <linearGradient xlink:href="#linearGradient4217" id="linearGradient4229" x1="21" y1="21" x2="31" y2="31" gradientUnits="userSpaceOnUse"/>
  <linearGradient xlink:href="#linearGradient4217" id="linearGradient4231" x1="33" y1="33" x2="41" y2="41" gradientUnits="userSpaceOnUse"/>
 </defs>
 <g>
  <rect style="opacity:1;fill:url(#linearGradient4272);fill-opacity:1;stroke:none;stroke-width:2;stroke-linecap:round;stroke-linejoin:round;stroke-miterlimit:4;stroke-dasharray:none;stroke-opacity:1" width="40" height="40" x="4" y="4" rx="2" ry="2"/>
  <path style="opacity:0.3;fill:url(#linearGradient4227);fill-opacity:1;stroke:none;stroke-width:2;stroke-linecap:round;stroke-linejoin:round;stroke-miterlimit:4;stroke-dasharray:none;stroke-opacity:0" d="M 14.580078 8.9238281 L 12.064453 9.4121094 L 9.046875 12.605469 L 8.9902344 14.572266 L 38.417969 44 L 42 44 C 43.108 44 44 43.108 44 42 L 44 38.34375 L 14.580078 8.9238281 z"/>
  <rect rx="4" ry="4" transform="matrix(0,-1,1,0,0,0)" y="8" x="-16" height="8" width="8" style="fill:url(#linearGradient4167);fill-opacity:1;stroke:none"/>
  <path style="opacity:0.15;fill:#000000;fill-opacity:1;stroke:none;stroke-width:2;stroke-linecap:round;stroke-linejoin:round;stroke-miterlimit:4;stroke-dasharray:none;stroke-opacity:1" d="M 4 41 L 4 42 C 4 43.108 4.892 44 6 44 L 42 44 C 43.108 44 44 43.108 44 42 L 44 41 C 44 42.108 43.108 43 42 43 L 6 43 C 4.892 43 4 42.108 4 41 z"/>
  <path style="opacity:0.3;fill:url(#linearGradient4229);fill-opacity:1;stroke:none;stroke-width:2;stroke-linecap:round;stroke-linejoin:round;stroke-miterlimit:4;stroke-dasharray:none;stroke-opacity:0" d="M 26.519531 20.908203 L 24.003906 21.396484 L 20.986328 24.589844 L 20.929688 26.556641 L 38.373047 44 L 42 44 C 43.108 44 44 43.108 44 42 L 44 38.388672 L 26.519531 20.908203 z"/>
  <rect style="fill:url(#linearGradient4171);fill-opacity:1;stroke:none" width="8" height="8" x="-28" y="20" transform="matrix(0,-1,1,0,0,0)" ry="4" rx="4"/>
  <path style="opacity:0.3;fill:url(#linearGradient4231);fill-opacity:1;stroke:none;stroke-width:2;stroke-linecap:round;stroke-linejoin:round;stroke-miterlimit:4;stroke-dasharray:none;stroke-opacity:0" d="M 38.59375 32.982422 L 36.078125 33.470703 L 33.060547 36.664062 L 33.003906 38.630859 L 38.373047 44 L 42 44 C 43.108 44 44 43.108 44 42 L 44 38.388672 L 38.59375 32.982422 z"/>
  <rect style="fill:url(#linearGradient4175);fill-opacity:1;stroke:none" width="8" height="8" x="-40" y="32" transform="matrix(0,-1,1,0,0,0)" ry="4" rx="4"/>
  <path style="opacity:0.3;fill:url(#linearGradient4225);fill-opacity:1;stroke:none;stroke-width:2;stroke-linecap:round;stroke-linejoin:round;stroke-miterlimit:4;stroke-dasharray:none;stroke-opacity:0" d="M 14.367188 32.75 L 11.851562 33.238281 L 8.8339844 36.431641 L 8.7773438 38.398438 L 14.378906 44 L 25.617188 44 L 14.367188 32.75 z"/>
  <rect rx="4" ry="4" transform="matrix(0,-1,-1,0,0,0)" y="-16" x="-40" height="8" width="8" style="fill:url(#linearGradient4183);fill-opacity:1;stroke:none"/>
  <path style="opacity:0.3;fill:url(#linearGradient4223);fill-opacity:1;stroke:none;stroke-width:2;stroke-linecap:round;stroke-linejoin:round;stroke-miterlimit:4;stroke-dasharray:none;stroke-opacity:0" d="M 38.513672 8.8886719 L 35.998047 9.3769531 L 32.980469 12.570312 L 32.923828 14.537109 L 44 25.613281 L 44 14.375 L 38.513672 8.8886719 z"/>
  <rect style="fill:url(#linearGradient4181);fill-opacity:1;stroke:none" width="8" height="8" x="-16" y="-40" transform="matrix(0,-1,-1,0,0,0)" ry="4" rx="4"/>
 </g>
</svg>
