<svg width="48" xmlns="http://www.w3.org/2000/svg" height="48" xmlns:xlink="http://www.w3.org/1999/xlink">
 <defs>
  <linearGradient id="a" y1="536.8" y2="503.8" x2="0" gradientUnits="userSpaceOnUse">
   <stop stop-color="#2a2c2f"/>
   <stop offset="1" stop-color="#424649"/>
  </linearGradient>
  <linearGradient id="b" y1="547.8" y2="536.8" x2="0" gradientUnits="userSpaceOnUse" gradientTransform="matrix(1 0 0 .54545 0 244)">
   <stop stop-color="#c6cdd1"/>
   <stop offset="1" stop-color="#e0e5e7"/>
  </linearGradient>
  <linearGradient id="c" y1="5.342" x1="42.799" y2="31.357" x2="11.999" gradientUnits="userSpaceOnUse">
   <stop stop-color="#1abc9c"/>
   <stop offset="1" stop-color="#2980b9"/>
  </linearGradient>
  <linearGradient id="d" y1="22.346" x1="29.855" y2="28.506" x2="54.32" gradientUnits="userSpaceOnUse">
   <stop stop-color="#cc4a5e"/>
   <stop offset="1" stop-color="#aa478a"/>
  </linearGradient>
  <linearGradient id="e" y1="41.22" x1="24.392" y2="25.343" x2="20.643" gradientUnits="userSpaceOnUse">
   <stop stop-color="#334545"/>
   <stop offset="1" stop-color="#536161"/>
  </linearGradient>
  <linearGradient xlink:href="#e" id="f" y1="568.8" x1="431.57" y2="562.8" x2="439.57" gradientUnits="userSpaceOnUse" gradientTransform="matrix(-1 0 0 1 839.14-40)"/>
  <linearGradient xlink:href="#e" id="g" y1="40.899" x1="56.03" y2="32.475" x2="40.647" gradientUnits="userSpaceOnUse"/>
  <linearGradient xlink:href="#e" id="h" y1="32.15" x1="60.895" y2="27.06" x2="53.41" gradientUnits="userSpaceOnUse"/>
  <linearGradient xlink:href="#e" id="i" y1="36.527" x1="33.32" y2="31.348" x2="24.78" gradientUnits="userSpaceOnUse"/>
  <linearGradient xlink:href="#e" id="j" y1="36.765" x1="34" y2="49.571" x2="40.25" gradientUnits="userSpaceOnUse"/>
 </defs>
 <g transform="translate(-384.57-499.8)">
  <g stroke-opacity=".55" stroke-width="2.8">
   <path fill="url(#b)" d="m402.57 536.8v6h12v-6z"/>
   <rect width="48" x="384.57" y="503.8" fill="url(#a)" height="36"/>
  </g>
  <g transform="matrix(.91667 0 0 .91667 34.05 43.983)">
   <path fill="url(#c)" d="m12 6v30h44v-30z" transform="matrix(1.09091 0 0 1.09091 371.48 497.25)"/>
   <g stroke-width="2">
    <path fill="url(#d)" d="m56 6l-30.28 17.482 21.682 12.518h8.6z" transform="matrix(1.09091 0 0 1.09091 371.48 497.25)"/>
    <path fill="url(#e)" d="m25.75 23.416l-13.75 7.939v4.645h35.605z" transform="matrix(1.09091 0 0 1.09091 371.48 497.25)"/>
    <path fill="url(#f)" d="m407.83 527.57l-8.259-4.768v9.536z"/>
    <path fill="url(#g)" d="m40.891 32.16v3.844h6.656z" transform="matrix(1.09091 0 0 1.09091 371.48 497.25)"/>
    <path fill="url(#h)" d="m53.32 27.787v8.213h.916l6.654-3.842z" transform="matrix(1.09091 0 0 1.09091 349.66 497.25)"/>
    <path fill="url(#i)" d="m25.75 32.16v3.842h6.654z" transform="matrix(1.09091 0 0 1.09091 371.48 497.25)"/>
    <path fill="url(#j)" d="m40.891 32.16l-6.656 3.844h6.656z" transform="matrix(1.09091 0 0 1.09091 371.48 497.25)"/>
    <path fill="#aa478a" d="m399.54 522.87l33.03-19.07v9.317z"/>
   </g>
  </g>
  <rect width="22" x="397.57" y="541.8" stroke-opacity=".55" fill="#99a1a7" height="2" stroke-width="2.8"/>
  <path fill="#ffffff" stroke-width=".1" d="m3 7v5h1v-4h4v-1zm37 0v1h4v4h1v-5zm-18 6c-3.324 0-6 2.676-6 6 0 3.324 2.676 6 6 6 1.481 0 2.831-.535 3.875-1.418l5.418 5.418.707-.707-5.418-5.418c.883-1.044 1.418-2.394 1.418-3.875 0-3.324-2.676-6-6-6m0 1c2.77 0 5 2.23 5 5 0 2.77-2.23 5-5 5-2.77 0-5-2.23-5-5 0-2.77 2.23-5 5-5m-19 16v5h5v-1h-4v-4zm41 0v4h-4v1h5v-5z" transform="translate(384.57 499.8)"/>
 </g>
</svg>
