<svg width="32" xmlns="http://www.w3.org/2000/svg" height="32" xmlns:xlink="http://www.w3.org/1999/xlink">
 <defs>
  <linearGradient id="a" y1="551.8" y2="497.8" x2="0" gradientUnits="userSpaceOnUse">
   <stop stop-color="#18222a"/>
   <stop offset="1" stop-color="#566069"/>
  </linearGradient>
  <linearGradient id="b" y1="519.8" y2="515.8" x2="0" gradientUnits="userSpaceOnUse">
   <stop stop-color="#197cf1"/>
   <stop offset="1" stop-color="#21c9fb"/>
  </linearGradient>
  <linearGradient xlink:href="#b" id="c" y1="515.8" y2="511.8" x2="0" gradientUnits="userSpaceOnUse"/>
  <linearGradient xlink:href="#a" id="d" y1="527.8" x1="398.57" y2="539.8" x2="394.57" gradientUnits="userSpaceOnUse"/>
  <linearGradient id="e" x1="390.57" x2="394.57" gradientUnits="userSpaceOnUse">
   <stop stop-color="#283845"/>
   <stop offset="1" stop-color="#4e575f"/>
  </linearGradient>
  <linearGradient id="f" x1="424.57" x2="426.57" gradientUnits="userSpaceOnUse">
   <stop stop-color="#253440"/>
   <stop offset="1" stop-color="#566069" stop-opacity=".463"/>
  </linearGradient>
  <linearGradient xlink:href="#a" id="g" y1="509.8" y2="501.8" x2="0" gradientUnits="userSpaceOnUse"/>
  <linearGradient xlink:href="#b" id="h" y1="523.8" y2="505.8" gradientUnits="userSpaceOnUse" x2="0"/>
 </defs>
 <g transform="matrix(.5 0 0 .5-188.29-245.9)">
  <path fill="#1b252d" d="m406.57 495.8l-.063.125a4 5.00003 0 0 1 .0625 .875 4 5.00003 0 0 1 -.80469 3h2.219a6 7 0 0 0 .58594 -3 6 7 0 0 0 -.0703 -1z"/>
  <g fill-rule="evenodd">
   <path fill="url(#a)" d="m408.57 497.8c-5.776 1.756-7.839 2.204-14 4-1.888 6.678-2.566 11.741-1.656 19.406-.093.37-.185.78-.281 1.16l-.063-.566v.824c-.21.838-.421 1.666-.609 2.547-.589 1.308-1.391 3.238-1.391 4.629 0 1.505.281 2.629 1.133 5.277.209.906.473 1.813.867 2.723.5 4.047 1.114 5.074 3.469 7.969 4.991 2.87 7.801 5.03 12.531 6.03 4.166-.724 8.354-3.348 10.918-6.04l1.082.043c2.09-2.236 3.476-5.291 4-8 2-8 2-6 2-8 0-1.063-.533-3.668-1.063-6.02-.309-2.047-.772-4.124-1.359-6.398l.023-3.582.332-.402c-.021-2.636-.241-4.04-.723-6.168l-.262-.855-.707-.395c-.242-1.907-.713-3.791-1.844-5.379-4.719.188-9.428-2.564-12.398-2.801"/>
   <path opacity=".6" fill="#1a1a1a" d="m396.57 537.8l2.1-2.45c.41-.527.344-.8.344-1.25-.02-.718-.041-1.353-.065-1.931-.024-.578-.051-1.099-.085-1.589-.033-.49-.073-.95-.121-1.404-.135-1.528-.433-2.231-.873-2.441l-2.1-.949c.482 3.876.734 7.889.8 12.01"/>
   <path fill="url(#e)" d="m392.86 520.7c.016.169.03.332.051.508-.093.37-.185.78-.281 1.16l-.063-.566v.824c-.21.838-.421 1.666-.609 2.547-.589 1.308-1.391 3.238-1.391 4.629 0 1.505.281 2.629 1.133 5.277.209.906.473 1.813.867 2.723.067.54.148.936.227 1.359 3.106-8.476.779-16.39.066-18.461"/>
   <path fill="url(#f)" d="m424.4 518.42l-1.613 24.21c.856-1.579 1.485-3.254 1.789-4.828 2-8 2-6 2-8 0-1.063-.533-3.668-1.063-6.02-.261-1.724-.652-3.496-1.113-5.363"/>
   <path fill="url(#d)" d="m394.57 527.8l-.266.793c.158 3.101-.113 6.761-1.508 10.566-.078-.423-.16-.819-.227-1.359.453 3.67 1.068 4.914 2.922 7.262.979-5.299.687-16.18-.922-17.262"/>
  </g>
  <path fill="#1b252d" fill-opacity=".384" d="m408.57 497.8c-.211.064-.299.084-.5.145v25.355c0 .277.223.5.5.5.277 0 .5-.223.5-.5v-25.418c-.165-.026-.344-.07-.5-.082"/>
  <g fill-rule="evenodd">
   <path fill="url(#b)" d="m406.17 516.8v2l2.4 1 2.4-1v-2l-2.4 1z"/>
   <path fill="url(#c)" d="m406.17 514.8v-2l2.4-1 2.4 1v2l-2.4-1z"/>
  </g>
  <rect width="4" x="406.57" y="502" fill="url(#g)" rx=".5" height="8"/>
  <path fill="url(#h)" fill-rule="evenodd" d="m422.77 505.7l-.195.098c.84 1.681 1.315 5.123 1.598 8.555l.004-.555.332-.402c-.021-2.636-.241-4.04-.723-6.168l-.262-.855-.707-.395c-.012-.093-.034-.184-.047-.277m1.644 12.777c.124 2.903.16 5.32.16 5.32l.516-2.313c-.194-.972-.423-1.979-.676-3.01"/>
  <path fill="#83878a" d="m406.57 537.8c-.277 0-.5.223-.5.5 0 .277.223.5.5.5.277 0 .5-.223.5-.5 0-.277-.223-.5-.5-.5m3.5 0l-1 1 1.5 1.5-1.5 1.5 1 1 2.5-2.5zm-4.75 3c-.416 0-.75.335-.75.75 0 .415.334.75.75.75.416 0 .75-.335.75-.75 0-.415-.334-.75-.75-.75m2.25 3c-.554 0-1 .446-1 1 0 .554.446 1 1 1 .554 0 1-.446 1-1 0-.554-.446-1-1-1"/>
 </g>
</svg>
