<svg width="48" xmlns="http://www.w3.org/2000/svg" height="48">
 <defs>
  <linearGradient id="a" y1="44" y2="4" x2="0" gradientUnits="userSpaceOnUse">
   <stop stop-color="#42a603"/>
   <stop offset="1" stop-color="#78da06"/>
  </linearGradient>
  <linearGradient id="b" y1="514" x1="398.57" y2="534" x2="418.57" gradientUnits="userSpaceOnUse">
   <stop stop-color="#383e51"/>
   <stop offset="1" stop-color="#655c6f" stop-opacity="0"/>
  </linearGradient>
  <linearGradient id="c" y1="19.04" y2="3.036" x2="0" gradientUnits="userSpaceOnUse">
   <stop stop-color="#bcfd93"/>
   <stop offset="1" stop-color="#fafff5"/>
  </linearGradient>
 </defs>
 <g transform="translate(-384.57-499.8)">
  <g fill-rule="evenodd">
   <path fill="url(#a)" d="m4 4v30h20l11 10v-10h9v-30z" transform="translate(384.57 499.8)"/>
   <path opacity=".2" fill="url(#b)" d="m409.57 510.8l-6 4v2l-1-1v6h-2l26 26h2v-18l-8-8z"/>
  </g>
  <path stroke-opacity=".55" fill="url(#c)" stroke-width="2.8" d="m10.988 3.04l-4.988 3.996v7.968l4.988 3.996h1.012v-15.964h-1zm.012 1.232v13.457l-4-3.205v-7.05zm6.03.158l-.771.631c1.137 1.772 1.742 3.834 1.742 5.939-.004 2.104-.611 4.162-1.75 5.932l.783.643c1.282-1.953 1.965-4.238 1.967-6.574-.004-2.335-.689-4.619-1.971-6.57m-2.34 1.916l-.781.639c.712 1.219 1.088 2.604 1.092 4.02-.002 1.412-.378 2.798-1.09 4.02l.781.641c.853-1.404 1.306-3.02 1.309-4.658-.004-1.642-.457-3.251-1.311-4.654m-11.689 1.69v6h2v-6z" transform="translate(397.57 507.76)"/>
 </g>
</svg>
