<svg width="48" xmlns="http://www.w3.org/2000/svg" height="48">
 <defs>
  <linearGradient id="a" y1="543.8" y2="509.8" x2="0" gradientUnits="userSpaceOnUse">
   <stop stop-color="#2f74c8"/>
   <stop offset="1" stop-color="#4699d7"/>
  </linearGradient>
  <linearGradient id="b" y1="17" x1="18" y2="32" x2="33" gradientUnits="userSpaceOnUse" gradientTransform="translate(384.57 504.8)">
   <stop stop-color="#383e51"/>
   <stop offset="1" stop-color="#655c6f" stop-opacity="0"/>
  </linearGradient>
 </defs>
 <g transform="translate(-384.57-499.8)">
  <path fill="#084883" d="m0 4v10h48v-4h-17l-6-6z" transform="translate(384.57 499.8)"/>
  <path fill="url(#a)" d="m384.57 513.8h48v30h-48z"/>
  <path fill="#2f77c2" d="m384.57 513.8h48v1h-48z"/>
  <rect width="48" x="384.57" y="542.8" fill="#2a6bae" height="1"/>
  <g fill-rule="evenodd">
   <path fill="#5f5f5f" fill-opacity=".118" d="m384.57 503.8v10h48v-4h-23z"/>
   <path fill="#ffffff" fill-opacity=".059" d="m384.57 503.8l20 1 11 6 17-1h-17l-6-6z"/>
   <path opacity=".2" fill="url(#b)" d="m416.73 519.36l-15.544 9.184-.065.614-1.052.823 16.622 13.818c-.119 0 14.692 0 15.881 0v-5l-.025-3.98z"/>
   <path fill="#ffffff" color="#000000" stroke-width=".1" d="m415.57143 518.79798a2 2 0 0 0 -2 2 2 2 0 0 0 2 2 2 2 0 0 0 2 -2 2 2 0 0 0 -2 -2m-3.5 3a.5 .5 0 0 0 -.5 .5 .5 .5 0 0 0 .5 .5 .5 .5 0 0 0 .5 -.5 .5 .5 0 0 0 -.5 -.5m-3 2a.5 .5 0 0 0 -.5 .5 .5 .5 0 0 0 .5 .5 .5 .5 0 0 0 .5 -.5 .5 .5 0 0 0 -.5 -.5m-3 2a.5 .5 0 0 0 -.5 .5 .5 .5 0 0 0 .5 .5 .5 .5 0 0 0 .5 -.5 .5 .5 0 0 0 -.5 -.5m-4.5 1a2 2 0 0 0 -2 2 2 2 0 0 0 2 2 2 2 0 0 0 2 -2 2 2 0 0 0 -2 -2m4.5 4a.5 .5 0 0 0 -.5 .5 .5 .5 0 0 0 .5 .5 .5 .5 0 0 0 .5 -.5 .5 .5 0 0 0 -.5 -.5m3 2a.5 .5 0 0 0 -.5 .5 .5 .5 0 0 0 .5 .5 .5 .5 0 0 0 .5 -.5 .5 .5 0 0 0 -.5 -.5m3 2a.5 .5 0 0 0 -.5 .5 .5 .5 0 0 0 .5 .5 .5 .5 0 0 0 .5 -.5 .5 .5 0 0 0 -.5 -.5m3.5 0a2 2 0 0 0 -2 2 2 2 0 0 0 2 2 2 2 0 0 0 2 -2 2 2 0 0 0 -2 -2"/>
  </g>
 </g>
</svg>
