<svg version="1.1" viewBox="0 0 48 48" xmlns="http://www.w3.org/2000/svg" xmlns:xlink="http://www.w3.org/1999/xlink">
    <defs>
        <linearGradient id="b" x1="15.425" x2="31.702721" y1="13.05" y2="30.814844" gradientTransform="matrix(1.0041687 0 0 .94967539 386.73655 504.5339)" gradientUnits="userSpaceOnUse">
            <stop offset="0"/>
            <stop stop-opacity="0" offset="1"/>
        </linearGradient>
        <linearGradient id="a" x1="30.207" x2="14" y1="43" y2="10" gradientTransform="matrix(-1,0,0,1,432.30321,499.798)" gradientUnits="userSpaceOnUse">
            <stop stop-color="#cebee5" offset="0"/>
            <stop stop-color="#f1f1f1" offset="1"/>
        </linearGradient>
    </defs>
    <g transform="translate(-384.57143,-499.798)">
        <rect transform="scale(-1,1)" x="-428.43463" y="503.88" width="40" height="40" rx="20" fill="#c87137" stroke-opacity=".55026502" stroke-width="2.8"/>
        <path d="m428.4283 523.38456c4e-3 0.16686 0.0117 0.33212 0.0117 0.5 0 11.07999-8.92001 20-20 20s-20-8.92001-20-20c0-0.16788 8e-3 -0.33315 0.0117-0.5 0.26418 10.84657 9.07584 19.5 19.98828 19.5s19.7241-8.65343 19.98828-19.5z" opacity=".15" stroke-opacity=".55026502" stroke-width="2.8"/>
        <path d="m421.30321 515.798-7.40961-0.71138-15.14627 12.67535 10.62355 10.93926-1.58134 3.15151 0.86777 1.06951 5.22427-0.62706c4.6226-1.94755 11.68985-7.49719 8.49886-5.04616-8.82366 6.77754-1.19177 4.33721 3.82404-4.9128 1.22034-2.25052 2.08137-6.22096 2.22378-8.95167z" fill="url(#b)" opacity=".2"/>
        <path d="m405.18017 508.798s3.19714 2.19297 3.41601 3.4375c0 0 6.76391-2.13813 12.70703 3.5625h-3s7.86328 4.91406 8 8c-0.13672-0.0859-1.44532-0.76837-2-1 0 0 1.90987 4.39914 0.45704 8.69141-2.71444 5.14003-7.77807 9.63155-15.18896 10.30554-1.99164 0.18113 1.4e-4 3e-3 -1.99986 3e-3v-6l2-1e-5v-3c3.20501-0.15537 3.98287-7.80629-0.26822-9.99995 0 0-2.68673 3.77082-5.84179 4.13672 0 0-0.36829 3.23235-4.18165 1.17969-1.01775-0.54548-1.39615-2.35007-0.36914-3.81446l0.8086-1.16992s2.6773-6.42957 4.58398-8.33203c0 0 1-3 0-5 0 0 1.13297 0.84125 1.5 1.5 0 0-0.25516-2.13663-0.62304-2.5z" fill="url(#a)"/>
        <path d="m421.73366 535.798c-4.71549 5e-3 -9.44674-5e-5 -14.16223-5e-5l-0.0132 1.00305 13.18914 5e-3c0.80488-0.80099 0.45229-0.4403 0.98633-1.00781z" color="#000000" color-rendering="auto" dominant-baseline="auto" fill="#c6c3c7" fill-rule="evenodd" image-rendering="auto" shape-rendering="auto" solid-color="#000000" style="font-feature-settings:normal;font-variant-alternates:normal;font-variant-caps:normal;font-variant-ligatures:normal;font-variant-numeric:normal;font-variant-position:normal;isolation:auto;mix-blend-mode:normal;shape-padding:0;text-decoration-color:#000000;text-decoration-line:none;text-decoration-style:solid;text-indent:0;text-orientation:mixed;text-transform:none;white-space:normal"/>
        <path d="m424.01869 532.79409c-4.71549 5e-3 -9.73177 4e-3 -14.44726 4e-3v1l13.76952 4e-3c0.60567-0.91038 0.3351-0.48328 0.67774-1.00782z" color="#000000" color-rendering="auto" dominant-baseline="auto" fill="#c6c3c7" fill-rule="evenodd" image-rendering="auto" shape-rendering="auto" solid-color="#000000" style="font-feature-settings:normal;font-variant-alternates:normal;font-variant-caps:normal;font-variant-ligatures:normal;font-variant-numeric:normal;font-variant-position:normal;isolation:auto;mix-blend-mode:normal;shape-padding:0;text-decoration-color:#000000;text-decoration-line:none;text-decoration-style:solid;text-indent:0;text-orientation:mixed;text-transform:none;white-space:normal"/>
    </g>
</svg>
