<svg height="48" width="48" xmlns="http://www.w3.org/2000/svg" xmlns:xlink="http://www.w3.org/1999/xlink"><linearGradient id="a"><stop offset="0" stop-color="#e0e0e0"/><stop offset="1" stop-color="#a4a4a4"/></linearGradient><linearGradient id="b" gradientTransform="matrix(-.90500959 0 0 .90500959 45.72023 2.27977)" gradientUnits="userSpaceOnUse" x1="1.900787" x2="37.259529" y1="24" y2="46.099213"><stop offset="0" stop-color="#13ec19"/><stop offset="1" stop-color="#0da311"/></linearGradient><linearGradient id="c" gradientTransform="matrix(-.90500959 0 0 .90500959 45.72023 2.27977)" gradientUnits="userSpaceOnUse" x1="46.099213" x2="28.419842" y1="24" y2="38.364491"><stop offset="0" stop-color="#11cd14"/><stop offset="1" stop-color="#0a850d"/></linearGradient><linearGradient id="d" gradientUnits="userSpaceOnUse" x1="-35.648987" x2="-1.900787" y1="12.950394" y2="24"><stop offset="0" stop-color="#3dc4e9"/><stop offset="1" stop-color="#0c7cef"/></linearGradient><linearGradient id="e" gradientTransform="matrix(-.90500959 0 0 .90500959 45.72023 2.27977)" gradientUnits="userSpaceOnUse" x1="15.405423" x2="-1.414096" y1="15.405423" y2="32.224941"><stop offset="0" stop-color="#292c2f"/><stop offset="1" stop-color="#010800" stop-opacity="0"/></linearGradient><linearGradient id="f" gradientTransform="matrix(-.90500965 0 0 .90500965 45.720232 2.27977)" gradientUnits="userSpaceOnUse" x1="24" x2="23.999788" y1="35.049606" y2="46.099213"><stop offset="0" stop-color="#3c4248"/><stop offset="1" stop-color="#2c3135"/></linearGradient><linearGradient id="g" gradientUnits="userSpaceOnUse" x1="-32.839684" x2="-15.160315" y1="15.160315" y2="32.839684"><stop offset="0" stop-color="#ddd"/><stop offset="1" stop-color="#a4a4a4"/></linearGradient><linearGradient id="h" gradientUnits="userSpaceOnUse" x1="-20.1326401" x2="-16.8177583" xlink:href="#a" y1="30.6297676" y2="32.8396888"/><linearGradient id="i" gradientUnits="userSpaceOnUse" x1="-24.5524621" x2="-21.2375803" xlink:href="#a" y1="27.0386436" y2="29.2485648"/><linearGradient id="j" gradientUnits="userSpaceOnUse" x1="-15.7127971" x2="-12.3979153" xlink:href="#a" y1="26.7624086" y2="28.9723298"/><linearGradient id="k" gradientUnits="userSpaceOnUse" x1="-20.1326301" x2="-16.8177483" xlink:href="#a" y1="25.1049626" y2="27.3148838"/><linearGradient id="l" gradientUnits="userSpaceOnUse" x1="-24.5524621" x2="-21.2375803" xlink:href="#a" y1="22.3425606" y2="24.5524818"/><linearGradient id="m" gradientUnits="userSpaceOnUse" x1="-15.7127971" x2="-12.3979153" xlink:href="#a" y1="22.3425766" y2="24.5524978"/><linearGradient id="n" gradientUnits="userSpaceOnUse" x1="-20.1326301" x2="-16.8177483" xlink:href="#a" y1="19.5801606" y2="21.7900818"/><linearGradient id="o" gradientUnits="userSpaceOnUse" x1="-24.5524621" x2="-21.2375803" xlink:href="#a" y1="17.6464786" y2="19.8563998"/><linearGradient id="p" gradientUnits="userSpaceOnUse" x1="-15.7127971" x2="-12.3979153" xlink:href="#a" y1="17.9227436" y2="20.1326648"/><linearGradient id="q" gradientUnits="userSpaceOnUse" x1="-20.1326411" x2="-16.8177593" xlink:href="#a" y1="14.0553546" y2="16.2652758"/><linearGradient id="r" gradientUnits="userSpaceOnUse" x1="-24.5524621" x2="-21.2375803" xlink:href="#a" y1="12.9503946" y2="15.1603158"/><linearGradient id="s" gradientUnits="userSpaceOnUse" x1="-24.5524821" x2="-21.2376003" xlink:href="#a" y1="31.7347296" y2="33.9446508"/><linearGradient id="t" gradientUnits="userSpaceOnUse" x1="-28.9723261" x2="-25.6574443" xlink:href="#a" y1="30.6297676" y2="32.8396888"/><linearGradient id="u" gradientUnits="userSpaceOnUse" x1="-28.9723171" x2="-25.6574353" xlink:href="#a" y1="25.1049626" y2="27.3148838"/><linearGradient id="v" gradientUnits="userSpaceOnUse" x1="-28.9723171" x2="-25.6574353" xlink:href="#a" y1="19.5801606" y2="21.7900818"/><linearGradient id="w" gradientUnits="userSpaceOnUse" x1="-28.9723261" x2="-25.6574443" xlink:href="#a" y1="14.0553546" y2="16.2652758"/><linearGradient id="x" gradientUnits="userSpaceOnUse" x1="-33.4861471" x2="-30.1712653" xlink:href="#a" y1="26.7624086" y2="28.9723298"/><linearGradient id="y" gradientUnits="userSpaceOnUse" x1="-33.4861471" x2="-30.1712653" xlink:href="#a" y1="22.3425766" y2="24.5524978"/><linearGradient id="z" gradientUnits="userSpaceOnUse" x1="-33.4861471" x2="-30.1712653" xlink:href="#a" y1="17.9227436" y2="20.1326648"/><linearGradient id="A" gradientUnits="userSpaceOnUse" x1="9.00000074642" x2="14.00000044428" y1="9.00000016141" y2="14.00000076428"><stop offset="0" stop-color="#fd8e3a"/><stop offset="1" stop-color="#fdec29"/></linearGradient><circle cx="-24" cy="24" fill="url(#d)" r="22.099213" transform="matrix(.90500959 0 0 .90500959 45.72023 2.27977)"/><g transform="matrix(1.00000003007 0 0 1.00000003007 -.00000015775 .00000016225)"><path d="m4 24a19.999999 19.999999 0 0 0 20 20 19.999999 19.999999 0 0 0 14.078125-5.806641c-20.05912-12.489156-30.4237357-14.19336-34.078125-14.193359z" fill="url(#c)"/><path d="m44 24c-7.991128-.000001-29.950128 8.46176-31.992188 15.974609a19.999999 19.999999 0 0 0 11.992188 4.025391 19.999999 19.999999 0 0 0 20-20z" fill="url(#b)"/><path d="m31.777344 16.222656-15.554688 15.554688 7.777344 7.779297v4.443359a19.999999 19.999999 0 0 0 19.585938-15.96875z" fill="url(#e)" opacity=".5"/><path d="m22 34v2c.99199.991989.999937 4.983251 1 7.974984.332857.02527.666295.01644 1 .02502.333574-.0034.667012-.0056 1-.02565.000023-2.995159.0047-6.97908 1-7.974353v-2z" fill="url(#f)"/></g><path d="m-11.845432 24a12.154568 12.154568 0 0 1 -12.154568 12.154568 12.154568 12.154568 0 0 1 -12.154568-12.154568 12.154568 12.154568 0 0 1 12.154568-12.154568 12.154568 12.154568 0 0 1 12.154568 12.154568z" fill="url(#g)" transform="matrix(.90500959 0 0 .90500959 45.72023 2.27977)"/><rect fill="url(#h)" height="3.314882" rx="11.602086" transform="matrix(0 -.90500959 -.90500959 0 45.72023 2.27977)" width="3.314882" x="-20.685118" y="30.629765"/><rect fill="url(#i)" height="3.314882" rx="11.602086" transform="matrix(0 -.90500959 -.90500959 0 45.72023 2.27977)" width="3.314882" x="-25.10494" y="27.038641"/><rect fill="url(#j)" height="3.314882" rx="11.602086" transform="matrix(0 -.90500959 -.90500959 0 45.72023 2.27977)" width="3.314882" x="-16.265276" y="26.762407"/><rect fill="url(#k)" height="3.314882" rx="11.602086" transform="matrix(0 -.90500959 -.90500959 0 45.72023 2.27977)" width="3.314882" x="-20.685108" y="25.104959"/><rect fill="url(#l)" height="3.314882" rx="11.602086" transform="matrix(0 -.90500959 -.90500959 0 45.72023 2.27977)" width="3.314882" x="-25.10494" y="22.342558"/><rect fill="url(#m)" height="3.314882" rx="11.602086" transform="matrix(0 -.90500959 -.90500959 0 45.72023 2.27977)" width="3.314882" x="-16.265276" y="22.342575"/><rect fill="url(#n)" height="3.314882" rx="11.602086" transform="matrix(0 -.90500959 -.90500959 0 45.72023 2.27977)" width="3.314882" x="-20.685108" y="19.580158"/><rect fill="url(#o)" height="3.314882" rx="11.602086" transform="matrix(0 -.90500959 -.90500959 0 45.72023 2.27977)" width="3.314882" x="-25.10494" y="17.646477"/><rect fill="url(#p)" height="3.314882" rx="11.602086" transform="matrix(0 -.90500959 -.90500959 0 45.72023 2.27977)" width="3.314882" x="-16.265276" y="17.922743"/><rect fill="url(#q)" height="3.314882" rx="11.602086" transform="matrix(0 -.90500959 -.90500959 0 45.72023 2.27977)" width="3.314882" x="-20.685118" y="14.055354"/><rect fill="url(#r)" height="3.314882" rx="11.602086" transform="matrix(0 -.90500959 -.90500959 0 45.72023 2.27977)" width="3.314882" x="-25.10494" y="12.950393"/><rect fill="url(#s)" height="3.314882" rx="11.602086" transform="matrix(0 -.90500959 -.90500959 0 45.72023 2.27977)" width="3.314882" x="-25.104961" y="31.734726"/><rect fill="url(#t)" height="3.314882" rx="11.602086" transform="matrix(0 -.90500959 -.90500959 0 45.72023 2.27977)" width="3.314882" x="-29.524803" y="30.629765"/><rect fill="url(#u)" height="3.314882" rx="11.602086" transform="matrix(0 -.90500959 -.90500959 0 45.72023 2.27977)" width="3.314882" x="-29.524796" y="25.104959"/><rect fill="url(#v)" height="3.314882" rx="11.602086" transform="matrix(0 -.90500959 -.90500959 0 45.72023 2.27977)" width="3.314882" x="-29.524796" y="19.580158"/><rect fill="url(#w)" height="3.314882" rx="11.602086" transform="matrix(0 -.90500959 -.90500959 0 45.72023 2.27977)" width="3.314882" x="-29.524803" y="14.055354"/><rect fill="url(#x)" height="3.314882" rx="11.602086" transform="matrix(0 -.90500959 -.90500959 0 45.72023 2.27977)" width="3.314882" x="-34.038624" y="26.762407"/><rect fill="url(#y)" height="3.314882" rx="11.602086" transform="matrix(0 -.90500959 -.90500959 0 45.72023 2.27977)" width="3.314882" x="-34.038624" y="22.342575"/><rect fill="url(#z)" height="3.314882" rx="11.602086" transform="matrix(0 -.90500959 -.90500959 0 45.72023 2.27977)" width="3.314882" x="-34.038624" y="17.922743"/><path d="m13.394531 7.0434668c-2.56173 1.6101159-4.7247503 3.7441932-6.3261716 6.3113682.8533739 1.011156 2.1085082 1.643013 3.4316406 1.645165 2.485281 0 4.5-2.014719 4.5-4.5-.000065-1.3291841-.587748-2.6015633-1.605469-3.4565332z" fill="url(#A)" transform="matrix(1.00000003007 0 0 1.00000003007 -.00000015775 .00000016225)"/><path d="m43.990234 23.707031a20.000001 19.500001 0 0 1 -19.990234 19.292969 20.000001 19.500001 0 0 1 -19.9902344-19.212891 20.000001 20.000001 0 0 0 -.0097656.212891 20.000001 20.000001 0 0 0 20 20 20.000001 20.000001 0 0 0 20-20 20.000001 20.000001 0 0 0 -.009766-.292969z" fill="#292c2f" opacity=".3" transform="matrix(1.00000003007 0 0 1.00000003007 -.00000015775 .00000016225)"/></svg>