<svg height="48" width="48" xmlns="http://www.w3.org/2000/svg">
    <linearGradient id="a" gradientTransform="matrix(.71746 0 0 .7143 88.917 -436.051)" gradientUnits="userSpaceOnUse" x1="-87" x2="-87" y1="616" y2="672">
        <stop offset="0" stop-color="#d4ba94"/>
        <stop offset="1" stop-color="#997657"/>
    </linearGradient>
    <linearGradient id="i" gradientTransform="matrix(.71428 0 0 .71746 720.36 -803.98)" gradientUnits="userSpaceOnUse" x1="410" x2="421" y1="1080.4" y2="1080.4">
        <stop offset="0" stop-color="#e4720c"/>
        <stop offset="1" stop-color="#f1d23b"/>
    </linearGradient>
    <linearGradient id="b" gradientTransform="matrix(.71746 0 0 .71428 -269.81 -759.114)" gradientUnits="userSpaceOnUse" x1="415" x2="415" y1="1068.4" y2="1079.4">
        <stop offset="0" stop-color="#884d2c"/>
        <stop offset="1" stop-color="#ffa92d"/>
    </linearGradient>
    <linearGradient id="j" gradientTransform="matrix(.71746 0 0 .71428 -269.33 -758.861)" gradientUnits="userSpaceOnUse" x1="424" x2="424" y1="1074.4" y2="1086.4">
        <stop offset="0" stop-color="#884d2c"/>
        <stop offset="1" stop-color="#b7bf31"/>
    </linearGradient>
    <linearGradient id="e" gradientTransform="matrix(.71746 0 0 .71428 -269.85 568.94)" gradientUnits="userSpaceOnUse" x1="409" x2="409" y1="629" y2="642">
        <stop offset="0" stop-color="#ffa92d"/>
        <stop offset="1" stop-color="#ffe5e1"/>
    </linearGradient>
    <linearGradient id="l" gradientTransform="matrix(.71746 0 0 .71428 -269.33 246.11)" gradientUnits="userSpaceOnUse" x1="424" x2="424" y1="1092.4" y2="1101.4">
        <stop offset="0" stop-color="#7ceca4"/>
        <stop offset="1" stop-color="#e1f2ff"/>
    </linearGradient>
    <linearGradient id="g" gradientTransform="matrix(.71746 0 0 .71428 -269.07 -435.461)" gradientUnits="userSpaceOnUse" x1="433.3" x2="433.3" y1="632" y2="643.95">
        <stop offset="0" stop-color="#377d50"/>
        <stop offset="1" stop-color="#3b85b5"/>
    </linearGradient>
    <linearGradient id="k" gradientTransform="matrix(.71746 0 0 .71428 -269.33 568.94)" gradientUnits="userSpaceOnUse" x1="425" x2="425" y1="632" y2="640">
        <stop offset="0" stop-color="#b7bf31"/>
        <stop offset="1" stop-color="#54d883"/>
    </linearGradient>
    <linearGradient id="f" gradientTransform="matrix(.71746 0 0 .71428 -269.07 -434.868)" gradientUnits="userSpaceOnUse" x1="432" x2="432" y1="647" y2="662">
        <stop offset="0" stop-color="#375a7d"/>
        <stop offset="1" stop-color="#7cbcec"/>
    </linearGradient>
    <linearGradient id="d" gradientTransform="matrix(.71746 0 0 .71428 -269.81 -759.15)" gradientUnits="userSpaceOnUse" x1="401" x2="401" y1="1075.4" y2="1086.4">
        <stop offset="0" stop-color="#ac0808"/>
        <stop offset="1" stop-color="#e4720c"/>
    </linearGradient>
    <linearGradient id="h" gradientTransform="matrix(.71746 0 0 .71428 -269.81 568.36)" gradientUnits="userSpaceOnUse" x1="407" x2="407" y1="636" y2="622">
        <stop offset="0" stop-color="#ffa92d"/>
        <stop offset="1" stop-color="#e05e4c"/>
    </linearGradient>
    <linearGradient id="c" gradientTransform="matrix(.71746 0 0 .71428 -269.81 -436.04)" gradientUnits="userSpaceOnUse" x1="393" x2="393" y1="623" y2="632">
        <stop offset="0" stop-color="#913bb5"/>
        <stop offset="1" stop-color="#bf4231"/>
    </linearGradient>
    <path d="M20 5l-4 1-4 2-5 5v3l.691 2.074c3.597 4.059 11.436 7.304 8.348 10.38-1.738 1.73-2.451 3.942-2.455 6.26.002.112.008.223.014.335-.005.126-.014.253-.014.38l.033.02c.385 4.827 4.43 8.55 9.293 8.551.264 0 .53-.013.793-.037C34.473 43.54 42.987 34.73 43 24c0-.335-.009-.669-.025-1H42v-3l-1-3-3-5-4-4-7-3zm2.91 25.428a4.305 4.286 0 0 1 4.307 4.287A4.305 4.286 0 0 1 22.91 39a4.305 4.286 0 0 1-4.305-4.285 4.305 4.286 0 0 1 4.305-4.287z" fill="url(#a)"/>
    <path d="M14 6.093a20.065 20.065 0 0 0-5.412 3.906l6.252.84z" fill="#432b4d"/>
    <path d="M20 4.22c-2.097.308-4.12.944-6 1.873v3.906l6.972 1.238z" fill="#4d2f2b"/>
    <path d="M22.912 4c-.981.001-1.954.08-2.912.22V10l7.237 1.06L26 4.236A20.317 20.317 0 0 0 22.912 4z" fill="#813c33"/>
    <path d="M26 4.236V10l7.37 1.237L32 6.181a19.974 19.974 0 0 0-6-1.945z" fill="url(#b)"/>
    <path d="M32 6.181v3.818l3.463 1.194 1.783-1.194A20.118 20.118 0 0 0 32 6.181z" fill="#7c8133"/>
    <path d="M6.03 14.1c-.471 5.112 9.931 8.985 10.667 12.492C17.398 23.058 6.55 19.204 6.03 14.1z" fill="#6c5548"/>
    <path d="M8.564 10.025c-.268.273-.53.552-.784.842-3.002 2.99-1.781 5.579.586 7.904-1.03-1.18.24-1.157.914-.486.718.714.718 1.429 1.436.715.717-.715-2.152-2.142-2.152-3.57z" fill="#2b3c4d"/>
    <path d="M8.598 10a20.143 20.144 0 0 0-.036.033v.397c0 .714-1.435 1.428-1.435 2.142s1.435 1.429 1.435 2.858l.106-.735c.688-1.93 4.302 1.76 5.332.735l.62-1.39L15 10z" fill="url(#c)"/>
    <path d="M19.283 16c.717-.714-.676-2.714-1.394-2-.717.715 0 2.143-1.434 2.143s-.622-1.786 0-2.143c.612-.352.528-1.251.021-1.508s-1.437.13-1.437 1.338c0 1.032-1.039 1.599-1.039 1.599V10h6l1.15 7.37z" fill="url(#d)"/>
    <path d="M19.284 16s-2.152 1.25-2.152 5.714h2.869v-2.857c0-2.143 2.152-2.857 2.152-2.857h-2.87z" fill="#ffafa5"/>
    <path d="M20 1020.4v2.857c0 .714-1.435.714-2.152 1.429-.36.357-.718.714-.718 1.428 0 .631.718 1.429 1.435 1.429 1.435 0 1.435-1.143 3.435-1.143h4v-6z" fill="url(#e)" transform="translate(0 -1004.4)"/>
    <path d="M36.608 26.122L38 29.447v.696c0 2.143-2.152 5.715-2.869 6.43-.661.658 1.113 1.918 1.957 1.552.255-.253.5-.516.74-.783.536-.735 1.072-1.666 1.608-2.2.087-.086.207-.169.312-.255A19.856 19.856 0 0 0 42.59 28z" fill="url(#f)"/>
    <path d="M38 21.999l-1.282 2.867L38 27.999h4.59a19.969 19.969 0 0 0 .31-6z" fill="#2b3c4d"/>
    <path d="M38 15.999l-2.033 5.646L38 24.142c0 1.428.928 1.22 1.436.714.717-.714 1.434-2.857 2.869-2.857h.595a19.786 19.786 0 0 0-1.582-6z" fill="url(#g)"/>
    <g fill="#6c5548">
        <path d="M42.99 23.647c-.202 10.565-8.64 19.182-19.287 19.6a8.722 8.722 0 0 1-.792.039c-4.863 0-8.908-3.724-9.293-8.55l-.034-.022c.003.112.007.223.013.334-.004.126-.013.252-.013.38l.034.022c.385 4.826 4.43 8.548 9.293 8.55.265 0 .529-.015.792-.039 10.769-.423 19.284-9.23 19.297-19.96 0-.12-.008-.236-.01-.354z"/>
        <path d="M22.911 29.747a4.305 4.286 0 0 0-4.305 4.286 4.305 4.286 0 0 0 .019.355 4.305 4.286 0 0 1 4.286-3.927 4.305 4.286 0 0 1 4.287 3.93 4.305 4.286 0 0 0 .018-.358 4.305 4.286 0 0 0-4.305-4.286z"/>
    </g>
    <ellipse cx="40.004" cy="30" fill="#7cbcec" rx="1.004" ry="1"/>
    <path d="M20 1014.4v6h3.587c1.435 0 1.435.714 1.435 1.429s-.717 1.857-.717 2.571.978 2 1.695 2l1.635-6-1.635-6z" fill="url(#h)" transform="translate(0 -1004.4)"/>
    <path d="M1014.4-32l7.547-1.503L1020.4-26h-6z" fill="url(#i)" transform="rotate(90 502.2 -502.2)"/>
    <path d="M32 9.999v6l6.84.84-.84-6.014c-.247-.28-.492-.56-.754-.826z" fill="url(#j)"/>
    <path d="M38 10.825v5.174h3.318A19.983 19.983 0 0 0 38 10.825z" fill="#2b4d37"/>
    <path d="M26 16h6l1.016 6.972L26 22z" fill="#f7e385"/>
    <path d="M32 1020.4v6h6v-2c0-1.429 2.61-.078 2.61-1.143 0-.714-1.177-.806-1.435-1.428-.183-.44.715-1.429 0-1.429z" fill="url(#k)" transform="translate(0 -1004.4)"/>
    <ellipse cx="33.673" cy="13.2" fill="#ffa92d" rx=".717" ry=".714"/>
    <path d="M30.305 18.429c-.717 0-1.435.714-.717 1.429.717.714.717 2.142-.718 2.142H26s2.153.715 2.153 2.143c0 1.429-1.76 1.647-1.752 3.473.006 1.765 1.7 1.238 2.263 2.446.364.78-.512 1.355.285 2.148.27.173 1.937.265 2.542-.337 1.36-1.354.51-2.015.51-3.444l2.076-3.17L32 21.999v-.714c0-.714-.977-2.857-1.695-2.857z" fill="#ecfde3"/>
    <path d="M32 1026.4v6.428c0-.714 6-.714 6 1.43v-7.858z" fill="url(#l)" transform="translate(0 -1004.4)"/>
    <ellipse cx="30.086" cy="25.7" fill="#986f34" rx=".717" ry="1.071"/>
    <ellipse cx="28.292" cy="11.8" fill="#d7e04c" rx="1.076" ry=".714"/>
</svg>
