<?xml version="1.0" encoding="UTF-8" standalone="no"?>
<svg
   xmlns:dc="http://purl.org/dc/elements/1.1/"
   xmlns:cc="http://creativecommons.org/ns#"
   xmlns:rdf="http://www.w3.org/1999/02/22-rdf-syntax-ns#"
   xmlns:svg="http://www.w3.org/2000/svg"
   xmlns="http://www.w3.org/2000/svg"
   xmlns:xlink="http://www.w3.org/1999/xlink"
   version="1.1"
   id="svg2"
   height="48"
   width="48">
  <metadata
     id="metadata94">
    <rdf:RDF>
      <cc:Work
         rdf:about="">
        <dc:format>image/svg+xml</dc:format>
        <dc:type
           rdf:resource="http://purl.org/dc/dcmitype/StillImage" />
        <dc:title></dc:title>
      </cc:Work>
    </rdf:RDF>
  </metadata>
  <defs
     id="defs4">
    <linearGradient
       x1="32"
       gradientTransform="matrix(0,-1,1,0,12,36)"
       x2="-8"
       gradientUnits="userSpaceOnUse"
       y2="32"
       y1="-6"
       id="b">
      <stop
         id="stop12"
         stop-color="#d8dcde" />
      <stop
         id="stop14"
         stop-color="#f9fafb"
         offset="1" />
    </linearGradient>
    <linearGradient
       gradientTransform="translate(1)"
       gradientUnits="userSpaceOnUse"
       x2="0"
       y2="4"
       y1="8"
       id="c">
      <stop
         id="stop17"
         stop-color="#2f3943" />
      <stop
         id="stop19"
         stop-color="#4d5662"
         offset="1" />
    </linearGradient>
    <linearGradient
       gradientTransform="translate(-22,0)"
       gradientUnits="userSpaceOnUse"
       x2="-0.55932206"
       y2="7.9152541"
       y1="8"
       id="d"
       xlink:href="#c" />
    <linearGradient
       gradientUnits="userSpaceOnUse"
       x2="19"
       y2="19"
       x1="8"
       y1="8"
       id="e">
      <stop
         id="stop23" />
      <stop
         id="stop25"
         stop-opacity="0"
         offset="1" />
    </linearGradient>
    <linearGradient
       gradientTransform="matrix(0,1,1,0,0,0)"
       gradientUnits="userSpaceOnUse"
       x2="19"
       y2="19"
       x1="8"
       y1="8"
       id="f"
       xlink:href="#e" />
    <linearGradient
       y2="1.499"
       x2="29.01"
       y1="13.634"
       x1="29.059999"
       gradientTransform="matrix(-0.00282,0.99376,0.65925,-0.00423,4.893,0.177)"
       gradientUnits="userSpaceOnUse"
       id="linearGradient4618"
       xlink:href="#b-2" />
    <linearGradient
       y2="4"
       x2="0"
       y1="8"
       gradientTransform="translate(-47,0)"
       gradientUnits="userSpaceOnUse"
       id="linearGradient4620"
       xlink:href="#c" />
    <linearGradient
       gradientTransform="matrix(0,1,1,0,0,25)"
       y2="19"
       x2="19"
       y1="8"
       x1="8"
       gradientUnits="userSpaceOnUse"
       id="linearGradient4622"
       xlink:href="#e" />
    <style
       type="text/css"
       id="current-color-scheme">
      .ColorScheme-Text {
        color:#4d4d4d;
      }
      </style>
    <linearGradient
       gradientTransform="translate(52.511351,-30)"
       gradientUnits="userSpaceOnUse"
       x2="0"
       y2="33"
       y1="13"
       id="b-2">
      <stop
         id="stop12-0"
         stop-color="#f67400" />
      <stop
         id="stop14-6"
         stop-color="#fdbc4b"
         offset="1" />
    </linearGradient>
    <style
       type="text/css"
       id="current-color-scheme-2">
      .ColorScheme-Text {
        color:#4d4d4d;
      }
      </style>
    <style
       type="text/css"
       id="current-color-scheme-6">
      .ColorScheme-Text {
        color:#4d4d4d;
      }
      </style>
  </defs>
  <path
     style="fill:url(#b);stroke-width:2;stroke-linejoin:bevel"
     d="M 13,44 44,44 44,4 13,4 Z"
     id="path30" />
  <path
     style="fill:url(#linearGradient4618);stroke-width:2;stroke-linejoin:bevel;fill-opacity:1.0"
     d="M 6,44 6,4 14,4 14,44 Z"
     id="path32" />
  <rect
     transform="matrix(0,-1,1,0,0,0)"
     id="rect36"
     height="1"
     y="13"
     x="-44"
     width="40"
     style="fill:#dd7107;stroke-width:2;stroke-linecap:round;stroke-linejoin:bevel;fill-opacity:1" />
  <path
     id="rect44"
     d="M 7 7 L 7 16 L 8 16 L 8 7 L 7 7 z M 7 32 L 7 41 L 8 41 L 8 32 L 7 32 z "
     style="fill:#f7800c;stroke-width:2;stroke-linecap:round;stroke-linejoin:bevel;fill-opacity:1" />
  <rect
     transform="matrix(0,-1,1,0,0,0)"
     id="rect46"
     height="4"
     y="4"
     x="-40"
     width="7"
     style="fill:url(#linearGradient4620);stroke-width:2;stroke-linecap:round;stroke-linejoin:bevel" />
  <rect
     transform="matrix(0,-1,1,0,0,0)"
     id="rect50"
     height="4"
     y="4"
     x="-15"
     width="7"
     style="fill:url(#d);stroke-width:2;stroke-linecap:round;stroke-linejoin:bevel" />
  <path
     style="opacity:0.2;fill:url(#linearGradient4622);fill-rule:evenodd"
     d="m 8,33 6,6 0,5 -2,0 -4,-4 z"
     id="path56" />
  <path
     style="opacity:0.2;fill:url(#f);fill-rule:evenodd"
     d="m 8,8 6,6 0,7 -6,-6 z"
     id="path58" />
  <path
     id="rect4756"
     d="M 18 8 L 18 14 L 24 14 L 24 8 L 18 8 z M 19 9 L 23 9 L 23 13 L 19 13 L 19 9 z "
     style="opacity:1;fill:#dd7107;fill-opacity:1;stroke:none;stroke-width:2;stroke-miterlimit:4;stroke-dasharray:none;stroke-opacity:1" />
  <path
     id="rect4756-8"
     d="m 18,34 0,6 6,0 0,-6 -6,0 z m 1,1 4,0 0,4 -4,0 0,-4 z"
     style="opacity:1;fill:#da4453;fill-opacity:1;stroke:none;stroke-width:2;stroke-miterlimit:4;stroke-dasharray:none;stroke-opacity:1" />
  <path
     id="rect4756-8-9"
     d="m 18,21 0,6 6,0 0,-6 -6,0 z m 1,1 4,0 0,4 -4,0 0,-4 z"
     style="opacity:1;fill:#27ae60;fill-opacity:1;stroke:none;stroke-width:2;stroke-miterlimit:4;stroke-dasharray:none;stroke-opacity:1" />
  <path
     style="color:#4d4d4d;fill:#4d4d4d;fill-opacity:0.86666667;stroke:none"
     d="M 40.636719,32.439453 33,40 30.089844,37.119141 29.363281,37.839844 32.271485,40.71875 33,41.439453 l 1.089844,-1.080078 7.273437,-7.199218 -0.726562,-0.720704 z"
     class="ColorScheme-Text"
     id="path4820" />
</svg>
