<?xml version="1.0" encoding="UTF-8" standalone="no"?>
<svg xmlns="http://www.w3.org/2000/svg" xmlns:xlink="http://www.w3.org/1999/xlink" height="48" width="48" version="1">
 <defs>
  <linearGradient id="linearGradient4167">
   <stop style="stop-color:#c6cdd1;stop-opacity:1" offset="0"/>
   <stop style="stop-color:#e0e5e7;stop-opacity:1" offset="1"/>
  </linearGradient>
  <linearGradient id="linearGradient4340">
   <stop style="stop-color:#000000;stop-opacity:1;" offset="0"/>
   <stop style="stop-color:#000000;stop-opacity:0;" offset="1"/>
  </linearGradient>
  <linearGradient id="linearGradient4293">
   <stop style="stop-color:#913bb5;stop-opacity:1" offset="0"/>
   <stop style="stop-color:#cb7cec;stop-opacity:1" offset="1"/>
  </linearGradient>
  <linearGradient id="linearGradient4197">
   <stop style="stop-color:#dd2c13;stop-opacity:1;" offset="0"/>
   <stop style="stop-color:#e05e4c;stop-opacity:1" offset="1"/>
  </linearGradient>
  <linearGradient xlink:href="#linearGradient4197" id="linearGradient4203" x1="48.512" y1="-3.732" x2="39.622" y2="-8.012" gradientUnits="userSpaceOnUse"/>
  <linearGradient xlink:href="#linearGradient4197" id="linearGradient4213" x1="31.18" y1="34.498" x2="24" y2="17" gradientUnits="userSpaceOnUse"/>
  <linearGradient xlink:href="#linearGradient4197" id="linearGradient4221" x1="42" y1="39.142" x2="35.616" y2="25.298" gradientUnits="userSpaceOnUse"/>
  <linearGradient xlink:href="#linearGradient4167" id="linearGradient4229" x1="-44" y1="-38" x2="-14.235" y2="-30.179" gradientUnits="userSpaceOnUse"/>
  <linearGradient xlink:href="#linearGradient4167" id="linearGradient4237" x1="-34" y1="-19" x2="-9.811" y2="-9.658" gradientUnits="userSpaceOnUse"/>
  <linearGradient xlink:href="#linearGradient4293" id="linearGradient4299" x1="19.279" y1="32.164" x2="12.106" y2="9.185" gradientUnits="userSpaceOnUse"/>
  <linearGradient xlink:href="#linearGradient4340" id="linearGradient4346" x1="4.68" y1="4.407" x2="27.417" y2="30.538" gradientUnits="userSpaceOnUse" gradientTransform="translate(4.000266,5)"/>
  <linearGradient xlink:href="#linearGradient4293" id="linearGradient4356" gradientUnits="userSpaceOnUse" x1="19.279" y1="32.164" x2="12.106" y2="9.185" gradientTransform="translate(4,5)"/>
  <linearGradient xlink:href="#linearGradient4167" id="linearGradient4368" gradientUnits="userSpaceOnUse" x1="-34" y1="-19" x2="-9.811" y2="-9.658" gradientTransform="translate(-5.0000007,-3.9999993)"/>
 </defs>
 <rect style="fill:url(#linearGradient4229);fill-opacity:1" transform="matrix(0,-1,-1,0,0,0)" rx="1.5" ry="1.467" height="22" width="30" y="-44" x="-44"/>
 <rect style="opacity:1;fill:url(#linearGradient4203);fill-opacity:1;stroke:none;stroke-width:2;stroke-linecap:round;stroke-linejoin:round;stroke-miterlimit:4;stroke-dasharray:none;stroke-opacity:0" width="9.22" height="9.22" x="39.84" y="-10.87" transform="matrix(0.65079135,0.75925662,-0.65079135,0.75925662,0,0)"/>
 <path style="opacity:1;fill:url(#linearGradient4213);fill-opacity:1;stroke:none;stroke-width:2;stroke-linecap:round;stroke-linejoin:round;stroke-miterlimit:4;stroke-dasharray:none;stroke-opacity:0" d="m 24,16 0,1 1,0 0,3 1,0 0,-3 1,0 0,-1 -1,0 -1,0 -1,0 z m 1.5,5 -2.5,3 2.5,3 2.5,-3 -2.5,-3 z"/>
 <path style="opacity:1;fill:url(#linearGradient4221);fill-opacity:1;stroke:none;stroke-width:2;stroke-linecap:round;stroke-linejoin:round;stroke-miterlimit:4;stroke-dasharray:none;stroke-opacity:0" d="m 40.5,31 -2.5,3 2.5,3 2.5,-3 -2.5,-3 z m -0.5,7 0,3 -1,0 0,1 1,0 1,0 1,0 0,-1 -1,0 0,-3 -1,0 z"/>
 <polygon points="502 812.5 551.5 721.5 612.5 637 628.5 616 668 619.5 707 615 713 603 688.5 578 676.5 569.5 693.5 560.5 693.5 540 732.5 497.5 664 430.5 588 333 517.5 214 500 192 386 355 328 328 304 332.5 299.5 366 318.5 403.5 338 431 309.5 462 275.5 507 300 533 304 551 318.5 569.5 340.5 583 351.5 604.5 373.5 617 395 637.5 452.5 723 488.5 788.5" fill="#5a0e00" transform="matrix(.063142 0 0 .063142 -131 -8.0295)" display="none"/>
 <path style="opacity:0.2;fill:url(#linearGradient4346);fill-opacity:1;stroke:none;stroke-width:2;stroke-linecap:round;stroke-linejoin:round;stroke-miterlimit:4;stroke-dasharray:none;stroke-opacity:0" d="M 29.498047 9.4121094 L 18.542969 10.818359 L 11.445312 27.263672 L 8.1914062 38.226562 C 8.2116828 38.2638 8.2267943 38.304661 8.25 38.339844 L 8.2578125 38.349609 L 8.6601562 38.751953 C 8.891611 38.907941 9.1677245 39 9.4667969 39 L 22 39 L 22 42.5 C 22 43.331 22.654264 44 23.466797 44 L 42.533203 44 C 43.345736 44 44 43.331 44 42.5 L 44 23.914062 L 29.498047 9.4121094 z"/>
 <rect x="-34" y="-26" width="30" height="22" ry="1.467" rx="1.5" transform="matrix(0,-1,-1,0,0,0)" style="fill:url(#linearGradient4237);fill-opacity:1.0"/>
 <path style="opacity:1;fill:url(#linearGradient4299);fill-opacity:1;stroke:none;stroke-width:2;stroke-linecap:round;stroke-linejoin:round;stroke-miterlimit:4;stroke-dasharray:none;stroke-opacity:0" d="M 7.199219,6 C 6.952875,6 6.738944,6.09946 6.548828,6.236328 l -0.03516,0.03516 -0.0059,-0.0059 C 6.207733,6.501486 6,6.866668 6,7.300781 L 6,9.617188 6.515625,9.101562 7.929688,10.515625 6.515625,11.929688 6,11.414062 6,15.273438 6.515625,14.757812 7.929688,16.171875 6.515625,17.585938 6,17.070312 6,20.929688 6.515625,20.414062 7.929688,21.828125 6.515625,23.242188 6,22.726562 6,26.585938 6.515625,26.070312 7.929688,27.484375 6.515625,28.898438 6,28.382812 6,30.699219 c 0,0.434113 0.207733,0.799295 0.507812,1.035156 l 0.0059,-0.0059 0.03516,0.03516 C 6.738944,31.90054 6.952875,32 7.199219,32 l 4.699219,0 0.273437,-0.273438 L 12.445312,32 17.554688,32 17.828125,31.726562 18.101562,32 l 4.699219,0 c 0.246344,0 0.460275,-0.09946 0.650391,-0.236328 l 0.03516,-0.03516 0.0059,0.0059 C 23.792267,31.498514 24,31.133332 24,30.699219 l 0,-2.316407 -0.515625,0.515626 -1.414063,-1.414063 1.414063,-1.414063 L 24,26.585938 24,22.726562 23.484375,23.242188 22.070312,21.828125 23.484375,20.414062 24,20.929688 24,17.070312 23.484375,17.585938 22.070312,16.171875 23.484375,14.757812 24,15.273438 24,11.414062 23.484375,11.929688 22.070312,10.515625 23.484375,9.101562 24,9.617188 24,7.300781 C 24,6.866668 23.792267,6.501486 23.492188,6.265625 l -0.0059,0.0059 -0.03516,-0.03516 C 23.261056,6.09946 23.047125,6 22.800781,6 L 18.101562,6 17.828125,6.273438 17.554688,6 12.445312,6 12.171875,6.273438 11.898438,6 7.199219,6 Z M 9.34375,6.273438 10.757812,7.6875 9.34375,9.101562 7.929688,7.6875 9.34375,6.273438 Z M 15,6.273438 16.414062,7.6875 15,9.101562 13.585938,7.6875 15,6.273438 Z m 5.65625,0 L 22.070312,7.6875 20.65625,9.101562 19.242188,7.6875 20.65625,6.273438 Z m -8.484375,2.828124 1.414063,1.414063 -1.414063,1.414063 -1.414063,-1.414063 1.414063,-1.414063 z m 5.65625,0 1.414063,1.414063 -1.414063,1.414063 -1.414063,-1.414063 1.414063,-1.414063 z M 9.34375,11.929688 10.757812,13.34375 9.34375,14.757812 7.929688,13.34375 9.34375,11.929688 Z m 5.65625,0 1.414062,1.414062 L 15,14.757812 13.585938,13.34375 15,11.929688 Z m 5.65625,0 1.414062,1.414062 -1.414062,1.414062 -1.414062,-1.414062 1.414062,-1.414062 z m -8.484375,2.828124 1.414063,1.414063 -1.414063,1.414063 -1.414063,-1.414063 1.414063,-1.414063 z m 5.65625,0 1.414063,1.414063 -1.414063,1.414063 -1.414063,-1.414063 1.414063,-1.414063 z M 9.34375,17.585938 10.757812,19 9.34375,20.414062 7.929688,19 9.34375,17.585938 Z m 5.65625,0 L 16.414062,19 15,20.414062 13.585938,19 15,17.585938 Z m 5.65625,0 L 22.070312,19 20.65625,20.414062 19.242188,19 20.65625,17.585938 Z m -8.484375,2.828124 1.414063,1.414063 -1.414063,1.414063 -1.414063,-1.414063 1.414063,-1.414063 z m 5.65625,0 1.414063,1.414063 -1.414063,1.414063 -1.414063,-1.414063 1.414063,-1.414063 z M 9.34375,23.242188 10.757812,24.65625 9.34375,26.070312 7.929688,24.65625 9.34375,23.242188 Z m 5.65625,0 1.414062,1.414062 L 15,26.070312 13.585938,24.65625 15,23.242188 Z m 5.65625,0 1.414062,1.414062 -1.414062,1.414062 -1.414062,-1.414062 1.414062,-1.414062 z m -8.484375,2.828124 1.414063,1.414063 -1.414063,1.414063 -1.414063,-1.414063 1.414063,-1.414063 z m 5.65625,0 1.414063,1.414063 -1.414063,1.414063 -1.414063,-1.414063 1.414063,-1.414063 z M 9.34375,28.898438 10.757812,30.3125 9.34375,31.726562 7.929688,30.3125 9.34375,28.898438 Z m 5.65625,0 L 16.414062,30.3125 15,31.726562 13.585938,30.3125 15,28.898438 Z m 5.65625,0 1.414062,1.414062 -1.414062,1.414062 -1.414062,-1.414062 1.414062,-1.414062 z"/>
 <path style="fill:#000000;fill-opacity:1;opacity:0.15" d="M 4 31.5 L 4 32.5 C 4 33.331 4.6542635 34 5.4667969 34 L 24.533203 34 C 25.345736 34 26 33.331 26 32.5 L 26 31.5 C 26 32.331 25.345736 33 24.533203 33 L 5.4667969 33 C 4.6542635 33 4 32.331 4 31.5 z"/>
 <rect style="fill:url(#linearGradient4368);fill-opacity:1.0" transform="matrix(0,-1,-1,0,0,0)" rx="1.5" ry="1.467" height="22" width="30" y="-30" x="-39"/>
 <path d="m 11.199219,11 c -0.246344,0 -0.460275,0.09946 -0.650391,0.236328 l -0.03516,0.03516 -0.0059,-0.0059 C 10.207733,11.501486 10,11.866668 10,12.300781 l 0,2.316407 0.515625,-0.515626 1.414063,1.414063 -1.414063,1.414063 L 10,16.414062 l 0,3.859376 0.515625,-0.515626 1.414063,1.414063 -1.414063,1.414063 L 10,22.070312 l 0,3.859376 0.515625,-0.515626 1.414063,1.414063 -1.414063,1.414063 L 10,27.726562 l 0,3.859376 0.515625,-0.515626 1.414063,1.414063 -1.414063,1.414063 L 10,33.382812 l 0,2.316407 c 0,0.434113 0.207733,0.799295 0.507812,1.035156 l 0.0059,-0.0059 0.03516,0.03516 C 10.738944,36.90054 10.952875,37 11.199219,37 l 4.699219,0 0.273437,-0.273438 L 16.445312,37 21.554688,37 21.828125,36.726562 22.101562,37 l 4.699219,0 c 0.246344,0 0.460275,-0.09946 0.650391,-0.236328 l 0.03516,-0.03516 0.0059,0.0059 C 27.792267,36.498514 28,36.133332 28,35.699219 l 0,-2.316407 -0.515625,0.515626 -1.414063,-1.414063 1.414063,-1.414063 L 28,31.585938 28,27.726562 27.484375,28.242188 26.070312,26.828125 27.484375,25.414062 28,25.929688 28,22.070312 27.484375,22.585938 26.070312,21.171875 27.484375,19.757812 28,20.273438 28,16.414062 27.484375,16.929688 26.070312,15.515625 27.484375,14.101562 28,14.617188 28,12.300781 c 0,-0.434113 -0.207733,-0.799295 -0.507812,-1.035156 l -0.0059,0.0059 -0.03516,-0.03516 C 27.261056,11.09946 27.047125,11 26.800781,11 L 22.101562,11 21.828125,11.273438 21.554688,11 16.445312,11 16.171875,11.273438 15.898438,11 11.199219,11 Z M 13.34375,11.273438 14.757812,12.6875 13.34375,14.101562 11.929688,12.6875 13.34375,11.273438 Z m 5.65625,0 L 20.414062,12.6875 19,14.101562 17.585938,12.6875 19,11.273438 Z m 5.65625,0 1.414062,1.414062 -1.414062,1.414062 -1.414062,-1.414062 1.414062,-1.414062 z m -8.484375,2.828124 1.414063,1.414063 -1.414063,1.414063 -1.414063,-1.414063 1.414063,-1.414063 z m 5.65625,0 1.414063,1.414063 -1.414063,1.414063 -1.414063,-1.414063 1.414063,-1.414063 z m -8.484375,2.828126 1.414062,1.414062 -1.414062,1.414062 -1.414062,-1.414062 1.414062,-1.414062 z m 5.65625,0 1.414062,1.414062 L 19,19.757812 17.585938,18.34375 19,16.929688 Z m 5.65625,0 1.414062,1.414062 -1.414062,1.414062 -1.414062,-1.414062 1.414062,-1.414062 z m -8.484375,2.828124 1.414063,1.414063 -1.414063,1.414063 -1.414063,-1.414063 1.414063,-1.414063 z m 5.65625,0 1.414063,1.414063 -1.414063,1.414063 -1.414063,-1.414063 1.414063,-1.414063 z M 13.34375,22.585938 14.757812,24 13.34375,25.414062 11.929688,24 13.34375,22.585938 Z m 5.65625,0 L 20.414062,24 19,25.414062 17.585938,24 19,22.585938 Z m 5.65625,0 L 26.070312,24 24.65625,25.414062 23.242188,24 24.65625,22.585938 Z m -8.484375,2.828124 1.414063,1.414063 -1.414063,1.414063 -1.414063,-1.414063 1.414063,-1.414063 z m 5.65625,0 1.414063,1.414063 -1.414063,1.414063 -1.414063,-1.414063 1.414063,-1.414063 z m -8.484375,2.828126 1.414062,1.414062 -1.414062,1.414062 -1.414062,-1.414062 1.414062,-1.414062 z m 5.65625,0 1.414062,1.414062 L 19,31.070312 17.585938,29.65625 19,28.242188 Z m 5.65625,0 1.414062,1.414062 -1.414062,1.414062 -1.414062,-1.414062 1.414062,-1.414062 z m -8.484375,2.828124 1.414063,1.414063 -1.414063,1.414063 -1.414063,-1.414063 1.414063,-1.414063 z m 5.65625,0 1.414063,1.414063 -1.414063,1.414063 -1.414063,-1.414063 1.414063,-1.414063 z M 13.34375,33.898438 14.757812,35.3125 13.34375,36.726562 11.929688,35.3125 13.34375,33.898438 Z m 5.65625,0 L 20.414062,35.3125 19,36.726562 17.585938,35.3125 19,33.898438 Z m 5.65625,0 1.414062,1.414062 -1.414062,1.414062 -1.414062,-1.414062 1.414062,-1.414062 z" style="opacity:1;fill:url(#linearGradient4356);fill-opacity:1;stroke:none;stroke-width:2;stroke-linecap:round;stroke-linejoin:round;stroke-miterlimit:4;stroke-dasharray:none;stroke-opacity:0"/>
 <path style="fill:#000000;fill-opacity:1;opacity:0.15" d="M 22 41.5 L 22 42.5 C 22 43.331 22.654264 44 23.466797 44 L 42.533203 44 C 43.345736 44 44 43.331 44 42.5 L 44 41.5 C 44 42.331 43.345736 43 42.533203 43 L 23.466797 43 C 22.654264 43 22 42.331 22 41.5 z"/>
 <path style="fill:#000000;fill-opacity:1;opacity:0.15" d="M 8 36.5 L 8 37.5 C 8 38.331 8.6542635 39 9.4667969 39 L 28.533203 39 C 29.345736 39 30 38.331 30 37.5 L 30 36.5 C 30 37.331 29.345736 38 28.533203 38 L 9.4667969 38 C 8.6542635 38 8 37.331 8 36.5 z"/>
</svg>
