<svg xmlns="http://www.w3.org/2000/svg" xmlns:xlink="http://www.w3.org/1999/xlink" width="48" height="48">
 <defs>
  <linearGradient id="0">
   <stop stop-color="#2a2c2f"/>
   <stop offset="1" stop-color="#424649"/>
  </linearGradient>
  <linearGradient xlink:href="#0" id="1" y1="536.798" x2="0" y2="503.798" gradientUnits="userSpaceOnUse"/>
  <linearGradient xlink:href="#3" id="2" y1="547.798" x2="0" y2="536.798" gradientUnits="userSpaceOnUse" gradientTransform="matrix(1,0,0,0.54545458,0,243.99907)"/>
  <linearGradient id="3">
   <stop stop-color="#c6cdd1"/>
   <stop offset="1" stop-color="#e0e5e7"/>
  </linearGradient>
  <linearGradient id="4">
   <stop stop-color="#7e8f9e"/>
   <stop offset="1" stop-color="#84ced5"/>
  </linearGradient>
  <linearGradient xlink:href="#4" id="5" y1="541.798" x2="0" y2="489.798" gradientUnits="userSpaceOnUse" gradientTransform="translate(-392.57141,-493.798)"/>
  <linearGradient xlink:href="#7" id="6" x1="394.571" y1="535.798" x2="404.571" y2="522.798" gradientUnits="userSpaceOnUse" gradientTransform="translate(-392.57141,-493.798)"/>
  <linearGradient id="7">
   <stop stop-color="#e4a56d"/>
   <stop offset="1" stop-color="#a7bd78"/>
  </linearGradient>
  <linearGradient xlink:href="#9" id="8" x1="404.571" x2="421.571" gradientUnits="userSpaceOnUse" gradientTransform="translate(-392.57141,-493.798)"/>
  <linearGradient id="9">
   <stop stop-color="#c3a278"/>
   <stop offset="1" stop-color="#68a"/>
  </linearGradient>
  <linearGradient xlink:href="#B" id="A" x1="430.571" y1="536.798" x2="437.5" y2="524.798" gradientUnits="userSpaceOnUse" gradientTransform="translate(-392.57141,-493.798)"/>
  <linearGradient id="B">
   <stop stop-color="#6588af"/>
   <stop offset="1" stop-color="#8ba8cd"/>
  </linearGradient>
  <linearGradient xlink:href="#D" id="C" x1="421.571" x2="438.571" gradientUnits="userSpaceOnUse" gradientTransform="translate(-7.9999833,6.0000022)"/>
  <linearGradient id="D">
   <stop stop-color="#89ad8b"/>
   <stop offset="1" stop-color="#82b3c7"/>
  </linearGradient>
  <linearGradient xlink:href="#F" id="E" x1="387.571" y1="525.798" x2="401.571" y2="513.798" gradientUnits="userSpaceOnUse" gradientTransform="translate(-392.57141,-493.798)"/>
  <linearGradient id="F">
   <stop stop-color="#e1b16f"/>
   <stop offset="1" stop-color="#99bf83"/>
  </linearGradient>
  <linearGradient xlink:href="#H" id="G" x1="404.571" y1="510.798" x2="391.571" y2="498.798" gradientUnits="userSpaceOnUse" gradientTransform="translate(-392.57141,-493.798)"/>
  <linearGradient id="H">
   <stop stop-color="#99c487"/>
   <stop offset="1" stop-color="#b4d99e"/>
  </linearGradient>
  <linearGradient xlink:href="#J" id="I" x1="404.571" x2="421.571" gradientUnits="userSpaceOnUse" gradientTransform="translate(-392.57141,-493.798)"/>
  <linearGradient id="J">
   <stop stop-color="#75d5c7"/>
   <stop offset="1" stop-color="#66afb9"/>
  </linearGradient>
  <linearGradient xlink:href="#L" id="K" x1="428.571" y1="495.798" x2="438.571" y2="504.798" gradientUnits="userSpaceOnUse" gradientTransform="translate(-392.57141,-493.798)"/>
  <linearGradient id="L">
   <stop stop-color="#5c7b9e"/>
   <stop offset="1" stop-color="#839dc0"/>
  </linearGradient>
  <linearGradient xlink:href="#N" id="M" x1="421.571" x2="406.571" gradientUnits="userSpaceOnUse" gradientTransform="translate(-392.57141,-493.798)"/>
  <linearGradient id="N">
   <stop stop-color="#7fbcc6"/>
   <stop offset="1" stop-color="#8ee4e3"/>
  </linearGradient>
  <linearGradient xlink:href="#P" id="O" x1="421.571" x2="436.571" gradientUnits="userSpaceOnUse" gradientTransform="translate(-392.57141,-493.798)"/>
  <linearGradient id="P">
   <stop stop-color="#84d5d7"/>
   <stop offset="1" stop-color="#84a8ba"/>
  </linearGradient>
 </defs>
 <g transform="translate(-384.57143,-499.798)">
  <path d="m 402.57143,536.798 0,3.81819 0,1.0909 0,1.09091 12,0 0,-1.09091 0,-1.0909 0,-3.81819 z" fill="url(#2)"/>
  <rect width="48" height="36" x="384.57" y="503.8" fill="url(#1)"/>
  <g>
   <path transform="translate(384.57143,499.798)" d="M 2 6 L 2 36 L 46 36 L 46 6 L 2 6 z" fill="url(#5)"/>
   <g fill-rule="evenodd">
    <path transform="translate(384.57143,499.798)" d="M 12 22 L 2 30.234375 L 2 36 L 12 36 L 12 22 z" fill="url(#6)"/>
    <path transform="translate(384.57143,499.798)" d="M 12 22 L 12 36 L 29 36 L 12 22 z" fill="url(#8)"/>
    <path transform="translate(384.57143,499.798)" d="M 46 22 L 29 36 L 46 36 L 46 22 z" fill="url(#A)"/>
    <path d="m 413.57144,529.798 0,-22 16.99999,14 -16.99999,14 z" fill="url(#C)"/>
    <path transform="translate(384.57143,499.798)" d="M 2 13.765625 L 2 30.234375 L 12 22 L 2 13.765625 z" fill="url(#E)"/>
    <path transform="translate(384.57143,499.798)" d="M 2 6 L 2 13.765625 L 12 22 L 12 16 L 12 6 L 2 6 z" fill="url(#G)"/>
    <path transform="translate(384.57143,499.798)" d="M 12 6 L 12 16 L 12 22 L 29 8 L 26.570312 6 L 12 6 z" fill="url(#I)"/>
    <path transform="translate(384.57143,499.798)" d="M 31.429688 6 L 29 8 L 46 22 L 46 16 L 46 6 L 31.429688 6 z" fill="url(#K)"/>
    <path transform="translate(384.57143,499.798)" d="M 26.570312 6 L 29 8 L 29 6 L 26.570312 6 z" fill="url(#M)"/>
    <path transform="translate(384.57143,499.798)" d="M 29 6 L 29 8 L 31.429688 6 L 29 6 z" fill="url(#O)"/>
   </g>
  </g>
  <rect width="22" height="2" x="397.57" y="541.8" fill="#99a1a7"/>
  <path d="m 397.28588,517.88673 2.23373,2.23374 c 5.55085,-5.55083 14.55279,-5.55083 20.10365,0 l 2.23372,-2.23374 c -6.78496,-6.78497 -17.78613,-6.78497 -24.5711,0 z m 8.93495,8.93495 3.3506,3.35061 3.35061,-3.35061 c -1.84842,-1.84841 -4.85279,-1.84841 -6.70121,0 z m -4.46747,-4.46747 2.23372,2.23374 c 3.08256,-3.08256 8.08613,-3.08256 11.16868,0 l 2.23374,-2.23374 c -4.31669,-4.3167 -11.31946,-4.3167 -15.63615,0 z" opacity=".75" fill="#fff"/>
 </g>
</svg>
