<svg width="48" xmlns="http://www.w3.org/2000/svg" height="48">
 <defs>
  <linearGradient id="a" y1="35" x1="23" y2="13" x2="5" gradientUnits="userSpaceOnUse" gradientTransform="translate(382.57 499.8)">
   <stop stop-color="#c61423"/>
   <stop offset="1" stop-color="#dc2b41"/>
  </linearGradient>
  <linearGradient id="b" y1="35" x1="42" y2="12" x2="22" gradientUnits="userSpaceOnUse" gradientTransform="translate(386.57 499.8)">
   <stop stop-color="#197cf1"/>
   <stop offset="1" stop-color="#20bcfa"/>
  </linearGradient>
  <linearGradient id="c" y1="513.38" x1="399.99" y2="537.38" x2="424.99" gradientUnits="userSpaceOnUse" gradientTransform="translate(-2.414-1.586)">
   <stop stop-color="#292c2f"/>
   <stop offset="1" stop-opacity="0"/>
  </linearGradient>
  <linearGradient id="d" y1="543.8" y2="503.8" x2="0" gradientUnits="userSpaceOnUse" gradientTransform="matrix(1.05 0 0 .85-20.429 78.57)">
   <stop stop-color="#e3dfd6"/>
   <stop offset="1" stop-color="#f4f1e8"/>
  </linearGradient>
  <linearGradient id="e" y1="543.8" y2="503.8" x2="0" gradientUnits="userSpaceOnUse" gradientTransform="matrix(1.5 0 0 1-588.86-499.8)">
   <stop stop-color="#bd8d48"/>
   <stop offset="1" stop-color="#e8b971"/>
  </linearGradient>
 </defs>
 <g transform="translate(-384.57-499.8)">
  <path fill="url(#e)" d="m0 4v40h48v-40zm2 2h44v36h-44z" transform="translate(384.57 499.8)"/>
  <rect width="42" x="387.57" y="506.8" fill="url(#d)" height="34"/>
  <path opacity=".2" fill="url(#c)" fill-rule="evenodd" d="m389.57 531.8l11 12h32v-17l-11-11h-7v16l-16.381-16h-1.619l-5 16z"/>
  <path fill="url(#b)" d="m414.57 515.8v16h7a5 5 0 0 0 5 -5 5 5 0 0 0 -2.86523 -4.51563 4.00001 4.00001 0 0 0 .86523 -2.48437 4.00001 4.00001 0 0 0 -4 -4h-4zm2 2h4a2 2 0 0 1 2 2 2 2 0 0 1 -2 2h-4zm0 6h5a2.999994 3.00001 0 0 1 3 3 2.999994 3.00001 0 0 1 -3 3h-5v-3zm0 3a5 5 0 0 0 .004 .0762v-.193a5 5 0 0 0 -.004 .11719"/>
  <path fill="url(#a)" d="m395.73 515.8l-6.109 16h2.283l1.42-4h7.287l1.42 4h2.25l-6.098-16zm1.221 2.133l2.912 7.867h-5.813z"/>
  <g transform="translate(384.57 499.8)">
   <path fill="#aa7f41" d="m2 6v36h44v-36zm1 1h42v34h-42z"/>
   <path fill="#bdb49e" d="m19 9v2h4v26h-4v2h10v-2h-4v-26h4v-2z"/>
  </g>
 </g>
</svg>
