<?xml version="1.0" encoding="UTF-8" standalone="no"?>
<svg width="48" version="1.1" xmlns="http://www.w3.org/2000/svg" height="48" viewBox="0 0 48 48" xmlns:xlink="http://www.w3.org/1999/xlink">
 <defs>
  <linearGradient id="linearGradient5032">
   <stop/>
   <stop offset="1" style="stop-opacity:0"/>
  </linearGradient>
  <linearGradient id="linearGradient4918">
   <stop style="stop-color:#3daefd"/>
   <stop offset="1" style="stop-color:#24a058"/>
  </linearGradient>
  <linearGradient id="linearGradient4909">
   <stop style="stop-color:#2c3e50"/>
   <stop offset="1" style="stop-color:#0d352d"/>
  </linearGradient>
  <linearGradient id="linearGradient4303">
   <stop style="stop-color:#c6cdd1"/>
   <stop offset="1" style="stop-color:#e0e5e7"/>
  </linearGradient>
  <linearGradient xlink:href="#linearGradient4303" id="linearGradient4174-5" y1="543.798" y2="503.798" x2="0" gradientUnits="userSpaceOnUse" gradientTransform="matrix(1 0 0 1 -817.14285 0)"/>
  <linearGradient xlink:href="#linearGradient4909" id="linearGradient4915" y1="509.548" x1="-398.634" y2="539.173" x2="-416.571" gradientUnits="userSpaceOnUse"/>
  <linearGradient xlink:href="#linearGradient4918" id="linearGradient4924" y1="12.42" x1="9.268" y2="38.819" x2="35.667" gradientUnits="userSpaceOnUse"/>
  <linearGradient xlink:href="#linearGradient4303" id="linearGradient4982" y1="500.798" y2="503.798" x2="0" gradientUnits="userSpaceOnUse"/>
  <linearGradient xlink:href="#linearGradient4303" id="linearGradient4990" x1="411.571" x2="405.571" gradientUnits="userSpaceOnUse"/>
  <linearGradient xlink:href="#linearGradient5032" id="linearGradient5038" y1="10" x1="10" y2="22" x2="22" gradientUnits="userSpaceOnUse"/>
 </defs>
 <g transform="matrix(1 0 0 1 -384.57143 -499.798)">
  <g transform="matrix(0.70710678 -0.70710678 0.70710678 0.70710678 -250.71332 442.32051)">
   <rect width="2" x="407.57" y="501.8" height="4" style="fill:#31363b;stroke-linecap:round;stroke-linejoin:round;stroke-width:2"/>
   <rect width="6" x="405.57" y="500.8" rx="1" height="2" style="fill:url(#linearGradient4982);stroke-linecap:round;stroke-linejoin:round;stroke-width:2"/>
  </g>
  <g transform="matrix(0.70710678 0.70710678 -0.70710678 0.70710678 490.04892 -135.48675)">
   <rect width="2" x="407.57" y="501.8" height="4" style="fill:#31363b;stroke-linecap:round;stroke-linejoin:round;stroke-width:2"/>
   <rect width="6" x="405.57" y="500.8" rx="1" height="2" style="fill:url(#linearGradient4990);stroke-linecap:round;stroke-linejoin:round;stroke-width:2"/>
  </g>
  <rect width="40" x="-428.57" y="503.8" rx="20" height="40" style="stroke-opacity:0.550265;fill:url(#linearGradient4174-5);stroke-width:2.8" transform="matrix(-1 0 0 1 0 0)"/>
  <path style="stroke-opacity:0.550265;fill:#99a1a7;stroke-width:2.8" d="m 388.58313,523.298 c -0.004,0.16686 -0.0117,0.33212 -0.0117,0.5 0,11.07999 8.92001,20 20,20 11.07999,0 20,-8.92001 20,-20 0,-0.16788 -0.008,-0.33315 -0.0117,-0.5 -0.26418,10.84657 -9.07584,19.5 -19.98828,19.5 -10.91244,0 -19.7241,-8.65343 -19.98828,-19.5 z"/>
  <rect width="34" x="-425.57" y="506.8" rx="17" height="34" style="stroke-opacity:0.550265;fill:url(#linearGradient4915);stroke-width:2.8" transform="matrix(-1 0 0 1 0 0)"/>
  <path style="stroke-opacity:0.550265;fill:url(#linearGradient4924);stroke-width:2.8" d="M 24 8 C 23.491999 8 22.993763 8.0382668 22.5 8.0898438 L 22.5 11.105469 C 22.992879 11.044956 23.490092 11 24 11 C 24.508502 11 25.007043 11.035537 25.5 11.091797 L 25.5 8.0742188 C 25.005793 8.0286245 24.5065 8 24 8 z M 26.669922 8.2382812 L 25.888672 11.150391 C 26.898676 11.296596 27.871333 11.552932 28.791016 11.916016 L 29.570312 9.0097656 C 28.640887 8.6660386 27.672715 8.4057669 26.669922 8.2382812 z M 30.664062 9.4570312 L 29.160156 12.060547 C 30.089068 12.460638 30.95307 12.975024 31.753906 13.570312 L 33.263672 10.953125 C 32.450179 10.37561 31.581407 9.8762258 30.664062 9.4570312 z M 21.853516 10.183594 C 20.861057 10.337211 19.888009 10.59717 18.951172 10.958984 L 19.208984 11.917969 C 20.144169 11.55074 21.118773 11.293161 22.113281 11.150391 L 21.853516 10.183594 z M 18.34375 11.205078 C 17.427826 11.612089 16.558257 12.116282 15.75 12.708984 L 16.251953 13.578125 C 17.057155 12.980248 17.928838 12.477556 18.849609 12.080078 L 18.34375 11.205078 z M 34.212891 11.666016 L 32.072266 13.806641 C 32.85928 14.429798 33.570202 15.14072 34.193359 15.927734 L 36.333984 13.787109 C 35.694863 13.015172 34.984828 12.305137 34.212891 11.666016 z M 15.226562 13.105469 C 14.443869 13.732338 13.730793 14.441486 13.099609 15.220703 L 13.818359 15.939453 C 14.437555 15.150077 15.146045 14.435031 15.929688 13.808594 L 15.226562 13.105469 z M 37.046875 14.736328 L 34.429688 16.246094 C 35.02463 17.046464 35.539472 17.909585 35.939453 18.837891 L 38.542969 17.335938 C 38.123774 16.418592 37.62439 15.549821 37.046875 14.736328 z M 12.708984 15.75 C 12.118076 16.559756 11.615846 17.430636 11.210938 18.347656 L 12.070312 18.845703 C 12.471747 17.925734 12.978377 17.055352 13.580078 16.251953 L 12.708984 15.75 z M 38.990234 18.429688 L 36.083984 19.208984 C 36.447068 20.128667 36.703404 21.101324 36.849609 22.111328 L 39.761719 21.330078 C 39.594233 20.327285 39.333961 19.359112 38.990234 18.429688 z M 10.943359 18.949219 C 10.584346 19.88573 10.327009 20.858109 10.175781 21.849609 L 11.154297 22.111328 C 11.298622 21.117989 11.557508 20.144707 11.925781 19.210938 L 10.943359 18.949219 z M 19.5 20 C 19.223007 20 19 20.223007 19 20.5 C 19 20.776993 19.223007 21 19.5 21 L 20.5 21 C 20.776993 21 21 20.776993 21 20.5 C 21 20.223007 20.776993 20 20.5 20 L 19.5 20 z M 27.5 20 C 27.223007 20 27 20.223007 27 20.5 C 27 20.776993 27.223007 21 27.5 21 L 28.5 21 C 28.776993 21 29 20.776993 29 20.5 C 29 20.223007 28.776993 20 28.5 20 L 27.5 20 z M 32.5 20 C 32.223007 20 32 20.223007 32 20.5 C 32 20.776993 32.223007 21 32.5 21 L 33.5 21 C 33.776993 21 34 20.776993 34 20.5 C 34 20.223007 33.776993 20 33.5 20 L 32.5 20 z M 16.5 21 C 16.223003 21 16 21.223 16 21.5 L 16 22.5 C 16 22.777 16.223003 23 16.5 23 C 16.776997 23 17 22.777 17 22.5 L 17 21.5 C 17 21.223 16.776997 21 16.5 21 z M 21.5 21 C 21.223003 21 21 21.223 21 21.5 L 21 22.5 C 21 22.777 21.223003 23 21.5 23 C 21.776997 23 22 22.777 22 22.5 L 22 21.5 C 22 21.223 21.776997 21 21.5 21 z M 24 21 A 1 1 0 0 0 23 22 A 1 1 0 0 0 24 23 A 1 1 0 0 0 25 22 A 1 1 0 0 0 24 21 z M 29.5 21 C 29.223003 21 29 21.223 29 21.5 L 29 22.5 C 29 22.777 29.223003 23 29.5 23 C 29.776997 23 30 22.777 30 22.5 L 30 21.5 C 30 21.223 29.776997 21 29.5 21 z M 34.5 21 C 34.223003 21 34 21.223 34 21.5 L 34 22.5 C 34 22.777 34.223003 23 34.5 23 C 34.776997 23 35 22.777 35 22.5 L 35 21.5 C 35 21.223 34.776997 21 34.5 21 z M 10.097656 22.5 C 10.038266 22.99789 10.005667 23.498612 10 24 C 10.0018 24.501178 10.030457 25.001899 10.085938 25.5 L 11.103516 25.5 C 11.040099 25.002416 11.005537 24.501578 11 24 C 11.0029 23.498573 11.034903 22.997736 11.095703 22.5 L 10.097656 22.5 z M 36.908203 22.5 C 36.964464 22.992957 37 23.491498 37 24 C 37 24.508502 36.964463 25.007043 36.908203 25.5 L 39.925781 25.5 C 39.971375 25.005793 40 24.5065 40 24 C 40 23.4935 39.971371 22.994207 39.925781 22.5 L 36.908203 22.5 z M 19.5 23 C 19.223007 23 19 23.223007 19 23.5 C 19 23.776993 19.223007 24 19.5 24 L 20.5 24 C 20.776993 24 21 23.776993 21 23.5 C 21 23.223007 20.776993 23 20.5 23 L 19.5 23 z M 27.5 23 C 27.223007 23 27 23.223007 27 23.5 C 27 23.776993 27.223007 24 27.5 24 L 28.5 24 C 28.776993 24 29 23.776993 29 23.5 C 29 23.223007 28.776993 23 28.5 23 L 27.5 23 z M 16.5 24 C 16.223003 24 16 24.223 16 24.5 L 16 25.5 C 16 25.777 16.223003 26 16.5 26 C 16.776997 26 17 25.777 17 25.5 L 17 24.5 C 17 24.223 16.776997 24 16.5 24 z M 21.5 24 C 21.223003 24 21 24.223 21 24.5 L 21 25.5 C 21 25.777 21.223003 26 21.5 26 C 21.776997 26 22 25.777 22 25.5 L 22 24.5 C 22 24.223 21.776997 24 21.5 24 z M 24 24 A 1 1 0 0 0 23 25 A 1 1 0 0 0 24 26 A 1 1 0 0 0 25 25 A 1 1 0 0 0 24 24 z M 29.5 24 C 29.223003 24 29 24.223 29 24.5 L 29 25.5 C 29 25.777 29.223003 26 29.5 26 C 29.776997 26 30 25.777 30 25.5 L 30 24.5 C 30 24.223 29.776997 24 29.5 24 z M 34.5 24 C 34.223003 24 34 24.223 34 24.5 L 34 25.5 C 34 25.777 34.223003 26 34.5 26 C 34.776997 26 35 25.777 35 25.5 L 35 24.5 C 35 24.223 34.776997 24 34.5 24 z M 11.150391 25.888672 L 10.183594 26.148438 C 10.337347 27.140232 10.597305 28.11262 10.958984 29.048828 L 11.917969 28.791016 C 11.550885 27.856457 11.293309 26.882516 11.150391 25.888672 z M 36.849609 25.888672 C 36.703404 26.898676 36.447068 27.871333 36.083984 28.791016 L 38.990234 29.570312 C 39.333961 28.640888 39.594233 27.672715 39.761719 26.669922 L 36.849609 25.888672 z M 19.5 26 C 19.223007 26 19 26.223007 19 26.5 C 19 26.776993 19.223007 27 19.5 27 L 20.5 27 C 20.776993 27 21 26.776993 21 26.5 C 21 26.223007 20.776993 26 20.5 26 L 19.5 26 z M 27.5 26 C 27.223007 26 27 26.223007 27 26.5 C 27 26.776993 27.223007 27 27.5 27 L 28.5 27 C 28.776993 27 29 26.776993 29 26.5 C 29 26.223007 28.776993 26 28.5 26 L 27.5 26 z M 12.080078 29.150391 L 11.205078 29.65625 C 11.612089 30.572174 12.116282 31.441743 12.708984 32.25 L 13.578125 31.748047 C 12.980248 30.942845 12.477556 30.071162 12.080078 29.150391 z M 35.939453 29.160156 C 35.539362 30.089068 35.024976 30.95307 34.429688 31.753906 L 37.046875 33.263672 C 37.62439 32.450179 38.123774 31.581407 38.542969 30.664062 L 35.939453 29.160156 z M 13.808594 32.070312 L 13.105469 32.773438 C 13.732338 33.556131 14.441486 34.269207 15.220703 34.900391 L 15.939453 34.181641 C 15.150077 33.562445 14.435031 32.853955 13.808594 32.070312 z M 34.193359 32.072266 C 33.570202 32.85928 32.85928 33.570202 32.072266 34.193359 L 34.212891 36.333984 C 34.984828 35.694863 35.694863 34.984828 36.333984 34.212891 L 34.193359 32.072266 z M 16.248047 34.427734 L 14.740234 37.037109 C 15.553116 37.614968 16.415958 38.128404 17.332031 38.548828 L 18.84375 35.931641 C 17.916132 35.530627 17.048357 35.022907 16.248047 34.427734 z M 31.753906 34.429688 C 30.953536 35.02463 30.090415 35.539472 29.162109 35.939453 L 30.664062 38.542969 C 31.581408 38.123774 32.450179 37.62439 33.263672 37.046875 L 31.753906 34.429688 z M 19.210938 36.078125 L 18.427734 38.996094 C 19.355953 39.340973 20.32436 39.605035 21.326172 39.773438 L 22.109375 36.853516 C 21.099168 36.706442 20.13041 36.442689 19.210938 36.078125 z M 28.791016 36.083984 C 27.870753 36.447297 26.897409 36.703457 25.886719 36.849609 L 26.667969 39.761719 C 27.671436 39.594245 28.6403 39.334179 29.570312 38.990234 L 28.791016 36.083984 z M 22.5 36.904297 L 22.5 39.925781 C 22.993828 39.971616 23.493671 40 24 40 C 24.5065 40 25.005793 39.971371 25.5 39.925781 L 25.5 36.908203 C 25.007043 36.964465 24.508502 37 24 37 C 23.491332 37 22.992894 36.960877 22.5 36.904297 z" transform="matrix(1 0 0 1 384.57143 499.798)"/>
  <rect width="2" x="398.57" y="519.8" rx=".5" height="1" style="fill:#192629;stroke-linecap:round;stroke-linejoin:round;stroke-width:2"/>
  <rect width="1" x="397.57" y="520.8" rx=".5" height="2" ry=".5" style="fill:#192629;stroke-linecap:round;stroke-linejoin:round;stroke-width:2"/>
  <rect width="1" x="397.57" y="523.8" rx=".5" height="2" ry=".5" style="fill:#192629;stroke-linecap:round;stroke-linejoin:round;stroke-width:2"/>
  <rect width="2" x="398.57" y="522.8" rx=".5" height="1" style="fill:#192629;stroke-linecap:round;stroke-linejoin:round;stroke-width:2"/>
  <rect width="2" x="398.57" y="525.8" rx=".5" height="1" style="fill:#192629;stroke-linecap:round;stroke-linejoin:round;stroke-width:2"/>
  <rect width="1" x="402.57" y="520.8" rx=".5" height="2" ry=".5" style="fill:#192629;stroke-linecap:round;stroke-linejoin:round;stroke-width:2"/>
  <rect width="1" x="402.57" y="523.8" rx=".5" height="2" ry=".5" style="fill:#192629;stroke-linecap:round;stroke-linejoin:round;stroke-width:2"/>
  <rect width="1" x="410.57" y="520.8" rx=".5" height="2" ry=".5" style="fill:#192629;stroke-linecap:round;stroke-linejoin:round;stroke-width:2"/>
  <rect width="1" x="410.57" y="523.8" rx=".5" height="2" ry=".5" style="fill:#192629;stroke-linecap:round;stroke-linejoin:round;stroke-width:2"/>
  <rect width="1" x="415.57" y="520.8" rx=".5" height="2" ry=".5" style="fill:#192629;stroke-linecap:round;stroke-linejoin:round;stroke-width:2"/>
  <rect width="1" x="415.57" y="523.8" rx=".5" height="2" ry=".5" style="fill:#192629;stroke-linecap:round;stroke-linejoin:round;stroke-width:2"/>
  <rect width="2" x="416.57" y="522.8" rx=".5" height="1" style="fill:#192629;stroke-linecap:round;stroke-linejoin:round;stroke-width:2"/>
  <rect width="2" x="416.57" y="525.8" rx=".5" height="1" style="fill:#192629;stroke-linecap:round;stroke-linejoin:round;stroke-width:2"/>
  <path style="fill:url(#linearGradient5038);opacity:0.2;stroke-linecap:round;stroke-linejoin:round;stroke-width:2" d="M 12.142578 7.9003906 C 10.522121 9.0936509 9.0936509 10.522121 7.9003906 12.142578 L 30.363281 34.607422 L 34.607422 30.363281 L 12.142578 7.9003906 z" transform="matrix(1 0 0 1 384.57143 499.798)"/>
 </g>
</svg>
