<?xml version="1.0" encoding="UTF-8" standalone="no"?>
<svg xmlns="http://www.w3.org/2000/svg" xmlns:xlink="http://www.w3.org/1999/xlink" width="48" height="48" version="1.1" viewBox="0 0 48 48">
 <defs>
  <linearGradient id="linearGradient4245">
   <stop offset="0" style="stop-color:#000000;stop-opacity:0.07843138"/>
   <stop offset="1" style="stop-color:#000000;stop-opacity:0"/>
  </linearGradient>
  <linearGradient id="linearGradient4785">
   <stop style="stop-color:#efc346;stop-opacity:0.99215686" offset="0"/>
   <stop style="stop-color:#fae786;stop-opacity:1" offset="1"/>
  </linearGradient>
  <linearGradient xlink:href="#linearGradient4785" id="linearGradient4836" x1="24" y1="36" x2="24" y2="14" gradientUnits="userSpaceOnUse"/>
  <linearGradient xlink:href="#linearGradient4245" id="linearGradient4877" x1="24" y1="27" x2="24" y2="37" gradientUnits="userSpaceOnUse"/>
 </defs>
 <g>
  <path style="opacity:0.98999999;fill:url(#linearGradient4836);fill-opacity:1;fill-rule:evenodd;stroke:none;stroke-width:1;stroke-linecap:butt;stroke-linejoin:miter;stroke-miterlimit:0;stroke-dasharray:none;stroke-dashoffset:0;stroke-opacity:1" d="M 4 12 L 4 38 L 44 38 L 44 12 L 4 12 z"/>
  <path style="opacity:0.98999999;fill:url(#linearGradient4877);fill-opacity:1;fill-rule:evenodd;stroke:none;stroke-width:1;stroke-linecap:butt;stroke-linejoin:miter;stroke-miterlimit:0;stroke-dasharray:none;stroke-dashoffset:0;stroke-opacity:1" d="M 4 27 L 4 37 L 44 37 L 44 27 L 4 27 z"/>
  <path style="opacity:0.98999999;fill:#cfa42d;fill-opacity:1;fill-rule:evenodd;stroke:none;stroke-width:1;stroke-linecap:butt;stroke-linejoin:miter;stroke-miterlimit:0;stroke-dasharray:none;stroke-dashoffset:0;stroke-opacity:1" d="M 4 37 L 4 38 L 44 38 L 44 37 L 4 37 z"/>
  <path style="opacity:0.98999999;fill:#a05814;fill-opacity:1;fill-rule:evenodd;stroke:none;stroke-width:1;stroke-linecap:butt;stroke-linejoin:miter;stroke-miterlimit:0;stroke-dasharray:none;stroke-dashoffset:0;stroke-opacity:1" d="M 4 10 L 4 12 L 44 12 L 44 10 L 4 10 z M 6 14 L 6 22 L 8 22 L 8 14 L 6 14 z M 11 14 L 11 22 L 13 22 L 13 14 L 11 14 z M 16 14 L 16 25 L 18 25 L 18 14 L 16 14 z M 21 14 L 21 22 L 23 22 L 23 14 L 21 14 z M 26 14 L 26 22 L 28 22 L 28 14 L 26 14 z M 31 14 L 31 25 L 33 25 L 33 14 L 31 14 z M 36 14 L 36 22 L 38 22 L 38 14 L 36 14 z M 41 14 L 41 22 L 43 22 L 43 14 L 41 14 z"/>
 </g>
</svg>
