<svg width="48" xmlns="http://www.w3.org/2000/svg" height="48" viewBox="0 0 48 48" xmlns:xlink="http://www.w3.org/1999/xlink">
 <defs>
  <linearGradient id="a" y1="543.8" y2="503.8" x2="0" gradientUnits="userSpaceOnUse">
   <stop stop-color="#c6cdd1"/>
   <stop offset="1" stop-color="#e0e5e7"/>
  </linearGradient>
  <linearGradient id="b" y1="510.8" x1="389.57" y2="541.8" gradientUnits="userSpaceOnUse" x2="427.57" gradientTransform="translate(-384.57-499.8)">
   <stop/>
   <stop offset="1" stop-opacity="0"/>
  </linearGradient>
  <linearGradient id="c" y1="521.15" x1="394.22" y2="533.41" gradientUnits="userSpaceOnUse" x2="416.85" gradientTransform="translate(-12.764-10.07)">
   <stop stop-color="#292c2f"/>
   <stop offset="1" stop-opacity="0"/>
  </linearGradient>
  <linearGradient xlink:href="#c" id="d" y1="528.87" x1="394.34" y2="539.87" gradientUnits="userSpaceOnUse" x2="417.34" gradientTransform="translate(7.236-10.07)"/>
 </defs>
 <g transform="translate(-384.57-499.8)">
  <rect width="40" x="388.57" y="503.8" fill="url(#a)" rx="0" height="40"/>
  <rect width="40" x="388.57" y="542.8" fill="#99a1a7" height="1"/>
  <path opacity=".2" fill="url(#b)" fill-rule="evenodd" d="m42.842 11.11l-17.842 14.566v16.328l2 2h17v-31.734zm-19.842 16.199l-18 14.695 2 2h18l-2-2z" transform="translate(384.57 499.8)"/>
  <g stroke-width=".1">
   <rect width="40" x="388.57" y="503.8" fill="#566069" height="5"/>
   <rect width="3" x="424.57" y="504.8" fill="#eff0f1" rx="1.5" height="3"/>
   <rect width="40" x="388.57" y="508.8" fill="#da4453" rx="0" height="1"/>
  </g>
  <g fill="#ffffff" color-rendering="auto" shape-rendering="auto" color-interpolation-filters="linearRGB" image-rendering="auto" text-rendering="auto" color-interpolation="sRGB" color="#000000">
   <path id="e" d="m389.57 510.8h18v31h-18z"/>
   <use x="20" xlink:href="#e"/>
  </g>
  <g fill-rule="evenodd">
   <path opacity=".2" fill="url(#c)" d="m392.57 511.8l-2 4 17 8.576v-5.576zm0 8l-2 4 17 9v-5.695z"/>
   <path opacity=".2" fill="url(#d)" d="m412.57 511.8l-2 4 17 8.576v-5.576zm0 8l-2 4 17 9v-5.695zm0 8l-2 4 17 9v-5.695z"/>
  </g>
  <g fill="#da4453">
   <path id="f" d="m390.57 511.8h2v1h2v3h-4z"/>
   <use y="8" xlink:href="#f"/>
   <use x="20" xlink:href="#f"/>
   <use x="20" y="8" xlink:href="#f"/>
   <use x="20" y="16" xlink:href="#f"/>
  </g>
 </g>
</svg>
