<?xml version="1.0" encoding="UTF-8" standalone="no"?>
<svg xmlns="http://www.w3.org/2000/svg" xmlns:xlink="http://www.w3.org/1999/xlink" width="48" height="48" version="1.1">
 <defs>
  <linearGradient id="linearGradient4462">
   <stop style="stop-color:#000000;stop-opacity:1;" offset="0"/>
   <stop style="stop-color:#000000;stop-opacity:0;" offset="1"/>
  </linearGradient>
  <linearGradient id="linearGradient4364">
   <stop offset="0" style="stop-color:#e05e4c;stop-opacity:1"/>
   <stop offset="1" style="stop-color:#ffc169;stop-opacity:1"/>
  </linearGradient>
  <linearGradient xlink:href="#linearGradient4364" id="linearGradient4061" x1="-43.628" y1="34.886" x2="-2.763" y2="15.577" gradientUnits="userSpaceOnUse" gradientTransform="matrix(0.75,0,0,0.73333332,-10,13.4)"/>
  <linearGradient xlink:href="#linearGradient4364" id="linearGradient4389" gradientUnits="userSpaceOnUse" gradientTransform="matrix(0.75,0,0,0.73333332,-3,0.4)" x1="-43.628" y1="34.886" x2="-2.763" y2="15.577"/>
  <linearGradient xlink:href="#linearGradient4462" id="linearGradient4468" x1="16.994" y1="6.148" x2="35.477" y2="24.631" gradientUnits="userSpaceOnUse"/>
 </defs>
 <g>
  <rect style="fill:url(#linearGradient4061);fill-opacity:1;stroke:none" width="30" height="22" x="-43" y="20" transform="matrix(0,-1,1,0,0,0)" ry=".999" rx="1.022"/>
  <path style="fill:none;stroke:#edf573;stroke-width:1.00023758;stroke-linecap:butt;stroke-linejoin:bevel;stroke-miterlimit:4;stroke-dasharray:none;stroke-opacity:1" d="m 23.428699,16.500119 5.1426,0 -2.5713,4.279874 z m 0,7.999762 5.1426,0 -2.5713,-4.199876 z"/>
  <path d="m 33.428699,16.500119 5.1426,0 -2.5713,4.279874 z m 0,7.999762 5.1426,0 -2.5713,-4.199876 z" style="fill:none;stroke:#1e6f43;stroke-width:1.00023758;stroke-linecap:butt;stroke-linejoin:bevel;stroke-miterlimit:4;stroke-dasharray:none;stroke-opacity:1"/>
  <path style="fill:none;stroke:#1e6f43;stroke-width:1.00023758;stroke-linecap:butt;stroke-linejoin:bevel;stroke-miterlimit:4;stroke-dasharray:none;stroke-opacity:1" d="m 33.428699,31.500119 5.1426,0 -2.5713,4.279874 z m 0,7.999762 5.1426,0 -2.5713,-4.199876 z"/>
  <path style="opacity:0.25;fill:url(#linearGradient4468);fill-opacity:1;stroke:none;stroke-width:1;stroke-linecap:butt;stroke-linejoin:bevel;stroke-miterlimit:4;stroke-dasharray:none;stroke-opacity:0" d="M 28.421875 6.0800781 L 22.535156 8.1816406 L 8.0839844 26.470703 L 7.3457031 35.701172 L 7.4628906 35.818359 C 7.6201172 35.923369 7.7974519 36 8 36 L 20 36 L 20 41.978516 C 20 42.544739 20.446359 43 21 43 L 41 43 C 41.553641 43 42 42.544739 42 41.978516 L 42 19.658203 L 28.421875 6.0800781 z"/>
  <rect rx="1.022" ry=".999" transform="matrix(0,-1,1,0,0,0)" y="7" x="-36" height="22" width="30" style="fill:url(#linearGradient4389);fill-opacity:1;stroke:none"/>
  <path d="m 10.428699,9.500119 5.1426,0 -2.5713,4.279874 z m 0,7.999762 5.1426,0 -2.5713,-4.199876 z" style="fill:none;stroke:#e84731;stroke-width:1.00023758;stroke-linecap:butt;stroke-linejoin:bevel;stroke-miterlimit:4;stroke-dasharray:none;stroke-opacity:1"/>
  <path style="fill:none;stroke:#e84731;stroke-width:1.00023758;stroke-linecap:butt;stroke-linejoin:bevel;stroke-miterlimit:4;stroke-dasharray:none;stroke-opacity:1" d="m 20.428699,9.500119 5.1426,0 -2.5713,4.279874 z m 0,7.999762 5.1426,0 -2.5713,-4.199876 z"/>
  <path style="fill:none;stroke:#1e6f43;stroke-width:1.00023758;stroke-linecap:butt;stroke-linejoin:bevel;stroke-miterlimit:4;stroke-dasharray:none;stroke-opacity:1" d="m 10.428699,24.500119 5.1426,0 -2.5713,4.279874 z m 0,7.999762 5.1426,0 -2.5713,-4.199876 z"/>
  <path d="m 20.428699,24.500119 5.1426,0 -2.5713,4.279874 z m 0,7.999762 5.1426,0 -2.5713,-4.199876 z" style="fill:none;stroke:#1e6f43;stroke-width:1.00023758;stroke-linecap:butt;stroke-linejoin:bevel;stroke-miterlimit:4;stroke-dasharray:none;stroke-opacity:1"/>
  <path style="fill:#000000;fill-opacity:1;stroke:none;opacity:0.15" d="M 20 40.978516 L 20 41.978516 C 20 42.544739 20.446359 43 21 43 L 41 43 C 41.553641 43 42 42.544739 42 41.978516 L 42 40.978516 C 42 41.544739 41.553641 42 41 42 L 21 42 C 20.446359 42 20 41.544739 20 40.978516 z"/>
  <path style="fill:#000000;fill-opacity:1;stroke:none;opacity:0.15" d="M 7 33.978516 L 7 34.978516 C 7 35.544739 7.4463595 36 8 36 L 28 36 C 28.553641 36 29 35.544739 29 34.978516 L 29 33.978516 C 29 34.544739 28.553641 35 28 35 L 8 35 C 7.4463595 35 7 34.544739 7 33.978516 z"/>
 </g>
</svg>
