<?xml version="1.0" encoding="UTF-8"?>
<svg xmlns="http://www.w3.org/2000/svg" xmlns:xlink="http://www.w3.org/1999/xlink" width="48px" height="48px" viewBox="0 0 48 48" version="1.1">
<defs>
<linearGradient id="linear0" gradientUnits="userSpaceOnUse" x1="210.1978" y1="194.856537" x2="210.1978" y2="197.101593" gradientTransform="matrix(2.607748,2.607748,-2.607748,2.607748,0.00000786717,-1048.282848)">
<stop offset="0" style="stop-color:rgb(60.784316%,61.960787%,63.529414%);stop-opacity:1;"/>
<stop offset="1" style="stop-color:rgb(10.196079%,10.588235%,11.764706%);stop-opacity:1;"/>
</linearGradient>
<linearGradient id="linear1" gradientUnits="userSpaceOnUse" x1="11.641666" y1="11.641666" x2="1.058333" y2="1.058333" gradientTransform="matrix(3.687912,0,0,3.687912,0,0.190479)">
<stop offset="0" style="stop-color:rgb(30.980393%,32.549021%,33.725491%);stop-opacity:1;"/>
<stop offset="1" style="stop-color:rgb(60.784316%,61.960787%,63.529414%);stop-opacity:0.996078;"/>
</linearGradient>
<radialGradient id="radial0" gradientUnits="userSpaceOnUse" cx="24" cy="24" fx="24" fy="24" r="17" gradientTransform="matrix(0.97576,0,0,0.97576,0,0.190479)">
<stop offset="0" style="stop-color:rgb(0%,22.745098%,40.784314%);stop-opacity:0.00452489;"/>
<stop offset="0.882353" style="stop-color:rgb(0%,11.372549%,20.392157%);stop-opacity:0.0588235;"/>
<stop offset="1" style="stop-color:rgb(0%,0%,0%);stop-opacity:0.135747;"/>
</radialGradient>
<linearGradient id="linear2" gradientUnits="userSpaceOnUse" x1="18.999901" y1="19" x2="31" y2="31" gradientTransform="matrix(0.97576,0,0,0.97576,3.90304,4.093519)">
<stop offset="0" style="stop-color:rgb(0%,0%,0%);stop-opacity:0.366516;"/>
<stop offset="1" style="stop-color:rgb(0%,0%,0%);stop-opacity:0;"/>
</linearGradient>
<radialGradient id="radial1" gradientUnits="userSpaceOnUse" cx="0" cy="0" fx="0" fy="0" r="1" gradientTransform="matrix(16.587921,0,0,16.587921,23.41824,23.608524)">
<stop offset="0" style="stop-color:rgb(23.921569%,83.137256%,14.509805%);stop-opacity:0.954751;"/>
<stop offset="1" style="stop-color:rgb(34.901962%,94.117647%,48.627451%);stop-opacity:1;"/>
</radialGradient>
</defs>
<g id="surface127">
<path style=" stroke:none;fill-rule:nonzero;fill:url(#linear0);" d="M 37.652344 4.832031 L 43.171875 10.351562 L 39.03125 14.492188 L 33.511719 8.972656 Z M 37.652344 4.832031 "/>
<path style=" stroke:none;fill-rule:nonzero;fill:url(#linear1);" d="M 23.417969 43.125 C 34.195312 43.125 42.933594 34.386719 42.933594 23.609375 C 42.933594 12.832031 34.195312 4.09375 23.417969 4.09375 C 12.640625 4.09375 3.902344 12.832031 3.902344 23.609375 C 3.902344 34.386719 12.640625 43.125 23.417969 43.125 Z M 23.417969 43.125 "/>
<path style=" stroke:none;fill-rule:nonzero;fill:rgb(93.725491%,97.254902%,100%);fill-opacity:1;" d="M 23.417969 40.195312 C 32.578125 40.195312 40.007812 32.769531 40.007812 23.609375 C 40.007812 14.449219 32.578125 7.019531 23.417969 7.019531 C 14.257812 7.019531 6.832031 14.449219 6.832031 23.609375 C 6.832031 32.769531 14.257812 40.195312 23.417969 40.195312 Z M 23.417969 40.195312 "/>
<path style=" stroke:none;fill-rule:nonzero;fill:url(#radial0);" d="M 23.417969 7.019531 C 14.257812 7.019531 6.832031 14.449219 6.832031 23.609375 C 6.832031 32.769531 14.257812 40.195312 23.417969 40.195312 C 32.578125 40.195312 40.007812 32.769531 40.007812 23.609375 C 40.007812 14.449219 32.578125 7.019531 23.417969 7.019531 Z M 23.417969 8.972656 C 31.5 8.972656 38.054688 15.523438 38.054688 23.609375 C 38.054688 31.691406 31.5 38.246094 23.417969 38.246094 C 15.335938 38.246094 8.78125 31.691406 8.78125 23.609375 C 8.78125 15.523438 15.335938 8.972656 23.417969 8.972656 Z M 23.417969 8.972656 "/>
<path style=" stroke:none;fill-rule:nonzero;fill:rgb(0%,0%,0%);fill-opacity:0.38914;" d="M 42.914062 23.039062 C 42.804688 28.140625 40.707031 33 37.0625 36.570312 C 33.417969 40.140625 28.519531 42.144531 23.417969 42.148438 C 18.34375 42.144531 13.46875 40.164062 9.828125 36.628906 C 6.191406 33.089844 4.070312 28.273438 3.925781 23.199219 C 3.914062 23.335938 3.910156 23.472656 3.902344 23.609375 C 3.902344 26.171875 4.40625 28.710938 5.386719 31.078125 C 6.371094 33.445312 7.808594 35.597656 9.617188 37.40625 C 11.429688 39.21875 13.582031 40.65625 15.949219 41.636719 C 18.316406 42.621094 20.855469 43.125 23.417969 43.125 C 25.980469 43.125 28.519531 42.621094 30.886719 41.636719 C 33.253906 40.65625 35.40625 39.21875 37.21875 37.40625 C 39.03125 35.597656 40.46875 33.445312 41.449219 31.078125 C 42.429688 28.710938 42.933594 26.171875 42.933594 23.609375 C 42.929688 23.417969 42.921875 23.230469 42.914062 23.039062 Z M 42.914062 23.039062 "/>
<path style=" stroke:none;fill-rule:nonzero;fill:url(#linear2);" d="M 40.007812 30.4375 L 40.007812 22.632812 L 22.039062 24.988281 L 35.128906 38.078125 Z M 40.007812 30.4375 "/>
<path style=" stroke:none;fill-rule:nonzero;fill:url(#radial1);" d="M 23.417969 7.019531 C 25.597656 7.019531 27.753906 7.449219 29.765625 8.285156 C 31.777344 9.117188 33.605469 10.339844 35.148438 11.878906 C 36.6875 13.417969 37.910156 15.25 38.742188 17.261719 C 39.578125 19.273438 40.007812 21.429688 40.007812 23.609375 L 23.417969 23.609375 Z M 23.417969 7.019531 "/>
<path style="fill-rule:nonzero;fill:rgb(0%,13.333334%,24.313726%);fill-opacity:1;stroke-width:0.661458;stroke-linecap:butt;stroke-linejoin:miter;stroke:rgb(0%,13.333334%,24.313726%);stroke-opacity:1;stroke-miterlimit:4;" d="M 6.349926 6.350178 L 10.848364 6.352296 " transform="matrix(3.687912,0,0,3.687912,0,0.190479)"/>
<path style=" stroke:none;fill-rule:nonzero;fill:rgb(40.784314%,41.960785%,43.529412%);fill-opacity:0.996078;" d="M 23.417969 25.558594 C 24.496094 25.558594 25.371094 24.6875 25.371094 23.609375 C 25.371094 22.53125 24.496094 21.65625 23.417969 21.65625 C 22.339844 21.65625 21.464844 22.53125 21.464844 23.609375 C 21.464844 24.6875 22.339844 25.558594 23.417969 25.558594 Z M 23.417969 25.558594 "/>
<path style=" stroke:none;fill-rule:nonzero;fill:rgb(53.333336%,54.901963%,56.078434%);fill-opacity:0.996078;" d="M 13.660156 0.191406 L 33.175781 0.191406 L 33.175781 4.09375 L 13.660156 4.09375 Z M 13.660156 0.191406 "/>
<path style=" stroke:none;fill-rule:nonzero;fill:rgb(60.784316%,61.960787%,63.529414%);fill-opacity:1;" d="M 23.417969 24.585938 C 23.957031 24.585938 24.394531 24.148438 24.394531 23.609375 C 24.394531 23.070312 23.957031 22.632812 23.417969 22.632812 C 22.878906 22.632812 22.441406 23.070312 22.441406 23.609375 C 22.441406 24.148438 22.878906 24.585938 23.417969 24.585938 Z M 23.417969 24.585938 "/>
</g>
</svg>
