<svg width="48" height="48" viewBox="0 0 12.7 12.7" xmlns="http://www.w3.org/2000/svg" xmlns:xlink="http://www.w3.org/1999/xlink">
    <linearGradient id="a">
        <stop stop-color="#4d4d4d" offset="0"/>
        <stop stop-color="#7f8c8d" offset="1"/>
    </linearGradient>
    <linearGradient id="b" x1="17.304167" x2="17.304167" y1="285.00004" y2="257.00004" gradientUnits="userSpaceOnUse" xlink:href="#a"/>
    <linearGradient id="c" x1="24" x2="24" y1="294" y2="257" gradientTransform="matrix(1 0 0 .97619045 0 5.999999)" gradientUnits="userSpaceOnUse">
        <stop stop-color="#1d99f3" offset="0"/>
        <stop stop-color="#3daee9" offset="1"/>
    </linearGradient>
    <linearGradient id="d" x1="24.183335" x2="24.183335" y1="285.00004" y2="257.00004" gradientUnits="userSpaceOnUse" xlink:href="#a"/>
    <linearGradient id="e" x1="29.588079" x2="29.588079" y1="281.11707" y2="290.73599" gradientTransform="matrix(.99950003 0 0 .99937512 -5.128573 -248.81628)" gradientUnits="userSpaceOnUse">
        <stop stop-opacity=".2" offset="0"/>
        <stop stop-color="#fff" stop-opacity="0" offset="1"/>
    </linearGradient>
    <linearGradient id="f">
        <stop stop-color="#232629" offset="0"/>
        <stop stop-color="#31363b" offset="1"/>
    </linearGradient>
    <linearGradient id="g" x1="32.114255" x2="32.114255" y1="263.09516" y2="271.94938" gradientUnits="userSpaceOnUse" xlink:href="#f"/>
    <linearGradient id="h" x1="32.114254" x2="32.114254" y1="263.09515" y2="271.94937" gradientUnits="userSpaceOnUse" xlink:href="#f"/>
    <linearGradient id="i" x1="90.319038" x2="120.33868" y1="-162.79909" y2="139.84253" gradientTransform="matrix(.26445105 0 0 .264418 .022498 .028116)" gradientUnits="userSpaceOnUse">
        <stop stop-color="#2980b9" offset="0"/>
        <stop stop-color="#3daee9" stop-opacity="0" offset="1"/>
    </linearGradient>
    <linearGradient id="j" x1="24" x2="24" y1="294" y2="257" gradientTransform="matrix(.99999998 0 0 .97619046 0 5.999995)" gradientUnits="userSpaceOnUse">
        <stop stop-color="#27ae60" offset="0"/>
        <stop stop-color="#2ecc71" offset="1"/>
    </linearGradient>
    <g transform="matrix(.26445105 0 0 .264418 .005953 -65.832643)">
        <rect x="3.979491" y="253.97499" width="40.020008" height="39.024387" rx="6.003754" fill="#34495e"/>
        <path transform="matrix(1.0005002 0 0 1.0006253 -.02251 248.97187)" d="m10 4c-3.3244169 0-6 2.6759986-6 6v27c0 3.324001 2.6755831 6 6 6h28c3.324417 0 6-2.675999 6-6v-27c0-3.3240014-2.675583-6-6-6z" fill="#34495e" stroke-width=".999438"/>
        <rect x="3.979491" y="252.97437" width="40.020008" height="39.024387" rx="6.003754" fill="url(#c)"/>
        <path transform="matrix(1.0005002 0 0 1.0006253 -.02251 248.97187)" d="m30.990234 5.0039024v8.9941406l-4.998046-4.9960937v9.9941407l-10.994141-10.994141v8.9960937l-4.998047-4.998047v1l-1.9999998-2v12.373047c15.046899-1.523284 24.188008-4.826343 35.982422-6.037109v-6.773438c0-.376094-.03793-.7430432-.103516-1.0996092l-3.898437-3.8984375.0039 8.4335937z" fill="url(#i)" stroke-width=".264435"/>
        <path transform="matrix(1.0005002 0 0 1.0006253 -.02251 248.97187)" d="m29.986328 5.0039062v2h-.998047v6.9941408h-3v-4.9960939h-1.998047v.9999999h-1v3.996094h-4.998046l-1.998047-1.998047v-1l-1-.998047v-1.9999999h-1.998047v1h-1v4.9960939l-2.0000002 2v-3.998047h-1.9980469v-1h-2.9980469l-1 1v24.005859h40v-24.005859h-2.019531v-1.998047h-1.998047l-.00586-4.4374999-3.996093 3.9980469.003906 2.4375h-2v-1l-1.998047-1.9980469v-1.9980469h-1v-2z" fill="#2980b9" stroke-width=".999438"/>
        <path d="m7 257h6v16.815884h-6z" fill="none"/>
        <path d="m20.304239 282.02127a2.9999998 2.9999998 0 0 1-2.994685 3 2.9999998 2.9999998 0 0 1-3.005296-2.98937 2.9999998 2.9999998 0 0 1 2.984038-3.01059 2.9999998 2.9999998 0 0 1 3.015868 2.9787" fill="url(#b)"/>
        <path d="m3.9794912 285.99891c.00212 3.32425 2.6782379 5.99985 6.0030012 5.99985h28.014006c3.324763 0 6.000883-2.6756 6.003001-5.99985z" fill="url(#j)" stroke-width=".264583"/>
        <path transform="matrix(1.0005002 0 0 1.0006253 -.02251 248.97187)" d="m44 29.632812-24.957031.398438-13.3476565 1.175781 10.5312495 10.53125h21.878907c.770676-.858103 3.896881-1.916177 5.660156-3.085937.149403-.525288.234375-1.077879.234375-1.652344z" fill="url(#e)" stroke-width=".999438"/>
        <path d="m27.183407 282.02127a2.9999998 2.9999998 0 0 1-2.994686 3 2.9999998 2.9999998 0 0 1-3.005295-2.98937 2.9999998 2.9999998 0 0 1 2.984037-3.01059 2.9999998 2.9999998 0 0 1 3.015868 2.9787" fill="url(#d)"/>
        <path d="m32.015625 254.91211a.50005.50005 0 0 0 -.271484.0762l-6 3.58203a.50005.50005 0 0 0 .08594.90039l11 4a.50043179.50043179 0 1 0 .339844-.9414l-10.009766-3.64063 5.095703-3.04297a.50005.50005 0 0 0 -.240234-.93359z" fill="#2c3e50"/>
        <g transform="matrix(1.0005002 0 0 1.0006253 -.02251 248.97186)">
            <path d="m24.210938 12.019531-.0059.0039a7.9100471 7.909054 0 0 0 -.03711-.002 7.9100471 7.909054 0 0 0 -5.322266 2.107422l-.01953.0078-13.197266 11.671875.00195.002a3.5290767 3.5286338 0 0 0 -1.2265625 2.681641 3.5290767 3.5286338 0 0 0 3.5292969 3.515624h36.066449v-19.986309z" fill="#bdc3c7" stroke-width=".264435"/>
            <path d="m24.210938 12.019531-.0059.0039a7.9100471 7.909054 0 0 0 -.03711-.002 7.9100471 7.909054 0 0 0 -5.322266 2.107422l-.01953.0078-13.197266 11.671875.00195.002a3.5290767 3.5286338 0 0 0 -1.1875 2.164062 3.5290767 3.5286338 0 0 0 3.4902344 3.033203v.002h36.066449v-18.988309z" fill="#fdfdfd" stroke-width=".264435"/>
            <path d="m6.6757812 5c-.4246286.2821468-.8057787.6216122-1.1445312 1h36.9375c-.338752-.3783878-.719903-.7178532-1.144531-1h-22.658203z" fill="#34495e" stroke-width=".999438"/>
        </g>
        <path transform="matrix(1.0005002 0 0 1.0006253 -.02251 248.97187)" d="m7.6582031 24.013672-2.0292969 1.794922 0.00195 2e-3a3.5290767 3.5286338 0 0 0-0.9003906 1.201172c13.150614-2e-5 26.27861-1.9e-5 39.269531 0v-2.998047c-12.073-9e-6 -24.056254-1e-5 -36.341797 0z" fill="#da4453" stroke-width=".264435"/>
        <g fill="#34495e">
            <path d="m17.813678 269.58765a1.4123354 1.4123347 0 0 1-1.409834 1.41233 1.4123354 1.4123347 0 0 1-1.414828-1.40733 1.4123354 1.4123347 0 0 1 1.404821-1.41732 1.4123354 1.4123347 0 0 1 1.419805 1.40231"/>
            <rect transform="matrix(1 1.473e-5 0 1 0 0)" x="22.915226" y="262.99966" width="8.084772" height="7.999876" ry=".999876"/>
            <path transform="matrix(1 3.02e-6 0 1 0 0)" d="m16.401342 268.17529h12.598658v2.824632h-12.598658z"/>
            <path d="m15.478807 268.51826 5.28127-4.67136 2.15515-.8469s.441992 1.92888.572656 2.50902-.187386 3.36775-.187386 3.36775l-6.454553.87932z"/>
            <path d="m26.080824 266.16559a3.1655984 3.1655967 0 0 1-3.15999 3.16559 3.1655984 3.1655967 0 0 1-3.171187-3.15438 3.1655984 3.1655967 0 0 1 3.148755-3.17676 3.1655984 3.1655967 0 0 1 3.182343 3.14312"/>
            <path d="m22.999998 263h3v1h-3z"/>
        </g>
        <path d="m34.000359 263.00017c-.554 0-1.0005.44662-1.0005 1.00062v5.99985c0 .554.4465.99867 1.0005.99867h9.99914v-7.99914z" fill="#34495e" stroke-width=".264583"/>
        <path d="m34.000359 264.00079c-.554 0-1.0005.44467-1.0005.99867v5.00118c0 .554.4465.99867 1.0005.99867h9.99914v-6.99852z" fill="url(#g)" stroke-width=".264583"/>
        <g transform="matrix(.93685634 0 0 .87499915 1.957453 33.875231)" fill="url(#h)">
            <path d="m17.813678 269.58765a1.4123354 1.4123347 0 0 1-1.409834 1.41233 1.4123354 1.4123347 0 0 1-1.414828-1.40733 1.4123354 1.4123347 0 0 1 1.404821-1.41732 1.4123354 1.4123347 0 0 1 1.419805 1.40231"/>
            <rect transform="matrix(1 1.473e-5 0 1 0 0)" x="22.915226" y="262.99966" width="8.084772" height="7.999876" ry=".999876"/>
            <path transform="matrix(1 3.02e-6 0 1 0 0)" d="m16.401342 268.17529h12.598658v2.824632h-12.598658z"/>
            <path d="m15.478807 268.51826 5.28127-4.67136 2.15515-.8469s.441992 1.92888.572656 2.50902-.187386 3.36775-.187386 3.36775l-6.454553.87932z"/>
            <path d="m26.080824 266.16559a3.1655984 3.1655967 0 0 1-3.15999 3.16559 3.1655984 3.1655967 0 0 1-3.171187-3.15438 3.1655984 3.1655967 0 0 1 3.148755-3.17676 3.1655984 3.1655967 0 0 1 3.182343 3.14312"/>
            <path d="m22.999998 263h3v1h-3z"/>
        </g>
        <path d="m3.9794912 285.00024v.99477c0 .34307.035138.67748.089889 1.00453h39.84023c.05475-.32705.08989-.66146.08989-1.00453v-.99477z" fill="#34495e"/>
        <path d="m3.9794912 285.00024v0.99477c0 2e-3 -2e-6 4e-3 0 6e-3h40.020008c2e-6 -2e-3 0-4e-3 0-6e-3v-0.99477z" fill="#3daee9"/>
        <path d="m29 254.91602a.50005.50005 0 1 0 0 1h5a.50005.50005 0 1 0 0-1z" fill="#233240"/>
    </g>
</svg>
