<svg width="48" xmlns="http://www.w3.org/2000/svg" height="48" xmlns:xlink="http://www.w3.org/1999/xlink">
 <defs>
  <linearGradient id="a" y1="63.19" x1="-2.305" y2="44.14" gradientUnits="userSpaceOnUse" x2="8.691">
   <stop stop-color="#ffffff" stop-opacity="0"/>
   <stop offset="1" stop-color="#ffffff" stop-opacity=".314"/>
  </linearGradient>
  <linearGradient id="b" y1="63.19" x1="50.47" y2="41.2" gradientUnits="userSpaceOnUse" x2="37.773">
   <stop stop-opacity=".082"/>
   <stop offset="1" stop-opacity="0"/>
  </linearGradient>
  <linearGradient id="c" x1="-2.305" gradientUnits="userSpaceOnUse" x2="30.681">
   <stop stop-opacity=".275"/>
   <stop offset="1" stop-color="#ffffff" stop-opacity="0"/>
  </linearGradient>
  <linearGradient id="d" y1="58.787" y2="32.398" gradientUnits="userSpaceOnUse" x2="0">
   <stop stop-color="#e9edf7"/>
   <stop offset="1" stop-color="#f6f6ff"/>
  </linearGradient>
  <linearGradient id="e" y1="31.803" x1="23.725" y2="36.26" gradientUnits="userSpaceOnUse" x2="27.03">
   <stop stop-color="#292c2f"/>
   <stop offset="1" stop-opacity="0"/>
  </linearGradient>
  <linearGradient id="f" y1="44.47" x1="29.388" y2="20.97" x2="22.489" gradientUnits="userSpaceOnUse">
   <stop stop-color="#b3c4ce"/>
   <stop offset="1" stop-color="#eef2f4"/>
  </linearGradient>
  <linearGradient id="g" y1="35.497" x1="23.06" y2="41.753" gradientUnits="userSpaceOnUse" x2="34.616">
   <stop stop-color="#232628"/>
   <stop offset="1" stop-opacity=".044"/>
  </linearGradient>
  <linearGradient id="h" y1="54.701" x1="34.491" y2="24.19" gradientUnits="userSpaceOnUse" x2="4.03">
   <stop stop-color="#6d429a"/>
   <stop offset=".608" stop-color="#45b9f4"/>
   <stop offset="1" stop-color="#afe6ff"/>
  </linearGradient>
  <linearGradient id="i" y1="32.34" x1="29.494" y2="30.759" gradientUnits="userSpaceOnUse" x2="18.771">
   <stop stop-color="#4c73bd"/>
   <stop offset="1" stop-color="#01afff"/>
  </linearGradient>
  <linearGradient id="j" y1="36.36" y2="29.532" gradientUnits="userSpaceOnUse" x2="0">
   <stop stop-color="#06a370"/>
   <stop offset="1" stop-color="#22d1b0"/>
  </linearGradient>
  <linearGradient id="k" y1="47.628" x1="22.489" y2="28.317" gradientUnits="userSpaceOnUse" x2="27.667">
   <stop stop-color="#23272d"/>
   <stop offset="1" stop-color="#324356" stop-opacity=".375"/>
  </linearGradient>
  <linearGradient id="l" y1="28.63" x1="10.956" y2="29.536" gradientUnits="userSpaceOnUse" x2="8.48">
   <stop/>
   <stop offset="1" stop-opacity="0"/>
  </linearGradient>
  <linearGradient id="m" y1="44.6" x1="29.1" y2="29.627" gradientUnits="userSpaceOnUse" x2="22.18">
   <stop stop-color="#f37f12"/>
   <stop offset="1" stop-color="#f5c635"/>
  </linearGradient>
  <linearGradient id="n" y1="30.665" x1="32.44" y2="25.642" gradientUnits="userSpaceOnUse" x2="28.554">
   <stop stop-color="#da6c44"/>
   <stop offset="1" stop-color="#ffa236"/>
  </linearGradient>
  <linearGradient xlink:href="#g" id="o" y1="41.544" x1="30.16" y2="41.42" gradientUnits="userSpaceOnUse" x2="32.659"/>
  <linearGradient id="p" y1="58.905" x1="45.42" y2="38.34" x2="32.633" gradientUnits="userSpaceOnUse">
   <stop stop-color="#070b0d"/>
   <stop offset=".132" stop-color="#10181d"/>
   <stop offset=".7" stop-color="#2e4554"/>
   <stop offset="1" stop-color="#4f778f"/>
  </linearGradient>
  <linearGradient xlink:href="#g" id="q" y1="49.912" x1="30.11" y2="51.913" gradientUnits="userSpaceOnUse" x2="32.516"/>
  <linearGradient xlink:href="#g" id="r" y1="43.42" x1="32.752" y2="45.951" gradientUnits="userSpaceOnUse" x2="36.512"/>
  <linearGradient id="s" y1="44.876" y2="38.905" gradientUnits="userSpaceOnUse" x2="0">
   <stop stop-color="#232628"/>
   <stop offset="1" stop-opacity="0"/>
  </linearGradient>
  <radialGradient cx="48.5" cy="32.5" id="t" r="12.563" gradientUnits="userSpaceOnUse" gradientTransform="matrix(.73928-.48775.17109.25931-4.9 54.14)">
   <stop stop-color="#91a9d6"/>
   <stop offset=".851" stop-color="#91a9d6"/>
   <stop offset="1" stop-color="#ced9ed" stop-opacity="0"/>
  </radialGradient>
 </defs>
 <g transform="translate(0-16)">
  <g fill-rule="evenodd">
   <path fill="url(#f)" d="m24.09 19.2l-22.09 13.796 22.09 15.891 21.915-15.891z"/>
   <g color="#000000">
    <path fill="url(#m)" d="m10 26v22h21v-19l-3-3z"/>
    <path fill="url(#h)" d="m4 24v24h25v-16l-8-8z"/>
   </g>
  </g>
  <g color="#000000">
   <path fill="url(#k)" stroke-width="2.091" d="m4 24v11l2 1v-12zm3 5v3h3v-3zm4 0v1h3v-1zm4 0v1h3v-1zm-4 2v1h14v-1zm16 1v13h2v-13zm-20 1v1h16v-1zm0 2v1h14v-1zm0 2v1h16v-1zm4 2l1 1h8v-1zm2 2l1 1h8v-1zm2 2l2 1h4v-1z"/>
   <path opacity=".328" fill="url(#s)" fill-rule="evenodd" d="m4.294 33.982l15.16 12.888h7.581l18.2-13.646z"/>
  </g>
  <path fill="url(#d)" d="m2 33l.02 26h43.972l.008-26-17 12h-10z"/>
  <g fill-rule="evenodd">
   <path fill="url(#c)" d="m2.02 59l16.98-14h10l13.201 14z"/>
   <path fill="url(#b)" d="m45.992 59l-17.508-13.408 17.517-12.592z"/>
   <path fill="url(#a)" d="m2.02 59l16.98-14-17-12z"/>
   <path fill="url(#i)" color="#000000" d="m29 32h-8v-8z"/>
   <path opacity=".284" fill="url(#g)" d="m31 29l8 9-8 5z"/>
   <path opacity=".288" fill="url(#o)" d="m29 32l2 2v9l-2 1z"/>
  </g>
  <path fill="url(#j)" color="#000000" d="m24 19l-7.531 5h2.531l5.03-3.281 20.969 13.281v24h-42v-24l1-.625-.003-1.637-2 1.262.02 26h43.972l.008-26z"/>
  <path opacity=".188" d="m3 58h43l-.008 1h-43.897z"/>
  <path fill="url(#p)" color="#000000" d="m27 45l19-12v2l-15.929 10.51 15.929 11.49-.008 2-16.992-12v12h-1.962z"/>
  <path opacity=".276" fill="url(#e)" fill-rule="evenodd" d="m21 32h8l.313 9.718z"/>
  <g color="#000000">
   <path opacity=".232" fill="#34495e" d="m21 32v-2h6l2 2z"/>
   <g fill-rule="evenodd">
    <path opacity=".332" fill="url(#l)" d="m10 32h-3v-3h3z"/>
    <path fill="url(#n)" d="m31 29h-3v-3z"/>
    <path opacity=".136" fill="url(#q)" d="m29 59v-12l17 12z"/>
    <path opacity=".196" fill="url(#r)" d="m30.07 45.51l15.921-10.77v21.986z"/>
   </g>
  </g>
  <path fill="none" stroke="url(#t)" stroke-width=".152" d="m24 47l22-14"/>
 </g>
</svg>
