<?xml version="1.0" encoding="UTF-8" standalone="no"?>
<svg xmlns="http://www.w3.org/2000/svg" xmlns:xlink="http://www.w3.org/1999/xlink" width="48" height="48" version="1.1">
 <defs>
  <linearGradient id="linearGradient4184">
   <stop style="stop-color:#000000;stop-opacity:1;" offset="0"/>
   <stop style="stop-color:#000000;stop-opacity:0;" offset="1"/>
  </linearGradient>
  <linearGradient id="linearGradient4168">
   <stop style="stop-color:#fcfcfc;stop-opacity:1;" offset="0"/>
   <stop style="stop-color:#f58273;stop-opacity:1" offset="1"/>
  </linearGradient>
  <linearGradient id="linearGradient4160">
   <stop style="stop-color:#c61423;stop-opacity:1;" offset="0"/>
   <stop style="stop-color:#f58273;stop-opacity:1" offset="1"/>
  </linearGradient>
  <linearGradient xlink:href="#linearGradient4160" id="linearGradient4166" x1="32.249" y1="42.037" x2="16.546" y2="4.902" gradientUnits="userSpaceOnUse"/>
  <linearGradient xlink:href="#linearGradient4168" id="linearGradient4174" x1="15.316" y1="13.523" x2="29.427" y2="37.964" gradientUnits="userSpaceOnUse"/>
  <linearGradient xlink:href="#linearGradient4184" id="linearGradient4190" x1="12.237" y1="25.116" x2="17.74" y2="28.293" gradientUnits="userSpaceOnUse"/>
  <linearGradient xlink:href="#linearGradient4184" id="linearGradient4192" x1="23.905" y1="21.095" x2="35.876" y2="33.065" gradientUnits="userSpaceOnUse"/>
 </defs>
 <rect style="fill:url(#linearGradient4166);fill-opacity:1" rx="20" y="4" x="4" height="40" width="40"/>
 <path style="fill:#2c2e31;fill-opacity:0.235294" d="m 4.01168,23.49995 c -0.004,0.16654 -0.0117,0.33244 -0.0117,0.5 0,11.08 8.92,20 20,20 11.08,0 20,-8.92 20,-20 0,-0.16756 -0.008,-0.33346 -0.0117,-0.5 -0.26467,10.84613 -9.07616,19.5 -19.98828,19.5 -10.91212,0 -19.72361,-8.65387 -19.98828,-19.5 z"/>
 <path style="opacity:0.2;fill:url(#linearGradient4192);fill-opacity:1;stroke:none;stroke-width:1;stroke-linecap:butt;stroke-linejoin:bevel;stroke-miterlimit:4;stroke-dasharray:none;stroke-opacity:1" d="M 32.541016 15.021484 L 27.519531 16.480469 L 21.347656 25.804688 L 20.457031 35.773438 L 28.230469 43.546875 C 36.520154 41.77385 42.869675 34.90016 43.859375 26.339844 L 32.541016 15.021484 z"/>
 <path d="m 25.847589,23.450856 -2.185909,3.385484 -2.283647,2.699763 -2.880324,3.926551 -6.475776,-6.475776 z" style="opacity:0.2;fill:url(#linearGradient4190);fill-opacity:1;stroke:none;stroke-width:1;stroke-linecap:butt;stroke-linejoin:bevel;stroke-miterlimit:4;stroke-dasharray:none;stroke-opacity:1"/>
 <path style="opacity:1;fill:url(#linearGradient4174);fill-opacity:1;stroke:none;stroke-width:1;stroke-linecap:butt;stroke-linejoin:bevel;stroke-miterlimit:4;stroke-dasharray:none;stroke-opacity:1" d="M 20.597656 12.107422 L 15.402344 15.107422 L 18.804688 21 L 12 21 L 12 27 L 18.804688 27 L 15.402344 32.892578 L 20.597656 35.892578 L 24 30 L 27.402344 35.892578 L 32.597656 32.892578 L 29.195312 27 L 36 27 L 36 21 L 29.195312 21 L 32.597656 15.107422 L 27.402344 12.107422 L 24 18 L 20.597656 12.107422 z"/>
</svg>
