<?xml version="1.0" encoding="UTF-8" standalone="no"?>
<svg xmlns="http://www.w3.org/2000/svg" xmlns:xlink="http://www.w3.org/1999/xlink" width="48" height="48" version="1.1">
 <defs>
  <linearGradient id="1" x1="24.14" y1="40.683" x2="23.86" y2="6.31" gradientUnits="userSpaceOnUse" gradientTransform="matrix(0.77235457,0,0,0.76472289,390.03562,505.44495)">
   <stop stop-color="#c52828"/>
   <stop stop-color="#ff5454" offset="1"/>
  </linearGradient>
  <linearGradient gradientTransform="translate(1.56e-6,1.56e-6)" xlink:href="#0" id="linearGradient4236" x1="407.626" y1="543.768" x2="407.687" y2="504.133" gradientUnits="userSpaceOnUse"/>
  <linearGradient id="0" x1="27.456" y1="47.39" x2="26.442" y2="1.017" gradientUnits="userSpaceOnUse" gradientTransform="matrix(2.3642932,0,0,2.3642932,278.05894,438.05223)">
   <stop stop-color="#e1e1e1"/>
   <stop stop-color="#f4f4ff" offset="1"/>
  </linearGradient>
 </defs>
 <g transform="translate(-384.57143,-499.798)">
  <rect style="fill:url(#linearGradient4236);fill-opacity:1" width="40" height="40" x="388.57" y="503.8" ry="3" rx="3"/>
  <path style="opacity:0.15;fill:#000000;fill-opacity:1" d="m 388.57143,539.798 0,1 c 0,1.662 1.338,3 3,3 l 34,0 c 1.662,0 3,-1.338 3,-3 l 0,-1 c 0,1.662 -1.338,3 -3,3 l -34,0 c -1.662,0 -3,-1.338 -3,-3 z"/>
  <path d="m 408.70343,510.798 c -1.32073,0 -2.31629,0.56972 -2.31707,1.3245 l 0,0.95896 c -0.0201,4.6e-4 -0.041,0.007 -0.0602,0.016 l -1.49681,0.76472 c -0.0641,0.0329 -0.11741,0.078 -0.16143,0.12847 -0.37923,-0.15446 -0.8465,-0.24624 -1.36939,-0.24624 -1.31995,0 -2.31551,0.5682 -2.31551,1.32298 l 0,0.81672 c -0.0834,0.002 -0.16683,0.0176 -0.24407,0.0596 l -2.85849,1.5371 c -0.0989,0.0528 -0.16529,0.13536 -0.21394,0.22712 -0.0139,0.0207 -0.0225,0.0405 -0.0332,0.0627 -0.009,0.026 -0.0155,0.0512 -0.0208,0.078 -0.0155,0.0504 -0.041,0.0979 -0.041,0.15218 l 0,12.45964 c 0,0.195 0.10658,0.37547 0.27882,0.47182 l 10.39512,5.79355 c 0.007,0.004 0.0155,0.003 0.0224,0.007 0.0704,0.0352 0.14596,0.0551 0.2232,0.0581 4.7e-4,0 0.0147,0.007 0.0224,0.007 0.0687,0 0.13207,-0.0291 0.19617,-0.0535 0.0232,-0.009 0.0502,-0.005 0.0726,-0.0175 l 0.003,-0.002 c 0.002,-9e-5 0.003,-9e-5 0.005,-0.002 0.002,-8e-5 0.002,-0.003 0.003,-0.003 l 10.48857,-5.83108 c 0.17301,-0.0956 0.27882,-0.27684 0.27882,-0.47184 l 0.0108,-12.39233 c 0,-0.19195 -0.10195,-0.37089 -0.27032,-0.46724 -0.0178,-0.0107 -0.0402,-0.008 -0.0587,-0.0161 -0.0247,-0.0191 -0.0425,-0.0428 -0.071,-0.058 l -2.86003,-1.53711 c -0.0123,-0.007 -0.0255,-0.006 -0.0379,-0.0122 l 0,-0.87408 c 0,-0.75555 -0.99557,-1.32451 -2.31552,-1.32451 -0.56073,0 -1.0558,0.1063 -1.44817,0.28219 -0.027,-0.0214 -0.0494,-0.0474 -0.0811,-0.0643 l -1.36084,-0.69629 c -0.0155,-4.5e-4 -0.0324,-0.007 -0.0486,-0.0137 l 0,-1.12032 c 0,-0.75555 -0.99556,-1.3245 -2.31552,-1.3245 m -1.49682,2.34235 c 0.39931,0.18963 0.91216,0.30435 1.49682,0.30435 0.5839,0 1.09597,-0.11548 1.49527,-0.30435 l 0,1.50115 c 0,0.15677 -0.56458,0.51236 -1.49527,0.51236 -0.93069,0 -1.49682,-0.35559 -1.49682,-0.51236 l 0,-1.50115 m -0.82101,1.14554 0,0.35561 c 0,0.75478 0.99634,1.32297 2.31706,1.32297 1.3215,0 2.31629,-0.56819 2.31552,-1.32297 l 0,-0.19119 0.665,0.34031 c -0.0286,0.0864 -0.044,0.17588 -0.044,0.26918 l 0,2.51823 c 0,0.75478 0.99634,1.32297 2.31706,1.32297 1.32074,0 2.31629,-0.56819 2.31552,-1.32297 l 0,-0.42137 1.62194,0.87409 -9.37869,5.19935 -9.29915,-5.23224 1.76946,-0.95284 0,0.54219 c 0,0.75478 0.99557,1.3245 2.31552,1.3245 1.31996,0 2.31552,-0.56972 2.31552,-1.3245 l 0,-2.51823 c 0,-0.1216 -0.034,-0.2363 -0.0826,-0.34642 l 0.855,-0.4359 m 6.07456,1.79098 c 0.39854,0.18966 0.91215,0.30589 1.49683,0.30589 0.58389,0 1.09597,-0.117 1.49527,-0.30589 l 0,1.50116 c 0,0.14835 -0.52366,0.51084 -1.49527,0.51084 -0.9307,0 -1.49683,-0.35407 -1.49683,-0.51084 l 0,-1.50116 m -10.65926,0.009 c 0.3993,0.18966 0.91215,0.3059 1.49682,0.3059 0.58313,0 1.09597,-0.11548 1.49528,-0.30436 l 0,1.49962 c 0,0.14835 -0.52366,0.51236 -1.49528,0.51236 -0.97161,0 -1.49682,-0.36401 -1.49682,-0.51236 l 0,-1.50116 m 6.867,0.55137 c -1.31996,0 -2.31707,0.56972 -2.31707,1.3245 l 0,2.51823 c 0,0.75478 0.99711,1.32451 2.31707,1.32451 1.31995,0 2.31398,-0.56973 2.31398,-1.32451 l 0,-2.51823 c 0,-0.75478 -0.99403,-1.3245 -2.31398,-1.3245 m -1.49682,2.34158 c 0.3993,0.18966 0.91215,0.30589 1.49682,0.30589 0.58313,0 1.0952,-0.11547 1.49373,-0.30436 l 0,1.49962 c 0,0.14836 -0.52211,0.51237 -1.49373,0.51237 -0.93069,0 -1.49682,-0.35559 -1.49682,-0.51237 l 0,-1.50115" style="fill:url(#1)"/>
 </g>
</svg>
