<svg width="48" xmlns="http://www.w3.org/2000/svg" height="48" xmlns:xlink="http://www.w3.org/1999/xlink">
 <defs>
  <linearGradient id="a" y1="37.23" x1="-3.139" y2="22.625" x2="-19.1" gradientUnits="userSpaceOnUse">
   <stop stop-color="#42a603"/>
   <stop offset="1" stop-color="#78da06"/>
  </linearGradient>
  <linearGradient id="b" y1="37.956" x1="-2.994" y2="-.883" x2="-41.26" gradientUnits="userSpaceOnUse" gradientTransform="translate(0-1.022)">
   <stop stop-color="#34495e"/>
   <stop offset="1" stop-color="#1c7865"/>
  </linearGradient>
  <linearGradient id="c" y1="9.178" x1="-14.65" y2="17.522" x2="-6.43" gradientUnits="userSpaceOnUse" gradientTransform="translate(1.01-1.022)">
   <stop/>
   <stop offset="1" stop-opacity="0"/>
  </linearGradient>
  <linearGradient xlink:href="#c" id="d" y1="9.268" x1="-28.756" y2="27.436" x2="-10.858" gradientUnits="userSpaceOnUse" gradientTransform="translate(0-1.022)"/>
  <linearGradient id="e" y1="-.883" x1="-41.26" y2="37.956" x2="-2.994" gradientUnits="userSpaceOnUse" gradientTransform="translate(-1.01-1.022)">
   <stop stop-color="#66b036"/>
   <stop offset="1" stop-color="#239161"/>
  </linearGradient>
 </defs>
 <g transform="matrix(.99317 0 0 .97839 45.973 4.864)">
  <path fill="url(#e)" stroke-linejoin="bevel" stroke-width="2" d="m-36.03-.883c-2.894 0-5.137 2.332-5.223 5.224v33.615h33.04c2.894 0 5.223-2.331 5.223-5.224v-33.615z"/>
  <g fill-rule="evenodd" stroke-width="1.014">
   <path opacity=".2" fill="url(#d)" d="m-29.17 6.271l-3.02 4.088 2.458 17.375 3.02 2.044-1.074 2.044 4.332 4.398 13.01-1.912c.487-.085.946-.297 1.363-.603l-5.54-8.686.794-9.199-9.06-9.199z"/>
   <path opacity=".2" fill="url(#c)" d="m-12.06 7.293l-3.02 20.442 6.751 6.853c1.063-.939 2.311-3.634 2.311-5.304v-15.858z"/>
  </g>
  <g stroke-linejoin="bevel" stroke-width="2">
   <path fill="#ffffff" d="m-27.16 5.249c-4.03 0-7.05 2.044-7.05 11.754 0 8.01 2.149 10.798 5.086 11.53.524 6.17 6.997 4.312 6.997 4.312v-2.044c0 0-2.611.88-2.975-2.29 2.888-.769 4.989-3.586 4.989-11.508 0-9.71-3.02-11.754-7.05-11.754m0 2.044c2.01 0 3.02 1.689 3.02 9.71 0 8.02-1.01 9.71-3.02 9.71-2.01 0-3.02-1.689-3.02-9.71 0-8.02 1.01-9.71 3.02-9.71"/>
   <path fill="url(#b)" d="m-2.994 31.71c0 2.894-2.329 5.224-5.223 5.224h-33.04v1.022h33.04c2.894 0 5.223-2.331 5.223-5.224z"/>
  </g>
  <path fill="#ffffff" fill-rule="evenodd" stroke-width="1.014" d="m-15.08 7.293h3.02v4.088h2.01v2.044h-2.01v11.243c0 2.044 2.01.511 2.01.511v2.044c0 0-6.04 3.577-6.04-2.555v-11.243h-1.01v-2.044h1.01z"/>
  <path fill="url(#a)" d="m-17.09 21.602v13.287h4.03v5.11l6.04-5.11h9.06v-13.287z"/>
  <path color-interpolation-filters="linearRGB" color="#4d4d4d" image-rendering="auto" color-rendering="auto" d="m-17.09 33.867v1.022h4.03v-1.022zm9.697 0l-.283.25v-.002l-5.386 4.555v1.33l6.04-5.11h9.06v-1.022z" color-interpolation="sRGB" text-rendering="auto" fill="#368902" shape-rendering="auto"/>
 </g>
</svg>
