<?xml version="1.0" encoding="UTF-8" standalone="no"?>
<svg xmlns="http://www.w3.org/2000/svg" xmlns:xlink="http://www.w3.org/1999/xlink" width="48" height="48" version="1.1">
 <defs>
  <linearGradient id="linearGradient4195">
   <stop style="stop-color:#000000;stop-opacity:1;" offset="0"/>
   <stop style="stop-color:#000000;stop-opacity:0;" offset="1"/>
  </linearGradient>
  <radialGradient id="radialGradient3911" cx="27" cy="24" r="11" gradientTransform="matrix(0.81818154,0,0,0.90909122,388.48052,501.97981)" gradientUnits="userSpaceOnUse">
   <stop style="stop-color:#334545;stop-opacity:1"/>
   <stop offset="1" style="stop-color:#172525;stop-opacity:1"/>
  </radialGradient>
  <linearGradient id="linearGradient3997" y1="1" x2="0" y2="47" gradientUnits="userSpaceOnUse" gradientTransform="translate(326.41705,498.60847)">
   <stop style="stop-color:#e0e5e7;stop-opacity:1"/>
   <stop offset="1" style="stop-color:#c6cdd1;stop-opacity:1"/>
  </linearGradient>
  <linearGradient xlink:href="#linearGradient3997" id="linearGradient4196" x1="401.579" y1="505.239" x2="418.614" y2="540.911" gradientUnits="userSpaceOnUse" gradientTransform="translate(-0.03558942,-0.03841052)"/>
  <linearGradient xlink:href="#radialGradient3911" id="linearGradient4181" x1="402.498" y1="513.937" x2="413.946" y2="530.946" gradientUnits="userSpaceOnUse"/>
  <linearGradient xlink:href="#linearGradient4195" id="linearGradient4201" x1="18.389" y1="16.532" x2="35.068" y2="33.212" gradientUnits="userSpaceOnUse"/>
 </defs>
 <g transform="translate(-384.57143,-499.798)">
  <rect style="fill:url(#linearGradient4196);fill-opacity:1;stroke-width:2.79999995;stroke-opacity:0.55026502" height="40" rx="20" y="503.8" x="388.57" width="40"/>
  <path d="m 412.57143,522.798 0,2 15.92251,0 c 0.048,-0.32999 0.0775,-0.663 0.0775,-1 0,-0.337 -0.0295,-0.67001 -0.0775,-1 l -15.92251,0 z" style="fill:#3bb566;fill-opacity:1"/>
  <path style="fill:#3bb566;fill-opacity:1" d="M 4.3964844 28 C 4.533463 28.680046 4.706474 29.347237 4.9101562 30 L 19.921875 30 C 19.969875 29.67001 20 29.337 20 29 C 20 28.663 19.969875 28.32999 19.921875 28 L 4.3964844 28 z" transform="translate(384.57143,499.798)"/>
  <path style="fill:#e05e4c;fill-opacity:1" d="M 4.9101562 18 C 4.706474 18.652763 4.533463 19.319954 4.3964844 20 L 19.921875 20 C 19.969875 19.67001 20 19.337 20 19 C 20 18.663 19.969875 18.32999 19.921875 18 L 4.9101562 18 z" transform="translate(384.57143,499.798)"/>
  <path style="opacity:0.3;fill:url(#linearGradient4201);fill-opacity:1;stroke:none;stroke-width:1;stroke-linecap:butt;stroke-linejoin:bevel;stroke-miterlimit:4;stroke-dasharray:none;stroke-opacity:1" d="M 20.294922 15.275391 L 19.849609 27.605469 L 17.080078 34.007812 L 26.865234 43.792969 C 34.239252 42.743716 40.272121 37.696323 42.759766 30.90625 L 31.658203 19.804688 L 20.294922 15.275391 z" transform="translate(384.57143,499.798)"/>
  <path d="m 401.57143,533.798 c 2.674,-8 2.674,-12 0,-20 12.46173,0 18,9.99999 18,9.99999 0,0 -5.53827,10.00001 -18,10.00001 z" style="fill:url(#linearGradient4181);fill-opacity:1;fill-rule:nonzero;stroke:none"/>
  <path style="fill:#000000;fill-opacity:1;stroke-width:2.79999995;stroke-opacity:0.55026502;opacity:0.15" d="M 4.0117188 23.5 C 4.007647 23.666859 4 23.832126 4 24 C 4 35.079992 12.920008 44 24 44 C 35.079992 44 44 35.079992 44 24 C 44 23.832126 43.992353 23.666859 43.988281 23.5 C 43.724099 34.346571 34.912435 43 24 43 C 13.087565 43 4.2759007 34.346571 4.0117188 23.5 z" transform="translate(384.57143,499.798)"/>
 </g>
</svg>
