<?xml version="1.0" encoding="UTF-8" standalone="no"?>
<svg xmlns="http://www.w3.org/2000/svg" xmlns:xlink="http://www.w3.org/1999/xlink" width="48" height="48" version="1.1">
 <defs>
  <linearGradient id="linearGradient4157">
   <stop style="stop-color:#bf3131;stop-opacity:1;" offset="0"/>
   <stop style="stop-color:#d35353;stop-opacity:1" offset="1"/>
  </linearGradient>
  <linearGradient id="linearGradient4311">
   <stop style="stop-color:#000000;stop-opacity:1;" offset="0"/>
   <stop style="stop-color:#000000;stop-opacity:0;" offset="1"/>
  </linearGradient>
  <linearGradient id="linearGradient4231">
   <stop style="stop-color:#d8dcde;stop-opacity:1" offset="0"/>
   <stop style="stop-color:#f9fafb;stop-opacity:1" offset="1"/>
  </linearGradient>
  <linearGradient xlink:href="#linearGradient4231" id="linearGradient4237" x1="25.102" y1="43.322" x2="25.102" y2="3" gradientUnits="userSpaceOnUse" gradientTransform="matrix(1,0,0,0.9,0,4.4)"/>
  <linearGradient xlink:href="#linearGradient4311" id="linearGradient4317" x1="17.225" y1="11.553" x2="28.55" y2="22.878" gradientUnits="userSpaceOnUse"/>
  <linearGradient xlink:href="#linearGradient4157" id="linearGradient4163" x1="15.193" y1="14.618" x2="15.111" y2="-.824" gradientUnits="userSpaceOnUse" gradientTransform="translate(1,5)"/>
  <linearGradient xlink:href="#linearGradient4816" id="linearGradient4503" y1="37" y2="4" x2="0" gradientUnits="userSpaceOnUse" gradientTransform="translate(12,-0.99999931)"/>
  <linearGradient id="linearGradient4816">
   <stop style="stop-color:#da4453"/>
   <stop offset="1" style="stop-color:#ff7336"/>
  </linearGradient>
  <linearGradient xlink:href="#linearGradient4311" id="linearGradient4503-6" y1="22.313" x1="20.438" y2="25.406" x2="23.531" gradientUnits="userSpaceOnUse" gradientTransform="translate(12,-0.99999931)"/>
 </defs>
 <rect style="opacity:1;fill:url(#linearGradient4237);fill-opacity:1;stroke:none;stroke-width:2;stroke-linecap:round;stroke-linejoin:round;stroke-miterlimit:4;stroke-dasharray:none;stroke-opacity:1" width="34" height="36" x="7" y="8"/>
 <path style="opacity:0.2;fill:url(#linearGradient4317);fill-opacity:1;stroke:none;stroke-width:2;stroke-linecap:round;stroke-linejoin:round;stroke-miterlimit:4;stroke-dasharray:none;stroke-opacity:1" d="M 21.894531 8 L 7 18.599609 L 7 22.023438 L 28.976562 44 L 41 44 L 41 18.042969 L 30.957031 8 L 21.894531 8 z"/>
 <path style="fill:url(#linearGradient4163);fill-opacity:1;stroke-width:2;stroke-linejoin:bevel" d="M 5,6 29,6 29,20 5,20 Z"/>
 <path style="fill:none;stroke:#ffffff;stroke-width:1.99999976;stroke-linecap:round;stroke-linejoin:bevel;stroke-miterlimit:4;stroke-dasharray:none;stroke-opacity:1" d="m 8.0142424,12.985738 1.9999826,-3e-6 c 0.424229,-10e-7 0.735968,4.54e-4 1.00001,4.54e-4 0.999998,0 0.999998,0 0.999998,-1 0,-0.313338 1.9e-5,-0.384374 1.2e-5,-1.000448 -4e-6,-0.416104 -1.2e-5,-0.732747 -1.2e-5,-0.999552 0,-1 0,-1 -0.999998,-1 -0.232895,0 -0.575142,0.02024 -0.92143,0.02479 -1.078783,0.01417 -2.0785626,-0.02532 -2.0785626,-0.02532 m 9.9e-5,8.000099 0,-8.000001"/>
 <path style="fill:none;stroke:#ffffff;stroke-width:1.99999976;stroke-linecap:round;stroke-linejoin:bevel;stroke-miterlimit:4;stroke-dasharray:none;stroke-opacity:1" d="m 15.0142,16.992172 c 0,0 4.013654,0.350449 3.999999,-3.999998 C 18.999999,8.46678 15.0142,8.992171 15.0142,8.992171 m -0.0141,7.993587 0,-7.999997"/>
 <path style="fill:none;stroke:#ffffff;stroke-width:1.99999976;stroke-linecap:round;stroke-linejoin:bevel;stroke-miterlimit:4;stroke-dasharray:none;stroke-opacity:1" d="m 22.014242,12.985661 3.999999,0 m -3.999999,-4.000002 3.999999,0 m -3.999901,8.000099 0,-7.999997"/>
 <path style="opacity:0.15;fill:#000000;fill-opacity:1;stroke:none;stroke-width:2;stroke-linecap:round;stroke-linejoin:round;stroke-miterlimit:4;stroke-dasharray:none;stroke-opacity:1" d="M 7 43 L 7 44 L 41 44 L 41 43 L 7 43 z"/>
 <path style="fill:url(#linearGradient4503);fill-rule:evenodd" d="m 45.998141,3.0000043 -2.32998,1.1433323 c -2.331663,1.1441541 -4.794494,3.7502367 -4.794494,3.7502367 l 0.366385,2.9440047 c -0.138214,0.200594 -0.283271,0.414892 -0.429358,0.629254 l -1.036182,-1.8568593 -1.685944,2.0984463 1.190751,2.042263 c -0.007,0.01055 -0.016,0.02316 -0.02289,0.03371 l -1.491303,-1.693928 c 0,0 -0.970744,1.143227 -3.95009,5.402027 -2.979343,4.258798 -5.441392,9.216873 -5.441392,9.216873 l 0.114513,3.368191 c -0.160296,0.237251 -0.329898,0.494296 -0.486607,0.724761 l -0.469433,-2.758602 -1.036183,1.716401 -0.260474,1.654599 -0.581066,0.699482 c 0,0 -0.962143,3.59886 -0.777767,4.249373 0.184376,0.650512 2.624004,-0.628356 2.624004,-0.628356 l 0.128818,-0.856798 1.975044,-0.634871 -2.198311,-0.438229 c 0.05297,-0.08873 0.117951,-0.196685 0.171733,-0.286536 0.263028,0.08114 0.572702,0.172055 1.153543,0.278107 1.392519,0.254258 2.329979,-0.252823 2.329979,-0.252823 l 1.004697,-1.272554 c 0,0 -0.777223,0.540572 -1.651596,0.699483 -0.861376,0.156545 -2.32595,-0.205336 -2.370053,-0.216305 0.07688,-0.127419 0.15934,-0.264068 0.237578,-0.393284 0.369821,-0.09422 3.70254,-0.963621 5.661795,-2.345653 2.072589,-1.461976 6.185613,-5.975096 6.185613,-5.975096 2e-6,0 -0.992112,-0.0089 -3.129469,-0.04066 -2.01397,-0.02995 -3.794105,-0.01618 -4,0 0.09296,-0.1486 0,-1.000001 0,-1.000001 l 8.586422,-1.344329 c 0,0 0.551994,-1.048869 1.393983,-2.733319 C 41.822393,17.237899 44,13.000001 44,13.000001 c 0,0 -1.462458,-0.04151 -2.767704,-0.221298 -1.245817,-0.1716 -2.425205,-0.471709 -2.536074,-0.500031 0.01508,-0.02315 0.03087,-0.04715 0.0458,-0.07024 0.181331,-0.08387 1.345798,-0.619878 2.215486,-0.890506 0.938861,-0.292152 3.801246,-0.696672 3.801246,-0.696672 0,0 0.02289,-0.404522 0.228991,-1.2360343 0.206093,-0.8315125 0.618277,-2.7417463 0.618277,-2.7417463 l -4.98055,2.8063573 c 0.20965,-0.288471 0.407755,-0.5450382 0.612549,-0.8174671 l 4.551193,-2.6630859 c 0,0 0.0458,-0.584307 0.137386,-1.3483995 0.09158,-0.7640815 0.07154,-1.6208775 0.07154,-1.6208739 z"/>
 <path style="fill:#31363b;fill-rule:evenodd" d="m 46,3.0000007 c 0,0 -4.620614,4.9406035 -9.222089,11.2745393 -4.601474,6.333936 -9.267705,13.499315 -13.933784,21.679993 -4.051905,7.103892 -2.585644,7.045452 -2.585644,7.045452 0,0 0.45951,-1.18371 3.67736,-6.761361 C 27.011638,30.907205 30.902715,24.02272 37.409918,14.534087 40.511393,10.011598 46,3.0000007 46,3.0000007 Z"/>
 <path style="opacity:0.2;fill:url(#linearGradient4503-6);fill-rule:evenodd" d="m 45.998047,3.0000007 -0.707031,0.8828125 -2.57667,3.297716 -3.972158,5.0284558 c 0.181331,-0.08387 1.345155,-0.619997 2.214843,-0.890625 0.938861,-0.292152 3.800782,-0.697265 3.800781,-0.697265 0,0 0.02437,-0.404816 0.230469,-1.2363283 0.206093,-0.8315125 0.617188,-2.7421879 0.617188,-2.7421879 L 41.30516,9.0513927 c 0.20965,-0.2884705 0.408487,-0.5439771 0.613281,-0.816406 l 3.870621,-2.266236 c 0,0 0.04513,-0.5835637 0.136719,-1.3476562 0.09158,-0.7640815 0.07227,-1.6210974 0.07227,-1.6210938 z M 38.742188,12.208985 31,23.000001 l 8.585938,-1.34375 c 0,0 0.552542,-1.049925 1.394531,-2.734375 C 41.822455,17.23743 44,13.000001 44,13.000001 c 0,0 -1.462332,-0.04092 -2.767578,-0.220703 -1.245817,-0.1716 -2.42624,-0.471678 -2.53711,-0.5 0.01508,-0.02315 0.03195,-0.04722 0.04688,-0.07031 z M 31,23.000001 23.035156,36.519532 C 23.615562,36.723448 25.5,35.734376 25.5,35.734376 l 0.128906,-0.855469 1.976563,-0.634765 -2.199219,-0.439453 c 0.05297,-0.08873 0.118093,-0.195306 0.171875,-0.285157 0.263028,0.08114 0.573456,0.171292 1.154297,0.277344 1.392519,0.254258 2.328125,-0.251953 2.328125,-0.251953 l 1.005859,-1.273438 c 0,0 -0.77797,0.540308 -1.652344,0.699219 -0.861375,0.156545 -2.325037,-0.205828 -2.36914,-0.216797 0.07688,-0.127419 0.15809,-0.263362 0.236328,-0.392578 0.369821,-0.09422 3.702854,-0.963671 5.662109,-2.345703 2.072589,-1.461976 6.185547,-5.974609 6.185547,-5.974609 2e-6,0 -0.991549,-0.0093 -3.128906,-0.04102 -2.01397,-0.02995 -3.794105,-0.01618 -4,0 0.09296,-0.1486 0,-1 0,-1 z"/>
</svg>
