<svg xmlns="http://www.w3.org/2000/svg" xmlns:xlink="http://www.w3.org/1999/xlink" width="48" height="48">
 <defs>
  <linearGradient xlink:href="#1" id="0" x1="375.804" y1="522.287" x2="382.676" y2="549.467" gradientUnits="userSpaceOnUse" gradientTransform="matrix(1.1196311,-0.0158664,0.0158664,1.1196311,-15.140425,-88.435878)"/>
  <linearGradient id="1">
   <stop stop-color="#fff80f"/>
   <stop offset="1" stop-color="#fff80f" stop-opacity="0"/>
  </linearGradient>
  <linearGradient xlink:href="#3" id="2" x1="37.971" y1="24.451" x2="35.118" y2="25.031" gradientUnits="userSpaceOnUse" gradientTransform="matrix(1.1197435,0,0,1.1197435,381.69059,496.71205)"/>
  <linearGradient id="3">
   <stop stop-color="#af270f"/>
   <stop offset="1" stop-color="#d86c3b" stop-opacity="0"/>
  </linearGradient>
  <linearGradient xlink:href="#5" id="4" x1="36.213" y1="8.638" x2="33.719" y2="17.945" gradientUnits="userSpaceOnUse" gradientTransform="matrix(1.1197435,0,0,1.1197435,381.69059,496.71205)"/>
  <linearGradient id="5">
   <stop stop-color="#771a0f"/>
   <stop offset="1" stop-color="#92280f" stop-opacity="0"/>
  </linearGradient>
  <linearGradient xlink:href="#7" id="6" y1="4.135" x2="0" y2="22.616" gradientUnits="userSpaceOnUse" gradientTransform="matrix(1.1197435,0,0,1.1197435,381.69059,496.71205)"/>
  <linearGradient id="7">
   <stop stop-color="#a0240f"/>
   <stop offset="1" stop-color="#bc4a0f" stop-opacity="0"/>
  </linearGradient>
  <linearGradient xlink:href="#1" id="8" x1="22.858" y1="43.732" x2="22.274" y2="36.825" gradientUnits="userSpaceOnUse" gradientTransform="matrix(1.1197435,0,0,1.1197435,381.69059,496.71205)"/>
  <linearGradient xlink:href="#5" id="9" x1="21.824" y1="22.849" x2="27.722" y2="24.063" gradientUnits="userSpaceOnUse" gradientTransform="matrix(1.1197435,0,0,1.1197435,381.69059,496.71205)"/>
  <linearGradient xlink:href="#B" id="A" x1="20.616" y1="25.815" x2="19.831" y2="21.263" gradientUnits="userSpaceOnUse" gradientTransform="matrix(1.1197435,0,0,1.1197435,381.69059,496.71205)"/>
  <linearGradient id="B">
   <stop stop-color="#4a2834"/>
   <stop offset="1" stop-color="#512531" stop-opacity="0"/>
  </linearGradient>
  <linearGradient xlink:href="#D" id="C" x1="20.626" y1="24.225" x2="18.225" y2="21.824" gradientUnits="userSpaceOnUse" gradientTransform="matrix(1.1197435,0,0,1.1197435,381.69059,496.71205)"/>
  <linearGradient id="D">
   <stop stop-color="#6d9990"/>
   <stop offset="1" stop-color="#6dcec5"/>
  </linearGradient>
 </defs>
 <g transform="translate(-384.57143,-499.798)">
  <path d="m 415.28727,506.12005 c -0.21279,-0.0132 -0.43353,0.0149 -0.63204,0.0831 -0.28649,0.0984 -0.42098,0.16636 -0.53801,0.27776 -0.0342,0.0326 -0.16694,0.14802 -0.29742,0.25586 -0.18834,0.15566 -0.42772,0.44798 -0.69985,0.82232 -0.3214,0.44212 -0.69395,1.01149 -1.14599,1.77803 -0.25391,0.4306 -0.60385,1.00436 -0.77856,1.27502 -0.1747,0.27066 -0.3754,0.59128 -0.44616,0.71296 -0.2865,0.49266 -1.23707,1.7895 -1.9858,2.70969 -0.63386,0.77903 -1.83576,1.89529 -2.28978,2.12577 -0.0861,0.0437 -0.23838,0.13284 -0.33679,0.19901 -0.22078,0.14843 -0.62894,0.30939 -1.1766,0.46583 -0.46307,0.13229 -1.33147,0.56164 -1.70368,0.842 -0.6369,0.47971 -2.06144,2.01493 -2.65502,2.86059 -0.0923,0.13155 -0.23401,0.31002 -0.31492,0.39804 -0.0808,0.0881 -0.18581,0.21375 -0.23401,0.27775 -0.054,0.0717 -0.23394,0.17599 -0.46802,0.27118 -0.20915,0.0851 -0.56149,0.23455 -0.78295,0.33243 -0.22145,0.0979 -0.83567,0.34355 -1.36468,0.54675 -0.52901,0.2032 -1.17413,0.46738 -1.43249,0.58612 -0.25836,0.11873 -0.62984,0.27521 -0.82668,0.34773 -0.54703,0.20151 -1.71448,0.6709 -1.89614,0.76325 -0.089,0.0453 -0.78562,0.32903 -1.54839,0.62767 -0.76275,0.29866 -1.5388,0.61149 -1.72335,0.69766 -0.18453,0.0863 -0.57737,0.25394 -0.87262,0.37179 -0.7091,0.28307 -0.71399,0.31356 -0.1334,0.69547 0.20216,0.13297 0.91089,0.6413 1.60525,1.15254 0.14495,0.10672 0.39727,0.28675 0.55987,0.39804 0.16262,0.1113 0.48577,0.34201 0.71953,0.51394 0.23374,0.17191 0.51078,0.36799 0.61454,0.43522 0.17146,0.11108 0.87556,0.61616 1.55059,1.11318 0.14496,0.10672 0.39726,0.28658 0.55987,0.39803 0.27551,0.18882 0.87774,0.6221 1.4981,1.0782 0.50347,0.37016 1.01561,0.70858 1.07162,0.70858 0.0574,0 0.7799,-0.28064 0.91636,-0.35648 0.16972,-0.0942 0.5406,-0.18937 0.83543,-0.21214 0.0477,-0.004 0.10032,0.0159 0.14435,0.0153 0.17561,-0.002 0.32838,1.9e-4 0.57299,0.0613 0.63837,0.15941 0.82928,0.28052 1.41279,0.88574 0.45239,0.46922 0.58372,0.64305 1.0607,1.41281 0.59745,0.96416 0.83527,1.4148 1.05851,1.99453 0.0812,0.21092 0.29332,0.68506 0.4702,1.05414 0.17686,0.36909 0.40746,0.90239 0.51395,1.18535 0.10649,0.28296 0.28886,0.7258 0.4046,0.98415 0.11573,0.25835 0.34798,0.81285 0.51612,1.23347 0.16814,0.4206 0.37562,0.91824 0.46146,1.10662 0.11085,0.24337 0.18093,0.34354 0.23838,0.34336 0.10392,-3.6e-4 0.75944,-0.15778 1.1132,-0.26681 0.26628,-0.0821 1.08358,-0.48064 1.7627,-0.8595 0.18455,-0.10291 0.53729,-0.34558 0.78295,-0.54018 0.51198,-0.40556 1.90699,-1.64729 2.05141,-1.82615 0.0532,-0.0659 0.36767,-0.42005 0.69983,-0.78733 0.33218,-0.36727 0.85594,-0.95838 1.16349,-1.31219 0.30757,-0.35379 0.71123,-0.81504 0.89667,-1.02571 0.18543,-0.21065 0.54099,-0.62326 0.78951,-0.91853 0.61687,-0.73293 1.95276,-2.04204 2.49536,-2.44288 0.98927,-0.73077 1.63515,-1.04857 2.42976,-1.20067 0.59224,-0.11336 1.07422,-0.0705 1.75397,0.15966 0.55422,0.18763 0.72297,0.27063 1.14162,0.55331 0.17223,0.11629 0.36875,0.24497 0.4374,0.2865 0.32691,0.19766 1.34043,1.0619 2.04702,1.74741 1.54128,1.49526 3.07305,2.78155 3.18209,2.67251 0.0473,-0.0473 -0.11753,-0.45825 -0.61237,-1.5309 -0.16458,-0.35677 -0.38622,-0.88052 -0.49207,-1.16348 -0.10581,-0.28295 -0.33708,-0.85673 -0.51393,-1.27502 -0.17686,-0.41829 -0.40786,-1.00163 -0.51395,-1.29689 -0.10604,-0.29527 -0.3375,-0.8786 -0.51395,-1.29689 -0.17644,-0.4183 -0.42879,-1.04208 -0.55987,-1.38656 -0.13107,-0.34446 -0.37749,-0.98958 -0.54894,-1.43249 -0.35827,-0.92547 -1.16458,-3.23589 -2.4035,-6.88904 -1.23409,-3.6389 -1.83623,-5.33256 -2.5413,-7.15804 -0.60001,-1.5535 -1.72001,-3.85745 -2.32041,-4.77204 -0.42197,-0.64282 -1.23883,-1.49295 -1.64024,-1.70805 -0.17057,-0.0914 -0.37551,-0.14644 -0.58831,-0.15965 z" fill-opacity=".235"/>
  <path d="m 399.07887,531.24119 c 0.1756,-0.002 0.32786,-10e-6 0.57248,0.061 0.63837,0.15942 0.83066,0.27979 1.41416,0.885 0.45239,0.46923 0.58275,0.64229 1.05973,1.41203 0.59745,0.96417 0.8365,1.41475 1.05974,1.99447 0.0812,0.21092 0.29262,0.68567 0.46949,1.05476 0.17687,0.36908 0.40846,0.90249 0.51495,1.18545 0.10648,0.28296 0.28842,0.72609 0.40415,0.98444 0.11574,0.25835 0.34823,0.81385 0.51637,1.23447 0.16814,0.42061 0.37585,0.91823 0.46168,1.10661 0.11086,0.24336 0.17908,0.34253 0.23653,0.34235 0.10391,-3.6e-4 0.76137,-0.15732 1.11513,-0.26635 0.26628,-0.0821 1.08307,-0.48059 1.76219,-0.85944 0.18455,-0.1029 0.53636,-0.34593 0.78202,-0.54053 0.51198,-0.40555 1.90687,-1.64796 2.05128,-1.82682 0.0533,-0.0659 0.36888,-0.42042 0.70105,-0.78769 0.33217,-0.36728 0.85516,-0.95667 1.16272,-1.31047 0.30756,-0.3538 0.71093,-0.81569 0.89638,-1.02636 0.18543,-0.21065 0.5406,-0.62454 0.78911,-0.9198 0.61687,-0.73293 1.95401,-2.04039 2.49662,-2.44122 0.98927,-0.73077 1.63383,-1.04969 2.42843,-1.20179 0.59225,-0.11336 1.07606,-0.0689 1.75581,0.16123 0.55422,0.18764 0.72206,0.2685 1.14071,0.55117 0.17223,0.1163 0.36888,0.24544 0.43752,0.28696 0.32692,0.19766 1.33971,1.0632 2.04631,1.7487 1.54127,1.49526 3.073,2.78181 3.18205,2.67277 0.0473,-0.0473 -0.11744,-0.45942 -0.61226,-1.53207 -0.16459,-0.35677 -0.38566,-0.88047 -0.49151,-1.16343 -0.10581,-0.28296 -0.33739,-0.85666 -0.51424,-1.27495 -0.17685,-0.41829 -0.40814,-1.0017 -0.51424,-1.29697 -0.10604,-0.29526 -0.33709,-0.87938 -0.51353,-1.29767 -0.17645,-0.41828 -0.42863,-1.04199 -0.5597,-1.38646 -0.13108,-0.34447 -0.37831,-0.98901 -0.54975,-1.43192 -0.35827,-0.92548 -1.16466,-3.23653 -2.40359,-6.88968 -1.23407,-3.6389 -1.83488,-5.33198 -2.53994,-7.15747 -0.60002,-1.5535 -1.72008,-3.85705 -2.32049,-4.77163 -0.42197,-0.64282 -1.23861,-1.49384 -1.64002,-1.70894 -0.34113,-0.18278 -0.82325,-0.2124 -1.22026,-0.076 -0.28649,0.0984 -0.42065,0.16776 -0.53767,0.27915 -0.0342,0.0326 -0.16855,0.14714 -0.29904,0.25499 -0.18833,0.15566 -0.42821,0.44745 -0.70032,0.82179 -0.10996,0.41264 -0.17094,0.82196 -0.29052,1.23446 -0.56123,1.93636 -1.22928,3.86835 -2.00511,5.76745 -0.77582,1.8991 -1.65966,3.76526 -2.65288,5.5707 -0.49661,0.90273 -1.02036,1.79055 -1.57184,2.65928 -0.55149,0.86873 -1.13062,1.71864 -1.73734,2.54634 -0.60672,0.8277 -1.24124,1.63319 -1.90354,2.41281 -0.66231,0.77963 -1.35222,1.53278 -2.07046,2.25726 -0.58001,0.58507 -1.19167,1.13698 -1.80836,1.68195 z" fill="#d5600f"/>
  <path d="m 399.07887,531.24119 c 0.61669,-0.54497 1.22835,-1.09688 1.80836,-1.68195 0.71824,-0.72448 1.40815,-1.47763 2.07046,-2.25725 0.6623,-0.77963 1.29682,-1.58511 1.90354,-2.41281 0.60672,-0.82771 1.18585,-1.67762 1.73734,-2.54635 0.55148,-0.86872 1.07523,-1.75655 1.57184,-2.65928 0.99322,-1.80543 1.87706,-3.6716 2.65288,-5.57069 0.77583,-1.89911 1.44388,-3.8311 2.00511,-5.76746 0.11958,-0.4125 0.18061,-0.82182 0.29052,-1.23446 -0.32141,0.44212 -0.69293,1.01127 -1.14498,1.77782 -0.25391,0.43059 -0.60445,1.005 -0.77917,1.27567 -0.1747,0.27065 -0.37529,0.59142 -0.44605,0.71311 -0.28651,0.49266 -1.2365,1.7888 -1.98523,2.70899 -0.63386,0.77902 -1.8359,1.89467 -2.28993,2.12515 -0.0861,0.0437 -0.23754,0.13342 -0.33596,0.19959 -0.22078,0.14842 -0.62998,0.31091 -1.17764,0.46736 -0.46306,0.13229 -1.33103,0.56133 -1.70325,0.84168 -0.6369,0.47971 -2.06144,2.01391 -2.65502,2.85958 -0.0923,0.13154 -0.23444,0.31115 -0.31536,0.39917 -0.0808,0.088 -0.18618,0.213 -0.23439,0.27701 -0.0539,0.0716 -0.23399,0.17543 -0.46807,0.27061 -0.20915,0.0851 -0.56128,0.23454 -0.78272,0.33242 -0.22145,0.0979 -0.83544,0.34441 -1.36445,0.54762 -0.52901,0.2032 -1.17355,0.46654 -1.43191,0.58527 -0.25836,0.11873 -0.63063,0.27552 -0.82748,0.34803 -0.54702,0.20153 -1.71479,0.67191 -1.89645,0.76426 -0.089,0.0453 -0.78562,0.32711 -1.5484,0.62576 -0.76275,0.29864 -1.53787,0.61345 -1.72242,0.69962 -0.18454,0.0863 -0.57697,0.25291 -0.87222,0.37076 -0.70909,0.28308 -0.71483,0.31276 -0.13424,0.69465 0.20216,0.13299 0.91087,0.64296 1.60523,1.1542 0.14496,0.10672 0.39709,0.28505 0.55969,0.39634 0.16263,0.1113 0.48647,0.34303 0.72024,0.51496 0.23374,0.17192 0.5099,0.36745 0.61367,0.43469 0.17146,0.11107 0.87621,0.61739 1.55125,1.11441 0.14495,0.10672 0.39709,0.28489 0.55969,0.39634 0.27552,0.18882 0.87905,0.62353 1.4994,1.07963 0.50346,0.37015 1.01508,0.70885 1.07109,0.70885 0.0575,0 0.7791,-0.28215 0.91555,-0.35798 0.16972,-0.0942 0.54118,-0.18819 0.836,-0.21095 0.0478,-0.004 0.0994,0.0163 0.14348,0.0157 z" fill="#6dd6cd"/>
  <path d="m 411.94335,511.12875 c -1.47673,1.66616 -6.6742,10.05274 -9.62498,9.97709 -3.43789,-0.0882 -12.60587,4.49428 -12.60587,4.49428 0,0 0.82513,1.02411 1.94644,2.29635 0.0848,0.0611 0.15503,0.10916 0.22963,0.16402 0.23375,0.17192 0.51078,0.36799 0.61454,0.43521 0.17146,0.11108 0.87555,0.61616 1.55059,1.11318 0.14495,0.10672 0.39726,0.2866 0.55987,0.39804 0.27551,0.18883 0.87774,0.6221 1.49809,1.07819 0.50348,0.37017 1.01562,0.7086 1.07163,0.7086 0.0574,0 0.7799,-0.28065 0.91636,-0.35649 0.16972,-0.0942 0.5406,-0.18938 0.83543,-0.21214 0.0477,-0.004 0.10031,0.0159 0.14434,0.0153 0.6167,-0.54497 1.22863,-1.09674 1.80865,-1.68182 0.71824,-0.72448 1.40659,-1.47735 2.0689,-2.25697 0.6623,-0.77963 1.29815,-1.58456 1.90487,-2.41226 0.60673,-0.82771 1.185,-1.67694 1.73648,-2.54567 0.55149,-0.86873 1.07585,-1.75667 1.57245,-2.65939 0.99323,-1.80544 1.87701,-3.67338 2.65283,-5.57248 0.40318,-0.9869 0.77466,-1.98239 1.11975,-2.98306 z" fill="url(#C)"/>
  <path d="m 409.27959,517.51916 c -1.96508,0.90851 -6.44608,2.8345 -9.41285,3.34392 -0.0861,0.0548 -0.1409,0.1066 -0.28212,0.16402 -0.028,0.0114 -0.0726,0.0303 -0.10498,0.0438 2.84823,0.92241 4.61716,2.17001 5.66651,3.40297 0.50006,-0.69847 0.9908,-1.40335 1.45217,-2.13014 0.55149,-0.86873 1.07584,-1.75667 1.57245,-2.65939 0.39086,-0.71047 0.75176,-1.43755 1.10882,-2.16513 z" fill="url(#A)"/>
  <path d="m 415.28727,505.67219 c -0.2128,-0.0132 -0.43354,0.0149 -0.63204,0.0831 -0.28649,0.0984 -0.42098,0.16636 -0.53801,0.27775 -0.0342,0.0326 -0.16694,0.14803 -0.29742,0.25588 -0.18834,0.15566 -0.42773,0.44797 -0.69985,0.82231 -0.10996,0.41264 -0.1713,0.82097 -0.29087,1.23347 -0.56123,1.93636 -1.22964,3.86802 -2.00548,5.76711 -0.77582,1.8991 -1.6596,3.76704 -2.65283,5.57248 -0.4966,0.90272 -1.02096,1.79066 -1.57245,2.65939 -0.55148,0.86873 -1.12975,1.71796 -1.73648,2.54567 -0.60672,0.8277 -1.24257,1.63263 -1.90487,2.41226 -0.66231,0.77962 -1.35066,1.53249 -2.0689,2.25697 -0.58002,0.58508 -1.19195,1.13685 -1.80865,1.68182 0.17562,-0.002 0.32839,1.9e-4 0.57299,0.0612 0.63838,0.15941 0.82929,0.28051 1.41281,0.88573 0.45238,0.46923 0.58371,0.64306 1.06069,1.41281 0.59745,0.96416 0.83528,1.41482 1.05851,1.99454 0.0812,0.21091 0.29333,0.68505 0.4702,1.05414 0.0513,0.10688 0.0927,0.21896 0.14872,0.34335 8.68217,-6.26272 10.3819,-19.5076 12.11165,-28.05348 -0.25789,-0.49289 -0.41499,-1.11254 -0.60293,-1.39883 -0.42198,-0.64281 0.96493,-1.49296 0.56351,-1.70805 -0.17056,-0.0914 -0.3755,-0.14644 -0.5883,-0.15965 z" fill="url(#9)"/>
  <path d="m 415.0642,505.67875 c -0.13992,0.01 -0.27933,0.032 -0.40897,0.0766 -0.28649,0.0984 -0.42098,0.16636 -0.53801,0.27775 -0.0342,0.0326 -0.16694,0.14803 -0.29742,0.25588 -0.18834,0.15566 -0.42773,0.44797 -0.69985,0.82231 -0.10996,0.41264 -0.1713,0.82097 -0.29087,1.23347 -0.56123,1.93636 -1.22964,3.86802 -2.00548,5.76711 -0.77582,1.8991 -1.6596,3.76704 -2.65283,5.57248 -0.4966,0.90272 -1.02096,1.79066 -1.57245,2.65939 -0.55148,0.86873 -1.12975,1.71796 -1.73648,2.54567 -0.60672,0.8277 -1.24257,1.63263 -1.90487,2.41226 -0.66231,0.77962 -1.35066,1.53249 -2.0689,2.25697 -0.58002,0.58508 -1.19195,1.13685 -1.80865,1.68182 0.17562,-0.002 0.32839,1.9e-4 0.57299,0.0612 0.4203,0.10496 0.65039,0.20585 0.92292,0.42647 0.14701,-0.14182 0.2979,-0.27915 0.44177,-0.42428 0.80802,-0.81505 1.58406,-1.66203 2.32915,-2.5391 0.74507,-0.87708 1.45853,-1.78509 2.14108,-2.71626 0.68257,-0.93117 1.33474,-1.88545 1.95517,-2.86278 0.62043,-0.97732 1.20842,-1.97624 1.7671,-2.99181 1.11739,-2.03112 2.11246,-4.13145 2.98526,-6.26794 0.87281,-2.13648 1.6256,-4.31042 2.25698,-6.48883 0.13452,-0.46408 0.20215,-0.92452 0.32586,-1.38874 0.10227,-0.14069 0.19313,-0.25189 0.2865,-0.3696 z m 9.555,26.72294 c 0.25268,0.22544 0.51194,0.4508 0.73482,0.66703 1.54128,1.49526 3.07305,2.78156 3.18209,2.67251 0.0307,-0.0307 -0.0749,-0.30557 -0.25588,-0.72608 -0.76769,-0.72237 -1.70923,-1.52963 -2.04046,-1.72992 -0.0772,-0.0467 -0.29832,-0.19284 -0.49209,-0.32367 -0.4188,-0.28278 -0.65189,-0.39205 -1.12848,-0.55987 z" fill-opacity=".235"/>
  <path d="m 408.01987,535.81341 c -1.26818,-0.0367 -2.75431,0.14897 -4.47022,0.59923 0.0412,0.0891 0.0653,0.15355 0.10497,0.2362 0.17687,0.36909 0.40746,0.90239 0.51395,1.18535 0.10649,0.28296 0.28886,0.72579 0.4046,0.98416 0.11573,0.25834 0.34798,0.81284 0.51612,1.23345 0.16814,0.42062 0.37562,0.91825 0.46146,1.10663 0.11085,0.24336 0.18094,0.34354 0.23839,0.34336 0.10391,-3.6e-4 0.75943,-0.15777 1.11318,-0.26682 0.26629,-0.0821 1.08359,-0.48063 1.76272,-0.85948 0.18454,-0.10291 0.53729,-0.3456 0.78295,-0.5402 0.51197,-0.40554 1.90698,-1.64729 2.0514,-1.82614 0.0532,-0.0659 0.36767,-0.42004 0.69984,-0.78732 0.03,-0.0331 0.0723,-0.0817 0.10498,-0.1181 -1.06783,-0.73837 -2.45752,-1.23747 -4.28434,-1.29032 z" fill="url(#8)"/>
  <path d="m 415.28727,505.67219 c -0.2128,-0.0132 -0.43354,0.0149 -0.63204,0.0831 -0.28649,0.0984 -0.42098,0.16636 -0.53801,0.27775 -0.0342,0.0326 -0.16694,0.14803 -0.29742,0.25588 -0.18834,0.15566 -0.42773,0.44797 -0.69985,0.82231 -0.10996,0.41264 -0.1713,0.82097 -0.29087,1.23347 -0.56123,1.93636 -1.22964,3.86802 -2.00548,5.76711 -0.77582,1.8991 -1.6596,3.76704 -2.65283,5.57248 -0.4966,0.90272 -1.02096,1.79066 -1.57245,2.65939 -0.55148,0.86873 -1.12975,1.71796 -1.73648,2.54567 -0.60672,0.8277 -1.24257,1.63263 -1.90487,2.41226 -0.11518,0.13559 -0.23525,0.26624 -0.3521,0.40021 9.92464,-3.55011 16.97188,-3.54455 21.96183,-1.95736 -0.39901,-1.06775 -1.06077,-2.94722 -2.18918,-6.2745 -1.23408,-3.6389 -1.83622,-5.33256 -2.54129,-7.15804 -0.60001,-1.5535 -1.72001,-3.85745 -2.32041,-4.77203 -0.42197,-0.64281 -1.23883,-1.49296 -1.64025,-1.70805 -0.17056,-0.0914 -0.3755,-0.14644 -0.5883,-0.15965 z" fill="url(#6)"/>
  <path d="m 415.28727,505.67219 c -0.2128,-0.0132 -0.43354,0.0149 -0.63204,0.0831 -0.28649,0.0984 -0.42098,0.16636 -0.53801,0.27775 -0.0342,0.0326 -0.16694,0.14803 -0.29742,0.25588 -0.18834,0.15566 -0.42773,0.44797 -0.69985,0.82231 -0.10996,0.41264 -0.1713,0.82097 -0.29087,1.23347 -0.56123,1.93636 -1.22964,3.86802 -2.00548,5.76711 -0.77582,1.8991 -1.6596,3.76704 -2.65283,5.57248 -0.4966,0.90272 -1.02096,1.79066 -1.57245,2.65939 -0.14026,0.22094 -0.29794,0.42889 -0.44177,0.64735 17.27634,-10.93586 13.15778,5.42775 18.68571,3.52763 -0.0207,-0.0536 -0.0421,-0.11029 -0.0612,-0.15966 -0.35828,-0.92547 -1.16459,-3.23589 -2.40352,-6.88904 -1.23408,-3.6389 -1.83622,-5.33256 -2.54129,-7.15804 -0.60001,-1.5535 -1.72001,-3.85745 -2.32041,-4.77203 -0.42197,-0.64281 -1.23883,-1.49296 -1.64025,-1.70805 -0.17056,-0.0914 -0.3755,-0.14644 -0.5883,-0.15965 z" fill="url(#4)"/>
  <path d="m 415.28727,505.67219 c -0.2128,-0.0132 -0.43354,0.0149 -0.63204,0.0831 -0.24981,0.0859 -0.37771,0.15182 -0.48551,0.24057 6.79876,9.32004 7.79459,17.93852 7.01808,24.33693 0.16983,0.0361 0.34532,0.0827 0.54018,0.14871 0.55422,0.18764 0.72297,0.27065 1.14162,0.55331 0.17223,0.1163 0.36874,0.24498 0.4374,0.2865 0.3269,0.19767 1.34043,1.0619 2.04702,1.74741 1.54128,1.49526 3.07305,2.78156 3.18209,2.67251 0.0473,-0.0473 -0.11753,-0.45825 -0.61236,-1.53089 -0.16459,-0.35678 -0.38623,-0.88053 -0.49208,-1.16349 -0.10581,-0.28296 -0.33709,-0.85673 -0.51393,-1.27502 -0.17686,-0.41829 -0.40785,-1.00162 -0.51395,-1.29689 -0.10604,-0.29527 -0.33751,-0.8786 -0.51395,-1.29689 -0.17645,-0.41829 -0.4288,-1.04208 -0.55987,-1.38656 -0.13108,-0.34447 -0.37749,-0.98958 -0.54893,-1.43249 -0.35828,-0.92547 -1.16459,-3.23589 -2.40352,-6.88904 -1.23408,-3.6389 -1.83622,-5.33256 -2.54129,-7.15804 -0.60001,-1.5535 -1.72001,-3.85745 -2.32041,-4.77203 -0.42197,-0.64281 -1.23883,-1.49296 -1.64025,-1.70805 -0.17056,-0.0914 -0.3755,-0.14644 -0.5883,-0.15965 z" fill="url(#2)"/>
  <path d="m 389.22918,525.26114 c -0.0329,0.0134 -0.0608,0.0269 -0.0919,0.0394 -0.7091,0.28307 -0.71398,0.31356 -0.1334,0.69547 0.20216,0.13298 0.91089,0.6413 1.60525,1.15254 0.14496,0.10672 0.39727,0.28675 0.55987,0.39804 0.16263,0.11131 0.48577,0.34202 0.71953,0.51394 0.23375,0.17192 0.51078,0.36799 0.61454,0.43521 0.17146,0.11108 0.87555,0.61616 1.55059,1.11318 0.14495,0.10672 0.39726,0.2866 0.55987,0.39804 0.27551,0.18883 0.87775,0.6221 1.49809,1.07819 0.50348,0.37017 1.01562,0.70859 1.07163,0.70859 0.0574,0 0.7799,-0.28064 0.91636,-0.35648 0.16972,-0.0942 0.5406,-0.18938 0.83543,-0.21214 0.0477,-0.004 0.10031,0.0159 0.14434,0.0153 0.17562,-0.002 0.32839,1.9e-4 0.57299,0.0612 0.63838,0.15942 0.82929,0.28052 1.41281,0.88574 0.45238,0.46923 0.58371,0.64305 1.06069,1.4128 0.59745,0.96417 0.83528,1.41482 1.05851,1.99455 0.0812,0.21091 0.29333,0.68505 0.47021,1.05413 0.17686,0.36909 0.40745,0.90239 0.51394,1.18535 0.10649,0.28296 0.28886,0.72579 0.4046,0.98416 0.11573,0.25834 0.34798,0.81284 0.51612,1.23345 0.16814,0.42062 0.37562,0.91825 0.46146,1.10663 0.11085,0.24336 0.18094,0.34354 0.23839,0.34336 0.10391,-3.6e-4 0.75943,-0.15777 1.11318,-0.26682 0.26629,-0.0821 1.08359,-0.48063 1.76272,-0.85948 0.18454,-0.10291 0.53729,-0.3456 0.78295,-0.5402 0.51197,-0.40555 1.90698,-1.64729 2.0514,-1.82614 0.0533,-0.0659 0.36767,-0.42004 0.69984,-0.78732 0.33217,-0.36728 0.85592,-0.95839 1.16348,-1.3122 0.30758,-0.35379 0.71123,-0.81504 0.89667,-1.0257 0.18543,-0.21066 0.541,-0.62327 0.78951,-0.91854 0.61687,-0.73293 1.95276,-2.04204 2.49536,-2.44288 0.98927,-0.73076 1.63515,-1.04857 2.42976,-1.20066 0.59224,-0.11336 1.07422,-0.0705 1.75397,0.15965 0.55422,0.18764 0.72297,0.27065 1.14162,0.55331 0.17223,0.1163 0.36874,0.24498 0.4374,0.2865 0.3269,0.19767 1.34043,1.0619 2.04702,1.74741 1.54128,1.49526 3.07305,2.78156 3.18209,2.67251 0.0394,-0.0394 -0.1201,-0.43026 -0.44396,-1.14817 -0.57911,-0.42661 -1.64429,-1.35983 -2.73813,-2.42101 -0.70659,-0.68551 -1.72012,-1.54974 -2.04702,-1.74741 -0.0687,-0.0416 -0.26517,-0.1702 -0.4374,-0.2865 -0.41865,-0.28266 -0.5874,-0.36567 -1.14162,-0.55331 -0.67975,-0.23008 -1.16173,-0.273 -1.75397,-0.15965 -0.79461,0.15211 -1.44049,0.4699 -2.42976,1.20066 -0.5426,0.40084 -1.87849,1.70995 -2.49536,2.44288 -0.24851,0.29527 -0.60408,0.70788 -0.78951,0.91854 -0.18544,0.21066 -0.58909,0.67191 -0.89667,1.0257 -0.30756,0.35381 -0.83131,0.94492 -1.16348,1.3122 -0.33217,0.36728 -0.64654,0.72137 -0.69984,0.78732 -0.14442,0.17885 -1.53943,1.42059 -2.0514,1.82614 -0.24566,0.1946 -0.59841,0.43729 -0.78295,0.5402 -0.67913,0.37885 -1.49643,0.77741 -1.76272,0.85948 -0.35375,0.10905 -1.00927,0.26646 -1.11318,0.26682 -0.0575,1.8e-4 -0.12754,-0.1 -0.23839,-0.34336 -0.0859,-0.18838 -0.29332,-0.68601 -0.46146,-1.10663 -0.16814,-0.42061 -0.40039,-0.97512 -0.51612,-1.23346 -0.11574,-0.25836 -0.29811,-0.70119 -0.4046,-0.98415 -0.10649,-0.28296 -0.33708,-0.81626 -0.51394,-1.18535 -0.17688,-0.36907 -0.38903,-0.84322 -0.47021,-1.05413 -0.22323,-0.57973 -0.46106,-1.03038 -1.05851,-1.99455 -0.47698,-0.76975 -0.60831,-0.94358 -1.06069,-1.4128 -0.58352,-0.60522 -0.77443,-0.72632 -1.41281,-0.88574 -0.2446,-0.0611 -0.39737,-0.0634 -0.57299,-0.0612 -0.044,5.6e-4 -0.0966,-0.0186 -0.14434,-0.0153 -0.29483,0.0227 -0.66571,0.11786 -0.83543,0.21214 -0.13646,0.0758 -0.85891,0.35649 -0.91636,0.35649 -0.056,0 -0.56815,-0.33843 -1.07163,-0.7086 -0.62034,-0.45609 -1.22258,-0.88936 -1.49809,-1.07819 -0.16261,-0.11143 -0.41492,-0.29132 -0.55987,-0.39803 -0.67504,-0.49703 -1.37913,-1.00211 -1.55059,-1.11319 -0.10376,-0.0672 -0.38079,-0.26329 -0.61454,-0.43521 -0.23376,-0.17192 -0.5569,-0.40263 -0.71953,-0.51394 -0.1626,-0.11129 -0.41491,-0.29132 -0.55987,-0.39804 -0.5969,-0.43949 -1.09279,-0.79212 -1.37999,-0.9907 z" fill="#0f0f0f" fill-opacity=".314"/>
  <path d="m 414.9789,508.30971 c 0,8.65739 -1.74318,16.18261 -5.72775,22.83008 -2.02065,1.65358 -1.94436,0.72252 -1.53745,2.56317 0.40691,1.84065 9.91539,-6.05036 10.45384,-6.058 0.48527,-0.007 1.7031,0.66333 2.20013,-0.5555 0.64244,-8.58752 -2.0876,-14.66364 -5.38877,-18.77975 z" fill="url(#0)"/>
 </g>
</svg>
