<?xml version="1.0" encoding="UTF-8" standalone="no"?>
<svg xmlns="http://www.w3.org/2000/svg" xmlns:xlink="http://www.w3.org/1999/xlink" width="48" height="48">
 <defs>
  <linearGradient id="1">
   <stop stop-color="#f9f9f9"/>
   <stop offset="1" stop-color="#afafaf"/>
  </linearGradient>
  <linearGradient xlink:href="#4" id="3" y1="534.798" x2="0" y2="505.798" gradientUnits="userSpaceOnUse" gradientTransform="matrix(1,0,0,1.0344837,-384.57144,-516.23986)"/>
  <linearGradient id="4">
   <stop stop-color="#c52828"/>
   <stop offset="1" stop-color="#ff5454"/>
  </linearGradient>
  <linearGradient gradientTransform="translate(-384.57144,-498.798)" xlink:href="#6" id="5" y1="536.798" x2="0" y2="503.798" gradientUnits="userSpaceOnUse"/>
  <linearGradient id="6">
   <stop stop-color="#2a2c2f"/>
   <stop offset="1" stop-color="#424649"/>
  </linearGradient>
  <linearGradient xlink:href="#8" id="7" y1="547.798" x2="0" y2="536.798" gradientUnits="userSpaceOnUse" gradientTransform="matrix(1,0,0,0.54545455,-384.30259,-255.05286)"/>
  <linearGradient id="8">
   <stop stop-color="#c6cdd1"/>
   <stop offset="1" stop-color="#e0e5e7"/>
  </linearGradient>
  <linearGradient xlink:href="#1" id="9" gradientUnits="userSpaceOnUse" x1="252.725" y1="388.505" x2="255.415" y2="-76.617" gradientTransform="matrix(0.04719832,0,0,0.04426582,11.99995,10.745598)"/>
 </defs>
 <path d="m 18.268841,37.746046 0,3.81818 0,1.09091 0,1.09091 12,0 0,-1.09091 0,-1.09091 0,-3.81818 z" fill="url(#7)"/>
 <path d="M 0 5 L 0 41 L 48 41 L 48 5 L 0 5 z M 2 7 L 46 7 L 46 37 L 2 37 L 2 7 z" fill="url(#5)"/>
 <rect width="44" height="30" x="2" y="7" fill="url(#3)"/>
 <rect width="22" height="2" x="13.27" y="42.75" fill="#99a1a7"/>
 <path d="m 35.794972,17.750223 c -0.133523,-1.498314 -1.086082,-3.387757 -3.043674,-3.455308 -5.466276,-0.34469 -11.942113,-0.438936 -17.50741,0 -1.726613,0.181497 -2.910152,2.153932 -3.039134,3.652246 -0.273006,3.147155 -0.273006,4.938165 0,8.08532 0.130499,1.498314 1.284058,3.482048 3.042157,3.69024 5.631267,0.34468 12.075646,0.393911 17.507411,0 1.704101,-0.277166 2.911658,-2.191926 3.042176,-3.69024 0.271489,-3.148578 0.271489,-5.135102 -9.23e-4,-8.282258 z m -14.796798,8.231623 0,-8.068456 7.500368,4.034913 -7.500368,4.033543 z" opacity=".878" fill="url(#9)" stroke-width="1.317"/>
</svg>
