<?xml version="1.0" encoding="UTF-8" standalone="no"?>
<svg xmlns="http://www.w3.org/2000/svg" xmlns:xlink="http://www.w3.org/1999/xlink" width="48" height="48" version="1.1">
 <defs>
  <linearGradient id="linearGradient4472">
   <stop style="stop-color:#000000;stop-opacity:0.08247422" offset="0"/>
   <stop style="stop-color:#000000;stop-opacity:0" offset="1"/>
  </linearGradient>
  <linearGradient id="linearGradient4456">
   <stop style="stop-color:#000000;stop-opacity:0.27450982" offset="0"/>
   <stop style="stop-color:#ffffff;stop-opacity:0" offset="1"/>
  </linearGradient>
  <linearGradient id="linearGradient4448">
   <stop style="stop-color:#ffffff;stop-opacity:0" offset="0"/>
   <stop style="stop-color:#ffffff;stop-opacity:0.3137255" offset="1"/>
  </linearGradient>
  <linearGradient xlink:href="#linearGradient4303" id="linearGradient4346" x1="543.798" y1="-409.571" x2="503.798" y2="-409.571" gradientUnits="userSpaceOnUse" gradientTransform="matrix(0,1,-1.1666667,0,-452.66668,-499.798)"/>
  <linearGradient id="linearGradient4903">
   <stop style="stop-color:#eef1f2;stop-opacity:1" offset="0"/>
   <stop style="stop-color:#f9fafb;stop-opacity:1" offset="1"/>
  </linearGradient>
  <linearGradient xlink:href="#linearGradient4448" id="linearGradient4454" x1="384.571" y1="547.798" x2="394.571" y2="530.477" gradientUnits="userSpaceOnUse"/>
  <linearGradient xlink:href="#linearGradient4456" id="linearGradient4462" x1="384.571" y1="537.798" x2="414.571" y2="537.798" gradientUnits="userSpaceOnUse"/>
  <linearGradient xlink:href="#linearGradient4472" id="linearGradient4478" x1="432.571" y1="547.798" x2="421.024" y2="527.798" gradientUnits="userSpaceOnUse"/>
  <linearGradient xlink:href="#linearGradient4903" id="linearGradient4486" x1="25" y1="44" x2="25" y2="20" gradientUnits="userSpaceOnUse"/>
  <linearGradient id="linearGradient4303">
   <stop offset="0" style="stop-color:#197cf1;stop-opacity:1"/>
   <stop offset="1" style="stop-color:#21c9fb;stop-opacity:1"/>
  </linearGradient>
  <linearGradient id="linearGradient4227">
   <stop style="stop-color:#292c2f;stop-opacity:1" offset="0"/>
   <stop style="stop-color:#000000;stop-opacity:0;" offset="1"/>
  </linearGradient>
  <linearGradient xlink:href="#linearGradient4227" id="linearGradient4755" x1="414.571" y1="511.798" x2="422.571" y2="519.798" gradientUnits="userSpaceOnUse"/>
  <linearGradient xlink:href="#linearGradient4903" id="linearGradient4279" x1="400.161" y1="518.676" x2="416.669" y2="518.676" gradientUnits="userSpaceOnUse" gradientTransform="matrix(1.0298499,0,0,1.0192766,-12.53486,-9.8767525)"/>
 </defs>
 <g transform="translate(-384.57143,-499.798)">
  <path style="fill:#c8cfd3;fill-opacity:1;fill-rule:evenodd;stroke:none;stroke-width:1px;stroke-linecap:butt;stroke-linejoin:miter;stroke-opacity:1" d="M 24 8 L 4 20 L 24 35 L 44 20 L 24 8 z" transform="translate(384.57143,499.798)"/>
  <path style="fill:url(#linearGradient4346);fill-opacity:1;stroke:none;stroke-opacity:1" d="M 10 4 L 10 44 L 38 44 L 38 12 L 30 4 L 10 4 z" transform="translate(384.57143,499.798)"/>
  <path style="fill:url(#linearGradient4486);fill-opacity:1;stroke:none;stroke-opacity:1" d="M 4 20 L 4 44 L 44 44 L 44 20 L 28 32 L 20 32 L 4 20 z" transform="translate(384.57143,499.798)"/>
  <path style="fill:url(#linearGradient4462);fill-opacity:1;fill-rule:evenodd;stroke:none;stroke-width:1px;stroke-linecap:butt;stroke-linejoin:miter;stroke-opacity:1" d="m 388.57147,543.798 15.99996,-12 8,0 16.00001,12 z"/>
  <path style="fill:url(#linearGradient4478);fill-opacity:1;fill-rule:evenodd;stroke:none;stroke-width:1px;stroke-linecap:butt;stroke-linejoin:miter;stroke-opacity:1" d="m 428.57144,543.798 -16.00001,-12 16.00001,-12 z"/>
  <path d="m 388.57143,543.798 16.00001,-12 -16.00001,-12 z" style="fill:url(#linearGradient4454);fill-opacity:1;fill-rule:evenodd;stroke:none;stroke-width:1px;stroke-linecap:butt;stroke-linejoin:miter;stroke-opacity:1"/>
  <rect style="fill:#d1d3d4;fill-opacity:1;stroke:none;stroke-opacity:1" width="40" height="1" x="388.57" y="542.8"/>
  <path style="fill:#313437;fill-rule:evenodd;stroke:none;stroke-width:1px;stroke-linecap:butt;stroke-linejoin:miter;stroke-opacity:1;fill-opacity:1" d="m 422.57143,511.798 -8,0 0,-8 z"/>
  <path d="m 414.57143,511.798 8,0 0,8 z" style="fill:url(#linearGradient4755);fill-opacity:1;fill-rule:evenodd;stroke:none;stroke-width:1px;stroke-linecap:butt;stroke-linejoin:miter;stroke-opacity:1;opacity:0.2"/>
  <path style="opacity:1;fill:url(#linearGradient4279);fill-opacity:1;fill-rule:nonzero;stroke:none;stroke-width:42.53499985;stroke-miterlimit:4;stroke-dasharray:none;stroke-opacity:1" d="m 414.39442,526.67578 c -0.38086,-0.13497 -3.97552,-2.13277 -5.405,-3.00406 -0.29439,-0.17942 -0.30599,-0.25993 -0.30599,-2.12039 l 0,-1.93387 3.93833,2.23984 3.93833,2.23984 0.006,0.78731 c 0.0117,1.63046 -0.78032,2.28388 -2.17133,1.79133 z m -10.53898,-0.97226 c -2.01961,-1.1516 -3.80971,-2.18234 -3.978,-2.29066 -0.29339,-0.18882 -0.30601,-0.27486 -0.30601,-2.08945 0,-1.09228 0.0527,-1.87365 0.12488,-1.84775 0.0687,0.0248 1.87409,1.04245 4.01201,2.2617 l 3.88711,2.21682 0,1.92224 c 0,1.05722 -0.0154,1.92199 -0.034,1.92158 -0.0186,-5.8e-4 -1.68641,-0.94289 -3.70599,-2.09448 z m -0.37189,-5.15397 -3.90786,-2.24033 -0.002,-1.92942 c -0.002,-1.06102 0.0504,-1.90913 0.11457,-1.88446 0.0642,0.0248 1.86792,1.04427 4.00832,2.26582 l 3.89164,2.22103 0.003,1.91811 c 0.002,1.05492 -0.0422,1.91168 -0.0984,1.90393 -0.0561,-0.008 -1.86054,-1.02233 -4.00987,-2.25468 z m 12.47587,2.14934 c -0.2244,-0.13727 -1.8768,-1.08345 -3.67201,-2.10265 -1.79519,-1.01919 -3.34229,-1.92438 -3.438,-2.0115 -0.12887,-0.11739 -0.16413,-0.63742 -0.13598,-2.00498 l 0.038,-1.84643 2.99201,1.70751 c 1.6456,0.93901 3.4051,1.94319 3.90999,2.23126 l 0.918,0.52383 0,1.87851 c 0,1.03322 -0.0459,1.87745 -0.10196,1.87622 -0.0561,0 -0.2856,-0.11459 -0.51,-0.25177 z m -2.04,-6.14075 c -1.34639,-0.77542 -3.0753,-1.75816 -3.842,-2.18374 l -1.394,-0.77386 0,-1.93378 c 0,-1.49436 0.0386,-1.91796 0.17001,-1.86434 0.0935,0.0387 1.85301,1.03718 3.91,2.21971 l 3.73999,2.15025 0.0378,1.90022 c 0.0208,1.04501 -0.0103,1.89897 -0.068,1.89774 -0.0582,0 -1.20733,-0.63668 -2.55373,-1.4122 z m -10.43798,-0.98272 -3.91001,-2.24389 0.003,-0.47252 c 0.0148,-2.15742 1.09925,-2.70244 3.1458,-1.58121 0.57259,0.31372 1.90229,1.05491 2.95489,1.64721 l 1.91383,1.07686 0.003,1.91811 c 0.002,1.05491 -0.0427,1.91383 -0.0989,1.90872 -0.0561,-0.008 -1.86151,-1.01911 -4.01201,-2.25328 z"/>
 </g>
</svg>
