<svg width="48" xmlns="http://www.w3.org/2000/svg" height="48" xmlns:xlink="http://www.w3.org/1999/xlink">
 <defs>
  <linearGradient id="a" y1="538.8" y2="505.8" x2="0" gradientUnits="userSpaceOnUse" gradientTransform="matrix(1.45455 0 0 1-198.81-31)">
   <stop stop-color="#bd8d48"/>
   <stop offset="1" stop-color="#e8b971"/>
  </linearGradient>
  <linearGradient id="b" x1="428.57" x2="406.57" gradientUnits="userSpaceOnUse" gradientTransform="matrix(1.45455 0 0 1-198.81 1)">
   <stop stop-color="#e3dfd6"/>
   <stop offset="1" stop-color="#f4f1e8"/>
  </linearGradient>
  <linearGradient xlink:href="#a" id="c" y1="538.8" y2="506.72" x2="0" gradientUnits="userSpaceOnUse" gradientTransform="matrix(1.45455 0 0 1.12221-583.38-560.64)"/>
  <linearGradient id="d" y1="531.79" y2="544.79" x2="0" gradientUnits="userSpaceOnUse" gradientTransform="matrix(.70711-.70711.70711.70711-273.44 450.74)">
   <stop/>
   <stop offset="1" stop-opacity="0"/>
  </linearGradient>
  <linearGradient id="e" y1="541.51" x1="428.76" y2="528.51" gradientUnits="userSpaceOnUse" x2="430.47" gradientTransform="translate(-24.14-10.993)">
   <stop stop-color="#ebc69a"/>
   <stop offset="1" stop-color="#f4e0c8"/>
  </linearGradient>
 </defs>
 <g transform="translate(-384.57-499.8)">
  <g stroke-linejoin="round" color="#000000">
   <path fill="url(#a)" d="m392.57 505.8v2h32v-2z"/>
   <path fill="url(#b)" d="m392.57 506.8v1h32v-1z"/>
   <path fill="url(#c)" d="m8 8v36h32v-36z" transform="translate(384.57 499.8)"/>
   <path opacity=".2" fill="url(#d)" d="m410.69 518.68l-4.242 4.242 2.637 2.637-3.891.148-.625 1.094-1 6 11 11h10v-11z"/>
  </g>
  <path fill="url(#e)" d="m408.57 517.8c-1.662 0-3 1.338-3 3 0 1.662 1.338 3 3 3 1.662 0 3-1.338 3-3 0-1.662-1.338-3-3-3m0 7c-2.77 0-5 .892-5 2v6h10v-6c0-1.108-2.23-2-5-2m0 1c2.216 0 4 .636 4 1.428v4.572h-8v-4.572c0-.791 1.784-1.428 4-1.428"/>
  <g fill="#7f8c8d" stroke-linejoin="round" stroke-linecap="round" color="#000000">
   <rect width="1" x="405.57" y="503.8" height="6"/>
   <rect width="1" x="395.57" y="503.8" height="6"/>
   <rect width="1" x="400.57" y="503.8" height="6"/>
   <rect width="1" x="410.57" y="503.8" height="6"/>
   <rect width="1" x="415.57" y="503.8" height="6"/>
   <rect width="1" x="420.57" y="503.8" height="6"/>
  </g>
 </g>
</svg>
