<svg width="48" xmlns="http://www.w3.org/2000/svg" height="48" xmlns:xlink="http://www.w3.org/1999/xlink">
 <defs>
  <linearGradient id="a" y1="44" y2="4" gradientUnits="userSpaceOnUse" x2="0" gradientTransform="translate(0 1004.36)">
   <stop stop-color="#63984b"/>
   <stop offset="1" stop-color="#8fc278"/>
  </linearGradient>
  <linearGradient id="b" y1="11" x1="17" y2="41" gradientUnits="userSpaceOnUse" x2="44" gradientTransform="translate(0 1004.36)">
   <stop/>
   <stop offset="1" stop-opacity="0"/>
  </linearGradient>
  <linearGradient id="c" y1="40" y2="6" gradientUnits="userSpaceOnUse" x2="0" gradientTransform="matrix(.94118 0 0 .91176 1.412 1006.44)">
   <stop stop-color="#b1b1b1"/>
   <stop offset="1" stop-color="#dddddd"/>
  </linearGradient>
  <linearGradient xlink:href="#b" id="d" y1="21" x1="23" y2="39" gradientUnits="userSpaceOnUse" x2="40" gradientTransform="translate(0 1004.36)"/>
  <linearGradient id="e" y1="1040.95" y2="1012.95" gradientUnits="userSpaceOnUse" x2="0">
   <stop stop-color="#f2f2f2"/>
   <stop offset="1" stop-color="#ffffff"/>
  </linearGradient>
 </defs>
 <g transform="translate(0-1004.36)">
  <g fill-rule="evenodd">
   <path fill="#dce269" d="m4 1008.36v9l3 2-3 2v27h40v-40z"/>
   <path fill="url(#a)" d="m4 1008.36v8l3 2-3 2v27h40v-39z"/>
  </g>
  <g fill="#dee372" color="#000000">
   <path opacity=".6" d="m9 1044.36v1h1v-1zm1 1v1h1v-1zm1 0h1v-1h-1zm1 0v1h1v-1zm1 0h1v-1h-1zm1 0v1h1v-1zm1 0h1v-1h-1zm1 0v1h1v-1zm1 0h1v-1h-1zm1 0v1h1v-1zm1 0h1v-1h-1zm1 0v1h1v-1zm1 0h1v-1h-1zm1 0v1h1v-1zm1 0h1v-1h-1zm1 0v1h1v-1z"/>
   <path opacity=".6" d="m35 1044.36v1h1v-1zm1 1v1h1v-1zm1 0h1v-1h-1zm1 0v1h1v-1zm1 0h1v-1h-1zm-4 0h-1v1h1z"/>
  </g>
  <path fill="#e6ea97" fill-rule="evenodd" d="m43 1044.36l-2 2h2z"/>
  <path opacity=".6" fill="#dee372" color="#000000" d="m42 1013.36v1h1v-1zm0 1h-1v1h1zm0 1v1h1v-1zm0 1h-1v1h1zm0 1v1h1v-1zm0 1h-1v1h1zm0 1v1h1v-1zm0 1h-1v1h1zm0 1v1h1v-1zm0 1h-1v1h1zm0 1v1h1v-1zm0 1h-1v1h1zm0 1v1h1v-1zm0 1h-1v1h1zm0 1v1h1v-1zm0 1h-1v1h1z"/>
  <g fill-rule="evenodd">
   <path opacity=".2" fill="url(#b)" d="m40 1012.36v31h-32l4.584 5h31.416v-32z"/>
   <rect width="32" x="8" y="1012.36" fill="url(#c)" height="31"/>
   <rect width="32" x="8" y="1042.36" fill="#5c5c5c" height="1"/>
   <path opacity=".2" fill="url(#d)" d="m38 1041.36h-28l6.786 6.963 27.21.037v-28l-6-6z"/>
   <path fill="url(#e)" d="m10 1014.36v27h28v-27z"/>
   <rect width="28" x="10" y="1040.36" fill="#878787" height="1"/>
   <g fill="#bcbcbc">
    <rect width="8" x="13" y="1032.36" height="1"/>
    <rect width="6" x="22" y="1032.36" height="1"/>
    <rect width="7" x="13" y="1034.36" height="1"/>
    <rect width="3" x="21" y="1034.36" height="1"/>
    <rect width="4.03" x="13" y="1036.36" height="1"/>
    <rect width="8" x="18" y="1036.36" height="1"/>
   </g>
   <g fill="#959595">
    <rect width="10" x="13" y="1016.36" height="1"/>
    <rect width="5" x="24" y="1016.36" height="1"/>
    <rect width="7" x="13" y="1018.36" height="1"/>
    <rect width="4" x="22" y="1018.36" height="1"/>
   </g>
  </g>
 </g>
</svg>
