<?xml version="1.0" encoding="UTF-8" standalone="no"?>
<svg xmlns="http://www.w3.org/2000/svg" xmlns:xlink="http://www.w3.org/1999/xlink" width="48" height="48" version="1.1">
 <defs>
  <linearGradient gradientTransform="matrix(0.85071974,0,0,0.85071974,360.15356,473.66194)" y2="36.609" x2="56.818" y1="81.49" x1="56.58" gradientUnits="userSpaceOnUse" id="1-4">
   <stop stop-color="#00a661"/>
   <stop stop-color="#37ce97" offset="1"/>
  </linearGradient>
  <linearGradient gradientTransform="matrix(1.0033058,0,0,1.0033058,-1.3175929,-1.71504)" xlink:href="#0" id="linearGradient4205" x1="388.571" y1="523.798" x2="428.571" y2="523.798" gradientUnits="userSpaceOnUse"/>
  <linearGradient id="0" y1="1045.87" x2="0" y2="1006.87" gradientUnits="userSpaceOnUse" gradientTransform="matrix(2.9898306,0,0,2.9898306,272.24553,-2578.79)">
   <stop stop-color="#d3d3d3"/>
   <stop offset="1" stop-color="#fcf9f9"/>
  </linearGradient>
 </defs>
 <g transform="translate(-384.57143,-499.798)">
  <g transform="matrix(0.99670418,0,0,0.99670446,1.313593,1.70974)">
   <rect width="40.132" x="388.54" y="503.75" rx="20.066" height="40.132" style="opacity:0.9;fill:url(#linearGradient4205);fill-opacity:1;stroke-width:2.79999995;stroke-opacity:0.55026502"/>
   <path style="opacity:0.15;fill:#000000;fill-opacity:1;stroke-width:2.79999995;stroke-opacity:0.55026502" d="m 388.55013,523.31287 c -0.004,0.16741 -0.0117,0.33322 -0.0117,0.50165 0,11.11662 8.9495,20.06612 20.06612,20.06612 11.11661,0 20.06611,-8.9495 20.06611,-20.06612 0,-0.16843 -0.008,-0.33425 -0.0117,-0.50165 -0.26505,10.88243 -9.10584,19.56446 -20.05435,19.56446 -10.94852,0 -19.78931,-8.68203 -20.05436,-19.56446 z"/>
   <path style="color:#000000;fill:url(#1-4);stroke:none;stroke-width:0.94099998;stroke-linecap:round;stroke-linejoin:round" d="m 408.6786,507.73326 c -1.74566,0 -3.4284,0.28073 -5.00307,0.79712 l 0,15.21258 c 0,2.76314 2.23995,5.00308 5.00307,5.00308 2.76314,0 5.00309,-2.23994 5.00309,-5.00308 0,-2.76315 -2.23995,-5.00309 -5.00309,-5.00309 l 0,-5.00308 c 5.52629,0 10.00617,4.47989 10.00617,10.00617 0,5.52627 -4.47988,10.00617 -10.00617,10.00617 -5.52627,0 -10.00616,-4.4799 -10.00616,-10.00617 l 0,-12.49198 c -3.65724,2.93414 -6.00608,7.43785 -6.00608,12.49198 0,8.84152 7.16732,16.00969 16.0097,16.00969 8.84152,0 16.00969,-7.16732 16.00969,-16.00969 0,-8.84153 -7.16731,-16.0097 -16.00969,-16.0097"/>
  </g>
 </g>
</svg>
