<?xml version="1.0" encoding="UTF-8" standalone="no"?>
<svg xmlns="http://www.w3.org/2000/svg" xmlns:xlink="http://www.w3.org/1999/xlink" width="48" height="48" version="1.1">
 <defs>
  <linearGradient id="linearGradient4179">
   <stop style="stop-color:#7c8133;stop-opacity:1" offset="0"/>
   <stop style="stop-color:#d7e04c;stop-opacity:1" offset="1"/>
  </linearGradient>
  <linearGradient id="linearGradient4173">
   <stop offset="0" style="stop-color:#377d50;stop-opacity:1"/>
   <stop offset="1" style="stop-color:#54d883;stop-opacity:1"/>
  </linearGradient>
  <linearGradient id="linearGradient4405">
   <stop style="stop-color:#000000;stop-opacity:1;" offset="0"/>
   <stop style="stop-color:#000000;stop-opacity:0;" offset="1"/>
  </linearGradient>
  <linearGradient xlink:href="#linearGradient4173" id="linearGradient4327" x1="-44" y1="10" x2="-32" y2="10" gradientUnits="userSpaceOnUse"/>
  <linearGradient xlink:href="#linearGradient4179" id="linearGradient4335" x1="-44" y1="24" x2="-32" y2="24" gradientUnits="userSpaceOnUse"/>
  <linearGradient xlink:href="#linearGradient4173" id="linearGradient4343" x1="-44" y1="38" x2="-32" y2="38" gradientUnits="userSpaceOnUse"/>
  <linearGradient xlink:href="#linearGradient4179" id="linearGradient4351" x1="-30" y1="10" x2="-18" y2="10" gradientUnits="userSpaceOnUse"/>
  <linearGradient xlink:href="#linearGradient4173" id="linearGradient4359" x1="-30" y1="24" x2="-18" y2="24" gradientUnits="userSpaceOnUse"/>
  <linearGradient xlink:href="#linearGradient4179" id="linearGradient4367" x1="-30" y1="38" x2="-18" y2="38" gradientUnits="userSpaceOnUse"/>
  <linearGradient xlink:href="#linearGradient4173" id="linearGradient4375" x1="-16" y1="10" x2="-4" y2="10" gradientUnits="userSpaceOnUse"/>
  <linearGradient xlink:href="#linearGradient4179" id="linearGradient4383" x1="-16" y1="24" x2="-4" y2="24" gradientUnits="userSpaceOnUse"/>
  <linearGradient xlink:href="#linearGradient4173" id="linearGradient4391" x1="-16" y1="38" x2="-4" y2="38" gradientUnits="userSpaceOnUse"/>
  <linearGradient xlink:href="#linearGradient4405" id="linearGradient4411" x1="18.577" y1="18.216" x2="38.551" y2="38.959" gradientUnits="userSpaceOnUse"/>
 </defs>
 <g>
  <rect style="opacity:1;fill:#33393e;fill-opacity:1;stroke:none;stroke-width:2;stroke-linecap:round;stroke-linejoin:round;stroke-miterlimit:4;stroke-dasharray:none;stroke-opacity:1" width="39" height="39" x="4.5" y="4.5" rx="1.258" ry="1.182"/>
  <rect ry="1" rx="1" y="18" x="-16" height="12" width="12" style="fill:url(#linearGradient4383);fill-opacity:1.0;stroke:#808080;stroke-width:0;stroke-linecap:round;stroke-linejoin:round;stroke-miterlimit:4;stroke-dasharray:none;stroke-opacity:1" transform="matrix(0,-1,1,0,0,0)"/>
  <rect style="fill:url(#linearGradient4391);fill-opacity:1.0;stroke:#808080;stroke-width:0;stroke-linecap:round;stroke-linejoin:round;stroke-miterlimit:4;stroke-dasharray:none;stroke-opacity:1" width="12" height="12" x="-16" y="32" rx="1" ry="1" transform="matrix(0,-1,1,0,0,0)"/>
  <rect ry="1" rx="1" y="4" x="-16" height="12" width="12" style="fill:url(#linearGradient4375);fill-opacity:1.0;stroke:#808080;stroke-width:0;stroke-linecap:round;stroke-linejoin:round;stroke-miterlimit:4;stroke-dasharray:none;stroke-opacity:1" transform="matrix(0,-1,1,0,0,0)"/>
  <rect style="fill:url(#linearGradient4367);fill-opacity:1.0;stroke:#808080;stroke-width:0;stroke-linecap:round;stroke-linejoin:round;stroke-miterlimit:4;stroke-dasharray:none;stroke-opacity:1" width="12" height="12" x="-30" y="32" rx="1" ry="1" transform="matrix(0,-1,1,0,0,0)"/>
  <rect style="fill:url(#linearGradient4351);fill-opacity:1.0;stroke:#808080;stroke-width:0;stroke-linecap:round;stroke-linejoin:round;stroke-miterlimit:4;stroke-dasharray:none;stroke-opacity:1" width="12" height="12" x="-30" y="4" rx="1" ry="1" transform="matrix(0,-1,1,0,0,0)"/>
  <rect ry="1" rx="1" y="4" x="-44" height="12" width="12" style="fill:url(#linearGradient4327);fill-opacity:1.0;stroke:#808080;stroke-width:0;stroke-linecap:round;stroke-linejoin:round;stroke-miterlimit:4;stroke-dasharray:none;stroke-opacity:1" transform="matrix(0,-1,1,0,0,0)"/>
  <rect style="fill:url(#linearGradient4343);fill-opacity:1.0;stroke:#808080;stroke-width:0;stroke-linecap:round;stroke-linejoin:round;stroke-miterlimit:4;stroke-dasharray:none;stroke-opacity:1" width="12" height="12" x="-44" y="32" rx="1" ry="1" transform="matrix(0,-1,1,0,0,0)"/>
  <rect ry="1" rx="1" y="18" x="-44" height="12" width="12" style="fill:url(#linearGradient4335);fill-opacity:1.0;stroke:#808080;stroke-width:0;stroke-linecap:round;stroke-linejoin:round;stroke-miterlimit:4;stroke-dasharray:none;stroke-opacity:1" transform="matrix(0,-1,1,0,0,0)"/>
  <path style="opacity:0.3;fill:url(#linearGradient4411);fill-opacity:1;stroke:none;stroke-width:2;stroke-linecap:round;stroke-linejoin:round;stroke-miterlimit:4;stroke-dasharray:none;stroke-opacity:1" d="M 29.732422 18.314453 L 24.697266 20.599609 L 19.144531 25.353516 L 18.267578 29.685547 L 32.582031 44 L 44 44 L 44 32.582031 L 29.732422 18.314453 z"/>
  <rect ry="1" rx="1" y="18" x="-30" height="12" width="12" style="fill:url(#linearGradient4359);fill-opacity:1.0;stroke:#808080;stroke-width:0;stroke-linecap:round;stroke-linejoin:round;stroke-miterlimit:4;stroke-dasharray:none;stroke-opacity:1" transform="matrix(0,-1,1,0,0,0)"/>
  <path style="opacity:1;fill:#ffffff;fill-opacity:1;stroke:none;stroke-width:1;stroke-linecap:butt;stroke-linejoin:bevel;stroke-miterlimit:4;stroke-dasharray:none;stroke-opacity:1" d="M 20.464466,21.87868 22.585786,24 20.464466,26.12132 21.87868,27.535534 24,25.414214 26.12132,27.535534 27.535534,26.12132 25.414214,24 27.535534,21.87868 26.12132,20.464466 24,22.585786 21.87868,20.464466 20.464466,21.87868 Z"/>
  <path d="M 6.4644661,21.87868 8.5857861,24 6.4644661,26.12132 7.8786801,27.535534 10,25.414214 12.12132,27.535534 13.535534,26.12132 11.414214,24 13.535534,21.87868 12.12132,20.464466 10,22.585786 7.8786801,20.464466 6.4644661,21.87868 Z" style="opacity:1;fill:#ffffff;fill-opacity:1;stroke:none;stroke-width:1;stroke-linecap:butt;stroke-linejoin:bevel;stroke-miterlimit:4;stroke-dasharray:none;stroke-opacity:1"/>
  <path style="opacity:1;fill:#ffffff;fill-opacity:1;stroke:none;stroke-width:1;stroke-linecap:butt;stroke-linejoin:bevel;stroke-miterlimit:4;stroke-dasharray:none;stroke-opacity:1" d="M 34.464466,7.87868 36.585786,10 34.464466,12.12132 35.87868,13.535534 38,11.414214 40.12132,13.535534 41.535534,12.12132 39.414214,10 41.535534,7.87868 40.12132,6.464466 38,8.585786 35.87868,6.464466 34.464466,7.87868 Z"/>
 </g>
</svg>
