<svg width="48" xmlns="http://www.w3.org/2000/svg" height="48" xmlns:xlink="http://www.w3.org/1999/xlink">
 <defs>
  <linearGradient id="a" y1="13.634" x1="29.06" y2="1.499" x2="29.01" gradientUnits="userSpaceOnUse" gradientTransform="matrix(-.99376-.00282.00423.65925 47.823 4.893)">
   <stop stop-color="#977a5c"/>
   <stop offset="1" stop-color="#9d8062"/>
  </linearGradient>
  <linearGradient id="b" y1="38" y2="8" gradientUnits="userSpaceOnUse" x2="0" gradientTransform="translate(0 6)">
   <stop stop-color="#d8dcde"/>
   <stop offset="1" stop-color="#f9fafb"/>
  </linearGradient>
  <linearGradient id="c" y1="8" y2="4" x2="0" gradientUnits="userSpaceOnUse" gradientTransform="translate(1)">
   <stop stop-color="#2f3943"/>
   <stop offset="1" stop-color="#4d5662"/>
  </linearGradient>
  <linearGradient xlink:href="#c" id="d" y1="8" y2="4" x2="0" gradientUnits="userSpaceOnUse" gradientTransform="translate(26)"/>
  <linearGradient id="e" y1="8" x1="8" y2="19" x2="19" gradientUnits="userSpaceOnUse">
   <stop/>
   <stop offset="1" stop-opacity="0"/>
  </linearGradient>
  <linearGradient xlink:href="#e" id="f" y1="8" x1="8" y2="19" x2="19" gradientUnits="userSpaceOnUse" gradientTransform="translate(25)"/>
 </defs>
 <g stroke-linejoin="bevel" stroke-width="2">
  <path fill="url(#b)" d="m4 13v31h40v-31z"/>
  <path fill="url(#a)" d="m4 6h40v8h-40z"/>
  <g stroke-linecap="round">
   <rect width="40" x="4" y="13" fill="#725c45" height="1"/>
   <g fill="#bdc3c7">
    <rect width="11" x="4" y="14" height="6"/>
    <rect width="17" x="27" y="38" height="6"/>
   </g>
   <rect width="9" x="7" y="7" fill="#725c45" height="1"/>
   <rect width="7" x="8" y="4" fill="url(#c)" height="4"/>
   <rect width="9" x="32" y="7" fill="#725c45" height="1"/>
   <rect width="7" x="33" y="4" fill="url(#d)" height="4"/>
   <rect width="12" x="18" y="10" fill="#fcfcfc" height="2"/>
  </g>
 </g>
 <g fill-rule="evenodd">
  <path opacity=".2" fill="url(#e)" d="m8 8l11 11h7l-11-11z"/>
  <path opacity=".2" fill="url(#f)" d="m33 8l11 11v-7l-4-4z"/>
 </g>
 <g stroke-linejoin="bevel" stroke-linecap="round" stroke-width="2">
  <g fill="#da4453">
   <rect width="4" x="16" y="18" height="1"/>
   <rect width="2" x="34" y="30" height="1"/>
   <rect width="1" x="5" y="36" height="1"/>
   <rect width="1" x="7" y="36" height="1"/>
  </g>
  <g fill="#27ae60">
   <rect width="2" x="16" y="36" height="1"/>
   <rect width="4" x="28" y="24" height="1"/>
   <rect width="4" x="10" y="24" height="1"/>
   <rect width="4" x="16" y="24" height="1"/>
   <rect width="4" x="22" y="24" height="1"/>
  </g>
  <g fill="#3daefd">
   <rect width="3" x="34" y="36" height="1"/>
   <rect width="3" x="5" y="30" height="1"/>
   <rect width="3" x="40" y="18" height="1"/>
  </g>
 </g>
</svg>
