<svg width="48" xmlns="http://www.w3.org/2000/svg" height="48">
 <defs>
  <linearGradient id="a" y1="16.317" x1="17.901" y2="38" x2="39.584" gradientUnits="userSpaceOnUse">
   <stop stop-color="#172525"/>
   <stop offset="1" stop-color="#172525" stop-opacity="0"/>
  </linearGradient>
  <linearGradient id="b" y1="537.22" y2="505.83" x1="423.04" gradientUnits="userSpaceOnUse" x2="398.97">
   <stop stop-color="#197cf1"/>
   <stop offset="1" stop-color="#20bcfa"/>
  </linearGradient>
  <linearGradient id="c" y1="506.87" y2="536.3" x1="398.46" x2="427.88" gradientUnits="userSpaceOnUse" gradientTransform="translate(.001.001)">
   <stop stop-color="#abdaf9"/>
   <stop offset="1" stop-color="#7cbcec"/>
  </linearGradient>
 </defs>
 <g transform="translate(-384.57-499.8)">
  <rect width="40" x="388.57" y="503.8" fill="url(#b)" rx="20" height="40"/>
  <path fill="url(#c)" fill-rule="evenodd" d="m408.57 503.8c-1.452 0-2.864.16-4.227.451l-1.773 3.549-2.68-2.01c-4.806 2.311-8.529 6.472-10.254 11.584l3.934-1.574 3 2 1-3 13-7-.793-3.961c-.4-.024-.801-.039-1.207-.039m14.81 6.568l-.811 2.432 1 1-4 6 2 7 6.633.83c.239-1.239.367-2.519.367-3.83 0-3.425-.857-6.641-2.361-9.453l-1.639-.547.596-1.193c-.535-.794-1.144-1.531-1.785-2.238m-34.414 9.432c-.221 1.096-.346 2.227-.381 3.381l6.984 2.619-1-3-2-3zm6.603 6l5 12v4.338c2.449 1.065 5.151 1.662 8 1.662.199 0 .395-.008.592-.014l6.408-10.986-16-9z"/>
  <g transform="translate(384.57 499.8)">
   <path opacity=".2" stroke-opacity=".55" fill="#2b3c4d" stroke-width="2.8" d="m4.01 23.5c-.004.167-.012.332-.012.5 0 11.08 8.92 20 20 20 11.08 0 20-8.92 20-20 0-.168-.008-.333-.012-.5-.264 10.847-9.08 19.5-19.988 19.5-10.912 0-19.724-8.653-19.988-19.5"/>
   <path opacity=".4" fill="url(#a)" d="m25.711 13.629l-3.668 5.361-.684-.588-4.184 4.941-3.529 2.232 3.758 4.197-.154 2.475 11.338 11.207c8.736-2.039 15.236-9.756 15.402-19.09l-9.691-9.777-5.865 1.83z"/>
  </g>
  <path fill="#fcfcfc" color-rendering="auto" shape-rendering="auto" color-interpolation-filters="linearRGB" image-rendering="auto" text-rendering="auto" color-interpolation="sRGB" color="#000000" d="m12.339 1033.36l-2.833.265v10.94l2.802-.382v-4.676l3.735 5.176 2.926-.882-3.829-4.97 3.86-4.705-2.988-.647-3.704 4.705zm-6.381 2.676c-.032 0-.07.017-.093.03l-1.089 1.059c-.046.046-.065.123-.031.177l1.276 2c-.229.364-.398.762-.529 1.176l-2.366.471c-.066.017-.124.054-.124.118v1.47c0 .062.061.131.124.147l2.303.529c.123.479.309.935.56 1.353l-1.339 1.912c-.037.054-.018.131.031.177l1.09 1.029c.046.042.13.064.187.03l2.086-1.206c.41.224.84.41 1.307.529l.498 2.206c.014.064.057.118.124.118h1.556c.066 0 .14-.057.156-.118l.56-2.206c.482-.123.95-.325 1.37-.559l2.054 1.294c.057.034.139.017.187-.03l1.089-1.029c.047-.046.065-.123.031-.176l-.747-1.176-.249.088c-.036.017-.073 0-.093-.03 0 0-.471-.674-1.089-1.529-.74 1.368-2.247 2.294-3.984 2.294-2.469 0-4.482-1.873-4.482-4.206 0-1.716 1.091-3.191 2.646-3.852v-1.088c-.283.094-.549.19-.809.324 0 0-.03 0-.031 0l-2.086-1.294c-.028-.017-.062-.032-.093-.029" transform="matrix(1.29841 0 0 1.29841 394.29-828.32)"/>
 </g>
</svg>
