<?xml version="1.0" encoding="UTF-8" standalone="no"?>
<svg xmlns="http://www.w3.org/2000/svg" xmlns:xlink="http://www.w3.org/1999/xlink" width="48" height="48" viewBox="0 0 48 48" version="1.1">
 <defs>
  <linearGradient id="linearGradient4146">
   <stop style="stop-color:#e4f2f6;stop-opacity:1;" offset="0"/>
   <stop style="stop-color:#b1caee;stop-opacity:1" offset="1"/>
  </linearGradient>
  <linearGradient id="a" y1="543.8" y2="503.8" x2="0" gradientUnits="userSpaceOnUse" gradientTransform="translate(-384.5705,504.5622)">
   <stop stop-color="#2f74c8"/>
   <stop offset="1" stop-color="#4699d7"/>
  </linearGradient>
  <linearGradient id="b" y1="15.968" x1="18.437" y2="33.629" x2="36.098" gradientUnits="userSpaceOnUse" gradientTransform="translate(-5.0357628e-4,1004.3622)">
   <stop stop-color="#292c2f" style="stop-color:#000000;stop-opacity:1"/>
   <stop offset="1" stop-opacity="0"/>
  </linearGradient>
  <linearGradient xlink:href="#linearGradient4146" id="linearGradient4152" x1="21.051" y1="1016.939" x2="28.564" y2="1040.107" gradientUnits="userSpaceOnUse"/>
 </defs>
 <g transform="translate(0,-1004.3622)">
  <rect style="fill:url(#a)" height="40" rx="0" y="1008.36" x="4" width="40"/>
  <rect style="fill:#2a6bae" height="1" y="1047.36" x="4" width="40"/>
  <path d="m 26.049496,1017.1672 -0.334,3.02 -1.84,2.451 -0.002,2.768 -2.908,-0.646 -1.428,0.209 -0.543,1.412 4.471,4.422 0.34,2.777 0.064,-0.871 -0.002,1.879 -1.98,2.758 -4.713,-1.422 -4.242,-3.03 -0.887,2.088 13.379,13.379 18.576,0 0,-13.244 z" style="opacity:0.2;fill:url(#b);stroke-linejoin:round"/>
  <path d="m 23.999496,1016.3622 c -1.657,0 -3,1.343 -3,3 10e-4,1.271 0.802,2.403 2,2.826 l 0,2.174 -4,0 0,2 4,0 0,8 c 0,1 -1.377,1.592 -2.036,1.506 -2.952,-0.387 -5.349,-1.023 -6.727,-2.301 l 2.023,0.102 -3.449,-3.215 c -0.651,1.473 -0.727,2.936 -0.811,4.51 l 1.068,-1.053 c 0.513,2.117 7.522,3.451 8.512,4.322 l 2.42,2.129 2.418,-2.127 c 0.993,-0.873 8,-2.211 8.506,-4.33 l 1.076,1.059 c 0,-1.602 -0.349,-3 -0.811,-4.51 l -1.725,1.607 -1.465,1.607 1.767,-0.102 c -1.375,1.273 -3.761,1.912 -6.702,2.301 -0.668,0.088 -2.065,-0.506 -2.065,-1.506 l 0,-8 4,0 0,-2 -4,0 0,-2.176 c 1.197,-0.423 1.998,-1.554 2,-2.824 0,-1.657 -1.343,-3 -3,-3 m 0,2 c 0.552,0 1,0.448 1,1 0,0.552 -0.448,1 -1,1 -0.552,0 -1,-0.448 -1,-1 0,-0.552 0.448,-1 1,-1" style="fill:url(#linearGradient4152);stroke-linejoin:round;fill-opacity:1"/>
 </g>
</svg>
