<svg width="48" xmlns="http://www.w3.org/2000/svg" height="48" xmlns:xlink="http://www.w3.org/1999/xlink">
 <defs>
  <linearGradient id="a" y1="543.8" y2="503.8" x2="0" gradientUnits="userSpaceOnUse">
   <stop stop-color="#a1adb3"/>
   <stop offset="1" stop-color="#bfc7cb"/>
  </linearGradient>
  <linearGradient xlink:href="#a" id="b" y1="537.8" y2="509.8" x2="0" gradientUnits="userSpaceOnUse" gradientTransform="translate(0-1047.6)"/>
  <linearGradient id="c" y1="31" y2="17" x2="0" gradientUnits="userSpaceOnUse" gradientTransform="matrix(1 0 0-1 384.57 547.8)">
   <stop stop-color="#1d1e1e"/>
   <stop offset="1" stop-color="#44484c"/>
  </linearGradient>
 </defs>
 <g transform="translate(-384.57-499.8)">
  <ellipse fill="url(#a)" cx="408.57" cy="523.8" rx="20" ry="20"/>
  <ellipse fill="url(#b)" cx="408.57" cy="-523.8" rx="14" ry="14" transform="scale(1-1)"/>
  <path fill="url(#c)" d="m408.57143 530.798a1 1 0 0 1 -1 -1 1 1 0 0 1 1 -1 1 1 0 0 1 1 1 1 1 0 0 1 -1 1m-4.22852-1.75781a1 1 0 0 1 -.7207 -.29297 1 1 0 0 1 0 -1.41406 1 1 0 0 1 1.41406 0 1 1 0 0 1 0 1.41406 1 1 0 0 1 -.69336 .29297m8.45704 0a1 1 0 0 1 -.69336 -.29297 1 1 0 0 1 0 -1.41406 1 1 0 0 1 1.41406 0 1 1 0 0 1 0 1.41406 1 1 0 0 1 -.7207 .29297m-4.22852-3.24219a2 2 0 0 1 -2 -2 2 2 0 0 1 2 -2 2 2 0 0 1 2 2 2 2 0 0 1 -2 2m-6-1a1 1 0 0 1 -1 -1 1 1 0 0 1 1 -1 1 1 0 0 1 1 1 1 1 0 0 1 -1 1m12 0a1 1 0 0 1 -1 -1 1 1 0 0 1 1 -1 1 1 0 0 1 1 1 1 1 0 0 1 -1 1m-10.25781-4.24219a1 1 0 0 1 -.69141 -.29297 1 1 0 0 1 0 -1.41406 1 1 0 0 1 1.41406 0 1 1 0 0 1 0 1.41406 1 1 0 0 1 -.72265 .29297m8.51562 0a1 1 0 0 1 -.72265 -.29297 1 1 0 0 1 0 -1.41406 1 1 0 0 1 1.41406 0 1 1 0 0 1 0 1.41406 1 1 0 0 1 -.69141 .29297m-4.25781-1.75781a1 1 0 0 1 -1 -1 1 1 0 0 1 1 -1 1 1 0 0 1 1 1 1 1 0 0 1 -1 1"/>
  <path fill="#737b81" d="M43.978516 23.417969A19.999985 20 0 0 1 24 43 19.999985 20 0 0 1 4.02148 23.582031 19.999985 20 0 0 0 4 24 19.999985 20 0 0 0 24 44 19.999985 20 0 0 0 44 24 19.999985 20 0 0 0 43.978516 23.417969" transform="translate(384.57 499.8)"/>
 </g>
</svg>
