<svg width="48" xmlns="http://www.w3.org/2000/svg" height="48" xmlns:xlink="http://www.w3.org/1999/xlink">
 <defs>
  <linearGradient id="a" y1="543.8" y2="512.8" x2="0" gradientUnits="userSpaceOnUse">
   <stop stop-color="#cea476"/>
   <stop offset="1" stop-color="#dab58b"/>
  </linearGradient>
  <linearGradient id="b" y1="512.8" y2="503.8" x2="0" gradientUnits="userSpaceOnUse" gradientTransform="translate(0-.001)">
   <stop stop-color="#ebc69a"/>
   <stop offset="1" stop-color="#f4e0c8" stop-opacity="0"/>
  </linearGradient>
  <linearGradient xlink:href="#b" id="c" y1="512.8" y2="503.8" gradientUnits="userSpaceOnUse" x2="0" gradientTransform="matrix(1 0 0 .55556 0-797.69)"/>
  <linearGradient xlink:href="#a" id="d" y1="512.8" y2="503.8" x2="0" gradientUnits="userSpaceOnUse"/>
  <linearGradient id="e" y1="516.8" x1="399.57" y2="534.8" x2="417.57" gradientUnits="userSpaceOnUse">
   <stop stop-color="#292c2f"/>
   <stop offset="1" stop-opacity="0"/>
  </linearGradient>
 </defs>
 <g transform="translate(-384.57-499.8)">
  <rect width="40" x="388.57" y="512.8" stroke-opacity=".55" fill="url(#a)" height="31" stroke-width="2.8"/>
  <path fill="url(#d)" fill-rule="evenodd" d="m388.57 512.8l6-9h29l5 9z"/>
  <g stroke-opacity=".55" stroke-width="2.8">
   <path fill="#f4e0c8" d="m405.57 503.8v13.458l1-.336 1 .336 1-.336 1 .336 1-.336 1 .336v-13.458z"/>
   <rect width="6" x="405.57" y="503.8" fill="url(#b)" height="9"/>
   <rect width="6" x="405.57" y="-517.8" fill="url(#c)" height="5" transform="scale(1-1)"/>
   <path fill="#5c4c3e" d="m418.57 514.8v8h8v-8zm1 1h6v6h-6zm1 1v1h1v-1zm2 0v2h2v-2zm-2 2v2h1v-2zm2 1v1h2v-1z"/>
  </g>
  <path opacity=".2" fill="url(#e)" fill-rule="evenodd" d="m404.57 521.8l10 9.62 5-.62v-4l9 9v8h-26l-6-6z"/>
  <rect width="40" x="388.57" y="542.8" stroke-opacity=".55" fill="#9f8569" height="1" stroke-width="2.8"/>
  <path fill="#5c4c3e" d="m402.59 521.8l-6.02 16h1.947l1.924-5.063h6.414l1.77 5.063h1.945l-5.684-16zm1.172 1.842l2.455 7.627h-5.176zm12.639 2.061c-1.679 0-3.247.41-4.152.885l.508 1.381c.972-.453 2.384-.777 3.688-.777 1.634 0 2.342.733 2.342 2.135v1.316l-1.193.129c-3.048.431-6.05.84-6.05 3.881 0 2.156 1.656 3.148 3.6 3.148 1.237 0 2.651-.388 3.689-1.531l.264 1.273h1.48v-8.496c0-2.588-1.833-3.344-4.174-3.344m2.385 6.168v2.846c-.773 1.035-2.34 1.703-3.467 1.703-1.126 0-1.967-.538-1.967-1.832 0-1.617.995-2.135 4.352-2.566.022 0 1.082-.15 1.082-.15"/>
 </g>
</svg>
