<?xml version="1.0" encoding="UTF-8"?>
<svg width="48" height="48" version="1.1" viewBox="0 0 12.7 12.7" xmlns="http://www.w3.org/2000/svg" xmlns:cc="http://creativecommons.org/ns#" xmlns:dc="http://purl.org/dc/elements/1.1/" xmlns:rdf="http://www.w3.org/1999/02/22-rdf-syntax-ns#" xmlns:xlink="http://www.w3.org/1999/xlink">
 <defs>
  <linearGradient id="linearGradient1444">
   <stop stop-color="#2980b9" offset="0"/>
   <stop stop-color="#3daee9" offset="1"/>
  </linearGradient>
  <linearGradient id="linearGradient967" x1="24" x2="24" y1="294" y2="257" gradientTransform="matrix(3.7795277,0,0,3.6895388,0,-918.42522)" gradientUnits="userSpaceOnUse">
   <stop stop-color="#27ae60" offset="0"/>
   <stop stop-color="#2ecc71" offset="1"/>
  </linearGradient>
  <linearGradient id="linearGradient1446" x1="90.708664" x2="90.708664" y1="193.88515" y2="90.708656" gradientUnits="userSpaceOnUse" xlink:href="#linearGradient1444"/>
  <linearGradient id="linearGradient1482" x1="24" x2="24" y1="51.298779" y2="23.999998" gradientUnits="userSpaceOnUse">
   <stop stop-color="#1d99f3" offset="0"/>
   <stop stop-color="#3daee9" offset="1"/>
  </linearGradient>
  <linearGradient id="linearGradient1500" x1="24" x2="24" y1="51.298779" y2="23.999998" gradientTransform="scale(3.7795278)" gradientUnits="userSpaceOnUse" xlink:href="#linearGradient1444"/>
 </defs>
 <metadata>
  <rdf:RDF>
   <cc:Work rdf:about="">
    <dc:format>image/svg+xml</dc:format>
    <dc:type rdf:resource="http://purl.org/dc/dcmitype/StillImage"/>
    <dc:title/>
   </cc:Work>
  </rdf:RDF>
 </metadata>
 <g transform="matrix(.26458217 0 0 .26458332 5.1009547e-5 9.3397921)">
  <g transform="translate(0,-35.300002)">
   <rect x="4" y="3.9999998" width="40" height="40" rx="6" ry="6" fill="#34495e" style="paint-order:stroke fill markers"/>
   <path transform="scale(.26458333)" d="m37.794922 15.117188c-12.56315 0-22.677734 10.114584-22.677734 22.677734v102.04688c0 12.56315 10.114584 22.67773 22.677734 22.67773h105.82617c12.56315 0 22.67774-10.11458 22.67774-22.67773v-102.04688c0-12.56315-10.11459-22.677734-22.67774-22.677734z" fill="#34495e" style="paint-order:markers fill stroke"/>
   <path transform="scale(.26458333)" d="m37.794922 15.117188c-12.56315 0-22.677734 10.114584-22.677734 22.677734v102.04688c0 12.56315 10.114584 22.67773 22.677734 22.67773h105.82617c12.56315 0 22.67774-10.11458 22.67774-22.67773v-102.04688c0-12.56315-10.11459-22.677734-22.67774-22.677734z" fill="url(#linearGradient967)" style="paint-order:markers fill stroke"/>
   <path transform="scale(.26458333)" d="m25.1875 18.925781c-4.310722 2.878893-7.568266 7.196833-9.099609 12.279297l131.04492 131.04687c5.47766-0.84457 10.29115-3.64079 13.72657-7.65429l-135.67188-135.67188z" fill="#eff0f1" style="paint-order:normal"/>
   <path transform="scale(.26458333)" d="m156.23047 18.925781-72.431642 72.431641 10.689453 10.689458 70.841799-70.841802c-1.53135-5.082464-4.78889-9.400404-9.09961-12.279297z" fill="#eff0f1" style="paint-order:normal"/>
   <path transform="scale(.26458333)" d="m159.20312 21.298828-71.166011 71.166016a3.7799053 3.7799053 0 0 0 0 5.345703l20.824221 20.824223a3.7799053 3.7799053 0 1 0 5.34375-5.34571l-18.152346-18.150388 67.738286-67.738281c-1.17838-2.290585-2.73426-4.350825-4.5879-6.101563z" color="#000000" color-rendering="auto" dominant-baseline="auto" fill="url(#linearGradient1500)" image-rendering="auto" shape-rendering="auto" solid-color="#000000" style="font-feature-settings:normal;font-variant-alternates:normal;font-variant-caps:normal;font-variant-ligatures:normal;font-variant-numeric:normal;font-variant-position:normal;isolation:auto;mix-blend-mode:normal;shape-padding:0;text-decoration-color:#000000;text-decoration-line:none;text-decoration-style:solid;text-indent:0;text-orientation:mixed;text-transform:none;white-space:normal"/>
   <path transform="scale(.26458333)" d="m15.117188 41.574219v22.677734h151.18164v-22.677734z" fill="#f39c1f" style="paint-order:normal"/>
   <path transform="scale(.26458333)" d="m15.117188 45.353516v15.11914h151.18164v-15.11914z" fill="#fdbc4b" style="paint-order:normal"/>
   <path transform="scale(.26458333)" d="m15.117188 75.263672v15.421875c0.457234 0.117255 0.909409 0.243022 1.351562 0.384765 3.256341 1.043911 6.213298 2.771902 8.419922 4.980469 3.586059 3.589225 6.028682 9.457889 8.685547 16.242189 2.68901 6.86639 5.932902 15.1334 13.208984 21.34375 7.261369 6.19779 16.109584 8.17458 23.822266 9.22266 7.63728 1.03782 14.486184 1.35088 20.089843 3.07812 5.265666 1.62306 10.202878 4.63554 14.169918 8.58594 2.35852 2.3486 4.39061 5.06096 6.05665 7.99609h16.66796c-2.65176-6.96408-6.7187-13.3915-12.05664-18.70703-5.66672-5.64294-12.65798-9.94256-20.384762-12.32422-8.151551-2.51258-15.882361-2.70904-22.507813-3.60937-6.550046-0.89008-12.35426-2.59544-16.041016-5.74219-3.708873-3.16563-6.369858-8.77406-8.947265-15.35547-2.609556-6.6635-5.446714-14.786578-12.06836-21.414062-4.141546-4.145202-9.205408-6.993458-14.501953-8.691407-1.978971-0.63441-3.974214-1.085855-5.964843-1.412109z" color="#000000" color-rendering="auto" dominant-baseline="auto" fill="#fdbc4b" image-rendering="auto" shape-rendering="auto" solid-color="#000000" style="font-feature-settings:normal;font-variant-alternates:normal;font-variant-caps:normal;font-variant-ligatures:normal;font-variant-numeric:normal;font-variant-position:normal;isolation:auto;mix-blend-mode:normal;paint-order:fill markers stroke;shape-padding:0;text-decoration-color:#000000;text-decoration-line:none;text-decoration-style:solid;text-indent:0;text-orientation:mixed;text-transform:none;white-space:normal"/>
   <path d="m28.118192 29.289755s0.316471 1.731132 0.828373 3.657143l5.86114 5.861139c0.657643-0.175112 1.279872-0.516673 1.795756-1.032494 0.515811-0.515739 0.85779-1.138253 1.033013-1.795756l-5.861142-5.861658c-1.7e-4 -4.5e-5 -2.65e-4 4.5e-5 -5.3e-4 0-1.925875-0.511718-3.656623-0.828374-3.656623-0.828374z" fill="#eff0f1" style="paint-order:normal"/>
  </g>
  <g transform="translate(0,-35.300002)">
   <path d="m29.348649 30.520222s1.26667 6.923013 2.828537 8.48507c1.561998 1.562211 4.094675 1.562374 5.656875 3.65e-4 1.562355-1.562142 1.562355-4.095098 0-5.657239-1.5622-1.562009-8.485412-2.828196-8.485412-2.828196z" fill="url(#linearGradient1482)" style="paint-order:normal"/>
   <path transform="scale(.26458333)" d="m15.117188 82.929688v56.912112c0 12.56315 10.114584 22.67773 22.677734 22.67773h81.611328c-2.25047-4.95126-5.35423-9.51492-9.20703-13.35156-4.81688-4.79667-10.781121-8.45272-17.277345-10.45508-6.877604-2.11991-14.167464-2.37467-21.298828-3.34375-7.131364-0.96907-14.457579-2.81015-19.931641-7.48242-5.492478-4.68799-8.444915-11.62571-11.078125-18.34961s-5.273101-13.719773-10.376953-18.828126c-3.174085-3.176884-7.184494-5.46501-11.460937-6.835937-1.200788-0.384944-2.422824-0.697027-3.658203-0.943359z" fill="url(#linearGradient1446)" style="paint-order:stroke fill markers"/>
   <circle transform="rotate(-45)" cx="-.82842755" cy="50.333687" r="2.9937067" fill="#eff0f1" style="paint-order:normal"/>
   <path transform="scale(.26458333)" d="m144.76367 15.148438c0.36767 0.01887 0.73261 0.04479 1.09571 0.08008-0.36298-0.03524-0.72781-0.06201-1.09571-0.08008zm1.44531 0.11914c0.31711 0.03572 0.63233 0.07462 0.94532 0.123047-0.31281-0.04854-0.62834-0.08734-0.94532-0.123047zm1.28907 0.185547c0.25193 0.04293 0.50492 0.08563 0.7539 0.136719-0.24916-0.0513-0.50178-0.09361-0.7539-0.136719zm7.93945 2.964844c0.39646 0.241519 0.78248 0.497132 1.16211 0.761719-0.37978-0.264665-0.76571-0.520233-1.16211-0.761719zm1.48633 0.992187c0.38775 0.280507 0.76986 0.568931 1.13867 0.873047-0.36896-0.304246-0.75054-0.592301-1.13867-0.873047zm5.33008 5.431641c0.2132 0.306831 0.41781 0.620202 0.61718 0.9375-0.1983-0.317899-0.40381-0.63049-0.61718-0.9375zm0.70898 1.080078c0.21182 0.342761 0.41501 0.691809 0.60742 1.046875-0.19264-0.355503-0.39665-0.703267-0.60742-1.046875zm0.60742 1.046875c0.23119 0.426623 0.44439 0.863912 0.64844 1.306641-0.204-0.442567-0.41735-0.880188-0.64844-1.306641zm0.80078 1.646484c0.198 0.448992 0.38742 0.90327 0.55664 1.367188-0.16928-0.46408-0.35854-0.918023-0.55664-1.367188zm0.55664 1.367188c0.1697 0.465191 0.31947 0.939113 0.45899 1.417969-0.13955-0.478717-0.28941-0.953101-0.45899-1.417969zm0.55665 1.765625c0.12922 0.471531 0.24842 0.94797 0.34765 1.431641-0.0993-0.483538-0.21833-0.960049-0.34765-1.431641zm0.81445 108.09375c0 0.62928-0.0324 1.25116-0.082 1.86718 0.0497-0.61583 0.082-1.2381 0.082-1.86718zm-0.10352 2.13672c-0.0533 0.5768-0.12924 1.14577-0.22461 1.70898 0.0955-0.56331 0.17118-1.13208 0.22461-1.70898zm-0.28906 2.07421c-0.10268 0.55147-0.22362 1.0964-0.36523 1.63282 0.14164-0.53631 0.26247-1.08146 0.36523-1.63282zm-0.44922 1.93555c-0.15744 0.5643-0.3303 1.12259-0.5293 1.66797 0.19888-0.5452 0.37185-1.10385 0.5293-1.66797zm-0.5293 1.66797c-0.16952 0.46475-0.35805 0.91947-0.55664 1.36914 0.19855-0.45004 0.38702-0.90413 0.55664-1.36914zm-0.70312 1.69336c-0.20569 0.44653-0.42119 0.88811-0.6543 1.31836 0.23304-0.43013 0.44883-0.87185 0.6543-1.31836zm-1.19922 2.26953c-0.37798 0.62335-0.78616 1.22683-1.2207 1.80859 0.43454-0.58176 0.84272-1.18524 1.2207-1.80859zm-1.2207 1.80859c-0.23306 0.31202-0.47611 0.6168-0.72461 0.91602 0.24879-0.29955 0.49129-0.60365 0.72461-0.91602zm-0.93946 1.16407c-0.18171 0.21247-0.36532 0.42339-0.55468 0.6289 0.18947-0.20561 0.37286-0.41633 0.55468-0.6289zm-0.83593 0.92578c-0.1736 0.18171-0.34782 0.36127-0.52735 0.53711 0.17924-0.17556 0.35403-0.3557 0.52735-0.53711zm-0.84961 0.84375c-0.1745 0.16433-0.35158 0.32756-0.53125 0.48633 0.17998-0.15905 0.35645-0.3217 0.53125-0.48633zm-0.89258 0.79687c-0.16852 0.14273-0.339 0.2821-0.51172 0.41992 0.17267-0.13777 0.34325-0.27724 0.51172-0.41992zm-0.91992 0.74024c-0.17112 0.13024-0.34462 0.25738-0.51953 0.38281 0.17498-0.12547 0.34835-0.25253 0.51953-0.38281zm-0.94922 0.6875c-0.19553 0.13343-0.39581 0.26127-0.5957 0.38867 0.19998-0.12744 0.40009-0.2552 0.5957-0.38867zm-0.95899 0.62109c-0.33151 0.2025-0.66722 0.39833-1.00976 0.58399 0.34256-0.18564 0.67824-0.38151 1.00976-0.58399zm-1.01171 0.58399c-0.64227 0.34797-1.30424 0.66527-1.98243 0.95117 0.67819-0.2859 1.34016-0.6032 1.98243-0.95117zm-1.98243 0.95117c-1.35746 0.57227-2.78274 1.01709-4.26172 1.31836 1.47889-0.3011 2.90428-0.74612 4.26172-1.31836z" fill="#34495e" fill-opacity=".12831858" style="paint-order:stroke fill markers"/>
   <path transform="scale(.26458333)" d="m37.794922 15.117188c-12.56315 0-22.677734 10.114584-22.677734 22.677734v51.023437h151.18164v-51.023437c0-12.56315-10.11459-22.677734-22.67774-22.677734h-105.82617z" fill="#fff" fill-opacity=".12831858" style="paint-order:stroke fill markers"/>
   <path transform="scale(.26458333)" d="m90.708984 15.117188v147.40234h52.912106c12.56315 0 22.67774-10.11458 22.67774-22.67773v-102.04688c0-12.56315-10.11459-22.677734-22.67774-22.677734h-52.912106z" fill="#34495e" fill-opacity=".07522122" style="paint-order:stroke fill markers"/>
  </g>
 </g>
</svg>
