<svg width="48" xmlns="http://www.w3.org/2000/svg" height="48" xmlns:xlink="http://www.w3.org/1999/xlink">
 <defs>
  <linearGradient id="a" y1="44" y2="4" x2="0" gradientUnits="userSpaceOnUse">
   <stop stop-color="#7cbaf8"/>
   <stop offset="1" stop-color="#f4fcff"/>
  </linearGradient>
  <linearGradient id="b" y1="39" y2="9" gradientUnits="userSpaceOnUse" x2="0" gradientTransform="matrix(1.02857 0 0 1.2-5.314-2013.52)">
   <stop stop-color="#197cf1"/>
   <stop offset="1" stop-color="#20bcfa"/>
  </linearGradient>
  <linearGradient id="c" y1="13.01" x1="25.04" y2="30.26" x2="42.99" gradientUnits="userSpaceOnUse">
   <stop stop-color="#292c2f"/>
   <stop offset="1" stop-color="#292c2f" stop-opacity="0"/>
  </linearGradient>
  <linearGradient xlink:href="#c" id="d" y1="18.26" x1="14.59" y2="40.44" x2="36.06" gradientUnits="userSpaceOnUse"/>
 </defs>
 <g stroke-width="2">
  <g fill-rule="evenodd" color="#000000">
   <path fill="url(#a)" d="M44 24A20 20 0 0 1 24 44 20 20 0 0 1 4 24 20 20 0 0 1 24 4 20 20 0 0 1 44 24"/>
   <path fill="url(#b)" d="m24 6c-9.941 0-18 8.06-18 18 0 9.941 8.06 18 18 18 9.941 0 18-8.06 18-18 0-9.941-8.06-18-18-18m1 7h2v6.08a7 6 0 0 1 4 -1.080078 7 6 0 0 1 7 6 7 6 0 0 1 -7 6 7 6 0 0 1 -4 -1.085938v2.086h-2zm-4 4h2v18h-2v-6.08a7 6 0 0 1 -4 1.080078 7 6 0 0 1 -7 -6 7 6 0 0 1 7 -6 7 6 0 0 1 4 1.085938zm-4 3a5 4 0 0 0 -5 4 5 4 0 0 0 5 4 5 4 0 0 0 4 -1.609375v-4.783a5 4 0 0 0 -4 -1.607422m14 0a5 4 0 0 0 -4 1.609375v4.783a5 4 0 0 0 4 1.607422 5 4 0 0 0 5 -4 5 4 0 0 0 -5 -4"/>
  </g>
  <path opacity=".2" fill="url(#d)" d="m23.01 17.06l-.014.023v17.916h-2v-6.08a7 6 0 0 1 -4 1.080078 7 6 0 0 1 -5.4375 -2.228516l-.021.021 15.906 15.904a20 20 0 0 0 13.339843 -8.863282l-5.869-5.869a7 6 0 0 1 -3.917969 1.035156 7 6 0 0 1 -4 -1.085938v2.086h-2v-11.953z"/>
  <path opacity=".2" fill="url(#c)" d="m27 13.01v6.066a7 6 0 0 1 4 -1.080078 7 6 0 0 1 1.060547 .074219zm8.773 6.563l-.023.023a7 6 0 0 1 .328125 .28125zm.751953.751953a7 6 0 0 1 1.474609 3.671875 7 6 0 0 1 -7 6 7 6 0 0 1 -4 -1.085938v2.086h-1.955l9.801 9.801a20 20 0 0 0 8.830078 -13.322265z"/>
 </g>
</svg>
