<svg width="48" xmlns="http://www.w3.org/2000/svg" height="48">
 <defs>
  <linearGradient id="a" y1="1048.9" y2="1007.82" gradientUnits="userSpaceOnUse" x2="0">
   <stop stop-color="#3889e9"/>
   <stop offset="1" stop-color="#5ea5fb"/>
  </linearGradient>
  <linearGradient id="b" y1="513.38" x1="396.57" y2="531.38" gradientUnits="userSpaceOnUse" x2="412.57" gradientTransform="translate(-384.57 504.98)">
   <stop stop-color="#292c2f"/>
   <stop offset="1" stop-opacity="0"/>
  </linearGradient>
  <linearGradient id="c" y1="534.8" y2="510.8" gradientUnits="userSpaceOnUse" x2="0" gradientTransform="translate(-384.57-499.8)">
   <stop stop-color="#8cbdf8"/>
   <stop offset="1" stop-color="#d5e8ff"/>
  </linearGradient>
 </defs>
 <g fill-rule="evenodd" transform="translate(0-1004.36)">
  <path fill="#ffffff" d="m5 1009.36h38v38h-38z"/>
  <path fill="url(#a)" d="m4 1008.36h40v40h-40z"/>
  <path opacity=".2" fill="#ffffff" color="#000000" stroke-width="2" d="m5 1009.36v38h38v-38zm1 1h36v36h-36z"/>
  <path opacity=".2" fill="url(#b)" d="m10 1036.36l13 12h21v-25l-5-5v18h-4l-3 3-4-3z"/>
  <path fill="url(#c)" color="#000000" stroke-width="2" d="m19.5 11c-1.765 0-3.229 1.301-3.469 3h-6.03v8h-2v1h5v-1h-2v-7h5.03c.24 1.699 1.703 3 3.469 3 1.765 0 3.229-1.301 3.469-3h4.03v2h9v-2h2v16h-3.03c-.24-1.699-1.703-3-3.469-3-1.765 0-3.229 1.301-3.469 3h-3.125c-.204-.586-.75-1-1.406-1-.828 0-1.5.672-1.5 1.5 0 .828.672 1.5 1.5 1.5.656 0 1.202-.414 1.406-1h3.125c.24 1.699 1.703 3 3.469 3 1.765 0 3.229-1.301 3.469-3h4.03v-18h-3v-2h-9v2h-4.03c-.24-1.699-1.703-3-3.469-3m0 1c.503 0 .983.15 1.375.406l-1.375 1.375-1.375-1.375c.392-.256.872-.406 1.375-.406m-2.094 1.125l1.375 1.375-1.375 1.375c-.256-.392-.406-.872-.406-1.375 0-.503.15-.983.406-1.375m4.188 0c.256.392.406.872.406 1.375 0 .503-.15.983-.406 1.375l-1.375-1.375zm-2.094 2.094l1.375 1.375c-.392.256-.872.406-1.375.406-.503 0-.983-.15-1.375-.406zm-10.5 8.781v1h1v7h4.094c.204.586.75 1 1.406 1 .828 0 1.5-.672 1.5-1.5 0-.104-.011-.215-.031-.313l5.313-3.063-.5-.875-5.344 3.094c-.258-.209-.579-.344-.938-.344-.656 0-1.202.414-1.406 1h-3.094v-6h1v-1zm22.5 5c1.381 0 2.5 1.119 2.5 2.5 0 1.381-1.119 2.5-2.5 2.5-1.381 0-2.5-1.119-2.5-2.5 0-1.381 1.119-2.5 2.5-2.5m-16 2c.276 0 .5.224.5.5 0 .276-.224.5-.5.5-.276 0-.5-.224-.5-.5 0-.276.224-.5.5-.5m8 0c.276 0 .5.224.5.5 0 .276-.224.5-.5.5-.276 0-.5-.224-.5-.5 0-.276.224-.5.5-.5" transform="translate(0 1004.36)"/>
 </g>
</svg>
