<svg width="48" xmlns="http://www.w3.org/2000/svg" height="48">
 <defs>
  <linearGradient id="a" y1="538.8" x1="406.57" y2="507.52" gradientUnits="userSpaceOnUse" x2="429.12" gradientTransform="matrix(-1.81818 0 0 1.2469 1167.79-128.03)">
   <stop stop-color="#1d1d5b"/>
   <stop offset="1" stop-color="#1f4778"/>
  </linearGradient>
  <linearGradient id="b" y1="-516.3" x1="433.32" y2="-498.05" gradientUnits="userSpaceOnUse" x2="382.57">
   <stop stop-color="#363d68"/>
   <stop offset="1" stop-color="#5272a2" stop-opacity=".427"/>
  </linearGradient>
  <linearGradient id="c" y1="61.25" y2="49.25" x1="46" gradientUnits="userSpaceOnUse" x2="45.75" gradientTransform="matrix(-1 0 0 1 442.57 482.8)">
   <stop stop-color="#3e5172"/>
   <stop offset="1" stop-color="#6f7da0"/>
  </linearGradient>
  <linearGradient id="d" y1="23.375" x1="52.625" y2="13.25" gradientUnits="userSpaceOnUse" x2="41.38" gradientTransform="matrix(-1 0 0-1 456.57 560.8)">
   <stop/>
   <stop offset="1" stop-color="#655c6f" stop-opacity="0"/>
  </linearGradient>
  <linearGradient id="e" x1="393.57" gradientUnits="userSpaceOnUse" x2="439.57">
   <stop stop-color="#ffffff" stop-opacity=".573"/>
   <stop offset="1" stop-color="#ffffff" stop-opacity="0"/>
  </linearGradient>
  <linearGradient id="f" x1="394.57" gradientUnits="userSpaceOnUse" x2="435.57">
   <stop stop-color="#0b084e"/>
   <stop offset="1" stop-color="#e88f21" stop-opacity="0"/>
  </linearGradient>
  <linearGradient id="g" y1="548.89" x1="393.74" y2="525.05" x2="393.57" gradientUnits="userSpaceOnUse">
   <stop stop-color="#2a3561"/>
   <stop offset="1" stop-color="#192656"/>
  </linearGradient>
 </defs>
 <g transform="translate(-384.57-499.8)">
  <g color="#000000">
   <path fill="url(#g)" d="m400.57 543.8h-12v-12l13-1z"/>
   <path fill="url(#a)" d="m428.57 503.8v40h-28l-12-12v-28z"/>
  </g>
  <g color-rendering="auto" color-interpolation-filters="linearRGB" shape-rendering="auto" image-rendering="auto" text-rendering="auto" color-interpolation="sRGB" color="#4d4d4d">
   <rect x="388.57" y="-510.8" width="40" fill="url(#b)" height="7" transform="scale(1-1)"/>
   <path opacity=".39" fill="#8bddff" d="m408.41058 515.9245a6.221607 6.221607 0 0 0 -6.22161 6.2216 6.221607 6.221607 0 0 0 .0712 .89054 4.444005 4.444005 0 0 0 -.0712 -.002 4.444005 4.444005 0 0 0 -4.444 4.44401 4.444005 4.444005 0 0 0 4.444 4.444h11.554a5.332806 5.332806 0 0 0 5.3328 -5.33281 5.332806 5.332806 0 0 0 -4.50476 -5.26337 6.221607 6.221607 0 0 0 -6.16085 -5.40224m0 .88907a5.332806 5.332806 0 0 1 .53294 .026 5.332806 5.332806 0 0 1 2.47718 .90616 5.332806 5.332806 0 0 1 .002 0 5.332806 5.332806 0 0 1 1.16482 1.08496 5.332806 5.332806 0 0 1 0 .002 5.332806 5.332806 0 0 1 1.07975 2.42858 5.332806 5.332806 0 0 1 .0763 .88528 4.444005 4.444005 0 0 1 .88532 .0885 4.444005 4.444005 0 0 1 .42879 .10937 4.444005 4.444005 0 0 1 .002 0 4.444005 4.444005 0 0 1 .41489 .15275 4.444005 4.444005 0 0 1 .002 0 4.444005 4.444005 0 0 1 .39754 .1927 4.444005 4.444005 0 0 1 .004 .002 4.444005 4.444005 0 0 1 .37496 .23088 4.444005 4.444005 0 0 1 .004 .002 4.444005 4.444005 0 0 1 .35066 .26734 4.444005 4.444005 0 0 1 .002 .002 4.444005 4.444005 0 0 1 .3229 .30031 4.444005 4.444005 0 0 1 .002 .002 4.444005 4.444005 0 0 1 .5503 .69438 4.444005 4.444005 0 0 1 .002 .002 4.444005 4.444005 0 0 1 .21873 .38365 4.444005 4.444005 0 0 1 .002 .002 4.444005 4.444005 0 0 1 .18054 .40274 4.444005 4.444005 0 0 1 .002 .002 4.444005 4.444005 0 0 1 .13887 .42011 4.444005 4.444005 0 0 1 0 .002 4.444005 4.444005 0 0 1 .0972 .43225 4.444005 4.444005 0 0 1 0 .002 4.444005 4.444005 0 0 1 .0538 .43919 4.444005 4.444005 0 0 1 .0101 .31383 4.444005 4.444005 0 0 1 -4.444 4.444h-11.554a3.555204 3.555204 0 0 1 -3.55521 -3.5552 3.555204 3.555204 0 0 1 .0173 -.35413 3.555204 3.555204 0 0 1 3.53785 -3.20107 3.555204 3.555204 0 0 1 .2656 .0122 3.555204 3.555204 0 0 1 0 .002 3.555204 3.555204 0 0 1 1.02768 .23262 5.332806 5.332806 0 0 1 -.3038 -1.019 5.332806 5.332806 0 0 1 -.0659 -.45135 5.332806 5.332806 0 0 1 -.0122 -.10241 5.332806 5.332806 0 0 1 -.0226 -.45139 5.332806 5.332806 0 0 1 .026 -.53293 5.332806 5.332806 0 0 1 5.30676 -4.79987z"/>
  </g>
  <g fill-rule="evenodd">
   <path fill="url(#c)" d="m388.57 531.8l12 12v-12z"/>
   <path opacity=".2" fill="url(#d)" d="m412.57 543.8l-12-12v12z"/>
  </g>
  <g color-rendering="auto" color-interpolation-filters="linearRGB" shape-rendering="auto" image-rendering="auto" text-rendering="auto" color-interpolation="sRGB" color="#4d4d4d">
   <rect opacity=".256" x="388.57" y="-504.8" width="40" fill="url(#e)" height="1" transform="scale(1-1)"/>
   <rect opacity=".144" x="388.57" y="-511.8" width="40" fill="url(#f)" height="1" transform="scale(1-1)"/>
  </g>
 </g>
</svg>
