<?xml version="1.0" encoding="UTF-8" standalone="no"?>
<svg xmlns="http://www.w3.org/2000/svg" xmlns:xlink="http://www.w3.org/1999/xlink" width="48" height="48" version="1.1">
 <defs>
  <linearGradient id="linearGradient4223">
   <stop style="stop-color:#000000;stop-opacity:1;" offset="0"/>
   <stop style="stop-color:#000000;stop-opacity:0;" offset="1"/>
  </linearGradient>
  <linearGradient id="linearGradient4175">
   <stop style="stop-color:#4fa538;stop-opacity:1;" offset="0"/>
   <stop style="stop-color:#c9d05c;stop-opacity:1" offset="1"/>
  </linearGradient>
  <linearGradient id="linearGradient4167">
   <stop offset="0" style="stop-color:#fff8ac;stop-opacity:1"/>
   <stop offset="1" style="stop-color:#f6bf3a;stop-opacity:1"/>
  </linearGradient>
  <linearGradient xlink:href="#linearGradient4175" id="linearGradient4181" x1="421.571" y1="543.798" x2="406.571" y2="497.798" gradientUnits="userSpaceOnUse"/>
  <linearGradient xlink:href="#linearGradient4167" id="linearGradient4202" x1="416.571" y1="507.798" x2="421.566" y2="518.592" gradientUnits="userSpaceOnUse"/>
  <linearGradient xlink:href="#linearGradient4223" id="linearGradient4229" x1="9" y1="14" x2="30" y2="35" gradientUnits="userSpaceOnUse"/>
 </defs>
 <g transform="translate(-384.57143,-499.798)">
  <rect style="fill:url(#linearGradient4181);fill-opacity:1" width="40" height="40" x="388.57" y="503.8" ry="3" rx="3"/>
  <path style="opacity:0.15;fill:#000000;fill-opacity:1" d="m 388.57143,539.798 0,1 c 0,1.662 1.338,3 3,3 l 34,0 c 1.662,0 3,-1.338 3,-3 l 0,-1 c 0,1.662 -1.338,3 -3,3 l -34,0 c -1.662,0 -3,-1.338 -3,-3 z"/>
  <path style="opacity:0.1;fill:#000000;fill-opacity:1" d="m 419.57143,517.22657 3.708,2.57143 -0.981,-4.71429 3.273,-3.28571 -4.314,0 -1.686,-4 -1.686,4 -4.314,0 3.273,3.28571 -0.98101,4.71429 z"/>
  <path d="m 419.57143,516.22657 3.708,2.57143 -0.981,-4.71429 3.273,-3.28571 -4.314,0 -1.686,-4 -1.686,4 -4.314,0 3.273,3.28571 -0.98101,4.71429 z" style="opacity:1;fill:url(#linearGradient4202);fill-opacity:1"/>
  <path style="opacity:0.25;fill:url(#linearGradient4229);fill-opacity:1;stroke:none;stroke-width:2;stroke-linecap:round;stroke-linejoin:round;stroke-miterlimit:4;stroke-dasharray:none;stroke-opacity:1" d="M 18.404297 13.851562 L 9.9863281 16.955078 L 16.902344 23.871094 L 10.037109 27.03125 L 14.814453 31.808594 L 10.691406 35.933594 L 18.757812 44 L 41 44 C 42.662 44 44 42.662 44 41 L 44 33.902344 L 28.037109 17.939453 L 18.404297 13.851562 z" transform="translate(384.57143,499.798)"/>
  <g transform="translate(382.57143,499.798)">
   <circle r="3" cy="34" cx="15" style="opacity:1;fill:#f9f9f9;fill-opacity:1;stroke:none"/>
   <path d="m 12,22 0,5 2.5,0 c 4.142,0 7.5,3.358 7.5,7.5 l 0,2.5 5,0 0,-2.5 C 27,27.596 21.404,22 14.5,22" style="opacity:1;fill:#f9f9f9;fill-opacity:1;stroke:none"/>
   <path d="m 12,12 0,5 3,0 a 17,17 0 0 1 17,17 l 0,3 5,0 0,-3 A 22,22 0 0 0 15,12 l -3,0 z" style="opacity:1;fill:#f9f9f9;fill-opacity:1;stroke:none"/>
  </g>
 </g>
</svg>
