<svg width="48" xmlns="http://www.w3.org/2000/svg" height="48" viewBox="0 0 48 48">
 <defs>
  <linearGradient id="a" y1="61.2" x1="-162.29" y2="505.06" gradientUnits="userSpaceOnUse" x2="737.63" gradientTransform="matrix(.06535.02041-.01819.05824 8.418-1.328)">
   <stop stop-color="#fafafa"/>
   <stop offset="1" stop-color="#939393"/>
  </linearGradient>
  <linearGradient id="b" y1="41" x1="41" y2="18.25" x2="21.13" gradientUnits="userSpaceOnUse">
   <stop stop-color="#502ae3"/>
   <stop offset="1" stop-color="#4db4f6"/>
  </linearGradient>
 </defs>
 <g fill-rule="evenodd">
  <path color-interpolation-filters="linearRGB" color="#000000" image-rendering="auto" color-rendering="auto" d="M28.888715 5.374114A21.399735 17.01024 17.343928 0 0 3.391438 15.231519 21.399735 17.01024 17.343928 0 0 18.747047 37.847552 21.399735 17.01024 17.343928 0 0 44.24432 27.990144 21.399735 17.01024 17.343928 0 0 28.888715 5.374114m1.025951 6.582719A15.960636 12.680357 17.343928 0 1 41.36979 28.820272 15.960636 12.680357 17.343928 0 1 22.354254 36.16513 15.960636 12.680357 17.343928 0 1 10.900331 19.304459 15.960636 12.680357 17.343928 0 1 29.914666 11.956833" color-interpolation="sRGB" text-rendering="auto" fill="url(#a)" shape-rendering="auto"/>
  <path fill="url(#b)" d="m41.546 41.02l-6.863.004-4.677-6.913c0 0-.753-1.295-1.216-1.671-.386-.313-.551-.425-.933-.425h-.868l.002 9-5.958.003v-23h12.972c0 0 5.257.97 5.364 6.177.119 5.805-5.081 7.513-5.081 7.513.713.292 6.449 7.967 7.259 9.308m-10.285-18.01l-4.212-.003-.002 3.911 4.214-.001c0 0 1.952-.006 1.952-1.989 0-2.023-1.952-1.917-1.952-1.917"/>
  <g fill="#ffffff" fill-opacity=".196">
   <path d="m21.03 18.02v1h12.973c0 0 5.278.983 5.363 5.178-.106-5.207-5.363-6.178-5.363-6.178z"/>
   <path color-interpolation-filters="linearRGB" color="#000000" image-rendering="auto" color-rendering="auto" d="m33.21 24.924c0 1.983-1.953 1.99-1.953 1.99h-4.213v1h4.213c0 0 1.953.086 1.953-2.99" color-interpolation="sRGB" text-rendering="auto" shape-rendering="auto"/>
  </g>
  <path color-interpolation-filters="linearRGB" fill-opacity=".103" color="#000000" image-rendering="auto" color-rendering="auto" d="m16.517578 4.599609a21.399735 17.01024 17.343928 0 0 -.597656 .142578c.201-.045.394-.103.598-.143M26.801 4.814C27.496 4.972 28.19 5.158 28.889 5.375A21.399735 17.01024 17.343928 0 0 26.800781 4.814453M28.889 5.375c.59.184 1.161.396 1.727.615A21.399735 17.01024 17.343928 0 0 28.888672 5.375M14.634766 5.058594a21.399735 17.01024 17.343928 0 0 -.751954 .251953c.251-.083.496-.177.752-.252m-1.808594.619141a21.399735 17.01024 17.343928 0 0 -.699219 .308594c.233-.103.46-.214.699-.309m18.877.771c.281.124.564.245.838.377A21.399735 17.01024 17.343928 0 0 31.703125 6.449219m-20.595703.00781a21.399735 17.01024 17.343928 0 0 -.609375 .34375c.203-.115.4-.236.609-.344m-1.597656.92969A21.399735 17.01024 17.343928 0 0 8.984375 7.757813C9.159 7.634 9.329 7.505 9.51 7.387m24.13.014c.252.136.505.271.75.414a21.399735 17.01024 17.343928 0 0 -.75 -.414063M8.05273 8.457031A21.399735 17.01024 17.343928 0 0 7.595703 8.859375C7.748 8.725 7.895 8.586 8.05 8.457M35.5 8.51c.206.135.415.266.615.406A21.399735 17.01024 17.343928 0 0 35.5 8.509766m1.686 1.211c.19.149.384.295.568.449A21.399735 17.01024 17.343928 0 0 37.18555 9.720703M25.21 10.178C18.534 10.02 12.596 13.873 10.9 19.305A15.960636 12.680357 17.343928 0 1 29.914062 11.957031 15.960636 12.680357 17.343928 0 1 41.8125 25.25586C41.589 19.376 36.887 13.13 29.914 10.957 28.336 10.464 26.756 10.214 25.21 10.178m13.463.82c.194.181.394.357.58.543a21.399735 17.01024 17.343928 0 0 -.580078 -.542969m1.371 1.391c.18.2.368.395.539.6A21.399735 17.01024 17.343928 0 0 40.04883 12.388672M4.574219 12.529297a21.399735 17.01024 17.343928 0 0 -.037109 .06445c.012-.022.025-.043.037-.064m36.697 1.344c.163.217.336.429.488.65A21.399735 17.01024 17.343928 0 0 41.27148 13.873047M3.847656 14.00195a21.399735 17.01024 17.343928 0 0 -.089844 .214844c.029-.072.06-.143.09-.215m38.498 1.453c.134.22.28.436.404.66a21.399735 17.01024 17.343928 0 0 -.404297 -.660156m1.014 1.889c.061.131.132.26.189.393A21.399735 17.01024 17.343928 0 0 43.35938 17.34375m-32.715 3.01c-.049.243-.081.486-.111.73a15.960636 12.680357 17.343928 0 1 .111328 -.730469m-.168 1.232c-.021.278-.025.556-.023.834a15.960636 12.680357 17.343928 0 1 .02344 -.833985m-.018 1.268c.013.286.042.571.078.855a15.960636 12.680357 17.343928 0 1 -.07813 -.855469m.137 1.297c.047.283.111.565.18.846a15.960636 12.680357 17.343928 0 1 -.179688 -.845703m.287 1.281c.079.276.176.548.275.82A15.960636 12.680357 17.343928 0 1 10.88281 25.429688m-6.802734.03906a21.399735 17.01024 17.343928 0 0 .261719 .541016C4.257 25.829 4.159 25.651 4.08 25.469m37.736326.269529a15.960636 12.680357 17.343928 0 1 -.01953 .728516c.017-.242.019-.485.02-.729m-30.488.977c.104.255.224.507.346.758a15.960636 12.680357 17.343928 0 1 -.345703 -.757812m-6.443359.390625a21.399735 17.01024 17.343928 0 0 .431641 .703125C5.173 27.574 5.02 27.344 4.885 27.11m36.837888.035158a15.960636 12.680357 17.343928 0 1 -.08984 .59375c.038-.196.063-.395.09-.594m-29.813.814c.131.246.28.486.428.727A15.960636 12.680357 17.343928 0 1 11.910156 27.955078M5.869141 28.6875a21.399735 17.01024 17.343928 0 0 .519531 .695312C6.214 29.15 6.03 28.924 5.869 28.688m38 .338c-.024.06-.049.12-.074.18a21.399735 17.01024 17.343928 0 0 .07422 -.179687m-31.24.135c.162.242.342.476.52.711a15.960636 12.680357 17.343928 0 1 -.519532 -.710938m28.2832.847656a15.960636 12.680357 17.343928 0 1 -.599609 1.123047c.222-.361.423-.734.6-1.123m-.599609 1.123047a15.960636 12.680357 17.343928 0 1 -2.623047 2.910157c1.05-.822 1.939-1.799 2.623-2.91m-2.623047 2.910157a15.960636 12.680357 17.343928 0 1 -1.089844 .763672c.38-.237.743-.492 1.09-.764M7.04688 30.23047a21.399735 17.01024 17.343928 0 0 .527344 .589843C7.398 30.624 7.215 30.431 7.05 30.23m6.428.074c.219.27.459.53.699.789a15.960636 12.680357 17.343928 0 1 -.699219 -.789062m29.633.305c-.019.035-.039.069-.059.104a21.399735 17.01024 17.343928 0 0 .05859 -.103516m-28.672.775c.341.351.7.69 1.078 1.018a15.960636 12.680357 17.343928 0 1 -1.078125 -1.017578m1.078 1.018c1.14.986 2.445 1.858 3.889 2.576a15.960636 12.680357 17.343928 0 1 -3.888672 -2.576172m3.889 2.576c.465.232.944.446 1.438.645a15.960636 12.680357 17.343928 0 1 -1.4375 -.644531M8.392578 31.695312a21.399735 17.01024 17.343928 0 0 .53125 .496094C8.747 32.03 8.563 31.865 8.393 31.695m33.766.387c-.011.015-.022.028-.033.043a21.399735 17.01024 17.343928 0 0 .0332 -.04297m-32.27539.970703a21.399735 17.01024 17.343928 0 0 .597656 .470704C10.281 33.367 10.08 33.21 9.883 33.05m1.609375 1.232422a21.399735 17.01024 17.343928 0 0 .660156 .439453c-.221-.145-.445-.288-.66-.439m28.563.063c-.16.142-.314.288-.48.424a21.399735 17.01024 17.343928 0 0 .480469 -.423828m-3.837891.673828a15.960636 12.680357 17.343928 0 1 -.802735 .441407c.277-.136.539-.289.803-.441m-22.941406.40625a21.399735 17.01024 17.343928 0 0 .658203 .363282c-.22-.12-.443-.238-.658-.363m25.418.004c-.195.139-.384.283-.586.414a21.399735 17.01024 17.343928 0 0 .585937 -.414062m-3.800781.261718a15.960636 12.680357 17.343928 0 1 -.765625 .326172c.262-.099.513-.214.766-.326m-1.320312.511719a15.960636 12.680357 17.343928 0 1 -.8125 .257813c.277-.076.544-.168.813-.258m3.629.178c-.23.131-.455.269-.693.391a21.399735 17.01024 17.343928 0 0 .69336 -.390626m-22.10547.01172a21.399735 17.01024 17.343928 0 0 .867188 .390625c-.291-.128-.583-.254-.867-.391m8.559.121c.308.074.615.135.922.193a15.960636 12.680357 17.343928 0 1 -.921875 -.193359m8.5.0918A15.960636 12.680357 17.343928 0 1 31.345703 36.7832c.274-.05.541-.113.809-.176m-6.969.213c.335.053.667.092 1 .127a15.960636 12.680357 17.343928 0 1 -1 -.126954m5.542969.05469a15.960636 12.680357 17.343928 0 1 -.917969 .113281c.31-.028.614-.069.918-.113m-3.98.129c.338.026.672.037 1.01.045a15.960636 12.680357 17.343928 0 1 -1.00586 -.04492m2.580078.01563a15.960636 12.680357 17.343928 0 1 -1.042969 .04102c.352-.002.697-.019 1.043-.041m6.23.193c-.25.111-.493.231-.75.332a21.399735 17.01024 17.343928 0 0 .75 -.332031m-18.546875.01563a21.399735 17.01024 17.343928 0 0 1.734375 .61914c-.593-.185-1.166-.398-1.734-.619m16.729.688c-.247.082-.487.173-.738.246a21.399735 17.01024 17.343928 0 0 .738281 -.246093m-2.029.564c-.199.045-.392.101-.594.141a21.399735 17.01024 17.343928 0 0 .59375 -.140625" color-interpolation="sRGB" text-rendering="auto" shape-rendering="auto"/>
 </g>
</svg>
