<svg width="48" xmlns="http://www.w3.org/2000/svg" height="48" xmlns:xlink="http://www.w3.org/1999/xlink">
 <defs>
  <linearGradient id="a" y1="12.997" y2="32.13" x1="17.428" x2="36.551" gradientUnits="userSpaceOnUse">
   <stop stop-color="#abf9c7"/>
   <stop offset="1" stop-color="#54d883"/>
  </linearGradient>
  <linearGradient id="b" y1="32.721" y2="12.32" x1="33.405" gradientUnits="userSpaceOnUse" x2="17.759">
   <stop stop-color="#197cf1"/>
   <stop offset="1" stop-color="#20bcfa"/>
  </linearGradient>
  <linearGradient id="c" y1="23" x1="24" y2="39" x2="40" gradientUnits="userSpaceOnUse">
   <stop stop-color="#292c2f"/>
   <stop offset="1" stop-opacity="0"/>
  </linearGradient>
  <linearGradient id="d" y1="12.911" x1="32.776" y2="6.084" x2="27.52" gradientUnits="userSpaceOnUse">
   <stop stop-color="#95a5a6"/>
   <stop offset="1" stop-color="#eff0f1"/>
  </linearGradient>
  <linearGradient id="e" y1="24.827" x1="10.281" y2="7.355" x2="3.574" gradientUnits="userSpaceOnUse" gradientTransform="matrix(-.96593.25882-.25882-.96593 53.39 40.971)">
   <stop stop-color="#cfd5d5"/>
   <stop offset="1" stop-color="#6f8181"/>
  </linearGradient>
  <linearGradient xlink:href="#e" id="f" y1="20.947" x1="36.16" y2="39.03" x2="49.3" gradientUnits="userSpaceOnUse"/>
  <linearGradient xlink:href="#e" id="g" y1="12.375" x1="13.938" y2="28.542" x2="28.495" gradientUnits="userSpaceOnUse"/>
  <linearGradient xlink:href="#c" id="h" y1="30.991" x1="28.476" y2="41" x2="39.592" gradientUnits="userSpaceOnUse"/>
  <linearGradient xlink:href="#c" id="i" y1="13" x1="28" y2="19" x2="33.402" gradientUnits="userSpaceOnUse"/>
  <linearGradient xlink:href="#c" id="j" x1="29.654" x2="19.887" gradientUnits="userSpaceOnUse"/>
 </defs>
 <g color="#000000">
  <circle fill="#6f8181" cx="29.394" cy="16.971" stroke-linejoin="round" r="14.381" stroke-linecap="round" stroke-width="3" transform="rotate(15)"/>
  <path color-interpolation-filters="linearRGB" image-rendering="auto" color-rendering="auto" fill-rule="evenodd" d="m24.04 8c-.562-.002-1.123.025-1.682.082l-.156 1.018c-1.49.152-2.897.482-4.205.967l-.646-.867c-1 .449-1.952.999-2.84 1.643l.345.8c-1.259.82-2.387 1.79-3.33 2.9l-1.289-.502c-.683.945-1.268 1.957-1.744 3.02l.928.744c-.6 1.27-1.027 2.623-1.24 4.03l-2.084.32c-.128 1.226-.13 2.463-.006 3.689l2.041.311c.929 8.368 7.211 14.844 15.867 14.844 9.389 0 14-7.611 14-17 0 7.732-6.268 14-14 14-7.732 0-14-6.268-14-14 0-7.732 6.268-14 14-14 7.732 0 14 6.268 14 14 0-6.538-4.02-13.942-12.205-14.893l-.156-1.021c-.531-.055-1.064-.084-1.598-.086" color-interpolation="sRGB" text-rendering="auto" fill="url(#g)" shape-rendering="auto"/>
  <path opacity=".4" fill="url(#j)" stroke-linejoin="round" stroke-width="3" d="m24.04 8c-.562-.002-1.123.025-1.682.082l-.156 1.018c-1.49.152-2.897.482-4.205.967l-.453 8.898h16.838v-5.213c-2.01-2.424-4.858-4.211-8.588-4.645l-.156-1.021c-.531-.055-1.064-.084-1.598-.086"/>
  <path opacity=".2" color-interpolation-filters="linearRGB" image-rendering="auto" color-rendering="auto" fill-rule="evenodd" d="m33.19 14.807l-18.387 18.387 10.736 10.734c.169-.013.338-.02.506-.037l.475-3.102c1.262-.189 2.499-.519 3.688-.984l1.957 2.441c1.25-.561 2.439-1.25 3.549-2.055l-1.135-2.91c1-.794 1.91-1.698 2.709-2.695l2.893 1.127c.803-1.111 1.491-2.301 2.051-3.553l-2.422-1.941c.237-.594.439-1.201.607-1.818.158-.618.283-1.245.371-1.877l3.092-.475c.018-.17.028-.34.041-.51z" color-interpolation="sRGB" text-rendering="auto" fill="url(#c)" shape-rendering="auto"/>
 </g>
 <rect width="26" x="11" y="11" fill="url(#b)" rx="13" height="26"/>
 <path fill="url(#a)" fill-rule="evenodd" d="m24 11c-.944 0-1.862.104-2.747.293l-1.153 2.307-1.742-1.306c-3.124 1.502-5.544 4.207-6.665 7.53l2.557-1.023 1.95 1.3.65-1.95 8.45-4.55-.515-2.575c-.26-.015-.521-.025-.785-.025m9.627 4.269l-.527 1.581.65.65-2.6 3.9 1.3 4.55 4.311.54c.155-.806.239-1.637.239-2.49 0-2.226-.557-4.316-1.535-6.145l-1.065-.355.387-.776c-.348-.516-.744-.995-1.16-1.455m-22.369 6.131c-.143.712-.225 1.448-.248 2.198l4.54 1.702-.65-1.95-1.3-1.95zm4.292 3.9l3.25 7.8v2.82c1.592.692 3.348 1.08 5.2 1.08.129 0 .256-.005.385-.009l4.165-7.141-10.4-5.85z"/>
 <path opacity=".2" fill="#172525" d="m11.03 23.5c-.006.167-.025.331-.025.5 0 7.202 5.798 13 13 13 7.202 0 13-5.798 13-13 0-.169-.019-.333-.025-.5-.263 6.966-5.942 12.5-12.975 12.5-7.03 0-12.711-5.534-12.975-12.5"/>
 <g stroke-linejoin="round" color="#000000" stroke-width="3">
  <path fill="url(#e)" d="m39.13 13.11l-1.779.614-1.348 3.279 1 3 .68 1.037c.473 2.176.419 4.434-.156 6.586-.858 3.199-2.823 5.99-5.545 7.877l-2.385 1.401.615 2.901 1.959 2.441c1.251-.558 2.44-1.242 3.551-2.043l-1.139-2.922c.999-.795 1.905-1.7 2.701-2.697l2.914 1.135c.802-1.111 1.488-2.301 2.047-3.553l-2.438-1.953c.471-1.188.805-2.426.998-3.689l3.07-.471c.14-1.364.139-2.738-.002-4.102l-3.068-.471c-.092-.633-.22-1.26-.383-1.879-.172-.614-.377-1.217-.617-1.809l1.337-1.34c-.558-1.251-2.01-3.343-2.01-3.343"/>
  <path opacity=".2" fill="#172525" d="m43.967 23.51c-.008.514-.036 1.027-.084 1.539l-3.092.475c-.088.632-.212 1.259-.371 1.877-.168.617-.371 1.224-.607 1.818l.268.215c.124-.341.238-.685.34-1.033.159-.618.283-1.245.371-1.877l3.092-.475c.082-.844.11-1.692.084-2.539m-2.092 8.361c-.484.992-1.05 1.943-1.691 2.842l-2.893-1.127c-.799.997-1.708 1.902-2.709 2.695l.291.744c.886-.729 1.696-1.547 2.418-2.439l2.893 1.127c.804-1.111 1.491-2.301 2.051-3.553zm-11.539 6.558c-1.188.465-1.314 1.841-.125 1.376l1.957 2.441c1.25-.561 2.439-1.25 3.549-2.055l-.311-.795c-1.019.716-2.104 1.335-3.238 1.85z"/>
 </g>
 <g fill-rule="evenodd">
  <path opacity=".2" fill="url(#h)" d="m37 20l-.227.34.227.66c-.091.091-.197.18-.293.27a13 13 0 0 1 -.15039 6.095703 13 13 0 0 1 -7.410157 8.572266l.447.963.615 2.902 1.959 2.441c1.251-.558 2.44-1.242 3.551-2.043l-1.139-2.922c.999-.795 1.905-1.7 2.701-2.697l2.914 1.135c.802-1.111 1.488-2.301 2.047-3.553l-2.438-1.953c.471-1.188.805-2.426.998-3.689l.842-.129z"/>
  <path opacity=".4" fill="url(#i)" d="m26 13l7 7 6-4-4-4-4.563-.5z"/>
 </g>
 <g stroke-linejoin="round" color="#000000" stroke-width="3">
  <path fill="url(#f)" d="m37.746 14.12c-.889-.978-2.35-2.161-4.746-3.119l-2 2c0 0 3.189 2.866.242 5.795l-6.242 6.205-19.32 7.268c0 0 1.318 2.341 2.119 3.451l2.922-1.139c.795.999 1.7 1.905 2.697 2.701l-1.135 2.914c1.111.802 2.301 1.488 3.553 2.047l1.953-2.438c1.188.471 2.426.805 3.689.998l.471 3.07c1.364.14 2.738.139 4.102-.002l.471-3.068c.633-.092 1.26-.22 1.879-.383.614-.172 1.217-.377 1.809-.617 0 0 4.354-9.443 5.885-13.514.765-2.036.906-6.289.906-6.289 0 0 1.028-5.075.746-5.881"/>
  <path opacity=".2" fill="#172525" d="m29.412 39.19c-.961.266-2.01.47-2.889.602l-.475 3.102c-1.363.138-2.736.135-4.098-.008l-.475-3.092c-.632-.088-1.259-.212-1.877-.371-.617-.168-1.224-.371-1.818-.607l-1.941 2.422c-1.136-.513-2.221-1.132-3.242-1.848l-.311.797c1.111.804 2.301 1.491 3.553 2.051l1.941-2.422c.594.237 1.201.439 1.818.607.618.159 1.245.283 1.877.371l.475 3.092c1.362.143 2.735.146 4.098.008l.475-3.102c1.262-.189 2.499-.519 3.688-.984l.053-.133zm-23.1-7.148l-.633.229c.733 1.328 1.32 2.23 2.129 3.449l2.91-1.135c.715.901 1.519 1.728 2.4 2.467l.295-.758c-.997-.799-1.902-1.708-2.695-2.709l-2.91 1.135c-.641-.898-1.012-1.686-1.496-2.678"/>
 </g>
 <g fill-rule="evenodd">
  <path fill="#cfd5d5" d="m32.776 12.911c0 0-1.323-.889-2.197-1.016-.578-.895-1.578.105-1.578.105h-3v1c0 0 2.125.998 3 1 .875.002 1.814.885 1.814.885z"/>
  <path fill="#536161" d="m32 8l5 3-1 1h-4l-.369-1.635z"/>
  <path fill="url(#d)" d="m33 13c0 0-2.457.085-3-1l-1-2-3-2c0 0 0-1 3-1v1c0 0 2-1 4 0 0 0-.776 1.38-.323 2.684.323.928.323 1.316.323 1.316z"/>
  <path fill="#e05e4c" d="m30 9h1l1 2-2-1z"/>
 </g>
</svg>
