<svg width="48" xmlns="http://www.w3.org/2000/svg" height="48" xmlns:xlink="http://www.w3.org/1999/xlink">
 <defs>
  <linearGradient id="a">
   <stop stop-color="#ffffff"/>
   <stop offset="1" stop-color="#ffffff" stop-opacity="0"/>
  </linearGradient>
  <linearGradient id="b" y1="44" y2="4" gradientUnits="userSpaceOnUse" x2="0">
   <stop stop-color="#0d4687"/>
   <stop offset=".051" stop-color="#0b60c2"/>
   <stop offset=".275" stop-color="#1b88f4"/>
   <stop offset=".725" stop-color="#1b90f4"/>
   <stop offset=".962" stop-color="#0d6ad6"/>
   <stop offset="1" stop-color="#115fbc"/>
  </linearGradient>
  <linearGradient id="c" y1="34.867" x1="7.18" y2="14.867" gradientUnits="userSpaceOnUse" x2="41.821">
   <stop stop-color="#440d7f"/>
   <stop offset="1" stop-color="#500e9a"/>
  </linearGradient>
  <linearGradient id="d" y1="34.867" x1="40.82" y2="14.217" gradientUnits="userSpaceOnUse" x2="5.47">
   <stop stop-color="#1a7c69"/>
   <stop offset=".05" stop-color="#218b7b"/>
   <stop offset=".157" stop-color="#208c7a"/>
   <stop offset=".312" stop-color="#124a45"/>
   <stop offset=".952" stop-color="#1bcaa3"/>
   <stop offset="1" stop-color="#20a386"/>
  </linearGradient>
  <linearGradient id="e" y1="15.587" x1="26.967" y2="23.462" x2="36.526" gradientUnits="userSpaceOnUse">
   <stop/>
   <stop offset="1" stop-opacity="0"/>
  </linearGradient>
  <linearGradient id="f" y1="30.889" x1="23.708" y2="20.699" gradientUnits="userSpaceOnUse" x2="18.13">
   <stop stop-opacity=".309"/>
   <stop offset="1" stop-color="#ffffff" stop-opacity="0"/>
  </linearGradient>
  <linearGradient xlink:href="#f" id="g" y1="37.972" x1="40.839" y2="9.313" gradientUnits="userSpaceOnUse" x2="15.379"/>
  <radialGradient cx="16.09" cy="24.836" xlink:href="#a" id="h" r="1.656" gradientUnits="userSpaceOnUse" gradientTransform="matrix(-.92086.01412-.23425-15.27373 39.23 385.35)"/>
  <radialGradient cx="11.182" cy="26.579" xlink:href="#a" id="i" r="17.37" gradientUnits="userSpaceOnUse" gradientTransform="matrix(.44045-.23427.13081.24593 6.648 19.865)"/>
  <path id="j" color="#000000" d="m39.821 11.402l3 5.196c2 3.464-32.641 23.464-34.641 20l-3-5.196c-2-3.464 32.641-23.464 34.641-20"/>
  <path id="k" color="#000000" d="m21 4h6c4 0 4 40 0 40h-6c-4 0-4-40 0-40"/>
 </defs>
 <path fill="url(#d)" color="#000000" d="m8.179 11.402l-3 5.196c-2 3.464 32.641 23.464 34.641 20l3-5.196c2-3.464-32.641-23.464-34.641-20"/>
 <use fill="url(#c)" xlink:href="#j"/>
 <use fill="url(#f)" xlink:href="#j"/>
 <path opacity=".398" fill="url(#e)" d="m29.654 14.236l8.06 8.06-7.807 5.143z"/>
 <path opacity=".411" fill="url(#i)" color="#000000" d="m38.469 11c-6.807.529-35.09 17.267-33.28 20.406l.125.219c-1.969-3.41 31.575-22.854 34.531-20.16l-.031-.063c-.188-.325-.64-.461-1.344-.406"/>
 <use fill="url(#b)" xlink:href="#k"/>
 <use fill="url(#g)" xlink:href="#k"/>
 <path opacity=".564" fill="url(#h)" color="#000000" d="m21 4c-4 0-4 40 0 40h.313c-4 0-4-40 0-40z"/>
</svg>
