<?xml version="1.0" encoding="UTF-8" standalone="no"?>
<svg xmlns="http://www.w3.org/2000/svg" xmlns:xlink="http://www.w3.org/1999/xlink" width="48" height="48" version="1.1">
 <defs>
  <linearGradient gradientTransform="translate(-1.52e-6,1.52e-6)" xlink:href="#linearGradient3765" id="linearGradient4236" x1="407.626" y1="543.768" x2="407.687" y2="504.133" gradientUnits="userSpaceOnUse"/>
  <linearGradient id="linearGradient3765">
   <stop style="stop-color:#71368a;stop-opacity:1;" offset="0"/>
   <stop style="stop-color:#9c29cc;stop-opacity:1;" offset="1"/>
  </linearGradient>
 </defs>
 <g transform="translate(-384.57143,-499.798)">
  <rect style="fill:url(#linearGradient4236);fill-opacity:1" width="40" height="40" x="388.57" y="503.8" ry="3" rx="3"/>
  <path style="opacity:0.15;fill:#000000;fill-opacity:1" d="m 388.57143,539.798 0,1 c 0,1.662 1.338,3 3,3 l 34,0 c 1.662,0 3,-1.338 3,-3 l 0,-1 c 0,1.662 -1.338,3 -3,3 l -34,0 c -1.662,0 -3,-1.338 -3,-3 z"/>
  <path style="opacity:0.98999999;fill:#ecf0f1;fill-opacity:1;stroke:none" d="m 405.32521,509.798 c -0.5419,0 -0.9799,0.43559 -0.9799,0.97343 0,0.21158 0.0805,0.4055 0.19598,0.56522 l -2.44976,2.79469 c -0.0979,-0.0258 -0.18788,-0.0628 -0.29396,-0.0628 -0.659,0 -1.20855,0.53916 -1.20855,1.19323 0,0.0248 0.0312,0.0385 0.0327,0.0628 l -2.15577,1.41304 c -0.15891,-0.10998 -0.34688,-0.1884 -0.55528,-0.1884 -0.54189,0 -0.9799,0.43558 -0.9799,0.97343 0,0.32788 0.1744,0.60853 0.42462,0.78502 l -0.39196,7.28502 c -0.23879,0.12955 -0.39196,0.40168 -0.39196,0.69082 0,0.42162 0.35914,0.75363 0.78392,0.75363 0.0225,0 0.0434,0.002 0.0653,0 l 5.35679,5.43236 c -4.8e-4,0.011 0,0.0203 0,0.0314 0,0.42162 0.32647,0.78502 0.75125,0.78502 0.15069,0 0.30597,-0.0513 0.42462,-0.12561 l 2.93971,1.53865 c -0.006,0.0438 -0.0327,0.0802 -0.0327,0.12561 0,0.53785 0.43801,0.97343 0.9799,0.97343 0.50734,0 0.8961,-0.38907 0.94723,-0.87924 l 7.8392,-2.29226 c 0.17805,0.24629 0.48787,0.40821 0.81658,0.40821 0.54188,0 0.9799,-0.43557 0.9799,-0.97343 0,-0.22739 -0.097,-0.43088 -0.22863,-0.59662 l 3.39698,-7.44202 c 0.54187,0 0.9799,-0.43558 0.9799,-0.97343 0,-0.47192 -0.33495,-0.85267 -0.78392,-0.94203 l -1.0779,-3.54831 c 0.1691,-0.14003 0.29398,-0.32953 0.29398,-0.56522 0,-0.4216 -0.35916,-0.75362 -0.78392,-0.75362 -0.0362,0 -0.0631,0.0266 -0.098,0.0314 l -4.93216,-5.96618 c 0.007,-0.0407 0.0326,-0.0831 0.0326,-0.1256 0,-0.42162 -0.35915,-0.75363 -0.78392,-0.75363 -0.25296,0 -0.44776,0.12693 -0.58794,0.31401 l -7.61055,-0.2826 c -0.1338,-0.37987 -0.4862,-0.65942 -0.91457,-0.65942 z m 0.91457,1.31884 7.4799,0.2826 c 0.0492,0.17053 0.15105,0.30908 0.29397,0.40822 l -0.19598,0.84783 c -0.35003,0.0812 -0.62793,0.31573 -0.78392,0.62802 l -8.36181,1.00482 0.55528,-2.57487 c 0.0368,0.004 0.06,0.0314 0.098,0.0314 0.41739,0 0.77279,-0.26336 0.91457,-0.62803 z m 8.52513,0.75362 4.8015,5.80918 c -0.0503,0.1015 -0.098,0.19321 -0.098,0.314 0,0.21082 0.0894,0.39567 0.22865,0.53383 l -0.39196,1.09903 -4.1809,-5.27536 c 0.0918,-0.16782 0.16332,-0.36082 0.16332,-0.56522 0,-0.51197 -0.32567,-0.93371 -0.78392,-1.09903 l 0.16331,-0.78502 c 0.0337,-0.0109 0.0666,-0.0161 0.098,-0.0314 z m -9.92966,0.15701 -0.52261,2.29227 -1.6005,0.18841 c -0.009,-0.0116 -0.0227,-0.0202 -0.0326,-0.0314 l 2.15577,-2.44928 z m 8.23117,2.60628 -2.41709,9.35748 c -0.0757,0.0171 -0.15781,0.0347 -0.22864,0.0628 l -6.20604,-7.00241 2.90704,-0.314 c 0.13053,0.237 0.39461,0.40821 0.68593,0.40821 0.42477,0 0.75126,-0.36341 0.75126,-0.78503 0,-0.0582 -0.0202,-0.10244 -0.0327,-0.15701 l 4.18091,-1.53863 0.35929,-0.0314 z m -1.79649,0.1884 -2.90704,1.06764 c -0.14107,-0.16785 -0.31783,-0.28261 -0.55527,-0.28261 -0.42478,0 -0.78392,0.33201 -0.78392,0.75361 0,0.0104 -3.9e-4,0.0213 0,0.0314 l -2.87437,0.34542 0.22864,-1.13044 6.89196,-0.78503 z m 3.10302,0.157 4.5402,5.77778 -0.94724,2.63768 -5.68341,1.31885 c -0.0839,-0.15336 -0.19568,-0.2624 -0.32664,-0.37682 l 2.41709,-9.35749 z m -10.38694,0.69082 -0.19598,0.91064 -0.7186,-0.81643 0.91458,-0.0942 z m -3.10302,0.31402 c 0.058,0.0698 0.12358,0.13341 0.19599,0.18841 l -0.16332,0.91062 -2.05779,0.25121 c -0.002,-0.0104 0.002,-0.0212 0,-0.0314 l 2.02512,-1.31884 z m 0.84925,0.43961 c 0.0222,0.001 0.0428,0 0.0653,0 0.0225,0 0.0432,0.001 0.0653,0 l 0.45729,0.50241 -0.68594,0.0942 0.098,-0.59662 z m 0.88191,0.81643 0.84925,0.94202 -0.39197,1.72705 c -0.40863,0.0181 -0.71859,0.34359 -0.71859,0.75363 0,0.23787 0.12215,0.42521 0.29397,0.56522 l -2.5804,3.89372 1.50251,-7.75604 1.04523,-0.1256 z m -1.76382,0.18841 -1.63316,8.44685 c -0.28957,0.0576 -0.51687,0.25231 -0.65328,0.50241 l -0.45727,-0.0942 c 0,-0.31621 -0.18124,-0.60633 -0.45729,-0.72222 l 0.39195,-7.09662 c 0.43394,-0.0592 0.75692,-0.38571 0.81659,-0.81642 l 1.99246,-0.21981 z m 2.87438,1.09903 5.81407,6.49999 c -0.0112,0.0406 -0.025,0.0837 -0.0327,0.1256 l -9.40704,1.00484 c -0.0607,-0.0603 -0.12101,-0.11411 -0.19598,-0.15701 l 3.00503,-4.61594 c 0.0644,0.0174 0.12602,0.0314 0.19598,0.0314 0.42477,0 0.78392,-0.332 0.78392,-0.75362 0,-0.30145 -0.20168,-0.56675 -0.45729,-0.69083 l 0.29397,-1.44443 z m 16.26633,0.1884 c 0.0204,0.006 0.0443,-0.005 0.0653,0 l 0.88192,3.01449 -1.37187,-1.78986 0.42462,-1.22463 z m -0.84925,2.35507 1.37186,1.72705 -2.15578,0.50242 0.78392,-2.22947 z m 1.46985,2.70048 -3.10302,6.75121 0.0653,-4.20773 c 0.32793,-0.0666 0.58794,-0.34563 0.58794,-0.69082 0,-0.27988 -0.18846,-0.51086 -0.42462,-0.62801 l 0.22864,-0.59663 2.64573,-0.62802 z m -3.00503,0.72223 -0.16331,0.40821 c -0.39747,0 -0.7186,0.32773 -0.7186,0.72222 0,0.32952 0.21693,0.60838 0.52261,0.69082 l -0.098,4.80435 c -0.23966,0.0733 -0.43283,0.25897 -0.55527,0.47102 l -4.27889,-0.94204 c 0,-0.4216 -0.35916,-0.75362 -0.78393,-0.75362 -0.41353,0 -0.76635,0.31607 -0.78392,0.72223 l -1.04523,0.2512 1.30653,-3.95652 c 0.71473,-0.0158 1.31308,-0.54697 1.43719,-1.22464 l 5.1608,-1.19323 z m -7.93718,1.63284 c 0.0897,0.16385 0.21641,0.32069 0.35929,0.43962 l -1.50251,4.58454 -3.13568,0.78502 -5.06282,-4.74154 c 0.007,-0.0191 0.0264,-0.0431 0.0327,-0.0628 l 9.30905,-1.00483 z m -11.33417,0.81643 0.13065,0.0314 c 0.006,0.0387 -0.0106,0.0886 0,0.1256 l -0.13065,-0.15701 z m 0.78391,0.78503 c 0.0929,0.0289 0.19145,0.0628 0.29398,0.0628 0.0219,0 0.0437,0.001 0.0653,0 l 4.27889,3.98792 c -0.0673,-0.0191 -0.15512,-0.0314 -0.22864,-0.0314 -0.15069,0 -0.2733,0.0513 -0.39195,0.12561 l -4.0176,-4.14493 z m 11.69347,3.20289 c 0.11003,0.28807 0.38981,0.47102 0.7186,0.47102 0.31858,0 0.60183,-0.16562 0.71859,-0.43962 l 3.72362,0.81643 -7.25126,2.10386 0.88191,-2.66908 1.20854,-0.28261 z m -2.38441,0.59662 -0.78393,2.35507 c -0.0432,0.008 -0.0897,0.0172 -0.13065,0.0314 l -1.86181,-1.72705 2.77639,-0.65942 z m -3.91961,0.94203 0.48995,0.47102 -0.68593,-0.37682 c 0.001,-0.0199 0,-0.0425 0,-0.0628 l 0.19598,-0.0314 z"/>
 </g>
</svg>
