<svg width="48" xmlns="http://www.w3.org/2000/svg" height="48">
 <defs>
  <linearGradient id="a" y1="543.77" x1="407.63" y2="504.13" x2="407.69" gradientUnits="userSpaceOnUse">
   <stop stop-color="#c6cdd1"/>
   <stop offset="1" stop-color="#e0e5e7"/>
  </linearGradient>
  <linearGradient id="b" y1="513.81" x1="401.58" y2="532.44" x2="401.92" gradientUnits="userSpaceOnUse">
   <stop stop-color="#9559b6"/>
   <stop offset="1" stop-color="#8e44ad"/>
  </linearGradient>
  <linearGradient id="c" y1="516.47" x1="417.87" y2="533.46" x2="417.53" gradientUnits="userSpaceOnUse">
   <stop stop-color="#1d99f3"/>
   <stop offset="1" stop-color="#2972a7"/>
  </linearGradient>
  <linearGradient id="d" y1="26.03" x1="29.439" y2="35.796" x2="38.26" gradientUnits="userSpaceOnUse">
   <stop stop-color="#292c2f"/>
   <stop offset="1" stop-color="#292c2f" stop-opacity="0"/>
  </linearGradient>
 </defs>
 <g transform="translate(-384.57-499.8)">
  <rect width="40" x="388.57" y="503.8" fill="url(#a)" rx="3" height="40"/>
  <g font-size="12.666">
   <text x="730.88" y="132.19" font-family="Droid Sans">
    
   </text>
  </g>
  <g transform="translate(384.57 499.8)">
   <path opacity=".15" d="m4 40v1c0 1.662 1.338 3 3 3h34c1.662 0 3-1.338 3-3v-1c0 1.662-1.338 3-3 3h-34c-1.662 0-3-1.338-3-3"/>
   <path opacity=".2" fill="url(#d)" d="m38.902 23.994c0 0-13.643 5.975-14.715 9.939l10.07 10.07h6.746c1.662 0 3-1.338 3-3v-11.908z"/>
  </g>
  <path fill="url(#c)" d="m412.22 516.23l-.861 4.291 5.211 3.256-6.703 4.189-1.15 5.732 14.854-9.902z"/>
  <path fill="url(#b)" d="m408.57 513.8l-15 10 11.514 7.676.869-4.332-5.383-3.363 6.926-4.328 1.125-5.617z"/>
 </g>
</svg>
