<?xml version="1.0" encoding="UTF-8" standalone="no"?>
<svg xmlns="http://www.w3.org/2000/svg" xmlns:xlink="http://www.w3.org/1999/xlink" width="48" height="48" version="1.1">
 <defs>
  <linearGradient id="linearGradient4226">
   <stop style="stop-color:#000000;stop-opacity:1;" offset="0"/>
   <stop style="stop-color:#000000;stop-opacity:0;" offset="1"/>
  </linearGradient>
  <linearGradient id="linearGradient4210">
   <stop style="stop-color:#cd1d31;stop-opacity:1;" offset="0"/>
   <stop style="stop-color:#e54456;stop-opacity:1" offset="1"/>
  </linearGradient>
  <linearGradient id="linearGradient4165">
   <stop stop-color="#282629" offset="0"/>
   <stop stop-color="#424242" offset="1"/>
  </linearGradient>
  <linearGradient gradientTransform="matrix(1.4285711,0,0,1.4285711,-163.67328,-235.91309)" xlink:href="#linearGradient4165" id="linearGradient4274" x1="404.071" y1="545.098" x2="395.671" y2="517.798" gradientUnits="userSpaceOnUse"/>
  <linearGradient xlink:href="#linearGradient4210" id="linearGradient4216" x1="410.767" y1="531.303" x2="406.752" y2="515.918" gradientUnits="userSpaceOnUse"/>
  <linearGradient xlink:href="#linearGradient4226" id="linearGradient4232" x1="20.586" y1="18.733" x2="35.315" y2="33.463" gradientUnits="userSpaceOnUse"/>
 </defs>
 <g transform="translate(-384.57143,-499.798)">
  <rect style="opacity:1;fill:url(#linearGradient4274);fill-opacity:1;stroke:none" width="40" height="40" x="388.57" y="503.8" ry="20"/>
  <g style="fill:#ffffff;fill-opacity:1;opacity:0.5">
   <rect y="512.8" x="392.57" height="2" width="3" style="opacity:1;fill:#ffffff;fill-opacity:1;stroke:none;stroke-width:2;stroke-linecap:round;stroke-linejoin:round;stroke-miterlimit:4;stroke-dasharray:none;stroke-opacity:1"/>
   <rect style="opacity:1;fill:#ffffff;fill-opacity:1;stroke:none;stroke-width:2;stroke-linecap:round;stroke-linejoin:round;stroke-miterlimit:4;stroke-dasharray:none;stroke-opacity:1" width="3" height="2" x="392.57" y="516.8"/>
   <rect y="520.8" x="392.57" height="2" width="3" style="opacity:1;fill:#ffffff;fill-opacity:1;stroke:none;stroke-width:2;stroke-linecap:round;stroke-linejoin:round;stroke-miterlimit:4;stroke-dasharray:none;stroke-opacity:1"/>
   <rect style="opacity:1;fill:#ffffff;fill-opacity:1;stroke:none;stroke-width:2;stroke-linecap:round;stroke-linejoin:round;stroke-miterlimit:4;stroke-dasharray:none;stroke-opacity:1" width="3" height="2" x="392.57" y="524.8"/>
   <rect y="528.8" x="392.57" height="2" width="3" style="opacity:1;fill:#ffffff;fill-opacity:1;stroke:none;stroke-width:2;stroke-linecap:round;stroke-linejoin:round;stroke-miterlimit:4;stroke-dasharray:none;stroke-opacity:1"/>
   <rect style="opacity:1;fill:#ffffff;fill-opacity:1;stroke:none;stroke-width:2;stroke-linecap:round;stroke-linejoin:round;stroke-miterlimit:4;stroke-dasharray:none;stroke-opacity:1" width="3" height="2" x="392.57" y="532.8"/>
  </g>
  <g style="fill:#ffffff;fill-opacity:1;opacity:0.5" transform="translate(28.999988,0)">
   <rect style="opacity:1;fill:#ffffff;fill-opacity:1;stroke:none;stroke-width:2;stroke-linecap:round;stroke-linejoin:round;stroke-miterlimit:4;stroke-dasharray:none;stroke-opacity:1" width="3" height="2" x="392.57" y="512.8"/>
   <rect y="516.8" x="392.57" height="2" width="3" style="opacity:1;fill:#ffffff;fill-opacity:1;stroke:none;stroke-width:2;stroke-linecap:round;stroke-linejoin:round;stroke-miterlimit:4;stroke-dasharray:none;stroke-opacity:1"/>
   <rect style="opacity:1;fill:#ffffff;fill-opacity:1;stroke:none;stroke-width:2;stroke-linecap:round;stroke-linejoin:round;stroke-miterlimit:4;stroke-dasharray:none;stroke-opacity:1" width="3" height="2" x="392.57" y="520.8"/>
   <rect y="524.8" x="392.57" height="2" width="3" style="opacity:1;fill:#ffffff;fill-opacity:1;stroke:none;stroke-width:2;stroke-linecap:round;stroke-linejoin:round;stroke-miterlimit:4;stroke-dasharray:none;stroke-opacity:1"/>
   <rect style="opacity:1;fill:#ffffff;fill-opacity:1;stroke:none;stroke-width:2;stroke-linecap:round;stroke-linejoin:round;stroke-miterlimit:4;stroke-dasharray:none;stroke-opacity:1" width="3" height="2" x="392.57" y="528.8"/>
   <rect y="532.8" x="392.57" height="2" width="3" style="opacity:1;fill:#ffffff;fill-opacity:1;stroke:none;stroke-width:2;stroke-linecap:round;stroke-linejoin:round;stroke-miterlimit:4;stroke-dasharray:none;stroke-opacity:1"/>
  </g>
  <path style="opacity:0.15;fill:#000000;fill-opacity:1;stroke:none" d="m 388.58311,523.29795 c -0.004,0.16654 -0.0117,0.33244 -0.0117,0.5 0,11.08 8.92,20 20,20 11.08,0 20,-8.92 20,-20 0,-0.16756 -0.008,-0.33346 -0.0117,-0.5 -0.26467,10.84613 -9.07616,19.5 -19.98828,19.5 -10.91212,0 -19.72361,-8.65387 -19.98828,-19.5 z"/>
  <path style="opacity:0.4;fill:url(#linearGradient4232);fill-opacity:1;stroke:none;stroke-width:2;stroke-linecap:round;stroke-linejoin:round;stroke-miterlimit:4;stroke-dasharray:none;stroke-opacity:1" d="M 33.201172 16.863281 L 16.697266 17.152344 L 14.976562 21.873047 L 14.455078 30.826172 L 27.347656 43.71875 C 35.723942 42.317578 42.300373 35.747339 43.712891 27.375 L 33.201172 16.863281 z" transform="translate(384.57143,499.798)"/>
  <rect style="fill:url(#linearGradient4216);fill-opacity:1" ry="2.629" rx="3.026" y="515.8" x="398.57" height="16" width="20"/>
  <path style="color:#000000;font-style:normal;font-variant:normal;font-weight:normal;font-stretch:normal;font-size:medium;line-height:normal;font-family:sans-serif;text-indent:0;text-align:start;text-decoration:none;text-decoration-line:none;text-decoration-style:solid;text-decoration-color:#000000;letter-spacing:normal;word-spacing:normal;text-transform:none;direction:ltr;block-progression:tb;writing-mode:lr-tb;baseline-shift:baseline;text-anchor:start;white-space:normal;clip-rule:nonzero;display:inline;overflow:visible;visibility:visible;opacity:1;isolation:auto;mix-blend-mode:normal;color-interpolation:sRGB;color-interpolation-filters:linearRGB;solid-color:#000000;solid-opacity:1;fill:#fff8eb;fill-opacity:1;fill-rule:nonzero;stroke:none;stroke-width:2.24022985;stroke-linecap:round;stroke-linejoin:round;stroke-miterlimit:4;stroke-dasharray:none;stroke-dashoffset:0;stroke-opacity:1;color-rendering:auto;image-rendering:auto;shape-rendering:auto;text-rendering:auto;enable-background:accumulate" d="m 405.71484,518.79883 c -0.62697,-0.0125 -1.14209,0.49205 -1.14257,1.11914 l 0,7.75976 c -7.8e-4,0.86146 0.93053,1.40138 1.67773,0.97266 l 6.75977,-3.88086 c 0.75037,-0.43048 0.75037,-1.51288 0,-1.94336 l -6.75977,-3.8789 c -0.1631,-0.0936 -0.34714,-0.14466 -0.53516,-0.14844 z"/>
 </g>
</svg>
