<svg width="48" xmlns="http://www.w3.org/2000/svg" height="48" xmlns:xlink="http://www.w3.org/1999/xlink">
 <defs>
  <linearGradient id="a" y1="44" x1="29.455" y2="16" x2="15" gradientUnits="userSpaceOnUse" gradientTransform="matrix(1.1 0 0 1.10714-2.4-4.714)">
   <stop stop-color="#197cf1"/>
   <stop offset="1" stop-color="#20bcfa"/>
  </linearGradient>
  <linearGradient id="b" y1="16" y2="12" x2="0" gradientUnits="userSpaceOnUse" gradientTransform="matrix(1.05556 0 0 1-1.333-3)">
   <stop stop-color="#06a370"/>
   <stop offset="1" stop-color="#22d1b0"/>
  </linearGradient>
  <linearGradient id="c" y1="12" y2="8" x2="0" gradientUnits="userSpaceOnUse" gradientTransform="translate(0-2)">
   <stop stop-color="#713e88"/>
   <stop offset="1" stop-color="#9b59b6"/>
  </linearGradient>
  <linearGradient id="d" y1="4" y2="8" x2="0" gradientUnits="userSpaceOnUse" gradientTransform="matrix(.92857 0 0 1 1.714 0)">
   <stop stop-color="#da4453"/>
   <stop offset="1" stop-color="#c0392b"/>
  </linearGradient>
  <linearGradient id="e" y1="39" y2="23" x2="0" gradientUnits="userSpaceOnUse" gradientTransform="translate(0-2)">
   <stop stop-color="#60c0f4"/>
   <stop offset="1" stop-color="#b9e9ff"/>
  </linearGradient>
  <linearGradient id="f" y1="35" x1="19" y2="46" x2="30" gradientUnits="userSpaceOnUse" gradientTransform="translate(0-2)">
   <stop/>
   <stop offset="1" stop-opacity="0"/>
  </linearGradient>
  <linearGradient xlink:href="#a" id="g" y1="44.736" x1="21.531" y2="14" x2="2" gradientUnits="userSpaceOnUse"/>
  <linearGradient xlink:href="#a" id="h" y1="46.02" x1="41" y2="11.02" x2="20.806" gradientUnits="userSpaceOnUse"/>
 </defs>
 <g stroke-width="2">
  <g stroke-linejoin="bevel" stroke-linecap="round">
   <rect width="26" x="11" y="4" fill="url(#d)" height="7"/>
   <rect width="32" x="8" y="6" fill="url(#c)" height="7"/>
   <rect width="38" x="5" y="9" fill="url(#b)" height="7"/>
   <rect width="44" x="2" y="13" fill="url(#a)" height="31"/>
  </g>
  <g stroke-linejoin="round">
   <path fill="url(#g)" d="m2 14.5v27l27-13.5z"/>
   <path fill="url(#h)" d="m46 19.5l-44 22v2.5h44z"/>
   <path fill="url(#e)" d="m19 23l10 5-10 5z"/>
  </g>
 </g>
 <g fill-rule="evenodd">
  <path opacity=".2" fill="url(#f)" d="m30 44l-11-11 10-5 16 16z"/>
  <rect width="44" x="2" y="43" fill="#1c5593" height="1"/>
 </g>
</svg>
