<svg width="48" xmlns="http://www.w3.org/2000/svg" height="48" xmlns:xlink="http://www.w3.org/1999/xlink">
 <defs>
  <linearGradient id="a" y1="543.8" y2="503.8" x2="0" gradientUnits="userSpaceOnUse" gradientTransform="matrix(1.125 0 0 .925-51.07 38.785)">
   <stop stop-color="#bd8d48"/>
   <stop offset="1" stop-color="#e8b971"/>
  </linearGradient>
  <linearGradient id="b" y1="542.8" y2="504.8" x2="0" gradientUnits="userSpaceOnUse" gradientTransform="matrix(1 0 0 .92105-1 40.852)">
   <stop stop-color="#977a5c"/>
   <stop offset="1" stop-color="#9d8062"/>
  </linearGradient>
  <linearGradient id="c" y1="532.8" x1="402.57" y2="526.8" x2="395.57" gradientUnits="userSpaceOnUse" gradientTransform="translate(0-2)">
   <stop stop-color="#90a8b0"/>
   <stop offset="1" stop-color="#e1e7ea"/>
  </linearGradient>
  <linearGradient id="d" y1="535.8" x1="424.57" y2="506.8" x2="392.57" gradientUnits="userSpaceOnUse">
   <stop stop-color="#b6c2c7"/>
   <stop offset="1" stop-color="#c9dbe1"/>
  </linearGradient>
  <linearGradient id="e" y1="532.8" x1="416.57" y2="526.8" gradientUnits="userSpaceOnUse" x2="409.57" gradientTransform="translate(37.658-25.948)">
   <stop stop-color="#afc0c6"/>
   <stop offset="1" stop-color="#cad5d9"/>
  </linearGradient>
  <linearGradient xlink:href="#e" id="f" y1="532.8" x1="416.57" y2="526.8" gradientUnits="userSpaceOnUse" x2="409.57" gradientTransform="translate(38.971-26.542)"/>
  <linearGradient xlink:href="#c" id="g" y1="532.8" x1="402.57" y2="526.8" gradientUnits="userSpaceOnUse" x2="395.57" gradientTransform="translate(6-2)"/>
  <linearGradient xlink:href="#c" id="h" y1="532.8" x1="402.57" y2="526.8" gradientUnits="userSpaceOnUse" x2="395.57" gradientTransform="translate(165.27-158.82)"/>
  <linearGradient xlink:href="#c" id="i" y1="532.8" x1="402.57" y2="526.8" gradientUnits="userSpaceOnUse" x2="395.57" gradientTransform="translate(12-2)"/>
  <linearGradient id="j" y1="508.67" x1="400.07" y2="531.17" x2="400.32" gradientUnits="userSpaceOnUse">
   <stop stop-color="#96acb4"/>
   <stop offset="1" stop-color="#475b63"/>
  </linearGradient>
  <linearGradient xlink:href="#j" id="k" y1="621.6" x1="212.72" y2="642.18" gradientUnits="userSpaceOnUse" x2="213.34"/>
 </defs>
 <g transform="translate(-384.57-499.8)">
  <rect color-interpolation-filters="linearRGB" x="398.57" y="509.8" color="#000000" image-rendering="auto" color-rendering="auto" width="1" color-interpolation="sRGB" text-rendering="auto" fill="url(#j)" height="16" shape-rendering="auto"/>
  <rect width="36" x="390.57" y="534.8" fill="url(#a)" rx="0" height="7"/>
  <rect width="36" x="390.57" opacity=".5" y="535.8" fill="url(#b)" height="5"/>
  <rect width="36" x="390.57" y="540.8" fill="#936e39" height="1"/>
  <g color-rendering="auto" color-interpolation-filters="linearRGB" shape-rendering="auto" image-rendering="auto" text-rendering="auto" color-interpolation="sRGB" color="#000000">
   <circle fill="url(#c)" cx="399.01" cy="527.8" r="3"/>
   <g fill="url(#j)">
    <rect width="1" x="404.57" y="509.8" height="16"/>
    <rect width="1" x="410.57" y="509.8" height="16"/>
   </g>
   <circle fill="url(#g)" cx="405.01" cy="527.8" r="3"/>
   <circle cx="450.77" cy="503.85" r="3" opacity=".358" fill="url(#e)" transform="rotate(2.9187)"/>
   <circle cx="452.08" cy="503.26" r="3" opacity=".214" fill="url(#f)" transform="rotate(2.9187)"/>
   <rect x="216.52" y="621.45" width="1" fill="url(#k)" height="16" transform="rotate(-20.0085)"/>
   <circle cx="564.28" cy="370.97" r="3" fill="url(#h)" transform="rotate(17.9187)"/>
   <circle fill="url(#i)" cx="411.01" cy="527.8" r="3"/>
   <path fill="url(#d)" d="m393.57 534.8h2v-25h26v25h2v-27h-30z"/>
  </g>
 </g>
</svg>
