<svg height="48" width="48" xmlns="http://www.w3.org/2000/svg" xmlns:xlink="http://www.w3.org/1999/xlink"><linearGradient id="a" gradientUnits="userSpaceOnUse" x1="23.000000075" x2="37.000000145" y1="19.999999725" y2="33.999999795"><stop offset="0" stop-color="#292c2f"/><stop offset="1" stop-opacity="0"/></linearGradient><linearGradient id="b" gradientUnits="userSpaceOnUse" x1="44" x2="4" y1="44" y2="4"><stop offset="0" stop-color="#172525"/><stop offset="1" stop-color="#536161"/></linearGradient><linearGradient id="c" gradientTransform="matrix(2.0428665 -6.8308524 5.7819337 2.3633129 25.219113 34.652812)" gradientUnits="userSpaceOnUse" x1="24" x2="24" y1="35" y2="13"><stop offset="0" stop-color="#cd7223"/><stop offset=".53" stop-color="#f48e00"/><stop offset="1" stop-color="#ffa92d"/></linearGradient><linearGradient id="d" gradientUnits="userSpaceOnUse" x1="27" x2="25.42725" y1="28" y2="32.71825"><stop offset="0" stop-color="#b1621e"/><stop offset="1" stop-color="#ffa21d"/></linearGradient><rect fill="url(#b)" height="40" ry="1" width="40" x="4" y="4"/><path d="m16 35 8 8h20v-18l-12-12v6l-7 2.333333 7 2.333334v6z" fill="url(#a)" opacity=".4"/><path d="m16 29 16-5.333333v6l-16 5.333333z" fill="url(#d)"/><path d="m4 6v-1c0-.554007.445996-1 1-1h38c.554004 0 1 .445993 1 1v1c0-.554007-.445996-1-1-1h-38c-.554004 0-1 .445993-1 1z" fill="#fff" opacity=".184"/><path d="m4 42v1c0 .554007.445996 1 1 1h38c.554004 0 1-.445993 1-1v-1c0 .554007-.445996 1-1 1h-38c-.554004 0-1-.445993-1-1z" opacity=".481"/><path d="m32 13-16 5.333984v6l16 5.332032v-6l-7-2.332032 7-2.333984z" fill="url(#c)"/></svg>