<?xml version="1.0" encoding="UTF-8" standalone="no"?>
<svg xmlns="http://www.w3.org/2000/svg" xmlns:xlink="http://www.w3.org/1999/xlink" width="48" height="48" id="svg2" version="1.1">
 <defs id="defs4">
  <linearGradient id="linearGradient5169">
   <stop style="stop-color:#000000;stop-opacity:1;" offset="0" id="stop5171"/>
   <stop style="stop-color:#000000;stop-opacity:0;" offset="1" id="stop5173"/>
  </linearGradient>
  <linearGradient gradientTransform="translate(383.57001,-499.79999)" id="linearGradient4847" y1="541.8" x1="-430.57" y2="503.8" x2="-385.57" gradientUnits="userSpaceOnUse">
   <stop stop-color="#197cf1" id="stop4849" style="stop-color:#0b5dbd;stop-opacity:1"/>
   <stop offset="1" stop-color="#21c9fb" id="stop4851" style="stop-color:#0dc4fb;stop-opacity:1"/>
  </linearGradient>
  <linearGradient id="a" y1="538.8" x1="406.57" y2="507.52" x2="429.12" gradientUnits="userSpaceOnUse" gradientTransform="matrix(-1.81818,0,0,1.2469,1167.79,-128.03)">
   <stop stop-color="#f3ac12" id="stop7"/>
   <stop offset="1" stop-color="#f5cb39" id="stop9"/>
  </linearGradient>
  <linearGradient id="b" y1="31" x1="53" y2="18" x2="40" gradientUnits="userSpaceOnUse" gradientTransform="matrix(-1,0,0,-1,456.57,560.8)">
   <stop stop-color="#383e51" id="stop12"/>
   <stop offset="1" stop-color="#655c6f" stop-opacity="0" id="stop14"/>
  </linearGradient>
  <linearGradient id="c" y1="61" y2="47" x2="0" gradientUnits="userSpaceOnUse" gradientTransform="matrix(-1,0,0,1,442.57,482.8)">
   <stop stop-color="#fddda3" id="stop17"/>
   <stop offset="1" stop-color="#fde3a7" id="stop19"/>
  </linearGradient>
  <linearGradient id="d" y1="522.46" y2="541.2" gradientUnits="userSpaceOnUse" x2="0" gradientTransform="matrix(-1.81818,0,0,1.2469,1167.79,-128.03)">
   <stop stop-color="#daae00" id="stop22"/>
   <stop offset="1" stop-color="#eca01c" id="stop24"/>
  </linearGradient>
  <linearGradient id="e" y1="-512.8" x1="403.57" y2="-501.8" x2="390.57" gradientUnits="userSpaceOnUse" gradientTransform="translate(-384.57,499.8)">
   <stop stop-color="#f5cd52" id="stop27"/>
   <stop offset="1" stop-color="#f8d474" id="stop29"/>
  </linearGradient>
  <linearGradient id="f" x1="394.57" x2="435.57" gradientUnits="userSpaceOnUse">
   <stop stop-color="#e88f21" id="stop32"/>
   <stop offset="1" stop-color="#e88f21" stop-opacity="0" id="stop34"/>
  </linearGradient>
  <linearGradient id="g" x1="393.57" x2="439.57" gradientUnits="userSpaceOnUse">
   <stop stop-color="#ffffff" id="stop37"/>
   <stop offset="1" stop-color="#ffffff" stop-opacity="0" id="stop39"/>
  </linearGradient>
  <linearGradient gradientUnits="userSpaceOnUse" x2="2" y2="4" x1="46" y1="42" id="a-3" gradientTransform="matrix(0,-1,1,0,0,34)">
   <stop id="stop4202" stop-color="#2f3943"/>
   <stop id="stop4204" stop-color="#4d5662" offset="1"/>
  </linearGradient>
  <linearGradient gradientUnits="userSpaceOnUse" x2="-385.57" y2="503.8" x1="-430.57" y1="541.8" id="b-6" gradientTransform="translate(383.57001,-499.79999)">
   <stop id="stop4207" stop-color="#197cf1"/>
   <stop id="stop4209" stop-color="#21c9fb" offset="1"/>
  </linearGradient>
  <linearGradient gradientTransform="matrix(2,0,0,1,-848.84916,-509.62729)" gradientUnits="userSpaceOnUse" x2="404.57" y2="503.8" x1="408.57" y1="543.8" id="c-7">
   <stop id="stop4212" stop-color="#c61423"/>
   <stop id="stop4214" stop-color="#dc2b41" offset="1"/>
  </linearGradient>
  <linearGradient gradientTransform="translate(-440.26916,-509.62729)" gradientUnits="userSpaceOnUse" x2="429.93" y2="540.8" x1="408.57" y1="503.8" id="d-5">
   <stop id="stop4217"/>
   <stop id="stop4219" stop-opacity="0" offset="1"/>
  </linearGradient>
  <linearGradient id="linearGradient4222" y1="527.014" x1="406.501" y2="539.825" x2="419.974" gradientUnits="userSpaceOnUse" gradientTransform="translate(-386.57,-501.8)">
   <stop style="stop-color:#001043;stop-opacity:1" stop-color="#292c2f" id="stop4224"/>
   <stop style="stop-color:#0f0d45;stop-opacity:0" offset="1" stop-opacity="0" id="stop4226"/>
  </linearGradient>
  <linearGradient id="linearGradient4402">
   <stop id="stop4404" offset="0" style="stop-color:#ffffff;stop-opacity:1;"/>
   <stop id="stop4406" offset="1" style="stop-color:#ffffff;stop-opacity:0;"/>
  </linearGradient>
  <linearGradient x1="428.816" gradientTransform="translate(-384.57,-499.8)" gradientUnits="userSpaceOnUse" x2="388.865" y2="499.679" y1="547.634" id="a-62">
   <stop id="stop7-9" stop-color="#2a2c2f"/>
   <stop id="stop9-1" stop-color="#536161" offset="1"/>
  </linearGradient>
  <linearGradient gradientTransform="translate(50,0)" gradientUnits="userSpaceOnUse" x2="0" y2="14" y1="34" id="b-2">
   <stop style="stop-color:#bfc9c9;stop-opacity:1" id="stop12-7" stop-color="#536161"/>
   <stop style="stop-color:#fbfbfb;stop-opacity:1" id="stop14-0" stop-color="#f4f5f5" offset="1"/>
  </linearGradient>
  <linearGradient gradientTransform="translate(-386.57,-501.8)" gradientUnits="userSpaceOnUse" x2="419.974" y2="539.825" x1="406.501" y1="527.014" id="c-9">
   <stop id="stop17-3" stop-color="#292c2f"/>
   <stop id="stop19-6" stop-opacity="0" offset="1"/>
  </linearGradient>
  <style type="text/css" id="current-color-scheme">
   .ColorScheme-Text { color:#f2f2f2 }
  </style>
  <style type="text/css" id="current-color-scheme-3">
   .ColorScheme-Text { color:#f2f2f2 }
  </style>
  <style type="text/css" id="current-color-scheme-6">
   .ColorScheme-Text { color:#f2f2f2 }
  </style>
  <linearGradient y2="539.825" x2="419.974" y1="527.014" x1="406.501" gradientTransform="translate(-405.64617,-517.76875)" gradientUnits="userSpaceOnUse" id="linearGradient4358-3" xlink:href="#c-9"/>
  <linearGradient gradientUnits="userSpaceOnUse" y2="33.5" x2="32.125" y1="-15.125" x1="11.875" id="linearGradient4408" xlink:href="#linearGradient4402"/>
  <linearGradient y2="539.825" x2="419.974" y1="521.888" x1="412.158" gradientTransform="translate(-389.55242,-517.76875)" gradientUnits="userSpaceOnUse" id="linearGradient4358-6" xlink:href="#c-9"/>
  <linearGradient id="a-6" y1="543.8" y2="503.8" x2="0" gradientUnits="userSpaceOnUse" gradientTransform="matrix(1.125,0,0,1,-476.4338,-500.54872)">
   <stop stop-color="#bd8d48" id="stop4380"/>
   <stop offset="1" stop-color="#e8b971" id="stop4382"/>
  </linearGradient>
  <linearGradient gradientTransform="translate(-425.36379,-500.54873)" id="b-7" y1="541.8" y2="505.8" x2="0" gradientUnits="userSpaceOnUse">
   <stop stop-color="#e3dfd6" id="stop4385"/>
   <stop offset="1" stop-color="#f4f1e8" id="stop4387"/>
  </linearGradient>
  <linearGradient id="c-5" y1="531.8" x1="414.57" y2="543.8" x2="426.57" gradientUnits="userSpaceOnUse">
   <stop stop-color="#383e51" id="stop4390"/>
   <stop offset="1" stop-color="#655c6f" stop-opacity="0" id="stop4392"/>
  </linearGradient>
  <linearGradient gradientTransform="translate(-425.36379,-500.54873)" id="d-0" y1="542.8" y2="504.8" x2="0" gradientUnits="userSpaceOnUse">
   <stop stop-color="#977a5c" id="stop4395"/>
   <stop offset="1" stop-color="#9d8062" id="stop4397"/>
  </linearGradient>
  <linearGradient gradientTransform="translate(-425.36379,-500.54873)" id="e-6" y1="528.8" x1="413.57" y2="533.8" x2="418.57" gradientUnits="userSpaceOnUse">
   <stop stop-color="#bdb49e" stop-opacity=".259" id="stop4400"/>
   <stop offset="1" stop-color="#bdb49e" stop-opacity="0" id="stop4402"/>
  </linearGradient>
  <linearGradient id="a-6-3" y1="543.8" y2="503.8" x2="0" gradientUnits="userSpaceOnUse" gradientTransform="matrix(1.125,0,0,1,-441.64001,-503.79999)">
   <stop stop-color="#bd8d48" id="stop4380-5"/>
   <stop offset="1" stop-color="#e8b971" id="stop4382-6"/>
  </linearGradient>
  <linearGradient gradientUnits="userSpaceOnUse" x2="-385.57" y2="503.8" x1="-430.57" y1="541.8" id="b-6-1" gradientTransform="translate(387.57001,-510.79999)">
   <stop id="stop4207-8" stop-color="#197cf1"/>
   <stop id="stop4209-7" stop-color="#21c9fb" offset="1"/>
  </linearGradient>
  <linearGradient xlink:href="#linearGradient4847" id="linearGradient4845" gradientUnits="userSpaceOnUse" gradientTransform="translate(383.57001,-499.79999)" x1="-331.57" y1="549.742" x2="-383.57" y2="499.8"/>
  <linearGradient gradientUnits="userSpaceOnUse" x2="27" y2="44" x1="8" y1="25" id="a-2" gradientTransform="translate(40,-32)">
   <stop id="stop4858"/>
   <stop id="stop4860" stop-opacity="0" offset="1"/>
  </linearGradient>
  <linearGradient gradientUnits="userSpaceOnUse" x2="0" y2="18" y1="44" id="b-0" gradientTransform="translate(40,-32)">
   <stop id="stop4863" stop-color="#c6cdd1"/>
   <stop id="stop4865" stop-color="#e0e5e7" offset="1"/>
  </linearGradient>
  <linearGradient gradientUnits="userSpaceOnUse" x2="0" y2="16" y1="20" id="c-2">
   <stop id="stop4868" stop-color="#06a370"/>
   <stop id="stop4870" stop-color="#22d1b0" offset="1"/>
  </linearGradient>
  <linearGradient gradientUnits="userSpaceOnUse" x2="0" y2="4" y1="21" id="d-3" xlink:href="#c-2"/>
  <linearGradient gradientUnits="userSpaceOnUse" x2="0" y2="4" y1="15" id="e-7" xlink:href="#c-2"/>
  <linearGradient gradientUnits="userSpaceOnUse" x2="0" y2="7" y1="16" id="f-5" xlink:href="#c-2"/>
  <linearGradient gradientUnits="userSpaceOnUse" x2="0" y2="10" y1="17" id="g-9" xlink:href="#c-2"/>
  <linearGradient gradientUnits="userSpaceOnUse" x2="0" y2="8" y1="17" id="h">
   <stop id="stop4877" stop-color="#c61423"/>
   <stop id="stop4879" stop-color="#dc2b41" offset="1"/>
  </linearGradient>
  <linearGradient gradientUnits="userSpaceOnUse" x2="0" y2="12" y1="17" id="i" xlink:href="#h"/>
  <linearGradient gradientUnits="userSpaceOnUse" x2="0" y2="12" y1="21" id="j" xlink:href="#h"/>
  <linearGradient gradientUnits="userSpaceOnUse" x2="0" y2="10" y1="25" id="k" gradientTransform="translate(-1.5821727,7)">
   <stop id="stop4884" stop-color="#f39c12"/>
   <stop id="stop4886" stop-color="#f5ab35" offset="1"/>
  </linearGradient>
  <linearGradient gradientUnits="userSpaceOnUse" x2="0" y2="10" y1="25" id="k-2" gradientTransform="translate(-8,-12)">
   <stop id="stop4884-2" stop-color="#f39c12"/>
   <stop id="stop4886-8" stop-color="#f5ab35" offset="1"/>
  </linearGradient>
  <linearGradient xlink:href="#linearGradient5169" id="linearGradient5175" x1="18" y1="13" x2="37" y2="33" gradientUnits="userSpaceOnUse"/>
 </defs>
 <rect ry="1" width="40" x="4" y="4" rx="1" height="40" id="rect23" style="color:#000000;clip-rule:nonzero;display:inline;overflow:visible;visibility:visible;opacity:1;isolation:auto;mix-blend-mode:normal;color-interpolation:sRGB;color-interpolation-filters:linearRGB;solid-color:#000000;solid-opacity:1;fill:url(#linearGradient4845);fill-opacity:1;fill-rule:nonzero;stroke-width:0.5;stroke-linecap:butt;stroke-linejoin:round;stroke-miterlimit:4;stroke-dasharray:none;stroke-dashoffset:0;stroke-opacity:1;color-rendering:auto;image-rendering:auto;shape-rendering:auto;text-rendering:auto;enable-background:accumulate;filter-blend-mode:normal;filter-gaussianBlur-deviation:0"/>
 <path style="fill:#000000;stroke-width:0.5;stroke-linejoin:round;fill-opacity:1;opacity:0.656" d="M 5,4 C 4.4459958,4 4,4.4459933 4,5 l 0,7 0,6 0,16 0,9 c 0,0.554007 0.4459958,1 1,1 l 1,0 2,0 2,0 0,-8 28,0 0,8 2,0 2,0 1,0 c 0.554004,0 1,-0.445993 1,-1 L 44,5 C 44,4.4459933 43.554004,4 43,4 l -1,0 0,2 -2,0 0,-2 -2,0 0,6 0,2 -28,0 0,-2 L 10,4 8,4 8,6 6,6 6,4 Z m 1,4 2,0 0,2 -2,0 z m 34,0 2,0 0,2 -2,0 z m -34,4 2,0 0,2 -2,0 z m 34,0 2,0 0,2 -2,0 z m -34,4 2,0 0,2 -2,0 z m 4,-2 28,0 0,2 0,18 -28,0 0,-2 0,-16 z m 30,2 2,0 0,2 -2,0 z m -34,4 2,0 0,2 -2,0 z m 34,0 2,0 0,2 -2,0 z m -34,4 2,0 0,2 -2,0 z m 34,0 2,0 0,2 -2,0 z m -34,4 2,0 0,2 -2,0 z m 34,0 2,0 0,2 -2,0 z m -34,4 2,0 0,2 -2,0 z m 34,0 2,0 0,2 -2,0 z m -34,4 2,0 0,2 -2,0 z m 34,0 2,0 0,2 -2,0 z m -34,4 2,0 0,2 -2,0 z m 34,0 2,0 0,2 -2,0 z" id="path4229"/>
 <path id="rect4185" d="m 3.99999,42.00001 0,1 c 0,0.55401 0.446,1 1,1 l 38,0 c 0.554,0 1,-0.44599 1,-1 l 0,-1 c 0,0.55401 -0.446,1 -1,1 l -38,0 c -0.554,0 -1,-0.44599 -1,-1 z" style="opacity:0.3;fill:#000000;fill-opacity:1"/>
 <path style="opacity:0.3;fill:#ffffff;fill-opacity:1" d="m 3.99999,6.00001 0,-1 c 0,-0.55401 0.446,-1 1,-1 l 38,0 c 0.554,0 1,0.44599 1,1 l 0,1 c 0,-0.55401 -0.446,-1 -1,-1 l -38,0 c -0.554,0 -1,0.44599 -1,1 z" id="path4200"/>
 <path style="fill:url(#linearGradient5175);fill-rule:evenodd;stroke:none;stroke-width:1px;stroke-linecap:butt;stroke-linejoin:miter;stroke-opacity:1;fill-opacity:1;opacity:0.242" d="M 28 14 L 16 26 L 16 30 L 30 44 L 43 44 C 43.554004 44 44 43.554007 44 43 L 44 30 L 28 14 z" id="path5164"/>
 <path d="m 28,14 -11.992,11.992 -0.004,0 0,4.01 4.01,0 0,-0.004 11.992,-11.992 -0.002,-0.002 0.002,-0.002 -4,-4 -0.002,0.002 z m -1.998,3.412 2.59,2.59 -7.588,7.588 0,-1.59 -2,0 0,-1.59 z m -7.998,7.998 0,1.59 2,0 0,1.59 -0.41,0.41 -1.59,0 -1,-1 0,-1.59 z m 5,3.59 -1,1 10,0 0,-1 z" id="path53" style="color:#000000;clip-rule:nonzero;display:inline;overflow:visible;visibility:visible;opacity:0.872;isolation:auto;mix-blend-mode:normal;color-interpolation:sRGB;color-interpolation-filters:linearRGB;solid-color:#000000;solid-opacity:1;fill:#ffffff;fill-opacity:1;fill-rule:evenodd;stroke-width:1;stroke-linecap:butt;stroke-linejoin:miter;stroke-miterlimit:4;stroke-dasharray:none;stroke-dashoffset:0;stroke-opacity:1;color-rendering:auto;image-rendering:auto;shape-rendering:auto;text-rendering:auto;enable-background:accumulate"/>
 <g id="layer3">
  <g id="layer1" style="display:inline" transform="translate(-1e-5,1e-5)">
   <rect ry="1" width="40" x="4" y="4" rx="1" height="40" id="rect4400" style="opacity:0.43600003;fill:url(#linearGradient4408);fill-opacity:1"/>
  </g>
 </g>
 <rect style="color:#000000;clip-rule:nonzero;display:inline;overflow:visible;visibility:visible;opacity:0.872;isolation:auto;mix-blend-mode:normal;color-interpolation:sRGB;color-interpolation-filters:linearRGB;solid-color:#000000;solid-opacity:1;fill:#ffffff;fill-opacity:1;fill-rule:evenodd;stroke:none;stroke-width:1;stroke-linecap:butt;stroke-linejoin:miter;stroke-miterlimit:4;stroke-dasharray:none;stroke-dashoffset:0;stroke-opacity:1;marker:none;color-rendering:auto;image-rendering:auto;shape-rendering:auto;text-rendering:auto;enable-background:accumulate" id="rect5158" width="12" height="1" x="18" y="31" rx="0" ry="1"/>
</svg>
