<?xml version="1.0" encoding="UTF-8" standalone="no"?>
<svg xmlns="http://www.w3.org/2000/svg" xmlns:xlink="http://www.w3.org/1999/xlink" width="48" height="48" version="1.1">
 <defs>
  <linearGradient id="linearGradient4166">
   <stop style="stop-color:#f11c1c;stop-opacity:1" offset="0"/>
   <stop style="stop-color:#e05e4c;stop-opacity:1" offset="1"/>
  </linearGradient>
  <linearGradient gradientUnits="userSpaceOnUse" x2="0" y2="503.8" y1="544.8" id="linearGradient4173">
   <stop offset="0" stop-color="#44484c"/>
   <stop stop-color="#1d1e1e" offset="1"/>
  </linearGradient>
  <linearGradient id="linearGradient4282">
   <stop style="stop-color:#000000;stop-opacity:1;" offset="0"/>
   <stop style="stop-color:#000000;stop-opacity:0;" offset="1"/>
  </linearGradient>
  <linearGradient xlink:href="#linearGradient4166" id="linearGradient4193" gradientUnits="userSpaceOnUse" gradientTransform="translate(-384.565,-499.911)" y1="544.8" x2="0" y2="503.8"/>
  <linearGradient xlink:href="#linearGradient4173" id="linearGradient4246" gradientUnits="userSpaceOnUse" gradientTransform="matrix(-0.5,-0.8660254,0.8660254,-0.5,-225.78977,640.96597)" y1="532.205" x2="386.827" y2="524.418" x1="428.029"/>
  <linearGradient xlink:href="#linearGradient4166" id="linearGradient4248" gradientUnits="userSpaceOnUse" gradientTransform="matrix(-0.5,-0.8660254,0.8660254,-0.5,-225.88839,641.01714)" y1="544.8" x2="0" y2="503.8"/>
  <linearGradient xlink:href="#linearGradient4282" id="linearGradient4288" x1="7.669" y1="14.513" x2="42.224" y2="34.463" gradientUnits="userSpaceOnUse"/>
  <linearGradient xlink:href="#linearGradient4166" id="linearGradient4172" x1="18.437" y1="38.559" x2="13.059" y2="31.145" gradientUnits="userSpaceOnUse"/>
 </defs>
 <path style="fill:url(#linearGradient4246);fill-opacity:1.0" d="M 27.25 4.0097656 C 27.25 4.0097656 20.851579 4.0444425 20.544922 4.0546875 C 19.811451 4.1634482 18.988281 4.7734375 18.988281 4.7734375 C 19.006781 4.7787575 19.025995 4.7478441 19.046875 4.7519531 C 19.611993 4.4143661 20.497393 4.3481014 21.050781 4.90625 L 22.265625 7.0097656 L 24.349609 10.619141 L 26.978516 15.171875 C 25.791083 15.849818 23.513672 17.171875 23.513672 17.171875 L 34.441406 20.099609 L 37.373047 9.1777344 C 37.373047 9.1777344 33.903769 11.16758 33.90625 11.171875 L 30.289062 4.9082031 C 29.883264 4.3361609 29.215336 4.1208191 28.640625 4.0253906 C 28.512291 4.0071086 27.906232 4.0003936 27.25 4.0097656 z M 15.244141 18.751953 L 4.3183594 21.675781 C 4.3183594 21.675781 7.77877 23.683983 7.78125 23.679688 L 4.1640625 29.943359 C 3.8715582 30.580811 4.0198976 31.267072 4.2246094 31.8125 C 4.2729444 31.932782 4.5700174 32.461762 4.90625 33.025391 C 4.90625 33.025391 8.1346742 38.548144 8.296875 38.808594 C 8.7578001 39.389418 9.6972656 39.798828 9.6972656 39.798828 C 9.6926256 39.780148 9.6572736 39.779906 9.6503906 39.759766 C 9.0754729 39.439151 8.5745733 38.703635 8.78125 37.945312 L 9.9960938 35.841797 L 12.080078 32.232422 L 14.708984 27.679688 C 15.889817 28.369063 18.171875 29.679687 18.171875 29.679688 L 15.244141 18.751953 z M 31 28 L 23 36 L 30.994141 44 C 30.994141 44 31.00496 40 31 40 L 38.232422 40 C 38.930724 39.93459 39.450314 39.463672 39.820312 39.013672 C 39.900312 38.911672 40.21125 38.389406 40.53125 37.816406 C 40.53125 37.816406 43.699294 32.258976 43.84375 31.988281 C 44.116296 31.298696 44 30.28125 44 30.28125 C 43.98614 30.29461 44.004234 30.325767 43.990234 30.341797 C 44.000034 30.999997 43.613581 31.799826 42.853516 32 L 40.423828 32 L 36.255859 32 L 31 32 C 31.0066 30.632681 31 28 31 28 z"/>
 <path d="m 13.00433,14.53975 6.771334,3.924028 c 0.01892,-0.01323 0.61996,-1.024197 1.330171,-2.254075 0.710846,-1.22678 1.736479,-2.986332 2.269088,-3.905825 l 0.0035,-0.002 0.971155,-1.681911 -3.2985,-5.7131695 C 20.492605,4.3435561 19.600291,4.3160241 19.029351,4.7611267 18.669444,5.0497484 18.549621,5.18821 18.229369,5.7195176 17.776628,6.4693463 13.00866,14.53725 13,14.54225" style="fill:url(#linearGradient4248);fill-opacity:1.0"/>
 <path style="fill:url(#linearGradient4193);fill-opacity:1.0" d="m 38.361,20.115 -6.611,4.002 c 0.002,0.023 0.577,1.049 1.287,2.279 0.707,1.229 1.718,2.997 2.248,3.918 l 0,0.004 0.971,1.682 6.597,0 C 43.62,31.798 44.09,31.039 43.99,30.322 43.92,29.866 43.86,29.693 43.56,29.15 43.137,28.383 38.361,20.12 38.361,20.11"/>
 <path d="M 20.997835,39.9975 21,32 c 0,0 -6.111712,-0.0017 -8.919481,0 L 8.7820189,37.945186 C 8.573456,38.710428 8.9957693,39.49696 9.6667095,39.768857 10.096617,39.936236 10.27644,39.970774 10.896692,39.982466 11.772469,39.999638 20.993505,39.995 21.002165,40" style="fill:url(#linearGradient4172);fill-opacity:1"/>
 <path style="opacity:0.2;fill:url(#linearGradient4288);fill-opacity:1;stroke:none;stroke-width:4;stroke-linecap:round;stroke-linejoin:round;stroke-miterlimit:4;stroke-dasharray:none;stroke-opacity:1" d="M 13.744141 13.289062 C 13.576651 13.571518 13.001231 14.542258 13 14.542969 L 13.003906 14.539062 L 19.775391 18.462891 C 19.78598 18.455486 20.227169 17.6971 20.519531 17.201172 L 13.744141 13.289062 z M 15.244141 18.751953 L 4.3183594 21.675781 C 4.3183594 21.675781 7.77877 23.683983 7.78125 23.679688 L 7.7714844 23.697266 L 14.699219 27.697266 L 14.708984 27.679688 C 15.889817 28.369063 18.171875 29.679687 18.171875 29.679688 L 15.244141 18.751953 z M 32.115234 23.896484 L 31.75 24.117188 C 31.752 24.140187 32.327109 25.166484 33.037109 26.396484 C 33.744109 27.625484 34.755156 29.393453 35.285156 30.314453 L 35.285156 30.318359 L 36.255859 32 L 31 32 C 31.0066 30.632681 31 28 31 28 L 25.226562 33.773438 L 36.009766 40 L 38.232422 40 C 38.930724 39.93459 39.450314 39.463672 39.820312 39.013672 C 39.900312 38.911672 40.21125 38.389406 40.53125 37.816406 C 40.53125 37.816406 43.699294 32.258976 43.84375 31.988281 C 44.00504 31.580192 44.025906 31.126491 44.019531 30.767578 L 32.115234 23.896484 z"/>
</svg>
