<svg width="48" xmlns="http://www.w3.org/2000/svg" viewBox="0 0 48 48" height="48" xmlns:xlink="http://www.w3.org/1999/xlink">
 <defs>
  <linearGradient id="a" y1="543.8" y2="503.8" x2="0" gradientUnits="userSpaceOnUse" gradientTransform="translate(-817.14)">
   <stop stop-color="#18222a"/>
   <stop offset="1" stop-color="#566069"/>
  </linearGradient>
  <linearGradient id="b" y1="517.8" x1="399.57" y2="534.8" x2="416.57" gradientUnits="userSpaceOnUse">
   <stop/>
   <stop offset="1" stop-opacity="0"/>
  </linearGradient>
  <linearGradient id="c" y1="537.8" y2="508.8" gradientUnits="userSpaceOnUse" x2="0">
   <stop stop-color="#026ddc"/>
   <stop offset="1" stop-color="#28b0fd"/>
  </linearGradient>
  <linearGradient id="d" y1="525.28" x1="408.65" y2="533.28" x2="416.65" gradientUnits="userSpaceOnUse" gradientTransform="translate(-.081-.48)">
   <stop stop-opacity=".065"/>
   <stop offset="1" stop-opacity="0"/>
  </linearGradient>
  <linearGradient xlink:href="#d" id="e" y1="517.96" x1="417.79" y2="525.91" gradientUnits="userSpaceOnUse" x2="426.22" gradientTransform="matrix(-1 0 0 1 817.2-.48)"/>
 </defs>
 <g transform="translate(-384.57-499.8)">
  <rect width="40" x="-428.57" y="503.8" stroke-opacity=".55" fill="url(#a)" rx="20" height="40" stroke-width="2.8" transform="scale(-1 1)"/>
  <path opacity=".2" fill="url(#b)" fill-rule="evenodd" d="m398.28 532.51l10.291 10.291c6 1 17.781-10.52 20-16l-20-18z"/>
  <path stroke-opacity=".55" fill="#161e25" stroke-width="2.8" d="m388.58 523.3c-.004.167-.012.332-.012.5 0 11.08 8.92 20 20 20 11.08 0 20-8.92 20-20 0-.168-.008-.333-.012-.5-.264 10.847-9.08 19.5-19.988 19.5-10.912 0-19.724-8.653-19.988-19.5"/>
  <path fill="url(#c)" d="m408.57 508.8c-.093-.003-.183.034-.248.101-.931.971-1.877 2.061-2.732 3.099-.001.001 0 .003 0 .004-2.107 2.628-3.709 5.328-4.869 8.218-1.081 2.693-1.713 5.02-2.288 8.416-.126.743-.253 1.644-.341 2.368-.044.362-.078.68-.097.915-.01.118-.015.214-.017.292-.001.039 0 .072 0 .112 0 .02 0 .042.014.079.01.037 0 .111.149.202.08.049.09.039.11.044.02.005.035.008.051.011.032.005.066.009.105.013.078.008.174.016.276.022.808.044 1.999.25 2.789.481.533.156.884.285 1.405.516.12.053.231.102.313.138.041.018.075.032.1.042.012.005.023.009.032.013.001.001.002.002.001.002 0 .002.01.004.014.007v-.003c0 .001 0 .001 0 .002.01.002.01.004.019.007 0 .001.01.004.012.005 0-.001-.011 0-.013-.001.023.012.05.028.087.048.088.048.209.116.341.19 1.275.716 2.228 1.455 3.75 2.914.201.192.387.366.529.495.071.064.13.118.176.157.023.02.043.036.064.052.01.008.021.016.038.028.01.005.02.012.039.022.02.009.039.028.13.033.109.005.131-.019.153-.029.022-.01.034-.017.043-.023.019-.012.03-.02.041-.029.022-.017.043-.034.068-.055.05-.042.115-.1.192-.169.154-.139.358-.327.578-.536 1.259-1.194 1.869-1.699 2.746-2.281 1.915-1.271 3.621-1.834 6.24-2.056l.212-.018c.171-.014.302-.157.302-.328v-.125c0-.26-.062-.798-.146-1.464-.084-.666-.19-1.424-.287-2-.575-3.424-1.228-5.836-2.323-8.562-.986-2.457-2.399-4.938-4.087-7.184 0-.005-.01-.01-.012-.015-1.136-1.345-2.235-2.756-3.434-4.065-.06-.066-.144-.104-.233-.107z"/>
  <g fill-rule="evenodd">
   <path fill="url(#d)" d="m415.83 519.04l-17.797 13.467c.02.03.042.063.102.1.08.049.092.038.111.043.02.005.035.009.051.012.032.005.067.008.105.012.078.008.174.018.275.023.808.044 1.999.249 2.789.48.533.156.886.285 1.406.516.12.053.23.101.313.137.041.018.074.032.1.043.012.005.022.01.031.014.001 0 .003 0 .004 0l.002.002c.004.002.007.003.014.006h.002c.005.002.008.003.018.006.004.001.007.005.012.006-.003-.001-.01-.001-.012-.002.023.012.049.028.086.049.088.048.21.115.342.189 1.275.716 2.228 1.455 3.75 2.914.201.192.388.367.529.496.071.064.129.116.176.156.023.02.043.037.065.053.01.008.021.016.039.027.009.005.019.012.039.021.02.009.038.029.129.033.109.005.132-.019.154-.029.022-.01.033-.018.043-.023.019-.012.03-.019.041-.027.022-.017.043-.034.068-.055.05-.042.114-.101.191-.17.154-.139.358-.327.578-.535 1.259-1.194 1.869-1.699 2.746-2.281 1.915-1.271 3.621-1.834 6.24-2.055l.211-.018c.171-.014.303-.159.303-.33v-.123c0-.26-.063-.799-.146-1.465-.084-.666-.19-1.424-.287-2-.575-3.424-1.227-5.836-2.322-8.563-.151-.376-.329-.752-.5-1.129"/>
   <path fill="url(#e)" d="m401.29 519.04l17.797 13.467c-.02.03-.042.063-.102.1-.08.049-.092.038-.111.043-.02.005-.035.009-.051.012-.032.005-.067.008-.105.012-.078.008-.174.018-.275.023-.808.044-1.999.249-2.789.48-.533.156-.886.285-1.406.516-.12.053-.23.101-.313.137-.041.018-.074.032-.1.043-.012.005-.022.01-.031.014-.001 0-.003 0-.004 0l-.002.002c-.004.002-.007.003-.014.006h-.002c-.005.002-.008.003-.018.006-.004.001-.007.005-.012.006.003-.001.01-.001.012-.002-.023.012-.049.028-.086.049-.088.048-.21.115-.342.189-1.275.716-2.228 1.455-3.75 2.914-.201.192-.388.367-.529.496-.071.064-.129.116-.176.156-.023.02-.043.037-.065.053-.01.008-.021.016-.039.027-.009.005-.019.012-.039.021-.02.009-.038.029-.129.033-.109.005-.132-.019-.154-.029-.022-.01-.033-.018-.043-.023-.019-.012-.03-.019-.041-.027-.022-.017-.043-.034-.068-.055-.05-.042-.114-.101-.191-.17-.154-.139-.358-.327-.578-.535-1.259-1.194-1.869-1.699-2.746-2.281-1.915-1.271-3.621-1.834-6.24-2.055l-.211-.018c-.171-.014-.303-.159-.303-.33v-.123c0-.26.063-.799.146-1.465.084-.666.19-1.424.287-2 .575-3.424 1.227-5.836 2.322-8.563.151-.376.329-.752.5-1.129"/>
  </g>
 </g>
</svg>
