<?xml version="1.0" encoding="UTF-8" standalone="no"?>
<svg xmlns="http://www.w3.org/2000/svg" xmlns:xlink="http://www.w3.org/1999/xlink" width="48" height="48" id="svg2" version="1.1">
 <defs id="defs4">
  <linearGradient id="linearGradient4298">
   <stop style="stop-color:#000000;stop-opacity:1;" offset="0" id="stop4300"/>
   <stop style="stop-color:#000000;stop-opacity:0;" offset="1" id="stop4302"/>
  </linearGradient>
  <linearGradient id="linearGradient4214">
   <stop style="stop-color:#ffffff;stop-opacity:1;" offset="0" id="stop4216"/>
   <stop style="stop-color:#ffffff;stop-opacity:0;" offset="1" id="stop4218"/>
  </linearGradient>
  <linearGradient id="a" y1="547.634" y2="499.679" x2="388.865" gradientUnits="userSpaceOnUse" gradientTransform="translate(-384.57,-499.8)" x1="428.816">
   <stop stop-color="#2a2c2f" id="stop7"/>
   <stop offset="1" stop-color="#536161" id="stop9"/>
  </linearGradient>
  <linearGradient id="b" y1="44" y2="12" x2="14" gradientUnits="userSpaceOnUse" x1="36">
   <stop stop-color="#536161" id="stop12" style="stop-color:#bfc9c9;stop-opacity:1"/>
   <stop offset="1" stop-color="#f4f5f5" id="stop14" style="stop-color:#fbfbfb;stop-opacity:1"/>
  </linearGradient>
  <linearGradient id="c" y1="529.8" x1="418.57" y2="539.825" x2="419.974" gradientUnits="userSpaceOnUse" gradientTransform="translate(-384.57,-499.8)">
   <stop stop-color="#292c2f" id="stop17"/>
   <stop offset="1" stop-opacity="0" id="stop19"/>
  </linearGradient>
  <style id="current-color-scheme" type="text/css">
   .ColorScheme-Text { color:#4d4d4d; }
  </style>
  <linearGradient xlink:href="#linearGradient4214" id="linearGradient4220" x1="1" y1="0" x2="25" y2="27" gradientUnits="userSpaceOnUse"/>
  <linearGradient id="c-6" y1="527.014" x1="406.501" y2="539.825" x2="419.974" gradientUnits="userSpaceOnUse" gradientTransform="translate(-404.99,-523.8)">
   <stop stop-color="#292c2f" id="stop17-7"/>
   <stop offset="1" stop-opacity="0" id="stop19-5"/>
  </linearGradient>
  <linearGradient xlink:href="#linearGradient4298" id="linearGradient4304" x1="26.929" y1="5.995" x2="47.121" y2="37.127" gradientUnits="userSpaceOnUse"/>
 </defs>
 <rect style="fill:#2d3033;fill-opacity:1" id="rect23" height="40" rx="1" y="4" x="4" width="40" ry="1"/>
 <path style="color:#000000;clip-rule:nonzero;display:inline;overflow:visible;visibility:visible;opacity:0.4;isolation:auto;mix-blend-mode:normal;color-interpolation:sRGB;color-interpolation-filters:linearRGB;solid-color:#000000;solid-opacity:1;fill:url(#linearGradient4304);fill-opacity:1;fill-rule:evenodd;stroke:none;stroke-width:1;stroke-linecap:butt;stroke-linejoin:miter;stroke-miterlimit:4;stroke-dasharray:none;stroke-dashoffset:0;stroke-opacity:1;color-rendering:auto;image-rendering:auto;shape-rendering:auto;text-rendering:auto;enable-background:accumulate" d="M 9.2310583,29.687039 22.544019,43 44,43 43.996094,26.875 34.03125,16.890625 9.28125,19.742187 18,28.460937 Z" id="path4265"/>
 <path style="fill:#000000;fill-opacity:1;opacity:0.3" d="M 4 42 L 4 43 C 4 43.554007 4.4459958 44 5 44 L 43 44 C 43.554004 44 44 43.554007 44 43 L 44 42 C 44 42.554007 43.554004 43 43 43 L 5 43 C 4.4459958 43 4 42.554007 4 42 z" id="rect4185"/>
 <path id="path4200" d="M 4,6 4,5 C 4,4.445993 4.445996,4 5,4 l 38,0 c 0.554004,0 1,0.445993 1,1 l 0,1 C 44,5.445993 43.554004,5 43,5 L 5,5 C 4.445996,5 4,5.445993 4,6 Z" style="opacity:0.3;fill:#ffffff;fill-opacity:1"/>
 <rect style="color:#000000;clip-rule:nonzero;display:inline;overflow:visible;visibility:visible;opacity:0.194;isolation:auto;mix-blend-mode:normal;color-interpolation:sRGB;color-interpolation-filters:linearRGB;solid-color:#000000;solid-opacity:1;fill:#ffffff;fill-opacity:1;fill-rule:evenodd;stroke:none;stroke-width:1;stroke-linecap:butt;stroke-linejoin:miter;stroke-miterlimit:4;stroke-dasharray:none;stroke-dashoffset:0;stroke-opacity:1;marker:none;color-rendering:auto;image-rendering:auto;shape-rendering:auto;text-rendering:auto;enable-background:accumulate" id="rect4159" width="30" height="2" x="9" y="18" rx="1" ry=".956"/>
 <path id="path4172" d="m 9.9614367,17.987883 c -0.5571194,0 -1.0056309,0.448511 -1.0056309,1.005631 0,0.55712 0.4485115,1.005631 1.0056309,1.005631 l 21.0563103,0 0,-2.011262 z" style="color:#000000;clip-rule:nonzero;display:inline;overflow:visible;visibility:visible;opacity:1;isolation:auto;mix-blend-mode:normal;color-interpolation:sRGB;color-interpolation-filters:linearRGB;solid-color:#000000;solid-opacity:1;fill:#3daee9;fill-opacity:1;fill-rule:evenodd;stroke:none;stroke-width:1;stroke-linecap:butt;stroke-linejoin:miter;stroke-miterlimit:4;stroke-dasharray:none;stroke-dashoffset:0;stroke-opacity:1;marker:none;color-rendering:auto;image-rendering:auto;shape-rendering:auto;text-rendering:auto;enable-background:accumulate"/>
 <path style="color:#000000;clip-rule:nonzero;display:inline;overflow:visible;visibility:visible;opacity:0.3;isolation:auto;mix-blend-mode:normal;color-interpolation:sRGB;color-interpolation-filters:linearRGB;solid-color:#000000;solid-opacity:1;fill:#ffffff;fill-opacity:1;fill-rule:evenodd;stroke:none;stroke-width:1;stroke-linecap:butt;stroke-linejoin:miter;stroke-miterlimit:4;stroke-dasharray:none;stroke-dashoffset:0;stroke-opacity:1;marker:none;color-rendering:auto;image-rendering:auto;shape-rendering:auto;text-rendering:auto;enable-background:accumulate" d="M 9.9609375 17.988281 C 9.4038181 17.988281 8.9550781 18.437021 8.9550781 18.994141 C 8.9550781 19.088867 8.9855035 19.172989 9.0097656 19.259766 C 9.1277856 18.835543 9.4980923 18.519531 9.9609375 18.519531 L 31.017578 18.519531 L 31.017578 17.988281 L 9.9609375 17.988281 z" id="path4242"/>
 <circle r="2.912" cy="18.939" cx="31.972" id="circle4174" style="color:#000000;clip-rule:nonzero;display:inline;overflow:visible;visibility:visible;opacity:1;isolation:auto;mix-blend-mode:normal;color-interpolation:sRGB;color-interpolation-filters:linearRGB;solid-color:#000000;solid-opacity:1;fill:#fafafa;fill-opacity:1;fill-rule:evenodd;stroke:none;stroke-width:1;stroke-linecap:butt;stroke-linejoin:miter;stroke-miterlimit:4;stroke-dasharray:none;stroke-dashoffset:0;stroke-opacity:1;marker:none;color-rendering:auto;image-rendering:auto;shape-rendering:auto;text-rendering:auto;enable-background:accumulate"/>
 <g id="layer2" style="display:inline">
  <rect ry="1" width="40" x="4" y="4" rx="1" height="40" id="rect4212" style="opacity:0.27600002;fill:url(#linearGradient4220);fill-opacity:1"/>
 </g>
 <rect ry=".823" rx="1" y="28" x="9" height="2" width="30" id="rect4225" style="color:#000000;clip-rule:nonzero;display:inline;overflow:visible;visibility:visible;opacity:0.194;isolation:auto;mix-blend-mode:normal;color-interpolation:sRGB;color-interpolation-filters:linearRGB;solid-color:#000000;solid-opacity:1;fill:#ffffff;fill-opacity:1;fill-rule:evenodd;stroke:none;stroke-width:1;stroke-linecap:butt;stroke-linejoin:miter;stroke-miterlimit:4;stroke-dasharray:none;stroke-dashoffset:0;stroke-opacity:1;marker:none;color-rendering:auto;image-rendering:auto;shape-rendering:auto;text-rendering:auto;enable-background:accumulate"/>
 <path style="color:#000000;clip-rule:nonzero;display:inline;overflow:visible;visibility:visible;opacity:1;isolation:auto;mix-blend-mode:normal;color-interpolation:sRGB;color-interpolation-filters:linearRGB;solid-color:#000000;solid-opacity:1;fill:#3daee9;fill-opacity:1;fill-rule:evenodd;stroke:none;stroke-width:1;stroke-linecap:butt;stroke-linejoin:miter;stroke-miterlimit:4;stroke-dasharray:none;stroke-dashoffset:0;stroke-opacity:1;marker:none;color-rendering:auto;image-rendering:auto;shape-rendering:auto;text-rendering:auto;enable-background:accumulate" d="m 9.9614367,27.987883 c -0.5571194,0 -1.0056309,0.448511 -1.0056309,1.005631 0,0.55712 0.4485115,1.005631 1.0056309,1.005631 l 11.0563103,0 0,-2.011262 z" id="path4227"/>
 <path id="path4247" d="m 9.9609375,27.988281 c -0.5571194,0 -1.0058594,0.44874 -1.0058594,1.00586 0,0.09473 0.030425,0.178848 0.054687,0.265625 0.11802,-0.424223 0.4883267,-0.740235 0.9511719,-0.740235 l 11.056641,0 0,-0.53125 z" style="color:#000000;clip-rule:nonzero;display:inline;overflow:visible;visibility:visible;opacity:0.3;isolation:auto;mix-blend-mode:normal;color-interpolation:sRGB;color-interpolation-filters:linearRGB;solid-color:#000000;solid-opacity:1;fill:#ffffff;fill-opacity:1;fill-rule:evenodd;stroke:none;stroke-width:1;stroke-linecap:butt;stroke-linejoin:miter;stroke-miterlimit:4;stroke-dasharray:none;stroke-dashoffset:0;stroke-opacity:1;marker:none;color-rendering:auto;image-rendering:auto;shape-rendering:auto;text-rendering:auto;enable-background:accumulate"/>
 <circle style="color:#000000;clip-rule:nonzero;display:inline;overflow:visible;visibility:visible;opacity:1;isolation:auto;mix-blend-mode:normal;color-interpolation:sRGB;color-interpolation-filters:linearRGB;solid-color:#000000;solid-opacity:1;fill:#fafafa;fill-opacity:1;fill-rule:evenodd;stroke:none;stroke-width:1;stroke-linecap:butt;stroke-linejoin:miter;stroke-miterlimit:4;stroke-dasharray:none;stroke-dashoffset:0;stroke-opacity:1;marker:none;color-rendering:auto;image-rendering:auto;shape-rendering:auto;text-rendering:auto;enable-background:accumulate" id="circle4229" cx="19.972" cy="28.939" r="2.912"/>
 <path style="color:#000000;clip-rule:nonzero;display:inline;overflow:visible;visibility:visible;opacity:0.15;isolation:auto;mix-blend-mode:normal;color-interpolation:sRGB;color-interpolation-filters:linearRGB;solid-color:#000000;solid-opacity:1;fill:#000000;fill-opacity:1;fill-rule:evenodd;stroke:none;stroke-width:1;stroke-linecap:butt;stroke-linejoin:miter;stroke-miterlimit:4;stroke-dasharray:none;stroke-dashoffset:0;stroke-opacity:1;marker:none;color-rendering:auto;image-rendering:auto;shape-rendering:auto;text-rendering:auto;enable-background:accumulate" d="M 34.876953 18.724609 A 2.9116116 2.9116116 0 0 1 31.972656 21.476562 A 2.9116116 2.9116116 0 0 1 29.068359 18.777344 A 2.9116116 2.9116116 0 0 0 29.060547 18.939453 A 2.9116116 2.9116116 0 0 0 31.972656 21.851562 A 2.9116116 2.9116116 0 0 0 34.884766 18.939453 A 2.9116116 2.9116116 0 0 0 34.876953 18.724609 z" id="circle4231"/>
 <path id="path4240" d="m 22.876953,28.724609 a 2.9116116,2.9116116 0 0 1 -2.904297,2.751953 2.9116116,2.9116116 0 0 1 -2.904297,-2.699218 2.9116116,2.9116116 0 0 0 -0.0078,0.162109 2.9116116,2.9116116 0 0 0 2.912109,2.912109 2.9116116,2.9116116 0 0 0 2.91211,-2.912109 2.9116116,2.9116116 0 0 0 -0.0078,-0.214844 z" style="color:#000000;clip-rule:nonzero;display:inline;overflow:visible;visibility:visible;opacity:0.15;isolation:auto;mix-blend-mode:normal;color-interpolation:sRGB;color-interpolation-filters:linearRGB;solid-color:#000000;solid-opacity:1;fill:#000000;fill-opacity:1;fill-rule:evenodd;stroke:none;stroke-width:1;stroke-linecap:butt;stroke-linejoin:miter;stroke-miterlimit:4;stroke-dasharray:none;stroke-dashoffset:0;stroke-opacity:1;marker:none;color-rendering:auto;image-rendering:auto;shape-rendering:auto;text-rendering:auto;enable-background:accumulate"/>
</svg>
