<?xml version="1.0" encoding="UTF-8" standalone="no"?>
<svg xmlns="http://www.w3.org/2000/svg" xmlns:xlink="http://www.w3.org/1999/xlink" width="48" height="48" version="1.1">
 <defs>
  <linearGradient id="linearGradient4179">
   <stop style="stop-color:#000000;stop-opacity:1;" offset="0"/>
   <stop style="stop-color:#000000;stop-opacity:0;" offset="1"/>
  </linearGradient>
  <linearGradient id="linearGradient4165">
   <stop style="stop-color:#ffffff;stop-opacity:1;" offset="0"/>
   <stop style="stop-color:#7cafec;stop-opacity:1" offset="1"/>
  </linearGradient>
  <linearGradient gradientTransform="translate(-384.57146,-499.798)" xlink:href="#1" id="0" x1="417.634" y1="540.799" x2="399.646" y2="500.893" gradientUnits="userSpaceOnUse"/>
  <linearGradient id="1">
   <stop stop-color="#105be2" style="stop-color:#2579b0;stop-opacity:1"/>
   <stop offset="1" stop-color="#26dbfc" style="stop-color:#7cbfec;stop-opacity:1"/>
  </linearGradient>
  <linearGradient xlink:href="#linearGradient4165" id="linearGradient4171" x1="19" y1="12" x2="29" y2="36" gradientUnits="userSpaceOnUse"/>
  <linearGradient xlink:href="#linearGradient4179" id="linearGradient4185" x1="20" y1="16" x2="36" y2="32" gradientUnits="userSpaceOnUse"/>
 </defs>
 <rect height="40" rx="20" y="4" x="4" width="40" style="opacity:1;fill:url(#0);stroke-width:2.79999995;stroke-opacity:0.55026502"/>
 <path style="opacity:0.3;fill:url(#linearGradient4185);fill-opacity:1;stroke:none;stroke-width:2;stroke-linecap:round;stroke-linejoin:round;stroke-miterlimit:4;stroke-dasharray:none;stroke-opacity:1" d="M 20.660156 12.837891 L 12.330078 23.666016 L 14.521484 32.916016 L 25.628906 44.025391 C 35.44762 43.209048 43.202802 35.362462 43.880859 25.503906 L 32.845703 14.46875 L 20.660156 12.837891 z"/>
 <path style="fill:url(#linearGradient4171);fill-opacity:1" d="M 24 11 C 16.813185 11 11 16.81386 11 24 C 11 31.185996 16.813185 37 24 37 C 31.186845 37 37 31.185996 37 24 C 37 16.81386 31.186845 11 24 11 z M 21 20 L 21 22 L 27 22 L 27 20 L 30.572266 22 L 34 24 L 30.572266 26 L 27 28 L 27 26 L 21 26 L 21 28 L 17.427734 26 L 14 24 L 17.427734 22 L 21 20 z"/>
 <path style="opacity:0.15;fill:#000000;stroke-width:2.79999995;stroke-opacity:0.55026502;fill-opacity:1" d="M 4.0117188 23.5 C 4.007647 23.666859 4 23.832126 4 24 C 4 35.079992 12.920008 44 24 44 C 35.079992 44 44 35.079992 44 24 C 44 23.832126 43.992353 23.666859 43.988281 23.5 C 43.724099 34.346571 34.912435 43 24 43 C 13.087565 43 4.2759007 34.346571 4.0117188 23.5 z"/>
</svg>
