<svg height="48" width="48" xmlns="http://www.w3.org/2000/svg" xmlns:xlink="http://www.w3.org/1999/xlink">
  <linearGradient id="a" gradientUnits="userSpaceOnUse" x1="-20" x2="-20" xlink:href="#b" y1="44" y2="4"/>
  <linearGradient id="b" gradientUnits="userSpaceOnUse" x2="0" y1="543.79999" y2="503.79999">
    <stop offset="0" stop-color="#197cf1"/>
    <stop offset="1" stop-color="#20bcfa"/>
  </linearGradient>
  <linearGradient id="c" gradientUnits="userSpaceOnUse" x1="19" x2="44" y1="19" y2="44">
    <stop offset="0" stop-color="#292c2f"/>
    <stop offset="1" stop-color="#292c2f" stop-opacity="0"/>
  </linearGradient>
  <circle cx="24" cy="24" fill="url(#a)" r="20"/>
  <path d="m4.0120019 23.5c-.004.167-.012.332-.012.5 0 11.08 8.9200001 20 20.0000011 20 11.08 0 20.000001-8.92 20.000001-20 0-.168-.008-.333-.012-.5-.264 10.847-9.080001 19.5-19.988001 19.5-10.912001 0-19.7240012-8.653-19.9880011-19.5" fill="#0c69cf" stroke-opacity=".55" stroke-width="2.8"/>
  <path d="m33.296868 15.205084-22.07031 8.976563 8.2461 8.248047c-.13052.169991-.2666.348561-.39649.517578l10.24024 10.240234a20 20 0 0 0 14.51171-17.435547z" fill="url(#c)" opacity=".2"/>
  <path d="m16.88054 26.280237 1.828563 5.95738s.192865.582875.369099.720514c.176235.137642.353731.151557.353731.151557l12.202033-15.699269-1.989362-.652333z" fill="#bed6e8"/>
  <path d="m19.878559 27.560931-.616286 5.394978s-.0028.128878.175318.159386c.178116.03051.344535-.159703.344535-.159703l3.404733-2.992428z" fill="#9dbfd6"/>
  <path d="m11.478741 23.010536s-.502821.253433-.47784.692362c.02498.438929.477788.674597.477788.674597l5.401851 1.902742 12.416186-8.008615s.240109-.104876.355388.03497c.115276.139844-.08786.325947-.08786.325947l-9.6857 8.928388 8.278189 6.157106s.440719.319824.927365.278239c.486645-.04159.75084-.681601.75084-.681601l.307659-1.096974 1.062966-4.337714.860541-3.949888.491814-2.434957.668192-3.93143.251773-1.504623s.175444-.6313-.269352-.918882-1.067864-.04364-1.067864-.04364z" fill="#f1f7fc"/>
</svg>
