<svg width="48" xmlns="http://www.w3.org/2000/svg" height="48">
 <defs>
  <linearGradient id="a" y1="8.318" y2="37.24" x1="11.825" x2="38.882" gradientUnits="userSpaceOnUse">
   <stop/>
   <stop offset="1" stop-opacity="0"/>
  </linearGradient>
  <linearGradient id="b" y1="43.943" y2="3.77" x2="0" gradientUnits="userSpaceOnUse">
   <stop stop-color="#663579"/>
   <stop offset="1" stop-color="#16a085"/>
  </linearGradient>
  <linearGradient id="c" y1="35.601" x1="37.46" y2="21.467" x2="23.68" gradientUnits="userSpaceOnUse">
   <stop stop-color="#735a93"/>
   <stop offset="1" stop-color="#8b6cb1"/>
  </linearGradient>
 </defs>
 <g image-rendering="optimizeSpeed">
  <path fill="url(#b)" d="m43.39 18.915c-.047-.184-.1-.381-.155-.576-.106-.371-.227-.746-.358-1.117-.273-.773-.6-1.528-.981-2.273-.161-.314-.337-.633-.521-.949-.86-1.462-1.941-2.847-3.235-4.142-1.65-1.65-3.447-2.953-5.403-3.913-1.665-.818-3.451-1.379-5.345-1.682-.689-.11-1.39-.186-2.121-.227-.411-.023-.841-.036-1.275-.036-.396 0-.788.011-1.182.032-.284.015-.566.034-.85.061-2.409.22-4.653.839-6.735 1.864-1.932.949-3.725 2.25-5.375 3.9-3.782 3.782-5.733 8.326-5.852 13.623q-.006.258-.006.519c0 5.523 1.953 10.239 5.858 14.14 3.612 3.612 7.917 5.553 12.911 5.822.015.002.032.002.049.004.006 0 .011 0 .017 0 .36.019.703.03 1.038.03.051 0 .089 0 .127 0 .436 0 .869-.013 1.275-.034.106-.006.201-.013.294-.019.856-.061 1.691-.172 2.487-.326.337-.066.669-.14.992-.218 3.424-.86 6.447-2.61 9.1-5.258.258-.258.508-.519.742-.775 1.689-1.858 2.956-3.881 3.807-6.081.386-.994.684-2.023.903-3.095.22-1.093.352-2.231.392-3.409.008-.256.013-.519.013-.784 0-.028 0-.057 0-.085 0-.015 0-.028 0-.042 0-.131-.002-.263-.004-.396-.036-1.576-.235-3.093-.602-4.561"/>
  <path opacity=".2" fill="url(#a)" d="m43.911 26.02l-15.921-17.02-2.203 1.974-3.467-3.431-1.268 3.786 2.99 3.098-9.43 23.809 5.394 5.394c12.831-3.682 22.601-6.509 23.905-17.613"/>
  <path fill="#442c58" stroke-width="3.067" d="m4.01 23.5c-.004.167-.012.332-.012.5 0 11.08 8.92 20 20 20 11.08 0 20-8.92 20-20 0-.168-.008-.333-.012-.5-.265 10.846-9.08 19.5-19.988 19.5-10.912 0-19.724-8.654-19.988-19.5"/>
  <path fill="#fdfcdf" d="m21 13c-.65 1.696-.766 3.177-2.43 4.203-4.267 2.065-7.564 6.724-7.57 11.797 0 7.18 5.82 13 13 13v-3c-5.523 0-10-4.477-10-10 0-5.523 4.477-10 10-10v-5c-1.216-.093-2.12-.485-3-1"/>
  <path fill="url(#c)" d="m27 13c-.783.421-1.972 1.076-3 1v28a13 13 0 0 0 13 -13 13 13 0 0 0 -7.677734 -11.84375c-1.28-.864-2.135-2.4-2.322-4.156"/>
  <g fill="#78af52">
   <path d="m20.428 6c-.018.055-.035.11-.048.157q-1.559 5.157 3.275 6.843c.943-2.635-.048-4.909-2.984-6.843-.07-.047-.156-.102-.244-.157"/>
   <path d="m25.04 13c-.249-2.02.742-3.361 2.963-4-.242 2.223-1.228 3.554-2.963 4"/>
  </g>
 </g>
 <g stroke-width="2">
  <path fill="#eaeace" d="M24 19A10 10 0 0 0 14 29 10 10 0 0 0 24 39v-3a7 7 0 0 1 -7 -7 7 7 0 0 1 7 -7z"/>
  <path fill="#d1d1b8" d="m24 22a7 7 0 0 0 -7 7 7 7 0 0 0 7 7v-3a4 4 0 0 1 -4 -4 4 4 0 0 1 4 -4z"/>
  <path fill="#bfbfa9" d="m24 25a4 4 0 0 0 -4 4 4 4 0 0 0 4 4z"/>
 </g>
</svg>
