<svg xmlns="http://www.w3.org/2000/svg" xmlns:xlink="http://www.w3.org/1999/xlink" width="48" height="48">
 <defs>
  <linearGradient xlink:href="#1" id="0" y1="543.798" x2="0" y2="503.798" gradientUnits="userSpaceOnUse" gradientTransform="translate(5.325e-4,10e-6)"/>
  <linearGradient id="1">
   <stop stop-color="#197cf1"/>
   <stop offset="1" stop-color="#20bcfa"/>
  </linearGradient>
 </defs>
 <g transform="translate(-384.57143,-499.798)">
  <path d="m 408.57143,503.798 c -11.07999,0 -20,8.92001 -20,20 0,11.07999 8.92001,20 20,20 11.07999,0 20,-8.92001 20,-20 0,-11.07999 -8.92001,-20 -20,-20 z" fill="url(#0)"/>
  <path d="m 388.58315,523.798 c -0.004,0.16279 -0.0117,0.3245 -0.0117,0.48828 0,10.80975 8.92001,19.51172 20,19.51172 11.07999,0 20,-8.70197 20,-19.51172 0,-0.16378 -0.008,-0.3255 -0.0117,-0.48828 -0.26418,10.58202 -9.07584,19.02344 -19.98828,19.02344 -10.91244,0 -19.7241,-8.44142 -19.98828,-19.02344 z" opacity=".15"/>
  <g transform="matrix(1 0 0 1 384.67299 499.798)">
   <path d="m 19.285156,8.2792969 c -0.465544,0 -0.863235,0.1620636 -1.191406,0.4902343 -0.328171,0.3300788 -0.492188,0.7277697 -0.492188,1.1914063 0,0.4636365 0.164017,0.8612375 0.492188,1.1875005 0.101122,0.10303 0.209786,0.191123 0.326172,0.261718 0.255668,0.156454 0.544695,0.234375 0.865234,0.234375 0.465545,0 0.859329,-0.166015 1.1875,-0.496093 0.328171,-0.326263 0.496094,-0.723864 0.496094,-1.1875005 0,-0.3205389 -0.07792,-0.6075682 -0.234375,-0.8613281 C 20.66378,8.9832232 20.575687,8.8725616 20.472656,8.7695312 20.144485,8.4413605 19.750701,8.2792969 19.285156,8.2792969 Z m 4.302735,0 c -0.465545,0 -0.863236,0.1620636 -1.191407,0.4902343 -0.330078,0.3300788 -0.492187,0.7277697 -0.492187,1.1914063 0,0.4636365 0.162109,0.8612375 0.492187,1.1875005 0.101123,0.10303 0.209786,0.191123 0.326172,0.261718 0.255668,0.156454 0.544696,0.234375 0.865235,0.234375 0.463636,0 0.857421,-0.166015 1.1875,-0.496093 0.32817,-0.326263 0.492187,-0.723864 0.492187,-1.1875005 0,-0.3205389 -0.07788,-0.6076133 -0.232422,-0.8632813 -0.0706,-0.1163861 -0.158643,-0.2250946 -0.259765,-0.328125 -0.330079,-0.3281707 -0.723864,-0.4902343 -1.1875,-0.4902343 z m 4.302734,0 c -0.467453,0 -0.863281,0.1620636 -1.193359,0.4902343 -0.328171,0.3300788 -0.492188,0.7277697 -0.492188,1.1914063 0,0.4636365 0.164017,0.8612375 0.492188,1.1875005 0.10303,0.10303 0.211738,0.191123 0.328125,0.261718 0.255668,0.156454 0.544695,0.234375 0.865234,0.234375 0.463637,0 0.857376,-0.166015 1.185547,-0.496093 0.330079,-0.326263 0.494141,-0.723864 0.49414,-1.1875005 0,-0.3205389 -0.07792,-0.6076133 -0.234374,-0.8632813 C 29.265343,8.9812701 29.179202,8.8725616 29.076172,8.7695312 28.748001,8.4413605 28.354262,8.2792969 27.890625,8.2792969 Z m -12.90625,4.5351561 c -0.465545,0 -0.863281,0.162109 -1.193359,0.492188 -0.328171,0.32817 -0.490235,0.725816 -0.490235,1.189453 0,0.463636 0.162064,0.861282 0.490235,1.189453 0.10303,0.10303 0.213692,0.191124 0.330078,0.261719 0.25376,0.154545 0.542742,0.232422 0.863281,0.232422 0.463637,0 0.859329,-0.16597 1.1875,-0.494141 0.330079,-0.328171 0.496094,-0.725817 0.496094,-1.189453 0,-0.320539 -0.07992,-0.607614 -0.238281,-0.863282 -0.07059,-0.116386 -0.156691,-0.225049 -0.257813,-0.326171 -0.328171,-0.330079 -0.723863,-0.492188 -1.1875,-0.492188 z m 17.205078,0 c -0.465544,0 -0.861282,0.162109 -1.189453,0.492188 -0.330079,0.32817 -0.492187,0.725816 -0.492188,1.189453 0,0.463636 0.162109,0.861282 0.492188,1.189453 0.10303,0.10303 0.211739,0.191124 0.328125,0.261719 0.25376,0.154545 0.540789,0.232422 0.861328,0.232422 0.463637,0 0.859375,-0.16597 1.189453,-0.494141 0.328171,-0.328171 0.492188,-0.725817 0.492188,-1.189453 0,-0.320539 -0.07792,-0.607659 -0.234375,-0.865235 -0.07059,-0.114478 -0.15669,-0.223096 -0.257813,-0.324218 -0.330078,-0.330079 -0.725816,-0.492188 -1.189453,-0.492188 z m -12.904297,4.535156 c -0.465544,0 -0.863235,0.162109 -1.191406,0.492188 -0.328171,0.328171 -0.492188,0.725816 -0.492188,1.189453 0,0.465545 0.164017,0.861328 0.492188,1.191406 0.101122,0.101123 0.209786,0.189171 0.326172,0.259766 0.255668,0.154545 0.544695,0.232422 0.865234,0.232422 0.465545,0 0.859329,-0.165925 1.1875,-0.492188 0.328171,-0.330078 0.496094,-0.725861 0.496094,-1.191406 0,-0.318631 -0.07792,-0.60566 -0.234375,-0.861328 -0.0706,-0.116386 -0.158688,-0.225095 -0.261719,-0.328125 -0.328171,-0.330079 -0.721955,-0.492188 -1.1875,-0.492188 z m 4.302735,0 c -0.465545,0 -0.863236,0.162109 -1.191407,0.492188 -0.330078,0.328171 -0.492187,0.725816 -0.492187,1.189453 0,0.465545 0.162109,0.861328 0.492187,1.191406 0.101123,0.101123 0.209786,0.189171 0.326172,0.259766 0.255668,0.154545 0.544696,0.232422 0.865235,0.232422 0.463636,0 0.857421,-0.165925 1.1875,-0.492188 0.32817,-0.330078 0.492187,-0.725861 0.492187,-1.191406 0,-0.320539 -0.07788,-0.607613 -0.232422,-0.863281 -0.0706,-0.116386 -0.158643,-0.22505 -0.259765,-0.326172 -0.330079,-0.330079 -0.723864,-0.492188 -1.1875,-0.492188 z m 4.302734,0 c -0.467453,0 -0.863281,0.162109 -1.193359,0.492188 -0.328171,0.328171 -0.492188,0.725816 -0.492188,1.189453 0,0.465545 0.164017,0.861328 0.492188,1.191406 0.10303,0.101123 0.211738,0.189171 0.328125,0.259766 0.255668,0.154545 0.544695,0.232422 0.865234,0.232422 0.463637,0 0.857376,-0.165925 1.185547,-0.492188 0.330079,-0.330078 0.494141,-0.725861 0.49414,-1.191406 0,-0.320539 -0.07792,-0.607613 -0.234374,-0.863281 -0.07059,-0.116386 -0.158644,-0.22505 -0.259766,-0.326172 -0.328171,-0.330079 -0.72191,-0.492188 -1.185547,-0.492188 z m -4.302734,4.535157 c -0.465545,0 -0.863236,0.164016 -1.191407,0.492187 -0.330078,0.328171 -0.492187,0.725817 -0.492187,1.189453 0,0.465545 0.162109,0.863236 0.492187,1.191406 0.101123,0.103031 0.209786,0.189171 0.326172,0.259766 0.255668,0.156454 0.544696,0.234375 0.865235,0.234375 0.463636,0 0.857421,-0.167878 1.1875,-0.494141 0.32817,-0.32817 0.492187,-0.725861 0.492187,-1.191406 0,-0.318631 -0.07792,-0.605705 -0.234375,-0.863281 -0.0706,-0.116386 -0.15669,-0.225049 -0.257812,-0.326172 -0.330079,-0.328171 -0.723864,-0.492187 -1.1875,-0.492187 z m 0,4.535156 c -0.465545,0 -0.863236,0.165925 -1.191407,0.492187 -0.330078,0.330079 -0.492187,0.725862 -0.492187,1.191407 0,0.463636 0.162109,0.861282 0.492187,1.189453 0.101123,0.101122 0.209786,0.189171 0.326172,0.259765 0.255668,0.156454 0.544696,0.234375 0.865235,0.234375 0.463636,0 0.857421,-0.165969 1.1875,-0.49414 0.32817,-0.328171 0.492187,-0.725817 0.492187,-1.189453 0,-0.320539 -0.07788,-0.607614 -0.232422,-0.863282 -0.0706,-0.116386 -0.158643,-0.225094 -0.259765,-0.328125 -0.330079,-0.326262 -0.723864,-0.492187 -1.1875,-0.492187 z m 0,4.537109 c -0.465545,0 -0.863236,0.163972 -1.191407,0.490235 -0.330078,0.330078 -0.492187,0.725861 -0.492187,1.191406 0,0.463636 0.162109,0.861282 0.492187,1.189453 0.101123,0.101122 0.209786,0.189171 0.326172,0.259766 0.255668,0.156453 0.544696,0.234375 0.865235,0.234375 0.463636,0 0.857421,-0.16597 1.1875,-0.494141 0.32817,-0.328171 0.492187,-0.725817 0.492187,-1.189453 0,-0.320539 -0.07788,-0.607613 -0.232422,-0.863281 -0.0706,-0.116387 -0.158643,-0.225095 -0.259765,-0.328125 -0.330079,-0.326263 -0.723864,-0.490235 -1.1875,-0.490235 z m -4.302735,4.535157 c -0.465544,0 -0.863235,0.163971 -1.191406,0.490234 -0.328171,0.330079 -0.492188,0.72777 -0.492188,1.191406 0,0.463637 0.164017,0.861282 0.492188,1.189453 0.101122,0.101123 0.209786,0.189171 0.326172,0.259766 0.255668,0.156453 0.544695,0.234375 0.865234,0.234375 0.465545,0 0.859329,-0.16597 1.1875,-0.494141 0.328171,-0.328171 0.496094,-0.725816 0.496094,-1.189453 0,-0.318631 -0.07792,-0.605705 -0.234375,-0.863281 -0.0706,-0.116386 -0.158688,-0.225095 -0.261719,-0.328125 -0.328171,-0.326263 -0.721955,-0.490234 -1.1875,-0.490234 z m 4.302735,0 c -0.465545,0 -0.863236,0.163971 -1.191407,0.490234 -0.330078,0.330079 -0.492187,0.72777 -0.492187,1.191406 0,0.463637 0.162109,0.861282 0.492187,1.189453 0.101123,0.101123 0.209786,0.189171 0.326172,0.259766 0.255668,0.156453 0.544696,0.234375 0.865235,0.234375 0.463636,0 0.857421,-0.16597 1.1875,-0.494141 0.32817,-0.328171 0.492187,-0.725816 0.492187,-1.189453 0,-0.320539 -0.07788,-0.607613 -0.232422,-0.863281 -0.0706,-0.116386 -0.158643,-0.225095 -0.259765,-0.328125 -0.330079,-0.326263 -0.723864,-0.490234 -1.1875,-0.490234 z" fill="#ffffff"/>
   <path d="m 25.035156,9.0976562 c 0.154546,0.255668 0.232422,0.5427424 0.232422,0.8632813 0,0.4636365 -0.164017,0.8612375 -0.492187,1.1875005 -0.330079,0.330078 -0.723864,0.496093 -1.1875,0.496093 -0.320539,0 -0.609567,-0.07792 -0.865235,-0.234375 0.0706,0.114478 0.15669,0.223097 0.257813,0.324219 0.328171,0.328171 0.725861,0.496094 1.191406,0.496094 0.465545,0 0.859329,-0.167923 1.1875,-0.496094 0.328171,-0.326263 0.494141,-0.723909 0.494141,-1.189453 0,-0.463637 -0.16597,-0.8612825 -0.494141,-1.1894532 C 25.258253,9.2543464 25.149634,9.1682511 25.035156,9.0976562 Z m 4.300782,0 c 0.156453,0.255668 0.234374,0.5427424 0.234374,0.8632813 0,0.4636365 -0.164061,0.8612375 -0.49414,1.1875005 -0.328171,0.330078 -0.72191,0.496093 -1.185547,0.496093 -0.320539,0 -0.609566,-0.07792 -0.865234,-0.234375 0.07059,0.114478 0.15669,0.223097 0.257812,0.324219 0.328171,0.328171 0.725862,0.496094 1.191406,0.496094 0.463637,0 0.857422,-0.167923 1.1875,-0.496094 0.328171,-0.328171 0.492188,-0.725181 0.492188,-1.189453 0,-0.463637 -0.164017,-0.8612825 -0.492188,-1.1894532 C 29.560987,9.2543464 29.452324,9.1682511 29.335938,9.0976562 Z m -8.601563,0.00195 c 0.156453,0.2537599 0.234375,0.5407892 0.234375,0.8613281 0,0.4636365 -0.167923,0.8612375 -0.496094,1.1875005 -0.328171,0.330078 -0.721955,0.496093 -1.1875,0.496093 -0.320539,0 -0.609566,-0.07792 -0.865234,-0.234375 0.0706,0.114478 0.15669,0.223097 0.257812,0.324219 0.330079,0.328171 0.727815,0.496094 1.19336,0.496094 0.463636,0 0.857376,-0.167923 1.185547,-0.496094 0.330078,-0.326263 0.496093,-0.723909 0.496093,-1.189453 0,-0.463637 -0.166015,-0.8612825 -0.496093,-1.1894532 C 20.955518,9.2543464 20.848853,9.1682963 20.734375,9.0996094 Z m 8.599609,4.5312496 c 0.158362,0.257576 0.236328,0.544696 0.236328,0.865235 0,0.463636 -0.164061,0.861282 -0.49414,1.189453 -0.328171,0.328171 -0.72191,0.494141 -1.185547,0.494141 -0.320539,0 -0.609521,-0.07788 -0.863281,-0.232422 0.06869,0.11257 0.154737,0.221143 0.255859,0.322265 0.328171,0.330079 0.725862,0.496094 1.191406,0.496094 0.463637,0 0.857422,-0.166015 1.1875,-0.496094 0.328171,-0.326263 0.492188,-0.723863 0.492188,-1.1875 0,-0.465544 -0.164017,-0.861327 -0.492188,-1.191406 -0.10303,-0.10303 -0.211738,-0.189171 -0.328125,-0.259766 z m 4.302735,0 c 0.156453,0.257576 0.234375,0.544696 0.234375,0.865235 0,0.463636 -0.164017,0.861282 -0.492188,1.189453 -0.330078,0.328171 -0.725816,0.494141 -1.189453,0.494141 -0.320539,0 -0.607568,-0.07788 -0.861328,-0.232422 0.0706,0.11257 0.154737,0.221143 0.255859,0.322265 0.330079,0.330079 0.723954,0.496094 1.191407,0.496094 0.463636,0 0.859329,-0.166015 1.1875,-0.496094 0.330078,-0.326263 0.49414,-0.723863 0.49414,-1.1875 0,-0.465544 -0.164062,-0.861327 -0.49414,-1.191406 -0.101123,-0.10303 -0.209786,-0.189171 -0.326172,-0.259766 z m -17.207031,0.002 c 0.158361,0.255668 0.238281,0.542743 0.238281,0.863282 0,0.463636 -0.166015,0.861282 -0.496094,1.189453 -0.328171,0.328171 -0.723863,0.494141 -1.1875,0.494141 -0.320539,0 -0.609521,-0.07788 -0.863281,-0.232422 0.06869,0.11257 0.154737,0.221143 0.255859,0.322265 0.328171,0.330079 0.725862,0.496094 1.191406,0.496094 0.465545,0 0.857422,-0.166015 1.1875,-0.496094 0.328171,-0.326263 0.496094,-0.723863 0.496094,-1.1875 0,-0.465544 -0.167923,-0.861327 -0.496094,-1.191406 -0.101122,-0.101122 -0.209785,-0.187218 -0.326171,-0.257813 z m 4.302734,0 c 0.158361,0.255668 0.236328,0.542743 0.236328,0.863282 0,0.463636 -0.167923,0.861282 -0.496094,1.189453 -0.328171,0.328171 -0.721955,0.494141 -1.1875,0.494141 -0.318631,0 -0.607613,-0.07792 -0.863281,-0.234376 0.06869,0.114479 0.154737,0.223097 0.255859,0.324219 0.330079,0.330079 0.727815,0.496094 1.19336,0.496094 0.463636,0 0.857376,-0.166015 1.185547,-0.496094 0.330078,-0.326263 0.496093,-0.723863 0.496093,-1.1875 0,-0.465544 -0.166015,-0.861327 -0.496093,-1.191406 -0.101123,-0.101122 -0.209741,-0.187218 -0.324219,-0.257813 z m 4.300781,0 c 0.156454,0.255668 0.234375,0.542743 0.234375,0.863282 0,0.463636 -0.164017,0.861282 -0.492187,1.189453 -0.330079,0.328171 -0.723864,0.494141 -1.1875,0.494141 -0.320539,0 -0.609567,-0.07792 -0.865235,-0.234376 0.0706,0.114479 0.15669,0.223097 0.257813,0.324219 0.328171,0.330079 0.725861,0.496094 1.191406,0.496094 0.465545,0 0.859329,-0.166015 1.1875,-0.496094 0.328171,-0.326263 0.494141,-0.723863 0.494141,-1.1875 0,-0.465544 -0.16597,-0.861327 -0.494141,-1.191406 -0.101122,-0.101122 -0.209786,-0.187218 -0.326172,-0.257813 z m -12.902344,4.535157 c 0.156454,0.255668 0.234375,0.542742 0.234375,0.863281 0,0.465545 -0.165969,0.861328 -0.49414,1.191406 -0.330079,0.326263 -0.723909,0.492188 -1.189453,0.492188 -0.320539,0 -0.607569,-0.07788 -0.8613285,-0.232422 0.068687,0.114478 0.1527839,0.223096 0.2539065,0.324219 0.330078,0.32817 0.727815,0.49414 1.193359,0.49414 0.463637,0 0.859329,-0.16597 1.1875,-0.49414 0.330079,-0.328171 0.496094,-0.725817 0.496094,-1.189453 0,-0.465545 -0.166015,-0.861328 -0.496094,-1.191407 -0.101122,-0.101122 -0.20974,-0.187217 -0.324219,-0.257812 z m 4.300782,0 c 0.156453,0.255668 0.236328,0.542742 0.236328,0.863281 0,0.465545 -0.166015,0.861328 -0.496094,1.191406 -0.328171,0.326263 -0.723863,0.492188 -1.1875,0.492188 -0.320539,0 -0.609566,-0.07788 -0.865234,-0.232422 0.07059,0.114478 0.15669,0.223096 0.257812,0.324219 0.328171,0.32817 0.725862,0.49414 1.191406,0.49414 0.465545,0 0.857422,-0.16597 1.1875,-0.49414 0.328171,-0.328171 0.496094,-0.725817 0.496094,-1.189453 0,-0.465545 -0.167923,-0.861328 -0.496094,-1.191407 -0.101122,-0.101122 -0.20974,-0.187217 -0.324218,-0.257812 z m 8.603515,0 c 0.154546,0.255668 0.232422,0.542742 0.232422,0.863281 0,0.465545 -0.164017,0.861328 -0.492187,1.191406 -0.330079,0.326263 -0.723864,0.492188 -1.1875,0.492188 -0.320539,0 -0.609567,-0.07788 -0.865235,-0.232422 0.0706,0.114478 0.15669,0.223096 0.257813,0.324219 0.328171,0.32817 0.725861,0.49414 1.191406,0.49414 0.465545,0 0.859329,-0.16597 1.1875,-0.49414 0.328171,-0.328171 0.494141,-0.725817 0.494141,-1.189453 0,-0.465545 -0.16597,-0.861328 -0.494141,-1.191407 -0.101122,-0.101122 -0.209741,-0.187217 -0.324219,-0.257812 z m 4.300782,0 c 0.156453,0.255668 0.234374,0.542742 0.234374,0.863281 0,0.465545 -0.164061,0.861328 -0.49414,1.191406 -0.328171,0.326263 -0.72191,0.492188 -1.185547,0.492188 -0.320539,0 -0.609566,-0.07788 -0.865234,-0.232422 0.07059,0.114478 0.15669,0.223096 0.257812,0.324219 0.328171,0.32817 0.725862,0.49414 1.191406,0.49414 0.463637,0 0.857422,-0.16597 1.1875,-0.49414 0.328171,-0.328171 0.492188,-0.725817 0.492188,-1.189453 0,-0.465545 -0.164017,-0.861328 -0.492188,-1.191407 -0.101122,-0.101122 -0.209785,-0.187217 -0.326171,-0.257812 z m 4.300781,0 c 0.156453,0.255668 0.234375,0.542742 0.234375,0.863281 0,0.465545 -0.164017,0.861328 -0.492188,1.191406 -0.330078,0.326263 -0.725816,0.492188 -1.189453,0.492188 -0.320539,0 -0.607568,-0.07788 -0.861328,-0.232422 0.06869,0.114478 0.154737,0.223096 0.255859,0.324219 0.330079,0.32817 0.723954,0.49414 1.191407,0.49414 0.463636,0 0.859329,-0.16597 1.1875,-0.49414 0.330078,-0.328171 0.49414,-0.725817 0.49414,-1.189453 0,-0.465545 -0.164062,-0.861328 -0.49414,-1.191407 -0.101123,-0.101122 -0.209786,-0.187217 -0.326172,-0.257812 z m 4.302734,0 c 0.156454,0.255668 0.234375,0.542742 0.234375,0.863281 0,0.465545 -0.164062,0.861328 -0.49414,1.191406 -0.328171,0.326263 -0.723864,0.492188 -1.1875,0.492188 -0.320539,0 -0.607614,-0.07788 -0.863282,-0.232422 0.07059,0.114478 0.15669,0.223096 0.257813,0.324219 0.328171,0.32817 0.723908,0.49414 1.189453,0.49414 0.463636,0 0.859374,-0.16597 1.189453,-0.49414 0.328171,-0.328171 0.492188,-0.725817 0.492187,-1.189453 0,-0.465545 -0.164016,-0.861328 -0.492187,-1.191407 -0.101122,-0.101122 -0.209786,-0.187217 -0.326172,-0.257812 z m -17.205078,0.002 c 0.156453,0.255668 0.234375,0.542697 0.234375,0.861328 0,0.465545 -0.167923,0.861328 -0.496094,1.191406 -0.328171,0.326263 -0.721955,0.492188 -1.1875,0.492188 -0.320539,0 -0.609566,-0.07788 -0.865234,-0.232422 0.0706,0.114478 0.15669,0.223096 0.257812,0.324219 0.330079,0.32817 0.727815,0.49414 1.19336,0.49414 0.463636,0 0.857376,-0.16597 1.185547,-0.49414 0.330078,-0.328171 0.496093,-0.725817 0.496093,-1.189453 0,-0.465545 -0.166015,-0.861328 -0.496093,-1.191407 -0.101123,-0.101122 -0.207788,-0.185264 -0.322266,-0.255859 z m -8.603516,4.533203 c 0.156454,0.257576 0.234375,0.54465 0.234375,0.863281 0,0.465545 -0.165969,0.863236 -0.49414,1.191406 -0.330079,0.326263 -0.723909,0.494141 -1.189453,0.494141 -0.320539,0 -0.607569,-0.07788 -0.8613285,-0.232422 0.070595,0.11257 0.1527839,0.221143 0.2539065,0.322266 0.330078,0.328171 0.727815,0.494141 1.193359,0.494141 0.463637,0 0.859329,-0.16597 1.1875,-0.494141 0.330079,-0.328171 0.496094,-0.725817 0.496094,-1.189453 0,-0.463637 -0.166015,-0.861328 -0.496094,-1.191406 -0.101122,-0.101123 -0.20974,-0.187218 -0.324219,-0.257813 z m 4.298829,0 c 0.158361,0.257576 0.238281,0.54465 0.238281,0.863281 0,0.465545 -0.166015,0.863236 -0.496094,1.191406 -0.328171,0.326263 -0.723863,0.494141 -1.1875,0.494141 -0.320539,0 -0.609521,-0.07788 -0.863281,-0.232422 0.06869,0.11257 0.154737,0.221143 0.255859,0.322266 0.328171,0.328171 0.725862,0.494141 1.191406,0.494141 0.465545,0 0.857422,-0.16597 1.1875,-0.494141 0.328171,-0.328171 0.496094,-0.725817 0.496094,-1.189453 0,-0.463637 -0.167923,-0.861328 -0.496094,-1.191406 -0.101122,-0.101123 -0.209785,-0.187218 -0.326171,-0.257813 z m 8.603515,0 c 0.156454,0.257576 0.234375,0.54465 0.234375,0.863281 0,0.465545 -0.164017,0.863236 -0.492187,1.191406 -0.330079,0.326263 -0.723864,0.494141 -1.1875,0.494141 -0.320539,0 -0.609567,-0.07792 -0.865235,-0.234375 0.0706,0.114478 0.15669,0.223096 0.257813,0.324219 0.328171,0.328171 0.725861,0.494141 1.191406,0.494141 0.465545,0 0.859329,-0.16597 1.1875,-0.494141 0.328171,-0.328171 0.494141,-0.725817 0.494141,-1.189453 0,-0.463637 -0.16597,-0.861328 -0.494141,-1.191406 -0.101122,-0.101123 -0.209786,-0.187218 -0.326172,-0.257813 z m 4.300781,0 c 0.158362,0.255668 0.236328,0.542742 0.236328,0.863281 0,0.465545 -0.164061,0.863236 -0.49414,1.191406 -0.328171,0.326263 -0.72191,0.494141 -1.185547,0.494141 -0.320539,0 -0.609521,-0.07788 -0.863281,-0.232422 0.06869,0.11257 0.154737,0.221143 0.255859,0.322266 0.328171,0.328171 0.725862,0.494141 1.191406,0.494141 0.463637,0 0.857422,-0.16597 1.1875,-0.494141 0.328171,-0.328171 0.492188,-0.725817 0.492188,-1.189453 0,-0.463637 -0.164017,-0.861328 -0.492188,-1.191406 -0.10303,-0.101123 -0.211738,-0.187218 -0.328125,-0.257813 z m 4.302735,0 c 0.156453,0.255668 0.234375,0.542742 0.234375,0.863281 0,0.465545 -0.164017,0.863236 -0.492188,1.191406 -0.330078,0.326263 -0.725816,0.494141 -1.189453,0.494141 -0.320539,0 -0.607568,-0.07788 -0.861328,-0.232422 0.0706,0.11257 0.154737,0.221143 0.255859,0.322266 0.330079,0.328171 0.723954,0.494141 1.191407,0.494141 0.463636,0 0.859329,-0.16597 1.1875,-0.494141 0.330078,-0.328171 0.49414,-0.725817 0.49414,-1.189453 0,-0.463637 -0.164062,-0.861328 -0.49414,-1.191406 -0.101123,-0.101123 -0.209786,-0.187218 -0.326172,-0.257813 z m 4.300781,0 c 0.158361,0.255668 0.236328,0.542742 0.236328,0.863281 0,0.465545 -0.164062,0.863236 -0.49414,1.191406 -0.328171,0.326263 -0.723864,0.494141 -1.1875,0.494141 -0.320539,0 -0.607569,-0.07788 -0.861329,-0.232422 0.06869,0.11257 0.154737,0.221143 0.25586,0.322266 0.328171,0.328171 0.723908,0.494141 1.189453,0.494141 0.463636,0 0.859374,-0.16597 1.189453,-0.494141 0.328171,-0.328171 0.492188,-0.725817 0.492187,-1.189453 0,-0.463637 -0.164016,-0.861328 -0.492187,-1.191406 -0.10303,-0.101123 -0.211739,-0.187218 -0.328125,-0.257813 z m -17.203125,0.002 c 0.156453,0.255668 0.234375,0.542697 0.234375,0.861328 0,0.465545 -0.167923,0.863236 -0.496094,1.191406 -0.328171,0.326263 -0.721955,0.494141 -1.1875,0.494141 -0.318631,0 -0.607613,-0.07792 -0.863281,-0.234375 0.0706,0.114478 0.154737,0.223096 0.255859,0.324219 0.330079,0.328171 0.727815,0.494141 1.19336,0.494141 0.463636,0 0.857376,-0.16597 1.185547,-0.494141 0.330078,-0.328171 0.496093,-0.725817 0.496093,-1.189453 0,-0.463637 -0.166015,-0.861328 -0.496093,-1.191406 -0.101123,-0.101123 -0.209696,-0.187173 -0.322266,-0.25586 z m 8.601563,4.533203 c 0.156453,0.257576 0.234375,0.544696 0.234374,0.865235 0,0.463636 -0.164061,0.861282 -0.49414,1.189453 -0.328171,0.328171 -0.72191,0.49414 -1.185547,0.49414 -0.320539,0 -0.609566,-0.07788 -0.865234,-0.232421 0.07059,0.114478 0.15669,0.223096 0.257812,0.324218 0.328171,0.326263 0.725862,0.492188 1.191406,0.492188 0.463637,0 0.857422,-0.165925 1.1875,-0.492188 0.328171,-0.330078 0.492188,-0.727769 0.492188,-1.191406 0,-0.463637 -0.164017,-0.861282 -0.492188,-1.189453 -0.10303,-0.10303 -0.211693,-0.189171 -0.326171,-0.259766 z m 4.300781,0 c 0.156453,0.257576 0.234375,0.544696 0.234375,0.865235 0,0.463636 -0.164017,0.861282 -0.492188,1.189453 -0.330078,0.328171 -0.725816,0.49414 -1.189453,0.49414 -0.320539,0 -0.607568,-0.07788 -0.861328,-0.232421 0.06869,0.114478 0.154737,0.223096 0.255859,0.324218 0.330079,0.326263 0.723954,0.492188 1.191407,0.492188 0.463636,0 0.859329,-0.165925 1.1875,-0.492188 0.330078,-0.330078 0.49414,-0.727769 0.49414,-1.191406 0,-0.463637 -0.164062,-0.861282 -0.49414,-1.189453 -0.101123,-0.10303 -0.209786,-0.189171 -0.326172,-0.259766 z m 4.302734,0 c 0.156454,0.257576 0.234375,0.544696 0.234375,0.865235 0,0.463636 -0.164062,0.861282 -0.49414,1.189453 -0.328171,0.328171 -0.723864,0.49414 -1.1875,0.49414 -0.320539,0 -0.607614,-0.07788 -0.863282,-0.232421 0.07059,0.114478 0.15669,0.223096 0.257813,0.324218 0.328171,0.326263 0.723908,0.492188 1.189453,0.492188 0.463636,0 0.859374,-0.165925 1.189453,-0.492188 0.328171,-0.330078 0.492188,-0.727769 0.492187,-1.191406 0,-0.463637 -0.164016,-0.861282 -0.492187,-1.189453 -0.10303,-0.10303 -0.211694,-0.189171 -0.326172,-0.259766 z m -25.808594,0.002 c 0.156454,0.255668 0.234375,0.542743 0.234375,0.863282 0,0.463636 -0.165969,0.861282 -0.49414,1.189453 -0.330079,0.328171 -0.723909,0.49414 -1.189453,0.49414 -0.320539,0 -0.607569,-0.07788 -0.8613285,-0.232421 0.068687,0.114478 0.1527839,0.223096 0.2539065,0.324218 0.330078,0.326263 0.727815,0.492188 1.193359,0.492188 0.463637,0 0.859329,-0.165925 1.1875,-0.492188 0.330079,-0.330078 0.496094,-0.727769 0.496094,-1.191406 0,-0.463637 -0.166015,-0.861282 -0.496094,-1.189453 -0.101122,-0.101123 -0.20974,-0.187218 -0.324219,-0.257813 z m 4.300782,0 c 0.156453,0.255668 0.236328,0.542743 0.236328,0.863282 0,0.463636 -0.166015,0.861282 -0.496094,1.189453 -0.328171,0.328171 -0.723863,0.49414 -1.1875,0.49414 -0.320539,0 -0.609566,-0.07788 -0.865234,-0.232421 0.07059,0.114478 0.15669,0.223096 0.257812,0.324218 0.328171,0.326263 0.725862,0.492188 1.191406,0.492188 0.465545,0 0.857422,-0.165925 1.1875,-0.492188 0.328171,-0.330078 0.496094,-0.727769 0.496094,-1.191406 0,-0.463637 -0.167923,-0.861282 -0.496094,-1.189453 -0.101122,-0.101123 -0.20974,-0.187218 -0.324218,-0.257813 z m 4.302734,0 c 0.156453,0.257576 0.234375,0.544651 0.234375,0.863282 0,0.463636 -0.167923,0.861282 -0.496094,1.189453 -0.328171,0.328171 -0.721955,0.49414 -1.1875,0.49414 -0.320539,0 -0.609566,-0.07792 -0.865234,-0.234375 0.0706,0.116387 0.15669,0.22505 0.257812,0.326172 0.330079,0.326263 0.727815,0.492188 1.19336,0.492188 0.463636,0 0.857376,-0.165925 1.185547,-0.492188 0.330078,-0.330078 0.496093,-0.727769 0.496093,-1.191406 0,-0.463637 -0.166015,-0.861282 -0.496093,-1.189453 -0.101123,-0.101123 -0.207788,-0.187218 -0.322266,-0.257813 z m 4.300781,0 c 0.154546,0.255668 0.232422,0.542743 0.232422,0.863282 0,0.463636 -0.164017,0.861282 -0.492187,1.189453 -0.330079,0.328171 -0.723864,0.49414 -1.1875,0.49414 -0.320539,0 -0.609567,-0.07792 -0.865235,-0.234375 0.0706,0.116387 0.15669,0.22505 0.257813,0.326172 0.328171,0.326263 0.725861,0.492188 1.191406,0.492188 0.465545,0 0.859329,-0.165925 1.1875,-0.492188 0.328171,-0.330078 0.494141,-0.727769 0.494141,-1.191406 0,-0.463637 -0.16597,-0.861282 -0.494141,-1.189453 -0.101122,-0.101123 -0.209741,-0.187218 -0.324219,-0.257813 z m 4.300782,4.533204 c 0.156453,0.257575 0.234375,0.544695 0.234374,0.865234 0,0.463636 -0.164061,0.861282 -0.49414,1.189453 -0.328171,0.328171 -0.72191,0.494141 -1.185547,0.494141 -0.320539,0 -0.609566,-0.07788 -0.865234,-0.232422 0.07059,0.114478 0.15669,0.223096 0.257812,0.324218 0.328171,0.326263 0.725862,0.492188 1.191406,0.492188 0.463637,0 0.857422,-0.165925 1.1875,-0.492188 0.328171,-0.330078 0.492188,-0.725861 0.492188,-1.191406 0,-0.463636 -0.164017,-0.861282 -0.492188,-1.189453 -0.10303,-0.10303 -0.211693,-0.189171 -0.326171,-0.259765 z m 4.300781,0 c 0.156453,0.257575 0.234375,0.544695 0.234375,0.865234 0,0.463636 -0.164017,0.861282 -0.492188,1.189453 -0.330078,0.328171 -0.725816,0.494141 -1.189453,0.494141 -0.320539,0 -0.607568,-0.07788 -0.861328,-0.232422 0.06869,0.114478 0.154737,0.223096 0.255859,0.324218 0.330079,0.326263 0.723954,0.492188 1.191407,0.492188 0.463636,0 0.859329,-0.165925 1.1875,-0.492188 0.330078,-0.330078 0.49414,-0.725861 0.49414,-1.191406 0,-0.463636 -0.164062,-0.861282 -0.49414,-1.189453 -0.101123,-0.10303 -0.209786,-0.189171 -0.326172,-0.259765 z m -17.205078,0.002 c 0.156453,0.255668 0.236328,0.542742 0.236328,0.863281 0,0.463636 -0.166015,0.861282 -0.496094,1.189453 -0.328171,0.328171 -0.723863,0.494141 -1.1875,0.494141 -0.320539,0 -0.609566,-0.07788 -0.865234,-0.232422 0.07059,0.114478 0.15669,0.223096 0.257812,0.324218 0.328171,0.326263 0.725862,0.492188 1.191406,0.492188 0.465545,0 0.857422,-0.165925 1.1875,-0.492188 0.328171,-0.330078 0.496094,-0.725861 0.496094,-1.191406 0,-0.463636 -0.167923,-0.861282 -0.496094,-1.189453 -0.101122,-0.101122 -0.20974,-0.187218 -0.324218,-0.257812 z m 4.302734,0 c 0.156453,0.257576 0.234375,0.54465 0.234375,0.863281 0,0.463636 -0.167923,0.861282 -0.496094,1.189453 -0.328171,0.328171 -0.721955,0.494141 -1.1875,0.494141 -0.320539,0 -0.609566,-0.07792 -0.865234,-0.234375 0.0706,0.116386 0.15669,0.225049 0.257812,0.326171 0.330079,0.326263 0.727815,0.492188 1.19336,0.492188 0.463636,0 0.857376,-0.165925 1.185547,-0.492188 0.330078,-0.330078 0.496093,-0.725861 0.496093,-1.191406 0,-0.463636 -0.166015,-0.861282 -0.496093,-1.189453 -0.101123,-0.101122 -0.207788,-0.187218 -0.322266,-0.257812 z m 4.300781,0 c 0.154546,0.255668 0.232422,0.542742 0.232422,0.863281 0,0.463636 -0.164017,0.861282 -0.492187,1.189453 -0.330079,0.328171 -0.723864,0.494141 -1.1875,0.494141 -0.320539,0 -0.609567,-0.07792 -0.865235,-0.234375 0.0706,0.116386 0.15669,0.225049 0.257813,0.326171 0.328171,0.326263 0.725861,0.492188 1.191406,0.492188 0.465545,0 0.859329,-0.165925 1.1875,-0.492188 0.328171,-0.330078 0.494141,-0.725861 0.494141,-1.191406 0,-0.463636 -0.16597,-0.861282 -0.494141,-1.189453 -0.101122,-0.101122 -0.209741,-0.187218 -0.324219,-0.257812 z m 4.300782,4.533203 c 0.156453,0.257576 0.234375,0.544695 0.234374,0.865234 0,0.463637 -0.164061,0.861282 -0.49414,1.189453 -0.328171,0.328171 -0.72191,0.494141 -1.185547,0.494141 -0.320539,0 -0.609566,-0.07788 -0.865234,-0.232422 0.07059,0.114478 0.15669,0.223096 0.257812,0.324219 0.328171,0.326263 0.725862,0.49414 1.191406,0.49414 0.463637,0 0.857422,-0.167877 1.1875,-0.49414 0.328171,-0.328171 0.492188,-0.725862 0.492188,-1.191407 0,-0.463636 -0.164017,-0.861282 -0.492188,-1.189453 -0.10303,-0.10303 -0.211693,-0.18917 -0.326171,-0.259765 z m -8.601563,0.002 c 0.156453,0.257576 0.234375,0.54465 0.234375,0.863281 0,0.463637 -0.167923,0.861282 -0.496094,1.189453 -0.328171,0.328171 -0.721955,0.494141 -1.1875,0.494141 -0.320539,0 -0.609566,-0.07792 -0.865234,-0.234375 0.0706,0.116386 0.15669,0.225049 0.257812,0.326172 0.330079,0.326263 0.727815,0.49414 1.19336,0.49414 0.463636,0 0.857376,-0.167877 1.185547,-0.49414 0.330078,-0.328171 0.496093,-0.725862 0.496093,-1.191407 0,-0.463636 -0.166015,-0.861282 -0.496093,-1.189453 -0.101123,-0.101122 -0.207788,-0.187217 -0.322266,-0.257812 z m 4.300781,0 c 0.154546,0.255668 0.232422,0.542742 0.232422,0.863281 0,0.463637 -0.164017,0.861282 -0.492187,1.189453 -0.330079,0.328171 -0.723864,0.494141 -1.1875,0.494141 -0.320539,0 -0.609567,-0.07792 -0.865235,-0.234375 0.0706,0.116386 0.15669,0.225049 0.257813,0.326172 0.328171,0.326263 0.725861,0.49414 1.191406,0.49414 0.465545,0 0.859329,-0.167877 1.1875,-0.49414 0.328171,-0.328171 0.494141,-0.725862 0.494141,-1.191407 0,-0.463636 -0.16597,-0.861282 -0.494141,-1.189453 -0.101122,-0.101122 -0.209741,-0.187217 -0.324219,-0.257812 z" fill-opacity=".2"/>
   <path d="m 19.285156,12.814453 c -0.465544,0 -0.863235,0.162109 -1.191406,0.492188 -0.328171,0.32817 -0.492187,0.725816 -0.492188,1.189453 0,0.463636 0.164017,0.861282 0.492188,1.189453 0.10303,0.10303 0.211739,0.189171 0.328125,0.259765 0.255668,0.156454 0.54465,0.234376 0.863281,0.234376 0.465545,0 0.859329,-0.16597 1.1875,-0.494141 0.328171,-0.328171 0.496094,-0.725817 0.496094,-1.189453 0,-0.320539 -0.07797,-0.607614 -0.236328,-0.863282 -0.0706,-0.116386 -0.156735,-0.225049 -0.259766,-0.326171 -0.328171,-0.330079 -0.721955,-0.492188 -1.1875,-0.492188 z m 4.302735,0 c -0.465545,0 -0.863236,0.162109 -1.191407,0.492188 -0.330078,0.32817 -0.492187,0.725816 -0.492187,1.189453 0,0.463636 0.162109,0.861282 0.492187,1.189453 0.101123,0.10303 0.209786,0.189171 0.326172,0.259765 0.255668,0.156454 0.544696,0.234376 0.865235,0.234376 0.463636,0 0.857421,-0.16597 1.1875,-0.494141 0.32817,-0.328171 0.492187,-0.725817 0.492187,-1.189453 0,-0.320539 -0.07792,-0.607614 -0.234375,-0.863282 -0.0706,-0.116386 -0.15669,-0.225049 -0.257812,-0.326171 -0.330079,-0.330079 -0.723864,-0.492188 -1.1875,-0.492188 z m 4.302734,0 c -0.467453,0 -0.863281,0.162109 -1.193359,0.492188 -0.328171,0.32817 -0.492188,0.725816 -0.492188,1.189453 0,0.463636 0.164017,0.861282 0.492188,1.189453 0.10303,0.10303 0.213692,0.191124 0.330078,0.261719 0.25376,0.154545 0.542742,0.232422 0.863281,0.232422 0.463637,0 0.857376,-0.16597 1.185547,-0.494141 0.330079,-0.328171 0.494141,-0.725817 0.49414,-1.189453 0,-0.320539 -0.07797,-0.607659 -0.236328,-0.865235 -0.07059,-0.114478 -0.15669,-0.223096 -0.257812,-0.324218 -0.328171,-0.330079 -0.72191,-0.492188 -1.185547,-0.492188 z m -17.208984,4.535156 c -0.465545,0 -0.8612827,0.162109 -1.1894535,0.492188 -0.3300787,0.328171 -0.4941406,0.725816 -0.4941406,1.189453 0,0.465545 0.1640619,0.861328 0.4941406,1.191406 0.1011224,0.101123 0.2117389,0.189171 0.328125,0.259766 0.2537595,0.154545 0.5407895,0.232422 0.8613285,0.232422 0.465544,0 0.859374,-0.165925 1.189453,-0.492188 0.328171,-0.330078 0.49414,-0.725861 0.49414,-1.191406 0,-0.320539 -0.07792,-0.607613 -0.234375,-0.863281 -0.07059,-0.116386 -0.158643,-0.22505 -0.259765,-0.326172 -0.330079,-0.330079 -0.723909,-0.492188 -1.189453,-0.492188 z m 4.302734,0 c -0.465545,0 -0.863281,0.162109 -1.193359,0.492188 -0.328171,0.328171 -0.490235,0.725816 -0.490235,1.189453 0,0.465545 0.162064,0.861328 0.490235,1.191406 0.10303,0.101123 0.211738,0.189171 0.328125,0.259766 0.255668,0.154545 0.544695,0.232422 0.865234,0.232422 0.463637,0 0.859329,-0.165925 1.1875,-0.492188 0.330079,-0.330078 0.496094,-0.725861 0.496094,-1.191406 0,-0.320539 -0.07987,-0.607613 -0.236328,-0.863281 -0.07059,-0.116386 -0.156736,-0.22505 -0.259766,-0.326172 -0.328171,-0.330079 -0.723863,-0.492188 -1.1875,-0.492188 z m 17.205078,0 c -0.465544,0 -0.861282,0.162109 -1.189453,0.492188 -0.330079,0.328171 -0.492187,0.725816 -0.492188,1.189453 0,0.465545 0.162109,0.861328 0.492188,1.191406 0.101122,0.101123 0.211739,0.189171 0.328125,0.259766 0.25376,0.154545 0.540789,0.232422 0.861328,0.232422 0.463637,0 0.859375,-0.165925 1.189453,-0.492188 0.328171,-0.330078 0.492188,-0.725861 0.492188,-1.191406 0,-0.320539 -0.07792,-0.607613 -0.234375,-0.863281 -0.07059,-0.116386 -0.15669,-0.22505 -0.257813,-0.326172 -0.330078,-0.330079 -0.725816,-0.492188 -1.189453,-0.492188 z m 4.302735,0 c -0.467453,0 -0.861328,0.162109 -1.191407,0.492188 -0.328171,0.328171 -0.490234,0.725816 -0.490234,1.189453 0,0.465545 0.162063,0.861328 0.490234,1.191406 0.103031,0.101123 0.211739,0.189171 0.328125,0.259766 0.255668,0.154545 0.542743,0.232422 0.863282,0.232422 0.463636,0 0.859329,-0.165925 1.1875,-0.492188 0.330078,-0.330078 0.49414,-0.725861 0.49414,-1.191406 0,-0.320539 -0.07792,-0.607613 -0.234375,-0.863281 -0.07059,-0.116386 -0.158643,-0.22505 -0.259765,-0.326172 -0.328171,-0.330079 -0.723864,-0.492188 -1.1875,-0.492188 z m -25.810547,4.535157 c -0.465545,0 -0.8612827,0.164016 -1.1894535,0.492187 -0.3300787,0.328171 -0.4941406,0.725817 -0.4941406,1.189453 0,0.465545 0.1640619,0.863236 0.4941406,1.191406 0.1030304,0.103031 0.2117389,0.191124 0.328125,0.261719 0.2537595,0.154546 0.5407895,0.232422 0.8613285,0.232422 0.465544,0 0.859374,-0.167878 1.189453,-0.494141 0.328171,-0.32817 0.49414,-0.725861 0.49414,-1.191406 0,-0.318631 -0.07792,-0.605705 -0.234375,-0.863281 -0.07059,-0.116386 -0.158643,-0.225049 -0.259765,-0.326172 -0.330079,-0.328171 -0.723909,-0.492187 -1.189453,-0.492187 z m 4.302734,0 c -0.465545,0 -0.863281,0.164016 -1.193359,0.492187 -0.328171,0.328171 -0.490235,0.725817 -0.490235,1.189453 0,0.465545 0.162064,0.863236 0.490235,1.191406 0.10303,0.103031 0.213692,0.191124 0.330078,0.261719 0.25376,0.154546 0.542742,0.232422 0.863281,0.232422 0.463637,0 0.859329,-0.167878 1.1875,-0.494141 0.330079,-0.32817 0.496094,-0.725861 0.496094,-1.191406 0,-0.318631 -0.07992,-0.605705 -0.238281,-0.863281 -0.07059,-0.116386 -0.156691,-0.225049 -0.257813,-0.326172 -0.328171,-0.328171 -0.723863,-0.492187 -1.1875,-0.492187 z m 4.300781,0 c -0.465544,0 -0.863235,0.164016 -1.191406,0.492187 -0.328171,0.328171 -0.492188,0.725817 -0.492188,1.189453 0,0.465545 0.164017,0.863236 0.492188,1.191406 0.10303,0.103031 0.211739,0.189171 0.328125,0.259766 0.255668,0.156454 0.54465,0.234375 0.863281,0.234375 0.465545,0 0.859329,-0.167878 1.1875,-0.494141 0.328171,-0.32817 0.496094,-0.725861 0.496094,-1.191406 0,-0.318631 -0.07792,-0.60566 -0.234375,-0.861328 -0.0706,-0.116386 -0.158688,-0.225095 -0.261719,-0.328125 -0.328171,-0.328171 -0.721955,-0.492187 -1.1875,-0.492187 z m 8.605469,0 c -0.467453,0 -0.863281,0.164016 -1.193359,0.492187 -0.328171,0.328171 -0.492188,0.725817 -0.492188,1.189453 0,0.465545 0.164017,0.863236 0.492188,1.191406 0.10303,0.103031 0.213692,0.191124 0.330078,0.261719 0.25376,0.154546 0.542742,0.232422 0.863281,0.232422 0.463637,0 0.857376,-0.167878 1.185547,-0.494141 0.330079,-0.32817 0.494141,-0.725861 0.49414,-1.191406 0,-0.320539 -0.07797,-0.607613 -0.236328,-0.863281 -0.07059,-0.116386 -0.15669,-0.225049 -0.257812,-0.326172 -0.328171,-0.328171 -0.72191,-0.492187 -1.185547,-0.492187 z m 4.298828,0 c -0.465544,0 -0.861282,0.164016 -1.189453,0.492187 -0.330079,0.328171 -0.492187,0.725817 -0.492188,1.189453 0,0.465545 0.162109,0.863236 0.492188,1.191406 0.10303,0.103031 0.211739,0.191124 0.328125,0.261719 0.25376,0.154546 0.540789,0.232422 0.861328,0.232422 0.463637,0 0.859375,-0.167878 1.189453,-0.494141 0.328171,-0.32817 0.492188,-0.725861 0.492188,-1.191406 0,-0.320539 -0.07792,-0.607613 -0.234375,-0.863281 -0.07059,-0.116386 -0.15669,-0.225049 -0.257813,-0.326172 -0.330078,-0.328171 -0.725816,-0.492187 -1.189453,-0.492187 z m 4.302735,0 c -0.467453,0 -0.861328,0.164016 -1.191407,0.492187 -0.328171,0.328171 -0.490234,0.725817 -0.490234,1.189453 0,0.465545 0.162063,0.863236 0.490234,1.191406 0.103031,0.103031 0.213692,0.191124 0.330078,0.261719 0.25376,0.154546 0.54079,0.232422 0.861329,0.232422 0.463636,0 0.859329,-0.167878 1.1875,-0.494141 0.330078,-0.32817 0.49414,-0.725861 0.49414,-1.191406 0,-0.320539 -0.07797,-0.607613 -0.236328,-0.863281 -0.07059,-0.116386 -0.15669,-0.225049 -0.257812,-0.326172 -0.328171,-0.328171 -0.723864,-0.492187 -1.1875,-0.492187 z m -25.810547,4.535156 c -0.465545,0 -0.8612827,0.165925 -1.1894535,0.492187 -0.3300787,0.330079 -0.4941406,0.725862 -0.4941406,1.191407 0,0.463636 0.1640619,0.861282 0.4941406,1.189453 0.1011224,0.10303 0.2117389,0.191124 0.328125,0.261719 0.2537595,0.154545 0.5407895,0.232421 0.8613285,0.232421 0.465544,0 0.859374,-0.165969 1.189453,-0.49414 0.328171,-0.328171 0.49414,-0.725817 0.49414,-1.189453 0,-0.320539 -0.07792,-0.607614 -0.234375,-0.863282 -0.07059,-0.116386 -0.158643,-0.225094 -0.259765,-0.328125 -0.330079,-0.326262 -0.723909,-0.492187 -1.189453,-0.492187 z m 4.302734,0 c -0.465545,0 -0.863281,0.165925 -1.193359,0.492187 -0.328171,0.330079 -0.490235,0.725862 -0.490235,1.191407 0,0.463636 0.162064,0.861282 0.490235,1.189453 0.10303,0.10303 0.211738,0.191124 0.328125,0.261719 0.255668,0.154545 0.544695,0.232421 0.865234,0.232421 0.463637,0 0.859329,-0.165969 1.1875,-0.49414 0.330079,-0.328171 0.496094,-0.725817 0.496094,-1.189453 0,-0.320539 -0.07987,-0.607614 -0.236328,-0.863282 -0.07059,-0.116386 -0.156736,-0.225094 -0.259766,-0.328125 -0.328171,-0.326262 -0.723863,-0.492187 -1.1875,-0.492187 z m 4.300781,0 c -0.465544,0 -0.863235,0.165925 -1.191406,0.492187 -0.328171,0.330079 -0.492188,0.725862 -0.492188,1.191407 0,0.463636 0.164017,0.861282 0.492188,1.189453 0.101122,0.101122 0.209786,0.189171 0.326172,0.259765 0.255668,0.156454 0.544695,0.234375 0.865234,0.234375 0.465545,0 0.859329,-0.165969 1.1875,-0.49414 0.328171,-0.328171 0.496094,-0.725817 0.496094,-1.189453 0,-0.318631 -0.07792,-0.605706 -0.234375,-0.863282 -0.0706,-0.116386 -0.158688,-0.225094 -0.261719,-0.328125 -0.328171,-0.326262 -0.721955,-0.492187 -1.1875,-0.492187 z m 8.605469,0 c -0.467453,0 -0.863281,0.165925 -1.193359,0.492187 -0.328171,0.330079 -0.492188,0.725862 -0.492188,1.191407 0,0.463636 0.164017,0.861282 0.492188,1.189453 0.10303,0.10303 0.211738,0.191124 0.328125,0.261719 0.255668,0.154545 0.544695,0.232421 0.865234,0.232421 0.463637,0 0.857376,-0.165969 1.185547,-0.49414 0.330079,-0.328171 0.494141,-0.725817 0.49414,-1.189453 0,-0.320539 -0.07792,-0.607659 -0.234374,-0.865235 -0.07059,-0.114478 -0.158644,-0.223141 -0.259766,-0.326172 -0.328171,-0.326262 -0.72191,-0.492187 -1.185547,-0.492187 z m 4.298828,0 c -0.465544,0 -0.861282,0.165925 -1.189453,0.492187 -0.330079,0.330079 -0.492187,0.725862 -0.492188,1.191407 0,0.463636 0.162109,0.861282 0.492188,1.189453 0.101122,0.10303 0.211739,0.191124 0.328125,0.261719 0.25376,0.154545 0.540789,0.232421 0.861328,0.232421 0.463637,0 0.859375,-0.165969 1.189453,-0.49414 0.328171,-0.328171 0.492188,-0.725817 0.492188,-1.189453 0,-0.320539 -0.07792,-0.607659 -0.234375,-0.865235 -0.07059,-0.114478 -0.15669,-0.223141 -0.257813,-0.326172 -0.330078,-0.326262 -0.725816,-0.492187 -1.189453,-0.492187 z m 4.302735,0 c -0.467453,0 -0.861328,0.165925 -1.191407,0.492187 -0.328171,0.330079 -0.490234,0.725862 -0.490234,1.191407 0,0.463636 0.162063,0.861282 0.490234,1.189453 0.103031,0.10303 0.211739,0.191124 0.328125,0.261719 0.255668,0.154545 0.542743,0.232421 0.863282,0.232421 0.463636,0 0.859329,-0.165969 1.1875,-0.49414 0.330078,-0.328171 0.49414,-0.725817 0.49414,-1.189453 0,-0.320539 -0.07792,-0.607659 -0.234375,-0.865235 -0.07059,-0.114478 -0.158643,-0.223141 -0.259765,-0.326172 -0.328171,-0.326262 -0.723864,-0.492187 -1.1875,-0.492187 z m -21.507813,4.537109 c -0.465545,0 -0.863281,0.163972 -1.193359,0.490235 -0.328171,0.330078 -0.490235,0.725861 -0.490235,1.191406 0,0.463636 0.162064,0.861282 0.490235,1.189453 0.10303,0.10303 0.211738,0.191124 0.328125,0.261719 0.255668,0.154545 0.544695,0.232422 0.865234,0.232422 0.463637,0 0.859329,-0.16597 1.1875,-0.494141 0.330079,-0.328171 0.496094,-0.725817 0.496094,-1.189453 0,-0.320539 -0.07987,-0.607613 -0.236328,-0.863281 -0.07059,-0.116387 -0.156736,-0.225095 -0.259766,-0.328125 -0.328171,-0.326263 -0.723863,-0.490235 -1.1875,-0.490235 z m 4.300781,0 c -0.465544,0 -0.863235,0.163972 -1.191406,0.490235 -0.328171,0.330078 -0.492188,0.725861 -0.492188,1.191406 0,0.463636 0.164017,0.861282 0.492188,1.189453 0.101122,0.101122 0.209786,0.189171 0.326172,0.259766 0.255668,0.156453 0.544695,0.234375 0.865234,0.234375 0.465545,0 0.859329,-0.16597 1.1875,-0.494141 0.328171,-0.328171 0.496094,-0.725817 0.496094,-1.189453 0,-0.318631 -0.07792,-0.605705 -0.234375,-0.863281 -0.0706,-0.116387 -0.158688,-0.225095 -0.261719,-0.328125 -0.328171,-0.326263 -0.721955,-0.490235 -1.1875,-0.490235 z m 8.605469,0 c -0.467453,0 -0.863281,0.163972 -1.193359,0.490235 -0.328171,0.330078 -0.492188,0.725861 -0.492188,1.191406 0,0.463636 0.164017,0.861282 0.492188,1.189453 0.10303,0.10303 0.211738,0.191124 0.328125,0.261719 0.255668,0.154545 0.544695,0.232422 0.865234,0.232422 0.463637,0 0.857376,-0.16597 1.185547,-0.494141 0.330079,-0.328171 0.494141,-0.725817 0.49414,-1.189453 0,-0.320539 -0.07792,-0.607659 -0.234374,-0.865234 -0.07059,-0.114479 -0.158644,-0.223142 -0.259766,-0.326172 -0.328171,-0.326263 -0.72191,-0.490235 -1.185547,-0.490235 z m 4.298828,0 c -0.465544,0 -0.861282,0.163972 -1.189453,0.490235 -0.330079,0.330078 -0.492187,0.725861 -0.492188,1.191406 0,0.463636 0.162109,0.861282 0.492188,1.189453 0.101122,0.10303 0.211739,0.191124 0.328125,0.261719 0.25376,0.154545 0.540789,0.232422 0.861328,0.232422 0.463637,0 0.859375,-0.16597 1.189453,-0.494141 0.328171,-0.328171 0.492188,-0.725817 0.492188,-1.189453 0,-0.320539 -0.07792,-0.607659 -0.234375,-0.865234 -0.07059,-0.114479 -0.15669,-0.223142 -0.257813,-0.326172 -0.330078,-0.326263 -0.725816,-0.490235 -1.189453,-0.490235 z m -4.298828,4.535157 c -0.467453,0 -0.863281,0.163971 -1.193359,0.490234 -0.328171,0.330079 -0.492188,0.72777 -0.492188,1.191406 0,0.463637 0.164017,0.861282 0.492188,1.189453 0.10303,0.103031 0.211738,0.191124 0.328125,0.261719 0.255668,0.154546 0.544695,0.232422 0.865234,0.232422 0.463637,0 0.857376,-0.16597 1.185547,-0.494141 0.330079,-0.328171 0.494141,-0.725816 0.49414,-1.189453 0,-0.320539 -0.07792,-0.607658 -0.234374,-0.865234 -0.07059,-0.114478 -0.158644,-0.223142 -0.259766,-0.326172 -0.328171,-0.326263 -0.72191,-0.490234 -1.185547,-0.490234 z" fill="#64a2f1"/>
  </g>
 </g>
</svg>
