<svg width="48" xmlns="http://www.w3.org/2000/svg" height="48" xmlns:xlink="http://www.w3.org/1999/xlink">
 <defs>
  <linearGradient id="a" y1="42" x1="19.01" y2="26" gradientUnits="userSpaceOnUse" x2="3.01">
   <stop stop-color="#cd1f03"/>
   <stop offset="1" stop-color="#d94460"/>
  </linearGradient>
  <linearGradient xlink:href="#a" id="b" y1="42.557" x1="20.01" y2="26.557" gradientUnits="userSpaceOnUse" x2="4.01"/>
  <linearGradient id="c" y1="24.505" x1="49.38" y2="5.01" gradientUnits="userSpaceOnUse" x2="21.01">
   <stop stop-color="#b21b03"/>
   <stop offset="1" stop-color="#d94460"/>
  </linearGradient>
  <linearGradient id="d" y1="-12.559" x1="11.37" y2="25.998" x2="47.999" gradientUnits="userSpaceOnUse" gradientTransform="translate(.001.002)">
   <stop stop-opacity=".188"/>
   <stop offset="1" stop-opacity="0"/>
  </linearGradient>
  <linearGradient id="e" y1="20.02" x1="2.188" y2="48.46" x2="31.688" gradientUnits="userSpaceOnUse" gradientTransform="translate(1 .002)">
   <stop stop-opacity=".145"/>
   <stop offset="1" stop-opacity="0"/>
  </linearGradient>
 </defs>
 <g color="#000000">
  <path fill="url(#a)" d="m15 10v2h-5v14h-6v19h24v-19h-16v-12h3v2l5-3z"/>
  <path fill="#f5d66c" d="m5.442 27.533h21.09v16.09h-21.09z"/>
  <path fill="url(#c)" d="m20 3v19h16v11h-3v-2l-5 3 5 3v-2h5v-13h6v-19z"/>
  <path fill="#f5d66c" d="m21.501 4.471h21v16.16h-21z"/>
 </g>
 <path fill="url(#d)" d="m32.992 6.476l9.523 8.43v5.65l-11.717.074-1.985-2.128 1.313-2.75-2.125-1.938 3-2.875-1.625-2.625 1-1.563 1.75-.188z"/>
 <g color="#000000">
  <path fill="#d5363e" d="m31.505 6c-1.381 0-2.5 1.119-2.5 2.5 0 1.208.861 2.204 2 2.438v.031l-2.938 2.844.688.719 2.25-2.188v1.625l-2.156 4.5.906.438 1.75-3.688 1.75 3.688.906-.438-2.156-4.5v-1.625l2.25 2.188.688-.719-2.938-2.875c1.139-.233 2-1.229 2-2.438 0-1.381-1.119-2.5-2.5-2.5m0 1c.828 0 1.5.672 1.5 1.5 0 .828-.672 1.5-1.5 1.5-.828 0-1.5-.672-1.5-1.5 0-.828.672-1.5 1.5-1.5"/>
  <path fill="url(#e)" d="m15.453 27.938l1.37 1.149 3.58 1.458 6.127 6.988v6.05l-11.955.066-2.701-2.547-3.624-4.685 1.458-4.287 1.9-1.812 3.624-1.193z"/>
  <path fill="url(#b)" d="m14.999 28.554l-.004.455c-1.26.095-2.462.39-3.548 1-1.849.988-3.104 3.854-3.173 5.848.004.182-.039.386.035.554.176.227.596.295.782.042.479-.553 1.221-.94 1.999-.901.727-.037 1.399.357 1.823.885.153.2.479.253.679.087.241-.226.454-.487.75-.66.211-.132.446-.225.694-.27.043 1.737-.002 2.503.007 4.24.015.287-.059.572-.261.792-.358.454-1.062.622-1.604.359-.428-.192-.709-.612-.732-1.051-.021-.217-.175-.44-.428-.455-.284-.036-.535.215-.496.476-.017.952.792 1.812 1.779 1.992 1.06.222 2.223-.4 2.558-1.36.19-.517.088-1.072.12-1.608.008-1.454-.022-1.937.023-3.391.582.112 1.053.499 1.414.918.205.184.564.143.717-.081.342-.419.831-.754 1.394-.843.727-.139 1.469.129 2.02.568.215.135.375.358.617.452.312.092.691-.175.611-.492.01-1.853-.985-4.638-2.579-5.728-1.105-.767-2.451-1.201-3.818-1.334-.127-.022-.256-.014-.368-.045l-.009-.452c.005-.69-.979-.68-1 0m4.86 2.943c.619.472 1.452 2.099 1.656 3.208-.61-.359-1.113-.358-1.843-.29-.727.048-1.413.636-1.934 1.105-.627-.568-1.498-1.17-2.381-1.108-.771.019-1.502.353-2.056.841-.841-.777-2.161-1.06-3.287-.696-.245.074-.502.108-.525-.101.308-1.457 2.035-3.202 2.697-3.58.692-.356 2.164-.91 3.385-.866 1.596-.084 3.588.845 4.288 1.489"/>
 </g>
</svg>
