<svg width="48" xmlns="http://www.w3.org/2000/svg" height="48" viewBox="0 0 48 48">
 <defs>
  <linearGradient id="a" y1="40" y2="17" x2="0" gradientUnits="userSpaceOnUse" gradientTransform="matrix(.95455 0 0 .97826 1.091 4.87)">
   <stop stop-color="#16a085"/>
   <stop offset="1" stop-color="#2ecc71"/>
  </linearGradient>
  <linearGradient spreadMethod="reflect" id="b" y1="526.8" x1="418.57" y2="525.8" x2="434.57" gradientUnits="userSpaceOnUse" gradientTransform="matrix(.95455 0 0 .97826-366-484.06)">
   <stop stop-color="#c9ce3b"/>
   <stop offset="1" stop-color="#c9ce3b" stop-opacity="0"/>
  </linearGradient>
  <linearGradient id="c" y1="31" y2="17" x2="0" gradientUnits="userSpaceOnUse">
   <stop stop-color="#bcfd93"/>
   <stop offset="1" stop-color="#edffda"/>
  </linearGradient>
  <linearGradient id="d" y1="16.998" x1="23" y2="31.998" x2="38" gradientUnits="userSpaceOnUse">
   <stop stop-color="#292c2f"/>
   <stop offset="1" stop-opacity="0"/>
  </linearGradient>
  <linearGradient id="e" y1="552.07" y2="429.4" gradientUnits="userSpaceOnUse" x2="0">
   <stop stop-color="#34495e"/>
   <stop offset="1" stop-color="#1c7865"/>
  </linearGradient>
 </defs>
 <g transform="matrix(.32609 0 0 .32609-124.06-136.02)">
  <rect width="122.67" x="392.7" y="429.4" stroke-opacity=".55" fill="url(#e)" rx="61.33" height="122.67" stroke-width="8.587"/>
  <g fill-rule="evenodd">
   <g stroke-width=".326">
    <path fill="url(#a)" d="m13.723 22.416c-.368-.019-.76.001-1.178.063-4.302.63-4.655 5.31-7.158 8.828 2.909 7.441 10.118 12.693 18.613 12.693 6.59 0 12.398-3.17 16.04-8.06-7.483-9.356-9.804 1.271-16.04-1.725-4.474-2.751-4.754-11.521-10.277-11.801" transform="matrix(3.06667 0 0 3.06667 380.44 417.13)"/>
    <path fill="url(#b)" d="m13.707 22.416c-.179-.008-.365-.008-.555.002-.196.01-.399.03-.607.061-4.302.63-4.655 5.31-7.158 8.828.081.207.155.417.242.621 2.287-3.47 2.758-7.862 6.916-8.471 6.682-.978 6.682 8.804 11.455 11.738 6.126 2.944 8.473-7.273 15.656 1.258.132-.166.254-.341.381-.512-7.483-9.356-9.804 1.271-16.04-1.725-4.479-2.754-4.753-11.539-10.293-11.801" transform="matrix(3.06667 0 0 3.06667 380.44 417.13)"/>
   </g>
   <path opacity=".2" fill="url(#d)" d="m25 17l-2 14 10.576 10.576c3.379-1.838 6.162-4.621 8-8z" transform="matrix(3.06667 0 0 3.06667 380.44 417.13)"/>
   <path fill="url(#c)" d="m25 17l-5 8h3v6l5-8h-3z" transform="matrix(3.06667 0 0 3.06667 380.44 417.13)"/>
  </g>
  <path fill="#128269" stroke-width="3.067" d="m392.74 489.2c-.012.511-.036 1.019-.036 1.533 0 33.979 27.355 61.33 61.33 61.33 33.979 0 61.33-27.355 61.33-61.33 0-.514-.024-1.023-.036-1.533-.812 33.26-27.834 59.8-61.3 59.8-33.464 0-60.49-26.539-61.3-59.8"/>
 </g>
</svg>
