<svg height="48" viewBox="0 0 48 48" width="48" xmlns="http://www.w3.org/2000/svg" xmlns:xlink="http://www.w3.org/1999/xlink"><linearGradient id="a"><stop offset="0" stop-color="#292c2f"/><stop offset="1" stop-opacity="0"/></linearGradient><linearGradient id="b" gradientTransform="matrix(2.8571429 0 0 2.7999946 -1209.9184 -1455.2316)" gradientUnits="userSpaceOnUse" x1="428.37143" x2="428.37143" y1="530.79797" y2="525.79797"><stop offset="0" stop-color="#da4453"/><stop offset="1" stop-color="#fa4e5f"/></linearGradient><linearGradient id="c" gradientUnits="userSpaceOnUse" x1="33.999967" x2="33.999967" y1="31.000038" y2="17.000038"><stop offset="0" stop-color="#4d4d4d"/><stop offset="1" stop-color="#585858"/></linearGradient><linearGradient id="d" gradientUnits="userSpaceOnUse" x1="31.999967" x2="31.999967" y1="31.000038" y2="17.000038"><stop offset="0" stop-color="#afb0b3"/><stop offset="1" stop-color="#bdc3c7"/></linearGradient><linearGradient id="e" gradientUnits="userSpaceOnUse" x1="28.999967" x2="28.999967" y1="17.000038" y2="31.000038"><stop offset="0" stop-color="#31363b"/><stop offset="1" stop-color="#4d4d4d"/></linearGradient><linearGradient id="f" gradientUnits="userSpaceOnUse" x1="25.999967" x2="25.999967" y1="17.000038" y2="31.000038"><stop offset="0" stop-color="#7f8c8d"/><stop offset="1" stop-color="#afb0b3"/></linearGradient><linearGradient id="g" gradientUnits="userSpaceOnUse" x1="24" x2="24" y1="44" y2="4"><stop offset="0" stop-color="#bdc3c7"/><stop offset="1" stop-color="#eff0f1"/></linearGradient><linearGradient id="h" gradientUnits="userSpaceOnUse" x1="17" x2="38.140625" xlink:href="#a" y1="17" y2="38.140625"/><linearGradient id="i" gradientUnits="userSpaceOnUse" x1="25" x2="41.563583" xlink:href="#a" y1="17" y2="33.563583"/><circle cx="24" cy="24" fill="url(#g)" r="20"/><path d="m10 17 2 14 12.964844 12.964844a20 20 0 0 0 18.988281-19.011719l-7.953125-7.953125-4 6-6-6-10 6z" fill="url(#h)" opacity=".2"/><path d="m7 17h3l3.500001 10 3.499999-10h3l-5 14-3.00001-.000066z" fill="url(#b)"/><path d="m18 31 5-14h3l-5 14zm10 0 5-14h3l-5 14z" fill="url(#e)"/><path d="m15 31 5-14h3l-5 14zm10 0 5-14h3l-5 14z" fill="url(#f)"/><path d="m26 17-1 14 9.820312 9.820312a20 20 0 0 0 9.132813-15.867187l-7.953125-7.953125-3 7z" fill="url(#i)" opacity=".2"/><path d="m28 31h-3l-5-14h3zm10 0h-3l-5-14h3z" fill="url(#d)"/><path d="m23 17 5 14h3l-5-14zm10 0 5 14h3l-5-14z" fill="url(#c)"/><path d="m43.978516 23.417969a20 20 0 0 1 -19.978516 19.582031 20 20 0 0 1 -19.978516-19.417969 20 20 0 0 0 -.021484.417969 20 20 0 0 0 20 20 20 20 0 0 0 20-20 20 20 0 0 0 -.021484-.582031z" fill="#232629" opacity=".2"/></svg>