<?xml version="1.0" encoding="UTF-8" standalone="no"?>
<svg xmlns="http://www.w3.org/2000/svg" xmlns:xlink="http://www.w3.org/1999/xlink" width="48" height="48" id="svg2" version="1.1">
 <defs id="defs4">
  <linearGradient id="linearGradient4301">
   <stop style="stop-color:#f10000;stop-opacity:1" offset="0" id="stop4303"/>
   <stop style="stop-color:#b20000;stop-opacity:1" offset="1" id="stop4305"/>
  </linearGradient>
  <linearGradient id="linearGradient4305">
   <stop style="stop-color:#ffffff;stop-opacity:1;" offset="0" id="stop4307"/>
   <stop style="stop-color:#ffffff;stop-opacity:0;" offset="1" id="stop4309"/>
  </linearGradient>
  <linearGradient id="linearGradient4428" y1="4.716" x1="17.483" y2="39.833" x2="37.758" gradientUnits="userSpaceOnUse" gradientTransform="matrix(-.99376-.00423.00423.98887 47.823 2.34)">
   <stop stop-color="#3fc380" id="stop4430" style="stop-color:#3cc6ae;stop-opacity:1"/>
   <stop offset="1" stop-color="#3f8ed3" id="stop4432" style="stop-color:#3f7ad3;stop-opacity:1"/>
  </linearGradient>
  <linearGradient id="a" y1="543.8" y2="503.8" x2="0" gradientUnits="userSpaceOnUse" gradientTransform="translate(-384.57,-499.8)">
   <stop stop-color="#2a2c2f" id="stop7"/>
   <stop offset="1" stop-color="#424649" id="stop9"/>
  </linearGradient>
  <linearGradient id="b" y1="532.8" y2="506.8" x2="0" gradientUnits="userSpaceOnUse">
   <stop stop-color="#989a9b" id="stop12"/>
   <stop offset="1" stop-color="#f6f6f7" id="stop14"/>
  </linearGradient>
  <linearGradient id="c" y1="522.8" x1="403.57" y2="534.8" x2="413.26" gradientUnits="userSpaceOnUse">
   <stop stop-color="#020303" id="stop17"/>
   <stop offset="1" stop-color="#424649" stop-opacity="0" id="stop19"/>
  </linearGradient>
  <linearGradient xlink:href="#c" id="d" y1="521.8" x1="400.77" y2="533.6" gradientUnits="userSpaceOnUse" x2="412.57"/>
  <path fill-rule="evenodd" id="e" d="m426.57 529.8l-16 11-8-8-2-9 17-5z"/>
  <linearGradient gradientUnits="userSpaceOnUse" x2="0" y2="503.8" y1="543.8" id="a-3">
   <stop id="stop4268" stop-color="#2a2c2f"/>
   <stop id="stop4270" stop-color="#424649" offset="1"/>
  </linearGradient>
  <linearGradient gradientUnits="userSpaceOnUse" x2="0" y2="506.8" y1="532.8" id="b-6">
   <stop id="stop4273" stop-color="#989a9b"/>
   <stop id="stop4275" stop-color="#f6f6f7" offset="1"/>
  </linearGradient>
  <linearGradient x2="412.57" gradientUnits="userSpaceOnUse" y2="533.6" x1="400.77" y1="521.8" id="d-7" xlink:href="#c"/>
  <path d="m426.57 529.8l-16 11-8-8-2-9 17-5z" id="e-5" fill-rule="evenodd"/>
  <linearGradient gradientTransform="matrix(-.99376-.00423.00423.98887 47.823 2.34)" gradientUnits="userSpaceOnUse" x2="37.758" y2="39.833" x1="17.483" y1="4.716" id="a-35">
   <stop id="stop4339" stop-color="#3fc380"/>
   <stop id="stop4341" stop-color="#3f8ed3" offset="1"/>
  </linearGradient>
  <linearGradient gradientTransform="matrix(-0.99376,-0.00423,0.00423,0.98887,97.823,31.34)" gradientUnits="userSpaceOnUse" x2="37.758" y2="39.833" x1="17.483" y1="4.716" id="b-62" xlink:href="#a-35"/>
  <linearGradient gradientTransform="matrix(-0.99376,-0.00423,0.00423,0.98887,97.823,16.34)" gradientUnits="userSpaceOnUse" x2="37.758" y2="39.833" x1="17.483" y1="4.716" id="c-9" xlink:href="#a-35"/>
  <linearGradient gradientTransform="matrix(-.99376-.0067.00423 1.56572 47.823 12.372)" gradientUnits="userSpaceOnUse" x2="37.758" y2="39.833" x1="17.483" y1="4.716" id="d-1">
   <stop id="stop4346" stop-color="#148e76"/>
   <stop id="stop4348" stop-color="#218059" offset="1"/>
  </linearGradient>
  <linearGradient gradientTransform="translate(0-2)" gradientUnits="userSpaceOnUse" x2="43" y2="31" x1="4" y1="18" id="e-2">
   <stop id="stop4351" stop-color="#292c2f" style="stop-color:#000000;stop-opacity:1"/>
   <stop id="stop4353" stop-opacity="0" offset="1" style="stop-color:#000000;stop-opacity:0.32644629"/>
  </linearGradient>
  <linearGradient gradientTransform="translate(0,14)" gradientUnits="userSpaceOnUse" x2="44" y2="28" x1="30.625" y1="14" id="f" xlink:href="#e-2"/>
  <linearGradient gradientTransform="matrix(0.99376,0.0067,-0.00423,-1.56572,50.177,5.628)" gradientUnits="userSpaceOnUse" x2="37.758" y2="39.833" x1="17.483" y1="4.716" id="g" xlink:href="#d-1"/>
  <linearGradient x1="428.816" gradientTransform="translate(-384.57,-499.8)" gradientUnits="userSpaceOnUse" x2="388.865" y2="499.679" y1="547.634" id="a-9">
   <stop id="stop7-3" stop-color="#2a2c2f"/>
   <stop id="stop9-6" stop-color="#536161" offset="1"/>
  </linearGradient>
  <linearGradient x1="36" gradientUnits="userSpaceOnUse" x2="14" y2="12" y1="44" id="b-0">
   <stop style="stop-color:#bfc9c9;stop-opacity:1" id="stop12-6" stop-color="#536161"/>
   <stop style="stop-color:#fbfbfb;stop-opacity:1" id="stop14-2" stop-color="#f4f5f5" offset="1"/>
  </linearGradient>
  <linearGradient gradientTransform="translate(-384.57,-499.8)" gradientUnits="userSpaceOnUse" x2="419.974" y2="539.825" x1="418.57" y1="529.8" id="c-61">
   <stop id="stop17-8" stop-color="#292c2f"/>
   <stop id="stop19-7" stop-opacity="0" offset="1"/>
  </linearGradient>
  <style type="text/css" id="current-color-scheme">
   .ColorScheme-Text { color:#4d4d4d; }
  </style>
  <linearGradient gradientTransform="translate(-404.99,-523.8)" gradientUnits="userSpaceOnUse" x2="419.974" y2="539.825" x1="406.501" y1="527.014" id="c-6">
   <stop id="stop17-7" stop-color="#292c2f"/>
   <stop id="stop19-5" stop-opacity="0" offset="1"/>
  </linearGradient>
  <linearGradient xlink:href="#linearGradient4428" id="linearGradient4408-1" gradientUnits="userSpaceOnUse" gradientTransform="matrix(-0.99376,-0.00423,0.00423,0.98887,43.823,-1.66)" x1="9.875" y1="-2.324" x2="44.278" y2="42.318"/>
  <linearGradient id="a-8">
   <stop id="stop4631" stop-opacity=".742" stop-color="#dcedfe"/>
   <stop id="stop4633" stop-opacity="0" stop-color="#dcedfe" offset="1"/>
  </linearGradient>
  <linearGradient gradientTransform="translate(15.653 1.018)" x2="40.709" gradientUnits="userSpaceOnUse" y2="30.416" x1="10.972" y1="-.018" id="b-4">
   <stop id="stop4636"/>
   <stop id="stop4638" stop-opacity="0" offset="1"/>
  </linearGradient>
  <linearGradient gradientTransform="translate(23.03,5.02)" x2="29.13" gradientUnits="userSpaceOnUse" y2="22.13" x1="11" y1="4" id="c-5" xlink:href="#b-4"/>
  <linearGradient gradientTransform="translate(-99.4835,-40.4835)" x2="30.347" gradientUnits="userSpaceOnUse" y2="45.982" x1="7.347" y1="6.982" id="d-0">
   <stop id="stop4642" stop-color="#eeeeee"/>
   <stop id="stop4644" stop-color="#cccccc" offset="1"/>
  </linearGradient>
  <linearGradient gradientTransform="matrix(1,0,0,1.0091,-110.9855,-40.7775)" x2="0" gradientUnits="userSpaceOnUse" y2="32" y1="36" id="e-3">
   <stop id="stop4647" stop-color="#c58c00"/>
   <stop id="stop4649" stop-color="#ffc318" offset="1"/>
  </linearGradient>
  <linearGradient gradientTransform="matrix(1,0,0,1.25,-111.4835,-50.4855)" x2="19" gradientUnits="userSpaceOnUse" y2="33" x1="23.22" y1="42.986" id="f-6">
   <stop id="stop4652" stop-color="#70431c"/>
   <stop id="stop4654" stop-color="#be8c5a" offset="1"/>
  </linearGradient>
  <linearGradient gradientTransform="translate(-106.4835,-44.4855)" x2="21" gradientUnits="userSpaceOnUse" y2="46" x1="13.98" y1="38.957" id="g-1" xlink:href="#b-4"/>
  <linearGradient gradientUnits="userSpaceOnUse" x2="0" y2="2.987" y1="43.922" id="h" gradientTransform="translate(-122.5135,-45.5035)">
   <stop id="stop4658" stop-color="#22a7f0"/>
   <stop id="stop4660" stop-color="#19b5fe" offset="1"/>
  </linearGradient>
  <linearGradient gradientUnits="userSpaceOnUse" x2="0" y2="34.04" y1="43.922" id="i">
   <stop id="stop4663" stop-color="#c8e3fe"/>
   <stop id="stop4665" stop-color="#e4f1fe" offset="1"/>
  </linearGradient>
  <linearGradient gradientUnits="userSpaceOnUse" x2="27" x1="19" y2="44" y1="33.998" id="j">
   <stop id="stop4668" stop-color="#383e51"/>
   <stop id="stop4670" stop-opacity="0" stop-color="#655c6f" offset="1"/>
  </linearGradient>
  <radialGradient gradientTransform="matrix(0.59169,-0.93256,2.10028,1.33257,-80.07,8.555)" gradientUnits="userSpaceOnUse" r="16" id="k" xlink:href="#a-8" cy="48.672" cx="31.01"/>
  <radialGradient gradientTransform="matrix(0.53188,-0.49081,0.78529,0.851,-19.809,-0.579)" gradientUnits="userSpaceOnUse" r="16" id="l" xlink:href="#a-8" cy="38.13" cx="30.3"/>
  <linearGradient gradientUnits="userSpaceOnUse" x2="0" y2="503.8" y1="543.8" id="a-0">
   <stop id="stop4858" stop-color="#2a2c2f"/>
   <stop id="stop4860" stop-color="#424649" offset="1"/>
  </linearGradient>
  <linearGradient gradientUnits="userSpaceOnUse" x2="0" y2="506.8" y1="532.8" id="b-63">
   <stop id="stop4863" stop-color="#989a9b"/>
   <stop id="stop4865" stop-color="#f6f6f7" offset="1"/>
  </linearGradient>
  <linearGradient x2="412.57" gradientUnits="userSpaceOnUse" y2="533.6" x1="400.77" y1="521.8" id="d-2" xlink:href="#c"/>
  <path d="m426.57 529.8l-16 11-8-8-2-9 17-5z" id="e-0" fill-rule="evenodd"/>
  <linearGradient xlink:href="#linearGradient4305" id="linearGradient4311" x1="16.75" y1="-4.5" x2="36" y2="32" gradientUnits="userSpaceOnUse"/>
  <radialGradient xlink:href="#linearGradient4301" id="radialGradient4309" cx="20.853" cy="17.349" fx="20.853" fy="17.349" r="8.129" gradientTransform="matrix(-0.01162882,1.1950891,-1.274916,-0.0124056,46.239569,-9.6229889)" gradientUnits="userSpaceOnUse"/>
  <linearGradient gradientTransform="translate(-384.57,-499.8)" gradientUnits="userSpaceOnUse" x2="0" y2="503.8" y1="543.8" id="a-09">
   <stop id="stop7-36" stop-color="#2a2c2f"/>
   <stop id="stop9-0" stop-color="#424649" offset="1"/>
  </linearGradient>
  <linearGradient gradientUnits="userSpaceOnUse" x2="0" y2="506.8" y1="532.8" id="b-626">
   <stop id="stop12-1" stop-color="#989a9b"/>
   <stop id="stop14-8" stop-color="#f6f6f7" offset="1"/>
  </linearGradient>
  <linearGradient x2="412.57" gradientUnits="userSpaceOnUse" y2="533.6" x1="400.77" y1="521.8" id="linearGradient4394" xlink:href="#c"/>
  <path d="m426.57 529.8l-16 11-8-8-2-9 17-5z" id="e-02" fill-rule="evenodd"/>
  <linearGradient id="a-3-3" y1="543.8" y2="503.8" x2="0" gradientUnits="userSpaceOnUse">
   <stop stop-color="#2a2c2f" id="stop4268-7"/>
   <stop offset="1" stop-color="#424649" id="stop4270-5"/>
  </linearGradient>
  <linearGradient id="b-6-9" y1="532.8" y2="506.8" x2="0" gradientUnits="userSpaceOnUse">
   <stop stop-color="#989a9b" id="stop4273-2"/>
   <stop offset="1" stop-color="#f6f6f7" id="stop4275-2"/>
  </linearGradient>
  <linearGradient xlink:href="#c" id="linearGradient4403" y1="521.8" x1="400.77" y2="533.6" gradientUnits="userSpaceOnUse" x2="412.57"/>
  <path fill-rule="evenodd" id="e-5-8" d="m426.57 529.8l-16 11-8-8-2-9 17-5z"/>
  <linearGradient xlink:href="#a-35" id="linearGradient4406" y1="4.716" x1="17.483" y2="39.833" x2="37.758" gradientUnits="userSpaceOnUse" gradientTransform="matrix(-0.99376,-0.00423,0.00423,0.98887,97.823,31.34)"/>
  <linearGradient xlink:href="#a-35" id="linearGradient4408" y1="4.716" x1="17.483" y2="39.833" x2="37.758" gradientUnits="userSpaceOnUse" gradientTransform="matrix(-0.99376,-0.00423,0.00423,0.98887,97.823,16.34)"/>
  <linearGradient xlink:href="#e-2" id="linearGradient4410" y1="14" x1="30.625" y2="28" x2="44" gradientUnits="userSpaceOnUse" gradientTransform="translate(0,14)"/>
  <linearGradient xlink:href="#d-1" id="linearGradient4412" y1="4.716" x1="17.483" y2="39.833" x2="37.758" gradientUnits="userSpaceOnUse" gradientTransform="matrix(0.99376,0.0067,-0.00423,-1.56572,50.177,5.628)"/>
  <style id="current-color-scheme-8" type="text/css">
   .ColorScheme-Text { color:#4d4d4d; }
  </style>
  <linearGradient y2="42.318" x2="44.278" y1="-2.324" x1="9.875" gradientTransform="matrix(-0.99376,-0.00423,0.00423,0.98887,43.823,-1.66)" gradientUnits="userSpaceOnUse" id="linearGradient4415" xlink:href="#linearGradient4428"/>
  <linearGradient xlink:href="#b-4" id="linearGradient4417" y1="4" x1="11" y2="22.13" gradientUnits="userSpaceOnUse" x2="29.13" gradientTransform="translate(23.03,5.02)"/>
  <linearGradient id="e-3-3" y1="36" y2="32" gradientUnits="userSpaceOnUse" x2="0" gradientTransform="matrix(1,0,0,1.0091,-110.9855,-40.7775)">
   <stop stop-color="#c58c00" id="stop4647-2"/>
   <stop offset="1" stop-color="#ffc318" id="stop4649-0"/>
  </linearGradient>
  <linearGradient xlink:href="#b-4" id="linearGradient4422" y1="38.957" x1="13.98" y2="46" gradientUnits="userSpaceOnUse" x2="21" gradientTransform="translate(-106.4835,-44.4855)"/>
  <linearGradient gradientTransform="translate(-122.5135,-45.5035)" id="h-5" y1="43.922" y2="2.987" x2="0" gradientUnits="userSpaceOnUse">
   <stop stop-color="#22a7f0" id="stop4658-5"/>
   <stop offset="1" stop-color="#19b5fe" id="stop4660-4"/>
  </linearGradient>
  <linearGradient id="i-7" y1="43.922" y2="34.04" x2="0" gradientUnits="userSpaceOnUse">
   <stop stop-color="#c8e3fe" id="stop4663-6"/>
   <stop offset="1" stop-color="#e4f1fe" id="stop4665-5"/>
  </linearGradient>
  <radialGradient cx="31.01" cy="48.672" xlink:href="#a-8" id="k-3" r="16" gradientUnits="userSpaceOnUse" gradientTransform="matrix(0.59169,-0.93256,2.10028,1.33257,-80.07,8.555)"/>
  <radialGradient cx="30.3" cy="38.13" xlink:href="#a-8" id="l-7" r="16" gradientUnits="userSpaceOnUse" gradientTransform="matrix(0.53188,-0.49081,0.78529,0.851,-19.809,-0.579)"/>
  <linearGradient id="a-0-4" y1="543.8" y2="503.8" x2="0" gradientUnits="userSpaceOnUse">
   <stop stop-color="#2a2c2f" id="stop4858-5"/>
   <stop offset="1" stop-color="#424649" id="stop4860-2"/>
  </linearGradient>
  <linearGradient id="b-63-5" y1="532.8" y2="506.8" x2="0" gradientUnits="userSpaceOnUse">
   <stop stop-color="#989a9b" id="stop4863-4"/>
   <stop offset="1" stop-color="#f6f6f7" id="stop4865-7"/>
  </linearGradient>
  <linearGradient xlink:href="#c" id="linearGradient4438" y1="521.8" x1="400.77" y2="533.6" gradientUnits="userSpaceOnUse" x2="412.57"/>
  <path fill-rule="evenodd" id="e-0-4" d="m426.57 529.8l-16 11-8-8-2-9 17-5z"/>
 </defs>
 <g id="layer3" style="display:inline">
  <path id="path4292-7" d="M 24.15625,23.8125 4,18.84375 4,43 c 0,0.554007 0.445996,1 1,1 l 16.019531,0 z" style="color:#000000;clip-rule:nonzero;display:inline;overflow:visible;visibility:visible;opacity:1;isolation:auto;mix-blend-mode:normal;color-interpolation:sRGB;color-interpolation-filters:linearRGB;solid-color:#000000;solid-opacity:1;fill:#0e56ac;fill-opacity:1;fill-rule:nonzero;stroke-width:2;stroke-linecap:butt;stroke-linejoin:bevel;stroke-miterlimit:4;stroke-dasharray:none;stroke-dashoffset:0;stroke-opacity:1;color-rendering:auto;image-rendering:auto;shape-rendering:auto;text-rendering:auto;enable-background:accumulate"/>
  <path id="path4278-8" d="M 5,4 C 4.445996,4 4,4.4459933 4,5 l 0,15 20,4 4,-20 z" style="color:#000000;clip-rule:nonzero;display:inline;overflow:visible;visibility:visible;opacity:1;isolation:auto;mix-blend-mode:normal;color-interpolation:sRGB;color-interpolation-filters:linearRGB;solid-color:#000000;solid-opacity:1;fill:#0878ca;fill-opacity:1;fill-rule:nonzero;stroke-width:2;stroke-linecap:butt;stroke-linejoin:bevel;stroke-miterlimit:4;stroke-dasharray:none;stroke-dashoffset:0;stroke-opacity:1;color-rendering:auto;image-rendering:auto;shape-rendering:auto;text-rendering:auto;enable-background:accumulate"/>
  <path id="path4295-6" d="m 44,28 -20,-4 -4,20 23,0 c 0.554004,0 1,-0.445993 1,-1 z" style="color:#000000;clip-rule:nonzero;display:inline;overflow:visible;visibility:visible;opacity:1;isolation:auto;mix-blend-mode:normal;color-interpolation:sRGB;color-interpolation-filters:linearRGB;solid-color:#000000;solid-opacity:1;fill:#0878ca;fill-opacity:1;fill-rule:nonzero;stroke-width:2;stroke-linecap:butt;stroke-linejoin:bevel;stroke-miterlimit:4;stroke-dasharray:none;stroke-dashoffset:0;stroke-opacity:1;color-rendering:auto;image-rendering:auto;shape-rendering:auto;text-rendering:auto;enable-background:accumulate"/>
  <path id="rect23-8" d="M 26.867417,4 23.801126,24.1875 44,28.03125 44,5 C 44,4.4459933 43.554004,4 43,4 Z" style="color:#000000;clip-rule:nonzero;display:inline;overflow:visible;visibility:visible;opacity:1;isolation:auto;mix-blend-mode:normal;color-interpolation:sRGB;color-interpolation-filters:linearRGB;solid-color:#000000;solid-opacity:1;fill:#0e56ac;fill-opacity:1;fill-rule:nonzero;stroke-width:2;stroke-linecap:butt;stroke-linejoin:bevel;stroke-miterlimit:4;stroke-dasharray:none;stroke-dashoffset:0;stroke-opacity:1;color-rendering:auto;image-rendering:auto;shape-rendering:auto;text-rendering:auto;enable-background:accumulate"/>
  <path style="opacity:0.2;fill:url(#f);fill-rule:evenodd" d="m 16,38 6,6 21,0 c 0.554004,0 1,-0.445993 1,-1 L 44,22 34,12 33,17.0625 31,19 l -8,0 -7,-6.875 -1.1875,6.9375 1.9375,6.8125 7.3125,7.5 L 24,36 Z" id="path4373"/>
 </g>
 <g id="layer4" style="display:inline">
  <rect ry="1" rx="1" y="4" x="4" height="40" width="40" id="rect4314" style="color:#000000;clip-rule:nonzero;display:inline;overflow:visible;visibility:visible;opacity:1;isolation:auto;mix-blend-mode:normal;color-interpolation:sRGB;color-interpolation-filters:linearRGB;solid-color:#000000;solid-opacity:1;fill:#6e6e6e;fill-opacity:0.19421488;fill-rule:nonzero;stroke:none;stroke-width:2;stroke-linecap:butt;stroke-linejoin:bevel;stroke-miterlimit:4;stroke-dasharray:none;stroke-dashoffset:0;stroke-opacity:1;marker:none;color-rendering:auto;image-rendering:auto;shape-rendering:auto;text-rendering:auto;enable-background:accumulate"/>
 </g>
 <g id="layer1" style="display:inline">
  <rect style="color:#000000;clip-rule:nonzero;display:inline;overflow:visible;visibility:visible;opacity:1;isolation:auto;mix-blend-mode:normal;color-interpolation:sRGB;color-interpolation-filters:linearRGB;solid-color:#000000;solid-opacity:1;fill:#ffffff;fill-opacity:0.33471075;fill-rule:nonzero;stroke:none;stroke-width:2;stroke-linecap:butt;stroke-linejoin:bevel;stroke-miterlimit:4;stroke-dasharray:none;stroke-dashoffset:0;stroke-opacity:1;marker:none;color-rendering:auto;image-rendering:auto;shape-rendering:auto;text-rendering:auto;enable-background:accumulate" id="rect4364" width="19.787" height="7.094" x="14" y="12" rx="0" ry="0"/>
  <path style="color:#000000;clip-rule:nonzero;display:inline;overflow:visible;visibility:visible;opacity:1;isolation:auto;mix-blend-mode:normal;color-interpolation:sRGB;color-interpolation-filters:linearRGB;solid-color:#000000;solid-opacity:1;fill:url(#radialGradient4309);fill-opacity:1;fill-rule:nonzero;stroke:none;stroke-width:2;stroke-linecap:butt;stroke-linejoin:bevel;stroke-miterlimit:4;stroke-dasharray:none;stroke-dashoffset:0;stroke-opacity:1;marker:none;color-rendering:auto;image-rendering:auto;shape-rendering:auto;text-rendering:auto;enable-background:accumulate" d="m 16.026117,19.217466 c 0.01566,4.47119 3.644355,8.087696 8.115572,8.08833 4.471217,-6.34e-4 8.099904,-3.61714 8.115571,-8.08833 L 32,16.99889 16,17.02099 Z" id="path4316"/>
  <path style="color:#000000;clip-rule:nonzero;display:inline;overflow:visible;visibility:visible;opacity:1;isolation:auto;mix-blend-mode:normal;color-interpolation:sRGB;color-interpolation-filters:linearRGB;solid-color:#000000;solid-opacity:1;fill:#e8e8e8;fill-opacity:1;fill-rule:nonzero;stroke:none;stroke-width:2;stroke-linecap:butt;stroke-linejoin:bevel;stroke-miterlimit:4;stroke-dasharray:none;stroke-dashoffset:0;stroke-opacity:1;marker:none;color-rendering:auto;image-rendering:auto;shape-rendering:auto;text-rendering:auto;enable-background:accumulate" d="m 14,12 0,7 c 0,5.184944 3.947244,9.448901 9,9.951172 L 23,36 18,36 c -1.108,0 -2,0.892 -2,2 l 16,0 c 0,-1.108 -0.892,-2 -2,-2 l -5,0 0,-7.048828 C 30.052756,28.448901 34,24.184944 34,19 l 0,-7 -2,0 0,7 0.002,0.03125 c 0,4.435537 -3.597666,8.03125 -8.033203,8.03125 C 19.533119,27.0625 16,23.435537 16,19 l 0.002,-0.03125 -0.002,0 L 16,12 14,12 Z" id="rect4249"/>
  <path style="color:#000000;clip-rule:nonzero;display:inline;overflow:visible;visibility:visible;opacity:0.23900003;isolation:auto;mix-blend-mode:normal;color-interpolation:sRGB;color-interpolation-filters:linearRGB;solid-color:#000000;solid-opacity:1;fill:#ffffff;fill-opacity:1;fill-rule:nonzero;stroke:none;stroke-width:2;stroke-linecap:butt;stroke-linejoin:bevel;stroke-miterlimit:4;stroke-dasharray:none;stroke-dashoffset:0;stroke-opacity:1;marker:none;color-rendering:auto;image-rendering:auto;shape-rendering:auto;text-rendering:auto;enable-background:accumulate" d="M 16,18.003791 32,18 32,17 16,17 Z" id="path4331"/>
  <path id="path4283" d="m 14,12 0,7 c 0,5.184944 3.947244,9.448901 9,9.951172 L 23,36 18,36 c -1.108,0 -2,0.892 -2,2 l 16,0 c 0,-1.108 -0.892,-2 -2,-2 l -5,0 0,-7.048828 C 30.052756,28.448901 34,24.184944 34,19 l 0,-7 -2,0 0,7 0.002,0.03125 c 0,4.435537 -3.597666,8.03125 -8.033203,8.03125 C 19.533119,27.0625 16,23.435537 16,19 l 0.002,-0.03125 -0.002,0 L 16,12 14,12 Z" style="color:#000000;clip-rule:nonzero;display:inline;overflow:visible;visibility:visible;opacity:1;isolation:auto;mix-blend-mode:normal;color-interpolation:sRGB;color-interpolation-filters:linearRGB;solid-color:#000000;solid-opacity:1;fill:#e8e8e8;fill-opacity:1;fill-rule:nonzero;stroke:none;stroke-width:2;stroke-linecap:butt;stroke-linejoin:bevel;stroke-miterlimit:4;stroke-dasharray:none;stroke-dashoffset:0;stroke-opacity:1;marker:none;color-rendering:auto;image-rendering:auto;shape-rendering:auto;text-rendering:auto;enable-background:accumulate"/>
 </g>
 <g id="layer2" style="display:inline">
  <rect style="color:#000000;clip-rule:nonzero;display:inline;overflow:visible;visibility:visible;opacity:0.55100002;isolation:auto;mix-blend-mode:normal;color-interpolation:sRGB;color-interpolation-filters:linearRGB;solid-color:#000000;solid-opacity:1;fill:url(#linearGradient4311);fill-opacity:1;fill-rule:nonzero;stroke:none;stroke-width:2;stroke-linecap:butt;stroke-linejoin:bevel;stroke-miterlimit:4;stroke-dasharray:none;stroke-dashoffset:0;stroke-opacity:1;marker:none;color-rendering:auto;image-rendering:auto;shape-rendering:auto;text-rendering:auto;enable-background:accumulate" id="rect4303" width="40" height="40" x="4" y="4" rx="1" ry="1"/>
  <path style="color:#000000;clip-rule:nonzero;display:inline;overflow:visible;visibility:visible;opacity:0.62400004;isolation:auto;mix-blend-mode:normal;color-interpolation:sRGB;color-interpolation-filters:linearRGB;solid-color:#000000;solid-opacity:1;fill:#ffffff;fill-opacity:1;fill-rule:nonzero;stroke:none;stroke-width:2;stroke-linecap:butt;stroke-linejoin:bevel;stroke-miterlimit:4;stroke-dasharray:none;stroke-dashoffset:0;stroke-opacity:1;marker:none;color-rendering:auto;image-rendering:auto;shape-rendering:auto;text-rendering:auto;enable-background:accumulate" id="path4313" d="m 17.926298,17.65717 0.224951,2.763864 2.763864,0.224951 -2.763864,0.22495 -0.224951,2.763865 -0.224951,-2.763865 -2.763864,-0.22495 2.763864,-0.224951 z"/>
  <path d="m 19.734341,21.175812 0.118663,1.579527 1.579527,0.118664 -1.579527,0.118663 -0.118663,1.579527 -0.118664,-1.579527 -1.579527,-0.118664 1.579527,-0.118663 z" id="path4315" style="color:#000000;clip-rule:nonzero;display:inline;overflow:visible;visibility:visible;opacity:0.62400004;isolation:auto;mix-blend-mode:normal;color-interpolation:sRGB;color-interpolation-filters:linearRGB;solid-color:#000000;solid-opacity:1;fill:#ffffff;fill-opacity:1;fill-rule:nonzero;stroke:none;stroke-width:2;stroke-linecap:butt;stroke-linejoin:bevel;stroke-miterlimit:4;stroke-dasharray:none;stroke-dashoffset:0;stroke-opacity:1;marker:none;color-rendering:auto;image-rendering:auto;shape-rendering:auto;text-rendering:auto;enable-background:accumulate"/>
  <path style="display:inline;opacity:0.7;fill:#ffffff;fill-opacity:1;fill-rule:evenodd;stroke:none;stroke-width:1px;stroke-linecap:butt;stroke-linejoin:miter;stroke-opacity:1" d="m 13.998505,12.014894 1.999786,-0.01105 0,0.287262 -1.999786,0 z" id="path4271"/>
  <path id="path4274" d="m 31.998505,12.014894 1.999786,-0.01105 0,0.287262 -1.999786,0 z" style="display:inline;opacity:0.7;fill:#ffffff;fill-opacity:1;fill-rule:evenodd;stroke:none;stroke-width:1px;stroke-linecap:butt;stroke-linejoin:miter;stroke-opacity:1"/>
  <path style="color:#000000;clip-rule:nonzero;display:inline;overflow:visible;visibility:visible;opacity:1;isolation:auto;mix-blend-mode:normal;color-interpolation:sRGB;color-interpolation-filters:linearRGB;solid-color:#000000;solid-opacity:1;fill:#ffffff;fill-opacity:1;fill-rule:nonzero;stroke:none;stroke-width:2;stroke-linecap:butt;stroke-linejoin:bevel;stroke-miterlimit:4;stroke-dasharray:none;stroke-dashoffset:0;stroke-opacity:1;marker:none;color-rendering:auto;image-rendering:auto;shape-rendering:auto;text-rendering:auto;enable-background:accumulate" d="m 16.064453,20.0625 c 0.474849,4.024148 3.824611,7.267659 7.907926,7.272422 4.084889,-0.0028 7.492049,-3.246796 7.967074,-7.272422 l -0.01172,0 c -0.50773,3.947004 -3.873908,7 -7.958984,7 -4.07491,0 -7.380588,-3.063177 -7.892578,-7 z" id="path4288"/>
  <path style="color:#000000;clip-rule:nonzero;display:inline;overflow:visible;visibility:visible;opacity:1;isolation:auto;mix-blend-mode:normal;color-interpolation:sRGB;color-interpolation-filters:linearRGB;solid-color:#000000;solid-opacity:1;fill:#ffffff;fill-opacity:1;fill-rule:nonzero;stroke:none;stroke-width:2;stroke-linecap:butt;stroke-linejoin:bevel;stroke-miterlimit:4;stroke-dasharray:none;stroke-dashoffset:0;stroke-opacity:1;marker:none;color-rendering:auto;image-rendering:auto;shape-rendering:auto;text-rendering:auto;enable-background:accumulate" d="m 18,36 c -1.108,0 -2,0.892 -2,2 l 0.02539,0 C 16.148053,37.011245 16.976981,36.248047 18,36.248047 l 5,0 L 23,36 Z m 7,0 0,0.248047 5,0 c 1.023019,0 1.851947,0.763198 1.974609,1.751953 L 32,38 c 0,-1.108 -0.892,-2 -2,-2 z" id="path4298"/>
  <path style="display:inline;opacity:0.472;fill:#1f1f68;fill-opacity:1" d="m 4,42 0,1 c 0,0.554007 0.445996,1 1,1 l 38,0 c 0.554004,0 1,-0.445993 1,-1 l 0,-1 c 0,0.554007 -0.445996,1 -1,1 L 5,43 C 4.445996,43 4,42.554007 4,42 Z" id="rect4185"/>
  <path id="path4200" d="M 4,6 4,5 C 4,4.445993 4.445996,4 5,4 l 38,0 c 0.554004,0 1,0.445993 1,1 l 0,1 C 44,5.445993 43.554004,5 43,5 L 5,5 C 4.445996,5 4,5.445993 4,6 Z" style="display:inline;opacity:0.35;fill:#ffffff;fill-opacity:1"/>
  <path style="display:inline;opacity:0.417;fill:#ffffff;fill-opacity:1" d="m 4.21875,4.25 0,0.15625 c 0,0.2155856 0.149123,0.3955313 0.423828,0.5019531 C 4.201349,5.0554644 3.998047,5.455426 3.998047,5.7246094 l 0,0.15625 c 0,-0.3337806 0.414735,-0.8789063 1,-0.8789063 l 0.154297,0 c 0.02019,5.232e-4 0.03382,0.00586 0.05469,0.00586 l 37.554688,0 c 0.0208,0 0.03454,-0.00533 0.05469,-0.00586 l 0.181641,0 c 0.592899,0 1,0.5568444 1,0.890625 l 0,-0.15625 c 0,-0.270768 -0.241895,-0.6822888 -0.671875,-0.8300781 C 43.598322,4.7995432 43.75,4.6207484 43.75,4.40625 l 0,-0.15625 c 0,0.3231934 -0.416191,0.5793962 -0.939453,0.5957031 l -37.652344,0 C 4.63494,4.8293962 4.21875,4.5731934 4.21875,4.25 Z" id="path4262"/>
  <path id="path4269" d="m 4.21875,43.751953 0,-0.15625 c 0,-0.215585 0.149123,-0.395531 0.423828,-0.501953 C 4.201349,42.946489 3.998047,42.546527 3.998047,42.277344 l 0,-0.15625 c 0,0.33378 0.414735,0.878906 1,0.878906 l 0.154297,0 c 0.02019,-5.23e-4 0.03382,-0.0059 0.05469,-0.0059 l 37.554688,0 c 0.0208,0 0.03454,0.0053 0.05469,0.0059 l 0.181641,0 c 0.592899,0 1,-0.556844 1,-0.890625 l 0,0.15625 c 0,0.270768 -0.241895,0.682289 -0.671875,0.830078 0.27215,0.106707 0.423828,0.285502 0.423828,0.5 l 0,0.15625 c 0,-0.323193 -0.416191,-0.579396 -0.939453,-0.595703 l -37.652344,0 c -0.523266,0.01631 -0.939456,0.27251 -0.939456,0.595703 z" style="display:inline;opacity:0.548;fill:#5b84ff;fill-opacity:1"/>
 </g>
</svg>
