<svg width="48" xmlns="http://www.w3.org/2000/svg" height="48" xmlns:xlink="http://www.w3.org/1999/xlink">
 <defs>
  <linearGradient id="a" y1="44" x1="27" y2="33" x2="19" gradientUnits="userSpaceOnUse" gradientTransform="matrix(1 0 0 1.25-5-6)">
   <stop stop-color="#18222a"/>
   <stop offset="1" stop-color="#566069"/>
  </linearGradient>
  <linearGradient id="b" y1="36" y2="32" x2="0" gradientUnits="userSpaceOnUse" gradientTransform="translate(-4.5 4)">
   <stop stop-color="#f39c12"/>
   <stop offset="1" stop-color="#f5ab35"/>
  </linearGradient>
  <linearGradient id="c" y1="543.8" y2="503.8" gradientUnits="userSpaceOnUse" x2="0" gradientTransform="matrix(1.125 0 0 1-435.64-499.8)">
   <stop stop-color="#bd8d48"/>
   <stop offset="1" stop-color="#e8b971"/>
  </linearGradient>
  <linearGradient id="d" y1="541.8" y2="505.8" gradientUnits="userSpaceOnUse" x2="0" gradientTransform="translate(-384.57-499.8)">
   <stop stop-color="#d8dcde"/>
   <stop offset="1" stop-color="#f9fafb"/>
  </linearGradient>
  <linearGradient id="e" y1="542.8" y2="504.8" gradientUnits="userSpaceOnUse" x2="0" gradientTransform="translate(-384.57-499.8)">
   <stop stop-color="#977a5c"/>
   <stop offset="1" stop-color="#9d8062"/>
  </linearGradient>
  <linearGradient id="f" y1="4" x1="11" y2="22.13" x2="29.13" gradientUnits="userSpaceOnUse" gradientTransform="translate(7 4)">
   <stop/>
   <stop offset="1" stop-opacity="0"/>
  </linearGradient>
  <linearGradient id="g" y1="4" x1="8" y2="32" x2="21" gradientUnits="userSpaceOnUse" gradientTransform="translate(7 4)">
   <stop stop-color="#bdc3c7"/>
   <stop offset="1" stop-color="#7f8c8d"/>
  </linearGradient>
  <linearGradient xlink:href="#f" id="h" y1="8.773" x1="21.57" y2="29.2" x2="42" gradientUnits="userSpaceOnUse"/>
  <linearGradient xlink:href="#f" id="i" y1="39" x1="14" y2="46" x2="21" gradientUnits="userSpaceOnUse"/>
 </defs>
 <rect width="36" x="6" y="4" fill="url(#c)" rx="0" height="40"/>
 <rect width="34" x="7" opacity=".5" y="5" fill="url(#e)" height="38"/>
 <rect width="36" x="6" y="43" fill="#aa7f41" height="1"/>
 <rect width="32" x="8" y="6" fill="url(#d)" height="36"/>
 <g fill="#1f1f1f" fill-opacity=".314">
  <rect width="32" x="8" y="40" height="2"/>
  <rect width="32" x="8" y="41" height="1"/>
 </g>
 <g fill-rule="evenodd">
  <path opacity=".2" fill="url(#h)" d="m21.57 8.773l-.57 1.227 1 34h20v-14.797z"/>
  <path opacity=".2" fill="url(#f)" d="m18 8l2 2 2 20-7 2z"/>
 </g>
 <g stroke-linejoin="bevel">
  <path fill="url(#g)" stroke-width="2" d="m18 8a2 2 0 0 0 -2 2 2 2 0 0 0 .855469 1.636719C15.389 16.06 12.71 23.29 10 26c0 0 4 6 4 10h10C24 32 28 26 28 26 25.29 23.29 22.613 16.07 21.15 11.639A2 2 0 0 0 22 10 2 2 0 0 0 20 8v18.27c.618.357.999 1.017 1 1.73 0 1.105-.895 2-2 2-1.105 0-2-.895-2-2 .001-.713.382-1.372 1-1.729V12z"/>
  <g stroke-width="6.2">
   <path fill="url(#b)" d="m14 36h10c.831 0 1.5.669 1.5 1.5 0 .831-.669 1.5-1.5 1.5h-10c-.831 0-1.5-.669-1.5-1.5 0-.831.669-1.5 1.5-1.5"/>
   <rect width="10" x="14" y="39" fill="url(#a)" rx="0" height="5" stroke-linecap="round"/>
  </g>
 </g>
 <path opacity=".2" fill="url(#i)" fill-rule="evenodd" d="m14 39l5 5h5v-5z"/>
</svg>
