<svg width="48" xmlns="http://www.w3.org/2000/svg" height="48">
 <defs>
  <linearGradient id="a" y1="62.5" x1="19.33" y2="3.807" x2="19.472" gradientUnits="userSpaceOnUse">
   <stop stop-color="#212329"/>
   <stop offset="1" stop-color="#31363b"/>
  </linearGradient>
  <linearGradient id="b" y1="10" y2="32" x2="0" gradientUnits="userSpaceOnUse" gradientTransform="translate(1)">
   <stop stop-color="#f67400"/>
   <stop offset="1" stop-color="#ed1515"/>
  </linearGradient>
  <linearGradient id="c" y1="12.997" y2="41" x1="16" x2="43.999" gradientUnits="userSpaceOnUse">
   <stop stop-color="#292c2f"/>
   <stop offset="1" stop-opacity="0"/>
  </linearGradient>
 </defs>
 <path fill="url(#a)" d="m4 3.725v47.6h11.202l-.004 11.2 11.202-11.2h33.6v-47.6z" transform="matrix(.71429 0 0 .71429 1.143 1.339)"/>
 <path fill="url(#b)" d="m13 13l3-3 8 8 8-8 3 3-8 8 8 8-3 3-8-8-8 8-3-3 8-8z"/>
 <path opacity=".2" fill="url(#c)" fill-rule="evenodd" d="m35 13l-8 8 8 8-3 3-8-8-8 8 6 6h22v-15z"/>
</svg>
