<svg width="48" xmlns="http://www.w3.org/2000/svg" height="48" xmlns:xlink="http://www.w3.org/1999/xlink">
 <defs>
  <linearGradient id="a" y1="512.95" x1="392.22" y2="538.87" x2="430.91" gradientUnits="userSpaceOnUse" gradientTransform="matrix(1.05579 0 0 1.04628-22.795-24.685)">
   <stop stop-color="#303a44"/>
   <stop offset="1" stop-color="#525c68"/>
  </linearGradient>
  <linearGradient spreadMethod="reflect" id="b" y1="12.636" x1="11.08" y2="40.843" x2="39.28" gradientUnits="userSpaceOnUse" gradientTransform="matrix(1.07864 0 0 1.06893-2.178-1.825)">
   <stop stop-color="#f19519"/>
   <stop offset="1" stop-color="#fcdc4d"/>
  </linearGradient>
  <linearGradient id="c" y1="509.4" x1="393.87" y2="513.11" x2="398.44" gradientUnits="userSpaceOnUse" gradientTransform="matrix(1.05579 0 0 1.04628-4.098-6.327)">
   <stop stop-color="#292c2f"/>
   <stop offset="1" stop-opacity="0"/>
  </linearGradient>
  <linearGradient id="d" y1="517.94" x1="414.5" y2="535.72" gradientUnits="userSpaceOnUse" x2="391.55" gradientTransform="matrix(-1.05579 0 0 1.04628 839.94-24.685)">
   <stop stop-color="#0a0d0f"/>
   <stop offset="1" stop-color="#808c9b"/>
  </linearGradient>
  <linearGradient spreadMethod="reflect" id="e" y1="12.636" x1="11.08" y2="40.843" gradientUnits="userSpaceOnUse" x2="39.28" gradientTransform="matrix(-1.07864 0 0 1.06893 50.18-1.825)">
   <stop stop-color="#f19b19"/>
   <stop offset="1" stop-color="#ffd92e"/>
  </linearGradient>
  <linearGradient id="f" x1="389.57" gradientUnits="userSpaceOnUse" x2="427.57" gradientTransform="matrix(.70711.70711-.70711.70711 490.07-135.58)">
   <stop stop-color="#fcfcfc"/>
   <stop offset="1" stop-color="#eff0f1"/>
  </linearGradient>
  <linearGradient id="g" y1="133.24" x1="771.72" y2="160.57" x2="799.06" gradientUnits="userSpaceOnUse">
   <stop stop-color="#e5e7e8"/>
   <stop offset="1" stop-color="#dcdee0"/>
  </linearGradient>
  <linearGradient id="h" y1="513.71" x1="392.47" y2="535.72" gradientUnits="userSpaceOnUse" x2="391.55" gradientTransform="matrix(-1.05579 0 0 1.04628 839.94-24.685)">
   <stop stop-color="#1c242a"/>
   <stop offset="1" stop-color="#2c3138"/>
  </linearGradient>
  <linearGradient xlink:href="#h" id="i" y1="513.71" x1="392.47" y2="535.72" gradientUnits="userSpaceOnUse" x2="391.55" gradientTransform="matrix(-1.05579 0 0 1.04628 813.94-24.685)"/>
 </defs>
 <g transform="translate(-384.57-499.8)">
  <g stroke-linejoin="round" color="#000000" stroke-width="3">
   <path fill="url(#i)" d="m389.57 510.8v25l12.02.042-.021-25.04z"/>
   <path fill="url(#h)" d="m414.91 510.8l.021 25.04h11.669l-.021-25.04z"/>
  </g>
  <g stroke-opacity=".55" stroke-width="8.587" transform="matrix(1.0508 0 0 1.0508-20.807-27.27)">
   <path opacity=".4" fill="#f9f9f9" d="m408.59 516.71c-1.788 0-3.576.685-4.945 2.055-2.74 2.74-2.74 7.151 0 9.891 2.74 2.74 7.151 2.74 9.891 0 2.74-2.74 2.74-7.151 0-9.891-1.37-1.37-3.158-2.055-4.945-2.055m-.002 3.95508a3.00255 3.00255 0 0 1 3.002 3.0039 3.00255 3.00255 0 0 1 -3.00195 3.00196 3.00255 3.00255 0 0 1 -3.00391 -3.00196 3.00255 3.00255 0 0 1 3.00391 -3.0039"/>
   <path fill="url(#f)" d="m408.59 504.69c-4.857 0-9.714 1.861-13.436 5.582-7.443 7.443-7.443 19.428 0 26.871 7.443 7.443 19.428 7.443 26.871 0 7.443-7.443 7.443-19.428 0-26.871-3.721-3.721-8.579-5.582-13.436-5.582m0 13.02c1.532 0 3.064.588 4.238 1.762 2.348 2.348 2.348 6.128 0 8.477-2.348 2.348-6.128 2.348-8.477 0-2.348-2.348-2.348-6.128 0-8.477 1.174-1.174 2.706-1.762 4.238-1.762"/>
   <path fill="url(#g)" d="m408.77659 512.70843a11 11 0 0 0 -.7793 .0273 11 11 0 0 0 -1.08984 .13281 11 11 0 0 0 -1.07422 .24024 11 11 0 0 0 -1.04297 .34765 11 11 0 0 0 -1.0039 .44727 11 11 0 0 0 -.95313 .54883 11 11 0 0 0 -.89453 .63867 11 11 0 0 0 -.82617 .72656 11 11 0 0 0 -.74805 .80469 11 11 0 0 0 -.66602 .875 11 11 0 0 0 -.57421 .9375 11 11 0 0 0 -.47852 .99023 11 11 0 0 0 -.37891 1.03321 11 11 0 0 0 -.27148 1.06445 11 11 0 0 0 -.16406 1.08594 11 11 0 0 0 -.0547 1.09961 11 11 0 0 0 .0273 .7793 11 11 0 0 0 .13281 1.08984 11 11 0 0 0 .24219 1.07422 11 11 0 0 0 .3457 1.04297 11 11 0 0 0 .44727 1.0039 11 11 0 0 0 .54883 .95313 11 11 0 0 0 .64062 .89453 11 11 0 0 0 .72461 .82617 11 11 0 0 0 .80469 .74805 11 11 0 0 0 .875 .66602 11 11 0 0 0 .9375 .57421 11 11 0 0 0 .99023 .47852 11 11 0 0 0 1.03321 .37891 11 11 0 0 0 1.06445 .27148 11 11 0 0 0 1.08594 .16406 11 11 0 0 0 1.09961 .0547 11 11 0 0 0 .7793 -.0273 11 11 0 0 0 1.08984 -.13281 11 11 0 0 0 1.07422 -.24219 11 11 0 0 0 1.04297 -.3457 11 11 0 0 0 1.0039 -.44727 11 11 0 0 0 .95313 -.54883 11 11 0 0 0 .89453 -.64062 11 11 0 0 0 .82617 -.72461 11 11 0 0 0 .74805 -.80469 11 11 0 0 0 .66601 -.875 11 11 0 0 0 .57422 -.9375 11 11 0 0 0 .47852 -.99023 11 11 0 0 0 .37891 -1.03321 11 11 0 0 0 .27148 -1.06445 11 11 0 0 0 .16406 -1.08594 11 11 0 0 0 .0547 -1.09961 11 11 0 0 0 -.0273 -.7793 11 11 0 0 0 -.13281 -1.08984 11 11 0 0 0 -.24219 -1.07422 11 11 0 0 0 -.3457 -1.04297 11 11 0 0 0 -.44727 -1.0039 11 11 0 0 0 -.54883 -.95313 11 11 0 0 0 -.63867 -.89453 11 11 0 0 0 -.72656 -.82617 11 11 0 0 0 -.80469 -.74805 11 11 0 0 0 -.875 -.66601 11 11 0 0 0 -.9375 -.57422 11 11 0 0 0 -.99024 -.47852 11 11 0 0 0 -1.0332 -.37891 11 11 0 0 0 -1.06445 -.27148 11 11 0 0 0 -1.08594 -.16406 11 11 0 0 0 -1.09961 -.0547m-.191 4.998c1.533 0 3.068.585 4.242 1.76 2.349 2.349 2.349 6.135 0 8.484-2.349 2.349-6.133 2.349-8.482 0-2.349-2.349-2.349-6.135 0-8.484 1.175-1.175 2.707-1.76 4.24-1.76"/>
  </g>
  <path stroke-opacity=".55" fill="#bdc3c7" stroke-width="2.8" d="m388.58 523.3c-.004.167-.012.332-.012.5 0 11.08 8.92 20 20 20 11.08 0 20-8.92 20-20 0-.168-.008-.333-.012-.5-.264 10.847-9.08 19.5-19.988 19.5-10.912 0-19.724-8.653-19.988-19.5"/>
  <g stroke-linejoin="round" color="#000000" stroke-width="3">
   <path fill="url(#a)" d="m395.57 504.8l31 31-6 6-31-31z"/>
   <path fill="url(#b)" d="m10 7l-3 3 2 2 3-3zm3 3l-3 3 4 4 3-3zm5 5l-3 3 4 4 3-3zm5.238 4.738l-3.051 3.02 4.574 4.533 3.053-3.02zm4.762 5.262l-3 3 4 4 3-3zm5 5l-3 3 4 4 3-3zm5 5l-3 3 2 2 3-3z" transform="translate(384.57 499.8)"/>
   <path opacity=".671" fill="url(#c)" d="m414.07 523.3l-6 6 8.5 8.5 6-6z"/>
   <path fill="url(#d)" d="m420.57 504.8l-31 31 6 6 31-30.997z"/>
   <path fill="url(#e)" d="m37 7l-2 2 3 3 2-2zm-3 3l-4 4 3 3 4-4zm-5 5l-4 4 3 3 4-4zm-5 5l-4 4 3 3 4-4zm-5 5l-4 4 3 3 4-4zm-5 5l-4 4 3 3 4-4zm-5 5l-2 2 3 3 2-2z" transform="translate(384.57 499.8)"/>
  </g>
 </g>
</svg>
