<?xml version="1.0" encoding="UTF-8" standalone="no"?>
<svg xmlns="http://www.w3.org/2000/svg" xmlns:xlink="http://www.w3.org/1999/xlink" width="48" height="48" version="1.1">
 <defs>
  <linearGradient id="linearGradient4173">
   <stop style="stop-color:#000000;stop-opacity:1;" offset="0"/>
   <stop style="stop-color:#000000;stop-opacity:0;" offset="1"/>
  </linearGradient>
  <linearGradient id="linearGradient4168">
   <stop style="stop-color:#fcfcfc;stop-opacity:1;" offset="0"/>
   <stop style="stop-color:#fbc2bb;stop-opacity:1" offset="1"/>
  </linearGradient>
  <linearGradient id="linearGradient4160">
   <stop style="stop-color:#c61423;stop-opacity:1;" offset="0"/>
   <stop style="stop-color:#f58273;stop-opacity:1" offset="1"/>
  </linearGradient>
  <linearGradient xlink:href="#linearGradient4160" id="linearGradient4166" x1="32.249" y1="42.037" x2="16.546" y2="4.902" gradientUnits="userSpaceOnUse"/>
  <linearGradient xlink:href="#linearGradient4168" id="linearGradient4162" x1="17.197" y1="11.627" x2="27.308" y2="31.453" gradientUnits="userSpaceOnUse"/>
  <linearGradient xlink:href="#linearGradient4173" id="linearGradient4179" x1="22.137" y1="1.975" x2="29.967" y2="1.975" gradientUnits="userSpaceOnUse"/>
  <linearGradient xlink:href="#linearGradient4173" id="linearGradient4181" x1="19.732" y1="23.413" x2="33.161" y2="36.842" gradientUnits="userSpaceOnUse"/>
 </defs>
 <rect style="fill:url(#linearGradient4166);fill-opacity:1" rx="20" y="4" x="4" height="40" width="40"/>
 <path style="fill:#2c2e31;fill-opacity:0.235294" d="m 4.01168,23.49995 c -0.004,0.16654 -0.0117,0.33244 -0.0117,0.5 0,11.08 8.92,20 20,20 11.08,0 20,-8.92 20,-20 0,-0.16756 -0.008,-0.33346 -0.0117,-0.5 -0.26467,10.84613 -9.07616,19.5 -19.98828,19.5 -10.91212,0 -19.72361,-8.65387 -19.98828,-19.5 z"/>
 <path style="opacity:0.2;fill:url(#linearGradient4181);fill-opacity:1;stroke:none;stroke-width:2;stroke-linecap:round;stroke-linejoin:round;stroke-miterlimit:4;stroke-dasharray:none;stroke-opacity:1" d="M 34.318359 15.289062 L 29.289062 20.007812 L 15.003906 28.564453 L 11.390625 32.992188 L 22.324219 43.925781 C 22.87698 43.971255 23.435115 44 24 44 C 34.761933 44 43.484574 35.583342 43.976562 24.947266 L 34.318359 15.289062 z"/>
 <path transform="matrix(0.70710678,0.70710678,-0.70710678,0.70710678,0,0)" style="opacity:0.2;fill:url(#linearGradient4179);fill-opacity:1;stroke:none;stroke-width:2;stroke-linecap:round;stroke-linejoin:round;stroke-miterlimit:4;stroke-dasharray:none;stroke-opacity:1" d="m 23.273695,1.3267293 0.291793,-3.5533004 29.071309,0 0,8.4031773 -30.492629,0 -0.0075,-1.9898482 z"/>
 <path style="fill:url(#linearGradient4162);fill-opacity:1;stroke-width:1.02207494;enable-background:new" d="m 17.929939,15.000532 c -0.066,10e-4 -0.14042,0.0063 -0.2259,0.01191 -0.32397,0.02068 -6.43749,1.165345 -6.82657,1.27826 -0.41135,0.119308 -0.76264,0.371368 -0.84835,0.610496 -0.1461496,0.406374 0.27742,1.727078 0.83656,2.613839 2.230624,2.648874 4.707212,3.32193 7.13432,4.749286 0.27856,0.326543 0.38857,0.484168 -1.74822,1.430265 -3.33963,1.478788 -4.420575,2.736552 -5.060195,4.597291 -0.18889,0.549824 -0.27666,2.003781 -0.14348,2.369655 0.17285,0.474275 0.27704,0.569763 3.50379,-0.04233 3.24141,-0.614905 2.973365,-0.650893 3.243685,-0.906996 0.22018,-0.208603 0.23277,-0.258913 0.32893,-1.245886 0.0554,-0.565567 0.16981,-1.669919 0.25375,-1.96248 0.19462,-0.679411 0.68413,-1.388918 1.21724,-1.764163 2.021822,-1.422952 5.827192,-0.713372 7.886432,1.47015 0.77593,0.822735 1.26317,1.997092 1.65202,3.273095 0.22437,0.736239 0.45222,1.055898 0.80606,1.126286 0.32551,0.06466 0.33352,-0.03713 4.45785,-0.820243 2.2942,-0.435613 3.24897,-0.647466 3.38395,-0.752504 0.29,-0.225872 0.29114,-0.778599 0.002,-1.691905 -0.49578,-1.569264 -1.35592,-2.612445 -2.94913,-3.819409 -0.78818,-0.597093 -1.78343,-1.161594 -3.46854,-1.968493 C 29.763351,22.78917 29,22.581527 29,22.343183 c 0,-0.197081 0.629491,-0.284894 1.900871,-0.665298 2.78583,-0.833704 4.128249,-2.003217 4.128249,-4.168698 0,-0.950306 -0.17934,-1.717174 -0.45824,-1.965996 -0.37091,-0.330941 -1.022229,-0.341419 -2.579659,-0.05975 -4.99234,0.902744 -4.648551,0.867551 -4.880791,1.24338 -0.12287,0.198752 -0.11752,0.245395 0.10837,1.148704 0.12936,0.517868 0.23354,1.165717 0.23277,1.316009 -0.002,0.319649 -0.417279,0.853636 -0.620399,1.044042 -0.49701,0.465626 -1.62362,0.782412 -2.77763,0.782412 -1.39578,0 -2.44743,-0.479802 -3.49203,-1.592225 -0.754822,-0.803807 -1.140162,-1.581651 -1.654392,-3.012898 -0.45157,-1.257043 -0.5135,-1.420894 -0.97759,-1.412829 z"/>
</svg>
