<?xml version="1.0" encoding="UTF-8" standalone="no"?>
<svg xmlns="http://www.w3.org/2000/svg" xmlns:xlink="http://www.w3.org/1999/xlink" width="48" height="48" version="1.1">
 <defs>
  <linearGradient id="a" y1="543.77" x1="407.63" y2="504.13" x2="407.69" gradientUnits="userSpaceOnUse" gradientTransform="translate(-384.57,-499.8)" spreadMethod="pad">
   <stop stop-color="#c6cdd1"/>
   <stop offset="1" stop-color="#e0e5e7"/>
  </linearGradient>
  <linearGradient id="d" y1="26.03" x1="29.439" y2="35.796" x2="38.26" gradientUnits="userSpaceOnUse">
   <stop stop-color="#292c2f"/>
   <stop offset="1" stop-color="#292c2f" stop-opacity="0"/>
  </linearGradient>
  <linearGradient id="LO" gradientUnits="userSpaceOnUse" x1="319.208" y1="235.149" x2="657.653" y2="269.494">
   <stop style="stop-color:#e54c18" offset="0"/>
   <stop style="stop-color:#fec350" offset="1"/>
  </linearGradient>
  <linearGradient xlink:href="#a" id="linearGradient4574" x1="25" y1="44" x2="25" y2="4" gradientUnits="userSpaceOnUse"/>
  <linearGradient xlink:href="#a-5" id="linearGradient4582" x1="10.973" y1="24" x2="36.937" y2="24" gradientUnits="userSpaceOnUse" gradientTransform="matrix(1.0014118,0,0,1.0025662,0.01122552,0.43837376)"/>
  <linearGradient xlink:href="#d" id="linearGradient4584" gradientUnits="userSpaceOnUse" x1="29.439" y1="26.03" x2="38.26" y2="35.796"/>
  <linearGradient xlink:href="#LO" id="linearGradient4586" gradientUnits="userSpaceOnUse" gradientTransform="matrix(0.08823783,0,0,0.08717268,-18.921205,3.3914604)" x1="319.208" y1="235.149" x2="657.653" y2="269.494"/>
  <linearGradient gradientUnits="userSpaceOnUse" x2="0" y2="503.8" y1="542.8" id="a-5">
   <stop stop-color="#2a2c2f"/>
   <stop stop-color="#424649" offset="1"/>
  </linearGradient>
 </defs>
 <rect style="fill:url(#linearGradient4574);fill-opacity:1.0" width="40" height="40" x="4" y="4" rx="3"/>
 <g style="font-size:12.66600037px" font-size="12.666" transform="translate(-384.57,-499.8)">
  <text style="font-family:'Droid Sans'" y="132.19" x="730.88">
   
  </text>
 </g>
 <path d="M 11.289781,37.990877 21.106604,25.140893 11,11.012001 l 6.495906,0.0054 8.053174,11.109597 -12.041156,15.863875 -2.218143,0 z M 30.503991,38 22.506415,26.871331 34.647838,11 36.811103,11 26.954217,23.910613 37,38 30.503991,38 Z" style="fill:url(#linearGradient4582);fill-opacity:1"/>
 <rect style="opacity:0.40740739;fill:#000cff" height="0" width=".045" y="22.53" x="45.98"/>
 <g>
  <path style="opacity:0.15" d="m 4,40 0,1 c 0,1.662 1.338,3 3,3 l 34,0 c 1.662,0 3,-1.338 3,-3 l 0,-1 c 0,1.662 -1.338,3 -3,3 L 7,43 C 5.338,43 4,41.662 4,40"/>
  <path style="opacity:0.2;fill:url(#linearGradient4584)" d="m 37.427424,20.485525 c 0,0 2.631115,3.833044 1.677264,7.621433 -0.536653,2.131415 -3.528674,3.588402 -5.530466,5.956691 -3.082553,3.646919 -20.892117,0.360552 -22.709256,-1.859463 l 3.035406,3.114716 -2.610591,2.671975 L 17,44 41.003,44.003 c 1.662,2.08e-4 3,-1.338 3,-3 l 0,-12.823254 z"/>
 </g>
 <path d="m 23.998621,15.929203 c -0.780996,0 -1.615396,0.05974 -2.366548,0.13098 1.338208,1.724274 2.448606,3.184374 3.726536,4.842605 -0.717264,-1.524905 -2.191443,-2.987197 -1.68181,-3.739243 0.504471,-0.744427 1.433959,-0.619128 1.50476,-0.619128 1.490204,0 2.924665,0.166272 4.265748,0.474001 l 0.314347,-0.427691 c -1.788652,-0.45489 -3.731444,-0.661524 -5.763033,-0.661524 z m 8.071004,1.391595 -0.28953,0.408622 c 4.131807,1.598454 6.926669,4.651561 6.926669,8.150646 0,5.152431 -6.058837,9.332924 -13.525205,9.332924 -7.466367,0 -13.527962,-4.180494 -13.527962,-9.332924 1e-6,-2.805893 1.797544,-5.32451 4.640758,-7.03647 l -0.874106,-1.315762 c -4.460081,1.868269 -7.4202488,5.147514 -7.4202497,8.880716 0,5.808636 7.1668967,10.520653 15.9986217,10.520653 8.831723,0 16.001378,-4.712016 16.001379,-10.520653 0,-3.873337 -3.187376,-7.260827 -7.930375,-9.087752 z" style="fill:url(#linearGradient4586);fill-opacity:1"/>
</svg>
