<svg version="1.1" viewBox="0 0 48 48" xmlns="http://www.w3.org/2000/svg" xmlns:xlink="http://www.w3.org/1999/xlink">
    <defs>
        <linearGradient id="window-shadow">
            <stop stop-opacity=".14901961" offset="0"/>
        </linearGradient>
        <linearGradient id="linearGradient6580" x1="65.818176" x2="-17.818184" y1="1150.8289" y2="1067.6289" gradientTransform="matrix(.95652174 0 0 1.1538458 1.04348 -1253.879)" gradientUnits="userSpaceOnUse">
            <stop stop-color="#1e2124" offset="0"/>
            <stop stop-color="#606a6c" offset="1"/>
        </linearGradient>
        <linearGradient id="linearGradient6572" x1="-56" x2="-56" y1="1124.8622" y2="1118.8622" gradientTransform="matrix(1 0 0 .66666087 80 -706.902)" gradientUnits="userSpaceOnUse" xlink:href="#window-shadow"/>
        <linearGradient id="linearGradient6568" x1="27" x2="27" y1="50" y2="54" gradientTransform="translate(-3,-8)" gradientUnits="userSpaceOnUse">
            <stop stop-color="#51595b" offset="0"/>
            <stop stop-color="#777c81" offset="1"/>
        </linearGradient>
        <linearGradient id="shadow">
            <stop offset="0"/>
            <stop stop-opacity="0" offset="1"/>
        </linearGradient>
        <linearGradient id="linearGradient14245" x1="111.56055" x2="123.56055" y1="45.060547" y2="57.060547" gradientTransform="translate(-96,-14)" gradientUnits="userSpaceOnUse" xlink:href="#shadow"/>
        <linearGradient id="linearGradient14247" x1="125.43934" x2="133.56065" y1="35" y2="35" gradientTransform="translate(-106,-14)" gradientUnits="userSpaceOnUse">
            <stop stop-color="#2980b9" offset="0"/>
        </linearGradient>
        <linearGradient id="linearGradient14249" x1="115.5" x2="119.5" y1="39" y2="35" gradientTransform="translate(-96,-14)" gradientUnits="userSpaceOnUse" xlink:href="#shadow"/>
        <linearGradient id="linearGradient14251" x1="111.56055" x2="124.56055" y1="45.060547" y2="58.060547" gradientTransform="translate(-87.56055,-10.060547)" gradientUnits="userSpaceOnUse" xlink:href="#shadow"/>
        <linearGradient id="linearGradient14253" x1="131" x2="109.43934" y1="49" y2="30.939341" gradientTransform="translate(-96,-14)" gradientUnits="userSpaceOnUse">
            <stop stop-color="#3498db" offset="0"/>
            <stop stop-color="#3daee9" offset="1"/>
        </linearGradient>
        <linearGradient id="linearGradient17639" x1="-36" x2="-36" y1="1115.3623" y2="1108.3622" gradientTransform="matrix(1 0 0 .57142609 60 -627.34709)" gradientUnits="userSpaceOnUse">
            <stop stop-color="#95a5a6" offset="0"/>
            <stop stop-color="#bdc3c7" offset="1"/>
        </linearGradient>
        <linearGradient id="linearGradient17619" x1="96" x2="144" y1="21" y2="21" gradientTransform="translate(-96,-13.999966)" gradientUnits="userSpaceOnUse">
            <stop stop-color="#fff" stop-opacity=".14901961" offset="0"/>
        </linearGradient>
        <linearGradient id="linearGradient20241" x1="-60" x2="-12" y1="1114.3622" y2="1114.3622" gradientTransform="translate(60,-1105.3622)" gradientUnits="userSpaceOnUse" xlink:href="#window-shadow"/>
    </defs>
    <g>
        <rect x="2" y="10" width="44" height="30" fill="url(#linearGradient6580)" style="paint-order:markers stroke fill"/>
        <rect y="40" width="48" height="1.9999826" rx="1" ry=".99999994" fill="#9ea8aa" style="paint-order:markers stroke fill"/>
        <path d="m0.15234 40.5c-0.08807 0.149-0.15234 0.314-0.15234 0.5 0 0.554 0.446 1 1 1h46c0.554 0 1-0.446 1-1 0-0.186-0.0643-0.351-0.15234-0.5-0.17375 0.294-0.48003 0.5-0.84766 0.5h-46c-0.36763 0-0.67391-0.206-0.84766-0.5z" fill="url(#linearGradient6572)" style="paint-order:markers stroke fill"/>
        <path d="m19 42h10l-2 2h-6z" fill="url(#linearGradient6568)" fill-rule="evenodd" style="paint-order:markers stroke fill"/>
        <path d="m 27.56055,19.060547 -12,12 12,12 2.25,-2.25 L 24,35 l 11,-3 1.81055,1.810547 2.75,-2.75 z" fill="url(#linearGradient14245)" opacity=".15" style="paint-order:markers stroke fill"/>
        <path d="m26.5 18-6 6" fill="#2980b9" stroke="url(#linearGradient14247)" stroke-width="3"/>
    </g>
    <path d="m23.5 21-3 3" fill="none" opacity=".5" stroke="url(#linearGradient14249)" stroke-width="3"/>
    <path d="m24 35 11-3 13 13-11 3z" fill="url(#linearGradient14251)" opacity=".15" style="paint-order:markers stroke fill"/>
    <path d="m14.5 18 6 6-6 6m9.5 3.5h11" fill="none" stroke="url(#linearGradient14253)" stroke-width="3"/>
    <g>
        <rect y="5.9999828" width="48" height="3.9999826" rx="1" ry="1" fill="url(#linearGradient17639)" style="paint-order:markers stroke fill"/>
        <path d="m0 8v1c0 0.554 0.446 1 1 1h46c0.554 0 1-0.446 1-1v-1c0 0.554-0.446 1-1 1h-46c-0.554 0-1-0.446-1-1z" fill="url(#linearGradient20241)" style="paint-order:markers stroke fill"/>
        <path d="m1 6.000036c-0.554 0-1 0.446-1 1v1c0-0.554 0.446-1 1-1h46c0.554 0 1 0.446 1 1v-1c0-0.554-0.446-1-1-1z" fill="url(#linearGradient17619)" style="paint-order:markers stroke fill"/>
    </g>
</svg>
