<svg height="48" width="48" xmlns="http://www.w3.org/2000/svg" xmlns:xlink="http://www.w3.org/1999/xlink"><linearGradient id="c" gradientUnits="userSpaceOnUse" x1="10" x2="34" xlink:href="#a" y1="10" y2="34"/><linearGradient id="d" gradientTransform="translate(384.57 499.8)" gradientUnits="userSpaceOnUse" x2="0" y1="20" y2="44"><stop offset="0" stop-color="#eff0f1"/><stop offset="1" stop-color="#bdc3c7"/></linearGradient><linearGradient id="a" gradientTransform="translate(384.57 500.8)" gradientUnits="userSpaceOnUse" x1="10" x2="15" y1="36" y2="41"><stop offset="0" stop-color="#292c2f"/><stop offset="1" stop-opacity="0"/></linearGradient><linearGradient id="e" gradientTransform="translate(398.67 500.8)" gradientUnits="userSpaceOnUse" x1="9.905" x2="14.905" xlink:href="#a" y1="36" y2="41"/><linearGradient id="b" gradientTransform="matrix(1 0 0 1.08333 384.57 492.96)" gradientUnits="userSpaceOnUse" x1="25.07" x2="25" y1="33.844" y2="10"><stop offset="0" stop-color="#73ba25"/><stop offset="1" stop-color="#96cb5c"/></linearGradient><path d="M392.57 503.8h32v26h-32z" fill="url(#b)" transform="translate(-384.57 -499.8)"/><path d="M25 10l15 15v5h4-14l-6-6z" fill="url(#c)" opacity=".2"/><path d="M23 10v10l-4.5-4.5L17 17l7 7 7-7-1.5-1.5L25 20V10z" fill="#fcfcfc"/><path d="M24 34c-1.662 0-3 1.338-3 3s1.338 3 3 3a2.993 2.993 0 0 0 2.813-2h8.375a2.99 2.99 0 0 0 5.813-1c0-1.662-1.338-3-3-3a2.993 2.993 0 0 0-2.813 2h-8.375A2.99 2.99 0 0 0 24 34" fill="#232629" opacity=".2"/><path d="M388.57 529.8v14h40v-14z" fill="url(#d)" transform="translate(-384.57 -499.8)"/><path d="M26.81 38h8.375a2.99 2.99 0 0 0 5.813-1c0-1.662-1.338-3-3-3a2.993 2.993 0 0 0-2.813 2H26.81c.188 1 .188 1 0 2" fill="#4d4d4d" opacity=".779"/><path d="M406.67 539.13l4.762 4.667h8.143l-9.143-9.429z" fill="url(#e)" opacity=".2" transform="translate(-384.57 -499.8)"/><path d="M392.57 539.13l4.619 4.667h13.381l-4.867-6.937-7.133-.067-2.238-2.425z" fill="url(#a)" opacity=".2" transform="translate(-384.57 -499.8)"/><path d="M10 34c-1.662 0-3 1.338-3 3s1.338 3 3 3a2.993 2.993 0 0 0 2.813-2h8.375a2.99 2.99 0 0 0 5.813-1c0-1.662-1.338-3-3-3a2.993 2.993 0 0 0-2.813 2h-8.375A2.99 2.99 0 0 0 10 34" fill="#35b9ab"/><path d="M4 43h40v1H4z" fill="#95a5a6"/><path d="M4 30h40v1H4z" fill="#eff0f1"/></svg>