<svg height="48" width="48" xmlns="http://www.w3.org/2000/svg"><linearGradient id="a" gradientUnits="userSpaceOnUse" x1="44" x2="4" y1="1048.362" y2="1008.362"><stop offset="0" stop-color="#73ba25"/><stop offset="1" stop-color="#35b9ab"/></linearGradient><linearGradient id="b" gradientUnits="userSpaceOnUse" x1="19" x2="37" y1="1021.362" y2="1039.362"><stop offset="0" stop-color="#292c2f"/><stop offset="1" stop-opacity="0"/></linearGradient><g transform="translate(0 -1004.362)"><circle cx="24" cy="1028.362" fill="url(#a)" r="20"/><path d="M24 1048.362a20 20 0 0 1-20-20 20 20 0 0 1 .021-.582A20 20 0 0 0 24 1047.362a20 20 0 0 0 19.979-19.418 20 20 0 0 1 .021.418 20 20 0 0 1-20 20z" opacity=".3"/><path d="M29.414 1015.362l-19.623 13.424 8.885 8.885-1.447 1.447 9.084 9.084a20 20 0 0 0 17.611-18.33z" fill="url(#b)" opacity=".2"/><path d="M28.579 1040a5.088 5.088 0 0 0-.447-.177 44.01 44.01 0 0 1-.641-.232l-.799-.296c-.258-.096-.685-.255-.948-.355l-.479-.18-3.63.173c-1.997.096-3.805.185-4.018.198-.213.013-.387.007-.387-.013 0-.04.322-.556 1.114-1.787l.256-.397.01-2.874.01-2.873.197-1.969c.109-1.083.185-1.988.17-2.012-.015-.024-.008-.068.017-.098s.056-.194.07-.365l.024-.31-.312.032a2.002 2.002 0 0 0-.382.065 1.919 1.919 0 0 1-.375.063c-1.011.098-1.81.283-2.46.571a4.586 4.586 0 0 1-.333.14c-.062 0-2.087.95-2.433 1.141-.365.203-.473.25-.61.263a1.059 1.059 0 0 0-.211.156c-.205.177-.611.334-.971.375-.19.022-.335.004-.585-.069-.296-.087-.372-.135-.706-.45-.292-.275-.412-.428-.543-.695-.153-.312-.169-.381-.176-.773-.006-.379.007-.454.107-.629.138-.238.498-.49.76-.53a.878.878 0 0 0 .386-.193c.11-.09.365-.287.566-.437 1.582-1.174 2.277-1.75 2.277-1.883 0-.044.772-1.358.902-1.535.137-.187.555-.51.86-.662.272-.138.92-.372 1.29-.468.695-.178.628-.144.54-.274-.043-.063-.53-.613-1.081-1.222-.552-.609-1.034-1.164-1.071-1.233-.037-.07-.23-.505-.43-.967-.2-.463-.406-.933-.458-1.045-.232-.499-.27-.61-.27-.789 0-.224.085-.359.29-.457.324-.157.457-.076 1.216.735a50.031 50.031 0 0 0 1.499 1.51c.788.76 1.584 1.672 1.783 2.044.126.234.666.902.914 1.128.155.143.299.235.364.235.252 0 .621-.247 1.118-.75.994-1.005 1.817-1.78 2.138-2.013.4-.292 2.145-1.132 3.029-1.46.348-.128.676-.252.727-.273.052-.022.179-.064.282-.094a.899.899 0 0 0 .233-.094.205.205 0 0 1 .117-.04c.04 0 .39-.115.777-.254 1.242-.445 1.278-.451 1.537-.244.196.156.26.356.18.56-.15.379-1.334 1.96-1.99 2.656-.8.848-1.238 1.13-2.615 1.688-1.595.647-1.659.681-2.124 1.152-.27.272-.744 1.085-.674 1.154.018.017.121-.002.23-.043 1.338-.502 1.825-.67 2.545-.884.465-.137.887-.267.939-.287a3.1 3.1 0 0 1 .376-.092c.155-.03.313-.07.352-.088.039-.02.282-.06.54-.091a5.53 5.53 0 0 0 .563-.088c.052-.017.475-.017.94 0 .731.025.893.045 1.202.145 1.343.437 2.527 1.261 3.86 2.688.558.598.935 1.126 1.273 1.784.433.842.482 1.029.614 2.329.176 1.733.416 3.906.539 4.881.23 1.826.372 2.88.4 2.976.012.037.044.252.072.477s.123.836.213 1.36c.089.522.162 1.026.162 1.118 0 .164-.004.167-.218.196a4.01 4.01 0 0 1-.387.03c-.142.003-.224.05-.499.296-.18.16-.352.293-.382.293-.029 0-.142-.143-.252-.318l-.198-.318h-.257c-.233 0-.29.022-.617.239a6.963 6.963 0 0 0-.452.318c-.05.044-.114.074-.14.065-.078-.024-.161-.305-.164-.549l-.003-.222-.308.03c-.17.018-.466.063-.66.102-.444.089-.527.067-.4-.107.05-.07.316-.46.59-.867l.5-.742-.076-.644a51.953 51.953 0 0 1-.102-.929c-.015-.157-.045-.296-.067-.31-.022-.012-.04-.07-.04-.129s-.104-.317-.23-.576l-.374-.767c-.08-.162-.25-.479-.38-.704l-.235-.408-.295.012c-.506.022-.494.014-.528.362-.016.169-.05.342-.074.386a.447.447 0 0 0-.045.186c0 .058-.031.207-.07.33a6.3 6.3 0 0 0-.14.654c-.04.237-.092.534-.116.659-.024.125-.068.38-.097.568-.03.187-.073.432-.095.545-.022.112-.064.357-.093.545s-.073.426-.097.531c-.088.39-.061.439.746 1.372.287.33.467.574.437.592a3.182 3.182 0 0 1-.415.111c-.73.162-.958.22-1.444.369-.431.131-.56.14-.744.046zm-4.824-2.067c.615-.638.795-.854.906-1.09.301-.64.372-.792.652-1.419.16-.356.29-.7.29-.762-.001-.088-1.052-2.66-1.105-2.704a37.325 37.325 0 0 0-1.492-.42.514.514 0 0 1-.173-.065c-.084-.064-.187.007-.569.388l-.342.342.028.242c.053.443.118.92.165 1.195.025.15.11.681.188 1.18.078.5.162 1.032.187 1.182.026.15.11.681.187 1.181s.162 1.007.188 1.128c.026.12.047.27.047.333 0 .062.017.107.038.099a20.6 20.6 0 0 0 .805-.81z" fill="#fcfcfc"/><path d="M28.579 1040a5.09 5.09 0 0 0-.447-.177 44.01 44.01 0 0 1-.641-.232l-.799-.297a116.3 116.3 0 0 1-.948-.354l-.479-.18-3.63.173c-1.997.096-3.805.185-4.018.198-.213.013-.387.007-.387-.013 0-.04.322-.556 1.114-1.787l.256-.397.01-2.874.01-2.873.197-1.969c.109-1.083.185-1.988.17-2.012-.015-.024-.008-.068.017-.098s.056-.194.07-.365l.024-.31-.312.032a2.002 2.002 0 0 0-.382.065 1.919 1.919 0 0 1-.375.063c-1.011.098-1.81.283-2.46.571a4.586 4.586 0 0 1-.333.14c-.062 0-2.087.95-2.433 1.141-.365.203-.473.25-.61.263a1.059 1.059 0 0 0-.211.156c-.205.177-.611.334-.971.375-.19.022-.335.004-.585-.069-.296-.087-.372-.135-.706-.45-.292-.275-.412-.428-.543-.695-.153-.312-.169-.381-.176-.773-.006-.379.007-.454.107-.629.138-.238.498-.49.76-.53a.878.878 0 0 0 .386-.193c.11-.09.365-.287.566-.437 1.582-1.174 2.277-1.75 2.277-1.883 0-.044.772-1.358.902-1.535.137-.187.555-.51.86-.662.272-.138.92-.372 1.29-.468.695-.178.628-.144.54-.274a39.79 39.79 0 0 0-1.081-1.222c-.552-.609-1.034-1.164-1.071-1.233-.037-.07-.23-.505-.43-.967-.2-.463-.406-.933-.458-1.045-.232-.499-.27-.61-.27-.789 0-.224.085-.359.29-.457.324-.157.457-.076 1.216.735a50.03 50.03 0 0 0 1.499 1.51c.788.76 1.584 1.672 1.783 2.044.126.234.666.902.914 1.128.155.143.299.235.364.235.252 0 .621-.247 1.118-.75.994-1.005 1.817-1.78 2.138-2.013.4-.292 2.145-1.132 3.029-1.46.348-.128.676-.252.727-.273.052-.022.179-.064.282-.094a.899.899 0 0 0 .233-.094.205.205 0 0 1 .117-.04c.04 0 .39-.115.777-.254 1.242-.445 1.278-.451 1.537-.244.196.156.26.356.18.56-.15.379-1.334 1.96-1.99 2.656-.8.848-1.238 1.13-2.615 1.688-1.595.647-1.659.681-2.124 1.152-.27.272-.744 1.085-.674 1.154.018.017.121-.002.23-.043 1.338-.502 1.825-.67 2.545-.884.465-.137.887-.267.939-.287a3.1 3.1 0 0 1 .376-.092c.155-.03.313-.07.352-.088.039-.02.282-.06.54-.091.258-.031.512-.07.563-.088.052-.017.475-.017.94 0 .731.025.893.045 1.202.145 1.343.437 2.527 1.261 3.86 2.688.558.598.935 1.126 1.273 1.784.433.842.482 1.029.614 2.329.176 1.733.416 3.906.54 4.881.23 1.826.371 2.88.4 2.976.01.037.043.252.07.477s.124.836.214 1.36c.089.522.162 1.026.162 1.118 0 .164-.004.167-.218.196a4.01 4.01 0 0 1-.387.03c-.142.003-.224.05-.499.296-.18.16-.352.293-.382.293-.029 0-.142-.143-.252-.318l-.198-.318h-.257c-.233 0-.29.022-.617.238a6.958 6.958 0 0 0-.452.32c-.05.043-.113.072-.14.064-.078-.024-.161-.305-.164-.549l-.003-.222-.308.03a8.22 8.22 0 0 0-.66.102c-.444.088-.527.066-.4-.107.05-.07.316-.46.59-.868l.5-.741-.075-.644a51.953 51.953 0 0 1-.103-.93c-.015-.156-.045-.295-.067-.308-.022-.014-.04-.072-.04-.13s-.104-.317-.23-.576l-.374-.767c-.08-.162-.25-.48-.38-.704l-.235-.409-.295.013c-.506.021-.494.014-.528.362-.016.169-.05.342-.074.386a.447.447 0 0 0-.045.185c0 .06-.031.208-.07.33a6.299 6.299 0 0 0-.14.655c-.04.237-.092.534-.116.658-.024.125-.068.38-.097.568s-.072.433-.095.545c-.022.113-.064.358-.093.546-.03.187-.073.426-.097.53-.088.39-.061.44.746 1.372.287.331.467.575.437.593a3.182 3.182 0 0 1-.415.11c-.73.163-.958.221-1.444.37-.431.13-.56.139-.744.046zm.675-.978c-.105-.233-.182-.43-.173-.44.01-.01.135.123.28.294.41.485.408.484.687.42.13-.03.237-.065.237-.077s-.175-.26-.39-.551a35.356 35.356 0 0 1-.424-.587c-.02-.03.19-1.367.466-2.97.5-2.9.502-2.914.408-2.988a93.17 93.17 0 0 0-.56-.421 5.917 5.917 0 0 1-.689-.602c-.225-.254-.252-.341-.047-.155.228.207.103-.045-.299-.602-.344-.477-.413-.603-.446-.814-.041-.267-.002-.954.055-.954.018 0 .046.151.06.336.016.21.063.403.122.511.053.096.246.502.43.902.182.4.357.758.389.796.062.076.73.579 1.072.805.126.084.23.193.247.26.017.063.06.115.096.115s.262-.073.503-.162c.424-.156.603-.26.603-.35 0-.023.03-.107.067-.185.433-.928.552-1.271.518-1.501-.018-.129-.016-.131.022-.028.084.23.05.437-.153.91-.111.261-.23.524-.262.582a.315.315 0 0 0-.034.2.527.527 0 0 1-.045.26l-.07.17.64 1.12c.667 1.164.723 1.3.841 2.05.132.835.295 1.612.353 1.678.046.054.01.123-.195.375-.502.618-.661.835-.634.86.043.043.508-.076.701-.178.175-.093.29-.079.185.023-.088.085-.065.127.068.127h.124l-.033.28c-.037.318-.074.32.362-.023.18-.142.237-.166.29-.122a.28.28 0 0 0 .176.043.483.483 0 0 1 .19.024.546.546 0 0 0 .241.007l.158-.03.063.273c.074.323.128.307.257-.076.121-.362.137-.376.43-.376.22 0 .252-.01.23-.08a9.262 9.262 0 0 1-.1-.624c-.111-.815-.482-3.364-.538-3.702-.21-1.266-.565-4.504-.657-5.994-.059-.938-.128-1.201-.517-1.978-.56-1.118-1.632-2.314-2.893-3.23-.707-.514-1.227-.784-1.96-1.017l-.461-.147-.9.023c-.937.023-1.309.077-2.24.32a36.44 36.44 0 0 0-3.123 1.03l-.88.352c-.097.039-.176.093-.176.121 0 .137.397.672.775 1.044.588.579.714.664 1.03.695.332.034.39.105.085.105-.316 0-.533-.145-1.172-.786-.494-.495-.577-.607-.923-1.253-.233-.432.114-1.381.746-2.04.442-.463.855-.71 1.783-1.072.44-.171 1.073-.441 1.41-.6.503-.24.677-.35.997-.635.607-.54 1.37-1.449 2.045-2.433.37-.541.427-.666.28-.607-.046.018-.22.08-.388.137-2.283.784-2.435.84-3.325 1.205-1.375.565-2.105.975-2.82 1.584-.163.14-.647.618-1.075 1.064-.8.832-1.122 1.103-1.496 1.258-.433.18-.86.058-1.245-.356a11.882 11.882 0 0 1-.955-1.214c-.367-.557-.82-1.07-1.784-2.02a88.26 88.26 0 0 1-1.5-1.513c-.28-.294-.518-.527-.528-.518-.01.01.055.175.145.366.09.192.258.568.371.837.114.269.25.58.301.692.37.8.335.754 1.735 2.297l1.363 1.502-.428.078c-.895.161-2.021.532-2.474.814-.368.23-.444.326-.987 1.252-.435.743-.529.87-.865 1.182-.207.192-.77.64-1.253.997-.482.357-.967.726-1.077.82l-.2.172.36.193c.2.106.362.2.362.21 0 .01-.15-.033-.335-.094-.506-.166-.727-.182-.994-.07-.187.078-.242.13-.32.302-.087.19-.091.237-.041.524.083.477.47.98.938 1.224.206.106.695.082.963-.047.2-.097.257-.156.388-.405.124-.237.153-.346.155-.59.005-.43.068-.551.107-.208.067.584.09.749.107.749.01 0 .551-.254 1.204-.565 1.287-.613 2.311-1.049 2.83-1.204.296-.09.594-.141 2.23-.39 1.108-.167 1.663-.395 2.15-.884l.159-.16-.11.2c-.13.237-.379.451-.724.626-.296.15-.27.069-.37 1.177a313.5 313.5 0 0 1-.19 1.999l-.189 1.926c-.05.523-.068 1.404-.068 3.428v2.724l-.386.57c-.212.313-.425.613-.474.668-.132.145-.063.196.265.196h.293l.176-.223c.278-.352.335-.373.198-.072a2.25 2.25 0 0 1-.173.325c-.039.045-.03.068.033.091.09.033 3.248-.14 3.29-.18.037-.035-.17-1.486-.43-3.03-.041-.237-.136-.84-.212-1.34-.076-.5-.168-1.082-.206-1.294a16.458 16.458 0 0 1-.099-.644l-.032-.258.299-.31c.164-.17.42-.443.567-.605l.268-.294.155.059c.288.11 3.779 1.234 3.833 1.234.102 0 .053-.087-.197-.35a2.468 2.468 0 0 1-.308-.377c-.074-.148.298.234.591.607.12.153.362.445.537.648.274.318.334.366.438.346.09-.016.12-.003.12.053 0 .041-.155.672-.345 1.402-.833 3.204-1.079 4.2-1.053 4.266.018.043.403.19 1.018.388l.99.319v-.287c0-.158-.02-.3-.047-.315s-.046-.063-.045-.105c.003-.14.122.062.304.517l.17.425.36.013c.2.007.379 0 .4-.014.02-.015-.049-.218-.153-.45zm-.589-9.823c.048-.404.114-.484.116-.14.001.302-.029.424-.103.424-.029 0-.034-.104-.013-.284zm-17.935-.956c-.075-.053-.083-.094-.053-.263.047-.264.047-.394.002-.586l-.037-.16.122.11c.068.06.191.236.276.393.128.24.145.306.106.414-.054.15-.268.197-.416.092zm-.818-.455a.392.392 0 0 1-.102-.24c0-.075-.025-.16-.056-.19-.033-.032-.036-.055-.01-.055.099 0 .305.264.332.424.032.193-.018.211-.164.061zm8.036-3.72c-.145-.067-.249-.305-.249-.57 0-.215.007-.227.176-.3.192-.08.269-.092.548-.081.18.007.182.008.098.098-.047.05-.065.09-.04.09.07 0 .204.254.204.388 0 .179-.286.431-.484.427a.765.765 0 0 1-.253-.051zm-.437-1.058c0-.011.105-.072.234-.135a.952.952 0 0 1 .505-.109l.271.007-.258.033c-.142.02-.37.077-.505.13-.136.053-.247.086-.247.075zm-.75-1.147c0-.064.4-.231.783-.328.398-.101.632-.12.296-.023-.313.09-.88.285-.987.34-.05.027-.093.031-.093.01zm6.902-2.122c0-.012.333-.334.74-.716.407-.38.83-.78.94-.887.109-.107.199-.176.199-.153 0 .05-.743.946-.886 1.069-.162.14-.131.21.068.156.235-.062.26-.01.038.08-.1.04-.377.163-.613.273-.428.198-.486.22-.486.178zm.092 18.192c.615-.638.795-.854.906-1.09.301-.64.372-.792.652-1.419.16-.356.29-.7.29-.762-.001-.088-1.052-2.66-1.105-2.704a37.325 37.325 0 0 0-1.492-.42.514.514 0 0 1-.173-.065c-.084-.064-.187.007-.569.388l-.342.342.028.242c.053.443.118.92.165 1.195.025.15.11.681.188 1.18.078.5.162 1.032.187 1.182.026.15.11.681.187 1.181s.162 1.007.188 1.128c.026.12.047.27.047.333 0 .062.017.107.038.099a20.6 20.6 0 0 0 .805-.81z" fill="#173f4f"/></g></svg>