<?xml version="1.0" encoding="UTF-8" standalone="no"?>
<svg
   xmlns:dc="http://purl.org/dc/elements/1.1/"
   xmlns:cc="http://creativecommons.org/ns#"
   xmlns:rdf="http://www.w3.org/1999/02/22-rdf-syntax-ns#"
   xmlns:svg="http://www.w3.org/2000/svg"
   xmlns="http://www.w3.org/2000/svg"
   xmlns:xlink="http://www.w3.org/1999/xlink"
   xmlns:sodipodi="http://sodipodi.sourceforge.net/DTD/sodipodi-0.dtd"
   xmlns:inkscape="http://www.inkscape.org/namespaces/inkscape"
   height="48"
   width="48"
   version="1.1"
   id="svg60"
   sodipodi:docname="yast-sw_single.svg"
   inkscape:version="0.92.3 (2405546, 2018-03-11)">
  <metadata
     id="metadata66">
    <rdf:RDF>
      <cc:Work
         rdf:about="">
        <dc:format>image/svg+xml</dc:format>
        <dc:type
           rdf:resource="http://purl.org/dc/dcmitype/StillImage" />
      </cc:Work>
    </rdf:RDF>
  </metadata>
  <defs
     id="defs64" />
  <sodipodi:namedview
     pagecolor="#ffffff"
     bordercolor="#666666"
     borderopacity="1"
     objecttolerance="10"
     gridtolerance="10"
     guidetolerance="10"
     inkscape:pageopacity="0"
     inkscape:pageshadow="2"
     inkscape:window-width="1860"
     inkscape:window-height="1049"
     id="namedview62"
     showgrid="false"
     inkscape:window-x="60"
     inkscape:window-y="0"
     inkscape:window-maximized="1"
     inkscape:current-layer="svg60">
    <inkscape:grid
       type="xygrid"
       id="grid873" />
  </sodipodi:namedview>
  <linearGradient
     id="a">
    <stop
       offset="0"
       stop-color="#cea476"
       id="stop2" />
    <stop
       offset="1"
       stop-color="#dab58b"
       id="stop4" />
  </linearGradient>
  <linearGradient
     id="c"
     gradientUnits="userSpaceOnUse"
     x2="0"
     xlink:href="#a"
     y1="543.8"
     y2="512.8" />
  <linearGradient
     id="h"
     gradientUnits="userSpaceOnUse"
     x1="21"
     x2="21"
     xlink:href="#a"
     y1="13"
     y2="4" />
  <linearGradient
     id="j"
     gradientTransform="matrix(1 0 0 -.55556 -384.57 297.89)"
     gradientUnits="userSpaceOnUse"
     x1="408.57"
     x2="408.57"
     xlink:href="#b"
     y1="512.798"
     y2="505.598" />
  <linearGradient
     id="e"
     gradientTransform="translate(-384.57 -499.8)"
     gradientUnits="userSpaceOnUse"
     x2="0"
     xlink:href="#c"
     y1="543.8"
     y2="512.8" />
  <linearGradient
     id="i"
     gradientTransform="translate(-384.57 -499.801)"
     gradientUnits="userSpaceOnUse"
     x1="411.57"
     x2="411.57"
     xlink:href="#b"
     y1="512.801"
     y2="503.801">
    <stop
       offset="0"
       stop-color="#ebc69a"
       id="stop11" />
    <stop
       offset="1"
       stop-color="#f4e0c8"
       stop-opacity="0"
       id="stop13" />
  </linearGradient>
  <linearGradient
     id="f"
     gradientTransform="matrix(1.41667 0 0 1.4091 1.167 1.727)"
     gradientUnits="userSpaceOnUse"
     x2="0"
     xlink:href="#d"
     y1="30"
     y2="8" />
  <linearGradient
     id="d"
     gradientUnits="userSpaceOnUse"
     x2="0"
     y1="30"
     y2="8">
    <stop
       offset="0"
       stop-color="#cfd2d5"
       id="stop17" />
    <stop
       offset="1"
       stop-color="#eff0f1"
       id="stop19" />
  </linearGradient>
  <linearGradient
     id="g"
     gradientTransform="matrix(.50313 0 0 1 -171.625 -499.8)"
     gradientUnits="userSpaceOnUse"
     x1="411.427"
     x2="411.427"
     y1="543.8"
     y2="512.8">
    <stop
       offset="0"
       stop-color="#73ba25"
       id="stop22" />
    <stop
       offset="1"
       stop-color="#81c13b"
       stop-opacity=".85"
       id="stop24" />
  </linearGradient>
  <linearGradient
     id="l"
     gradientUnits="userSpaceOnUse"
     x1="44"
     x2="44"
     xlink:href="#d"
     y1="44"
     y2="13" />
  <linearGradient
     id="k"
     gradientUnits="userSpaceOnUse"
     x1="42"
     x2="62"
     y1="24"
     y2="44">
    <stop
       offset="0"
       stop-color="#292c2f"
       id="stop28" />
    <stop
       offset="1"
       stop-opacity="0"
       id="stop30" />
  </linearGradient>
  <linearGradient
     id="b"
     gradientTransform="matrix(.66667 0 0 -.37037 -256.38 197.926)"
     gradientUnits="userSpaceOnUse"
     x1="408.57"
     x2="408.57"
     y1="512.798"
     y2="504.698">
    <stop
       offset="0"
       stop-color="#ebc69a"
       id="stop33" />
    <stop
       offset="1"
       stop-color="#73ba25"
       stop-opacity="0"
       id="stop35" />
  </linearGradient>
  <path
     d="M4 13h40v31H4z"
     fill="url(#e)"
     id="path38" />
  <path
     d="M4 13h17v31H4z"
     fill="url(#f)"
     id="path40" />
  <path
     d="M21 13h23v31H21z"
     fill="url(#g)"
     id="path42" />
  <path
     d="M4 13l6-9h29l5 9z"
     fill="url(#h)"
     fill-rule="evenodd"
     id="path44" />
  <path
     d="M21 4v14l1-1 1 1 1-1 1 1 1-1 1 1V4z"
     fill="#f4e0c8"
     id="path46" />
  <path
     d="M21 4h6v9h-6z"
     fill="url(#i)"
     id="path48" />
  <path
     d="M21 18h6v-5h-6z"
     fill="url(#j)"
     id="path50" />
  <path
     d="M4 43h40v1H4z"
     fill="#9f8569"
     id="path52" />
  <path
     d="M36 24l8 8v12H30l-4-4 1-2 1 1h6l-1-1 2-3-5-5v-6z"
     fill="url(#k)"
     opacity=".2"
     id="path54" />
  <path
     d="M30 24v6h1v-5h4v5h1v-6h-5zm-2.207 7l-.793.816L33 38l6-6.184-.793-.816L33 36.367zM26 38v2h14v-2h-1v1H27v-1z"
     fill="url(#l)"
     id="path56" />
  <path
     d="m 5,35 v 8 h 8 v -8 z m 3,1 v 2 h 2 v -2 h 2 v 4 h -2 v 2 H 8 V 40 H 6 v -4 z"
     id="path58"
     inkscape:connector-curvature="0"
     style="fill:#5c4c3e"
     sodipodi:nodetypes="cccccccccccccccccc" />
</svg>
