<svg xmlns="http://www.w3.org/2000/svg" viewBox="0 0 16 16">
  <defs id="defs3051">
    <style type="text/css" id="current-color-scheme">
      .ColorScheme-Text {
        color:#eff0f1;
      }
      .ColorScheme-NegativeText {
        color:#da4453;
      }
      </style>
  </defs>
 <path 
     style="fill:currentColor;fill-opacity:1;stroke:none" 
     d="M 8 2 C 4.6862915 2 2 4.6862915 2 8 C 2 11.313708 4.6862915 14 8 14 C 8.3415702 14 8.6740174 13.964985 9 13.910156 L 9 12.900391 C 8.6769296 12.965962 8.3424207 13 8 13 C 5.2385763 13 3 10.761424 3 8 C 3 5.2385763 5.2385763 3 8 3 C 10.761424 3 13 5.2385763 13 8 C 13 8.3424207 12.965962 8.6769296 12.900391 9 L 13.910156 9 C 13.964985 8.6740174 14 8.3415702 14 8 C 14 4.6862915 11.313708 2 8 2 z M 7 4 L 7 8 L 7 9 L 9 9 L 12 9 L 12 8 L 8 8 L 8 4 L 7 4 z "
       class="ColorScheme-Text"/>
 <path d="M 9.9899998,9.0000003 9,9.99 11.01,12 9,14.01 9.9899998,15 12,12.99 14.01,15 15,14.01 12.99,12 15,9.99 14.01,9.0000003 12,11.01 Z" style="fill:currentColor;fill-opacity:1;stroke:none" 
     class="ColorScheme-NegativeText"
   />
</svg>
