<svg xmlns="http://www.w3.org/2000/svg" viewBox="0 0 16 16">
  <defs id="defs3051">
    <style type="text/css" id="current-color-scheme">
      .ColorScheme-Text {
        color:#eff0f1;
      }
      .ColorScheme-NegativeText {
        color:#da4453;
      }
      </style>
  </defs>
 <path 
     style="fill:currentColor;fill-opacity:1;stroke:none" 
     d="M 4 2 L 4 3 L 4 5 L 3 5 L 2 5 L 2 6 L 2 11 L 2 12 L 3 12 L 5 12 L 5 13 L 5 14 L 8 14 L 8 13 L 6 13 L 6 12 L 8 12 L 8 10 L 4 10 L 4 11 L 3 11 L 3 6 L 13 6 L 13 10 L 14 10 L 14 6 L 14 5 L 12 5 L 12 3 L 12 2 L 4 2 z M 5 3 L 11 3 L 11 5 L 5 5 L 5 3 z M 10 7 L 10 8 L 12 8 L 12 7 L 10 7 z "
       class="ColorScheme-Text"/>
 <path 
     d="m 9,10.99997 5,0 0,1 -5,0 z"
     style="fill:currentColor;fill-opacity:1;stroke:none" 
     class="ColorScheme-NegativeText"
   />
</svg>
