<svg height="16" viewBox="0 0 4.233 4.233" width="16" xmlns="http://www.w3.org/2000/svg">
    <defs id="defs1">
        <style type="text/css" id="current-color-scheme">
            .ColorScheme-Text {
                color:#232629;
            }
        </style>
    </defs>
    <path style="fill:currentColor;fill-opacity:1;stroke:none" class="ColorScheme-Text" d="M2.129 2.186a.79.79 0 0 0-.089.007c-.44.056-.763.44-.775.889l.002.004c.025.039.053.08.078.126l.044-.045a.446.446 0 0 1 .165-.101.11.115 0 0 1 .092.207c.02-.012-.002.006-.01.045a.395.395 0 0 0-.005.122c.07.26.355.46.718.396.268-.064.529-.222.616-.56a.943.943 0 0 0-.04-.614.882.882 0 0 0-.796-.476zM1.12 1.69l.01.35-.074.147.008.26.071.131c.005.011-.006.021 0 .031a.971.971 0 0 1 .158-.355l.023-.149-.068-.26zM2.546.01c-.03.047-.055.098-.077.15l-.07.134L2.3.61a.297.297 0 0 0-.012.037l.156.256.08.083.03.03-.029-.18L2.523.82 2.516.178zM2.396 0a1.773 1.773 0 0 0-.156.11l-.187.176-.2.303-.122.334-.046.366c-.006.184.015.367.059.537v.002l.029.116c.778-.265 1.687.333 1.394 1.43-.106.36-.432.535-.745.6-.442.07-.814-.147-.904-.453-.016-.096.009-.221.066-.262l.002-.006a.328.328 0 0 0-.129.069c-.09.077-.092.103-.208.133.057-.147-.257-.266-.2-.582 0-.007-.015.06-.013.052-.139.699.644 1.485 1.512 1.272.589-.134.94-.529 1.055-.975a1.427 1.427 0 0 0-.318-1.294 1.963 1.963 0 0 0-.15-.156l-.002-.002-.004-.004a3.79 3.79 0 0 0-.354-.28l-.344-.27a.683.683 0 0 1-.019-.02l-.107-.128a.751.751 0 0 1-.024-.039L2.199.815 2.17.52 2.21.27l.005-.016zM1.59 3.25a.013.013 0 0 0-.004.002.016.016 0 0 0-.001.004c.002 0 .003-.004.005-.005z"/>
</svg>
