<svg xmlns="http://www.w3.org/2000/svg" viewBox="0 0 16 16">
  <defs id="defs3051">
    <style type="text/css" id="current-color-scheme">
      .ColorScheme-Text {
        color:#232629;
      }
      </style>
  </defs>
 <path 
     style="fill:currentColor;fill-opacity:1;stroke:none" 
       d="M 7 4 L 4 12 L 5 12 L 7 12 L 7.375 11 L 8 9.3339844 L 9 12 L 10 12 L 11 12 L 12.5 8 L 14 12 L 16 12 L 13 4 L 11 4 L 11.005859 4.015625 L 11 4.015625 L 10.625 5.015625 L 9.5039062 8.0078125 L 8 4 L 7 4 z M 11.503906 5.3417969 L 12 6.6660156 L 10.5 10.666016 L 10.003906 9.3417969 L 11.503906 5.3417969 z M 7 6.6660156 L 7.5 8 L 6.375 11 L 5.375 11 L 7 6.6660156 z "
     class="ColorScheme-Text"
     />
 <path 
     style="fill:currentColor;fill-opacity:1;stroke:none" 
       d="M 0 4 L 3 12 L 4 12 L 4.5 10.666016 L 7 4 L 6 4 L 5 4 L 3.5 8 L 2 4 L 1 4 L 0 4 z "
     class="ColorScheme-Text"
     />
</svg>
